<svg xmlns="http://www.w3.org/2000/svg" width="1532.52" height="495.783" viewBox="0 0 1532.52 495.783">
  <g id="amana-solar" transform="translate(-146.749 -147.27)">
    <g id="Group_1" data-name="Group 1" transform="translate(-13.395 -520.902)">
      <path id="Path_1" data-name="Path 1" d="M261.7,668.172l-95.23,208.484h31.889l22.647-52.281H326.164l21.68,52.281h78.071l-90-208.484Zm13.083,32.055,41.275,99.792v0h-84.5Z"/>
      <path id="Path_2" data-name="Path 2" d="M878.791,668.172l-95.23,208.484h31.89l22.643-52.281H943.251l21.681,52.281H1043L953,668.172Zm13.071,32.055,41.287,99.792v0H848.641Z"/>
      <path id="Path_3" data-name="Path 3" d="M1422.063,668.172l-95.23,208.484h31.878l22.647-52.281h105.165l21.681,52.281h78.07l-90.015-208.484Zm13.071,32.055,41.287,99.792v0h-84.516Z"/>
      <path id="Path_4" data-name="Path 4" d="M1655.832,803a36.831,36.831,0,1,0,36.832,36.831A36.831,36.831,0,0,0,1655.832,803Z"/>
      <path id="Path_5" data-name="Path 5" d="M607.778,832.217,535.953,668.172H458.641V876.656h26.747V728.751l61.764,147.905h68.531l61.48-147.905V876.656h73.65V668.172h-73.65Z"/>
      <path id="Path_6" data-name="Path 6" d="M1267.682,826.458,1154.037,668.172h-78.414V876.656h26.746V717.766l114.511,158.891h77.229V668.172h-26.427Z"/>
    </g>
    <g id="Group_3" data-name="Group 3" transform="translate(-13.395 -520.902)">
      <path id="Path_7" data-name="Path 7" d="M301.619,1028.8h-43.4a24.68,24.68,0,0,1,0-49.36h103.23V954.882H231.23c-.089,0-.175-.012-.265-.012s-.177.012-.266.012c-30.057,0-57.58,18.752-66.791,47.363-15.582,48.4,19.374,86.557,65.133,87.79h43.4a24.68,24.68,0,1,1,0,49.359H164.678v24.561l139.177-.119c35.916-2.061,65.322-32.141,66.614-68.092C371.893,1056.092,340.7,1029.855,301.619,1028.8Z" fill="#fff"/>
      <path id="Path_8" data-name="Path 8" d="M1239.942,1064.593h28.786l57.317,99.345h80.934l-60.136-99.345h17.3a32.176,32.176,0,0,0,32.176-32.176v-32.5a45.047,45.047,0,0,0-45.047-45.047H1164.9v209.069h75.038Zm0-85.129h61.838a19.306,19.306,0,0,1,19.3,19.306v22.639c0,10.663-8.643,18.589-19.3,18.589h-61.838Z" fill="#fff"/>
      <path id="Path_9" data-name="Path 9" d="M681.252,954.87v209.073H838.735v-24.561H755.769V954.869Z" fill="#fff"/>
      <path id="Path_10" data-name="Path 10" d="M648.445,1106.106v-93.4a57.836,57.836,0,0,0-57.836-57.835H461.158a57.835,57.835,0,0,0-57.835,57.835v93.4a57.836,57.836,0,0,0,57.835,57.837H590.609A57.837,57.837,0,0,0,648.445,1106.106Zm-74.208,12.113c0,12.346-8.631,22.354-19.278,22.354h-58.15c-10.647,0-19.279-10.008-19.279-22.354V1000.592c0-12.344,8.632-22.353,19.279-22.353h58.15c10.647,0,19.278,10.009,19.278,22.353Z" fill="#fff"/>
      <g id="Group_2" data-name="Group 2">
        <path id="Path_11" data-name="Path 11" d="M980.54,987.026l41.4,100.061,10.113,24.42,21.753,52.432H1132.1l-90.263-209.069H967.42l-95.493,209.069H903.9Z" fill="#fff"/>
        <rect id="Rectangle_1" data-name="Rectangle 1" width="121.4" height="24.421" transform="translate(917.359 1087.087)" fill="#fff"/>
      </g>
    </g>
  </g>
</svg>
