<svg xmlns="http://www.w3.org/2000/svg" width="260" height="60.916" viewBox="0 0 260 60.916">
  <g id="Logo" transform="translate(7730 -28)">
    <g id="Layer_x0020_1" transform="translate(-7730 28)">
      <g id="_2034082571232" transform="translate(0)">
        <path id="Path_1" data-name="Path 1" d="M4574.439,40.171h32.974V0h-32.974Z" transform="translate(-4347.415)" fill="#bdbfc1"/>
        <path id="Path_2" data-name="Path 2" d="M3858.49,40.171h32.974V0H3858.49Z" transform="translate(-3666.997)" fill="#545456"/>
        <path id="Path_3" data-name="Path 3" d="M3145.52,40.171h32.967V0H3145.52Z" transform="translate(-2989.411)" fill="#e77834"/>
        <path id="Path_4" data-name="Path 4" d="M12.962,144.222a7.606,7.606,0,0,0,6.722-3.934,7.779,7.779,0,0,0,1.052-3.912,8.021,8.021,0,0,0-1.052-3.962,7.743,7.743,0,0,0-2.858-2.914A7.326,7.326,0,0,0,13,128.459,7.767,7.767,0,0,0,9.07,129.5a7.189,7.189,0,0,0-2.853,2.82A7.889,7.889,0,0,0,5.23,136.3a7.626,7.626,0,0,0,2.241,5.634,7.412,7.412,0,0,0,5.491,2.283ZM2.87,146.131V119.18H5.4v10.835a10.678,10.678,0,0,1,3.553-2.881,9.809,9.809,0,0,1,4.288-.958,9.6,9.6,0,0,1,7.107,3,10.339,10.339,0,0,1-.02,14.47,9.728,9.728,0,0,1-7.155,2.99,9.239,9.239,0,0,1-4.33-1.023A10.114,10.114,0,0,1,5.4,142.565v3.566H2.87Z" transform="translate(-2.727 -113.265)" fill="#545456"/>
        <path id="Path_5" data-name="Path 5" d="M461.77,270.3H464.3v9.07a18.8,18.8,0,0,0,.365,4.6,5.079,5.079,0,0,0,2.064,2.817,6.291,6.291,0,0,0,3.638,1.037,6.1,6.1,0,0,0,3.571-1.015,5.078,5.078,0,0,0,2.037-2.651,19.071,19.071,0,0,0,.38-4.784V270.3h2.575v9.539a15.2,15.2,0,0,1-.943,6.066,7.241,7.241,0,0,1-2.85,3.2,9.151,9.151,0,0,1-4.765,1.149,9.273,9.273,0,0,1-4.791-1.149,7.07,7.07,0,0,1-2.858-3.235,15.351,15.351,0,0,1-.951-6.2V270.3Z" transform="translate(-438.852 -256.885)" fill="#545456"/>
        <path id="Path_6" data-name="Path 6" d="M882.56,270.3h2.532v19.452H882.56Z" transform="translate(-838.759 -256.885)" fill="#545456"/>
        <path id="Path_7" data-name="Path 7" d="M1025.84,119.18h2.52v26.951h-2.52Z" transform="translate(-974.928 -113.265)" fill="#545456"/>
        <path id="Path_8" data-name="Path 8" d="M1150.773,128.607a7.782,7.782,0,0,0-3.892,1.012,7.581,7.581,0,0,0-2.831,2.878,8,8,0,0,0,2.86,10.781,7.6,7.6,0,0,0,3.856,1.045,7.833,7.833,0,0,0,3.921-1.045,7.184,7.184,0,0,0,2.846-2.8,7.87,7.87,0,0,0,1.01-3.962,7.724,7.724,0,0,0-2.253-5.648,7.417,7.417,0,0,0-5.517-2.259Zm10.086-9.427v26.951h-2.489v-3.343a11.015,11.015,0,0,1-3.551,2.875,10.019,10.019,0,0,1-11.439-2.021,10.049,10.049,0,0,1-2.939-7.294,10.183,10.183,0,0,1,10.124-10.172,9.159,9.159,0,0,1,4.371,1.023,9.867,9.867,0,0,1,3.434,3.062V119.18Z" transform="translate(-1083.841 -113.265)" fill="#545456"/>
        <path id="Path_9" data-name="Path 9" d="M1769.837,144.615a17.689,17.689,0,0,1-.375,3.926,9.187,9.187,0,0,1-2.781,4.593,11.751,11.751,0,0,1-8.357,2.929q-5.336,0-8.326-2.99a8.128,8.128,0,0,1-2.169-3.944,19.622,19.622,0,0,1-.419-4.513v-14.7h6.686v13.8c0,1.088.025,1.924.063,2.471a4,4,0,0,0,2.392,3.624,4.562,4.562,0,0,0,2,.436,4.267,4.267,0,0,0,3.678-1.7c.623-.836.926-2.449.926-4.834v-13.8h6.684v14.7Z" transform="translate(-1660.688 -123.463)" fill="#545456"/>
        <path id="Path_10" data-name="Path 10" d="M2311.807,138.4a3.116,3.116,0,0,0-.83-2.273,3.893,3.893,0,0,0-2.862-.857h-2.25v6.354h2.23a3.781,3.781,0,0,0,2.979-.951A3.312,3.312,0,0,0,2311.807,138.4Zm6.934-.075a9.458,9.458,0,0,1-1.632,5.7q-2.131,2.95-7.063,2.946h-4.181v8.443h-6.685V129.92h10.635c3.037,0,5.326.886,6.888,2.629a8.3,8.3,0,0,1,2.039,5.77Z" transform="translate(-2185.074 -123.472)" fill="#545456"/>
        <path id="Path_11" data-name="Path 11" d="M850.378,89.93a2.939,2.939,0,0,1,2.156.882,2.962,2.962,0,0,1,0,4.251,2.994,2.994,0,0,1-4.267,0,2.991,2.991,0,0,1,0-4.251A2.926,2.926,0,0,1,850.378,89.93Z" transform="translate(-805.325 -85.467)" fill="#e77834"/>
        <path id="Path_12" data-name="Path 12" d="M10.243,990.836h2.052L11.625,979.3H8.889L7.3,983.922c-.446,1.349-.839,2.77-1.145,4.022H6.1c-.291-1.286-.65-2.654-1.063-4.007l-1.5-4.638H.757L-.01,990.836H1.955l.257-4.638c.087-1.577.155-3.406.2-4.915h.039c.306,1.441.718,3.013,1.16,4.488l1.543,4.93H6.768l1.693-5c.514-1.456.99-3.013,1.368-4.42h.054c-.019,1.562.068,3.357.136,4.847l.223,4.706ZM24.425,984H20.078V981.03h4.6V979.3h-6.71v11.538h6.967v-1.727H20.078v-3.392h4.347Zm5.9,6.832h2.091v-4.367a4.346,4.346,0,0,0,1.029.087,5.141,5.141,0,0,0,3.644-1.247,3.529,3.529,0,0,0,.975-2.605,3.253,3.253,0,0,0-1.131-2.547,5.157,5.157,0,0,0-3.387-.942,18.726,18.726,0,0,0-3.222.238v11.383Zm2.091-9.893a5.715,5.715,0,0,1,1.213-.1c1.456,0,2.348.664,2.348,1.951,0,1.334-.961,2.12-2.533,2.12a3.447,3.447,0,0,1-1.029-.1Zm17.152,3.251H45.1v-3.644h4.741V979.3H43.6v11.538h6.5v-1.252h-5v-4.158h4.469v-1.232Zm2.416,6.642h1.5V978.681h-1.5Zm10.7-3.867a3.783,3.783,0,0,0,.049-.7c0-1.524-.7-3.886-3.42-3.886-2.416,0-3.886,1.951-3.886,4.449a3.861,3.861,0,0,0,4.076,4.2,6.676,6.676,0,0,0,2.77-.534L62,989.414a5.359,5.359,0,0,1-2.295.427,2.644,2.644,0,0,1-2.843-2.873h5.822Zm-5.8-1.082a2.466,2.466,0,0,1,2.31-2.426,2.14,2.14,0,0,1,2.091,2.426h-4.4Zm13.367,3.527a4.307,4.307,0,0,1-1.849.393,2.839,2.839,0,0,1-2.877-3.1,2.877,2.877,0,0,1,2.926-3.135,3.727,3.727,0,0,1,1.747.393l.344-1.145a4.74,4.74,0,0,0-2.091-.446A4.224,4.224,0,0,0,64,986.794a3.935,3.935,0,0,0,4.124,4.231,5.816,5.816,0,0,0,2.382-.48l-.257-1.13Zm2.581-8.4v1.543H71.552V983.7h1.281v4.517a3.225,3.225,0,0,0,.582,2.174,2.155,2.155,0,0,0,1.625.636,3.985,3.985,0,0,0,1.335-.208l-.068-1.145a2.833,2.833,0,0,1-.873.1c-.839,0-1.131-.582-1.131-1.606V983.7h2.159v-1.145H74.3v-1.989l-1.47.446Zm5.328,9.825h1.5V986.42a4.526,4.526,0,0,1,.054-.7,2.092,2.092,0,0,1,2.018-1.917,2.4,2.4,0,0,1,.514.034v-1.421a3.71,3.71,0,0,0-.412-.034,2.5,2.5,0,0,0-2.31,1.815h-.054l-.068-1.64h-1.32c.054.767.073,1.606.073,2.581Zm8.936-8.457a4.05,4.05,0,0,0-4.11,4.381,3.951,3.951,0,0,0,3.974,4.265,4.057,4.057,0,0,0,4.124-4.4,3.921,3.921,0,0,0-3.988-4.245Zm-.034,1.131c1.781,0,2.479,1.761,2.479,3.168,0,1.863-1.077,3.217-2.513,3.217-1.475,0-2.5-1.368-2.5-3.183,0-1.557.767-3.2,2.533-3.2Zm5.924,7.326h1.47v-4.983a1.951,1.951,0,0,1,.121-.733,2.072,2.072,0,0,1,1.863-1.509c1.15,0,1.727.942,1.727,2.261v4.963h1.475v-5.119a2.448,2.448,0,0,1,.121-.752,1.977,1.977,0,0,1,1.8-1.354c1.2,0,1.8.942,1.8,2.552v4.673h1.475v-4.862c0-2.877-1.625-3.6-2.742-3.6a2.8,2.8,0,0,0-1.814.582,3.344,3.344,0,0,0-.941,1.077H99.3a2.439,2.439,0,0,0-2.324-1.66,2.864,2.864,0,0,0-2.62,1.524H94.3l-.068-1.349h-1.32c.034.684.073,1.368.073,2.242v6.041Zm20.931-3.867a3.785,3.785,0,0,0,.049-.7c0-1.524-.7-3.886-3.42-3.886-2.416,0-3.886,1.95-3.886,4.449a3.861,3.861,0,0,0,4.076,4.2,6.68,6.68,0,0,0,2.77-.534l-.272-1.077a5.357,5.357,0,0,1-2.295.427,2.644,2.644,0,0,1-2.843-2.872h5.822Zm-5.8-1.082a2.466,2.466,0,0,1,2.31-2.426,2.14,2.14,0,0,1,2.091,2.426h-4.4Zm13.367,3.527a4.3,4.3,0,0,1-1.849.393,2.839,2.839,0,0,1-2.877-3.1,2.877,2.877,0,0,1,2.926-3.135,3.725,3.725,0,0,1,1.747.393l.344-1.145a4.74,4.74,0,0,0-2.091-.446,4.224,4.224,0,0,0-4.449,4.416,3.935,3.935,0,0,0,4.124,4.231,5.815,5.815,0,0,0,2.382-.48l-.257-1.13Zm2.018,1.421h1.5v-5a1.982,1.982,0,0,1,.1-.718,2.186,2.186,0,0,1,2.018-1.49c1.422,0,1.922,1.111,1.922,2.445v4.76h1.5V985.9c0-2.843-1.781-3.528-2.892-3.528a3.091,3.091,0,0,0-1.543.412,2.834,2.834,0,0,0-1.077,1.077h-.034V978.68h-1.5v12.154Zm15.317-5.085c0-1.64-.616-3.372-3.149-3.372a5.4,5.4,0,0,0-2.742.718l.344,1.014a3.959,3.959,0,0,1,2.174-.616,1.7,1.7,0,0,1,1.882,1.9v.17c-3.2-.014-4.983,1.082-4.983,3.081a2.365,2.365,0,0,0,2.538,2.382,3.093,3.093,0,0,0,2.533-1.232h.049l.121,1.043h1.354a13.61,13.61,0,0,1-.121-1.985v-3.1Zm-1.456,2.295a1.648,1.648,0,0,1-.068.48,2.091,2.091,0,0,1-2.038,1.383,1.317,1.317,0,0,1-1.4-1.436c0-1.606,1.863-1.9,3.508-1.863v1.436Zm3.886,2.79h1.5v-4.983a2.208,2.208,0,0,1,2.12-2.242c1.422,0,1.922,1.116,1.922,2.45v4.774h1.5V985.9c0-2.843-1.781-3.528-2.926-3.528a3.075,3.075,0,0,0-2.742,1.543H142.6l-.082-1.368h-1.339c.054.684.073,1.368.073,2.242v6.041Zm11,0v-8.282h-1.5v8.282Zm-.752-11.552a.915.915,0,0,0-.941.941.883.883,0,0,0,.907.922.932.932,0,1,0,.034-1.863Zm8.9,10.131a4.3,4.3,0,0,1-1.849.393,2.839,2.839,0,0,1-2.877-3.1,2.877,2.877,0,0,1,2.926-3.135,3.731,3.731,0,0,1,1.747.393l.344-1.145a4.741,4.741,0,0,0-2.091-.446,4.224,4.224,0,0,0-4.449,4.415,3.936,3.936,0,0,0,4.124,4.231,5.819,5.819,0,0,0,2.382-.48l-.257-1.131Zm7.836-3.663c0-1.64-.616-3.372-3.149-3.372a5.4,5.4,0,0,0-2.741.718l.344,1.014a3.959,3.959,0,0,1,2.174-.616,1.7,1.7,0,0,1,1.882,1.9v.17c-3.2-.014-4.983,1.082-4.983,3.081a2.365,2.365,0,0,0,2.538,2.382,3.092,3.092,0,0,0,2.533-1.232h.049l.122,1.043h1.354a13.614,13.614,0,0,1-.121-1.985v-3.1Zm-1.456,2.295a1.647,1.647,0,0,1-.068.48,2.09,2.09,0,0,1-2.038,1.383,1.317,1.317,0,0,1-1.4-1.436c0-1.606,1.863-1.9,3.508-1.863Zm3.886,2.79h1.5V978.679h-1.5Zm10.543,0,1.645-6.007a31.6,31.6,0,0,0,.888-3.765h.034a35.429,35.429,0,0,0,.757,3.765l1.451,6.007h1.557l3.27-11.538h-1.524l-1.524,5.822c-.359,1.436-.684,2.722-.922,3.988h-.034c-.17-1.218-.48-2.586-.805-3.955l-1.4-5.856h-1.557l-1.543,5.822c-.393,1.49-.752,2.858-.941,4h-.034c-.2-1.111-.514-2.548-.854-3.988L178.3,979.3H176.73l2.926,11.538h1.557Zm13.938-8.457a4.051,4.051,0,0,0-4.11,4.381,3.951,3.951,0,0,0,3.974,4.265,4.058,4.058,0,0,0,4.124-4.4,3.921,3.921,0,0,0-3.988-4.245Zm-.034,1.131c1.781,0,2.479,1.761,2.479,3.168,0,1.863-1.077,3.217-2.513,3.217-1.475,0-2.5-1.368-2.5-3.183,0-1.557.767-3.2,2.533-3.2Zm5.924,7.326h1.5v-4.415a4.524,4.524,0,0,1,.054-.7,2.092,2.092,0,0,1,2.018-1.917,2.392,2.392,0,0,1,.514.034v-1.421a3.681,3.681,0,0,0-.412-.034,2.505,2.505,0,0,0-2.31,1.814h-.054l-.068-1.64h-1.32c.054.767.073,1.606.073,2.581Zm7.153-12.154h-1.485v12.154H208.2v-3.115l.771-.854,2.843,3.969h1.849l-3.649-4.876,3.188-3.406h-1.8l-2.445,2.858c-.243.291-.514.65-.718.942H208.2Zm5.978,11.761a4.76,4.76,0,0,0,2.329.582c1.936,0,3.081-1.029,3.081-2.5,0-1.232-.752-1.951-2.174-2.484-1.077-.427-1.557-.732-1.557-1.422,0-.616.48-1.125,1.368-1.125a3.222,3.222,0,0,1,1.693.495l.359-1.1a3.825,3.825,0,0,0-2.018-.514,2.566,2.566,0,0,0-2.858,2.431c0,.995.7,1.8,2.207,2.348,1.1.408,1.524.786,1.524,1.5s-.514,1.232-1.592,1.232a4.289,4.289,0,0,1-2-.582l-.359,1.13Zm11.009.393h6.434v-1.252h-4.93V979.3h-1.5Zm8.675.189a1.013,1.013,0,0,0,1.043-1.077,1,1,0,0,0-1.009-1.082,1.028,1.028,0,0,0-1.029,1.082,1,1,0,0,0,.995,1.077Zm2.945-.189h6.434v-1.252h-4.93V979.3h-1.5Zm8.675.189a1.013,1.013,0,0,0,1.043-1.077,1,1,0,0,0-1.009-1.082,1.027,1.027,0,0,0-1.029,1.082,1,1,0,0,0,.995,1.077Zm10.713-1.747a5.969,5.969,0,0,1-2.445.481c-2.79,0-4.415-1.8-4.415-4.638,0-3.032,1.8-4.76,4.5-4.76a5.256,5.256,0,0,1,2.314.48l.374-1.218a6.248,6.248,0,0,0-2.737-.514,5.731,5.731,0,0,0-6.026,6.06c0,3.8,2.431,5.856,5.682,5.856a7.339,7.339,0,0,0,3.047-.549l-.291-1.2Zm2.756,1.747a1.013,1.013,0,0,0,1.043-1.077,1,1,0,0,0-1.009-1.082,1.028,1.028,0,0,0-1.029,1.082,1,1,0,0,0,.995,1.077Z" transform="translate(0.01 -930.109)" fill="#545456"/>
      </g>
    </g>
  </g>
</svg>
