<svg width="180" height="180" viewBox="0 0 180 180" fill="none" xmlns="http://www.w3.org/2000/svg">
<path d="M53.7719 43.5844L51.075 73.775L48.7688 63.4031L53.7719 43.5844ZM54.3938 41.9281L58.5313 56.4531L51.55 73.7469L54.3938 41.9281ZM71.425 33.225L58.8344 55.7875L54.5688 40.8156L71.425 33.225ZM65.675 29.5594L71.4938 32.5719L55.4438 39.8L65.675 29.5594ZM63.1594 28.2594L65.2344 29.3313L55.975 38.5969L63.1594 28.2594ZM72.7969 21.7656L65.5844 28.9813L63.5469 27.9281L72.7969 21.7656ZM71.8781 32.2375L66.025 29.2094L74.1906 21.0375L71.8781 32.2375ZM74.8625 20.5906L88.9 26.0656L72.4688 32.1688L74.8625 20.5906ZM92.6938 17.5469L89.4938 25.7906L75.5313 20.3469L92.6938 17.5469ZM93.1875 17.5813L111.034 27.1313L89.9656 25.8813L93.1875 17.5813ZM115.472 22.1688L112.019 27.125L94.625 17.8156L115.472 22.1688ZM115.903 22.3781L126.288 33.025L112.456 27.325L115.903 22.3781ZM121.791 44.7313L112.688 27.9313L126.934 33.8L121.791 44.7313ZM134.741 54.9563L122.075 45.2344L127.228 34.2906L134.741 54.9563ZM119.563 72.2344L121.975 45.7563L134.891 55.6656L119.563 72.2344ZM132.713 75.7969L119.713 72.7656L134.925 56.325L132.713 75.7969ZM118.759 93.7125L119.491 73.2L132.503 76.2313L118.759 93.7125ZM118.275 94.0219L96.4313 84.575L119.013 73.3469L118.275 94.0219ZM89.45 99.5656L95.9031 84.9656L117.609 94.3531L89.45 99.5656ZM94.3688 102.719L89.6688 100.006L115.591 95.2063L94.3688 102.719ZM75.7219 99.3844L88.925 100.122L93.0531 102.506L75.7219 99.3844ZM69.1906 83.9375L88.2875 99.6156L72.0813 98.7063L69.1906 83.9375ZM52.15 76.0656L68.6344 83.5594L71.4844 98.1188L52.15 76.0656ZM57.4406 84.5156L53.1656 77.9438L67.7156 94.5375L57.4406 84.5156ZM68.3281 82.7969L51.4938 75.1469L58.7469 57.1813L68.3281 82.7969ZM81.425 63.3156L59.2219 56.2594L71.9844 33.3813L81.425 63.3156ZM94.9594 45.2406L82.05 63.0969L72.6469 33.2875L94.9594 45.2406ZM94.8969 44.4563L72.8344 32.6375L89.4 26.4844L94.8969 44.4563ZM95.5969 44.4844L90.0531 26.3594L111.453 27.6281L95.5969 44.4844ZM96.2063 44.8L112.056 27.9531L121.278 44.9719L96.2063 44.8ZM102.631 62.4438L118.694 72.8719L96.2156 84.05L102.631 62.4438ZM95.9438 45.4625L120.972 45.6313L102.616 61.4969L95.9438 45.4625ZM101.988 61.7125L82.625 63.4313L95.3688 45.8L101.988 61.7125ZM82.5156 64.1063L102.063 62.3688L95.675 83.875L82.5156 64.1063ZM95.3313 84.8563L88.8688 99.4813L69.5938 83.6563L95.3313 84.8563ZM68.8844 82.6688L59.2719 56.9688L81.4125 64.0063L68.8844 82.6688ZM81.9313 64.4188L95.1531 84.2813L69.4031 83.0813L81.9313 64.4188ZM119.069 72.4406L102.938 61.9688L121.484 45.9344L119.069 72.4406ZM50.9438 75.3625L51.175 75.3125L50.975 75.4406L51.0563 75.5656V75.5688L51.0594 75.5719L57.0594 84.7938L57.2563 84.6656L57.0938 84.8344L71.7188 99.1031L71.8844 98.9313L71.8406 99.1656L94.3031 103.209L94.3469 102.978L94.425 103.2L118.575 94.65L118.497 94.4281L118.681 94.575L133.103 76.2313L132.919 76.0844L133.153 76.1125L135.475 55.6625L135.241 55.6375L135.463 55.5563L127.478 33.5969L127.256 33.6781L127.425 33.5125L116.041 21.8469L115.872 22.0094L115.919 21.7781L93.1125 17.0156L93.0625 17.25L93.025 17.0156L74.6031 20.0188L74.6406 20.2531L74.5094 20.0563L62.9531 27.7563L63.0844 27.9531L62.8906 27.8188L54.1688 40.375L54.1563 40.3781L54.1594 40.3875L54.0781 40.5031L54.2719 40.6375L54.0438 40.5813L48.2969 63.3406L48.525 63.4L48.2969 63.45L50.9438 75.3625Z" fill="#A92828"/>
<path d="M71.9966 34.6906C73.1497 34.7531 74.1341 33.8656 74.1934 32.7156C74.2528 31.5625 73.3684 30.5781 72.2153 30.5187C71.0622 30.4562 70.0809 31.3437 70.0184 32.4969C69.9591 33.6469 70.8434 34.6312 71.9966 34.6906Z" fill="#A92828"/>
<path d="M83.884 63.8938C83.9402 62.8188 83.1121 61.9 82.0371 61.8438C80.9621 61.7875 80.0433 62.6125 79.9871 63.6907C79.9308 64.7657 80.7558 65.6844 81.834 65.7407C82.909 65.7969 83.8277 64.9719 83.884 63.8938Z" fill="#A92828"/>
<path d="M66.324 83.1999C66.249 84.603 67.3271 85.803 68.7334 85.8749C70.1365 85.9499 71.3334 84.8718 71.4084 83.4655C71.4802 82.0624 70.4021 80.8655 68.999 80.7905C67.5959 80.7186 66.3959 81.7968 66.324 83.1999Z" fill="#A92828"/>
<path d="M91.5418 26.2C91.5981 25.1406 90.7856 24.2406 89.7293 24.1844C88.6699 24.1281 87.7668 24.9406 87.7137 26C87.6574 27.0563 88.4699 27.9594 89.5262 28.0156C90.5856 28.0719 91.4887 27.2594 91.5418 26.2Z" fill="#A92828"/>
<path d="M61.1234 56.6781C61.1891 55.4156 60.2203 54.3344 58.9516 54.2688C57.6891 54.2031 56.6078 55.175 56.5422 56.4406C56.4766 57.7063 57.4484 58.7844 58.7141 58.85C59.9797 58.9188 61.0578 57.9438 61.1234 56.6781Z" fill="#A92828"/>
<path d="M87.2292 99.7687C87.1761 100.744 87.9261 101.575 88.9011 101.625C89.873 101.675 90.7042 100.928 90.7542 99.9531C90.8073 98.9812 90.0573 98.15 89.0855 98.0969C88.1105 98.0469 87.2792 98.7937 87.2292 99.7687Z" fill="#A92828"/>
<path d="M117.222 72.7906C117.162 73.925 118.034 74.8906 119.165 74.95C120.3 75.0094 121.268 74.1406 121.328 73.0062C121.387 71.8719 120.515 70.9062 119.381 70.8469C118.247 70.7875 117.281 71.6562 117.222 72.7906Z" fill="#A92828"/>
<path d="M95.6131 87.0657C97.0162 87.1407 98.2131 86.0625 98.2881 84.6594C98.3599 83.2563 97.2818 82.0563 95.8787 81.9844C94.4756 81.9094 93.2787 82.9875 93.2068 84.3907C93.1318 85.7938 94.2099 86.9938 95.6131 87.0657Z" fill="#A92828"/>
<path d="M113.995 27.4657C114.051 26.4345 113.257 25.5563 112.226 25.5001C111.195 25.447 110.317 26.2407 110.26 27.272C110.207 28.3032 111.001 29.1813 112.032 29.2376C113.063 29.2907 113.942 28.497 113.995 27.4657Z" fill="#A92828"/>
<path d="M123.97 45.428C124.036 44.2062 123.095 43.1655 121.873 43.0999C120.651 43.0343 119.608 43.9749 119.542 45.1968C119.48 46.4187 120.417 47.4624 121.639 47.528C122.864 47.5905 123.905 46.653 123.97 45.428Z" fill="#A92828"/>
<path d="M95.3867 46.8281C96.3586 46.8812 97.1867 46.1343 97.2367 45.1624C97.2899 44.1906 96.543 43.3624 95.5711 43.3124C94.5992 43.2624 93.7711 44.0062 93.7211 44.9781C93.6711 45.9499 94.418 46.7781 95.3867 46.8281Z" fill="#A92828"/>
<path d="M104.354 62.0968C104.411 61.0562 103.611 60.1687 102.57 60.1156C101.529 60.0593 100.642 60.8593 100.589 61.9C100.532 62.9406 101.332 63.8281 102.373 63.8812C103.414 63.9343 104.301 63.1375 104.354 62.0968Z" fill="#A92828"/>
<path d="M54.4656 40.9375L65.3969 43.9656L52.0063 57.6531L54.4656 40.9375ZM73.9594 21.2688L65.6531 43.5469L54.725 40.5188L73.9594 21.2688ZM63.2531 28.125L72.7969 21.7656L55.975 38.5969L63.2531 28.125ZM74.7656 20.7281L85.65 32.2156L66.3813 43.2125L74.7656 20.7281ZM103.588 22.4813L86.1094 32.0125L75.2281 20.5281L103.588 22.4813ZM93.0313 17.4906L103.097 21.975L76.6938 20.1563L93.0313 17.4906ZM113.831 21.825L104.459 22.0625L95.175 17.9313L113.831 21.825ZM126.113 32.8438L105.369 22.5125L115.775 22.25L126.113 32.8438ZM108.581 39.3531L104.806 22.7625L126.569 33.6L108.581 39.3531ZM127.744 51.1844L109.053 39.7969L127.034 34.0469L127.744 51.1844ZM134.803 55.1281L128.231 51.5281L127.553 35.1906L134.803 55.1281ZM128.028 75.725L128.234 52.0688L134.95 55.75L128.028 75.725ZM132.703 75.8906L128.141 76.8469L134.766 57.7281L132.703 75.8906ZM119.994 92.1406L127.913 77.4125L127.931 77.4031L127.925 77.3938L127.938 77.3719L132.331 76.45L119.994 92.1406ZM118.397 94.1125L108.825 89.2563L127.109 77.9125L118.397 94.1125ZM95.2688 102.4L108.338 89.5375L117.897 94.3906L95.2688 102.4ZM94.3219 102.672L80.4281 92.7406L107.638 89.5656L94.3219 102.672ZM72.4344 98.7906L79.8 92.8719L93.3531 102.559L72.4344 98.7906ZM58.1875 85.2406L79.3125 92.6594L71.9 98.6188L58.1875 85.2406ZM67.0906 69.0469L79.2375 92.1313L57.6563 84.5563L67.0906 69.0469ZM66.7969 67.9281L52.0688 58.2625L65.5906 44.4438L66.7969 67.9281ZM84.9281 52.3031L67.3563 67.8125L66.1531 44.3375L84.9281 52.3031ZM85.2219 51.7094L66.5344 43.7781L85.7188 32.8313L85.2219 51.7094ZM88.7938 74.1031L67.7438 68.3531L85.3094 52.8469L88.7938 74.1031ZM86.7094 32.225L104.209 22.6813L107.988 39.2875L86.7094 32.225ZM107.606 39.7594L85.8844 51.6375L86.3813 32.7125L107.606 39.7594ZM110.813 62.5719L86.2969 52.1656L108.106 40.2406L110.813 62.5719ZM111.475 62.5219L108.778 40.2938L127.434 51.6594L111.475 62.5219ZM111.756 63.1281L127.759 52.2344L127.55 76.5313L111.756 63.1281ZM111.472 63.7531L127.259 77.1531L108.691 88.6719L111.472 63.7531ZM89.7625 74.5844L110.813 63.6781L108.025 88.6844L89.7625 74.5844ZM85.9625 52.7438L110.434 63.1281L89.45 74.0031L85.9625 52.7438ZM79.7906 91.9656L67.6625 68.9188L88.7844 74.6875L79.7906 91.9656ZM89.2906 74.9375L107.625 89.0906L80.2656 92.2844L89.2906 74.9375ZM52.0313 58.9156L66.725 68.5594L57.35 83.9688L52.0313 58.9156ZM48.7906 63.4188L51.5563 58.9625L56.4844 82.1594L48.7906 63.4188ZM53.3594 45.2188L51.4406 58.2563L49.1281 61.9813L53.3594 45.2188ZM48.2969 63.3406L48.525 63.4L48.3094 63.4875L57.0406 84.7563L57.2563 84.6656L57.0938 84.8344L71.7188 99.1031L71.8844 98.9313L71.8406 99.1656L94.3031 103.209L94.3469 102.978L94.425 103.2L118.575 94.65L118.497 94.4281L118.681 94.575L133.103 76.2313L132.919 76.0844L133.153 76.1125L135.475 55.6625L135.241 55.6375L135.463 55.5563L127.478 33.5969L127.256 33.6781L127.425 33.5125L116.041 21.8469L115.872 22.0094L115.919 21.7781L93.1125 17.0156L93.0625 17.25L93.025 17.0156L74.6031 20.0188L74.6406 20.2531L74.5094 20.0563L62.9531 27.7563L63.0844 27.9531L62.8906 27.8188L54.0781 40.5031L54.2719 40.6375L54.0438 40.5813L48.2969 63.3406Z" fill="#A92828"/>
<path d="M86.3359 74.4656C86.3359 76.0656 87.6359 77.3656 89.2359 77.3656C90.8391 77.3656 92.1391 76.0656 92.1391 74.4656C92.1391 72.8625 90.8391 71.5625 89.2359 71.5625C87.6359 71.5625 86.3359 72.8625 86.3359 74.4656Z" fill="#A92828"/>
<path d="M71.8609 97.9031C71.2859 97.9031 70.8203 98.3656 70.8203 98.9406C70.8203 99.5156 71.2859 99.9781 71.8609 99.9781C72.4328 99.9781 72.8984 99.5156 72.8984 98.9406C72.8984 98.3656 72.4328 97.9031 71.8609 97.9031Z" fill="#A92828"/>
<path d="M81.1891 92.5906C81.1891 91.8312 80.5734 91.2156 79.8172 91.2156C79.0578 91.2156 78.4453 91.8312 78.4453 92.5906C78.4453 93.3468 79.0578 93.9625 79.8172 93.9625C80.5734 93.9625 81.1891 93.3468 81.1891 92.5906Z" fill="#A92828"/>
<mask id="mask0_3448_114" style="mask-type:luminance" maskUnits="userSpaceOnUse" x="92" y="100" width="5" height="5">
<path d="M92.0469 100.8H96.8469V104.525H92.0469V100.8Z" fill="white"/>
</mask>
<g mask="url(#mask0_3448_114)">
<path d="M92.625 103.012C92.625 103.987 93.4125 104.778 94.3875 104.778C95.3625 104.778 96.1531 103.987 96.1531 103.012C96.1531 102.037 95.3625 101.247 94.3875 101.247C93.4125 101.247 92.625 102.037 92.625 103.012Z" fill="#A92828"/>
</g>
<mask id="mask1_3448_114" style="mask-type:luminance" maskUnits="userSpaceOnUse" x="90" y="15" width="6" height="5">
<path d="M90.4453 15.1719H95.2453V20H90.4453V15.1719Z" fill="white"/>
</mask>
<g mask="url(#mask1_3448_114)">
<path d="M93.0703 15.1719C91.9234 15.1719 90.9922 16.1031 90.9922 17.25C90.9922 18.3969 91.9234 19.3281 93.0703 19.3281C94.2172 19.3281 95.1484 18.3969 95.1484 17.25C95.1484 16.1031 94.2172 15.1719 93.0703 15.1719Z" fill="#A92828"/>
</g>
<path d="M63.0828 26.5405C62.3078 26.5405 61.6797 27.1687 61.6797 27.9437C61.6797 28.7187 62.3078 29.3468 63.0828 29.3468C63.8578 29.3468 64.4859 28.7187 64.4859 27.9437C64.4859 27.1687 63.8578 26.5405 63.0828 26.5405Z" fill="#A92828"/>
<path d="M74.6703 22.0782C75.6734 22.0782 76.4859 21.2625 76.4859 20.2594C76.4859 19.2532 75.6734 18.4407 74.6703 18.4407C73.6672 18.4407 72.8516 19.2532 72.8516 20.2594C72.8516 21.2625 73.6672 22.0782 74.6703 22.0782Z" fill="#A92828"/>
<path d="M64.5938 68.4844C64.5938 69.8875 65.7344 71.0281 67.1406 71.0281C68.5437 71.0281 69.6844 69.8875 69.6844 68.4844C69.6844 67.0781 68.5437 65.9375 67.1406 65.9375C65.7344 65.9375 64.5938 67.0781 64.5938 68.4844Z" fill="#A92828"/>
<mask id="mask2_3448_114" style="mask-type:luminance" maskUnits="userSpaceOnUse" x="47" y="61" width="4" height="5">
<path d="M47.1016 61.6001H50.4516V65.6001H47.1016V61.6001Z" fill="white"/>
</mask>
<g mask="url(#mask2_3448_114)">
<path d="M48.5641 62.0283C47.7922 62.0283 47.1641 62.6564 47.1641 63.4314C47.1641 64.2064 47.7922 64.8314 48.5641 64.8314C49.3391 64.8314 49.9672 64.2064 49.9672 63.4314C49.9672 62.6564 49.3391 62.0283 48.5641 62.0283Z" fill="#A92828"/>
</g>
<path d="M49.9141 58.3313C49.9141 59.3063 50.7047 60.0969 51.6797 60.0969C52.6547 60.0969 53.4453 59.3063 53.4453 58.3313C53.4453 57.3563 52.6547 56.5657 51.6797 56.5657C50.7047 56.5657 49.9141 57.3563 49.9141 58.3313Z" fill="#A92828"/>
<path d="M54.2984 42.0719C55.0734 42.0719 55.7016 41.4438 55.7016 40.6688C55.7016 39.8938 55.0734 39.2688 54.2984 39.2688C53.5266 39.2688 52.8984 39.8938 52.8984 40.6688C52.8984 41.4438 53.5266 42.0719 54.2984 42.0719Z" fill="#A92828"/>
<path d="M65.8875 41.3125C64.4813 41.3125 63.3438 42.4531 63.3438 43.8562C63.3438 45.2625 64.4813 46.4031 65.8875 46.4031C67.2938 46.4031 68.4313 45.2625 68.4313 43.8562C68.4313 42.4531 67.2938 41.3125 65.8875 41.3125Z" fill="#A92828"/>
<path d="M58.9328 84.7282C58.9328 83.8376 58.2109 83.1157 57.3203 83.1157C56.4328 83.1157 55.7109 83.8376 55.7109 84.7282C55.7109 85.6157 56.4328 86.3376 57.3203 86.3376C58.2109 86.3376 58.9328 85.6157 58.9328 84.7282Z" fill="#A92828"/>
<path d="M128.022 50.1626C127.206 50.1626 126.547 50.8251 126.547 51.6407C126.547 52.4563 127.206 53.1188 128.022 53.1188C128.841 53.1188 129.5 52.4563 129.5 51.6407C129.5 50.8251 128.841 50.1626 128.022 50.1626Z" fill="#A92828"/>
<path d="M125.914 77.1375C125.914 78.1688 126.752 79.0062 127.786 79.0062C128.817 79.0062 129.655 78.1688 129.655 77.1375C129.655 76.1031 128.817 75.2656 127.786 75.2656C126.752 75.2656 125.914 76.1031 125.914 77.1375Z" fill="#A92828"/>
<path d="M127.202 31.9719C126.286 31.9719 125.539 32.7157 125.539 33.6344C125.539 34.5532 126.286 35.2969 127.202 35.2969C128.12 35.2969 128.864 34.5532 128.864 33.6344C128.864 32.7157 128.12 31.9719 127.202 31.9719Z" fill="#A92828"/>
<path d="M118.481 95.7968C119.256 95.7968 119.881 95.1687 119.881 94.3968C119.881 93.6218 119.256 92.9937 118.481 92.9937C117.706 92.9937 117.078 93.6218 117.078 94.3968C117.078 95.1687 117.706 95.7968 118.481 95.7968Z" fill="#A92828"/>
<mask id="mask3_3448_114" style="mask-type:luminance" maskUnits="userSpaceOnUse" x="132" y="53" width="6" height="5">
<path d="M132.977 53.4062H137.308V57.7844H132.977V53.4062Z" fill="white"/>
</mask>
<g mask="url(#mask3_3448_114)">
<path d="M137.305 55.6375C137.305 54.4906 136.373 53.5625 135.227 53.5625C134.08 53.5625 133.148 54.4906 133.148 55.6375C133.148 56.7875 134.08 57.7156 135.227 57.7156C136.373 57.7156 137.305 56.7875 137.305 55.6375Z" fill="#A92828"/>
</g>
<path d="M131.508 76.1094C131.508 76.8844 132.136 77.5125 132.911 77.5125C133.686 77.5125 134.314 76.8844 134.314 76.1094C134.314 75.3344 133.686 74.7063 132.911 74.7063C132.136 74.7063 131.508 75.3344 131.508 76.1094Z" fill="#A92828"/>
<path d="M115.809 20.5532C115.034 20.5532 114.406 21.1813 114.406 21.9532C114.406 22.7282 115.034 23.3563 115.809 23.3563C116.584 23.3563 117.209 22.7282 117.209 21.9532C117.209 21.1813 116.584 20.5532 115.809 20.5532Z" fill="#A92828"/>
<path d="M88.5891 52.175C88.5891 50.5188 87.2453 49.175 85.5891 49.175C83.9297 49.175 82.5859 50.5188 82.5859 52.175C82.5859 53.8344 83.9297 55.1782 85.5891 55.1782C87.2453 55.1782 88.5891 53.8344 88.5891 52.175Z" fill="#A92828"/>
<path d="M113.931 63.1C113.931 61.6031 112.719 60.3906 111.222 60.3906C109.728 60.3906 108.516 61.6031 108.516 63.1C108.516 64.5969 109.728 65.8094 111.222 65.8094C112.719 65.8094 113.931 64.5969 113.931 63.1Z" fill="#A92828"/>
<path d="M86.0516 28.7812C84.1047 28.7812 82.5234 30.3625 82.5234 32.3125C82.5234 34.2625 84.1047 35.8406 86.0516 35.8406C88.0016 35.8406 89.5828 34.2625 89.5828 32.3125C89.5828 30.3625 88.0016 28.7812 86.0516 28.7812Z" fill="#A92828"/>
<path d="M104.413 20.9812C103.666 20.9812 103.062 21.5875 103.062 22.3312C103.062 23.0781 103.666 23.6812 104.413 23.6812C105.159 23.6812 105.763 23.0781 105.763 22.3312C105.763 21.5875 105.159 20.9812 104.413 20.9812Z" fill="#A92828"/>
<path d="M106.086 89.2375C106.086 90.4594 107.08 91.4532 108.302 91.4532C109.527 91.4532 110.52 90.4594 110.52 89.2375C110.52 88.0125 109.527 87.0188 108.302 87.0188C107.08 87.0188 106.086 88.0125 106.086 89.2375Z" fill="#A92828"/>
<path d="M108.409 36.9563C106.906 36.9563 105.688 38.175 105.688 39.6782C105.688 41.1813 106.906 42.4 108.409 42.4C109.912 42.4 111.134 41.1813 111.134 39.6782C111.134 38.175 109.912 36.9563 108.409 36.9563Z" fill="#A92828"/>
<path d="M25.1438 151.336L25.3438 154.636C23.5 154.83 20.3625 154.923 15.9313 154.923C14.5812 154.923 13.5 154.558 12.6938 153.823C11.8938 153.092 11.4844 152.095 11.4688 150.836V138.536C11.4844 137.286 11.8938 136.295 12.6938 135.561C13.5 134.82 14.5812 134.448 15.9313 134.448C20.3625 134.448 23.5 134.548 25.3438 134.748L25.1438 138.073H17.3438C16.85 138.073 16.4969 138.192 16.2812 138.423C16.0719 138.658 15.9688 139.042 15.9688 139.573V142.661H24.0563V145.898H15.9688V149.811C15.9688 150.361 16.0719 150.755 16.2812 150.986C16.4969 151.22 16.85 151.336 17.3438 151.336H25.1438Z" fill="#A92828"/>
<path d="M37.0016 148.774H28.2266V145.924H37.0016V148.774Z" fill="#A92828"/>
<path d="M54.7312 151.036L55.1188 154.361C53.35 154.911 51.1844 155.186 48.6188 155.186C45.475 155.186 43.2687 154.405 41.9937 152.836C40.725 151.27 40.0938 148.558 40.0938 144.699C40.0938 140.833 40.725 138.117 41.9937 136.549C43.2687 134.974 45.475 134.186 48.6188 134.186C50.8938 134.186 52.9219 134.411 54.7063 134.861L54.3188 138.224C52.7344 138.124 50.8344 138.074 48.6188 138.074C47.1438 138.074 46.1344 138.542 45.5938 139.474C45.0594 140.399 44.7938 142.136 44.7938 144.686C44.7938 147.236 45.0594 148.98 45.5938 149.911C46.1344 150.845 47.1438 151.311 48.6188 151.311C51.3438 151.311 53.3813 151.22 54.7312 151.036Z" fill="#A92828"/>
<path d="M59.2156 136.411C60.4812 134.911 62.7406 134.161 65.9906 134.161C69.2469 134.161 71.5156 134.911 72.7906 136.411C74.0656 137.911 74.7031 140.673 74.7031 144.698C74.7031 148.717 74.0656 151.473 72.7906 152.973C71.5156 154.473 69.2469 155.223 65.9906 155.223C62.7406 155.223 60.4812 154.473 59.2156 152.973C57.9562 151.473 57.3281 148.717 57.3281 144.698C57.3281 140.673 57.9562 137.911 59.2156 136.411ZM69.1281 139.223C68.5688 138.258 67.5219 137.773 65.9906 137.773C64.4656 137.773 63.4219 138.258 62.8656 139.223C62.3063 140.183 62.0281 142.008 62.0281 144.698C62.0281 147.383 62.3063 149.205 62.8656 150.161C63.4219 151.12 64.4656 151.598 65.9906 151.598C67.5219 151.598 68.5688 151.12 69.1281 150.161C69.6844 149.205 69.9656 147.383 69.9656 144.698C69.9656 142.008 69.6844 140.183 69.1281 139.223Z" fill="#A92828"/>
<path d="M95.2375 134.536V153.223C95.2375 154.298 94.7063 154.836 93.65 154.836H90.8625C90.4031 154.836 90.0438 154.736 89.7875 154.536C89.5375 154.33 89.2938 153.986 89.0625 153.511L83.7375 142.686C83.0688 141.255 82.6563 140.205 82.5 139.536H82.175C82.3156 140.52 82.3875 141.598 82.3875 142.773V154.836H78.125V136.161C78.125 135.08 78.6625 134.536 79.7375 134.536H82.475C82.925 134.536 83.275 134.642 83.525 134.848C83.7813 135.058 84.0281 135.395 84.2625 135.861L89.4125 146.361C89.9031 147.345 90.3938 148.436 90.8875 149.636H91.175C91.0563 148.105 91 146.967 91 146.223V134.536H95.2375Z" fill="#A92828"/>
<path d="M116.48 134.536V153.223C116.48 154.298 115.948 154.836 114.892 154.836H112.105C111.645 154.836 111.286 154.736 111.03 154.536C110.78 154.33 110.536 153.986 110.305 153.511L104.98 142.686C104.311 141.255 103.898 140.205 103.742 139.536H103.417C103.558 140.52 103.63 141.598 103.63 142.773V154.836H99.3672V136.161C99.3672 135.08 99.9047 134.536 100.98 134.536H103.717C104.167 134.536 104.517 134.642 104.767 134.848C105.023 135.058 105.27 135.395 105.505 135.861L110.655 146.361C111.145 147.345 111.636 148.436 112.13 149.636H112.417C112.298 148.105 112.242 146.967 112.242 146.223V134.536H116.48Z" fill="#A92828"/>
<path d="M134.105 151.336L134.305 154.636C132.461 154.83 129.323 154.923 124.892 154.923C123.542 154.923 122.461 154.558 121.655 153.823C120.855 153.092 120.445 152.095 120.43 150.836V138.536C120.445 137.286 120.855 136.295 121.655 135.561C122.461 134.82 123.542 134.448 124.892 134.448C129.323 134.448 132.461 134.548 134.305 134.748L134.105 138.073H126.305C125.811 138.073 125.458 138.192 125.242 138.423C125.033 138.658 124.93 139.042 124.93 139.573V142.661H133.017V145.898H124.93V149.811C124.93 150.361 125.033 150.755 125.242 150.986C125.458 151.22 125.811 151.336 126.305 151.336H134.105Z" fill="#A92828"/>
<path d="M151.512 151.036L151.9 154.361C150.131 154.911 147.966 155.186 145.4 155.186C142.256 155.186 140.05 154.405 138.775 152.836C137.506 151.27 136.875 148.558 136.875 144.699C136.875 140.833 137.506 138.117 138.775 136.549C140.05 134.974 142.256 134.186 145.4 134.186C147.675 134.186 149.703 134.411 151.488 134.861L151.1 138.224C149.516 138.124 147.616 138.074 145.4 138.074C143.925 138.074 142.916 138.542 142.375 139.474C141.841 140.399 141.575 142.136 141.575 144.686C141.575 147.236 141.841 148.98 142.375 149.911C142.916 150.845 143.925 151.311 145.4 151.311C148.125 151.311 150.163 151.22 151.512 151.036Z" fill="#A92828"/>
<path d="M169.875 138.186H163.812V154.836H159.312V138.186H153.25V134.536H169.875V138.186Z" fill="#A92828"/>
<mask id="mask4_3448_114" style="mask-type:luminance" maskUnits="userSpaceOnUse" x="16" y="160" width="32" height="17">
<path d="M16.8516 160.591H47.9578V176.181H16.8516V160.591Z" fill="white"/>
</mask>
<g mask="url(#mask4_3448_114)">
<path d="M17.0078 160.712H18.6734C18.6734 168.325 24.8672 174.519 32.4797 174.519C40.0922 174.519 46.2859 168.325 46.2859 160.712H47.9484C47.9484 169.244 41.0078 176.181 32.4797 176.181C23.9484 176.181 17.0078 169.244 17.0078 160.712Z" fill="#A92828"/>
</g>
<path d="M45.7734 160.634C45.5984 160.459 45.4641 160.256 45.3672 160.028C45.2734 159.8 45.2266 159.559 45.2266 159.313C45.2266 159.063 45.2734 158.825 45.3672 158.597C45.4641 158.366 45.5984 158.163 45.7734 157.988C45.9484 157.813 46.1516 157.678 46.3797 157.581C46.6109 157.488 46.8484 157.441 47.0953 157.441C47.3453 157.441 47.5828 157.488 47.8141 157.581C48.0422 157.678 48.2453 157.813 48.4203 157.988C48.5953 158.163 48.7297 158.366 48.8266 158.597C48.9203 158.825 48.9672 159.063 48.9672 159.313C48.9672 159.559 48.9203 159.8 48.8266 160.028C48.7297 160.256 48.5953 160.459 48.4203 160.634C48.2453 160.813 48.0422 160.947 47.8141 161.041C47.5828 161.138 47.3453 161.184 47.0984 161.184C46.8484 161.184 46.6109 161.138 46.3797 161.041C46.1516 160.947 45.9484 160.813 45.7734 160.634Z" fill="#A92828"/>
<path d="M16.7109 160.634C16.5359 160.459 16.4016 160.256 16.3047 160.028C16.2109 159.8 16.1641 159.559 16.1641 159.313C16.1641 159.063 16.2109 158.825 16.3047 158.597C16.3984 158.366 16.5359 158.163 16.7109 157.988C16.8859 157.813 17.0891 157.678 17.3172 157.581C17.5484 157.488 17.7859 157.441 18.0328 157.441C18.2828 157.441 18.5203 157.488 18.7516 157.581C18.9797 157.678 19.1828 157.813 19.3578 157.988C19.5328 158.163 19.6672 158.366 19.7641 158.597C19.8578 158.825 19.9047 159.063 19.9047 159.313C19.9047 159.559 19.8578 159.8 19.7641 160.028C19.6672 160.256 19.5328 160.459 19.3578 160.634C19.1828 160.813 18.9797 160.947 18.7516 161.041C18.5203 161.138 18.2828 161.184 18.0328 161.184C17.7859 161.184 17.5484 161.138 17.3172 161.041C17.0891 160.947 16.8859 160.813 16.7109 160.634Z" fill="#A92828"/>
<mask id="mask5_3448_114" style="mask-type:luminance" maskUnits="userSpaceOnUse" x="130" y="114" width="32" height="17">
<path d="M130.398 114.928H161.583V130.4H130.398V114.928Z" fill="white"/>
</mask>
<g mask="url(#mask5_3448_114)">
<path d="M161.339 130.397H159.677C159.677 122.784 153.483 116.591 145.87 116.591C138.258 116.591 132.064 122.784 132.064 130.397H130.398C130.398 121.869 137.339 114.928 145.87 114.928C154.398 114.928 161.339 121.869 161.339 130.397Z" fill="#A92828"/>
</g>
<path d="M132.577 130.475C132.755 130.65 132.889 130.853 132.983 131.081C133.08 131.313 133.127 131.55 133.127 131.8C133.127 132.047 133.08 132.284 132.983 132.516C132.889 132.744 132.755 132.947 132.58 133.122C132.402 133.297 132.202 133.434 131.97 133.528C131.742 133.622 131.502 133.672 131.255 133.672C131.008 133.672 130.767 133.622 130.539 133.528C130.308 133.434 130.108 133.297 129.93 133.122C129.755 132.947 129.62 132.744 129.527 132.516C129.43 132.284 129.383 132.047 129.383 131.8C129.383 131.55 129.43 131.313 129.527 131.081C129.62 130.853 129.755 130.65 129.93 130.475C130.108 130.3 130.308 130.166 130.539 130.069C130.767 129.975 131.008 129.928 131.255 129.928C131.502 129.928 131.742 129.975 131.97 130.069C132.202 130.166 132.402 130.3 132.577 130.475Z" fill="#A92828"/>
<mask id="mask6_3448_114" style="mask-type:luminance" maskUnits="userSpaceOnUse" x="157" y="129" width="6" height="6">
<path d="M157.664 129.6H162.445V134.4H157.664V129.6Z" fill="white"/>
</mask>
<g mask="url(#mask6_3448_114)">
<path d="M161.634 130.475C161.809 130.65 161.944 130.853 162.038 131.081C162.134 131.313 162.181 131.55 162.181 131.8C162.181 132.047 162.134 132.284 162.038 132.516C161.944 132.744 161.809 132.947 161.634 133.122C161.456 133.297 161.256 133.434 161.025 133.528C160.797 133.622 160.556 133.672 160.309 133.672C160.063 133.672 159.822 133.622 159.594 133.528C159.363 133.434 159.163 133.297 158.984 133.122C158.809 132.947 158.675 132.744 158.581 132.516C158.484 132.284 158.438 132.047 158.438 131.8C158.438 131.55 158.484 131.313 158.581 131.081C158.675 130.853 158.809 130.65 158.984 130.475C159.163 130.3 159.363 130.166 159.594 130.069C159.822 129.975 160.063 129.928 160.309 129.928C160.556 129.928 160.797 129.975 161.025 130.069C161.256 130.166 161.456 130.3 161.634 130.475Z" fill="#A92828"/>
</g>
</svg>
