<svg width="15" height="15" viewBox="0 0 15 15" fill="none" xmlns="http://www.w3.org/2000/svg">
<path d="M10.1778 1.29661e-07C9.42497 -0.000172517 8.68256 0.176004 8.01007 0.514413C7.33758 0.852821 6.75371 1.34405 6.30524 1.94874C5.85678 2.55343 5.55619 3.25475 5.42757 3.99652C5.29895 4.7383 5.34588 5.49988 5.56458 6.22025L0 11.7848V14.9989H3.21405L8.77863 9.4343C9.44174 9.63558 10.1405 9.69154 10.8272 9.59836C11.5138 9.50518 12.1724 9.26506 12.7579 8.89436C13.3434 8.52366 13.8421 8.03109 14.22 7.45021C14.5979 6.86934 14.8462 6.21383 14.9478 5.52834C15.0495 4.84285 15.0022 4.14349 14.8091 3.47794C14.6161 2.81239 14.2818 2.19628 13.8291 1.6716C13.3764 1.14693 12.8159 0.726011 12.1858 0.437544C11.5557 0.149078 10.8708 -0.000160581 10.1778 1.29661e-07ZM10.1778 8.57079C9.80901 8.57059 9.44224 8.51608 9.08932 8.40902L8.4749 8.2226L8.02119 8.67632L6.31721 10.3803L5.57851 9.64214L4.82107 10.3996L5.55976 11.1383L4.71018 11.9879L3.97149 11.2492L3.21405 12.0066L3.95274 12.7453L2.77051 13.9275H1.07135V12.2284L6.32203 6.97769L6.77628 6.52398L6.58987 5.90956C6.36091 5.15479 6.37578 4.34704 6.63237 3.60121C6.88896 2.85538 7.3742 2.20946 8.01906 1.75531C8.66393 1.30117 9.43558 1.06193 10.2243 1.07163C11.0129 1.08134 11.7785 1.33948 12.412 1.80936C13.0454 2.27923 13.5146 2.9369 13.7528 3.68881C13.991 4.44073 13.986 5.2486 13.7385 5.99751C13.4911 6.74642 13.0137 7.39822 12.3745 7.86022C11.7352 8.32221 10.9665 8.57086 10.1778 8.57079Z" fill="#B5BFC6"/>
<path d="M10.712 5.35656C11.3037 5.35656 11.7833 4.87691 11.7833 4.28522C11.7833 3.69353 11.3037 3.21387 10.712 3.21387C10.1203 3.21387 9.64062 3.69353 9.64062 4.28522C9.64062 4.87691 10.1203 5.35656 10.712 5.35656Z" fill="#B5BFC6"/>
</svg>
