<svg width="13" height="13" viewBox="0 0 13 13" fill="none" xmlns="http://www.w3.org/2000/svg">
<path d="M12.4426 8.90747L9.30925 7.50329C9.16728 7.44246 9.01238 7.418 8.85857 7.43213C8.70477 7.44626 8.55691 7.49854 8.4284 7.58421C8.41539 7.59262 8.40297 7.60193 8.39126 7.61207L6.7536 9.00498C6.73661 9.01424 6.7177 9.01942 6.69836 9.02011C6.67901 9.0208 6.65978 9.01698 6.64217 9.00896C5.58953 8.50088 4.49909 7.41707 3.98902 6.37902C3.98053 6.36168 3.97611 6.34262 3.97611 6.3233C3.97611 6.30399 3.98053 6.28493 3.98902 6.26759L5.38657 4.60937C5.39661 4.59711 5.40591 4.58426 5.41442 4.5709C5.49892 4.44189 5.54996 4.29387 5.56293 4.14021C5.5759 3.98654 5.55039 3.83206 5.48871 3.69072L4.09448 0.562651C4.01531 0.377998 3.87837 0.224004 3.70424 0.123783C3.53011 0.0235624 3.32817 -0.01748 3.12874 0.00681594C2.26197 0.120766 1.46635 0.546426 0.890553 1.20425C0.314758 1.86207 -0.00180924 2.70705 7.77862e-06 3.58127C7.77862e-06 8.77482 4.22515 13 9.41869 13C10.2929 13.0016 11.1378 12.685 11.7956 12.1092C12.4534 11.5335 12.8791 10.7379 12.9931 9.87123C13.0174 9.67272 12.9769 9.47169 12.8777 9.29805C12.7785 9.1244 12.6259 8.98742 12.4426 8.90747ZM9.41869 12.204C4.66425 12.204 0.795953 8.33572 0.795953 3.58127C0.793736 2.90069 1.03938 2.24259 1.487 1.72991C1.93461 1.21724 2.55357 0.885067 3.22823 0.795465H3.24348C3.27021 0.795964 3.29617 0.804527 3.31795 0.820033C3.33973 0.835538 3.35631 0.857261 3.36553 0.882356L4.76507 4.0071C4.77305 4.02448 4.77718 4.04337 4.77718 4.06249C4.77718 4.08161 4.77305 4.1005 4.76507 4.11787L3.36487 5.78007C3.35447 5.79198 3.34494 5.80461 3.33634 5.81788C3.24873 5.95164 3.19713 6.10575 3.18656 6.2653C3.17598 6.42485 3.20679 6.58442 3.27599 6.72857C3.86432 7.9331 5.07814 9.13763 6.29593 9.72597C6.44093 9.79478 6.60128 9.82485 6.76135 9.81322C6.92143 9.8016 7.07575 9.74868 7.20928 9.65964C7.22188 9.65102 7.23449 9.64173 7.24643 9.63178L8.88342 8.23888C8.89959 8.23019 8.91744 8.2251 8.93576 8.22396C8.95407 8.22281 8.97242 8.22564 8.98955 8.23225L12.1236 9.63643C12.1492 9.64733 12.1707 9.666 12.1851 9.68981C12.1995 9.71362 12.2061 9.74135 12.2038 9.76908C12.1147 10.4441 11.7828 11.0635 11.2703 11.5116C10.7577 11.9597 10.0995 12.2058 9.41869 12.204Z" fill="#B5BFC6"/>
</svg>
