<svg width="710" height="688" viewBox="0 0 710 688" fill="none" xmlns="http://www.w3.org/2000/svg">
<g filter="url(#filter0_f_2191_939)">
<path d="M55.9115 209.986L34.9358 444.802L16.9983 364.131L55.9115 209.986ZM60.7483 197.104L92.9288 310.076L38.6302 444.583L60.7483 197.104ZM193.214 129.413L95.2864 304.899L62.1094 188.451L193.214 129.413ZM148.491 100.902L193.748 124.333L68.9149 180.552L148.491 100.902ZM128.925 90.7912L145.064 99.128L73.0469 171.194L128.925 90.7912ZM203.884 40.2843L147.786 96.4058L131.939 88.2148L203.884 40.2843ZM196.738 121.732L151.214 98.1801L214.724 34.6211L196.738 121.732ZM219.95 31.1454L329.13 73.7287L201.332 121.197L219.95 31.1454ZM358.637 7.47179L333.748 71.5898L225.151 29.2496L358.637 7.47179ZM362.477 7.73915L501.286 82.0169L337.418 72.2947L362.477 7.73915ZM535.8 43.4197L508.943 81.9683L373.658 9.56207L535.8 43.4197ZM539.154 45.0482L619.922 127.857L512.345 83.5239L539.154 45.0482ZM584.946 218.906L514.144 88.2391L624.953 133.885L584.946 218.906ZM685.668 298.434L587.158 222.819L627.238 137.701L685.668 298.434ZM567.616 432.819L586.38 226.878L686.835 303.951L567.616 432.819ZM669.894 460.527L568.783 436.951L687.102 309.079L669.894 460.527ZM561.37 599.871L567.057 440.329L668.266 463.906L561.37 599.871ZM557.602 602.277L387.707 528.802L563.338 441.472L557.602 602.277ZM333.408 645.395L383.599 531.84L552.425 604.854L333.408 645.395ZM371.665 669.92L335.109 648.822L536.724 611.489L371.665 669.92ZM226.634 643.986L329.325 649.722L361.432 668.267L226.634 643.986ZM175.835 523.843L324.366 645.784L198.318 638.711L175.835 523.843ZM43.2969 462.618L171.509 520.902L193.675 634.142L43.2969 462.618ZM84.4462 528.34L51.1962 477.225L164.363 606.288L84.4462 528.34ZM169.127 514.972L38.1927 455.472L94.6059 315.739L169.127 514.972ZM270.991 363.451L98.3003 308.569L197.564 130.628L270.991 363.451ZM376.259 222.868L275.852 361.75L202.717 129.899L376.259 222.868ZM375.773 216.767L204.175 124.843L333.019 76.9857L375.773 216.767ZM381.217 216.986L338.099 76.0134L504.543 85.8815L381.217 216.986ZM385.957 219.441L509.234 88.4093L580.96 220.777L385.957 219.441ZM435.929 356.67L560.859 437.777L386.029 524.718L435.929 356.67ZM383.915 224.593L578.578 225.906L435.807 349.305L383.915 224.593ZM430.922 350.982L280.325 364.35L379.443 227.218L430.922 350.982ZM279.474 369.6L431.505 356.086L381.825 523.357L279.474 369.6ZM379.151 530.989L328.887 644.739L178.97 521.656L379.151 530.989ZM173.453 513.975L98.6892 314.086L270.894 368.822L173.453 513.975ZM274.929 372.031L377.766 526.517L177.488 517.184L274.929 372.031ZM563.776 434.423L438.311 352.975L582.564 228.263L563.776 434.423ZM33.9149 457.149L35.7135 456.76L34.158 457.756L34.7899 458.729V458.753L34.8142 458.777L81.4809 530.503L83.0121 529.506L81.7483 530.819L195.498 641.798L196.786 640.461L196.446 642.284L371.154 673.736L371.495 671.937L372.102 673.663L559.936 607.163L559.328 605.437L560.762 606.579L672.932 463.906L671.498 462.763L673.321 462.982L691.38 303.927L689.557 303.732L691.283 303.1L629.182 132.305L627.457 132.937L628.769 131.649L540.224 40.9162L538.911 42.1801L539.276 40.3815L361.894 3.33984L361.505 5.16276L361.214 3.33984L217.932 26.6975L218.224 28.5204L217.203 26.9891L127.321 86.878L128.342 88.4093L126.835 87.3641L58.9983 185.024L58.901 185.048L58.9253 185.121L58.2934 186.02L59.8003 187.066L58.026 186.628L13.3281 363.645L15.1024 364.107L13.3281 364.496L33.9149 457.149Z" fill="#A92828" fill-opacity="0.03"/>
<path d="M197.665 140.812C206.634 141.298 214.29 134.395 214.752 125.451C215.214 116.482 208.335 108.826 199.367 108.364C190.398 107.878 182.766 114.781 182.28 123.749C181.818 132.694 188.696 140.35 197.665 140.812Z" fill="#A92828" fill-opacity="0.03"/>
<path d="M290.119 367.947C290.557 359.586 284.116 352.44 275.755 352.003C267.394 351.565 260.248 357.982 259.81 366.367C259.373 374.728 265.789 381.874 274.175 382.312C282.536 382.749 289.682 376.332 290.119 367.947Z" fill="#A92828" fill-opacity="0.03"/>
<path d="M153.529 518.107C152.945 529.02 161.331 538.353 172.268 538.912C183.181 539.496 192.49 531.11 193.074 520.173C193.633 509.26 185.247 499.951 174.334 499.367C163.421 498.808 154.088 507.194 153.529 518.107Z" fill="#A92828" fill-opacity="0.03"/>
<path d="M349.647 74.7737C350.085 66.5341 343.765 59.5341 335.55 59.0966C327.31 58.6591 320.286 64.9786 319.873 73.2181C319.435 81.4334 325.755 88.4577 333.97 88.8952C342.21 89.3327 349.234 83.0133 349.647 74.7737Z" fill="#A92828" fill-opacity="0.03"/>
<path d="M113.055 311.826C113.565 302.007 106.03 293.597 96.1624 293.087C86.343 292.576 77.9333 300.136 77.4228 309.979C76.9124 319.823 84.4715 328.208 94.3152 328.719C104.159 329.254 112.544 321.67 113.055 311.826Z" fill="#A92828" fill-opacity="0.03"/>
<path d="M316.13 646.975C315.717 654.558 321.55 661.024 329.134 661.413C336.693 661.801 343.158 655.992 343.547 648.409C343.96 640.85 338.127 634.385 330.568 633.972C322.984 633.583 316.519 639.392 316.13 646.975Z" fill="#A92828" fill-opacity="0.03"/>
<path d="M549.389 437.145C548.928 445.968 555.709 453.479 564.507 453.94C573.33 454.402 580.865 447.645 581.327 438.822C581.789 429.999 575.008 422.489 566.185 422.027C557.362 421.565 549.851 428.322 549.389 437.145Z" fill="#A92828" fill-opacity="0.03"/>
<path d="M381.338 548.174C392.251 548.757 401.56 540.371 402.143 529.458C402.702 518.545 394.317 509.212 383.404 508.653C372.49 508.069 363.181 516.455 362.622 527.368C362.039 538.281 370.425 547.615 381.338 548.174Z" fill="#A92828" fill-opacity="0.03"/>
<path d="M524.283 84.6174C524.721 76.5965 518.547 69.7667 510.527 69.3292C502.506 68.916 495.676 75.0896 495.238 83.1104C494.825 91.1312 500.999 97.9611 509.02 98.3986C517.04 98.8118 523.87 92.6382 524.283 84.6174Z" fill="#A92828" fill-opacity="0.03"/>
<path d="M601.917 224.326C602.427 214.823 595.112 206.729 585.608 206.219C576.105 205.708 567.986 213.024 567.476 222.528C566.99 232.031 574.282 240.149 583.785 240.659C593.313 241.146 601.407 233.854 601.917 224.326Z" fill="#A92828" fill-opacity="0.03"/>
<path d="M379.59 235.215C387.15 235.628 393.59 229.819 393.979 222.26C394.393 214.701 388.584 208.26 381.025 207.871C373.465 207.482 367.025 213.267 366.636 220.826C366.247 228.385 372.056 234.826 379.59 235.215Z" fill="#A92828" fill-opacity="0.03"/>
<path d="M449.326 353.971C449.763 345.878 443.541 338.975 435.447 338.562C427.353 338.124 420.451 344.346 420.037 352.44C419.6 360.534 425.822 367.437 433.916 367.85C442.01 368.263 448.912 362.065 449.326 353.971Z" fill="#A92828" fill-opacity="0.03"/>
<path d="M61.3073 189.399L146.328 212.951L42.1788 319.409L61.3073 189.399ZM212.925 36.4197L148.321 209.694L63.3246 186.142L212.925 36.4197ZM129.654 89.7461L203.884 40.2843L73.0469 171.194L129.654 89.7461ZM219.196 32.2148L303.852 121.562L153.984 207.093L219.196 32.2148ZM443.366 45.8503L307.425 119.982L222.793 30.6593L443.366 45.8503ZM361.262 7.03429L439.55 41.9128L234.193 27.7669L361.262 7.03429ZM523.04 40.7461L450.148 42.5933L377.936 10.4614L523.04 40.7461ZM618.561 126.447L457.22 46.0933L538.158 44.0516L618.561 126.447ZM482.207 177.076L452.845 48.0378L622.109 132.329L482.207 177.076ZM631.248 269.097L485.877 180.527L625.731 135.805L631.248 269.097ZM686.154 299.77L635.04 271.77L629.766 144.701L686.154 299.77ZM633.46 459.968L635.064 275.975L687.297 304.607L633.46 459.968ZM669.821 461.256L634.335 468.694L685.863 319.993L669.821 461.256ZM570.97 587.645L632.561 473.093L632.707 473.02L632.658 472.947L632.755 472.777L666.929 465.607L570.97 587.645ZM558.55 602.982L484.102 565.211L626.314 476.982L558.55 602.982ZM378.665 667.44L480.311 567.399L554.661 605.145L378.665 667.44ZM371.3 669.555L263.238 592.312L474.866 567.618L371.3 669.555ZM201.064 639.368L258.352 593.333L363.766 668.68L201.064 639.368ZM90.2552 533.979L254.561 591.68L196.908 638.031L90.2552 533.979ZM159.502 408.027L253.977 587.572L86.1233 528.656L159.502 408.027ZM157.217 399.326L42.6649 324.149L147.835 216.67L157.217 399.326ZM298.238 277.798L161.568 398.427L152.21 215.843L298.238 277.798ZM300.523 273.18L155.175 211.493L304.387 126.35L300.523 273.18ZM328.304 447.354L164.582 402.631L301.203 282.027L328.304 447.354ZM312.092 121.635L448.203 47.4058L477.588 176.566L312.092 121.635ZM474.623 180.236L305.675 272.621L309.54 125.427L474.623 180.236ZM499.561 357.666L308.884 276.729L478.512 183.979L499.561 357.666ZM504.713 357.277L483.738 184.392L628.842 272.791L504.713 357.277ZM506.901 361.993L631.37 277.263L629.741 466.239L506.901 361.993ZM504.689 366.854L627.481 471.076L483.057 560.666L504.689 366.854ZM335.839 451.097L499.561 366.27L477.88 560.763L335.839 451.097ZM306.283 281.225L496.62 361.993L333.408 446.576L306.283 281.225ZM258.279 586.284L163.95 407.031L328.231 451.899L258.279 586.284ZM332.168 453.843L474.769 563.923L261.974 588.763L332.168 453.843ZM42.3733 329.229L156.658 404.236L83.7413 524.086L42.3733 329.229ZM17.1684 364.253L38.6788 329.593L77.0087 510.013L17.1684 364.253ZM52.7031 222.697L37.7795 324.1L19.7934 353.072L52.7031 222.697ZM13.3281 363.645L15.1024 364.107L13.4253 364.788L81.3351 530.211L83.0121 529.506L81.7483 530.819L195.498 641.798L196.786 640.461L196.446 642.284L371.154 673.736L371.495 671.937L372.102 673.663L559.936 607.163L559.328 605.437L560.762 606.579L672.932 463.906L671.498 462.763L673.321 462.982L691.38 303.927L689.557 303.732L691.283 303.1L629.182 132.305L627.457 132.937L628.769 131.649L540.224 40.9162L538.911 42.1801L539.276 40.3815L361.894 3.33984L361.505 5.16276L361.214 3.33984L217.932 26.6975L218.224 28.5204L217.203 26.9891L127.321 86.878L128.342 88.4093L126.835 87.3641L58.2934 186.02L59.8003 187.066L58.026 186.628L13.3281 363.645Z" fill="#A92828" fill-opacity="0.03"/>
<path d="M309.203 450.174C309.203 462.618 319.314 472.729 331.759 472.729C344.227 472.729 354.339 462.618 354.339 450.174C354.339 437.705 344.227 427.594 331.759 427.594C319.314 427.594 309.203 437.705 309.203 450.174Z" fill="#A92828" fill-opacity="0.03"/>
<path d="M196.617 632.465C192.145 632.465 188.523 636.062 188.523 640.534C188.523 645.007 192.145 648.604 196.617 648.604C201.065 648.604 204.687 645.007 204.687 640.534C204.687 636.062 201.065 632.465 196.617 632.465Z" fill="#A92828" fill-opacity="0.03"/>
<path d="M269.168 591.146C269.168 585.239 264.38 580.451 258.498 580.451C252.592 580.451 247.828 585.239 247.828 591.146C247.828 597.028 252.592 601.816 258.498 601.816C264.38 601.816 269.168 597.028 269.168 591.146Z" fill="#A92828" fill-opacity="0.03"/>
<mask id="mask0_2191_939" style="mask-type:luminance" maskUnits="userSpaceOnUse" x="353" y="654" width="38" height="30">
<path d="M353.609 654.996H390.943V683.968H353.609V654.996Z" fill="white"/>
</mask>
<g mask="url(#mask0_2191_939)">
<path d="M358.078 672.204C358.078 679.788 364.203 685.937 371.786 685.937C379.37 685.937 385.519 679.788 385.519 672.204C385.519 664.621 379.37 658.472 371.786 658.472C364.203 658.472 358.078 664.621 358.078 672.204Z" fill="#A92828" fill-opacity="0.03"/>
</g>
<mask id="mask1_2191_939" style="mask-type:luminance" maskUnits="userSpaceOnUse" x="341" y="-11" width="38" height="38">
<path d="M341.164 -11H378.497V26.5521H341.164V-11Z" fill="white"/>
</mask>
<g mask="url(#mask1_2191_939)">
<path d="M361.554 -11C352.634 -11 345.391 -3.75695 345.391 5.16319C345.391 14.0833 352.634 21.3264 361.554 21.3264C370.474 21.3264 377.717 14.0833 377.717 5.16319C377.717 -3.75695 370.474 -11 361.554 -11Z" fill="#A92828" fill-opacity="0.03"/>
</g>
<path d="M128.296 77.4229C122.268 77.4229 117.383 82.3083 117.383 88.336C117.383 94.3638 122.268 99.2492 128.296 99.2492C134.324 99.2492 139.209 94.3638 139.209 88.336C139.209 82.3083 134.324 77.4229 128.296 77.4229Z" fill="#A92828" fill-opacity="0.03"/>
<path d="M218.466 42.7145C226.268 42.7145 232.588 36.3708 232.588 28.5687C232.588 20.7423 226.268 14.4229 218.466 14.4229C210.664 14.4229 204.32 20.7423 204.32 28.5687C204.32 36.3708 210.664 42.7145 218.466 42.7145Z" fill="#A92828" fill-opacity="0.03"/>
<path d="M140.086 403.653C140.086 414.566 148.957 423.437 159.895 423.437C170.808 423.437 179.68 414.566 179.68 403.653C179.68 392.715 170.808 383.844 159.895 383.844C148.957 383.844 140.086 392.715 140.086 403.653Z" fill="#A92828" fill-opacity="0.03"/>
<mask id="mask2_2191_939" style="mask-type:luminance" maskUnits="userSpaceOnUse" x="4" y="350" width="27" height="32">
<path d="M4 350.107H30.0556V381.219H4V350.107Z" fill="white"/>
</mask>
<g mask="url(#mask2_2191_939)">
<path d="M15.3498 353.438C9.34635 353.438 4.46094 358.323 4.46094 364.351C4.46094 370.378 9.34635 375.24 15.3498 375.24C21.3776 375.24 26.263 370.378 26.263 364.351C26.263 358.323 21.3776 353.438 15.3498 353.438Z" fill="#A92828" fill-opacity="0.03"/>
</g>
<path d="M25.875 324.684C25.875 332.267 32.0243 338.416 39.6076 338.416C47.191 338.416 53.3403 332.267 53.3403 324.684C53.3403 317.1 47.191 310.951 39.6076 310.951C32.0243 310.951 25.875 317.1 25.875 324.684Z" fill="#A92828" fill-opacity="0.03"/>
<path d="M59.9748 198.222C66.0026 198.222 70.888 193.337 70.888 187.309C70.888 181.281 66.0026 176.42 59.9748 176.42C53.9714 176.42 49.0859 181.281 49.0859 187.309C49.0859 193.337 53.9714 198.222 59.9748 198.222Z" fill="#A92828" fill-opacity="0.03"/>
<path d="M150.144 192.315C139.207 192.315 130.359 201.187 130.359 212.1C130.359 223.038 139.207 231.909 150.144 231.909C161.082 231.909 169.929 223.038 169.929 212.1C169.929 201.187 161.082 192.315 150.144 192.315Z" fill="#A92828" fill-opacity="0.03"/>
<path d="M96.02 529.993C96.02 523.066 90.4054 517.451 83.4783 517.451C76.5755 517.451 70.9609 523.066 70.9609 529.993C70.9609 536.896 76.5755 542.51 83.4783 542.51C90.4054 542.51 96.02 536.896 96.02 529.993Z" fill="#A92828" fill-opacity="0.03"/>
<path d="M633.418 261.148C627.074 261.148 621.945 266.301 621.945 272.645C621.945 278.989 627.074 284.141 633.418 284.141C639.786 284.141 644.914 278.989 644.914 272.645C644.914 266.301 639.786 261.148 633.418 261.148Z" fill="#A92828" fill-opacity="0.03"/>
<path d="M617.008 470.955C617.008 478.975 623.522 485.489 631.567 485.489C639.588 485.489 646.102 478.975 646.102 470.955C646.102 462.909 639.588 456.396 631.567 456.396C623.522 456.396 617.008 462.909 617.008 470.955Z" fill="#A92828" fill-opacity="0.03"/>
<path d="M627.048 119.666C619.926 119.666 614.117 125.451 614.117 132.597C614.117 139.742 619.926 145.527 627.048 145.527C634.194 145.527 639.978 139.742 639.978 132.597C639.978 125.451 634.194 119.666 627.048 119.666Z" fill="#A92828" fill-opacity="0.03"/>
<path d="M559.21 616.083C565.238 616.083 570.099 611.198 570.099 605.194C570.099 599.167 565.238 594.281 559.21 594.281C553.182 594.281 548.297 599.167 548.297 605.194C548.297 611.198 553.182 616.083 559.21 616.083Z" fill="#A92828" fill-opacity="0.03"/>
<mask id="mask3_2191_939" style="mask-type:luminance" maskUnits="userSpaceOnUse" x="671" y="286" width="35" height="35">
<path d="M671.961 286.378H705.648V320.43H671.961V286.378Z" fill="white"/>
</mask>
<g mask="url(#mask3_2191_939)">
<path d="M705.647 303.732C705.647 294.812 698.404 287.593 689.484 287.593C680.563 287.593 673.32 294.812 673.32 303.732C673.32 312.677 680.563 319.895 689.484 319.895C698.404 319.895 705.647 312.677 705.647 303.732Z" fill="#A92828" fill-opacity="0.03"/>
</g>
<path d="M660.492 462.958C660.492 468.986 665.378 473.871 671.405 473.871C677.433 473.871 682.319 468.986 682.319 462.958C682.319 456.93 677.433 452.045 671.405 452.045C665.378 452.045 660.492 456.93 660.492 462.958Z" fill="#A92828" fill-opacity="0.03"/>
<path d="M538.429 30.8535C532.401 30.8535 527.516 35.7389 527.516 41.7424C527.516 47.7702 532.401 52.6556 538.429 52.6556C544.457 52.6556 549.318 47.7702 549.318 41.7424C549.318 35.7389 544.457 30.8535 538.429 30.8535Z" fill="#A92828" fill-opacity="0.03"/>
<path d="M326.699 276.802C326.699 263.92 316.247 253.469 303.365 253.469C290.459 253.469 280.008 263.92 280.008 276.802C280.008 289.708 290.459 300.16 303.365 300.16C316.247 300.16 326.699 289.708 326.699 276.802Z" fill="#A92828" fill-opacity="0.03"/>
<path d="M523.793 361.774C523.793 350.132 514.363 340.701 502.72 340.701C491.102 340.701 481.672 350.132 481.672 361.774C481.672 373.416 491.102 382.847 502.72 382.847C514.363 382.847 523.793 373.416 523.793 361.774Z" fill="#A92828" fill-opacity="0.03"/>
<path d="M306.964 94.8506C291.822 94.8506 279.523 107.149 279.523 122.316C279.523 137.483 291.822 149.757 306.964 149.757C322.131 149.757 334.43 137.483 334.43 122.316C334.43 107.149 322.131 94.8506 306.964 94.8506Z" fill="#A92828" fill-opacity="0.03"/>
<path d="M449.789 34.1836C443.98 34.1836 439.289 38.8989 439.289 44.6836C439.289 50.4926 443.98 55.1836 449.789 55.1836C455.598 55.1836 460.289 50.4926 460.289 44.6836C460.289 38.8989 455.598 34.1836 449.789 34.1836Z" fill="#A92828" fill-opacity="0.03"/>
<path d="M462.812 565.066C462.812 574.569 470.542 582.298 480.045 582.298C489.573 582.298 497.302 574.569 497.302 565.066C497.302 555.538 489.573 547.809 480.045 547.809C470.542 547.809 462.812 555.538 462.812 565.066Z" fill="#A92828" fill-opacity="0.03"/>
<path d="M480.873 158.434C469.182 158.434 459.703 167.913 459.703 179.604C459.703 191.295 469.182 200.774 480.873 200.774C492.564 200.774 502.068 191.295 502.068 179.604C502.068 167.913 492.564 158.434 480.873 158.434Z" fill="#A92828" fill-opacity="0.03"/>
</g>
<defs>
<filter id="filter0_f_2191_939" x="0.460938" y="-15" width="709.188" height="702.968" filterUnits="userSpaceOnUse" color-interpolation-filters="sRGB">
<feFlood flood-opacity="0" result="BackgroundImageFix"/>
<feBlend mode="normal" in="SourceGraphic" in2="BackgroundImageFix" result="shape"/>
<feGaussianBlur stdDeviation="2" result="effect1_foregroundBlur_2191_939"/>
</filter>
</defs>
</svg>
