<svg width="570" height="570" viewBox="0 0 570 570" fill="none" xmlns="http://www.w3.org/2000/svg">
<path d="M170.281 138.017L161.741 233.621L154.438 200.777L170.281 138.017ZM172.25 132.772L185.353 178.768L163.245 233.532L172.25 132.772ZM226.183 105.212L186.312 176.66L172.805 129.249L226.183 105.212ZM207.974 93.6047L226.4 103.144L175.575 126.033L207.974 93.6047ZM200.008 89.488L206.579 92.8823L177.258 122.223L200.008 89.488ZM230.527 68.9245L207.687 91.774L201.235 88.4391L230.527 68.9245ZM227.618 102.085L209.083 92.4964L234.941 66.6187L227.618 102.085ZM237.068 65.2036L281.52 82.5411L229.488 101.868L237.068 65.2036ZM293.534 55.5651L283.4 81.6703L239.186 64.4318L293.534 55.5651ZM295.097 55.674L351.612 85.9156L284.895 81.9573L295.097 55.674ZM365.665 70.201L354.73 85.8958L299.649 56.4161L365.665 70.201ZM367.03 70.8641L399.914 104.579L356.115 86.5292L367.03 70.8641ZM385.674 141.649L356.847 88.449L401.962 107.033L385.674 141.649ZM426.682 174.028L386.574 143.242L402.893 108.587L426.682 174.028ZM378.618 228.742L386.258 144.895L427.157 176.274L378.618 228.742ZM420.26 240.023L379.093 230.424L427.266 178.362L420.26 240.023ZM376.075 296.756L378.391 231.8L419.597 241.399L376.075 296.756ZM374.541 297.736L305.369 267.821L376.877 232.265L374.541 297.736ZM283.262 315.291L303.697 269.058L372.433 298.785L283.262 315.291ZM298.838 325.276L283.955 316.686L366.041 301.486L298.838 325.276ZM239.79 314.717L281.599 317.053L294.672 324.603L239.79 314.717ZM219.107 265.802L279.581 315.449L228.261 312.57L219.107 265.802ZM165.145 240.874L217.346 264.605L226.371 310.709L165.145 240.874ZM181.899 267.633L168.361 246.822L214.436 299.369L181.899 267.633ZM216.376 262.19L163.067 237.965L186.035 181.074L216.376 262.19ZM257.849 200.499L187.54 178.155L227.954 105.707L257.849 200.499ZM300.708 143.262L259.829 199.807L230.052 105.41L300.708 143.262ZM300.51 140.778L230.646 103.352L283.104 83.8672L300.51 140.778ZM302.727 140.867L285.172 83.4714L352.939 87.4891L302.727 140.867ZM304.657 141.867L354.848 88.5182L384.051 142.411L304.657 141.867ZM325.003 197.739L375.867 230.761L304.686 266.158L325.003 197.739ZM303.826 143.965L383.081 144.499L324.953 194.74L303.826 143.965ZM322.964 195.423L261.649 200.866L302.005 145.033L322.964 195.423ZM261.303 203.003L323.202 197.501L302.974 265.604L261.303 203.003ZM301.886 268.711L281.421 315.024L220.384 264.911L301.886 268.711ZM218.137 261.784L187.698 180.401L257.81 202.686L218.137 261.784ZM259.453 203.993L301.322 266.891L219.78 263.091L259.453 203.993ZM377.055 229.395L325.972 196.234L384.704 145.459L377.055 229.395ZM161.325 238.648L162.058 238.49L161.424 238.895L161.682 239.291V239.301L161.692 239.311L180.692 268.514L181.315 268.108L180.8 268.642L227.113 313.827L227.637 313.282L227.499 314.024L298.63 326.83L298.769 326.097L299.016 326.8L375.491 299.725L375.244 299.022L375.828 299.488L421.497 241.399L420.913 240.934L421.655 241.023L429.008 176.265L428.266 176.185L428.968 175.928L403.684 106.39L402.982 106.647L403.516 106.123L367.466 69.1818L366.931 69.6964L367.08 68.9641L294.86 53.8828L294.702 54.625L294.583 53.8828L236.247 63.3927L236.366 64.1349L235.95 63.5115L199.355 87.8948L199.771 88.5182L199.157 88.0927L171.538 127.854L171.498 127.864L171.508 127.894L171.251 128.26L171.865 128.685L171.142 128.507L152.944 200.579L153.666 200.767L152.944 200.925L161.325 238.648Z" fill="white"/>
<path d="M227.994 109.854C231.645 110.052 234.762 107.241 234.95 103.599C235.138 99.9479 232.338 96.8307 228.686 96.6427C225.035 96.4447 221.928 99.2552 221.73 102.907C221.542 106.548 224.342 109.666 227.994 109.854Z" fill="white"/>
<path d="M265.638 202.33C265.816 198.926 263.193 196.017 259.789 195.838C256.385 195.66 253.476 198.273 253.297 201.687C253.119 205.091 255.732 208 259.146 208.179C262.55 208.357 265.459 205.744 265.638 202.33Z" fill="white"/>
<path d="M210.023 263.467C209.785 267.91 213.199 271.71 217.653 271.937C222.096 272.175 225.886 268.761 226.123 264.308C226.351 259.865 222.937 256.074 218.494 255.837C214.051 255.609 210.251 259.023 210.023 263.467Z" fill="white"/>
<path d="M289.872 82.9667C290.05 79.612 287.478 76.762 284.133 76.5839C280.778 76.4058 277.918 78.9787 277.75 82.3334C277.572 85.6782 280.145 88.5381 283.49 88.7162C286.844 88.8943 289.704 86.3214 289.872 82.9667Z" fill="white"/>
<path d="M193.546 179.481C193.754 175.483 190.686 172.059 186.669 171.851C182.671 171.643 179.247 174.721 179.039 178.729C178.831 182.736 181.909 186.15 185.917 186.358C189.924 186.576 193.338 183.489 193.546 179.481Z" fill="white"/>
<path d="M276.226 315.934C276.058 319.022 278.433 321.654 281.52 321.812C284.598 321.971 287.23 319.606 287.388 316.518C287.557 313.441 285.182 310.808 282.104 310.64C279.017 310.482 276.384 312.847 276.226 315.934Z" fill="white"/>
<path d="M371.196 230.504C371.008 234.096 373.769 237.154 377.352 237.342C380.944 237.53 384.011 234.779 384.199 231.186C384.387 227.594 381.627 224.536 378.034 224.348C374.442 224.16 371.384 226.911 371.196 230.504Z" fill="white"/>
<path d="M302.776 275.708C307.22 275.945 311.01 272.531 311.247 268.088C311.475 263.645 308.061 259.845 303.618 259.617C299.174 259.38 295.384 262.794 295.157 267.237C294.919 271.68 298.333 275.48 302.776 275.708Z" fill="white"/>
<path d="M360.974 86.9744C361.152 83.7088 358.638 80.928 355.373 80.7499C352.107 80.5817 349.326 83.0952 349.148 86.3609C348.98 89.6265 351.494 92.4072 354.759 92.5853C358.025 92.7536 360.806 90.24 360.974 86.9744Z" fill="white"/>
<path d="M392.581 143.856C392.789 139.987 389.81 136.691 385.941 136.483C382.072 136.276 378.766 139.254 378.559 143.123C378.361 146.993 381.329 150.298 385.199 150.506C389.078 150.704 392.373 147.735 392.581 143.856Z" fill="white"/>
<path d="M302.064 148.289C305.142 148.457 307.764 146.092 307.922 143.015C308.091 139.937 305.725 137.315 302.648 137.156C299.57 136.998 296.948 139.353 296.789 142.431C296.631 145.508 298.996 148.131 302.064 148.289Z" fill="white"/>
<path d="M330.455 196.64C330.633 193.345 328.1 190.534 324.805 190.366C321.509 190.188 318.699 192.721 318.531 196.017C318.352 199.312 320.886 202.122 324.181 202.291C327.476 202.459 330.287 199.935 330.455 196.64Z" fill="white"/>
<path d="M172.478 129.635L207.094 139.224L164.69 182.568L172.478 129.635ZM234.208 67.351L207.905 137.898L173.299 128.309L234.208 67.351ZM200.305 89.0625L230.527 68.9245L177.258 122.223L200.305 89.0625ZM236.761 65.6391L271.229 102.016L210.211 136.84L236.761 65.6391ZM328.031 71.1906L272.683 101.373L238.226 65.0057L328.031 71.1906ZM294.603 55.387L326.477 69.5875L242.867 63.8281L294.603 55.387ZM360.469 69.1125L330.792 69.8646L301.391 56.7823L360.469 69.1125ZM399.36 104.005L333.671 71.2896L366.624 70.4583L399.36 104.005ZM343.844 124.618L331.89 72.0812L400.805 106.4L343.844 124.618ZM404.525 162.084L345.339 126.023L402.279 107.815L404.525 162.084ZM426.88 174.572L406.069 163.172L403.922 111.437L426.88 174.572ZM405.426 239.796L406.079 164.884L427.345 176.542L405.426 239.796ZM420.23 240.32L405.782 243.348L426.761 182.806L420.23 240.32ZM379.984 291.779L405.06 245.14L405.119 245.11L405.099 245.08L405.139 245.011L419.053 242.092L379.984 291.779ZM374.927 298.023L344.616 282.645L402.517 246.723L374.927 298.023ZM301.688 324.267L343.072 283.535L373.344 298.904L301.688 324.267ZM298.69 325.128L254.693 293.679L340.856 283.624L298.69 325.128ZM229.379 312.837L252.704 294.094L295.622 324.771L229.379 312.837ZM184.264 269.929L251.16 293.421L227.687 312.293L184.264 269.929ZM212.457 218.648L250.922 291.749L182.582 267.761L212.457 218.648ZM211.527 215.106L164.888 184.498L207.707 140.739L211.527 215.106ZM268.943 165.627L213.298 214.74L209.489 140.402L268.943 165.627ZM269.873 163.746L210.696 138.631L271.446 103.966L269.873 163.746ZM281.184 234.66L214.525 216.452L270.15 167.348L281.184 234.66ZM274.583 102.046L330 71.824L341.964 124.41L274.583 102.046ZM340.757 125.905L271.971 163.519L273.544 103.59L340.757 125.905ZM350.91 198.144L273.277 165.191L342.34 127.429L350.91 198.144ZM353.008 197.986L344.468 127.597L403.546 163.588L353.008 197.986ZM353.898 199.906L404.575 165.409L403.912 242.349L353.898 199.906ZM352.998 201.885L402.992 244.318L344.191 280.794L352.998 201.885ZM284.252 236.184L350.91 201.647L342.083 280.834L284.252 236.184ZM272.218 167.022L349.712 199.906L283.262 234.343L272.218 167.022ZM252.674 291.224L214.268 218.243L281.154 236.51L252.674 291.224ZM282.757 237.302L340.816 282.12L254.178 292.234L282.757 237.302ZM164.769 186.566L211.299 217.105L181.612 265.901L164.769 186.566ZM154.507 200.826L163.265 186.715L178.871 260.171L154.507 200.826ZM168.975 143.193L162.899 184.478L155.576 196.274L168.975 143.193ZM152.944 200.579L153.666 200.767L152.983 201.044L180.632 268.395L181.315 268.108L180.8 268.642L227.113 313.827L227.637 313.282L227.499 314.024L298.63 326.83L298.769 326.097L299.016 326.8L375.491 299.725L375.244 299.022L375.828 299.488L421.497 241.399L420.913 240.934L421.655 241.023L429.008 176.265L428.266 176.185L428.968 175.928L403.684 106.39L402.982 106.647L403.516 106.123L367.466 69.1818L366.931 69.6964L367.08 68.9641L294.86 53.8828L294.702 54.625L294.583 53.8828L236.247 63.3927L236.366 64.1349L235.95 63.5115L199.355 87.8948L199.771 88.5182L199.157 88.0927L171.251 128.26L171.865 128.685L171.142 128.507L152.944 200.579Z" fill="white"/>
<path d="M273.406 235.808C273.406 240.874 277.522 244.991 282.589 244.991C287.666 244.991 291.782 240.874 291.782 235.808C291.782 230.731 287.666 226.615 282.589 226.615C277.522 226.615 273.406 230.731 273.406 235.808Z" fill="white"/>
<path d="M227.568 310.027C225.747 310.027 224.273 311.491 224.273 313.312C224.273 315.133 225.747 316.597 227.568 316.597C229.379 316.597 230.854 315.133 230.854 313.312C230.854 311.491 229.379 310.027 227.568 310.027Z" fill="white"/>
<path d="M257.107 293.204C257.107 290.799 255.158 288.85 252.763 288.85C250.358 288.85 248.419 290.799 248.419 293.204C248.419 295.599 250.358 297.548 252.763 297.548C255.158 297.548 257.107 295.599 257.107 293.204Z" fill="white"/>
<mask id="mask0_1221_21049" style="mask-type:luminance" maskUnits="userSpaceOnUse" x="291" y="319" width="16" height="12">
<path d="M291.485 319.2H306.685V330.996H291.485V319.2Z" fill="white"/>
</mask>
<g mask="url(#mask0_1221_21049)">
<path d="M293.306 326.206C293.306 329.294 295.8 331.797 298.887 331.797C301.975 331.797 304.479 329.294 304.479 326.206C304.479 323.119 301.975 320.615 298.887 320.615C295.8 320.615 293.306 323.119 293.306 326.206Z" fill="white"/>
</g>
<mask id="mask1_1221_21049" style="mask-type:luminance" maskUnits="userSpaceOnUse" x="286" y="48" width="16" height="16">
<path d="M286.419 48.0442H301.619V63.3333H286.419V48.0442Z" fill="white"/>
</mask>
<g mask="url(#mask1_1221_21049)">
<path d="M294.721 48.0442C291.09 48.0442 288.141 50.9931 288.141 54.6249C288.141 58.2567 291.09 61.2056 294.721 61.2056C298.353 61.2056 301.302 58.2567 301.302 54.6249C301.302 50.9931 298.353 48.0442 294.721 48.0442Z" fill="white"/>
</g>
<path d="M199.751 84.0454C197.297 84.0454 195.308 86.0345 195.308 88.4886C195.308 90.9428 197.297 92.9319 199.751 92.9319C202.205 92.9319 204.194 90.9428 204.194 88.4886C204.194 86.0345 202.205 84.0454 199.751 84.0454Z" fill="white"/>
<path d="M236.464 69.914C239.641 69.914 242.214 67.3312 242.214 64.1546C242.214 60.9682 239.641 58.3953 236.464 58.3953C233.288 58.3953 230.705 60.9682 230.705 64.1546C230.705 67.3312 233.288 69.914 236.464 69.914Z" fill="white"/>
<path d="M204.55 216.867C204.55 221.31 208.162 224.922 212.616 224.922C217.059 224.922 220.671 221.31 220.671 216.867C220.671 212.414 217.059 208.802 212.616 208.802C208.162 208.802 204.55 212.414 204.55 216.867Z" fill="white"/>
<mask id="mask2_1221_21049" style="mask-type:luminance" maskUnits="userSpaceOnUse" x="149" y="195" width="11" height="13">
<path d="M149.144 195.067H159.752V207.733H149.144V195.067Z" fill="white"/>
</mask>
<g mask="url(#mask2_1221_21049)">
<path d="M153.765 196.422C151.321 196.422 149.332 198.411 149.332 200.866C149.332 203.32 151.321 205.299 153.765 205.299C156.219 205.299 158.208 203.32 158.208 200.866C158.208 198.411 156.219 196.422 153.765 196.422Z" fill="white"/>
</g>
<path d="M158.05 184.716C158.05 187.803 160.554 190.307 163.641 190.307C166.729 190.307 169.232 187.803 169.232 184.716C169.232 181.628 166.729 179.125 163.641 179.125C160.554 179.125 158.05 181.628 158.05 184.716Z" fill="white"/>
<path d="M171.934 133.228C174.388 133.228 176.377 131.239 176.377 128.784C176.377 126.33 174.388 124.351 171.934 124.351C169.49 124.351 167.5 126.33 167.5 128.784C167.5 131.239 169.49 133.228 171.934 133.228Z" fill="white"/>
<path d="M208.647 130.823C204.194 130.823 200.592 134.435 200.592 138.878C200.592 143.331 204.194 146.943 208.647 146.943C213.1 146.943 216.703 143.331 216.703 138.878C216.703 134.435 213.1 130.823 208.647 130.823Z" fill="white"/>
<path d="M186.609 268.306C186.609 265.485 184.323 263.199 181.503 263.199C178.693 263.199 176.407 265.485 176.407 268.306C176.407 271.116 178.693 273.402 181.503 273.402C184.323 273.402 186.609 271.116 186.609 268.306Z" fill="white"/>
<path d="M405.406 158.848C402.823 158.848 400.735 160.946 400.735 163.529C400.735 166.111 402.823 168.209 405.406 168.209C407.999 168.209 410.087 166.111 410.087 163.529C410.087 160.946 407.999 158.848 405.406 158.848Z" fill="white"/>
<path d="M398.727 244.269C398.727 247.534 401.379 250.186 404.654 250.186C407.92 250.186 410.572 247.534 410.572 244.269C410.572 240.993 407.92 238.341 404.654 238.341C401.379 238.341 398.727 240.993 398.727 244.269Z" fill="white"/>
<path d="M402.813 101.244C399.914 101.244 397.549 103.599 397.549 106.509C397.549 109.418 399.914 111.773 402.813 111.773C405.723 111.773 408.078 109.418 408.078 106.509C408.078 103.599 405.723 101.244 402.813 101.244Z" fill="white"/>
<path d="M375.194 303.357C377.648 303.357 379.628 301.368 379.628 298.923C379.628 296.469 377.648 294.48 375.194 294.48C372.74 294.48 370.751 296.469 370.751 298.923C370.751 301.368 372.74 303.357 375.194 303.357Z" fill="white"/>
<mask id="mask3_1221_21049" style="mask-type:luminance" maskUnits="userSpaceOnUse" x="421" y="169" width="14" height="14">
<path d="M421.101 169.12H434.817V182.984H421.101V169.12Z" fill="white"/>
</mask>
<g mask="url(#mask3_1221_21049)">
<path d="M434.817 176.186C434.817 172.554 431.868 169.615 428.236 169.615C424.604 169.615 421.655 172.554 421.655 176.186C421.655 179.827 424.604 182.766 428.236 182.766C431.868 182.766 434.817 179.827 434.817 176.186Z" fill="white"/>
</g>
<path d="M416.43 241.013C416.43 243.467 418.419 245.456 420.873 245.456C423.328 245.456 425.317 243.467 425.317 241.013C425.317 238.559 423.328 236.57 420.873 236.57C418.419 236.57 416.43 238.559 416.43 241.013Z" fill="white"/>
<path d="M366.733 65.085C364.279 65.085 362.29 67.074 362.29 69.5183C362.29 71.9725 364.279 73.9615 366.733 73.9615C369.187 73.9615 371.167 71.9725 371.167 69.5183C371.167 67.074 369.187 65.085 366.733 65.085Z" fill="white"/>
<path d="M280.531 165.221C280.531 159.976 276.275 155.721 271.031 155.721C265.776 155.721 261.521 159.976 261.521 165.221C261.521 170.475 265.776 174.731 271.031 174.731C276.275 174.731 280.531 170.475 280.531 165.221Z" fill="white"/>
<path d="M360.776 199.817C360.776 195.077 356.936 191.237 352.196 191.237C347.466 191.237 343.626 195.077 343.626 199.817C343.626 204.557 347.466 208.396 352.196 208.396C356.936 208.396 360.776 204.557 360.776 199.817Z" fill="white"/>
<path d="M272.495 91.1406C266.33 91.1406 261.323 96.1479 261.323 102.323C261.323 108.498 266.33 113.495 272.495 113.495C278.67 113.495 283.677 108.498 283.677 102.323C283.677 96.1479 278.67 91.1406 272.495 91.1406Z" fill="white"/>
<path d="M330.643 66.4407C328.278 66.4407 326.368 68.3605 326.368 70.7157C326.368 73.0808 328.278 74.9907 330.643 74.9907C333.008 74.9907 334.918 73.0808 334.918 70.7157C334.918 68.3605 333.008 66.4407 330.643 66.4407Z" fill="white"/>
<path d="M335.947 282.585C335.947 286.455 339.094 289.602 342.963 289.602C346.843 289.602 349.989 286.455 349.989 282.585C349.989 278.706 346.843 275.559 342.963 275.559C339.094 275.559 335.947 278.706 335.947 282.585Z" fill="white"/>
<path d="M343.3 117.028C338.54 117.028 334.681 120.887 334.681 125.647C334.681 130.407 338.54 134.267 343.3 134.267C348.06 134.267 351.929 130.407 351.929 125.647C351.929 120.887 348.06 117.028 343.3 117.028Z" fill="white"/>
<path d="M79.6206 422.231L80.2539 432.681C74.4154 433.295 64.4799 433.591 50.4477 433.591C46.1727 433.591 42.7487 432.434 40.1956 430.108C37.6622 427.792 36.3659 424.636 36.3164 420.648V381.698C36.3659 377.739 37.6622 374.602 40.1956 372.277C42.7487 369.932 46.1727 368.754 50.4477 368.754C64.4799 368.754 74.4154 369.071 80.2539 369.704L79.6206 380.233H54.9206C53.357 380.233 52.2388 380.609 51.556 381.341C50.893 382.084 50.5664 383.301 50.5664 384.983V394.76H76.1768V405.012H50.5664V417.402C50.5664 419.143 50.893 420.39 51.556 421.123C52.2388 421.865 53.357 422.231 54.9206 422.231H79.6206Z" fill="white"/>
<path d="M117.166 414.116H89.3789V405.091H117.166V414.116Z" fill="white"/>
<path d="M173.309 421.28L174.536 431.809C168.935 433.551 162.077 434.422 153.953 434.422C143.998 434.422 137.011 431.948 132.974 426.98C128.956 422.022 126.957 413.433 126.957 401.211C126.957 388.97 128.956 380.371 132.974 375.403C137.011 370.416 143.998 367.922 153.953 367.922C161.157 367.922 167.579 368.634 173.23 370.059L172.003 380.707C166.986 380.391 160.969 380.232 153.953 380.232C149.282 380.232 146.086 381.717 144.374 384.666C142.682 387.595 141.84 393.097 141.84 401.172C141.84 409.247 142.682 414.769 144.374 417.718C146.086 420.677 149.282 422.151 153.953 422.151C162.582 422.151 169.034 421.864 173.309 421.28Z" fill="white"/>
<path d="M187.52 374.968C191.528 370.218 198.683 367.843 208.974 367.843C219.286 367.843 226.47 370.218 230.508 374.968C234.545 379.718 236.564 388.466 236.564 401.212C236.564 413.938 234.545 422.666 230.508 427.416C226.47 432.166 219.286 434.541 208.974 434.541C198.683 434.541 191.528 432.166 187.52 427.416C183.532 422.666 181.543 413.938 181.543 401.212C181.543 388.466 183.532 379.718 187.52 374.968ZM218.91 383.874C217.138 380.816 213.823 379.282 208.974 379.282C204.145 379.282 200.84 380.816 199.078 383.874C197.307 386.912 196.426 392.691 196.426 401.212C196.426 409.712 197.307 415.481 199.078 418.509C200.84 421.547 204.145 423.062 208.974 423.062C213.823 423.062 217.138 421.547 218.91 418.509C220.671 415.481 221.562 409.712 221.562 401.212C221.562 392.691 220.671 386.912 218.91 383.874Z" fill="white"/>
<path d="M301.588 369.03V428.207C301.588 431.612 299.906 433.314 296.561 433.314H287.734C286.279 433.314 285.141 432.997 284.33 432.364C283.538 431.71 282.766 430.622 282.034 429.118L265.171 394.839C263.054 390.306 261.747 386.981 261.253 384.864H260.223C260.669 387.981 260.896 391.395 260.896 395.116V433.314H247.398V374.176C247.398 370.752 249.101 369.03 252.505 369.03H261.173C262.598 369.03 263.707 369.367 264.498 370.02C265.31 370.683 266.092 371.752 266.834 373.226L283.142 406.476C284.696 409.593 286.249 413.047 287.813 416.847H288.723C288.347 411.998 288.169 408.396 288.169 406.041V369.03H301.588Z" fill="white"/>
<path d="M368.846 369.03V428.207C368.846 431.612 367.164 433.314 363.819 433.314H354.992C353.537 433.314 352.399 432.997 351.588 432.364C350.796 431.71 350.024 430.622 349.292 429.118L332.429 394.839C330.311 390.306 329.005 386.981 328.51 384.864H327.481C327.927 387.981 328.154 391.395 328.154 395.116V433.314H314.656V374.176C314.656 370.752 316.358 369.03 319.763 369.03H328.431C329.856 369.03 330.965 369.367 331.756 370.02C332.568 370.683 333.349 371.752 334.092 373.226L350.4 406.476C351.954 409.593 353.507 413.047 355.071 416.847H355.981C355.605 411.998 355.427 408.396 355.427 406.041V369.03H368.846Z" fill="white"/>
<path d="M424.664 422.231L425.297 432.681C419.458 433.295 409.523 433.591 395.491 433.591C391.216 433.591 387.792 432.434 385.239 430.108C382.705 427.792 381.409 424.636 381.359 420.648V381.698C381.409 377.739 382.705 374.602 385.239 372.277C387.792 369.932 391.216 368.754 395.491 368.754C409.523 368.754 419.458 369.071 425.297 369.704L424.664 380.233H399.964C398.4 380.233 397.282 380.609 396.599 381.341C395.936 382.084 395.609 383.301 395.609 384.983V394.76H421.22V405.012H395.609V417.402C395.609 419.143 395.936 420.39 396.599 421.123C397.282 421.865 398.4 422.231 399.964 422.231H424.664Z" fill="white"/>
<path d="M479.786 421.28L481.013 431.809C475.412 433.551 468.554 434.422 460.429 434.422C450.474 434.422 443.488 431.948 439.45 426.98C435.433 422.022 433.434 413.433 433.434 401.211C433.434 388.97 435.433 380.371 439.45 375.403C443.488 370.416 450.474 367.922 460.429 367.922C467.634 367.922 474.056 368.634 479.707 370.059L478.479 380.707C473.462 380.391 467.446 380.232 460.429 380.232C455.759 380.232 452.562 381.717 450.85 384.666C449.158 387.595 448.317 393.097 448.317 401.172C448.317 409.247 449.158 414.769 450.85 417.718C452.562 420.677 455.759 422.151 460.429 422.151C469.059 422.151 475.511 421.864 479.786 421.28Z" fill="white"/>
<path d="M537.935 380.589H518.737V433.314H504.487V380.589H485.289V369.03H537.935V380.589Z" fill="white"/>
<mask id="mask4_1221_21049" style="mask-type:luminance" maskUnits="userSpaceOnUse" x="53" y="451" width="99" height="50">
<path d="M53.3516 451.537H151.855V500.907H53.3516V451.537Z" fill="white"/>
</mask>
<g mask="url(#mask4_1221_21049)">
<path d="M53.8562 451.923H59.1307C59.1307 476.029 78.7442 495.643 102.85 495.643C126.957 495.643 146.57 476.029 146.57 451.923H151.835C151.835 478.939 129.856 500.907 102.85 500.907C75.8348 500.907 53.8562 478.939 53.8562 451.923Z" fill="white"/>
</g>
<path d="M144.947 451.675C144.392 451.121 143.967 450.478 143.66 449.755C143.363 449.033 143.215 448.271 143.215 447.489C143.215 446.697 143.363 445.945 143.66 445.223C143.967 444.491 144.392 443.847 144.947 443.293C145.501 442.739 146.144 442.314 146.866 442.007C147.599 441.71 148.351 441.562 149.133 441.562C149.924 441.562 150.676 441.71 151.409 442.007C152.131 442.314 152.774 442.739 153.328 443.293C153.883 443.847 154.308 444.491 154.615 445.223C154.912 445.945 155.06 446.697 155.06 447.489C155.06 448.271 154.912 449.033 154.615 449.755C154.308 450.478 153.883 451.121 153.328 451.675C152.774 452.239 152.131 452.665 151.409 452.962C150.676 453.268 149.924 453.417 149.142 453.417C148.351 453.417 147.599 453.268 146.866 452.962C146.144 452.665 145.501 452.239 144.947 451.675Z" fill="white"/>
<path d="M52.9271 451.675C52.3729 451.121 51.9474 450.478 51.6406 449.755C51.3437 449.033 51.1953 448.271 51.1953 447.489C51.1953 446.697 51.3437 445.945 51.6406 445.223C51.9375 444.491 52.3729 443.847 52.9271 443.293C53.4813 442.739 54.1245 442.314 54.8469 442.007C55.5792 441.71 56.3312 441.562 57.113 441.562C57.9047 441.562 58.6568 441.71 59.3891 442.007C60.1115 442.314 60.7547 442.739 61.3089 443.293C61.863 443.847 62.2885 444.491 62.5953 445.223C62.8922 445.945 63.0406 446.697 63.0406 447.489C63.0406 448.271 62.8922 449.033 62.5953 449.755C62.2885 450.478 61.863 451.121 61.3089 451.675C60.7547 452.239 60.1115 452.665 59.3891 452.962C58.6568 453.268 57.9047 453.417 57.113 453.417C56.3312 453.417 55.5792 453.268 54.8469 452.962C54.1245 452.665 53.4813 452.239 52.9271 451.675Z" fill="white"/>
<mask id="mask5_1221_21049" style="mask-type:luminance" maskUnits="userSpaceOnUse" x="412" y="306" width="100" height="50">
<path d="M412.926 306.939H511.676V355.934H412.926V306.939Z" fill="white"/>
</mask>
<g mask="url(#mask5_1221_21049)">
<path d="M510.914 355.924H505.65C505.65 331.818 486.036 312.204 461.93 312.204C437.824 312.204 418.21 331.818 418.21 355.924H412.936C412.936 328.918 434.914 306.939 461.93 306.939C488.936 306.939 510.914 328.918 510.914 355.924Z" fill="white"/>
</g>
<path d="M419.824 356.171C420.389 356.725 420.814 357.369 421.111 358.091C421.418 358.823 421.566 359.575 421.566 360.367C421.566 361.149 421.418 361.901 421.111 362.633C420.814 363.356 420.389 363.999 419.834 364.553C419.27 365.107 418.637 365.543 417.905 365.839C417.182 366.136 416.42 366.295 415.639 366.295C414.857 366.295 414.095 366.136 413.372 365.839C412.64 365.543 412.007 365.107 411.443 364.553C410.889 363.999 410.463 363.356 410.166 362.633C409.859 361.901 409.711 361.149 409.711 360.367C409.711 359.575 409.859 358.823 410.166 358.091C410.463 357.369 410.889 356.725 411.443 356.171C412.007 355.617 412.64 355.192 413.372 354.885C414.095 354.588 414.857 354.439 415.639 354.439C416.42 354.439 417.182 354.588 417.905 354.885C418.637 355.192 419.27 355.617 419.824 356.171Z" fill="white"/>
<mask id="mask6_1221_21049" style="mask-type:luminance" maskUnits="userSpaceOnUse" x="499" y="353" width="16" height="16">
<path d="M499.277 353.4H514.418V368.6H499.277V353.4Z" fill="white"/>
</mask>
<g mask="url(#mask6_1221_21049)">
<path d="M511.855 356.171C512.409 356.725 512.835 357.369 513.131 358.091C513.438 358.823 513.587 359.575 513.587 360.367C513.587 361.149 513.438 361.901 513.131 362.633C512.835 363.356 512.409 363.999 511.855 364.553C511.291 365.107 510.657 365.543 509.925 365.839C509.203 366.136 508.441 366.295 507.659 366.295C506.877 366.295 506.115 366.136 505.393 365.839C504.661 365.543 504.027 365.107 503.463 364.553C502.909 363.999 502.484 363.356 502.187 362.633C501.88 361.901 501.731 361.149 501.731 360.367C501.731 359.575 501.88 358.823 502.187 358.091C502.484 357.369 502.909 356.725 503.463 356.171C504.027 355.617 504.661 355.192 505.393 354.885C506.115 354.588 506.877 354.439 507.659 354.439C508.441 354.439 509.203 354.588 509.925 354.885C510.657 355.192 511.291 355.617 511.855 356.171Z" fill="white"/>
</g>
</svg>
