<svg width="20" height="21" viewBox="0 0 20 21" fill="none" xmlns="http://www.w3.org/2000/svg">
<path d="M8.40534 9.15042C7.50045 9.15042 6.61588 8.88209 5.86349 8.37936C5.1111 7.87663 4.52468 7.16208 4.17839 6.32607C3.83211 5.49006 3.7415 4.57014 3.91804 3.68263C4.09457 2.79513 4.53032 1.9799 5.17017 1.34005C5.81003 0.700195 6.62525 0.264449 7.51276 0.0879134C8.40026 -0.088622 9.32018 0.00198236 10.1562 0.348269C10.9922 0.694556 11.7068 1.28097 12.2095 2.03336C12.7122 2.78575 12.9805 3.67032 12.9805 4.57521C12.9805 5.78863 12.4985 6.95236 11.6405 7.81037C10.7825 8.66839 9.61876 9.15042 8.40534 9.15042ZM8.40534 1.35949C7.75899 1.35949 7.12715 1.55116 6.58973 1.91025C6.05231 2.26934 5.63344 2.77974 5.38609 3.37689C5.13874 3.97404 5.07403 4.63113 5.20012 5.26506C5.32622 5.89899 5.63747 6.48129 6.09451 6.93833C6.55155 7.39537 7.13385 7.70662 7.76778 7.83271C8.40171 7.95881 9.0588 7.89409 9.65595 7.64674C10.2531 7.3994 10.7635 6.98053 11.1226 6.44311C11.4817 5.90569 11.6733 5.27385 11.6733 4.6275C11.6733 4.19834 11.5888 3.77338 11.4246 3.37689C11.2603 2.98039 11.0196 2.62013 10.7162 2.31667C10.4127 2.01321 10.0524 1.77249 9.65595 1.60826C9.25946 1.44402 8.8345 1.35949 8.40534 1.35949ZM12.0459 9.94128C8.50888 9.14538 4.80858 9.52872 1.50984 11.0328C1.05617 11.2495 0.673403 11.5906 0.406104 12.0165C0.138806 12.4423 -0.0020216 12.9353 2.19279e-05 13.438V17.327C2.19261e-05 17.4128 0.0169279 17.4978 0.0497745 17.5771C0.082621 17.6564 0.130765 17.7284 0.191457 17.7891C0.25215 17.8498 0.324202 17.898 0.403501 17.9308C0.482799 17.9637 0.567791 17.9806 0.653624 17.9806C0.739456 17.9806 0.824447 17.9637 0.903746 17.9308C0.983044 17.898 1.0551 17.8498 1.11579 17.7891C1.17648 17.7284 1.22463 17.6564 1.25747 17.5771C1.29032 17.4978 1.30723 17.4128 1.30723 17.327V13.438C1.30153 13.1836 1.37024 12.933 1.50493 12.7171C1.63961 12.5011 1.8344 12.3292 2.0654 12.2223C4.05253 11.3048 6.21663 10.8341 8.40534 10.8433C9.6317 10.8417 10.8539 10.9865 12.0459 11.2746V9.94128ZM12.1374 16.157H16.1505V17.0721H12.1374V16.157Z" fill="#B5BFC6"/>
<path d="M19.3473 12.2746H15.9682V13.5818H18.6937V19.0524H9.4322V13.5818H13.5499V13.8563C13.5499 14.0296 13.6188 14.1959 13.7413 14.3184C13.8639 14.441 14.0301 14.5099 14.2035 14.5099C14.3768 14.5099 14.5431 14.441 14.6657 14.3184C14.7882 14.1959 14.8571 14.0296 14.8571 13.8563V11.3138C14.8571 11.1404 14.7882 10.9742 14.6657 10.8516C14.5431 10.729 14.3768 10.6602 14.2035 10.6602C14.0301 10.6602 13.8639 10.729 13.7413 10.8516C13.6188 10.9742 13.5499 11.1404 13.5499 11.3138V12.2746H8.7786C8.60526 12.2746 8.43901 12.3434 8.31643 12.466C8.19386 12.5886 8.125 12.7548 8.125 12.9282V19.706C8.125 19.8793 8.19386 20.0456 8.31643 20.1682C8.43901 20.2907 8.60526 20.3596 8.7786 20.3596H19.3473C19.5207 20.3596 19.6869 20.2907 19.8095 20.1682C19.9321 20.0456 20.0009 19.8793 20.0009 19.706V12.9282C20.0009 12.7548 19.9321 12.5886 19.8095 12.466C19.6869 12.3434 19.5207 12.2746 19.3473 12.2746Z" fill="#B5BFC6"/>
</svg>
