<svg width="17" height="13" viewBox="0 0 17 13" fill="none" xmlns="http://www.w3.org/2000/svg">
<path d="M1.39474 1.39474V1C1.29005 1 1.18964 1.04159 1.11562 1.11562C1.04159 1.18964 1 1.29005 1 1.39474H1.39474ZM15.6053 1.39474H16C16 1.29005 15.9584 1.18964 15.8844 1.11562C15.8104 1.04159 15.71 1 15.6053 1V1.39474ZM1.39474 1.78947H15.6053V1H1.39474V1.78947ZM15.2105 1.39474V10.8684H16V1.39474H15.2105ZM14.0263 12.0526H2.97368V12.8421H14.0263V12.0526ZM1.78947 10.8684V1.39474H1V10.8684H1.78947ZM2.97368 12.0526C2.65961 12.0526 2.3584 11.9279 2.13632 11.7058C1.91424 11.4837 1.78947 11.1825 1.78947 10.8684H1C1 11.3919 1.20794 11.8939 1.57808 12.264C1.94822 12.6342 2.45023 12.8421 2.97368 12.8421V12.0526ZM15.2105 10.8684C15.2105 11.1825 15.0858 11.4837 14.8637 11.7058C14.6416 11.9279 14.3404 12.0526 14.0263 12.0526V12.8421C14.5498 12.8421 15.0518 12.6342 15.4219 12.264C15.7921 11.8939 16 11.3919 16 10.8684H15.2105Z" fill="#B5BFC6"/>
<path d="M1.39478 1.39478L8.50004 8.50004L15.6053 1.39478" stroke="#B5BFC6" stroke-linecap="round" stroke-linejoin="round"/>
</svg>
