<svg width="200" height="81" viewBox="0 0 200 81" fill="none" xmlns="http://www.w3.org/2000/svg">
<path d="M186.017 27.7462C175.22 27.7949 173.919 35.4914 173.919 35.4914C173.919 35.4914 172.654 27.8922 161.735 27.7706C152.021 27.6733 150.002 33.2663 150.002 33.2663V28.3907H130.816V51.3465H138.208V42.8353H147.498V37.1936H138.208V34.0323H149.528C149.528 34.0323 146.756 41.4978 150.464 47.3097C152.629 50.6777 157.103 52.5259 163.596 51.9666C163.596 51.9666 172.289 51.6991 173.773 44.4159C173.955 45.1455 174.77 47.6623 177.42 49.6199C179.293 51.0303 182.101 52.1976 186.248 52.1368C186.248 52.1368 192.558 52.1854 195.659 49.0606C197.543 47.1395 199.026 44.4767 198.966 39.5646C198.881 34.1418 196.826 27.7098 186.017 27.7462ZM173.335 42.4462H165.626C164.848 45.4738 162.769 45.8993 162.769 45.8993C159.571 46.6653 157.93 44.6591 157.602 44.0877C156.009 41.3033 156.629 38.3609 156.823 37.5462C158.088 32.4882 162.708 33.8378 162.708 33.8378C165.699 34.9199 165.505 38.0326 165.505 38.0326H173.323V42.4462H173.335ZM186.454 46.2762C185.287 46.337 181.615 45.7413 181.384 40.5251C181.153 35.1023 183.706 33.6433 186.248 33.5946C188.813 33.546 191.075 35.2725 191.172 39.7591C191.281 44.9388 188.436 46.1911 186.454 46.2762ZM111.045 48.1852L104.419 28.5366H94.8257L87.8101 48.1852V28.5366H80.5877V41.1574L73.1587 28.5366H64.6719V51.3465H71.5659V38.142L79.3232 51.3343H94.6433L95.3363 49.0484H103.471L104.176 51.3343H118.304V42.8353H127.788V37.1936H118.304V34.0323H129.989V28.5366H111.045V48.1852ZM97.1237 43.4189L99.4946 35.4184L101.878 43.4189H97.1237Z" fill="white"/>
<path d="M33.1813 39.4553V22.1168L0 0V59.9793L12.0129 57.1098L11.9156 25.8374L33.1813 39.4553Z" fill="white"/>
<path d="M40.3038 54.2403L19.1354 40.513V57.9609L52.2194 80.0777V20.0984L40.1944 22.9679L40.3038 54.2403Z" fill="white"/>
<path d="M63.9688 64.4417V57.1221H66.9963C67.3124 57.1221 67.6042 57.1829 67.8717 57.3166C68.1392 57.4504 68.3702 57.6206 68.5526 57.8394C68.7472 58.0583 68.8931 58.3015 69.0025 58.5811C69.1119 58.8608 69.1606 59.1283 69.1606 59.4201C69.1606 59.724 69.1119 60.0159 69.0147 60.2955C68.9174 60.5752 68.7715 60.8183 68.5891 61.0372C68.4067 61.2561 68.1878 61.4263 67.9204 61.5479C67.665 61.6816 67.3732 61.7424 67.0571 61.7424H64.674V64.4417H63.9688ZM64.6861 61.098H67.0206C67.2395 61.098 67.4219 61.0494 67.6042 60.9642C67.7745 60.867 67.9325 60.7454 68.0541 60.5873C68.1757 60.4293 68.273 60.259 68.3459 60.0523C68.4189 59.8456 68.4432 59.6389 68.4432 59.4201C68.4432 59.1891 68.4067 58.9824 68.3216 58.7757C68.2365 58.569 68.1392 58.3987 68.0055 58.2407C67.8717 58.0948 67.7137 57.9732 67.5313 57.8881C67.3489 57.803 67.1544 57.7543 66.9598 57.7543H64.6861V61.098Z" fill="white"/>
<path d="M70.7656 64.4417L73.8296 57.1221H74.4133L77.4773 64.4417H76.6991L75.7507 62.1558H72.4678L71.5316 64.4417H70.7656ZM74.1214 57.9732L72.6137 61.5965H75.5805L74.1214 57.9732Z" fill="white"/>
<path d="M84.3721 58.4954C84.1654 58.2644 83.8858 58.0699 83.5453 57.924C83.1927 57.7781 82.8036 57.7051 82.3781 57.7051C81.7215 57.7051 81.2473 57.8267 80.9555 58.0699C80.6637 58.3131 80.5178 58.6413 80.5178 59.0669C80.5178 59.2858 80.5542 59.4681 80.6394 59.614C80.7123 59.7599 80.8461 59.8815 81.0163 59.9788C81.1865 60.0761 81.3932 60.1733 81.6607 60.2463C81.916 60.3192 82.22 60.3922 82.5726 60.4773C82.9617 60.5624 83.3143 60.6475 83.6183 60.7448C83.9222 60.8421 84.1897 60.9758 84.4086 61.1217C84.6274 61.2798 84.7977 61.4622 84.9193 61.6932C85.0408 61.9121 85.0895 62.1917 85.0895 62.52C85.0895 62.8604 85.0287 63.1522 84.8949 63.3954C84.7612 63.6386 84.5788 63.8453 84.3478 64.0155C84.1168 64.1857 83.8371 64.3073 83.5088 64.3803C83.1805 64.4532 82.8401 64.5019 82.4632 64.5019C81.3203 64.5019 80.3354 64.1493 79.5208 63.4441L79.8733 62.8604C80.1408 63.1401 80.5056 63.3833 80.9555 63.5778C81.4054 63.7723 81.916 63.8696 82.4753 63.8696C83.059 63.8696 83.521 63.7602 83.8493 63.5535C84.1776 63.3468 84.3478 63.0307 84.3478 62.6051C84.3478 62.3741 84.2992 62.1917 84.214 62.0336C84.1168 61.8756 83.983 61.7418 83.8006 61.6324C83.6182 61.523 83.3872 61.4257 83.1076 61.3406C82.8279 61.2555 82.5118 61.1704 82.1471 61.0974C81.758 61.0123 81.4297 60.915 81.1379 60.8178C80.8461 60.7205 80.6029 60.5989 80.4083 60.453C80.2138 60.3071 80.0679 60.1369 79.9706 59.9302C79.8734 59.7235 79.8247 59.4803 79.8247 59.1885C79.8247 58.848 79.8855 58.5562 80.0193 58.2887C80.1409 58.0212 80.3232 57.8024 80.5542 57.6322C80.7853 57.4619 81.0528 57.3282 81.381 57.2309C81.6972 57.1336 82.0498 57.0972 82.4389 57.0972C82.9252 57.0972 83.3508 57.1701 83.7277 57.316C84.1046 57.4619 84.4572 57.6686 84.7612 57.9361L84.3721 58.4954Z" fill="white"/>
<path d="M92.3252 58.4954C92.1185 58.2644 91.8389 58.0699 91.4984 57.924C91.1458 57.7781 90.7568 57.7051 90.3312 57.7051C89.6746 57.7051 89.2004 57.8267 88.9086 58.0699C88.6168 58.3131 88.4709 58.6413 88.4709 59.0669C88.4709 59.2858 88.5074 59.4681 88.5925 59.614C88.6654 59.7599 88.7992 59.8815 88.9694 59.9788C89.1396 60.0761 89.3463 60.1733 89.6138 60.2463C89.8692 60.3192 90.1731 60.3922 90.5257 60.4773C90.9148 60.5624 91.2674 60.6475 91.5714 60.7448C91.8754 60.8421 92.1429 60.9758 92.3617 61.1217C92.5806 61.2798 92.7508 61.4622 92.8724 61.6932C92.994 61.9121 93.0426 62.1917 93.0426 62.52C93.0426 62.8604 92.9818 63.1522 92.8481 63.3954C92.7143 63.6386 92.5319 63.8453 92.3009 64.0155C92.0699 64.1857 91.7902 64.3073 91.462 64.3803C91.1337 64.4532 90.7932 64.5019 90.4163 64.5019C89.2734 64.5019 88.2885 64.1493 87.4739 63.4441L87.8265 62.8604C88.094 63.1401 88.4587 63.3833 88.9086 63.5778C89.3585 63.7723 89.8692 63.8696 90.4285 63.8696C91.0121 63.8696 91.4741 63.7602 91.8024 63.5535C92.1307 63.3468 92.3009 63.0307 92.3009 62.6051C92.3009 62.3741 92.2523 62.1917 92.1672 62.0336C92.0699 61.8756 91.9362 61.7418 91.7538 61.6324C91.5714 61.523 91.3404 61.4257 91.0607 61.3406C90.7811 61.2555 90.4649 61.1704 90.1002 61.0974C89.7111 61.0123 89.3828 60.915 89.091 60.8178C88.7992 60.7205 88.556 60.5989 88.3615 60.453C88.1669 60.3071 88.021 60.1369 87.9238 59.9302C87.8265 59.7235 87.7778 59.4803 87.7778 59.1885C87.7778 58.848 87.8386 58.5562 87.9724 58.2887C88.094 58.0212 88.2764 57.8024 88.5074 57.6322C88.7384 57.4619 89.0059 57.3282 89.3342 57.2309C89.6503 57.1336 90.0029 57.0972 90.392 57.0972C90.8783 57.0972 91.3039 57.1701 91.6808 57.316C92.0577 57.4619 92.4103 57.6686 92.7143 57.9361L92.3252 58.4954Z" fill="white"/>
<path d="M95.9844 64.4417V57.1343H96.6896V64.4417H95.9844Z" fill="white"/>
<path d="M103.168 64.4901C102.658 64.4901 102.196 64.3807 101.77 64.174C101.344 63.9673 100.98 63.6876 100.688 63.335C100.384 62.9824 100.153 62.5933 99.9827 62.1435C99.8125 61.6936 99.7395 61.2437 99.7395 60.7695C99.7395 60.2832 99.8246 59.809 100.007 59.3713C100.177 58.9214 100.42 58.5323 100.737 58.1919C101.041 57.8514 101.405 57.5718 101.831 57.3772C102.244 57.1705 102.706 57.0732 103.193 57.0732C103.703 57.0732 104.165 57.1827 104.591 57.4015C105.016 57.6204 105.369 57.9 105.673 58.2526C105.977 58.6053 106.208 58.9943 106.366 59.4442C106.536 59.8819 106.609 60.344 106.609 60.7938C106.609 61.2802 106.524 61.7544 106.342 62.1921C106.172 62.642 105.928 63.031 105.624 63.3715C105.32 63.7119 104.956 63.9794 104.542 64.1861C104.105 64.3928 103.655 64.4901 103.168 64.4901ZM100.457 60.7817C100.457 61.1829 100.518 61.5598 100.651 61.9368C100.785 62.3015 100.968 62.6298 101.211 62.9216C101.454 63.2013 101.734 63.4323 102.062 63.6025C102.39 63.7727 102.755 63.8578 103.168 63.8578C103.582 63.8578 103.959 63.7727 104.287 63.5904C104.627 63.408 104.907 63.177 105.138 62.8851C105.369 62.5933 105.551 62.265 105.673 61.9124C105.795 61.5477 105.868 61.1829 105.868 60.7938C105.868 60.3926 105.795 60.0157 105.673 59.6387C105.539 59.274 105.357 58.9457 105.114 58.666C104.871 58.3864 104.591 58.1554 104.263 57.9973C103.934 57.8271 103.57 57.742 103.168 57.742C102.755 57.742 102.378 57.8271 102.05 58.0095C101.709 58.1797 101.43 58.4107 101.199 58.7025C100.968 58.9943 100.785 59.3226 100.651 59.6874C100.518 60.0278 100.457 60.4048 100.457 60.7817Z" fill="white"/>
<path d="M110.356 58.4595V64.4417H109.651V57.1221H110.21L115.05 63.2136V57.1342H115.755V64.4417H115.135L110.356 58.4595Z" fill="white"/>
<path d="M128.473 57.7665H125.871V64.4417H125.154V57.7665H122.552V57.1221H128.485V57.7665H128.473Z" fill="white"/>
<path d="M133.871 64.4901C133.361 64.4901 132.899 64.3807 132.473 64.174C132.048 63.9673 131.683 63.6876 131.391 63.335C131.087 62.9824 130.856 62.5933 130.686 62.1435C130.516 61.6936 130.443 61.2437 130.443 60.7695C130.443 60.2832 130.528 59.809 130.71 59.3713C130.88 58.9214 131.124 58.5323 131.44 58.1919C131.744 57.8514 132.108 57.5718 132.534 57.3772C132.947 57.1705 133.409 57.0732 133.896 57.0732C134.406 57.0732 134.868 57.1827 135.294 57.4015C135.72 57.6204 136.072 57.9 136.376 58.2526C136.68 58.6053 136.911 58.9943 137.069 59.4442C137.239 59.8819 137.312 60.344 137.312 60.7938C137.312 61.2802 137.227 61.7544 137.045 62.1921C136.875 62.642 136.631 63.031 136.327 63.3715C136.024 63.7119 135.659 63.9794 135.245 64.1861C134.808 64.3928 134.358 64.4901 133.871 64.4901ZM131.16 60.7817C131.16 61.1829 131.221 61.5598 131.355 61.9368C131.488 62.3015 131.671 62.6298 131.914 62.9216C132.157 63.2013 132.437 63.4323 132.765 63.6025C133.093 63.7727 133.458 63.8578 133.871 63.8578C134.285 63.8578 134.662 63.7727 134.99 63.5904C135.33 63.408 135.61 63.177 135.841 62.8851C136.072 62.5933 136.255 62.265 136.376 61.9124C136.498 61.5477 136.571 61.1829 136.571 60.7938C136.571 60.3926 136.498 60.0157 136.376 59.6387C136.242 59.274 136.06 58.9457 135.817 58.666C135.574 58.3864 135.294 58.1554 134.966 57.9973C134.637 57.8271 134.273 57.742 133.871 57.742C133.458 57.742 133.081 57.8271 132.753 58.0095C132.412 58.1797 132.133 58.4107 131.902 58.7025C131.671 58.9943 131.488 59.3226 131.355 59.6874C131.221 60.0278 131.16 60.4048 131.16 60.7817Z" fill="white"/>
<path d="M144.63 64.4417V57.1221H147.658C147.974 57.1221 148.266 57.1829 148.533 57.3166C148.801 57.4504 149.032 57.6206 149.214 57.8394C149.409 58.0583 149.554 58.3015 149.664 58.5811C149.773 58.8608 149.822 59.1283 149.822 59.4201C149.822 59.724 149.773 60.0159 149.676 60.2955C149.579 60.5752 149.433 60.8183 149.25 61.0372C149.068 61.2561 148.849 61.4263 148.582 61.5479C148.326 61.6816 148.035 61.7424 147.718 61.7424H145.335V64.4417H144.63ZM145.335 61.098H147.67C147.889 61.098 148.071 61.0494 148.253 60.9642C148.424 60.867 148.582 60.7454 148.703 60.5873C148.825 60.4293 148.922 60.259 148.995 60.0523C149.068 59.8456 149.092 59.6389 149.092 59.4201C149.092 59.1891 149.056 58.9824 148.971 58.7757C148.886 58.569 148.788 58.3987 148.655 58.2407C148.521 58.0948 148.363 57.9732 148.18 57.8881C147.998 57.803 147.804 57.7543 147.609 57.7543H145.335V61.098Z" fill="white"/>
<path d="M152.677 64.4417V57.1221H155.753C156.069 57.1221 156.361 57.1829 156.629 57.3166C156.896 57.4504 157.127 57.6206 157.322 57.8394C157.516 58.0583 157.662 58.3015 157.772 58.5811C157.881 58.8608 157.93 59.1283 157.93 59.4201C157.93 59.6876 157.893 59.9429 157.808 60.1861C157.723 60.4293 157.613 60.6481 157.468 60.8427C157.322 61.0372 157.151 61.2074 156.957 61.3412C156.762 61.4749 156.531 61.5722 156.288 61.6208L158.088 64.4417H157.273L155.546 61.7424H153.382V64.4417H152.677ZM153.382 61.098H155.777C155.996 61.098 156.179 61.0494 156.361 60.9642C156.531 60.867 156.689 60.7454 156.811 60.5873C156.933 60.4293 157.03 60.2469 157.103 60.0523C157.176 59.8578 157.2 59.6389 157.2 59.4201C157.2 59.2012 157.164 58.9945 157.078 58.7878C156.993 58.5811 156.896 58.4109 156.762 58.2528C156.629 58.1069 156.471 57.9853 156.288 57.8881C156.106 57.7908 155.911 57.7543 155.717 57.7543H153.382V61.098Z" fill="white"/>
<path d="M164.059 64.4901C163.548 64.4901 163.086 64.3807 162.661 64.174C162.235 63.9673 161.87 63.6876 161.579 63.335C161.275 62.9824 161.044 62.5933 160.873 62.1435C160.703 61.6936 160.63 61.2437 160.63 60.7695C160.63 60.2832 160.715 59.809 160.898 59.3713C161.068 58.9214 161.311 58.5323 161.627 58.1919C161.931 57.8514 162.296 57.5718 162.721 57.3772C163.135 57.1705 163.597 57.0732 164.083 57.0732C164.594 57.0732 165.056 57.1827 165.481 57.4015C165.907 57.6204 166.26 57.9 166.564 58.2526C166.868 58.6053 167.099 58.9943 167.257 59.4442C167.427 59.8819 167.5 60.344 167.5 60.7938C167.5 61.2802 167.415 61.7544 167.232 62.1921C167.062 62.642 166.819 63.031 166.515 63.3715C166.211 63.7119 165.846 63.9794 165.433 64.1861C164.995 64.3928 164.545 64.4901 164.059 64.4901ZM161.348 60.7817C161.348 61.1829 161.408 61.5598 161.542 61.9368C161.676 62.3015 161.858 62.6298 162.101 62.9216C162.345 63.2013 162.624 63.4323 162.952 63.6025C163.281 63.7727 163.646 63.8578 164.059 63.8578C164.472 63.8578 164.849 63.7727 165.178 63.5904C165.518 63.408 165.798 63.177 166.029 62.8851C166.26 62.5933 166.442 62.265 166.564 61.9124C166.685 61.5477 166.758 61.1829 166.758 60.7938C166.758 60.3926 166.685 60.0157 166.564 59.6387C166.43 59.274 166.247 58.9457 166.004 58.666C165.761 58.3864 165.481 58.1554 165.153 57.9973C164.825 57.8271 164.46 57.742 164.059 57.742C163.646 57.742 163.269 57.8271 162.94 58.0095C162.6 58.1797 162.32 58.4107 162.089 58.7025C161.858 58.9943 161.676 59.3226 161.542 59.6874C161.408 60.0278 161.348 60.4048 161.348 60.7817Z" fill="white"/>
<path d="M175.38 57.7665H172.778V64.4417H172.06V57.7665H169.458V57.1221H175.38V57.7665Z" fill="white"/>
<path d="M183.063 63.7972V64.4417H178.151V57.1221H182.978V57.7665H178.868V60.4049H182.455V61.0129H178.868V63.8094H183.063V63.7972Z" fill="white"/>
<path d="M185.641 60.7331C185.641 60.2954 185.713 59.8577 185.872 59.4199C186.03 58.9822 186.248 58.5931 186.54 58.2527C186.832 57.9122 187.197 57.6326 187.635 57.4137C188.072 57.1949 188.559 57.0854 189.106 57.0854C189.762 57.0854 190.309 57.2314 190.772 57.5232C191.234 57.815 191.574 58.2041 191.805 58.6783L191.234 59.0309C191.112 58.7877 190.978 58.5931 190.808 58.4229C190.638 58.2527 190.468 58.1189 190.273 58.0217C190.078 57.9244 189.884 57.8393 189.677 57.8028C189.471 57.7542 189.264 57.7299 189.069 57.7299C188.632 57.7299 188.242 57.815 187.902 57.9974C187.562 58.1797 187.282 58.4108 187.051 58.7026C186.82 58.9944 186.65 59.3105 186.528 59.6753C186.407 60.04 186.358 60.4048 186.358 60.7696C186.358 61.1708 186.431 61.5599 186.565 61.9368C186.71 62.3137 186.893 62.642 187.136 62.9217C187.379 63.2013 187.671 63.4323 187.999 63.6026C188.328 63.7728 188.692 63.8579 189.081 63.8579C189.288 63.8579 189.495 63.8336 189.714 63.7849C189.933 63.7363 190.139 63.6512 190.346 63.5418C190.553 63.4323 190.735 63.2864 190.905 63.1162C191.075 62.946 191.221 62.7393 191.343 62.5083L191.939 62.8122C191.817 63.0919 191.659 63.3351 191.44 63.5418C191.221 63.7485 190.99 63.9308 190.735 64.0768C190.468 64.2227 190.2 64.3321 189.908 64.405C189.616 64.478 189.325 64.5145 189.045 64.5145C188.546 64.5145 188.084 64.405 187.659 64.1862C187.245 63.9673 186.881 63.6755 186.577 63.3229C186.273 62.9703 186.042 62.5691 185.872 62.1192C185.726 61.6572 185.641 61.1951 185.641 60.7331Z" fill="white"/>
<path d="M199.989 57.7665H197.387V64.4417H196.67V57.7665H194.068V57.1221H200.001V57.7665H199.989Z" fill="white"/>
</svg>
