<svg width="294" height="312" viewBox="0 0 294 312" fill="none" xmlns="http://www.w3.org/2000/svg">
<path d="M119.496 8.85416L113.502 75.9444L108.377 52.8958L119.496 8.85416ZM120.877 5.17361L130.072 37.4514L114.558 75.8819L120.877 5.17361ZM158.725 -14.1667L130.746 35.9722L121.266 2.70139L158.725 -14.1667ZM145.947 -22.3125L158.877 -15.6181L123.211 0.444443L145.947 -22.3125ZM140.357 -25.2014L144.968 -22.8194L124.391 -2.22917L140.357 -25.2014ZM161.773 -39.6319L145.746 -23.5972L141.218 -25.9375L161.773 -39.6319ZM159.732 -16.3611L146.725 -23.0903L164.871 -41.25L159.732 -16.3611ZM166.364 -42.2431L197.558 -30.0764L161.044 -16.5139L166.364 -42.2431ZM205.989 -49.0069L198.877 -30.6875L167.85 -42.7847L205.989 -49.0069ZM207.086 -48.9306L246.746 -27.7083L199.926 -30.4861L207.086 -48.9306ZM256.607 -38.7361L248.933 -27.7222L210.28 -48.4097L256.607 -38.7361ZM257.565 -38.2708L280.641 -14.6111L249.905 -27.2778L257.565 -38.2708ZM270.648 11.4028L250.419 -25.9306L282.079 -12.8889L270.648 11.4028ZM299.426 34.125L271.28 12.5208L282.732 -11.7986L299.426 34.125ZM265.697 72.5208L271.058 13.6806L299.759 35.7014L265.697 72.5208ZM294.919 80.4375L266.03 73.7014L299.836 37.1667L294.919 80.4375ZM263.912 120.25L265.537 74.6667L294.454 81.4028L263.912 120.25ZM262.836 120.937L214.294 99.9444L264.475 74.993L262.836 120.937ZM198.78 133.257L213.121 100.812L261.357 121.674L198.78 133.257ZM209.711 140.264L199.266 134.236L256.871 123.569L209.711 140.264ZM168.273 132.854L197.614 134.493L206.787 139.792L168.273 132.854ZM153.759 98.5278L196.197 133.368L160.183 131.347L153.759 98.5278ZM115.891 81.0347L152.523 97.6875L158.857 130.042L115.891 81.0347ZM127.648 99.8125L118.148 85.2083L150.482 122.083L127.648 99.8125ZM151.843 95.993L114.433 78.993L130.551 39.0694L151.843 95.993ZM180.947 52.7014L131.607 37.0208L159.968 -13.8194L180.947 52.7014ZM211.023 12.5347L182.336 52.2153L161.44 -14.0278L211.023 12.5347ZM210.884 10.7917L161.857 -15.4722L198.669 -29.1458L210.884 10.7917ZM212.44 10.8542L200.121 -29.4236L247.676 -26.6042L212.44 10.8542ZM213.794 11.5556L249.016 -25.8819L269.509 11.9375L213.794 11.5556ZM228.072 50.7639L263.766 73.9375L213.815 98.7778L228.072 50.7639ZM213.211 13.0278L268.829 13.4028L228.037 48.6597L213.211 13.0278ZM226.641 49.1389L183.614 52.9583L211.933 13.7778L226.641 49.1389ZM183.371 54.4583L226.808 50.5972L212.614 98.3889L183.371 54.4583ZM211.85 100.569L197.489 133.069L154.655 97.9028L211.85 100.569ZM153.079 95.7083L131.718 38.5972L180.919 54.2361L153.079 95.7083ZM182.072 55.1528L211.454 99.2917L154.232 96.625L182.072 55.1528ZM264.6 72.9792L228.752 49.7083L269.968 14.0764L264.6 72.9792ZM113.211 79.4722L113.725 79.3611L113.28 79.6458L113.461 79.9236V79.9305L113.468 79.9375L126.801 100.431L127.239 100.146L126.877 100.521L159.377 132.229L159.746 131.847L159.648 132.368L209.565 141.354L209.662 140.84L209.836 141.333L263.502 122.333L263.329 121.84L263.739 122.167L295.787 81.4028L295.377 81.0764L295.898 81.1389L301.058 35.6944L300.537 35.6389L301.03 35.4583L283.287 -13.3403L282.794 -13.1597L283.169 -13.5278L257.871 -39.4514L257.496 -39.0903L257.6 -39.6042L206.919 -50.1875L206.808 -49.6667L206.725 -50.1875L165.787 -43.5139L165.871 -42.9931L165.579 -43.4306L139.898 -26.3194L140.19 -25.8819L139.759 -26.1806L120.377 1.72222L120.35 1.72916L120.357 1.75L120.176 2.00694L120.607 2.30555L120.1 2.18055L107.329 52.7569L107.836 52.8889L107.329 53L113.211 79.4722Z" fill="#A92828" fill-opacity="0.2"/>
<path d="M186.412 53.9861C186.537 51.5973 184.697 49.5556 182.308 49.4306C179.919 49.3056 177.878 51.1389 177.753 53.5348C177.628 55.9236 179.461 57.9653 181.857 58.0903C184.246 58.2153 186.287 56.382 186.412 53.9861Z" fill="#A92828" fill-opacity="0.2"/>
<path d="M147.384 96.8888C147.218 100.007 149.614 102.674 152.739 102.833C155.857 103 158.516 100.604 158.683 97.4791C158.843 94.361 156.447 91.7013 153.329 91.5346C150.211 91.3749 147.544 93.7708 147.384 96.8888Z" fill="#A92828" fill-opacity="0.2"/>
<path d="M135.822 37.9515C135.968 35.1459 133.815 32.7431 130.996 32.5973C128.19 32.4515 125.787 34.6112 125.641 37.4237C125.496 40.2362 127.655 42.632 130.468 42.7779C133.28 42.9306 135.676 40.764 135.822 37.9515Z" fill="#A92828" fill-opacity="0.2"/>
<path d="M193.843 133.708C193.725 135.875 195.391 137.722 197.558 137.833C199.718 137.944 201.565 136.285 201.676 134.118C201.794 131.958 200.128 130.111 197.968 129.993C195.801 129.882 193.954 131.542 193.843 133.708Z" fill="#A92828" fill-opacity="0.2"/>
<path d="M260.489 73.757C260.357 76.2778 262.294 78.4236 264.808 78.5556C267.329 78.6875 269.482 76.757 269.614 74.2361C269.745 71.7153 267.808 69.5695 265.287 69.4375C262.766 69.3056 260.62 71.2361 260.489 73.757Z" fill="#A92828" fill-opacity="0.2"/>
<path d="M212.475 105.479C215.593 105.646 218.253 103.25 218.419 100.132C218.579 97.0138 216.183 94.3471 213.065 94.1874C209.947 94.0207 207.287 96.4166 207.128 99.5346C206.961 102.653 209.357 105.319 212.475 105.479Z" fill="#A92828" fill-opacity="0.2"/>
<path d="M275.496 12.9513C275.641 10.236 273.551 7.92353 270.836 7.7777C268.121 7.63186 265.801 9.72214 265.655 12.4374C265.516 15.1527 267.6 17.4721 270.315 17.618C273.037 17.7569 275.35 15.6735 275.496 12.9513Z" fill="#A92828" fill-opacity="0.2"/>
<path d="M211.975 16.0624C214.134 16.1805 215.975 14.5208 216.086 12.361C216.204 10.2013 214.544 8.36103 212.384 8.24992C210.225 8.13881 208.384 9.79158 208.273 11.9513C208.162 14.111 209.822 15.9513 211.975 16.0624Z" fill="#A92828" fill-opacity="0.2"/>
<path d="M231.898 49.993C232.023 47.6805 230.246 45.7082 227.933 45.5902C225.621 45.4652 223.648 47.243 223.53 49.5555C223.405 51.868 225.183 53.8402 227.496 53.9582C229.808 54.0763 231.78 52.3055 231.898 49.993Z" fill="#A92828" fill-opacity="0.2"/>
<path d="M121.037 2.97222L145.329 9.70139L115.572 40.118L121.037 2.97222ZM164.357 -40.7361L145.898 8.77083L121.614 2.04166L164.357 -40.7361ZM140.565 -25.5L161.773 -39.6319L124.391 -2.22917L140.565 -25.5ZM166.148 -41.9375L190.336 -16.4097L147.516 8.02777L166.148 -41.9375ZM230.197 -38.0417L191.357 -16.8611L167.176 -42.3819L230.197 -38.0417ZM206.739 -49.1319L229.107 -39.1667L170.433 -43.2083L206.739 -49.1319ZM252.961 -39.5L232.134 -38.9722L211.502 -48.1528L252.961 -39.5ZM280.252 -15.0139L234.155 -37.9722L257.28 -38.5556L280.252 -15.0139ZM241.294 -0.548615L232.905 -37.4167L281.266 -13.3333L241.294 -0.548615ZM283.877 25.743L242.343 0.437496L282.301 -12.3403L283.877 25.743ZM299.565 34.5069L284.961 26.5069L283.454 -9.79861L299.565 34.5069ZM284.509 80.2778L284.968 27.7083L299.891 35.8889L284.509 80.2778ZM294.898 80.6458L284.759 82.7708L299.482 40.2847L294.898 80.6458ZM266.655 116.757L284.252 84.0278L284.294 84.0069L284.28 83.9861L284.308 83.9375L294.072 81.8889L266.655 116.757ZM263.107 121.139L241.836 110.347L282.468 85.1389L263.107 121.139ZM211.711 139.556L240.752 110.972L261.996 121.757L211.711 139.556ZM209.607 140.16L178.732 118.09L239.197 111.035L209.607 140.16ZM160.968 131.535L177.336 118.382L207.454 139.91L160.968 131.535ZM129.308 101.424L176.252 117.91L159.78 131.153L129.308 101.424ZM149.093 65.4375L176.086 116.736L128.127 99.9028L149.093 65.4375ZM148.44 62.9514L115.711 41.4722L145.759 10.7639L148.44 62.9514ZM188.732 28.2292L149.683 62.6944L147.009 10.5278L188.732 28.2292ZM189.384 26.9097L147.857 9.28472L190.489 -15.0417L189.384 26.9097ZM197.322 76.6736L150.544 63.8958L189.579 29.4375L197.322 76.6736ZM192.69 -16.3889L231.579 -37.5972L239.975 -0.694447L192.69 -16.3889ZM239.127 0.354164L190.857 26.75L191.961 -15.3056L239.127 0.354164ZM246.252 51.0486L191.773 27.9236L240.239 1.42361L246.252 51.0486ZM247.725 50.9375L241.732 1.54166L283.19 26.7986L247.725 50.9375ZM248.35 52.2847L283.912 28.0764L283.447 82.0694L248.35 52.2847ZM247.718 53.6736L282.801 83.4514L241.537 109.049L247.718 53.6736ZM199.475 77.743L246.252 53.5069L240.058 109.076L199.475 77.743ZM191.03 29.2083L245.412 52.2847L198.78 76.4514L191.03 29.2083ZM177.315 116.368L150.364 65.1528L197.301 77.9722L177.315 116.368ZM198.426 78.5278L239.169 109.979L178.371 117.076L198.426 78.5278ZM115.627 42.9236L148.28 64.3542L127.447 98.5972L115.627 42.9236ZM108.426 52.9305L114.572 43.0278L125.523 94.5764L108.426 52.9305ZM118.579 12.4861L114.315 41.4583L109.176 49.7361L118.579 12.4861ZM107.329 52.7569L107.836 52.8889L107.357 53.0833L126.759 100.347L127.239 100.146L126.877 100.521L159.377 132.229L159.746 131.847L159.648 132.368L209.565 141.354L209.662 140.84L209.836 141.333L263.502 122.333L263.329 121.84L263.739 122.167L295.787 81.4028L295.377 81.0764L295.898 81.1389L301.058 35.6944L300.537 35.6389L301.03 35.4583L283.287 -13.3403L282.794 -13.1597L283.169 -13.5278L257.871 -39.4514L257.496 -39.0903L257.6 -39.6042L206.919 -50.1875L206.808 -49.6667L206.725 -50.1875L165.787 -43.5139L165.871 -42.9931L165.579 -43.4306L139.898 -26.3194L140.19 -25.8819L139.759 -26.1806L120.176 2.00694L120.607 2.30555L120.1 2.18055L107.329 52.7569Z" fill="#A92828" fill-opacity="0.2"/>
<path d="M191.864 77.4792C191.864 81.0348 194.752 83.9237 198.308 83.9237C201.87 83.9237 204.759 81.0348 204.759 77.4792C204.759 73.9167 201.87 71.0278 198.308 71.0278C194.752 71.0278 191.864 73.9167 191.864 77.4792Z" fill="#A92828" fill-opacity="0.2"/>
<path d="M159.697 129.562C158.419 129.562 157.385 130.59 157.385 131.868C157.385 133.146 158.419 134.174 159.697 134.174C160.968 134.174 162.003 133.146 162.003 131.868C162.003 130.59 160.968 129.562 159.697 129.562Z" fill="#A92828" fill-opacity="0.2"/>
<path d="M180.426 117.757C180.426 116.069 179.058 114.701 177.377 114.701C175.69 114.701 174.329 116.069 174.329 117.757C174.329 119.438 175.69 120.806 177.377 120.806C179.058 120.806 180.426 119.438 180.426 117.757Z" fill="#A92828" fill-opacity="0.2"/>
<mask id="mask0_1221_20925" style="mask-type:luminance" maskUnits="userSpaceOnUse" x="204" y="136" width="12" height="9">
<path d="M204.551 136H215.218V144.278H204.551V136Z" fill="white"/>
</mask>
<g mask="url(#mask0_1221_20925)">
<path d="M205.829 140.917C205.829 143.083 207.579 144.84 209.746 144.84C211.912 144.84 213.669 143.083 213.669 140.917C213.669 138.75 211.912 136.993 209.746 136.993C207.579 136.993 205.829 138.75 205.829 140.917Z" fill="#A92828" fill-opacity="0.2"/>
</g>
<path d="M143.544 64.1876C143.544 67.3056 146.079 69.8403 149.204 69.8403C152.322 69.8403 154.857 67.3056 154.857 64.1876C154.857 61.0626 152.322 58.5278 149.204 58.5278C146.079 58.5278 143.544 61.0626 143.544 64.1876Z" fill="#A92828" fill-opacity="0.2"/>
<mask id="mask1_1221_20925" style="mask-type:luminance" maskUnits="userSpaceOnUse" x="104" y="48" width="9" height="10">
<path d="M104.662 48.8889H112.107V57.7778H104.662V48.8889Z" fill="white"/>
</mask>
<g mask="url(#mask1_1221_20925)">
<path d="M107.905 49.8403C106.19 49.8403 104.794 51.2362 104.794 52.9584C104.794 54.6806 106.19 56.0695 107.905 56.0695C109.627 56.0695 111.023 54.6806 111.023 52.9584C111.023 51.2362 109.627 49.8403 107.905 49.8403Z" fill="#A92828" fill-opacity="0.2"/>
</g>
<path d="M110.912 41.625C110.912 43.7917 112.669 45.5486 114.836 45.5486C117.002 45.5486 118.759 43.7917 118.759 41.625C118.759 39.4584 117.002 37.7014 114.836 37.7014C112.669 37.7014 110.912 39.4584 110.912 41.625Z" fill="#A92828" fill-opacity="0.2"/>
<path d="M120.655 5.49308C122.378 5.49308 123.773 4.09725 123.773 2.37503C123.773 0.652805 122.378 -0.736084 120.655 -0.736084C118.94 -0.736084 117.544 0.652805 117.544 2.37503C117.544 4.09725 118.94 5.49308 120.655 5.49308Z" fill="#A92828" fill-opacity="0.2"/>
<path d="M146.419 3.80566C143.294 3.80566 140.766 6.34039 140.766 9.45844C140.766 12.5834 143.294 15.1182 146.419 15.1182C149.544 15.1182 152.072 12.5834 152.072 9.45844C152.072 6.34039 149.544 3.80566 146.419 3.80566Z" fill="#A92828" fill-opacity="0.2"/>
<path d="M130.954 100.285C130.954 98.3056 129.35 96.7014 127.371 96.7014C125.398 96.7014 123.794 98.3056 123.794 100.285C123.794 102.257 125.398 103.861 127.371 103.861C129.35 103.861 130.954 102.257 130.954 100.285Z" fill="#A92828" fill-opacity="0.2"/>
<path d="M284.496 23.4722C282.683 23.4722 281.218 24.9444 281.218 26.7569C281.218 28.5694 282.683 30.0416 284.496 30.0416C286.315 30.0416 287.78 28.5694 287.78 26.7569C287.78 24.9444 286.315 23.4722 284.496 23.4722Z" fill="#A92828" fill-opacity="0.2"/>
<path d="M279.808 83.4166C279.808 85.7082 281.669 87.5693 283.968 87.5693C286.259 87.5693 288.121 85.7082 288.121 83.4166C288.121 81.1179 286.259 79.2568 283.968 79.2568C281.669 79.2568 279.808 81.1179 279.808 83.4166Z" fill="#A92828" fill-opacity="0.2"/>
<path d="M263.294 124.882C265.016 124.882 266.405 123.486 266.405 121.771C266.405 120.049 265.016 118.653 263.294 118.653C261.572 118.653 260.176 120.049 260.176 121.771C260.176 123.486 261.572 124.882 263.294 124.882Z" fill="#A92828" fill-opacity="0.2"/>
<path d="M292.232 81.132C292.232 82.8542 293.628 84.25 295.35 84.25C297.072 84.25 298.468 82.8542 298.468 81.132C298.468 79.4097 297.072 78.0139 295.35 78.0139C293.628 78.0139 292.232 79.4097 292.232 81.132Z" fill="#A92828" fill-opacity="0.2"/>
<path d="M196.864 27.9445C196.864 24.2639 193.878 21.2778 190.197 21.2778C186.51 21.2778 183.523 24.2639 183.523 27.9445C183.523 31.632 186.51 34.6181 190.197 34.6181C193.878 34.6181 196.864 31.632 196.864 27.9445Z" fill="#A92828" fill-opacity="0.2"/>
<path d="M253.176 52.2222C253.176 48.8959 250.482 46.2014 247.155 46.2014C243.836 46.2014 241.141 48.8959 241.141 52.2222C241.141 55.5486 243.836 58.2431 247.155 58.2431C250.482 58.2431 253.176 55.5486 253.176 52.2222Z" fill="#A92828" fill-opacity="0.2"/>
<path d="M235.752 110.306C235.752 113.021 237.961 115.229 240.676 115.229C243.398 115.229 245.607 113.021 245.607 110.306C245.607 107.583 243.398 105.375 240.676 105.375C237.961 105.375 235.752 107.583 235.752 110.306Z" fill="#A92828" fill-opacity="0.2"/>
<path d="M240.912 -5.875C237.572 -5.875 234.864 -3.16667 234.864 0.173612C234.864 3.51389 237.572 6.22222 240.912 6.22222C244.252 6.22222 246.968 3.51389 246.968 0.173612C246.968 -3.16667 244.252 -5.875 240.912 -5.875Z" fill="#A92828" fill-opacity="0.2"/>
</svg>
