<svg width="400" height="400" viewBox="0 0 400 400" fill="none" xmlns="http://www.w3.org/2000/svg">
<path d="M119.496 96.8542L113.503 163.944L108.378 140.896L119.496 96.8542ZM120.878 93.1736L130.072 125.451L114.558 163.882L120.878 93.1736ZM158.725 73.8333L130.746 123.972L121.266 90.7014L158.725 73.8333ZM145.947 65.6875L158.878 72.3819L123.211 88.4444L145.947 65.6875ZM140.357 62.7986L144.968 65.1806L124.391 85.7708L140.357 62.7986ZM161.773 48.3681L145.746 64.4028L141.218 62.0625L161.773 48.3681ZM159.732 71.6389L146.725 64.9097L164.871 46.75L159.732 71.6389ZM166.364 45.7569L197.558 57.9236L161.044 71.4861L166.364 45.7569ZM205.989 38.9931L198.878 57.3125L167.85 45.2153L205.989 38.9931ZM207.086 39.0694L246.746 60.2917L199.926 57.5139L207.086 39.0694ZM256.607 49.2639L248.933 60.2778L210.28 39.5903L256.607 49.2639ZM257.565 49.7292L280.641 73.3889L249.905 60.7222L257.565 49.7292ZM270.648 99.4028L250.419 62.0694L282.079 75.1111L270.648 99.4028ZM299.426 122.125L271.28 100.521L282.732 76.2014L299.426 122.125ZM265.697 160.521L271.058 101.681L299.759 123.701L265.697 160.521ZM294.919 168.437L266.03 161.701L299.836 125.167L294.919 168.437ZM263.912 208.25L265.537 162.667L294.454 169.403L263.912 208.25ZM262.836 208.937L214.294 187.944L264.475 162.993L262.836 208.937ZM198.78 221.257L213.121 188.812L261.357 209.674L198.78 221.257ZM209.711 228.264L199.266 222.236L256.871 211.569L209.711 228.264ZM168.273 220.854L197.614 222.493L206.787 227.792L168.273 220.854ZM153.759 186.528L196.197 221.368L160.183 219.347L153.759 186.528ZM115.891 169.035L152.523 185.687L158.857 218.042L115.891 169.035ZM127.648 187.812L118.148 173.208L150.482 210.083L127.648 187.812ZM151.843 183.993L114.433 166.993L130.551 127.069L151.843 183.993ZM180.947 140.701L131.607 125.021L159.968 74.1806L180.947 140.701ZM211.023 100.535L182.336 140.215L161.44 73.9722L211.023 100.535ZM210.884 98.7917L161.857 72.5278L198.669 58.8542L210.884 98.7917ZM212.44 98.8542L200.121 58.5764L247.676 61.3958L212.44 98.8542ZM213.794 99.5556L249.016 62.1181L269.509 99.9375L213.794 99.5556ZM228.072 138.764L263.766 161.937L213.815 186.778L228.072 138.764ZM213.211 101.028L268.829 101.403L228.037 136.66L213.211 101.028ZM226.641 137.139L183.614 140.958L211.933 101.778L226.641 137.139ZM183.371 142.458L226.808 138.597L212.614 186.389L183.371 142.458ZM211.85 188.569L197.489 221.069L154.655 185.903L211.85 188.569ZM153.079 183.708L131.718 126.597L180.919 142.236L153.079 183.708ZM182.072 143.153L211.454 187.292L154.232 184.625L182.072 143.153ZM264.6 160.979L228.753 137.708L269.968 102.076L264.6 160.979ZM113.211 167.472L113.725 167.361L113.28 167.646L113.461 167.924V167.931L113.468 167.937L126.801 188.431L127.239 188.146L126.878 188.521L159.378 220.229L159.746 219.847L159.648 220.368L209.565 229.354L209.662 228.84L209.836 229.333L263.503 210.333L263.329 209.84L263.739 210.167L295.787 169.403L295.378 169.076L295.898 169.139L301.058 123.694L300.537 123.639L301.03 123.458L283.287 74.6597L282.794 74.8403L283.169 74.4722L257.871 48.5486L257.496 48.9097L257.6 48.3958L206.919 37.8125L206.808 38.3333L206.725 37.8125L165.787 44.4861L165.871 45.0069L165.579 44.5694L139.898 61.6806L140.19 62.1181L139.759 61.8194L120.378 89.7222L120.35 89.7292L120.357 89.75L120.176 90.0069L120.607 90.3056L120.1 90.1806L107.329 140.757L107.836 140.889L107.329 141L113.211 167.472Z" fill="#A92828" fill-opacity="0.2"/>
<path d="M159.996 77.0902C162.558 77.2291 164.746 75.2569 164.878 72.7014C165.01 70.1389 163.044 67.9514 160.482 67.8194C157.919 67.6805 155.739 69.6527 155.6 72.2152C155.468 74.7708 157.433 76.9583 159.996 77.0902Z" fill="#A92828" fill-opacity="0.2"/>
<path d="M186.412 141.986C186.537 139.597 184.697 137.556 182.308 137.431C179.919 137.306 177.877 139.139 177.752 141.535C177.627 143.924 179.461 145.965 181.857 146.09C184.246 146.215 186.287 144.382 186.412 141.986Z" fill="#A92828" fill-opacity="0.2"/>
<path d="M147.384 184.889C147.218 188.007 149.614 190.674 152.739 190.833C155.857 191 158.516 188.604 158.683 185.479C158.843 182.361 156.447 179.701 153.329 179.535C150.211 179.375 147.544 181.771 147.384 184.889Z" fill="#A92828" fill-opacity="0.2"/>
<path d="M203.419 58.2221C203.544 55.8679 201.739 53.8679 199.391 53.7429C197.037 53.6179 195.03 55.4235 194.912 57.7777C194.787 60.1249 196.593 62.1318 198.94 62.2568C201.294 62.3818 203.301 60.5763 203.419 58.2221Z" fill="#A92828" fill-opacity="0.2"/>
<path d="M135.822 125.951C135.968 123.146 133.815 120.743 130.996 120.597C128.19 120.451 125.787 122.611 125.641 125.424C125.496 128.236 127.655 130.632 130.468 130.778C133.28 130.931 135.676 128.764 135.822 125.951Z" fill="#A92828" fill-opacity="0.2"/>
<path d="M193.843 221.708C193.725 223.875 195.391 225.722 197.558 225.833C199.718 225.944 201.565 224.285 201.676 222.118C201.794 219.958 200.128 218.111 197.968 217.993C195.801 217.882 193.954 219.542 193.843 221.708Z" fill="#A92828" fill-opacity="0.2"/>
<path d="M260.489 161.757C260.357 164.278 262.294 166.424 264.808 166.556C267.329 166.688 269.482 164.757 269.614 162.236C269.746 159.715 267.808 157.569 265.287 157.438C262.766 157.306 260.621 159.236 260.489 161.757Z" fill="#A92828" fill-opacity="0.2"/>
<path d="M212.475 193.479C215.593 193.646 218.252 191.25 218.419 188.132C218.579 185.014 216.183 182.347 213.065 182.188C209.947 182.021 207.287 184.417 207.127 187.535C206.961 190.653 209.357 193.319 212.475 193.479Z" fill="#A92828" fill-opacity="0.2"/>
<path d="M253.315 61.0348C253.44 58.7431 251.676 56.7917 249.385 56.6667C247.093 56.5487 245.141 58.3126 245.016 60.6042C244.898 62.8959 246.662 64.8473 248.954 64.9723C251.246 65.0903 253.197 63.3265 253.315 61.0348Z" fill="#A92828" fill-opacity="0.2"/>
<path d="M275.496 100.951C275.641 98.236 273.551 95.9235 270.836 95.7777C268.121 95.6319 265.801 97.7221 265.655 100.437C265.516 103.153 267.6 105.472 270.315 105.618C273.037 105.757 275.35 103.674 275.496 100.951Z" fill="#A92828" fill-opacity="0.2"/>
<path d="M211.975 104.062C214.134 104.18 215.975 102.521 216.086 100.361C216.204 98.2013 214.544 96.361 212.384 96.2499C210.225 96.1388 208.384 97.7916 208.273 99.9513C208.162 102.111 209.822 103.951 211.975 104.062Z" fill="#A92828" fill-opacity="0.2"/>
<path d="M231.898 137.993C232.023 135.68 230.246 133.708 227.933 133.59C225.621 133.465 223.648 135.243 223.53 137.555C223.405 139.868 225.183 141.84 227.496 141.958C229.808 142.076 231.78 140.305 231.898 137.993Z" fill="#A92828" fill-opacity="0.2"/>
<path d="M121.037 90.9722L145.329 97.7014L115.572 128.118L121.037 90.9722ZM164.357 47.2639L145.898 96.7708L121.614 90.0417L164.357 47.2639ZM140.565 62.5L161.773 48.3681L124.391 85.7708L140.565 62.5ZM166.148 46.0625L190.336 71.5903L147.516 96.0278L166.148 46.0625ZM230.197 49.9583L191.357 71.1389L167.176 45.6181L230.197 49.9583ZM206.739 38.8681L229.107 48.8333L170.433 44.7917L206.739 38.8681ZM252.961 48.5L232.134 49.0278L211.503 39.8472L252.961 48.5ZM280.253 72.9861L234.155 50.0278L257.28 49.4444L280.253 72.9861ZM241.294 87.4514L232.905 50.5833L281.266 74.6667L241.294 87.4514ZM283.878 113.743L242.343 88.4375L282.301 75.6597L283.878 113.743ZM299.565 122.507L284.961 114.507L283.454 78.2014L299.565 122.507ZM284.509 168.278L284.968 115.708L299.891 123.889L284.509 168.278ZM294.898 168.646L284.759 170.771L299.482 128.285L294.898 168.646ZM266.655 204.757L284.253 172.028L284.294 172.007L284.28 171.986L284.308 171.937L294.072 169.889L266.655 204.757ZM263.107 209.139L241.836 198.347L282.468 173.139L263.107 209.139ZM211.711 227.556L240.753 198.972L261.996 209.757L211.711 227.556ZM209.607 228.16L178.732 206.09L239.197 199.035L209.607 228.16ZM160.968 219.535L177.336 206.382L207.454 227.91L160.968 219.535ZM129.308 189.424L176.253 205.91L159.78 219.153L129.308 189.424ZM149.093 153.437L176.086 204.736L128.128 187.903L149.093 153.437ZM148.44 150.951L115.711 129.472L145.759 98.7639L148.44 150.951ZM188.732 116.229L149.683 150.694L147.009 98.5278L188.732 116.229ZM189.384 114.91L147.857 97.2847L190.489 72.9583L189.384 114.91ZM197.322 164.674L150.544 151.896L189.579 117.437L197.322 164.674ZM192.69 71.6111L231.579 50.4028L239.975 87.3056L192.69 71.6111ZM239.128 88.3542L190.857 114.75L191.961 72.6944L239.128 88.3542ZM246.253 139.049L191.773 115.924L240.239 89.4236L246.253 139.049ZM247.725 138.937L241.732 89.5417L283.19 114.799L247.725 138.937ZM248.35 140.285L283.912 116.076L283.447 170.069L248.35 140.285ZM247.718 141.674L282.801 171.451L241.537 197.049L247.718 141.674ZM199.475 165.743L246.253 141.507L240.058 197.076L199.475 165.743ZM191.03 117.208L245.412 140.285L198.78 164.451L191.03 117.208ZM177.315 204.368L150.364 153.153L197.301 165.972L177.315 204.368ZM198.426 166.528L239.169 197.979L178.371 205.076L198.426 166.528ZM115.628 130.924L148.28 152.354L127.447 186.597L115.628 130.924ZM108.426 140.931L114.572 131.028L125.523 182.576L108.426 140.931ZM118.579 100.486L114.315 129.458L109.176 137.736L118.579 100.486ZM107.329 140.757L107.836 140.889L107.357 141.083L126.759 188.347L127.239 188.146L126.878 188.521L159.378 220.229L159.746 219.847L159.648 220.368L209.565 229.354L209.662 228.84L209.836 229.333L263.503 210.333L263.329 209.84L263.739 210.167L295.787 169.403L295.378 169.076L295.898 169.139L301.058 123.694L300.537 123.639L301.03 123.458L283.287 74.6597L282.794 74.8403L283.169 74.4722L257.871 48.5486L257.496 48.9097L257.6 48.3958L206.919 37.8125L206.808 38.3333L206.725 37.8125L165.787 44.4861L165.871 45.0069L165.579 44.5694L139.898 61.6806L140.19 62.1181L139.759 61.8194L120.176 90.0069L120.607 90.3056L120.1 90.1806L107.329 140.757Z" fill="#A92828" fill-opacity="0.2"/>
<path d="M191.864 165.479C191.864 169.035 194.753 171.924 198.308 171.924C201.871 171.924 204.759 169.035 204.759 165.479C204.759 161.917 201.871 159.028 198.308 159.028C194.753 159.028 191.864 161.917 191.864 165.479Z" fill="#A92828" fill-opacity="0.2"/>
<path d="M159.697 217.562C158.419 217.562 157.384 218.59 157.384 219.868C157.384 221.146 158.419 222.174 159.697 222.174C160.968 222.174 162.002 221.146 162.002 219.868C162.002 218.59 160.968 217.562 159.697 217.562Z" fill="#A92828" fill-opacity="0.2"/>
<path d="M180.426 205.757C180.426 204.069 179.058 202.701 177.377 202.701C175.69 202.701 174.329 204.069 174.329 205.757C174.329 207.438 175.69 208.806 177.377 208.806C179.058 208.806 180.426 207.438 180.426 205.757Z" fill="#A92828" fill-opacity="0.2"/>
<mask id="mask0_1293_88" style="mask-type:luminance" maskUnits="userSpaceOnUse" x="204" y="224" width="12" height="9">
<path d="M204.551 224H215.218V232.278H204.551V224Z" fill="white"/>
</mask>
<g mask="url(#mask0_1293_88)">
<path d="M205.829 228.917C205.829 231.083 207.579 232.84 209.746 232.84C211.912 232.84 213.669 231.083 213.669 228.917C213.669 226.75 211.912 224.993 209.746 224.993C207.579 224.993 205.829 226.75 205.829 228.917Z" fill="#A92828" fill-opacity="0.2"/>
</g>
<mask id="mask1_1293_88" style="mask-type:luminance" maskUnits="userSpaceOnUse" x="200" y="33" width="12" height="12">
<path d="M200.996 33.7153H211.662V44.4445H200.996V33.7153Z" fill="white"/>
</mask>
<g mask="url(#mask1_1293_88)">
<path d="M206.822 33.7153C204.273 33.7153 202.204 35.7848 202.204 38.3334C202.204 40.882 204.273 42.9514 206.822 42.9514C209.371 42.9514 211.44 40.882 211.44 38.3334C211.44 35.7848 209.371 33.7153 206.822 33.7153Z" fill="#A92828" fill-opacity="0.2"/>
</g>
<path d="M140.176 58.9792C138.454 58.9792 137.058 60.3751 137.058 62.0973C137.058 63.8195 138.454 65.2154 140.176 65.2154C141.898 65.2154 143.294 63.8195 143.294 62.0973C143.294 60.3751 141.898 58.9792 140.176 58.9792Z" fill="#A92828" fill-opacity="0.2"/>
<path d="M165.94 49.0626C168.169 49.0626 169.975 47.2501 169.975 45.0209C169.975 42.7848 168.169 40.9792 165.94 40.9792C163.711 40.9792 161.898 42.7848 161.898 45.0209C161.898 47.2501 163.711 49.0626 165.94 49.0626Z" fill="#A92828" fill-opacity="0.2"/>
<path d="M143.544 152.188C143.544 155.306 146.079 157.84 149.204 157.84C152.322 157.84 154.857 155.306 154.857 152.188C154.857 149.063 152.322 146.528 149.204 146.528C146.079 146.528 143.544 149.063 143.544 152.188Z" fill="#A92828" fill-opacity="0.2"/>
<mask id="mask2_1293_88" style="mask-type:luminance" maskUnits="userSpaceOnUse" x="104" y="136" width="9" height="10">
<path d="M104.662 136.889H112.107V145.778H104.662V136.889Z" fill="white"/>
</mask>
<g mask="url(#mask2_1293_88)">
<path d="M107.905 137.84C106.19 137.84 104.794 139.236 104.794 140.958C104.794 142.681 106.19 144.069 107.905 144.069C109.628 144.069 111.023 142.681 111.023 140.958C111.023 139.236 109.628 137.84 107.905 137.84Z" fill="#A92828" fill-opacity="0.2"/>
</g>
<path d="M110.912 129.625C110.912 131.792 112.669 133.549 114.836 133.549C117.003 133.549 118.759 131.792 118.759 129.625C118.759 127.458 117.003 125.701 114.836 125.701C112.669 125.701 110.912 127.458 110.912 129.625Z" fill="#A92828" fill-opacity="0.2"/>
<path d="M120.655 93.4931C122.378 93.4931 123.773 92.0972 123.773 90.375C123.773 88.6528 122.378 87.2639 120.655 87.2639C118.94 87.2639 117.544 88.6528 117.544 90.375C117.544 92.0972 118.94 93.4931 120.655 93.4931Z" fill="#A92828" fill-opacity="0.2"/>
<path d="M146.419 91.8057C143.294 91.8057 140.766 94.3404 140.766 97.4584C140.766 100.583 143.294 103.118 146.419 103.118C149.544 103.118 152.072 100.583 152.072 97.4584C152.072 94.3404 149.544 91.8057 146.419 91.8057Z" fill="#A92828" fill-opacity="0.2"/>
<path d="M130.954 188.285C130.954 186.306 129.35 184.701 127.371 184.701C125.398 184.701 123.794 186.306 123.794 188.285C123.794 190.257 125.398 191.861 127.371 191.861C129.35 191.861 130.954 190.257 130.954 188.285Z" fill="#A92828" fill-opacity="0.2"/>
<path d="M284.496 111.472C282.683 111.472 281.218 112.944 281.218 114.757C281.218 116.569 282.683 118.042 284.496 118.042C286.315 118.042 287.78 116.569 287.78 114.757C287.78 112.944 286.315 111.472 284.496 111.472Z" fill="#A92828" fill-opacity="0.2"/>
<path d="M279.808 171.417C279.808 173.708 281.669 175.569 283.968 175.569C286.259 175.569 288.12 173.708 288.12 171.417C288.12 169.118 286.259 167.257 283.968 167.257C281.669 167.257 279.808 169.118 279.808 171.417Z" fill="#A92828" fill-opacity="0.2"/>
<path d="M282.676 71.0486C280.641 71.0486 278.982 72.7014 278.982 74.743C278.982 76.7847 280.641 78.4375 282.676 78.4375C284.718 78.4375 286.371 76.7847 286.371 74.743C286.371 72.7014 284.718 71.0486 282.676 71.0486Z" fill="#A92828" fill-opacity="0.2"/>
<path d="M263.294 212.882C265.016 212.882 266.405 211.486 266.405 209.771C266.405 208.049 265.016 206.653 263.294 206.653C261.572 206.653 260.176 208.049 260.176 209.771C260.176 211.486 261.572 212.882 263.294 212.882Z" fill="#A92828" fill-opacity="0.2"/>
<mask id="mask3_1293_88" style="mask-type:luminance" maskUnits="userSpaceOnUse" x="295" y="118" width="11" height="11">
<path d="M295.51 118.681H305.135V128.41H295.51V118.681Z" fill="white"/>
</mask>
<g mask="url(#mask3_1293_88)">
<path d="M305.135 123.639C305.135 121.09 303.065 119.028 300.516 119.028C297.968 119.028 295.898 121.09 295.898 123.639C295.898 126.194 297.968 128.257 300.516 128.257C303.065 128.257 305.135 126.194 305.135 123.639Z" fill="#A92828" fill-opacity="0.2"/>
</g>
<path d="M292.232 169.132C292.232 170.854 293.628 172.25 295.35 172.25C297.072 172.25 298.468 170.854 298.468 169.132C298.468 167.41 297.072 166.014 295.35 166.014C293.628 166.014 292.232 167.41 292.232 169.132Z" fill="#A92828" fill-opacity="0.2"/>
<path d="M257.357 45.6736C255.634 45.6736 254.239 47.0694 254.239 48.7847C254.239 50.5069 255.634 51.9028 257.357 51.9028C259.079 51.9028 260.468 50.5069 260.468 48.7847C260.468 47.0694 259.079 45.6736 257.357 45.6736Z" fill="#A92828" fill-opacity="0.2"/>
<path d="M196.864 115.944C196.864 112.264 193.877 109.278 190.197 109.278C186.509 109.278 183.523 112.264 183.523 115.944C183.523 119.632 186.509 122.618 190.197 122.618C193.877 122.618 196.864 119.632 196.864 115.944Z" fill="#A92828" fill-opacity="0.2"/>
<path d="M253.176 140.222C253.176 136.896 250.482 134.201 247.155 134.201C243.836 134.201 241.141 136.896 241.141 140.222C241.141 143.549 243.836 146.243 247.155 146.243C250.482 146.243 253.176 143.549 253.176 140.222Z" fill="#A92828" fill-opacity="0.2"/>
<path d="M191.225 63.9583C186.898 63.9583 183.385 67.4721 183.385 71.8055C183.385 76.1388 186.898 79.6458 191.225 79.6458C195.558 79.6458 199.072 76.1388 199.072 71.8055C199.072 67.4721 195.558 63.9583 191.225 63.9583Z" fill="#A92828" fill-opacity="0.2"/>
<path d="M232.03 46.625C230.371 46.625 229.03 47.9722 229.03 49.625C229.03 51.2847 230.371 52.625 232.03 52.625C233.69 52.625 235.03 51.2847 235.03 49.625C235.03 47.9722 233.69 46.625 232.03 46.625Z" fill="#A92828" fill-opacity="0.2"/>
<path d="M235.752 198.306C235.752 201.021 237.961 203.229 240.676 203.229C243.398 203.229 245.607 201.021 245.607 198.306C245.607 195.583 243.398 193.375 240.676 193.375C237.961 193.375 235.752 195.583 235.752 198.306Z" fill="#A92828" fill-opacity="0.2"/>
<path d="M240.912 82.125C237.572 82.125 234.864 84.8333 234.864 88.1736C234.864 91.5139 237.572 94.2222 240.912 94.2222C244.253 94.2222 246.968 91.5139 246.968 88.1736C246.968 84.8333 244.253 82.125 240.912 82.125Z" fill="#A92828" fill-opacity="0.2"/>
</svg>
