<svg width="15" height="15" viewBox="0 0 15 15" fill="none" xmlns="http://www.w3.org/2000/svg">
<path d="M8.52941 11.0294C8.52941 11.1464 8.48293 11.2586 8.4002 11.3414C8.31746 11.4241 8.20524 11.4706 8.08824 11.4706C7.81522 11.4706 7.55338 11.3621 7.36033 11.1691C7.16728 10.976 7.05883 10.7142 7.05883 10.4412V7.5C7.05883 7.461 7.04333 7.42359 7.01575 7.39601C6.98817 7.36843 6.95077 7.35294 6.91177 7.35294C6.79476 7.35294 6.68254 7.30646 6.59981 7.22372C6.51707 7.14099 6.47059 7.02877 6.47059 6.91176C6.47059 6.79476 6.51707 6.68254 6.59981 6.5998C6.68254 6.51707 6.79476 6.47059 6.91177 6.47059C7.18478 6.47059 7.44662 6.57904 7.63967 6.77209C7.83272 6.96515 7.94118 7.22698 7.94118 7.5V10.4412C7.94118 10.4802 7.95667 10.5176 7.98425 10.5452C8.01183 10.5727 8.04923 10.5882 8.08824 10.5882C8.20524 10.5882 8.31746 10.6347 8.4002 10.7175C8.48293 10.8002 8.52941 10.9124 8.52941 11.0294ZM7.20588 5C7.35131 5 7.49347 4.95687 7.61439 4.87608C7.73531 4.79528 7.82955 4.68045 7.88521 4.54609C7.94086 4.41173 7.95542 4.26389 7.92705 4.12126C7.89868 3.97862 7.82865 3.84761 7.72582 3.74477C7.62298 3.64194 7.49197 3.57191 7.34933 3.54354C7.2067 3.51517 7.05886 3.52973 6.9245 3.58538C6.79014 3.64103 6.6753 3.73528 6.59451 3.8562C6.51371 3.97712 6.47059 4.11928 6.47059 4.2647C6.47059 4.45972 6.54806 4.64674 6.68595 4.78464C6.82385 4.92253 7.01087 5 7.20588 5ZM15 7.5C15 8.98336 14.5601 10.4334 13.736 11.6668C12.9119 12.9001 11.7406 13.8614 10.3701 14.4291C8.99968 14.9967 7.49168 15.1453 6.03682 14.8559C4.58197 14.5665 3.2456 13.8522 2.1967 12.8033C1.14781 11.7544 0.433503 10.418 0.144114 8.96317C-0.145275 7.50832 0.0032495 6.00032 0.570907 4.62987C1.13856 3.25943 2.09986 2.08809 3.33323 1.26398C4.56659 0.439867 6.01664 0 7.5 0C9.48841 0.00233518 11.3947 0.793261 12.8007 2.19928C14.2067 3.60529 14.9977 5.51159 15 7.5ZM14.1176 7.5C14.1176 6.19115 13.7295 4.9117 13.0024 3.82343C12.2752 2.73517 11.2417 1.88696 10.0325 1.38609C8.82325 0.885217 7.49266 0.754166 6.20896 1.00951C4.92527 1.26485 3.74611 1.89512 2.82062 2.82062C1.89513 3.74611 1.26486 4.92526 1.00951 6.20896C0.754169 7.49266 0.88522 8.82325 1.38609 10.0325C1.88697 11.2417 2.73517 12.2752 3.82343 13.0024C4.9117 13.7295 6.19115 14.1176 7.5 14.1176C9.25451 14.1157 10.9366 13.4179 12.1772 12.1772C13.4179 10.9366 14.1157 9.25451 14.1176 7.5Z" fill="black" fill-opacity="0.5"/>
</svg>
