<svg width="8" height="6" viewBox="0 0 8 6" fill="none" xmlns="http://www.w3.org/2000/svg">
<path d="M7.42857 0H0.571429C0.419876 0 0.274531 0.0616878 0.167368 0.171493C0.0602039 0.281298 0 0.430225 0 0.585513V5.26962C0 5.42491 0.0602039 5.57383 0.167368 5.68364C0.274531 5.79344 0.419876 5.85513 0.571429 5.85513H7.42857C7.58012 5.85513 7.72547 5.79344 7.83263 5.68364C7.9398 5.57383 8 5.42491 8 5.26962V0.585513C8 0.430225 7.9398 0.281298 7.83263 0.171493C7.72547 0.0616878 7.58012 0 7.42857 0ZM6.8 0.585513L4 2.5704L1.2 0.585513H6.8ZM0.571429 5.26962V0.851921L3.83714 3.16763C3.88497 3.20162 3.94179 3.21984 4 3.21984C4.05821 3.21984 4.11503 3.20162 4.16286 3.16763L7.42857 0.851921V5.26962H0.571429Z" fill="#EC1A25"/>
</svg>
