<svg width="60" height="60" viewBox="0 0 60 60" fill="none" xmlns="http://www.w3.org/2000/svg">
<circle cx="30" cy="30" r="30" fill="#EC1A25" fill-opacity="0.15"/>
<path d="M17 43.5399C16.4477 43.54 16 43.0923 16 42.54C16 41.9877 16.4477 41.54 17 41.54H17.615C18.5069 41.54 19.23 40.8169 19.23 39.925V25.69C19.23 23.0767 20.0567 20.7787 21.71 18.796C23.0616 17.1789 24.7067 16.0592 26.6453 15.4368C27.4183 15.1887 28 14.5052 28 13.6933C28 12.7581 28.7581 12 29.6933 12H30.3068C31.2419 12 32 12.7581 32 13.6932C32 14.5051 32.5818 15.1886 33.3548 15.4368C35.2941 16.0593 36.9385 17.1797 38.288 18.798C39.9413 20.782 40.768 23.08 40.768 25.692V39.922C40.768 40.8145 41.4915 41.538 42.384 41.538H43C43.5523 41.538 44 41.9857 44 42.538C44 43.0903 43.5523 43.538 43 43.5381L17 43.5399ZM29.994 48.77C29.1033 48.77 28.3433 48.4533 27.714 47.82C26.7257 46.8275 27.9054 45.54 29.3061 45.54H30.685C32.0906 45.54 33.276 46.8342 32.28 47.826C31.6453 48.4553 30.8833 48.77 29.994 48.77ZM21.2311 32.7674C21.2305 37.6111 25.1569 41.538 30.0006 41.538C34.8438 41.538 38.77 37.6118 38.77 32.7685V25.692C38.77 23.2613 37.916 21.192 36.208 19.484C34.5013 17.7773 32.432 16.924 30 16.924C27.568 16.924 25.4987 17.7773 23.792 19.484C22.0853 21.192 21.232 23.2613 21.232 25.692L21.2311 32.7674ZM29 30.616C29 31.1683 29.4477 31.616 30 31.616C30.5523 31.616 31 31.1683 31 30.616V23C31 22.4477 30.5523 22 30 22C29.4477 22 29 22.4477 29 23V30.616ZM30 37.23C30.3493 37.23 30.6413 37.112 30.876 36.876C31.112 36.6413 31.23 36.3493 31.23 36C31.23 35.6507 31.112 35.3587 30.876 35.124C30.6413 34.888 30.3493 34.77 30 34.77C29.6507 34.77 29.3587 34.888 29.124 35.124C28.888 35.3587 28.77 35.6507 28.77 36C28.77 36.3493 28.888 36.6413 29.124 36.876C29.3587 37.112 29.6507 37.23 30 37.23Z" fill="#EC1A25"/>
</svg>
