<svg width="60" height="60" viewBox="0 0 60 60" fill="none" xmlns="http://www.w3.org/2000/svg">
<circle cx="30" cy="30" r="30" fill="#2DCBD5" fill-opacity="0.15"/>
<path d="M46.161 27.0678C45.1321 27.0678 44.1997 26.4619 43.7818 25.5217L40.5105 18.162C40.3566 17.8161 40.1058 17.5223 39.7884 17.3161C39.471 17.1098 39.1006 17 38.722 17H22.278C21.8994 17 21.529 17.1098 21.2116 17.3161C20.8942 17.5223 20.6434 17.8161 20.4895 18.162L17.2182 25.5217C16.8003 26.4619 15.8679 27.0678 14.839 27.0678C14.6165 27.0678 14.4031 27.1562 14.2457 27.3135C14.0884 27.4709 14 27.6843 14 27.9068C14 28.1293 14.0884 28.3427 14.2457 28.5C14.4031 28.6574 14.6165 28.7458 14.839 28.7458C15.6112 28.7458 16.2373 29.3718 16.2373 30.1441V40.2119C16.2373 40.7311 16.4435 41.229 16.8107 41.5961C17.1778 41.9632 17.6757 42.1695 18.1949 42.1695H21.5508C22.07 42.1695 22.568 41.9632 22.9351 41.5961C23.3022 41.229 23.5085 40.7311 23.5085 40.2119C23.5085 38.8218 24.6354 37.6949 26.0254 37.6949H34.9746C36.3647 37.6949 37.4915 38.8218 37.4915 40.2119C37.4915 40.7311 37.6978 41.229 38.0649 41.5961C38.432 41.9632 38.93 42.1695 39.4492 42.1695H42.8051C43.3243 42.1695 43.8222 41.9632 44.1893 41.5961C44.5565 41.229 44.7627 40.7311 44.7627 40.2119V30.1441C44.7627 29.3718 45.3888 28.7458 46.161 28.7458C46.3835 28.7458 46.5969 28.6574 46.7543 28.5C46.9116 28.3427 47 28.1293 47 27.9068C47 27.6843 46.9116 27.4709 46.7543 27.3135C46.5969 27.1562 46.3835 27.0678 46.161 27.0678ZM22.0221 18.8444C22.044 18.7948 22.0799 18.7527 22.1253 18.7232C22.1707 18.6936 22.2238 18.6779 22.278 18.678H38.722C38.7762 18.6779 38.8293 18.6936 38.8747 18.7232C38.9201 18.7527 38.956 18.7948 38.9779 18.8444C40.6969 22.7117 37.866 27.0678 33.6339 27.0678H27.3661C23.134 27.0678 20.3031 22.7117 22.0221 18.8444ZM21.8305 40.2119C21.8305 40.286 21.801 40.3572 21.7486 40.4096C21.6962 40.4621 21.625 40.4915 21.5508 40.4915H18.1949C18.1207 40.4915 18.0496 40.4621 17.9972 40.4096C17.9447 40.3572 17.9153 40.286 17.9153 40.2119V39.6525C17.9153 38.5714 18.7917 37.6949 19.8729 37.6949C20.954 37.6949 21.8305 38.5714 21.8305 39.6525V40.2119ZM42.8051 40.4915H39.4492C39.375 40.4915 39.3039 40.4621 39.2514 40.4096C39.199 40.3572 39.1695 40.286 39.1695 40.2119V39.6525C39.1695 38.5714 40.046 37.6949 41.1271 37.6949C42.2083 37.6949 43.0847 38.5714 43.0847 39.6525V40.2119C43.0847 40.286 43.0553 40.3572 43.0028 40.4096C42.9504 40.4621 42.8793 40.4915 42.8051 40.4915ZM43.0847 32.3814C43.0847 34.3892 41.457 36.017 39.4492 36.017H21.5508C19.543 36.017 17.9153 34.3892 17.9153 32.3814C17.9153 30.3735 19.543 28.7458 21.5508 28.7458H39.4492C41.457 28.7458 43.0847 30.3735 43.0847 32.3814ZM20.7119 32.3814C20.7119 32.1588 20.8003 31.9454 20.9576 31.7881C21.1149 31.6308 21.3283 31.5424 21.5508 31.5424H23.7881C24.0106 31.5424 24.224 31.6308 24.3814 31.7881C24.5387 31.9454 24.6271 32.1588 24.6271 32.3814C24.6271 32.6039 24.5387 32.8173 24.3814 32.9746C24.224 33.1319 24.0106 33.2203 23.7881 33.2203H21.5508C21.3283 33.2203 21.1149 33.1319 20.9576 32.9746C20.8003 32.8173 20.7119 32.6039 20.7119 32.3814ZM36.3729 32.3814C36.3729 32.1588 36.4613 31.9454 36.6186 31.7881C36.776 31.6308 36.9894 31.5424 37.2119 31.5424H39.4492C39.6717 31.5424 39.8851 31.6308 40.0424 31.7881C40.1997 31.9454 40.2881 32.1588 40.2881 32.3814C40.2881 32.6039 40.1997 32.8173 40.0424 32.9746C39.8851 33.1319 39.6717 33.2203 39.4492 33.2203H37.2119C36.9894 33.2203 36.776 33.1319 36.6186 32.9746C36.4613 32.8173 36.3729 32.6039 36.3729 32.3814Z" fill="#2DCBD5"/>
</svg>
