<svg width="60" height="63" viewBox="0 0 60 63" fill="none" xmlns="http://www.w3.org/2000/svg">
<ellipse cx="30" cy="31.1043" rx="30" ry="31.1043" fill="#FE8C3A" fill-opacity="0.15"/>
<path d="M18.8237 45.3332V27.9832L13.1163 32.3983L12 30.8806L30.4824 16.589L38.5149 22.7652V18.5053H41.9989V25.4767L49 30.8806L47.8837 32.3983L42.1763 27.9832V45.3332H32.7558V35.311H28.2054V45.3332H18.8237ZM20.672 43.4169H26.3609V33.3947H34.6077V43.4169H40.3299V26.5728L30.4824 18.9958L20.672 26.5728V43.4169ZM27.1408 28.0982H33.8241C33.8241 27.1988 33.4895 26.4585 32.8205 25.8772C32.1526 25.2959 31.3733 25.0053 30.4824 25.0053C29.5916 25.0053 28.8122 25.2946 28.1444 25.8734C27.4753 26.4521 27.1408 27.1949 27.1408 28.0982ZM26.3609 43.4169V33.3947H34.6077H26.359L26.3609 43.4169Z" fill="#FE8C3A"/>
</svg>
