<svg width="8" height="8" viewBox="0 0 8 8" fill="none" xmlns="http://www.w3.org/2000/svg">
<path d="M7.61486 5.37836L5.73044 4.53395L5.72524 4.53155C5.62742 4.48971 5.5207 4.47292 5.41475 4.4827C5.3088 4.49247 5.20696 4.52851 5.11844 4.58755C5.10802 4.59443 5.098 4.60191 5.08844 4.60995L4.11483 5.43996C3.49803 5.14035 2.86122 4.50835 2.56162 3.89955L3.39283 2.91114C3.40083 2.90114 3.40843 2.89114 3.41563 2.88034C3.4734 2.79206 3.50845 2.69087 3.51766 2.58577C3.52687 2.48067 3.50996 2.37492 3.46843 2.27793V2.27313L2.62162 0.385522C2.56672 0.258827 2.47231 0.153286 2.35249 0.084655C2.23268 0.0160239 2.09388 -0.0120167 1.95682 0.00471909C1.4148 0.0760423 0.917282 0.342229 0.557181 0.753562C0.19708 1.1649 -0.000976379 1.69325 3.61948e-06 2.23993C3.61948e-06 5.41596 2.58402 7.99997 5.76004 7.99997C6.30673 8.00095 6.83508 7.8029 7.24642 7.4428C7.65775 7.0827 7.92394 6.58518 7.99526 6.04316C8.01203 5.90615 7.98404 5.76738 7.91549 5.64757C7.84693 5.52776 7.74148 5.43333 7.61486 5.37836ZM5.76004 7.35997C4.40258 7.35849 3.10114 6.81858 2.14127 5.85871C1.1814 4.89884 0.64149 3.5974 0.640008 2.23993C0.638503 1.84933 0.779229 1.47153 1.03591 1.17709C1.29258 0.882652 1.64766 0.69171 2.03482 0.639923C2.03466 0.64152 2.03466 0.643127 2.03482 0.644723L2.87482 2.52474L2.04802 3.51434C2.03963 3.524 2.032 3.5343 2.02522 3.54514C1.96502 3.63751 1.92971 3.74386 1.9227 3.85389C1.91569 3.96392 1.93723 4.07389 1.98522 4.17315C2.34762 4.91435 3.09443 5.65556 3.84363 6.01756C3.94362 6.0651 4.05423 6.08589 4.16465 6.0779C4.27507 6.0699 4.38154 6.0334 4.47364 5.97196C4.48391 5.96504 4.49379 5.95756 4.50324 5.94956L5.47564 5.11995L7.35566 5.96196H7.36006C7.3089 6.34967 7.11824 6.70546 6.82375 6.96277C6.52926 7.22008 6.15111 7.36129 5.76004 7.35997Z" fill="#EC1A25"/>
</svg>
