<svg width="40" height="40" viewBox="0 0 40 40" fill="none" xmlns="http://www.w3.org/2000/svg">
<circle cx="20" cy="20" r="19.5" stroke="black"/>
<path d="M20.6641 17.9035C19.486 17.9035 18.4769 17.4835 17.6369 16.6435C16.7969 15.8035 16.3774 14.795 16.3783 13.6178C16.3793 12.4407 16.7988 11.4312 17.6369 10.5893C18.475 9.74735 19.4841 9.32877 20.6641 9.33354C21.8441 9.3383 22.8531 9.75735 23.6912 10.5907C24.5293 11.424 24.9488 12.4335 24.9498 13.6192C24.9507 14.805 24.5312 15.8135 23.6912 16.645C22.8512 17.4764 21.8422 17.895 20.6641 17.9035ZM10.6641 28.2335V25.8821C10.6641 25.2926 10.8355 24.7412 11.1783 24.2278C11.5222 23.7135 11.9841 23.3145 12.5641 23.0307C13.9126 22.384 15.2622 21.8993 16.6126 21.5764C17.9622 21.2526 19.3126 21.0907 20.6641 21.0907C22.0155 21.0907 23.3664 21.2526 24.7169 21.5764C26.0674 21.9002 27.416 22.385 28.7626 23.0307C29.3436 23.3145 29.8055 23.7135 30.1483 24.2278C30.4922 24.7412 30.6641 25.2926 30.6641 25.8821V28.2335H10.6641ZM12.0926 26.805H29.2355V25.8821C29.2355 25.5659 29.1331 25.2683 28.9283 24.9893C28.7245 24.7112 28.4422 24.4759 28.0812 24.2835C26.906 23.714 25.6936 23.2778 24.4441 22.975C23.1945 22.6721 21.9345 22.5202 20.6641 22.5193C19.3936 22.5183 18.1336 22.6697 16.8841 22.9735C15.6345 23.2773 14.4222 23.7135 13.2469 24.2821C12.885 24.4745 12.6026 24.7097 12.3998 24.9878C12.195 25.2669 12.0926 25.565 12.0926 25.8821V26.805ZM20.6641 16.4764C21.4498 16.4764 22.1226 16.1964 22.6826 15.6364C23.2426 15.0764 23.5222 14.4031 23.5212 13.6164C23.5203 12.8297 23.2407 12.1573 22.6826 11.5993C22.1245 11.0412 21.4517 10.7612 20.6641 10.7593C19.8764 10.7573 19.2041 11.0373 18.6469 11.5993C18.0898 12.1612 17.8098 12.8335 17.8069 13.6164C17.8041 14.3993 18.0841 15.0721 18.6469 15.635C19.2098 16.1978 19.8822 16.4773 20.6641 16.4735" fill="black" fill-opacity="0.5"/>
</svg>
