<svg width="40" height="36" viewBox="0 0 40 36" fill="none" xmlns="http://www.w3.org/2000/svg">
<path d="M28.764 8.75427L40 14.382V29.6629L28.764 35.2907L17.5086 29.702V23.4294L11.2555 26.5364L0 20.9477L0.0195408 5.62775L11.2555 0L22.4915 5.62775L22.511 11.9003L28.764 8.75427ZM35.9551 15.1441L28.764 11.5681L21.573 15.1441L28.764 18.7396L35.9551 15.1441ZM18.4465 6.38984L11.2555 2.81387L4.06448 6.38984L11.2555 9.98534L18.4465 6.38984ZM2.52076 8.42208L2.50122 19.3845L10.0049 23.1168V12.1544L2.52076 8.42208ZM12.5061 23.1168L17.5281 20.6351V14.382L20.0098 13.151L19.9902 8.42208L12.5061 12.1544V23.1168ZM20.0293 17.1764L20.0098 28.1387L27.5134 31.871V20.9086L20.0293 17.1764ZM30.0147 31.871L37.4988 28.1192V17.1764L30.0147 20.9086V31.871Z" fill="#FF9518"/>
</svg>
