<svg width="30" height="22" viewBox="0 0 30 22" fill="none" xmlns="http://www.w3.org/2000/svg">
<path d="M8.19247 19.3004L21.3781 0.464093C21.4535 0.349079 21.5512 0.250375 21.6655 0.173831C21.7797 0.0972879 21.9082 0.0444635 22.0433 0.0184896C22.1783 -0.00748434 22.3172 -0.0060793 22.4517 0.0226219C22.5862 0.0513231 22.7136 0.106736 22.8263 0.185576C22.9389 0.264415 23.0347 0.365077 23.1077 0.481593C23.1808 0.598109 23.2297 0.728108 23.2516 0.863884C23.2735 0.999659 23.2679 1.13845 23.2351 1.27202C23.2024 1.40559 23.1432 1.53123 23.061 1.64149L9.26713 21.347C9.18824 21.4601 9.08741 21.5561 8.97062 21.6294C8.85384 21.7027 8.7235 21.7517 8.58737 21.7736C8.45123 21.7954 8.31209 21.7897 8.17824 21.7566C8.04438 21.7236 7.91854 21.6639 7.80822 21.5812L0.410963 16.0333C0.303027 15.9523 0.212093 15.8509 0.143352 15.7348C0.0746116 15.6187 0.0294106 15.4902 0.0103301 15.3566C-0.0282048 15.0869 0.0419941 14.8129 0.205484 14.5949C0.368973 14.3769 0.612361 14.2328 0.882105 14.1943C1.15185 14.1557 1.42585 14.2259 1.64384 14.3894L8.19247 19.3004ZM22.8082 9.48464C22.5357 9.48464 22.2744 9.3764 22.0817 9.18372C21.8891 8.99105 21.7808 8.72973 21.7808 8.45724C21.7808 8.18476 21.8891 7.92344 22.0817 7.73076C22.2744 7.53809 22.5357 7.42985 22.8082 7.42985H28.9726C29.2451 7.42985 29.5064 7.53809 29.6991 7.73076C29.8918 7.92344 30 8.18476 30 8.45724C30 8.72973 29.8918 8.99105 29.6991 9.18372C29.5064 9.3764 29.2451 9.48464 28.9726 9.48464H22.8082ZM18.6986 15.649C18.4261 15.649 18.1648 15.5408 17.9722 15.3481C17.7795 15.1554 17.6712 14.8941 17.6712 14.6216C17.6712 14.3491 17.7795 14.0878 17.9722 13.8951C18.1648 13.7025 18.4261 13.5942 18.6986 13.5942H28.9705C29.243 13.5942 29.5044 13.7025 29.697 13.8951C29.8897 14.0878 29.9979 14.3491 29.9979 14.6216C29.9979 14.8941 29.8897 15.1554 29.697 15.3481C29.5044 15.5408 29.243 15.649 28.9705 15.649H18.6986ZM14.589 21.8134C14.3166 21.8134 14.0552 21.7052 13.8626 21.5125C13.6699 21.3198 13.5616 21.0585 13.5616 20.786C13.5616 20.5135 13.6699 20.2522 13.8626 20.0595C14.0552 19.8669 14.3166 19.7586 14.589 19.7586H28.9705C29.243 19.7586 29.5044 19.8669 29.697 20.0595C29.8897 20.2522 29.9979 20.5135 29.9979 20.786C29.9979 21.0585 29.8897 21.3198 29.697 21.5125C29.5044 21.7052 29.243 21.8134 28.9705 21.8134H14.589Z" fill="#A24AD8"/>
</svg>
