<svg width="220" height="152" viewBox="0 0 220 152" fill="none" xmlns="http://www.w3.org/2000/svg">
<path d="M220 144.076H0V144.186H220V144.076Z" fill="#EBEBEB"/>
<path d="M180.256 151.213H172.969V151.323H180.256V151.213Z" fill="#EBEBEB"/>
<path d="M161.478 149.615H144.844V149.725H161.478V149.615Z" fill="#EBEBEB"/>
<path d="M146.997 147.073H116.602V147.183H146.997V147.073Z" fill="#EBEBEB"/>
<path d="M28.6709 147.812H23.0859V147.922H28.6709V147.812Z" fill="#EBEBEB"/>
<path d="M48.7846 147.812H32.5781V147.922H48.7846V147.812Z" fill="#EBEBEB"/>
<path d="M93.2162 149.67H67.0234V149.78H93.2162V149.67Z" fill="#EBEBEB"/>
<path d="M104.288 124.453H19.324C17.9393 124.453 16.8125 123.326 16.8125 121.942V2.51152C16.8125 1.12684 17.9393 0 19.324 0H104.288C105.672 0 106.799 1.12684 106.799 2.51152V121.942C106.799 123.326 105.672 124.453 104.288 124.453ZM19.324 0.11044C17.9996 0.11044 16.9225 1.18756 16.9225 2.51196V121.942C16.9225 123.266 17.9996 124.344 19.324 124.344H104.288C105.612 124.344 106.689 123.266 106.689 121.942V2.51152C106.689 1.18756 105.612 0.11 104.288 0.11L19.324 0.11044Z" fill="#EBEBEB"/>
<path d="M199.459 124.453H114.495C113.111 124.453 111.984 123.326 111.984 121.942V2.51152C111.984 1.12684 113.111 0 114.495 0H199.459C200.844 0 201.97 1.12684 201.97 2.51152V121.942C201.971 123.326 200.844 124.453 199.459 124.453ZM114.495 0.11044C113.171 0.11044 112.094 1.18756 112.094 2.51196V121.942C112.094 123.266 113.171 124.344 114.495 124.344H199.459C200.783 124.344 201.86 123.266 201.86 121.942V2.51152C201.86 1.18756 200.783 0.11 199.459 0.11L114.495 0.11044Z" fill="#EBEBEB"/>
<path d="M51.1663 82.9876C51.1663 82.9876 50.864 90.0914 39.2863 90.0914C27.7081 90.0914 27.4062 82.9876 27.4062 82.9876H51.1663Z" fill="#F0F0F0"/>
<path d="M51.1663 77.5682C51.1663 77.5682 50.864 84.672 39.2863 84.672C27.7081 84.672 27.4062 77.5682 27.4062 77.5682H51.1663Z" fill="#F0F0F0"/>
<path d="M32.4642 91.9732H23.3359V140.18H32.4642V91.9732Z" fill="#F0F0F0"/>
<path d="M104.005 140.18H26.6641V144.077H104.005V140.18Z" fill="#F0F0F0"/>
<path d="M32.4603 140.18H107.336V91.9736H32.4603V140.18Z" fill="#F5F5F5"/>
<path d="M39.2904 113.112L100.523 113.112V97.0794H39.2904V113.112Z" fill="#F0F0F0"/>
<path d="M39.2904 132.823H100.523V116.79H39.2904V132.823Z" fill="#F0F0F0"/>
<path d="M77.0857 99.2899H62.7189C61.9581 99.2899 61.3359 98.6677 61.3359 97.907C61.3359 97.1462 61.9581 96.524 62.7189 96.524H77.0857C77.8465 96.524 78.4687 97.1462 78.4687 97.907C78.4687 98.6677 77.8461 99.2899 77.0857 99.2899Z" fill="#F5F5F5"/>
<path d="M77.0857 119.001H62.7189C61.9581 119.001 61.3359 118.379 61.3359 117.618C61.3359 116.857 61.9581 116.235 62.7189 116.235H77.0857C77.8465 116.235 78.4687 116.857 78.4687 117.618C78.4687 118.378 77.8461 119.001 77.0857 119.001Z" fill="#F5F5F5"/>
<path d="M109.656 90.0917H32.4688V91.9736H109.656V90.0917Z" fill="#F0F0F0"/>
<path d="M20.9157 91.9733H32.4688V90.0914H20.9157V91.9733Z" fill="#E6E6E6"/>
<path d="M190.882 16.9149H124.375V76.9402H190.882V16.9149Z" fill="#E6E6E6"/>
<path d="M194.315 16.9149H125.523V76.9402H194.315V16.9149Z" fill="#F5F5F5"/>
<path d="M190.358 20.8674H129.469V72.9898H190.358V20.8674Z" fill="white"/>
<path d="M187.052 95.5498H182V144.076H187.052V95.5498Z" fill="#E6E6E6"/>
<path d="M188.405 95.5498H185.43V144.076H188.405V95.5498Z" fill="#F0F0F0"/>
<path d="M165.56 95.5498H160.508V144.076H165.56V95.5498Z" fill="#E6E6E6"/>
<path d="M166.499 95.5498H163.523V144.076H166.499V95.5498Z" fill="#F0F0F0"/>
<path d="M144.9 104.943H189.328V95.55H144.9V104.943Z" fill="#F0F0F0"/>
<path d="M122.966 95.5498H117.914V144.076H122.966V95.5498Z" fill="#E6E6E6"/>
<path d="M123.913 95.5498H120.938V144.076H123.913V95.5498Z" fill="#F0F0F0"/>
<path d="M117.018 104.943H142.742V95.55H117.018V104.943Z" fill="#E6E6E6"/>
<path d="M144.474 95.5498H139.422V144.076H144.474V95.5498Z" fill="#E6E6E6"/>
<path d="M145.819 95.5498H142.844V144.076H145.819V95.5498Z" fill="#F0F0F0"/>
<path d="M37.6066 104.531L32.1932 10.3421C32.085 8.46065 33.5225 6.93561 35.4039 6.93561H142.822C144.704 6.93561 146.316 8.46065 146.425 10.3421L151.838 104.531C151.947 106.412 150.509 107.937 148.628 107.937H41.2088C39.3274 107.937 37.7148 106.412 37.6066 104.531Z" fill="#263238"/>
<path d="M148.626 108.145H41.2072C39.2202 108.145 37.5108 106.529 37.3964 104.542L31.9826 10.3537C31.9272 9.38483 32.2532 8.47359 32.9009 7.78763C33.5473 7.10299 34.4356 6.72635 35.4023 6.72635H142.821C144.808 6.72635 146.517 8.34291 146.632 10.3295L152.045 104.518C152.101 105.487 151.775 106.398 151.128 107.084C150.481 107.769 149.593 108.145 148.626 108.145ZM37.8135 104.518C37.9151 106.288 39.4376 107.728 41.2072 107.728H148.626C149.477 107.728 150.257 107.397 150.824 106.798C151.392 106.196 151.677 105.395 151.628 104.542L146.215 10.3537C146.113 8.58403 144.591 7.14391 142.821 7.14391H35.4023C34.5513 7.14391 33.7712 7.47435 33.2045 8.07407C32.6369 8.67555 32.3509 9.47679 32.3998 10.3295L37.8135 104.518Z" fill="#263238"/>
<path d="M38.9191 104.531L33.5057 10.3423C33.3975 8.46086 34.835 6.93582 36.7164 6.93582H144.135C146.016 6.93582 147.629 8.46086 147.737 10.3423L153.151 104.531C153.259 106.412 151.822 107.937 149.94 107.937H42.5213C40.6403 107.937 39.0273 106.412 38.9191 104.531Z" fill="white"/>
<path d="M149.939 108.145H42.5198C40.5328 108.145 38.8234 106.529 38.709 104.542L33.2952 10.3537C33.2393 9.38483 33.5658 8.47359 34.2131 7.78763C34.8594 7.10299 35.7473 6.72635 36.7144 6.72635H144.133C146.12 6.72635 147.83 8.34291 147.944 10.3295L153.358 104.518C153.413 105.487 153.087 106.398 152.44 107.084C151.794 107.769 150.905 108.145 149.939 108.145ZM36.7149 7.14391C35.8644 7.14391 35.0838 7.47435 34.5175 8.07407C33.9495 8.67555 33.6639 9.47679 33.7128 10.3295L39.1261 104.518C39.2277 106.288 40.7501 107.728 42.5198 107.728H149.938C150.789 107.728 151.57 107.397 152.136 106.798C152.704 106.196 152.99 105.395 152.941 104.542L147.527 10.3537C147.425 8.58403 145.903 7.14391 144.133 7.14391H36.7149Z" fill="#263238"/>
<path d="M75.0349 20.5369H45.0154C43.904 20.5369 42.9421 19.6274 42.8783 18.5156C42.8145 17.4041 43.6717 16.4946 44.7831 16.4946H74.8025C75.914 16.4946 76.8758 17.4041 76.9396 18.5156C77.0039 19.627 76.1463 20.5369 75.0349 20.5369Z" fill="#407BFF"/>
<path d="M69.52 27.5397H45.4217C44.3102 27.5397 43.3484 26.6302 43.2846 25.5183C43.2208 24.4069 44.0779 23.4974 45.1894 23.4974H69.2877C70.3992 23.4974 71.361 24.4069 71.4248 25.5183C71.489 26.6302 70.6319 27.5397 69.52 27.5397Z" fill="#407BFF"/>
<path d="M81.3046 36.5757H45.2184C44.4977 36.5757 43.8795 35.9913 43.8381 35.2702C43.7968 34.5495 44.3476 33.9647 45.0684 33.9647H81.1545C81.8752 33.9647 82.4934 34.549 82.5348 35.2702C82.5762 35.9913 82.0253 36.5757 81.3046 36.5757Z" fill="#E0E0E0"/>
<path d="M87.8123 40.7381H49.4293C48.7086 40.7381 48.0904 40.1538 48.0491 39.4326C48.0077 38.7119 48.5586 38.1271 49.2793 38.1271H87.6623C88.3834 38.1271 89.0012 38.7114 89.0425 39.4326C89.0839 40.1538 88.5335 40.7381 87.8123 40.7381Z" fill="#E0E0E0"/>
<path d="M81.0268 44.9009H49.6715C48.9508 44.9009 48.3326 44.3165 48.2912 43.5954C48.2499 42.8747 48.8008 42.2899 49.5215 42.2899H80.8768C81.5975 42.2899 82.2157 42.8742 82.257 43.5954C82.2984 44.3165 81.7475 44.9009 81.0268 44.9009Z" fill="#E0E0E0"/>
<path d="M77.7205 49.0635H49.9059C49.1852 49.0635 48.567 48.4791 48.5256 47.758C48.4843 47.0373 49.0351 46.4525 49.7559 46.4525H77.5705C78.2912 46.4525 78.9094 47.0368 78.9507 47.758C78.9921 48.4787 78.4412 49.0635 77.7205 49.0635Z" fill="#E0E0E0"/>
<path d="M68.8593 55.8364H46.3278C45.6071 55.8364 44.9889 55.2521 44.9475 54.5309C44.9061 53.8098 45.457 53.2254 46.1777 53.2254H68.7093C69.43 53.2254 70.0482 53.8098 70.0895 54.5309C70.1313 55.2521 69.5805 55.8364 68.8593 55.8364Z" fill="#E0E0E0"/>
<path d="M75.2543 65.7142H50.873C50.1523 65.7142 49.6014 66.2985 49.6428 67.0197C49.6842 67.7408 50.3024 68.3251 51.0231 68.3251H75.4044C76.1251 68.3251 76.676 67.7408 76.6346 67.0197C76.5933 66.2985 75.975 65.7142 75.2543 65.7142Z" fill="#E0E0E0"/>
<path d="M70.3847 61.5512H50.6309C49.9101 61.5512 49.3593 62.1355 49.4006 62.8567C49.442 63.5774 50.0602 64.1621 50.7809 64.1621H70.5347C71.2554 64.1621 71.8063 63.5778 71.7649 62.8567C71.7236 62.1355 71.1058 61.5512 70.3847 61.5512Z" fill="#E0E0E0"/>
<path d="M72.4094 57.3888H50.3887C49.668 57.3888 49.1171 57.9731 49.1584 58.6943C49.1998 59.4154 49.818 59.9998 50.5387 59.9998H72.5594C73.2801 59.9998 73.831 59.4154 73.7896 58.6943C73.7483 57.9731 73.1301 57.3888 72.4094 57.3888Z" fill="#E0E0E0"/>
<path d="M70.6796 87.5855H48.1481C47.4274 87.5855 46.8092 87.0012 46.7678 86.28C46.7264 85.5593 47.2773 84.9745 47.998 84.9745H70.5296C71.2507 84.9745 71.8685 85.5589 71.9098 86.28C71.9512 87.0012 71.4003 87.5855 70.6796 87.5855Z" fill="#E0E0E0"/>
<path d="M77.0746 97.4633H52.6934C51.9726 97.4633 51.4218 98.0476 51.4631 98.7688C51.5045 99.4895 52.1227 100.074 52.8434 100.074H77.2247C77.9454 100.074 78.4963 99.4899 78.4549 98.7688C78.4136 98.0476 77.7958 97.4633 77.0746 97.4633Z" fill="#E0E0E0"/>
<path d="M72.205 93.3001H52.4512C51.7305 93.3001 51.1796 93.8844 51.2209 94.6056C51.2623 95.3263 51.8805 95.9111 52.6012 95.9111H72.355C73.0757 95.9111 73.6266 95.3268 73.5853 94.6056C73.5439 93.8849 72.9257 93.3001 72.205 93.3001Z" fill="#E0E0E0"/>
<path d="M74.2297 89.1375H52.209C51.4883 89.1375 50.9374 89.7218 50.9787 90.443C51.0201 91.1637 51.6383 91.7485 52.359 91.7485H74.3797C75.1004 91.7485 75.6513 91.1642 75.6099 90.443C75.5686 89.7218 74.9504 89.1375 74.2297 89.1375Z" fill="#E0E0E0"/>
<path d="M75.9653 78.2018H51.584C50.8633 78.2018 50.3124 78.7861 50.3537 79.5073C50.3951 80.228 51.0133 80.8127 51.734 80.8127H76.1153C76.8365 80.8127 77.3869 80.2284 77.3455 79.5073C77.3042 78.7865 76.686 78.2018 75.9653 78.2018Z" fill="#E0E0E0"/>
<path d="M71.1034 74.0394H51.3496C50.6289 74.0394 50.078 74.6237 50.1194 75.3448C50.1607 76.0656 50.7789 76.6503 51.4997 76.6503H71.2535C71.9742 76.6503 72.5251 76.066 72.4837 75.3448C72.4423 74.6237 71.8241 74.0394 71.1034 74.0394Z" fill="#E0E0E0"/>
<path d="M73.1281 69.8764H51.1074C50.3863 69.8764 49.8358 70.4607 49.8772 71.1819C49.9185 71.9026 50.5367 72.4874 51.2575 72.4874H73.2781C73.9989 72.4874 74.5497 71.903 74.5084 71.1819C74.467 70.4607 73.8488 69.8764 73.1281 69.8764Z" fill="#E0E0E0"/>
<path d="M114.432 35.705H103.549C97.5391 35.705 92.3871 30.8329 92.0417 24.8225C91.6963 18.8121 96.2886 13.94 102.299 13.94C108.309 13.94 113.461 18.8121 113.806 24.8225L114.432 35.705Z" fill="#407BFF"/>
<path d="M103.428 33.82C98.4592 33.82 94.1991 29.7918 93.9135 24.8224C93.628 19.8535 97.4247 15.8249 102.394 15.8249C107.363 15.8249 111.623 19.8531 111.908 24.8224C112.194 29.7914 108.397 33.82 103.428 33.82Z" fill="white"/>
<path d="M103.994 21.1792L104.413 28.4652H102.4L102.125 23.6907C101.814 23.9385 101.51 24.1387 101.214 24.2918C100.919 24.4449 100.545 24.5914 100.094 24.7313L100 23.0994C100.665 22.8811 101.176 22.6189 101.533 22.3127C101.89 22.0064 102.162 21.6285 102.348 21.1788L103.994 21.1792Z" fill="#263238"/>
<path d="M121.144 57.4703H132.026C138.036 57.4703 142.628 52.5982 142.283 46.5878C141.937 40.5774 136.785 35.7053 130.775 35.7053C124.765 35.7053 120.173 40.5774 120.518 46.5878L121.144 57.4703Z" fill="#407BFF"/>
<path d="M131.912 55.5849C136.881 55.5849 140.678 51.5567 140.393 46.5873C140.107 41.618 135.847 37.5898 130.878 37.5898C125.909 37.5898 122.112 41.618 122.398 46.5873C122.684 51.5567 126.944 55.5849 131.912 55.5849Z" fill="white"/>
<path d="M134.784 50.2306H128.812C128.847 49.641 129.023 49.0862 129.34 48.5666C129.657 48.0469 130.273 47.4336 131.186 46.7265C131.745 46.2931 132.099 45.964 132.249 45.7396C132.399 45.5147 132.468 45.3013 132.456 45.0994C132.444 44.8811 132.352 44.6946 132.182 44.5397C132.012 44.3848 131.805 44.3074 131.56 44.3074C131.306 44.3074 131.103 44.387 130.951 44.5467C130.799 44.7064 130.707 44.988 130.675 45.392L128.672 45.2305C128.718 44.6704 128.836 44.2326 129.027 43.9184C129.217 43.6038 129.497 43.3631 129.867 43.195C130.237 43.0274 130.757 42.9434 131.428 42.9434C132.129 42.9434 132.679 43.023 133.077 43.1827C133.475 43.3424 133.796 43.5875 134.038 43.9184C134.28 44.2488 134.413 44.6198 134.436 45.0303C134.461 45.4668 134.358 45.8839 134.125 46.2812C133.892 46.6785 133.452 47.115 132.805 47.5911C132.42 47.8678 132.163 48.0619 132.034 48.1728C131.905 48.2836 131.755 48.4284 131.583 48.6075H134.691L134.784 50.2306Z" fill="#263238"/>
<g opacity="0.4">
<path d="M116.924 79.2344H106.042C100.031 79.2344 94.8793 74.3623 94.5339 68.3519C94.1885 62.342 98.7808 57.4694 104.791 57.4694C110.801 57.4694 115.953 62.3415 116.298 68.3519L116.924 79.2344Z" fill="#407BFF"/>
</g>
<path d="M105.936 77.3494C100.967 77.3494 96.7069 73.3212 96.4214 68.3518C96.1358 63.3825 99.9326 59.3543 104.901 59.3543C109.87 59.3543 114.13 63.3825 114.416 68.3518C114.702 73.3212 110.905 77.3494 105.936 77.3494Z" fill="white"/>
<path d="M104.362 66.8423L102.461 66.5053C102.583 65.906 102.857 65.4467 103.283 65.1272C103.71 64.8078 104.33 64.6485 105.144 64.6485C106.079 64.6485 106.765 64.8227 107.202 65.1712C107.639 65.5197 107.873 65.9579 107.903 66.4855C107.921 66.7948 107.853 67.0751 107.697 67.3259C107.542 67.5767 107.299 67.7967 106.968 67.9855C107.249 68.0541 107.465 68.1337 107.617 68.2248C107.863 68.3713 108.059 68.5645 108.205 68.8039C108.35 69.0432 108.433 69.3292 108.452 69.6614C108.476 70.0785 108.39 70.4785 108.194 70.8613C107.997 71.2441 107.7 71.5389 107.301 71.7457C106.903 71.9525 106.369 72.0559 105.702 72.0559C105.05 72.0559 104.532 71.9793 104.147 71.8262C103.762 71.6731 103.439 71.4491 103.179 71.1543C102.92 70.8595 102.712 70.4891 102.556 70.0425L104.53 69.7785C104.631 70.1793 104.768 70.4569 104.942 70.6118C105.115 70.7667 105.329 70.8437 105.583 70.8437C105.85 70.8437 106.067 70.746 106.233 70.5507C106.399 70.3553 106.473 70.0948 106.454 69.7688C106.435 69.4366 106.335 69.1792 106.153 68.9966C105.972 68.814 105.735 68.7229 105.441 68.7229C105.285 68.7229 105.072 68.7621 104.803 68.8404L104.824 67.4183C104.936 67.4346 105.022 67.4425 105.084 67.4425C105.345 67.4425 105.558 67.3593 105.722 67.1935C105.887 67.0271 105.963 66.83 105.95 66.6021C105.937 66.3839 105.862 66.2096 105.724 66.0794C105.586 65.9491 105.403 65.884 105.175 65.884C104.941 65.884 104.754 65.9549 104.616 66.0965C104.477 66.2382 104.393 66.4873 104.362 66.8423Z" fill="#263238"/>
<path d="M123.636 101H134.518C140.529 101 145.12 96.1276 144.775 90.1172C144.43 84.1072 139.277 79.2346 133.267 79.2346C127.257 79.2346 122.665 84.1068 123.01 90.1172L123.636 101Z" fill="#E0E0E0"/>
<path d="M134.412 99.1149C139.382 99.1149 143.178 95.0867 142.893 90.1178C142.607 85.1489 138.347 81.1207 133.378 81.1207C128.409 81.1207 124.612 85.1489 124.898 90.1178C125.183 95.0867 129.443 99.1149 134.412 99.1149Z" fill="white"/>
<path d="M134.376 92.4215H130.75L130.656 90.7847L134.035 86.4745H135.769L136.022 90.8776H136.922L137.011 92.4215H136.111L136.188 93.7605H134.453L134.376 92.4215ZM134.288 90.8771L134.158 88.6226L132.372 90.8771H134.288Z" fill="#E0E0E0"/>
<path d="M119.66 79.6202C119.458 79.6202 119.288 79.4623 119.276 79.2568L116.774 35.7267C116.762 35.5146 116.924 35.3325 117.137 35.3197C117.348 35.303 117.532 35.4698 117.544 35.6827L120.046 79.2128C120.058 79.4249 119.896 79.607 119.683 79.6198C119.676 79.6202 119.668 79.6202 119.66 79.6202Z" fill="#407BFF"/>
<path d="M120.91 101.385C120.707 101.385 120.537 101.227 120.525 101.022L119.274 79.2569C119.262 79.0448 119.424 78.8627 119.637 78.8499C119.846 78.8363 120.032 79 120.044 79.2129L121.295 100.978C121.307 101.19 121.145 101.373 120.932 101.385C120.925 101.385 120.917 101.385 120.91 101.385Z" fill="#E0E0E0"/>
<path d="M117.966 35.7055C117.992 36.1551 117.648 36.5195 117.198 36.5195C116.749 36.5195 116.363 36.1551 116.337 35.7055C116.311 35.2558 116.655 34.8915 117.105 34.8915C117.554 34.8915 117.94 35.2558 117.966 35.7055Z" fill="white"/>
<path d="M117.201 36.9049C116.551 36.9049 115.993 36.3769 115.955 35.7275C115.936 35.4028 116.047 35.0961 116.266 34.8646C116.485 34.6332 116.783 34.5056 117.108 34.5056C117.758 34.5056 118.317 35.0336 118.354 35.683C118.373 36.0078 118.263 36.3144 118.043 36.5459C117.824 36.7778 117.526 36.9049 117.201 36.9049ZM117.108 35.2769C116.998 35.2769 116.898 35.3187 116.826 35.3944C116.755 35.4701 116.719 35.5726 116.725 35.6835C116.739 35.9277 116.957 36.134 117.201 36.134C117.311 36.134 117.411 36.0922 117.482 36.0166C117.554 35.9409 117.59 35.8379 117.583 35.727C117.57 35.4833 117.352 35.2769 117.108 35.2769Z" fill="#407BFF"/>
<path d="M119.224 57.4703C119.25 57.92 118.906 58.2843 118.456 58.2843C118.007 58.2843 117.621 57.92 117.595 57.4703C117.569 57.0206 117.913 56.6563 118.362 56.6563C118.812 56.6559 119.198 57.0206 119.224 57.4703Z" fill="white"/>
<path d="M118.459 58.6698C117.809 58.6698 117.25 58.1418 117.213 57.4919C117.194 57.1676 117.304 56.8605 117.524 56.629C117.742 56.3976 118.041 56.2704 118.365 56.2704C119.015 56.2704 119.574 56.7984 119.611 57.4479V57.4483C119.629 57.773 119.519 58.0797 119.301 58.3112C119.082 58.5426 118.783 58.6698 118.459 58.6698ZM118.365 57.0413C118.255 57.0413 118.155 57.0831 118.084 57.1588C118.012 57.2349 117.976 57.3374 117.983 57.4483C117.997 57.6925 118.215 57.8989 118.459 57.8989C118.569 57.8989 118.669 57.8571 118.74 57.7814C118.812 57.7057 118.848 57.6028 118.841 57.4919C118.827 57.2481 118.609 57.0413 118.365 57.0413Z" fill="#407BFF"/>
<path d="M120.466 79.2344C120.492 79.6841 120.148 80.0484 119.698 80.0484C119.249 80.0484 118.863 79.6841 118.837 79.2344C118.811 78.7847 119.155 78.4204 119.605 78.4204C120.054 78.4204 120.44 78.7852 120.466 79.2344Z" fill="white"/>
<path d="M119.701 80.4343C119.051 80.4343 118.493 79.9063 118.455 79.2564C118.436 78.9321 118.546 78.6254 118.765 78.394C118.984 78.1626 119.283 78.0354 119.608 78.0354C120.257 78.0354 120.816 78.5634 120.853 79.2124C120.872 79.5371 120.762 79.8442 120.543 80.0757C120.325 80.3071 120.026 80.4343 119.701 80.4343ZM119.608 78.8063C119.498 78.8063 119.398 78.8481 119.326 78.9238C119.255 78.9994 119.219 79.102 119.226 79.2124C119.24 79.457 119.458 79.6634 119.702 79.6634C119.812 79.6634 119.912 79.6216 119.983 79.5459C120.055 79.4702 120.09 79.3673 120.084 79.2568V79.2564C120.07 79.0122 119.852 78.8063 119.608 78.8063Z" fill="#E0E0E0"/>
<path d="M121.724 100.999C121.75 101.449 121.406 101.813 120.956 101.813C120.507 101.813 120.121 101.449 120.095 100.999C120.069 100.55 120.413 100.185 120.862 100.185C121.312 100.185 121.698 100.55 121.724 100.999Z" fill="white"/>
<path d="M120.959 102.2C120.31 102.2 119.75 101.672 119.713 101.022C119.694 100.697 119.805 100.39 120.024 100.159C120.242 99.9274 120.541 99.8003 120.865 99.8003C121.515 99.8003 122.074 100.328 122.111 100.978C122.13 101.302 122.02 101.61 121.801 101.841C121.582 102.072 121.283 102.2 120.959 102.2ZM120.865 100.571C120.755 100.571 120.656 100.613 120.584 100.688C120.513 100.764 120.476 100.867 120.483 100.978C120.497 101.222 120.715 101.428 120.959 101.428C121.069 101.428 121.169 101.386 121.24 101.311C121.312 101.235 121.348 101.132 121.341 101.021C121.327 100.777 121.11 100.571 120.865 100.571Z" fill="#E0E0E0"/>
</svg>
