<svg width="30" height="30" viewBox="0 0 30 30" fill="none" xmlns="http://www.w3.org/2000/svg">
<rect width="30" height="30" rx="15" fill="#46B58D" fill-opacity="0.5"/>
<path d="M17.6875 18.989C16.9626 18.989 16.375 18.4014 16.375 17.6765V13.3167C16.375 12.3502 15.5915 11.5667 14.625 11.5667H13.8028C13.2904 11.5667 12.875 11.9821 12.875 12.4945V12.5473C12.875 13.0305 13.2668 13.4223 13.75 13.4223C14.2332 13.4223 14.625 13.814 14.625 14.2973V17.6765C14.625 18.4014 14.0374 18.989 13.3125 18.989H12.9278C12.4154 18.989 12 19.4044 12 19.9168C12 20.4292 12.4154 20.8446 12.9278 20.8446H18.0722C18.5846 20.8446 19 20.4292 19 19.9168C19 19.4044 18.5846 18.989 18.0722 18.989H17.6875ZM15.5 6C15.2404 6 14.9867 6.08162 14.7708 6.23454C14.555 6.38746 14.3867 6.60481 14.2874 6.85911C14.1881 7.1134 14.1621 7.39322 14.2127 7.66318C14.2634 7.93314 14.3884 8.18111 14.5719 8.37574C14.7555 8.57037 14.9893 8.70292 15.2439 8.75661C15.4985 8.81031 15.7624 8.78275 16.0023 8.67742C16.2421 8.57209 16.4471 8.39371 16.5913 8.16485C16.7355 7.93599 16.8125 7.66692 16.8125 7.39168C16.8125 7.02258 16.6742 6.6686 16.4281 6.40761C16.1819 6.14662 15.8481 6 15.5 6Z" fill="white"/>
</svg>
