<svg width="14" height="14" viewBox="0 0 14 14" fill="none" xmlns="http://www.w3.org/2000/svg">
<path d="M13.6392 0V4.06522L12.3993 2.84566L1.65324 13.4152L0 11.7891L10.746 1.21957L9.50611 0H13.6392ZM11.1593 13.0087C10.5016 13.0087 9.87088 12.7517 9.40582 12.2943C8.94076 11.8369 8.67949 11.2165 8.67949 10.5696V8.94349C8.67949 8.29659 8.94076 7.67619 9.40582 7.21876C9.87088 6.76133 10.5016 6.50436 11.1593 6.50436C11.817 6.50436 12.4478 6.76133 12.9129 7.21876C13.3779 7.67619 13.6392 8.29659 13.6392 8.94349V10.5696C13.6392 11.2165 13.3779 11.8369 12.9129 12.2943C12.4478 12.7517 11.817 13.0087 11.1593 13.0087ZM11.1593 8.13044C10.9401 8.13044 10.7299 8.2161 10.5748 8.36858C10.4198 8.52106 10.3327 8.72786 10.3327 8.94349V10.5696C10.3327 10.7852 10.4198 10.992 10.5748 11.1445C10.7299 11.297 10.9401 11.3826 11.1593 11.3826C11.3786 11.3826 11.5888 11.297 11.7438 11.1445C11.8989 10.992 11.986 10.7852 11.986 10.5696V8.94349C11.986 8.72786 11.8989 8.52106 11.7438 8.36858C11.5888 8.2161 11.3786 8.13044 11.1593 8.13044ZM2.89316 6.50436C2.23546 6.50436 1.6047 6.24738 1.13964 5.78995C0.674579 5.33252 0.413309 4.71212 0.413309 4.06522V2.43913C0.413309 1.79223 0.674579 1.17183 1.13964 0.714406C1.6047 0.256979 2.23546 0 2.89316 0C3.55086 0 4.18162 0.256979 4.64668 0.714406C5.11175 1.17183 5.37302 1.79223 5.37302 2.43913V4.06522C5.37302 4.71212 5.11175 5.33252 4.64668 5.78995C4.18162 6.24738 3.55086 6.50436 2.89316 6.50436ZM2.89316 1.62609C2.67393 1.62609 2.46368 1.71175 2.30866 1.86422C2.15363 2.0167 2.06654 2.2235 2.06654 2.43913V4.06522C2.06654 4.28086 2.15363 4.48766 2.30866 4.64013C2.46368 4.79261 2.67393 4.87827 2.89316 4.87827C3.1124 4.87827 3.32265 4.79261 3.47767 4.64013C3.63269 4.48766 3.71978 4.28086 3.71978 4.06522V2.43913C3.71978 2.2235 3.63269 2.0167 3.47767 1.86422C3.32265 1.71175 3.1124 1.62609 2.89316 1.62609Z" fill="#FF233D"/>
</svg>
