<svg width="18" height="18" viewBox="0 0 18 18" fill="none" xmlns="http://www.w3.org/2000/svg">
<path d="M7.20118 7.09244L6.88695 6.77778M11.3288 11.2258L11.0146 10.9111M6.88695 11.2222L11.3252 6.77778M1.11719 6.68889C1.11719 4.69778 1.11719 3.70222 1.50421 2.94133C1.84461 2.27234 2.38777 1.72843 3.05583 1.38756C3.81566 1 4.80984 1 6.79819 1H11.414C13.4024 1 14.3965 1 15.1564 1.38756C15.8244 1.72843 16.3676 2.27234 16.708 2.94133C17.095 3.70222 17.095 4.69778 17.095 6.68889V11.3111C17.095 13.3022 17.095 14.2978 16.708 15.0587C16.3676 15.7277 15.8244 16.2716 15.1564 16.6124C14.3965 17 13.4024 17 11.414 17H6.79819C4.80984 17 3.81566 17 3.05583 16.6124C2.38777 16.2716 1.84461 15.7277 1.50421 15.0587C1.11719 14.2978 1.11719 13.3022 1.11719 11.3111V6.68889Z" stroke="#89E4C9" stroke-width="1.5" stroke-linecap="round" stroke-linejoin="round"/>
</svg>
