<svg width="119" height="80" viewBox="0 0 119 80" fill="none" xmlns="http://www.w3.org/2000/svg">
<rect x="1.30469" y="37.5396" width="116.242" height="41.3079" rx="19" fill="#D1D1D1" fill-opacity="0.3" stroke="#FFE601" stroke-width="2"/>
<path d="M48.6518 18.544H71.1986C71.4269 18.5433 71.6507 18.4815 71.8458 18.3651C72.041 18.2488 72.2001 18.0824 72.3062 17.8838C72.4122 17.6853 72.4611 17.4621 72.4476 17.2382C72.4341 17.0144 72.3587 16.7984 72.2295 16.6136L60.9561 0.618716C60.4889 -0.0444548 59.364 -0.0444548 58.8956 0.618716L47.6221 16.6136C47.4916 16.798 47.4151 17.0141 47.4009 17.2383C47.3866 17.4625 47.4352 17.6863 47.5413 17.8853C47.6475 18.0843 47.8071 18.2509 48.0029 18.367C48.1986 18.4831 48.4231 18.5444 48.6518 18.544Z" fill="black" fill-opacity="0.7"/>
</svg>
