<svg width="18" height="14" viewBox="0 0 18 14" fill="none" xmlns="http://www.w3.org/2000/svg">
<path d="M0.5 0C0.367392 0 0.240215 0.0526785 0.146447 0.146447C0.0526785 0.240215 0 0.367392 0 0.5C0 0.632608 0.0526785 0.759785 0.146447 0.853553C0.240215 0.947321 0.367392 1 0.5 1H15.5C15.6326 1 15.7598 0.947321 15.8536 0.853553C15.9473 0.759785 16 0.632608 16 0.5C16 0.367392 15.9473 0.240215 15.8536 0.146447C15.7598 0.0526785 15.6326 0 15.5 0H0.5ZM0.5 5C0.367392 5 0.240215 5.05268 0.146447 5.14645C0.0526785 5.24021 0 5.36739 0 5.5C0 5.63261 0.0526785 5.75979 0.146447 5.85355C0.240215 5.94732 0.367392 6 0.5 6H10.695C11.0916 5.68313 11.5389 5.43563 12.018 5.268C12.0324 5.17676 12.0551 5.08705 12.086 5H0.5ZM8.36 10.475C8.24026 10.3348 8.14737 10.1738 8.086 10H0.5C0.367392 10 0.240215 10.0527 0.146447 10.1464C0.0526785 10.2402 0 10.3674 0 10.5C0 10.6326 0.0526785 10.7598 0.146447 10.8536C0.240215 10.9473 0.367392 11 0.5 11H9.275L9.268 10.982C8.91456 10.9267 8.59252 10.7469 8.36 10.475ZM13.5 10.5C13.7652 10.5 14.0196 10.3946 14.2071 10.2071C14.3946 10.0196 14.5 9.76522 14.5 9.5C14.5 9.23478 14.3946 8.98043 14.2071 8.79289C14.0196 8.60536 13.7652 8.5 13.5 8.5C13.2348 8.5 12.9804 8.60536 12.7929 8.79289C12.6054 8.98043 12.5 9.23478 12.5 9.5C12.5 9.76522 12.6054 10.0196 12.7929 10.2071C12.9804 10.3946 13.2348 10.5 13.5 10.5ZM17.5 9H16.949C16.8404 8.25649 16.4948 7.56788 15.9634 7.03656C15.4321 6.50524 14.7435 6.15959 14 6.051V5.5C14 5.36739 13.9473 5.24021 13.8536 5.14645C13.7598 5.05268 13.6326 5 13.5 5C13.3674 5 13.2402 5.05268 13.1464 5.14645C13.0527 5.24021 13 5.36739 13 5.5V6.051C12.2565 6.15959 11.5679 6.50524 11.0366 7.03656C10.5052 7.56788 10.1596 8.25649 10.051 9H9.5C9.36739 9 9.24021 9.05268 9.14645 9.14645C9.05268 9.24021 9 9.36739 9 9.5C9 9.63261 9.05268 9.75979 9.14645 9.85355C9.24021 9.94732 9.36739 10 9.5 10H10.051C10.1596 10.7435 10.5052 11.4321 11.0366 11.9634C11.5679 12.4948 12.2565 12.8404 13 12.949V13.5C13 13.6326 13.0527 13.7598 13.1464 13.8536C13.2402 13.9473 13.3674 14 13.5 14C13.6326 14 13.7598 13.9473 13.8536 13.8536C13.9473 13.7598 14 13.6326 14 13.5V12.949C14.7435 12.8404 15.4321 12.4948 15.9634 11.9634C16.4948 11.4321 16.8404 10.7435 16.949 10H17.5C17.6326 10 17.7598 9.94732 17.8536 9.85355C17.9473 9.75979 18 9.63261 18 9.5C18 9.36739 17.9473 9.24021 17.8536 9.14645C17.7598 9.05268 17.6326 9 17.5 9ZM15.268 11.268C15.0363 11.5018 14.7606 11.6876 14.4569 11.8146C14.1531 11.9417 13.8273 12.0075 13.4981 12.0082C13.1689 12.009 12.8427 11.9447 12.5384 11.8191C12.2341 11.6935 11.9576 11.509 11.7247 11.2763C11.4919 11.0435 11.3074 10.767 11.1817 10.4627C11.056 10.1585 10.9916 9.83235 10.9923 9.50312C10.9929 9.1739 11.0586 8.84805 11.1856 8.54428C11.3125 8.24051 11.4982 7.96481 11.732 7.733C12.2015 7.26748 12.8362 7.00689 13.4974 7.00824C14.1585 7.0096 14.7922 7.27279 15.2598 7.74022C15.7273 8.20766 15.9907 8.84127 15.9923 9.50241C15.9938 10.1636 15.7334 10.7984 15.268 11.268Z" fill="#2ADCA6"/>
</svg>
