<svg width="66" height="65" viewBox="0 0 66 65" fill="none" xmlns="http://www.w3.org/2000/svg">
<ellipse cx="32.6269" cy="32.5" rx="32.5722" ry="32.5" fill="#68D1F3"/>
<path d="M20.9106 45.1523V27.106L18 20.7053L19.5166 20L22.7053 27.0232H42.2947L45.4834 20L47 20.707L44.0894 27.106V45.1523H20.9106ZM29.1887 34.3907H35.8113C36.0464 34.3907 36.2428 34.3113 36.4007 34.1523C36.5585 33.9934 36.638 33.7964 36.6391 33.5613C36.6402 33.3262 36.5607 33.1297 36.4007 32.9719C36.2406 32.814 36.0442 32.7351 35.8113 32.7351H29.1887C28.9536 32.7351 28.7572 32.8146 28.5993 32.9735C28.4415 33.1325 28.362 33.3295 28.3609 33.5646C28.3598 33.7997 28.4393 33.9961 28.5993 34.154C28.7594 34.3118 28.9559 34.3907 29.1887 34.3907ZM22.5662 43.4967H42.4338V28.6788H22.5662V43.4967Z" fill="white"/>
</svg>
