<svg width="66" height="65" viewBox="0 0 66 65" fill="none" xmlns="http://www.w3.org/2000/svg">
<ellipse cx="32.6269" cy="32.5" rx="32.5722" ry="32.5" fill="#FF9518"/>
<path fill-rule="evenodd" clip-rule="evenodd" d="M46.0651 21H19.9333C19.6858 21 19.4484 21.0983 19.2734 21.2734C19.0983 21.4484 19 21.6858 19 21.9333V42.4654C19 42.7129 19.0983 42.9503 19.2734 43.1253C19.4484 43.3004 19.6858 43.3987 19.9333 43.3987H46.0651C46.3126 43.3987 46.55 43.3004 46.725 43.1253C46.9 42.9503 46.9984 42.7129 46.9984 42.4654V21.9333C46.9984 21.6858 46.9 21.4484 46.725 21.2734C46.55 21.0983 46.3126 21 46.0651 21ZM20.8666 41.5321V22.8666H45.1318V41.5321H20.8666Z" fill="white"/>
<path fill-rule="evenodd" clip-rule="evenodd" d="M46.6715 22.6426L33.5216 33.8419C33.3523 33.9863 33.1371 34.0654 32.9146 34.065C32.6922 34.0647 32.4771 33.9849 32.3083 33.8401L19.3245 22.6407C19.18 22.5163 19.077 22.3507 19.0295 22.166C18.9819 21.9814 18.9921 21.7866 19.0586 21.6079C19.1251 21.4292 19.2447 21.2751 19.4014 21.1664C19.558 21.0577 19.7442 20.9997 19.9349 21H46.0667C46.2574 21.0004 46.4433 21.0591 46.5995 21.1683C46.7558 21.2775 46.8749 21.4319 46.9407 21.6108C47.0066 21.7897 47.0161 21.9845 46.968 22.1689C46.9198 22.3534 46.8164 22.5187 46.6715 22.6426ZM43.5319 22.8666H22.4454L32.9206 31.9026L43.5319 22.8666Z" fill="white"/>
</svg>
