<svg width="66" height="65" viewBox="0 0 66 65" fill="none" xmlns="http://www.w3.org/2000/svg">
<ellipse cx="32.746" cy="32.5" rx="32.6444" ry="32.5" fill="#43D1B7"/>
<path d="M20.375 48.375C19.4232 48.375 18.6228 48.0504 17.9737 47.4013C17.3246 46.7522 17 45.9517 17 45V40.3256H22.0625V18H44V45C44 45.9517 43.6754 46.7522 43.0263 47.4013C42.3772 48.0504 41.5767 48.375 40.625 48.375H20.375ZM40.625 46.6875C41.1031 46.6875 41.5042 46.5255 41.8282 46.2015C42.1522 45.8775 42.3136 45.477 42.3125 45V19.6875H23.75V40.3256H38.9375V45C38.9375 45.4781 39.0995 45.8792 39.4235 46.2032C39.7475 46.5272 40.148 46.6886 40.625 46.6875ZM26.0872 27.0872V25.3997H39.9753V27.0872H26.0872ZM26.0872 31.7599V30.0724H39.9753V31.7599H26.0872ZM20.375 46.6875H37.25V42.0131H18.6875V45C18.6875 45.4781 18.8495 45.8792 19.1735 46.2032C19.4975 46.5272 19.898 46.6886 20.375 46.6875ZM20.375 46.6875H18.6875H37.25H20.375Z" fill="white"/>
</svg>
