<svg width="21" height="19" viewBox="0 0 21 19" fill="none" xmlns="http://www.w3.org/2000/svg">
<path d="M2.632 6.313V14.813C2.632 15.658 2.976 16.469 3.589 17.066C4.20716 17.6663 5.03533 18.0014 5.897 18H14.603C15.469 18 16.299 17.664 16.911 17.066C17.2128 16.7733 17.4529 16.4232 17.6173 16.0363C17.7817 15.6493 17.8669 15.2334 17.868 14.813V6.313M2.632 6.313C1.73 6.313 1 5.599 1 4.719V2.594C1 1.714 1.731 1 2.632 1H17.868C18.77 1 19.5 1.714 19.5 2.594V4.719C19.5 5.599 18.769 6.313 17.868 6.313M2.632 6.313H17.868" stroke="#2ADCA6" stroke-width="1.5" stroke-linecap="round" stroke-linejoin="round"/>
<path d="M8.74219 10.0889C8.89033 9.76555 9.14209 9.50088 9.45762 9.33678C9.77315 9.17267 10.1344 9.11852 10.4842 9.18289C10.7239 9.21957 10.9516 9.31196 11.149 9.45264C11.3465 9.59331 11.5082 9.77835 11.6212 9.99289C11.7026 10.1644 11.7468 10.3513 11.7509 10.5411C11.7549 10.731 11.7188 10.9195 11.6447 11.0944C11.5706 11.2692 11.4604 11.4264 11.3212 11.5556C11.182 11.6848 11.0171 11.783 10.8372 11.8439C10.6539 11.9136 10.4954 12.036 10.3815 12.1956C10.2676 12.3552 10.2035 12.5449 10.1972 12.7409V13.1109" stroke="#2ADCA6" stroke-width="1.5" stroke-miterlimit="10" stroke-linecap="round"/>
<path d="M10.1719 15.156H10.1759" stroke="#2ADCA6" stroke-width="1.5" stroke-linecap="round" stroke-linejoin="round"/>
</svg>
