<svg width="20" height="20" viewBox="0 0 20 20" fill="none" xmlns="http://www.w3.org/2000/svg">
<path d="M9.06494 6.00294L9.24894 5.99794H16.7489C17.5789 5.99788 18.3775 6.31535 18.9808 6.88525C19.5842 7.45516 19.9467 8.23432 19.9939 9.06294L19.9989 9.24794V16.7479C19.999 17.5781 19.6814 18.3768 19.1113 18.9802C18.5412 19.5836 17.7618 19.9459 16.9329 19.9929L16.7489 19.9979H9.24894C8.41881 19.998 7.62012 19.6804 7.01671 19.1103C6.41331 18.5402 6.05094 17.7608 6.00394 16.9319L5.99894 16.7489V9.24894C5.99889 8.41881 6.3165 7.62012 6.88662 7.01671C7.45673 6.41331 8.23614 6.05094 9.06494 6.00394M16.7489 7.49894H9.24894C8.80975 7.49896 8.38663 7.66412 8.06355 7.96162C7.74048 8.25913 7.54108 8.66724 7.50494 9.10494L7.49894 9.24894V16.7489C7.49898 17.1883 7.66428 17.6116 7.96199 17.9347C8.25971 18.2578 8.66807 18.457 9.10594 18.4929L9.24894 18.4989H16.7489C17.1883 18.4989 17.6116 18.3336 17.9347 18.0359C18.2578 17.7382 18.457 17.3298 18.4929 16.8919L18.4989 16.7489V9.24894C18.4989 8.78482 18.3146 8.3397 17.9864 8.01151C17.6582 7.68332 17.2131 7.49894 16.7489 7.49894ZM12.9989 8.99894C13.1979 8.99894 13.3886 9.07796 13.5293 9.21861C13.6699 9.35927 13.7489 9.55003 13.7489 9.74894V12.2469H16.2489C16.4479 12.2469 16.6386 12.326 16.7793 12.4666C16.9199 12.6073 16.9989 12.798 16.9989 12.9969C16.9989 13.1959 16.9199 13.3866 16.7793 13.5273C16.6386 13.6679 16.4479 13.7469 16.2489 13.7469H13.7489V16.2489C13.7489 16.4479 13.6699 16.6386 13.5293 16.7793C13.3886 16.9199 13.1979 16.9989 12.9989 16.9989C12.8 16.9989 12.6093 16.9199 12.4686 16.7793C12.328 16.6386 12.2489 16.4479 12.2489 16.2489V13.7469H9.74894C9.55003 13.7469 9.35927 13.6679 9.21861 13.5273C9.07796 13.3866 8.99894 13.1959 8.99894 12.9969C8.99894 12.798 9.07796 12.6073 9.21861 12.4666C9.35927 12.326 9.55003 12.2469 9.74894 12.2469H12.2489V9.74894C12.2489 9.55003 12.328 9.35927 12.4686 9.21861C12.6093 9.07796 12.8 8.99894 12.9989 8.99894ZM13.5809 2.23194L13.6329 2.40894L14.3259 4.99694H12.7729L12.1849 2.79694C12.1255 2.57484 12.0229 2.36661 11.883 2.18417C11.7431 2.00173 11.5686 1.84865 11.3695 1.73368C11.1704 1.61871 10.9506 1.5441 10.7226 1.51412C10.4946 1.48414 10.263 1.49937 10.0409 1.55894L2.79694 3.50094C2.37407 3.61434 2.00907 3.88213 1.77396 4.25145C1.53885 4.62078 1.45071 5.06482 1.52694 5.49594L1.55894 5.64394L3.50094 12.8879C3.59203 13.2283 3.78377 13.5333 4.05105 13.763C4.31833 13.9926 4.64871 14.1362 4.99894 14.1749V15.6809C4.34869 15.6425 3.725 15.4095 3.20879 15.0122C2.69257 14.6149 2.30765 14.0717 2.10394 13.4529L2.05194 13.2769L0.110945 6.03194C-0.104052 5.23032 -0.00421932 4.37681 0.389972 3.64644C0.784164 2.91607 1.44284 2.36418 2.23094 2.10394L2.40894 2.05194L9.65294 0.110945C10.4546 -0.104052 11.3081 -0.00421932 12.0384 0.389972C12.7688 0.784164 13.3207 1.44384 13.5809 2.23194Z" fill="#FE8C3A"/>
</svg>
