<svg width="55" height="56" viewBox="0 0 55 56" fill="none" xmlns="http://www.w3.org/2000/svg">
<circle cx="27.5" cy="27.98" r="27.5" fill="#D1D1D1" fill-opacity="0.2"/>
<path d="M20.743 21.3802C19.9094 21.3802 19.11 21.7113 18.5206 22.3007C17.9312 22.8901 17.6001 23.6895 17.6001 24.5231V33.9516C17.6001 34.7852 17.9312 35.5846 18.5206 36.174C19.11 36.7634 19.9094 37.0945 20.743 37.0945H30.1715C31.0051 37.0945 31.8045 36.7634 32.3939 36.174C32.9833 35.5846 33.3144 34.7852 33.3144 33.9516V32.3346L37.7788 35.2371C37.9566 35.3527 38.1623 35.4183 38.3743 35.4268C38.5862 35.4353 38.7965 35.3864 38.983 35.2854C39.1695 35.1843 39.3253 35.0348 39.4339 34.8526C39.5425 34.6704 39.5999 34.4623 39.6001 34.2502V24.226C39.6004 24.0136 39.5432 23.8049 39.4346 23.6223C39.3261 23.4396 39.1701 23.2897 38.9833 23.1884C38.7965 23.0872 38.5858 23.0382 38.3735 23.0469C38.1612 23.0556 37.9552 23.1215 37.7772 23.2376L33.3144 26.1448V24.5231C33.3144 23.6895 32.9833 22.8901 32.3939 22.3007C31.8045 21.7113 31.0051 21.3802 30.1715 21.3802H20.743ZM33.3144 28.0179L38.0287 24.9505V33.5258L33.3144 30.4615V28.0179ZM31.743 24.5231V33.9516C31.743 34.3684 31.5774 34.7681 31.2827 35.0628C30.988 35.3575 30.5883 35.5231 30.1715 35.5231H20.743C20.3262 35.5231 19.9265 35.3575 19.6318 35.0628C19.3371 34.7681 19.1715 34.3684 19.1715 33.9516V24.5231C19.1715 24.1063 19.3371 23.7066 19.6318 23.4119C19.9265 23.1172 20.3262 22.9516 20.743 22.9516H30.1715C30.5883 22.9516 30.988 23.1172 31.2827 23.4119C31.5774 23.7066 31.743 24.1063 31.743 24.5231ZM23.7161 16.7131C23.2586 16.8774 22.8124 17.0716 22.3804 17.2945C22.2244 17.3759 22.0713 17.4629 21.9215 17.5553L21.8932 17.5742L21.8838 17.5805L21.8807 17.5821L21.8791 17.5836C21.7055 17.6991 21.5849 17.8787 21.5438 18.0831C21.5027 18.2875 21.5444 18.4998 21.6599 18.6734C21.7753 18.847 21.955 18.9676 22.1594 19.0087C22.3637 19.0498 22.5761 19.0081 22.7497 18.8926L22.7607 18.8848L22.8251 18.8455C22.8848 18.8093 22.9807 18.7543 23.108 18.6883C23.3625 18.5548 23.7475 18.3741 24.252 18.1902C25.6474 17.693 27.1188 17.4431 28.6001 17.4516C30.4591 17.4516 31.9394 17.8225 32.9482 18.1902C33.4511 18.3741 33.8377 18.5548 34.0922 18.6883C34.2097 18.7498 34.325 18.8154 34.438 18.8848L34.4505 18.8911C34.5363 18.9519 34.6334 18.9948 34.736 19.0174C34.8387 19.04 34.9448 19.0418 35.0482 19.0227C35.1516 19.0035 35.25 18.9638 35.3378 18.9059C35.4255 18.848 35.5007 18.7731 35.559 18.6856C35.6172 18.5981 35.6574 18.4998 35.6769 18.3965C35.6965 18.2932 35.6952 18.1871 35.673 18.0843C35.6508 17.9816 35.6083 17.8843 35.5478 17.7983C35.4874 17.7123 35.4103 17.6393 35.3211 17.5836L35.3195 17.5821L35.3164 17.5805L35.307 17.5742L35.2771 17.5553C35.1273 17.4629 34.9743 17.3759 34.8182 17.2945C34.3867 17.0717 33.9411 16.8775 33.4841 16.7131C31.9169 16.1535 30.2641 15.8717 28.6001 15.8802C26.936 15.8717 25.2833 16.1535 23.7161 16.7131ZM23.7161 41.7616C24.868 42.1812 26.529 42.5945 28.6001 42.5945C30.2641 42.603 31.9169 42.3212 33.4841 41.7616C34.0608 41.5526 34.5102 41.3405 34.8198 41.1802C34.9753 41.0988 35.1279 41.0118 35.2771 40.9193L35.307 40.9005L35.3164 40.8942L35.3195 40.8926C35.3195 40.8926 35.3211 40.8911 34.8858 40.2373L35.3211 40.8911C35.4878 40.7728 35.6019 40.5943 35.6392 40.3933C35.6764 40.1923 35.6339 39.9848 35.5206 39.8146C35.4073 39.6445 35.2322 39.5252 35.0324 39.4821C34.8326 39.439 34.6239 39.4754 34.4505 39.5836L34.438 39.5915C34.325 39.6609 34.2097 39.7264 34.0922 39.7879C33.7222 39.9783 33.34 40.1442 32.9482 40.2845C31.5528 40.7816 30.0814 41.0316 28.6001 41.0231C27.1188 41.0316 25.6474 40.7816 24.252 40.2845C23.8602 40.1436 23.478 39.9772 23.108 39.7863C22.9905 39.7249 22.8752 39.6593 22.7622 39.5899L22.7497 39.5821C22.6637 39.5249 22.5674 39.4852 22.4661 39.4653C22.3648 39.4454 22.2606 39.4456 22.1594 39.466C22.0582 39.4863 21.962 39.5264 21.8763 39.5839C21.7906 39.6415 21.717 39.7153 21.6599 39.8013C21.6027 39.8872 21.563 39.9836 21.5431 40.0849C21.5232 40.1861 21.5234 40.2904 21.5438 40.3916C21.5641 40.4928 21.6042 40.5889 21.6618 40.6747C21.7193 40.7604 21.7931 40.8339 21.8791 40.8911L21.8807 40.8926L21.8838 40.8942L21.8932 40.9005L21.9215 40.9193L22.0205 40.979C22.5623 41.2865 23.1289 41.5477 23.7145 41.76" fill="#FF9518"/>
</svg>
