<svg width="55" height="56" viewBox="0 0 55 56" fill="none" xmlns="http://www.w3.org/2000/svg">
<circle cx="27.5" cy="27.979" r="27.5" fill="#D1D1D1" fill-opacity="0.2"/>
<path fill-rule="evenodd" clip-rule="evenodd" d="M34.1252 20.4735C33.987 20.3309 33.8762 20.1589 33.7994 19.9678C33.7225 19.7768 33.6812 19.5705 33.6778 19.3613C33.6745 19.1521 33.7092 18.9444 33.78 18.7504C33.8507 18.5564 33.956 18.3802 34.0895 18.2323C34.223 18.0843 34.3821 17.9677 34.5572 17.8894C34.7323 17.811 34.9199 17.7726 35.1087 17.7762C35.2975 17.7799 35.4837 17.8257 35.6562 17.9109C35.8287 17.996 35.984 18.1188 36.1127 18.2718L42.2064 25.0224L43.2002 26.1232L42.2064 27.2241L36.1127 33.9747C35.8461 34.2498 35.4935 34.3996 35.1292 34.3925C34.7649 34.3854 34.4173 34.2219 34.1597 33.9365C33.902 33.6511 33.7544 33.266 33.748 32.8624C33.7416 32.4588 33.8768 32.0683 34.1252 31.7729L37.8189 27.6811H19.2939C18.863 27.6811 18.4364 27.7751 18.0383 27.9578C17.6402 28.1404 17.2784 28.4082 16.9738 28.7457C16.6691 29.0832 16.4274 29.484 16.2625 29.925C16.0976 30.366 16.0127 30.8386 16.0127 31.316C16.0127 31.7933 16.0976 32.266 16.2625 32.707C16.4274 33.148 16.6691 33.5487 16.9738 33.8863C17.2784 34.2238 17.6402 34.4915 18.0383 34.6742C18.4364 34.8569 18.863 34.9509 19.2939 34.9509H23.0439C23.4169 34.9509 23.7746 35.115 24.0383 35.4072C24.302 35.6993 24.4502 36.0956 24.4502 36.5087C24.4502 36.9219 24.302 37.3181 24.0383 37.6103C23.7746 37.9024 23.4169 38.0665 23.0439 38.0665H19.2939C17.6778 38.0665 16.1278 37.3553 14.985 36.0893C13.8422 34.8234 13.2002 33.1063 13.2002 31.316C13.2002 29.5256 13.8422 27.8086 14.985 26.5426C16.1278 25.2766 17.6778 24.5654 19.2939 24.5654H37.8189L34.1252 20.4735Z" fill="#EC1A25"/>
</svg>
