<svg width="55" height="56" viewBox="0 0 55 56" fill="none" xmlns="http://www.w3.org/2000/svg">
<circle cx="27.5" cy="27.98" r="27.5" fill="#D1D1D1" fill-opacity="0.2"/>
<path d="M27.7359 34.8945L26.5172 36.1131L28.7471 38.3517H18.2286V22.7943H16.5V38.3517C16.5 39.305 17.2753 40.0803 18.2286 40.0803H28.7471L26.5172 42.3188L27.7359 43.5375L32.0574 39.216L27.7359 34.8945Z" fill="#87CCE9"/>
<path d="M24.2793 30.5731C24.7567 30.5731 25.1436 30.1861 25.1436 29.7088C25.1436 29.2314 24.7567 28.8445 24.2793 28.8445C23.802 28.8445 23.415 29.2314 23.415 29.7088C23.415 30.1861 23.802 30.5731 24.2793 30.5731Z" fill="#87CCE9"/>
<path d="M35.5154 33.166H21.6866C20.7333 33.166 19.958 32.3907 19.958 31.4374V27.9802C19.958 27.0269 20.7333 26.2516 21.6866 26.2516H35.5154C36.4687 26.2516 37.244 27.0269 37.244 27.9802V31.4374C37.244 32.3907 36.4687 33.166 35.5154 33.166ZM21.6866 27.9802V31.4374H35.5154V27.9802H21.6866Z" fill="#87CCE9"/>
<path d="M38.9723 19.3372H28.4538L30.6837 17.0987L29.465 15.88L25.1436 20.2015L29.465 24.523L30.6837 23.3043L28.4538 21.0658H38.9723V36.6231H40.7009V21.0658C40.7009 20.1133 39.9256 19.3372 38.9723 19.3372Z" fill="#87CCE9"/>
</svg>
