<svg width="55" height="56" viewBox="0 0 55 56" fill="none" xmlns="http://www.w3.org/2000/svg">
<circle cx="27.5" cy="27.979" r="27.5" fill="#D1D1D1" fill-opacity="0.2"/>
<path d="M31.6065 31.7143L27.2144 27.3222V19.9286H28.7858V26.67L32.7144 30.6064L31.6065 31.7143Z" fill="#3E8BB6" fill-opacity="0.5"/>
<path d="M28 16C26.5346 16.0002 25.0842 16.2945 23.7345 16.8654C22.3849 17.4362 21.1636 18.2721 20.1429 19.3236V16H18.5714V22.2857H24.8571V20.7143H20.9914C22.4654 19.0763 24.4666 18.0063 26.6474 17.6902C28.8282 17.3741 31.0508 17.8318 32.9292 18.9839C34.8077 20.1359 36.2233 21.9095 36.9302 23.9966C37.6371 26.0837 37.5907 28.3525 36.799 30.4089C36.0072 32.4653 34.5202 34.1795 32.5962 35.2537C30.6722 36.3279 28.4327 36.6943 26.2667 36.2892C24.1007 35.8841 22.145 34.7331 20.7392 33.0362C19.3335 31.3393 18.5665 29.2036 18.5714 27H17C17 29.1756 17.6451 31.3023 18.8538 33.1113C20.0625 34.9202 21.7805 36.3301 23.7905 37.1627C25.8005 37.9952 28.0122 38.2131 30.146 37.7886C32.2798 37.3642 34.2398 36.3165 35.7782 34.7782C37.3165 33.2398 38.3642 31.2798 38.7886 29.146C39.2131 27.0122 38.9952 24.8005 38.1627 22.7905C37.3301 20.7805 35.9202 19.0625 34.1113 17.8538C32.3023 16.6451 30.1756 16 28 16Z" fill="#3E8BB6" fill-opacity="0.5"/>
</svg>
