<svg width="55" height="56" viewBox="0 0 55 56" fill="none" xmlns="http://www.w3.org/2000/svg">
<circle cx="27.5" cy="27.98" r="27.5" fill="#D1D1D1" fill-opacity="0.2"/>
<path d="M20.9001 21.3802C20.0249 21.3802 19.1855 21.7113 18.5666 22.3007C17.9478 22.8901 17.6001 23.6895 17.6001 24.5231V33.9516C17.6001 34.7852 17.9478 35.5846 18.5666 36.174C19.1855 36.7634 20.0249 37.0945 20.9001 37.0945H30.8001C31.6753 37.0945 32.5147 36.7634 33.1335 36.174C33.7524 35.5846 34.1001 34.7852 34.1001 33.9516V32.3346L38.7877 35.2371C38.9744 35.3527 39.1904 35.4183 39.413 35.4268C39.6355 35.4353 39.8563 35.3864 40.0521 35.2854C40.248 35.1843 40.4115 35.0348 40.5256 34.8526C40.6396 34.6704 40.6999 34.4623 40.7001 34.2502V24.226C40.7004 24.0136 40.6404 23.8049 40.5264 23.6223C40.4124 23.4396 40.2486 23.2897 40.0525 23.1884C39.8563 23.0872 39.6351 23.0382 39.4122 23.0469C39.1892 23.0556 38.9729 23.1215 38.7861 23.2376L34.1001 26.1448V24.5231C34.1001 23.6895 33.7524 22.8901 33.1335 22.3007C32.5147 21.7113 31.6753 21.3802 30.8001 21.3802H20.9001ZM34.1001 28.0179L39.0501 24.9505V33.5258L34.1001 30.4615V28.0179ZM32.4501 24.5231V33.9516C32.4501 34.3684 32.2763 34.7681 31.9668 35.0628C31.6574 35.3575 31.2377 35.5231 30.8001 35.5231H20.9001C20.4625 35.5231 20.0428 35.3575 19.7334 35.0628C19.4239 34.7681 19.2501 34.3684 19.2501 33.9516V24.5231C19.2501 24.1063 19.4239 23.7066 19.7334 23.4119C20.0428 23.1172 20.4625 22.9516 20.9001 22.9516H30.8001C31.2377 22.9516 31.6574 23.1172 31.9668 23.4119C32.2763 23.7066 32.4501 24.1063 32.4501 24.5231ZM24.0219 16.7131C23.5415 16.8774 23.073 17.0716 22.6194 17.2945C22.4556 17.3759 22.2949 17.4629 22.1376 17.5553L22.1079 17.5742L22.098 17.5805L22.0947 17.5821L22.093 17.5836C21.9108 17.6991 21.7841 17.8787 21.741 18.0831C21.6978 18.2875 21.7417 18.4998 21.8629 18.6734C21.9841 18.847 22.1727 18.9676 22.3873 19.0087C22.6019 19.0498 22.8249 19.0081 23.0071 18.8926L23.0187 18.8848L23.0863 18.8455C23.149 18.8093 23.2497 18.7543 23.3833 18.6883C23.6506 18.5548 24.0549 18.3741 24.5845 18.1902C26.0497 17.693 27.5947 17.4431 29.1501 17.4516C31.102 17.4516 32.6563 17.8225 33.7156 18.1902C34.2436 18.3741 34.6495 18.5548 34.9168 18.6883C35.0402 18.7498 35.1612 18.8154 35.2798 18.8848L35.293 18.8911C35.3831 18.9519 35.485 18.9948 35.5928 19.0174C35.7006 19.04 35.8121 19.0418 35.9206 19.0227C36.0291 19.0035 36.1325 18.9638 36.2246 18.9059C36.3168 18.848 36.3958 18.7731 36.4569 18.6856C36.5181 18.5981 36.5602 18.4998 36.5808 18.3965C36.6014 18.2932 36.5999 18.1871 36.5767 18.0843C36.5534 17.9816 36.5087 17.8843 36.4452 17.7983C36.3817 17.7123 36.3008 17.6393 36.2071 17.5836L36.2055 17.5821L36.2022 17.5805L36.1923 17.5742L36.1609 17.5553C36.0037 17.4629 35.843 17.3759 35.6791 17.2945C35.2261 17.0717 34.7581 16.8775 34.2783 16.7131C32.6328 16.1535 30.8973 15.8717 29.1501 15.8802C27.4028 15.8717 25.6674 16.1535 24.0219 16.7131ZM24.0219 41.7616C25.2313 42.1812 26.9754 42.5945 29.1501 42.5945C30.8973 42.603 32.6328 42.3212 34.2783 41.7616C34.8838 41.5526 35.3557 41.3405 35.6808 41.1802C35.8441 41.0988 36.0043 41.0118 36.1609 40.9193L36.1923 40.9005L36.2022 40.8942L36.2055 40.8926C36.2055 40.8926 36.2071 40.8911 35.7501 40.2373L36.2071 40.8911C36.3822 40.7728 36.502 40.5943 36.5411 40.3933C36.5803 40.1923 36.5356 39.9848 36.4167 39.8146C36.2977 39.6445 36.1138 39.5252 35.904 39.4821C35.6943 39.439 35.4751 39.4754 35.293 39.5836L35.2798 39.5915C35.1613 39.6609 35.0402 39.7264 34.9168 39.7879C34.5283 39.9783 34.127 40.1442 33.7156 40.2845C32.2505 40.7816 30.7055 41.0316 29.1501 41.0231C27.5947 41.0316 26.0497 40.7816 24.5845 40.2845C24.1732 40.1436 23.7719 39.9772 23.3833 39.7863C23.26 39.7249 23.1389 39.6593 23.0203 39.5899L23.0071 39.5821C22.9169 39.5249 22.8157 39.4852 22.7094 39.4653C22.603 39.4454 22.4936 39.4456 22.3873 39.466C22.2811 39.4863 22.1801 39.5264 22.0901 39.5839C22.0001 39.6415 21.9229 39.7153 21.8629 39.8013C21.8029 39.8872 21.7612 39.9836 21.7403 40.0849C21.7194 40.1861 21.7196 40.2904 21.741 40.3916C21.7623 40.4928 21.8044 40.5889 21.8648 40.6747C21.9253 40.7604 22.0028 40.8339 22.093 40.8911L22.0947 40.8926L22.098 40.8942L22.1079 40.9005L22.1376 40.9193L22.2415 40.979C22.8104 41.2865 23.4054 41.5477 24.0202 41.76" fill="#1B9B10"/>
</svg>
