<svg width="55" height="56" viewBox="0 0 55 56" fill="none" xmlns="http://www.w3.org/2000/svg">
<circle cx="27.5" cy="27.98" r="27.5" fill="#D1D1D1" fill-opacity="0.2"/>
<path d="M17.4863 20.6161V37.6899C17.4863 38.7349 17.9014 39.7371 18.6404 40.476C19.3793 41.2149 20.3815 41.63 21.4264 41.63H34.5601C35.6051 41.63 36.6073 41.2149 37.3462 40.476C38.0851 39.7371 38.5002 38.7349 38.5002 37.6899V24.5562C38.5002 23.5112 38.0851 22.509 37.3462 21.7701C36.6073 21.0312 35.6051 20.6161 34.5601 20.6161H17.4863ZM17.4863 20.6161V19.3027" stroke="#43D1B7"/>
<path d="M27.9919 33.7496C30.1679 33.7496 31.932 31.9856 31.932 29.8095C31.932 27.6334 30.1679 25.8694 27.9919 25.8694C25.8158 25.8694 24.0518 27.6334 24.0518 29.8095C24.0518 31.9856 25.8158 33.7496 27.9919 33.7496Z" stroke="#43D1B7"/>
<path d="M35.8722 20.6162V21.6012H36.8572V20.6162H35.8722ZM18.8903 21.6012H35.8722V19.6312H18.8916L18.8903 21.6012ZM36.8572 20.6162V18.3913H34.8872V20.6162H36.8572ZM32.7346 14.8163L18.5541 16.8416L18.8325 18.7919L33.013 16.768L32.7346 14.8163ZM18.5541 16.8416C17.9838 16.9229 17.462 17.2073 17.0846 17.6426C16.7072 18.0779 16.4996 18.6348 16.5 19.2109H18.4701C18.4697 19.1092 18.5063 19.0108 18.5729 18.934C18.6396 18.8572 18.7318 18.8059 18.8325 18.7919L18.5541 16.8416ZM36.8572 18.3913C36.8572 17.8739 36.7459 17.3625 36.531 16.8918C36.3161 16.4211 36.0026 16.0021 35.6117 15.6631C35.2208 15.3241 34.7616 15.073 34.2652 14.927C33.7688 14.7809 33.2468 14.7432 32.7346 14.8163L33.013 16.768C33.2458 16.7347 33.4831 16.7505 33.7087 16.8169C33.9343 16.8832 34.1431 16.9973 34.3208 17.1514C34.4985 17.3054 34.6411 17.4959 34.7388 17.7098C34.8365 17.9237 34.8871 18.1561 34.8872 18.3913H36.8572ZM18.8916 19.6312C18.7798 19.6312 18.6726 19.5867 18.5935 19.5077C18.5145 19.4286 18.4701 19.3227 18.4701 19.2109H16.5C16.4998 19.525 16.5616 19.8348 16.6817 20.125C16.8018 20.4153 16.978 20.679 17.2001 20.9011C17.4222 21.1232 17.686 21.2994 17.9762 21.4195C18.2664 21.5396 18.5762 21.6014 18.8903 21.6012L18.8916 19.6312Z" fill="#43D1B7"/>
<path d="M25.3657 37.6898H30.6192" stroke="#43D1B7" stroke-linecap="round"/>
</svg>
