<svg width="140" height="137" viewBox="0 0 140 137" fill="none" xmlns="http://www.w3.org/2000/svg">
<path d="M33.7011 51.2472L33.4752 58.1393C33.4089 60.1615 34.97 61.7255 36.9607 61.6334L40.5784 61.4659C40.9239 64.7419 41.6166 67.8884 42.6226 70.8674L39.5669 72.7718C37.8118 73.8654 37.1483 76.1309 38.0855 77.8313L41.2774 83.6214C42.2129 85.3186 46.7304 86.3275 48.4807 85.2313L49.0324 82.8973C50.9669 85.4089 53.182 87.6738 55.6328 89.6508L53.9606 92.5239C52.9154 94.3199 53.4288 96.5177 55.1064 97.4325L60.8165 100.545C62.489 101.456 67.9189 101.598 68.9591 99.8052L67.3294 96.188C70.2942 97.2391 73.426 97.9545 76.6836 98.2982L76.5835 101.352C76.5178 103.356 78.0506 104.891 80.0058 104.783L86.6586 104.412C88.6069 104.304 90.2381 102.597 90.3036 100.599L90.4034 97.5545C93.6722 96.8588 96.8315 95.8073 99.8392 94.4421L101.245 97.0214C102.157 98.6949 107.756 99.5559 109.463 98.4686L111.801 94.3809C113.503 93.2965 114.147 91.0646 113.24 89.3936L111.787 86.7178C114.315 84.5071 116.626 82.0399 118.675 79.3611L121.374 80.8626C123.005 81.7698 127.835 82.2337 128.851 80.4669L129.623 73.2888C130.636 71.5251 130.14 69.3588 128.514 68.4486L125.677 66.8605C126.842 63.8297 127.714 60.6652 128.258 57.4065L131.742 57.2452C133.654 57.1567 135.256 55.4802 135.321 53.5002L135.542 46.7517C135.607 44.7717 134.111 43.2342 132.198 43.3172L128.51 43.4771C128.09 40.3434 127.35 37.3349 126.321 34.4853L129.696 32.3711C131.387 31.3117 132.027 29.0945 131.126 27.4166L131.769 20.7106C130.866 19.0298 125.046 19.5051 123.35 20.5614L119.798 22.7752C117.952 20.4574 115.863 18.3564 113.564 16.5069L115.753 12.736C116.772 10.979 116.273 8.79796 114.637 7.86373L112.203 4.20503C110.562 3.26797 105.247 4.40282 104.223 6.16314L101.974 10.0272C99.2315 9.05016 96.3436 8.35586 93.3394 7.98153L93.4844 3.55774C93.5499 1.55971 92.0259 -0.00581212 90.079 0.0604706L83.4309 0.286965C81.477 0.35347 79.8389 2.03147 79.7733 4.03516L79.6279 8.47144C76.571 9.06432 73.6031 9.97268 70.7569 11.1578L72.078 6.47762C71.1524 4.77298 65.6442 5.19644 63.907 6.2609L57.9757 9.89574C56.2332 10.9635 55.574 13.2144 56.5044 14.9213L58.4983 18.5802C56.0156 20.6339 53.7255 22.9307 51.6687 25.4327L51.8188 23.0882C50.1354 22.146 44.2491 23.203 43.1994 24.9893L39.6179 31.0832C38.5663 32.8727 39.083 35.0853 40.7714 36.0249L44.1358 37.896C42.8759 40.8916 41.9037 44.0268 41.2563 47.2636L37.4264 47.4298C35.4358 47.5162 33.7673 49.2251 33.7011 51.2472ZM50.6355 54.6232C51.2745 35.1241 67.2515 18.7087 86.216 17.9625C105.066 17.2208 119.75 32.2565 119.118 51.5423C118.486 70.8279 102.771 87.2309 83.9143 88.1855C64.9429 89.1459 49.9963 74.1223 50.6355 54.6232Z" fill="#E4EBF1"/>
<path d="M38.1566 51.1885L37.9307 58.0806C37.8645 60.1027 39.4256 61.6668 41.4162 61.5747L45.0339 61.4072C45.3794 64.6832 46.0721 67.8296 47.0781 70.8087L44.0224 72.7131C42.2672 73.8066 41.6037 76.0722 42.5409 77.7726L45.733 83.5627C46.6685 85.26 48.8463 85.7458 50.5965 84.6497L53.4879 82.8386C55.4224 85.3501 57.6374 87.6151 60.0882 89.5921L58.416 92.4651C57.3709 94.2611 57.8843 96.459 59.5619 97.3738L65.272 100.486C66.9445 101.398 69.143 100.683 70.1832 98.8898L71.7849 96.1293C74.7497 97.1804 77.8815 97.8958 81.139 98.2396L81.039 101.293C80.9733 103.297 82.5061 104.833 84.4612 104.724L91.1141 104.354C93.0622 104.245 94.6935 102.538 94.759 100.54L94.8588 97.4958C98.1275 96.8002 101.287 95.7487 104.295 94.3834L105.7 96.9628C106.612 98.6363 108.736 99.1103 110.444 98.023L116.256 94.3222C117.959 93.2378 118.603 91.0059 117.695 89.3349L116.242 86.659C118.77 84.4484 121.081 81.9811 123.13 79.3024L125.829 80.804C127.46 81.7111 129.605 81.0135 130.62 79.2467L134.078 73.2301C135.091 71.4664 134.595 69.3001 132.969 68.39L130.132 66.8019C131.298 63.7709 132.169 60.6065 132.713 57.3479L136.197 57.1866C138.11 57.0981 139.712 55.4216 139.777 53.4416L139.998 46.693C140.063 44.713 138.566 43.1755 136.653 43.2585L132.965 43.4186C132.546 40.2847 131.805 37.2763 130.776 34.4267L134.152 32.3124C135.842 31.2532 136.482 29.0359 135.582 27.3581L132.509 21.6343C131.606 19.9535 129.501 19.4465 127.806 20.5028L124.253 22.7167C122.408 20.3988 120.318 18.2979 118.02 16.4483L120.208 12.6774C121.228 10.9204 120.728 8.73933 119.092 7.80515L113.506 4.61514C111.864 3.67808 109.703 4.34424 108.678 6.10473L106.429 9.96878C103.687 8.99169 100.799 8.29739 97.7947 7.92301L97.9397 3.49933C98.0053 1.5013 96.4812 -0.0642839 94.5344 0.00199884L87.8862 0.228548C85.9324 0.295108 84.2943 1.97305 84.2287 3.97669L84.0833 8.41296C81.0264 9.00585 78.0585 9.91426 75.2123 11.0994L73.1831 7.36243C72.2575 5.65773 70.0996 5.13797 68.3623 6.20243L62.4311 9.83732C60.6885 10.9051 60.0293 13.1559 60.9597 14.8629L62.9537 18.5218C60.4709 20.5755 58.1809 22.8723 56.124 25.3742L52.604 23.4038C50.9205 22.4616 48.7044 23.1445 47.6547 24.9308L44.0732 31.0247C43.0216 32.8143 43.5383 35.0269 45.2268 35.9664L48.5912 37.8376C47.3312 40.8332 46.3589 43.9684 45.7116 47.2052L41.8817 47.3714C39.8914 47.4574 38.2229 49.1664 38.1566 51.1885ZM53.6384 54.6298C54.3046 34.3035 70.9593 17.1918 90.7284 16.4138C110.377 15.6406 125.685 31.3143 125.026 51.4181C124.367 71.522 107.985 88.6209 88.3291 89.6159C68.5527 90.6171 52.9721 74.9562 53.6384 54.6298Z" fill="#E4EBF1"/>
<path d="M67.845 124.848L91.6386 125.525V124.362L68.3945 123.719V114.431L67.2959 114.408V124.26C67.296 124.576 67.5418 124.839 67.845 124.848Z" fill="#E4EBF1"/>
<path d="M69.8741 72.8316L70.9765 72.8233V67.0542L80.6885 66.9423C80.9974 66.9388 81.2478 66.6774 81.2478 66.3585V55.1204L80.1297 55.1423V65.7949L70.425 65.9143C70.1207 65.9181 69.874 66.1776 69.874 66.494L69.8741 72.8316Z" fill="#E4EBF1"/>
<path d="M56.4478 46.3323L64.3273 46.1483V45.0075L56.4478 45.1971V46.3323Z" fill="#E4EBF1"/>
<path d="M59.4219 72.7239L60.5085 72.7156V66.6058C60.5085 66.2915 60.2651 66.0396 59.965 66.0433L48.7817 66.181V67.31L59.4219 67.1874V72.7239Z" fill="#E4EBF1"/>
<path d="M49.5131 99.0919L33.8838 99.2193V100.348L49.5131 100.231V99.0919Z" fill="#E4EBF1"/>
<path d="M42.3139 118.661L42.219 108.722H55.2493L55.2395 107.376H41.0117L41.1115 118.661H42.3139Z" fill="#E4EBF1"/>
<path d="M44.9217 92.8253L55.5992 73.3134C55.7887 72.9671 56.1391 72.7519 56.5184 72.749L78.3904 72.5814C78.7816 72.5784 79.1434 72.7916 79.3392 73.1407L90.5423 93.1175C90.7412 93.4721 90.7412 93.9074 90.5423 94.2594L79.3392 114.084C79.1434 114.43 78.7816 114.639 78.3904 114.63L56.5184 114.166C56.139 114.157 55.7886 113.938 55.5992 113.589L44.9217 93.9316C44.7351 93.588 44.7351 93.1663 44.9217 92.8253Z" fill="#E4EBF1"/>
<path d="M18.5302 37.5439L55.937 36.2975C56.5234 36.278 56.9991 36.7617 56.9991 37.3779V54.7032C56.9991 55.3194 56.5234 55.8283 55.937 55.8398L18.5302 56.5756C17.9746 56.5866 17.5244 56.1097 17.5244 55.5104V38.6625C17.5244 38.0633 17.9745 37.5625 18.5302 37.5439Z" fill="#E4EBF1"/>
<path d="M64.0508 37.1484V54.5589C64.0508 55.1784 64.5309 55.6709 65.1256 55.6586L83.077 55.3053L82.0091 51.4159L78.4909 49.4843L82.561 49.6223L77.3181 45.6211L77.3871 40.2402L75.4555 43.4136L73.1624 35.7231L65.1256 35.9908C64.5309 36.0115 64.0508 36.5289 64.0508 37.1484Z" fill="#E4EBF1"/>
<path d="M89.4686 113.574L123.367 114.294C124.014 114.308 124.538 114.843 124.538 115.49V133.679C124.538 134.326 124.013 134.832 123.367 134.809L89.4686 133.626C88.8518 133.605 88.3521 133.075 88.3521 132.444V114.693C88.3521 114.062 88.8518 113.56 89.4686 113.574Z" fill="#E4EBF1"/>
<path d="M44.3695 92.8264L55.047 73.3146C55.2365 72.9683 55.5869 72.7531 55.9662 72.7502L77.8382 72.5825C78.2294 72.5795 78.5912 72.7927 78.787 73.1418L89.9901 93.1186C90.189 93.4732 90.189 93.9086 89.9901 94.2605L78.787 114.085C78.5912 114.432 78.2294 114.64 77.8382 114.632L55.9662 114.167C55.5868 114.159 55.2364 113.939 55.047 113.59L44.3695 93.9328C44.1828 93.5893 44.1828 93.1675 44.3695 92.8264Z" fill="#E4EBF1"/>
<path opacity="0.31" d="M77.6661 113.188L88.6776 93.6809L77.6662 74.0239L56.1324 74.1676L45.603 93.3881L56.1325 112.752L77.6661 113.188Z" fill="white"/>
<path d="M17.9789 37.2681L55.3858 36.0217C55.9721 36.0021 56.4478 36.4859 56.4478 37.1021V54.4273C56.4478 55.0436 55.9721 55.5525 55.3858 55.564L17.9789 56.2998C17.4233 56.3107 16.9731 55.8338 16.9731 55.2345V38.3866C16.9731 37.7874 17.4233 37.2866 17.9789 37.2681Z" fill="#E4EBF1"/>
<path opacity="0.3" d="M55.0971 54.1521V37.4489L18.252 38.6401V54.9134L55.0971 54.1521Z" fill="white"/>
<path d="M88.9178 114.114L122.817 114.835C123.463 114.849 123.987 115.384 123.987 116.031V134.22C123.987 134.866 123.463 135.373 122.817 135.35L88.9178 134.167C88.301 134.145 87.8013 133.616 87.8013 132.985V115.234C87.8013 114.602 88.3009 114.101 88.9178 114.114Z" fill="#E4EBF1"/>
<path opacity="0.3" d="M122.498 133.851V116.316L89.2207 115.576V132.722L122.498 133.851Z" fill="white"/>
<path d="M76.7497 101.459L57.1388 101.515C56.2784 101.517 55.4776 101.051 55.0481 100.298C54.6188 99.5461 54.6188 98.6095 55.048 97.8532L64.7825 80.7067C65.2193 79.9381 66.0323 79.4513 66.9049 79.4364C67.779 79.4216 68.5937 79.8819 69.0306 80.638L78.9073 97.7289C79.3485 98.4927 79.3465 99.4442 78.9023 100.212C78.4578 100.979 77.6328 101.456 76.7497 101.459ZM66.9032 81.1669C66.6415 81.1711 66.3974 81.317 66.2661 81.5476L56.5119 98.7025C56.3829 98.9293 56.3828 99.2106 56.5118 99.4363C56.6407 99.6621 56.8811 99.8017 57.1392 99.8007L76.7529 99.7232C77.0176 99.7222 77.2648 99.5786 77.398 99.3487C77.5308 99.119 77.5313 98.8339 77.3992 98.6051L67.54 81.5275C67.409 81.3009 67.1652 81.1627 66.9032 81.1669Z" fill="white"/>
<path d="M67.9504 95.5509C67.7017 95.3105 67.3506 95.1919 66.8969 95.195C66.427 95.1982 66.0693 95.3188 65.8238 95.5568C65.5781 95.7947 65.455 96.1443 65.4546 96.6057C65.4542 97.0507 65.5793 97.3948 65.83 97.6376C66.0807 97.8807 66.4355 98.0013 66.8941 97.9989C67.342 97.9966 67.6922 97.8697 67.944 97.6182C68.1958 97.3666 68.3222 97.0234 68.3227 96.5886C68.3232 96.1374 68.1991 95.7916 67.9504 95.5509Z" fill="white"/>
<path d="M66.3528 93.8222L67.4611 93.8136C67.7113 93.8116 67.918 93.592 67.9313 93.3404L68.3089 86.2005C68.3157 86.0706 68.2694 85.9619 68.1805 85.8688C68.0918 85.7757 67.9684 85.7415 67.8393 85.7431L65.9918 85.767C65.8631 85.7687 65.7399 85.8008 65.6512 85.8961C65.5626 85.9913 65.516 86.1071 65.5226 86.2366L65.8847 93.3626C65.8975 93.6136 66.103 93.8241 66.3528 93.8222Z" fill="white"/>
<path d="M18.8113 62.331L47.8656 61.8838C48.4302 61.8751 48.8883 62.3516 48.8883 62.9482V79.7207C48.8883 80.3172 48.4302 80.8016 47.8656 80.8026L18.8113 80.8533C18.2706 80.8542 17.8325 80.3822 17.8325 79.799V63.402C17.8325 62.8188 18.2705 62.3393 18.8113 62.331Z" fill="#E4EBF1"/>
<path d="M18.2742 62.0625L47.3285 61.6153C47.8931 61.6067 48.3512 62.0832 48.3512 62.6797V79.4522C48.3512 80.0488 47.8931 80.5333 47.3285 80.5342L18.2742 80.5848C17.7334 80.5858 17.2954 80.1137 17.2954 79.5305V63.1335C17.2954 62.5504 17.7334 62.0709 18.2742 62.0625Z" fill="#E4EBF1"/>
<path opacity="0.3" d="M47.0507 79.1624V62.9919L18.54 63.4025V79.2403L47.0507 79.1624Z" fill="white"/>
<path d="M69.8032 26.1132L82.2939 30.6039L86.8134 18.0059L87.9828 19.7489L85.6736 37.8496L74.3549 35.107L73.1854 33.364L69.8032 26.1132Z" fill="#E4EBF1"/>
<path d="M10.0996 72.0776L10.1321 72.0618C5.52966 63.2815 4.2447 52.8931 6.93026 42.8448C12.6705 21.3662 34.6776 8.50172 55.9877 14.1674C66.5584 16.9779 75.2997 23.8215 80.601 33.4374C81.3416 34.7807 83.0271 35.2598 84.3657 34.5074C85.7043 33.7549 86.1889 32.0556 85.4483 30.7128C79.4135 19.7661 69.4624 11.9757 57.4286 8.77606C33.1689 2.32616 8.11596 16.9714 1.58106 41.4227C0.770461 44.4559 0.277783 47.5147 0.0886497 50.5611C-0.839919 65.5201 5.56108 80.1401 17.6538 89.5197C18.1843 89.9313 18.8173 90.1176 19.4399 90.094L10.0996 72.0776Z" fill="#E4EBF1"/>
<path d="M70.9731 27.8563L83.4637 32.347L87.9833 19.749L91.3654 26.9998L86.8435 39.5928L74.3553 35.1071L70.9731 27.8563Z" fill="#E4EBF1"/>
<path d="M11.2691 73.8205L11.3015 73.8047C6.69904 65.0245 5.41413 54.6361 8.09964 44.5877C13.8399 23.1092 35.8469 10.2447 57.1571 15.9103C67.7278 18.7209 76.4691 25.5645 81.7704 35.1803C82.511 36.5236 84.1965 37.0027 85.5351 36.2504C86.8737 35.4979 87.3583 33.7985 86.6177 32.4557C80.5828 21.509 70.6318 13.7186 58.598 10.519C34.3384 4.06905 9.2854 18.7142 2.7505 43.1656C1.93989 46.1988 1.44722 49.2576 1.25808 52.304C0.329515 67.263 6.73052 81.8831 18.8232 91.2626C19.3538 91.6742 19.9868 91.8605 20.6094 91.8369L11.2691 73.8205Z" fill="#E4EBF1"/>
<path d="M101.605 104.793L101.745 107.028C101.745 107.028 101.428 107.364 100.818 107.13L100.151 104.936L101.605 104.793Z" fill="#E4EBF1"/>
<path d="M101.326 106.436C101.326 106.436 102.42 106.882 102.208 107.366C102.094 107.626 101.699 108.213 101.358 108.701C101.042 109.153 100.472 109.353 99.9441 109.195C99.7669 109.141 99.5858 109.09 99.4254 109.048C99.0937 108.963 99.0743 108.499 99.3973 108.385C99.554 108.33 99.7091 108.285 99.8443 108.264C100.245 108.203 100.796 107.256 100.861 106.877C100.925 106.498 101.326 106.436 101.326 106.436Z" fill="#E4EBF1"/>
<path d="M103.956 83.3482C102.344 83.9044 96.3838 86.1574 95.0561 91.3253C94.9852 91.6012 94.8035 92.3684 94.7952 93.6215C94.761 98.8376 97.7942 103.252 100 105.82C100.696 105.809 101.391 105.797 102.087 105.785C102.434 104.454 102.753 102.463 102.254 100.222C101.491 96.7982 99.5113 95.91 99.893 94.2293C100.586 91.1772 107.673 91.6389 108.341 88.9059C108.582 87.9187 108.052 86.2433 103.956 83.3482Z" fill="#E4EBF1"/>
<path d="M123.892 114.576L120.865 114.506C120.679 114.502 120.599 114.269 120.742 114.149C120.882 114.031 121.077 113.934 121.326 113.96C121.901 114.02 123.192 113.215 123.778 113.387C123.97 113.444 124.125 113.894 124.205 114.019C124.361 114.263 124.182 114.583 123.892 114.576Z" fill="#E4EBF1"/>
<path d="M122.532 112.251L123.778 113.387C123.778 113.387 123.343 113.712 122.708 113.573L121.435 112.696L122.532 112.251Z" fill="#E4EBF1"/>
<g opacity="0.3">
<path d="M98.6086 96.8063C97.7727 94.5494 96.7703 91.7667 97.9152 90.1867C99.0738 88.5878 101.612 89.9374 104.158 88.649C105.103 88.1711 106.074 87.3159 106.881 85.768C108.311 87.2438 108.505 88.2343 108.341 88.9059C107.673 91.6389 100.586 91.1772 99.8926 94.2293C99.5109 95.91 101.49 96.7982 102.253 100.222C102.682 102.149 102.506 103.889 102.228 105.186C101.98 103.982 101.595 102.717 101.005 101.44C100.092 99.4615 99.4893 99.1839 98.6086 96.8063Z" fill="#E4EBF1"/>
</g>
<path d="M103.032 82.6965C104.013 87.2006 106.104 94.0781 110.893 101.257C114.439 106.572 118.334 110.358 121.389 112.888C121.607 112.953 121.977 113.033 122.431 112.977C122.769 112.935 123.036 112.834 123.216 112.748C123.006 111.478 122.562 109.602 121.509 107.576C119.583 103.869 117.868 103.988 115.934 100.716C114.517 98.3203 114.057 95.7751 113.135 90.685C112.424 86.7545 112.424 85.815 111.45 84.688C109.48 82.4094 105.783 82.3836 103.032 82.6965Z" fill="#E4EBF1"/>
<g opacity="0.3">
<path d="M120.771 108.414C120.084 107.33 118.864 106.2 116.458 103.971C113.972 101.668 114.068 102.084 113.578 101.404C111.387 98.3566 112.574 95.1005 112.032 91.171C111.73 88.9787 110.762 86.1138 107.943 82.9048C109.264 83.1483 110.529 83.6721 111.45 84.6879C112.58 85.9352 112.497 87.1566 113.135 90.6849C114.057 95.775 114.517 98.3201 115.934 100.716C117.868 103.988 119.583 103.869 121.51 107.576C122.562 109.602 123.006 111.478 123.216 112.748C123.036 112.833 122.769 112.935 122.431 112.977C122.164 113.01 121.926 112.995 121.731 112.965C121.89 110.388 121.12 108.965 120.771 108.414Z" fill="#E4EBF1"/>
</g>
<path d="M100.383 53.428C100.383 53.428 99.5775 59.4288 105.901 63.6598L99.1722 65.2647C99.1722 65.2647 97.0186 61.238 98.5777 54.5681L100.383 53.428Z" fill="#E4EBF1"/>
<path d="M99.1996 54.5681C99.1996 54.5681 98.8371 53.673 98.8955 53.27C98.954 52.867 99.9133 52.3293 100.567 51.774C101.221 51.2186 100.543 52.3325 100.391 52.5859C100.239 52.8393 99.7051 53.2193 99.7818 54.0808L99.1996 54.5681Z" fill="#E4EBF1"/>
<path d="M106.728 59.1363C106.398 58.4855 106.261 58.4893 106.18 58.1458C105.995 57.363 106.473 56.3688 106.878 56.355C107.139 56.3461 107.16 56.7519 107.713 57.3844C108.39 58.1591 108.801 58.0575 109.199 58.7301C109.292 58.8874 109.711 59.5955 109.454 60.1241C109.124 60.7986 107.827 60.9054 107.284 60.3851C107.027 60.1384 107.135 59.9381 106.728 59.1363Z" fill="#E4EBF1"/>
<path d="M107.701 59.8386C107.701 59.8386 107.469 61.0755 107.634 62.0812C107.783 62.9901 109.467 63.9343 109.79 64.2051C110.112 64.4758 108.934 64.7697 107.852 64.6281C106.771 64.4866 103.811 63.5393 103.361 63.0114C102.911 62.4834 103.885 62.7436 104.704 62.6436C105.522 62.5436 106.304 61.1713 106.328 60.4708C106.352 59.7703 107.701 59.8386 107.701 59.8386Z" fill="#E4EBF1"/>
<path d="M107.349 60.7618C107.349 60.7618 106.521 61.1252 105.788 60.539C105.131 60.0141 106.107 58.4016 106.775 58.381C106.998 58.3741 107.323 58.5337 107.515 58.7672C107.628 58.9051 107.635 58.997 107.825 59.2188C108 59.4232 108.077 59.4417 108.103 59.541C108.137 59.6652 108.079 59.8728 107.63 60.2297C107.854 60.1884 108.047 60.2474 108.122 60.378C108.134 60.3988 108.158 60.4639 108.151 60.5311C108.124 60.7744 107.806 60.8871 107.349 60.7618Z" fill="#E4EBF1"/>
<path d="M89.1582 56.4596C89.1582 56.4596 88.6569 56.3897 88.8132 55.4324C88.9357 54.6819 88.843 54.4296 88.6658 54.5626C88.4887 54.6957 88.4636 55.1293 88.4636 55.1293C88.4636 55.1293 87.8175 54.5782 87.5514 53.856C87.2854 53.1339 87.1143 53.7419 87.0573 54.1031C87.0003 54.4641 87.4374 55.5854 87.6845 55.7945C87.9315 56.0035 88.2926 56.9248 88.2926 56.9248L89.1582 56.4596Z" fill="#E4EBF1"/>
<path d="M87.8223 56.7161C88.3924 56.3167 88.9627 55.9175 89.533 55.5181C90.2268 59.7832 91.8039 61.4571 93.1434 62.1893C96.375 63.9557 99.2591 60.808 105.445 62.0925C107.149 62.4464 110.12 63.1058 111.768 65.534C112.201 66.1723 112.355 66.6556 113.074 71.2344C113.993 77.0874 114.026 78.1089 113.896 79.3691C113.659 81.6754 113.515 83.0731 112.452 84.3101C109.628 87.5951 103.626 85.9014 102.874 85.6784C101.484 85.2667 99.323 84.6267 98.4647 82.7898C98.0608 81.9256 98.1037 81.1354 98.7245 77.9747C99.9541 71.7138 100.111 71.3086 99.768 70.6229C98.6097 68.3092 94.9396 69.6331 91.8392 67.4814C90.0263 66.2236 87.983 63.482 87.8223 56.7161Z" fill="#E4EBF1"/>
<path opacity="0.3" d="M105.686 84.8424C105.081 83.6011 105.894 82.4573 105.002 80.9655C103.865 79.0642 101.819 79.7098 101.049 78.3049C99.7324 75.9024 104.915 72.5517 103.862 68.7268C103.359 66.9006 101.603 65.5787 100.137 65.078C96.8809 63.9662 94.7512 66.8002 91.6988 65.9141C90.9754 65.7041 90.145 65.2689 89.3052 64.3659C90.0474 65.932 90.9694 66.8782 91.8388 67.4816C94.9392 69.6332 98.6092 68.3093 99.7676 70.623C100.111 71.3087 99.9537 71.7139 98.7241 77.9749C98.1033 81.1355 98.0604 81.9257 98.4643 82.7899C99.3226 84.6268 101.483 85.2668 102.873 85.6785C103.285 85.8006 105.27 86.3617 107.446 86.3073C106.475 85.913 105.953 85.3899 105.686 84.8424Z" fill="#E4EBF1"/>
<path d="M86.792 47.7682L88.1876 50.9585L87.6061 54.6754L94.5808 58.8484C95.11 59.1732 95.8171 59.0039 96.1597 58.4697L105.788 43.4616C106.13 42.9286 105.975 42.2374 105.442 41.9195L93.4376 34.7705L91.4976 44.394L89.0055 38.697L86.792 47.7682Z" fill="#E4EBF1"/>
<path d="M3.80643 89.7957L34.5412 89.3226C35.1384 89.3134 35.6231 89.8176 35.6231 90.4486V108.191C35.6231 108.822 35.1385 109.335 34.5412 109.336L3.80643 109.389C3.23437 109.39 2.771 108.891 2.771 108.274V90.9286C2.771 90.3117 3.23437 89.8045 3.80643 89.7957Z" fill="#E4EBF1"/>
<path d="M3.23807 89.5115L33.9729 89.0385C34.5701 89.0292 35.0547 89.5334 35.0547 90.1644V107.907C35.0547 108.538 34.5701 109.051 33.9729 109.052L3.23807 109.105C2.666 109.106 2.20264 108.607 2.20264 107.99V90.6445C2.20264 90.0276 2.666 89.5204 3.23807 89.5115Z" fill="#E4EBF1"/>
<path opacity="0.3" d="M33.6792 107.6V90.4947L3.51953 90.9291V107.683L33.6792 107.6Z" fill="white"/>
<path d="M32.6226 107.868C32.477 107.868 32.3588 107.75 32.3584 107.604C32.358 107.458 32.476 107.34 32.6219 107.339L33.4151 107.337V106.544C33.4151 106.398 33.5335 106.279 33.6793 106.279C33.8252 106.279 33.9435 106.398 33.9435 106.544V107.6C33.9435 107.746 33.8257 107.864 33.6801 107.865L32.6233 107.867C32.623 107.868 32.6227 107.868 32.6226 107.868Z" fill="white"/>
<path d="M33.6792 104.666C33.5333 104.666 33.415 104.548 33.415 104.402V102.26C33.415 102.114 33.5334 101.996 33.6792 101.996C33.8251 101.996 33.9434 102.114 33.9434 102.26V104.402C33.9434 104.548 33.8251 104.666 33.6792 104.666ZM33.6792 100.383C33.5333 100.383 33.415 100.264 33.415 100.118V97.9768C33.415 97.8309 33.5334 97.7126 33.6792 97.7126C33.8251 97.7126 33.9434 97.8309 33.9434 97.9768V100.118C33.9434 100.264 33.8251 100.383 33.6792 100.383ZM33.6792 96.0991C33.5333 96.0991 33.415 95.9808 33.415 95.835V93.6933C33.415 93.5474 33.5334 93.4292 33.6792 93.4292C33.8251 93.4292 33.9434 93.5474 33.9434 93.6933V95.835C33.9434 95.9808 33.8251 96.0991 33.6792 96.0991Z" fill="white"/>
<path d="M33.6793 91.8154C33.5334 91.8154 33.4151 91.6972 33.4151 91.5513V90.7626L32.6265 90.774C32.4759 90.7706 32.3605 90.6596 32.3584 90.5137C32.3564 90.3678 32.4729 90.2478 32.6189 90.2458L33.6755 90.2306C33.7478 90.2258 33.8144 90.2569 33.8648 90.3065C33.9152 90.3561 33.9435 90.424 33.9435 90.4946V91.5513C33.9435 91.6972 33.8252 91.8154 33.6793 91.8154Z" fill="white"/>
<path d="M6.73291 91.1469C6.58879 91.1469 6.47088 91.0312 6.46878 90.8866C6.46678 90.7407 6.58324 90.6206 6.72913 90.6186L8.88654 90.5875C9.03143 90.5837 9.1525 90.7019 9.1545 90.8477C9.15667 90.9936 9.04009 91.1137 8.8942 91.1157L6.73679 91.1469C6.73552 91.1469 6.73418 91.1469 6.73291 91.1469ZM11.0477 91.0848C10.9036 91.0848 10.7857 90.9691 10.7836 90.8245C10.7816 90.6787 10.8981 90.5586 11.0439 90.5566L13.2014 90.5254C13.3525 90.5214 13.4673 90.6398 13.4693 90.7857C13.4715 90.9316 13.3549 91.0516 13.209 91.0536L11.0516 91.0848C11.0504 91.0848 11.049 91.0848 11.0477 91.0848ZM15.3625 91.0226C15.2184 91.0226 15.1005 90.9069 15.0985 90.7623C15.0964 90.6164 15.2129 90.4963 15.3588 90.4943L17.5162 90.4632C17.6632 90.459 17.7822 90.5776 17.7842 90.7234C17.7864 90.8693 17.6698 90.9894 17.5239 90.9914L15.3665 91.0225C15.3652 91.0226 15.3638 91.0226 15.3625 91.0226ZM19.6774 90.9605C19.5332 90.9605 19.4153 90.8448 19.4133 90.7002C19.4111 90.5544 19.5277 90.4343 19.6736 90.4323L21.831 90.4011C21.9738 90.3968 22.097 90.5156 22.099 90.6614C22.1011 90.8073 21.9846 90.9273 21.8388 90.9293L19.6814 90.9605C19.68 90.9605 19.6786 90.9605 19.6774 90.9605ZM23.9922 90.8983C23.848 90.8983 23.7301 90.7826 23.7281 90.638C23.7259 90.4921 23.8426 90.3721 23.9884 90.3701L26.1458 90.3389C26.2948 90.3344 26.4118 90.4533 26.4139 90.5992C26.4159 90.745 26.2994 90.8651 26.1535 90.8671L23.9961 90.8982C23.9948 90.8983 23.9935 90.8983 23.9922 90.8983ZM28.307 90.8363C28.1629 90.8363 28.045 90.7206 28.043 90.576C28.0408 90.4301 28.1574 90.31 28.3033 90.308L30.4607 90.2769C30.6056 90.2721 30.7266 90.3913 30.7287 90.5371C30.7307 90.683 30.6143 90.8031 30.4684 90.8051L28.311 90.8363C28.3097 90.8363 28.3083 90.8363 28.307 90.8363Z" fill="white"/>
<path d="M3.51907 92.2501C3.37318 92.2501 3.25488 92.1319 3.25488 91.986V90.9291C3.25488 90.7847 3.37085 90.667 3.51535 90.665L4.57193 90.6498C4.57332 90.6498 4.5746 90.6498 4.57588 90.6498C4.71999 90.6498 4.8379 90.7655 4.84001 90.91C4.84201 91.0559 4.72554 91.176 4.57954 91.178L3.78337 91.1895V91.9859C3.78326 92.1319 3.66496 92.2501 3.51907 92.2501Z" fill="white"/>
<path d="M3.51907 104.799C3.37318 104.799 3.25488 104.681 3.25488 104.535V102.443C3.25488 102.297 3.37324 102.179 3.51907 102.179C3.6649 102.179 3.78326 102.297 3.78326 102.443V104.535C3.78326 104.681 3.66496 104.799 3.51907 104.799ZM3.51907 100.616C3.37318 100.616 3.25488 100.498 3.25488 100.352V98.2602C3.25488 98.1143 3.37324 97.9961 3.51907 97.9961C3.6649 97.9961 3.78326 98.1143 3.78326 98.2602V100.352C3.78326 100.498 3.66496 100.616 3.51907 100.616ZM3.51907 96.433C3.37318 96.433 3.25488 96.3147 3.25488 96.1689V94.0773C3.25488 93.9314 3.37324 93.8132 3.51907 93.8132C3.6649 93.8132 3.78326 93.9314 3.78326 94.0773V96.1689C3.78326 96.3147 3.66496 96.433 3.51907 96.433Z" fill="white"/>
<path d="M3.51913 107.947C3.44918 107.947 3.38212 107.919 3.3326 107.87C3.2828 107.82 3.25488 107.753 3.25488 107.683V106.626C3.25488 106.48 3.37324 106.362 3.51907 106.362C3.6649 106.362 3.78326 106.48 3.78326 106.626V107.418L4.57504 107.416C4.57532 107.416 4.57549 107.416 4.57576 107.416C4.72137 107.416 4.8395 107.533 4.83995 107.679C4.84034 107.825 4.72237 107.944 4.57649 107.944L3.51974 107.947C3.51957 107.947 3.5194 107.947 3.51913 107.947Z" fill="white"/>
<path d="M6.73392 107.938C6.58831 107.938 6.47017 107.82 6.46973 107.675C6.46934 107.529 6.58731 107.41 6.73319 107.41L8.8906 107.404C8.89088 107.404 8.89116 107.404 8.89132 107.404C9.03693 107.404 9.15507 107.522 9.15551 107.667C9.1559 107.813 9.03793 107.932 8.89205 107.932L6.73464 107.938C6.73436 107.938 6.73408 107.938 6.73392 107.938ZM11.0487 107.926C10.9031 107.926 10.785 107.809 10.7845 107.663C10.7842 107.517 10.9021 107.399 11.048 107.398L13.2053 107.392C13.2056 107.392 13.2058 107.392 13.206 107.392C13.3516 107.392 13.4698 107.51 13.4702 107.655C13.4706 107.801 13.3526 107.92 13.2068 107.92L11.0495 107.926C11.0492 107.926 11.049 107.926 11.0487 107.926ZM15.3635 107.915C15.2179 107.915 15.0998 107.797 15.0993 107.651C15.0989 107.505 15.2169 107.387 15.3628 107.386L17.5202 107.38C17.5205 107.38 17.5206 107.38 17.5209 107.38C17.6665 107.38 17.7846 107.498 17.7851 107.644C17.7855 107.79 17.6675 107.908 17.5216 107.909L15.3642 107.915C15.3639 107.915 15.3638 107.915 15.3635 107.915ZM19.6783 107.903C19.5327 107.903 19.4146 107.785 19.4141 107.639C19.4137 107.494 19.5317 107.375 19.6776 107.375L21.835 107.369C21.8353 107.369 21.8354 107.369 21.8357 107.369C21.9813 107.369 22.0995 107.486 22.0999 107.632C22.1003 107.778 21.9823 107.897 21.8364 107.897L19.679 107.903C19.6788 107.903 19.6786 107.903 19.6783 107.903ZM23.993 107.891C23.8474 107.891 23.7293 107.773 23.7288 107.628C23.7284 107.482 23.8464 107.363 23.9923 107.363L26.1497 107.357C26.15 107.357 26.1501 107.357 26.1504 107.357C26.296 107.357 26.4142 107.475 26.4146 107.62C26.415 107.766 26.297 107.885 26.1511 107.885L23.9937 107.891C23.9935 107.891 23.9933 107.891 23.993 107.891ZM28.3079 107.879C28.1623 107.879 28.0441 107.762 28.0437 107.616C28.0433 107.47 28.1613 107.351 28.3072 107.351L30.4646 107.345C30.4649 107.345 30.4651 107.345 30.4653 107.345C30.6109 107.345 30.729 107.463 30.7295 107.609C30.7299 107.754 30.6119 107.873 30.466 107.873L28.3086 107.879C28.3083 107.879 28.3081 107.879 28.3079 107.879Z" fill="white"/>
<path d="M20.4763 116.966L51.2112 116.493C51.8084 116.483 52.2929 116.988 52.2929 117.619V135.361C52.2929 135.992 51.8084 136.505 51.2112 136.506L20.4763 136.559C19.9043 136.56 19.4409 136.061 19.4409 135.444V118.099C19.441 117.482 19.9043 116.974 20.4763 116.966Z" fill="#E4EBF1"/>
<path d="M19.908 116.682L50.6428 116.209C51.24 116.199 51.7246 116.704 51.7246 117.335V135.077C51.7246 135.708 51.2401 136.221 50.6428 136.222L19.908 136.275C19.3359 136.276 18.8726 135.777 18.8726 135.16V117.815C18.8726 117.198 19.3359 116.69 19.908 116.682Z" fill="#E4EBF1"/>
<path opacity="0.3" d="M50.3491 134.771V117.665L20.1895 118.099V134.853L50.3491 134.771Z" fill="white"/>
<path d="M49.292 135.037C49.1464 135.037 49.0283 134.92 49.0278 134.774C49.0274 134.628 49.1454 134.51 49.2913 134.509L50.0846 134.507V133.714C50.0846 133.568 50.2029 133.45 50.3488 133.45C50.4946 133.45 50.613 133.568 50.613 133.714V134.77C50.613 134.916 50.4951 135.034 50.3495 135.034L49.2927 135.037C49.2925 135.037 49.2923 135.037 49.292 135.037Z" fill="white"/>
<path d="M50.3491 131.836C50.2033 131.836 50.085 131.718 50.085 131.572V129.431C50.085 129.285 50.2033 129.166 50.3491 129.166C50.495 129.166 50.6133 129.285 50.6133 129.431V131.572C50.6133 131.718 50.495 131.836 50.3491 131.836ZM50.3491 127.553C50.2033 127.553 50.085 127.435 50.085 127.289V125.147C50.085 125.001 50.2033 124.883 50.3491 124.883C50.495 124.883 50.6133 125.001 50.6133 125.147V127.289C50.6133 127.435 50.495 127.553 50.3491 127.553ZM50.3491 123.269C50.2033 123.269 50.085 123.151 50.085 123.005V120.863C50.085 120.718 50.2033 120.599 50.3491 120.599C50.495 120.599 50.6133 120.718 50.6133 120.863V123.005C50.6133 123.151 50.495 123.269 50.3491 123.269Z" fill="white"/>
<path d="M50.3487 118.986C50.2028 118.986 50.0845 118.868 50.0845 118.722V117.933L49.2958 117.944C49.1469 117.944 49.03 117.83 49.0279 117.684C49.0259 117.538 49.1424 117.418 49.2883 117.416L50.345 117.401C50.4159 117.396 50.4838 117.427 50.5342 117.477C50.5846 117.526 50.6129 117.594 50.6129 117.665V118.722C50.6129 118.868 50.4945 118.986 50.3487 118.986Z" fill="white"/>
<path d="M23.4033 118.317C23.2591 118.317 23.1413 118.201 23.1392 118.057C23.1372 117.911 23.2537 117.791 23.3995 117.789L25.5569 117.758C25.7034 117.757 25.8229 117.872 25.8249 118.018C25.8271 118.164 25.7105 118.284 25.5647 118.286L23.4073 118.317C23.406 118.317 23.4046 118.317 23.4033 118.317ZM27.7182 118.255C27.574 118.255 27.4562 118.139 27.4541 117.995C27.4521 117.849 27.5685 117.729 27.7144 117.727L29.8718 117.696C30.0142 117.694 30.1378 117.81 30.1398 117.956C30.142 118.102 30.0254 118.222 29.8795 118.224L27.7221 118.255C27.7208 118.255 27.7195 118.255 27.7182 118.255ZM32.033 118.193C31.8888 118.193 31.771 118.077 31.769 117.932C31.7669 117.786 31.8834 117.666 32.0292 117.664L34.1866 117.633C34.3352 117.632 34.4525 117.748 34.4546 117.893C34.4568 118.039 34.3402 118.159 34.1944 118.161L32.0369 118.193C32.0357 118.193 32.0343 118.193 32.033 118.193ZM36.3478 118.131C36.2037 118.131 36.0858 118.015 36.0838 117.87C36.0816 117.724 36.1982 117.604 36.344 117.602L38.5015 117.571C38.6458 117.57 38.7674 117.686 38.7694 117.831C38.7715 117.977 38.655 118.097 38.5092 118.099L36.3518 118.131C36.3505 118.131 36.3491 118.131 36.3478 118.131ZM40.6626 118.068C40.5185 118.068 40.4006 117.953 40.3986 117.808C40.3964 117.662 40.513 117.542 40.6589 117.54L42.8163 117.509C42.9669 117.507 43.0822 117.623 43.0843 117.769C43.0863 117.915 42.9698 118.035 42.8239 118.037L40.6665 118.068C40.6653 118.068 40.6639 118.068 40.6626 118.068ZM44.9775 118.006C44.8333 118.006 44.7154 117.891 44.7134 117.746C44.7112 117.6 44.8278 117.48 44.9737 117.478L47.1311 117.447C47.2775 117.445 47.397 117.561 47.3991 117.707C47.4011 117.853 47.2846 117.973 47.1388 117.975L44.9813 118.006C44.9801 118.006 44.9787 118.006 44.9775 118.006Z" fill="white"/>
<path d="M20.19 119.42C20.0441 119.42 19.9258 119.302 19.9258 119.156V118.099C19.9258 117.955 20.0418 117.837 20.1862 117.835L21.2429 117.82C21.3934 117.819 21.5087 117.934 21.5108 118.08C21.5128 118.226 21.3963 118.346 21.2504 118.348L20.4542 118.36V119.156C20.4542 119.302 20.3358 119.42 20.19 119.42Z" fill="white"/>
<path d="M20.19 131.969C20.0441 131.969 19.9258 131.851 19.9258 131.705V129.613C19.9258 129.468 20.0441 129.349 20.19 129.349C20.3358 129.349 20.4542 129.468 20.4542 129.613V131.705C20.4542 131.851 20.3358 131.969 20.19 131.969ZM20.19 127.786C20.0441 127.786 19.9258 127.668 19.9258 127.522V125.43C19.9258 125.284 20.0441 125.166 20.19 125.166C20.3358 125.166 20.4542 125.284 20.4542 125.43V127.522C20.4542 127.668 20.3358 127.786 20.19 127.786ZM20.19 123.603C20.0441 123.603 19.9258 123.485 19.9258 123.339V121.247C19.9258 121.102 20.0441 120.983 20.19 120.983C20.3358 120.983 20.4542 121.102 20.4542 121.247V123.339C20.4542 123.485 20.3358 123.603 20.19 123.603Z" fill="white"/>
<path d="M20.19 135.117C20.1201 135.117 20.053 135.09 20.0035 135.04C19.9537 134.991 19.9258 134.923 19.9258 134.853V133.796C19.9258 133.651 20.0441 133.532 20.19 133.532C20.3358 133.532 20.4542 133.651 20.4542 133.796V134.588L21.2461 134.586C21.2463 134.586 21.2465 134.586 21.2468 134.586C21.3924 134.586 21.5105 134.704 21.511 134.849C21.5113 134.995 21.3934 135.114 21.2475 135.114L20.1906 135.117C20.1905 135.117 20.1903 135.117 20.19 135.117Z" fill="white"/>
<path d="M23.4034 135.108C23.2577 135.108 23.1396 134.991 23.1392 134.845C23.1388 134.699 23.2567 134.581 23.4026 134.58L25.56 134.574C25.5603 134.574 25.5606 134.574 25.5608 134.574C25.7064 134.574 25.8245 134.692 25.8249 134.838C25.8253 134.984 25.7074 135.102 25.5615 135.103L23.4041 135.109C23.4038 135.108 23.4035 135.108 23.4034 135.108ZM27.7182 135.097C27.5726 135.097 27.4544 134.979 27.454 134.833C27.4536 134.687 27.5716 134.569 27.7174 134.568L29.8747 134.562C29.875 134.562 29.8752 134.562 29.8755 134.562C30.0211 134.562 30.1392 134.68 30.1397 134.826C30.14 134.972 30.0221 135.09 29.8762 135.091L27.7189 135.097C27.7186 135.097 27.7184 135.097 27.7182 135.097ZM32.0329 135.085C31.8873 135.085 31.7691 134.967 31.7687 134.821C31.7683 134.676 31.8863 134.557 32.0322 134.557L34.1896 134.551C34.1898 134.551 34.19 134.551 34.1903 134.551C34.3359 134.551 34.454 134.668 34.4545 134.814C34.4549 134.96 34.3369 135.079 34.191 135.079L32.0336 135.085C32.0334 135.085 32.0332 135.085 32.0329 135.085ZM36.3477 135.073C36.2021 135.073 36.084 134.955 36.0836 134.81C36.0832 134.664 36.2011 134.545 36.347 134.545L38.5044 134.539C38.5047 134.539 38.505 134.539 38.5052 134.539C38.6508 134.539 38.7689 134.657 38.7693 134.802C38.7697 134.948 38.6518 135.067 38.5059 135.067L36.3485 135.073C36.3482 135.073 36.3479 135.073 36.3477 135.073ZM40.6624 135.061C40.5168 135.061 40.3987 134.944 40.3983 134.798C40.3979 134.652 40.5158 134.533 40.6617 134.533L42.8191 134.527C42.8194 134.527 42.8197 134.527 42.8199 134.527C42.9655 134.527 43.0836 134.645 43.084 134.791C43.0844 134.936 42.9665 135.055 42.8206 135.055L40.6632 135.061C40.6629 135.061 40.6627 135.061 40.6624 135.061ZM44.9773 135.049C44.8317 135.049 44.7135 134.932 44.7131 134.786C44.7127 134.64 44.8307 134.522 44.9765 134.521L47.134 134.515C47.1342 134.515 47.1345 134.515 47.1347 134.515C47.2803 134.515 47.3984 134.633 47.3989 134.779C47.3993 134.925 47.2813 135.043 47.1354 135.044L44.978 135.049C44.9778 135.049 44.9775 135.049 44.9773 135.049Z" fill="white"/>
</svg>
