<svg width="18" height="17" viewBox="0 0 18 17" fill="none" xmlns="http://www.w3.org/2000/svg">
<path fill-rule="evenodd" clip-rule="evenodd" d="M3.10019 0H14.8998C15.4582 0 15.9354 -6.54958e-08 16.3172 0.0477209C16.7216 0.0987906 17.1126 0.213488 17.434 0.514884C17.7606 0.82214 17.8903 1.20474 17.9473 1.60242C18 1.96828 18 2.42288 18 2.94195V3.59163C18 4.00102 18 4.35349 17.9699 4.64902C17.9364 4.96716 17.8652 5.26437 17.6927 5.54986C17.5211 5.83367 17.2909 6.03963 17.0247 6.22381C16.7743 6.39795 16.4553 6.57795 16.0786 6.78977L13.6155 8.17619C13.0546 8.49181 12.8595 8.60567 12.7289 8.7187C12.43 8.97823 12.2584 9.26707 12.178 9.62791C12.1437 9.78279 12.1395 9.97702 12.1395 10.5681V12.8553C12.1395 13.6097 12.1395 14.2501 12.0617 14.7433C11.9796 15.2665 11.7879 15.7688 11.2856 16.0828C10.7941 16.39 10.2541 16.3616 9.72837 16.2368C9.22186 16.1171 8.59814 15.8727 7.84967 15.5805L7.77767 15.552C7.42605 15.4147 7.11963 15.295 6.87684 15.1694C6.61563 15.0346 6.37284 14.8672 6.18781 14.606C5.99944 14.3414 5.92493 14.0584 5.8906 13.7687C5.86047 13.505 5.86047 13.1886 5.86047 12.8353V10.5681C5.86047 9.97702 5.85712 9.78279 5.82195 9.62791C5.74595 9.27145 5.55184 8.95109 5.27107 8.7187C5.14046 8.60567 4.94456 8.49181 4.38447 8.17619L1.9214 6.78977C1.54465 6.57795 1.22567 6.39795 0.975349 6.22381C0.709116 6.03963 0.478884 5.83367 0.307256 5.54986C0.134791 5.26437 0.0636279 4.96633 0.0309767 4.64902C-4.99016e-08 4.35433 0 4.00102 0 3.59163V2.94195C0 2.42288 -3.11885e-08 1.96828 0.0527442 1.60242C0.109674 1.20474 0.239442 0.82214 0.565953 0.514884C0.887442 0.213488 1.27758 0.0987906 1.68279 0.0477209C2.06456 -6.54958e-08 2.54177 0 3.10019 0ZM1.84019 1.29433C1.56056 1.32949 1.47181 1.38642 1.42577 1.43079C1.38391 1.4693 1.33033 1.53712 1.29516 1.78074C1.25749 2.04698 1.25581 2.41033 1.25581 2.98465V3.56233C1.25581 4.0094 1.25581 4.2974 1.27926 4.52009C1.30102 4.72688 1.33786 4.82651 1.38307 4.90102C1.42912 4.97721 1.50614 5.06344 1.69116 5.19237C1.88707 5.328 2.15414 5.47954 2.56186 5.70893L5.00065 7.08195L5.06763 7.11963C5.53647 7.38335 5.8546 7.56251 6.09405 7.77014C6.57831 8.17867 6.91387 8.73588 7.04846 9.35498C7.11628 9.66223 7.11628 10.008 7.11628 10.4936V12.8034C7.11628 13.1986 7.11712 13.4414 7.13888 13.6239C7.1573 13.7897 7.18828 13.8458 7.21088 13.8784C7.236 13.9136 7.28623 13.968 7.45284 14.0542C7.63033 14.1455 7.87563 14.2418 8.26242 14.3933C9.06698 14.7081 9.60865 14.9182 10.018 15.0153C10.4191 15.1108 10.5513 15.0614 10.6192 15.0187C10.6761 14.9827 10.764 14.9099 10.8218 14.5473C10.882 14.1647 10.8837 13.6239 10.8837 12.8026V10.4936C10.8837 10.008 10.8837 9.66223 10.9524 9.35498C11.0867 8.73599 11.422 8.17879 11.906 7.77014C12.1454 7.56251 12.4644 7.38251 12.9315 7.11963L12.9993 7.08195L15.4381 5.70893C15.8459 5.47954 16.1129 5.328 16.3088 5.19237C16.4939 5.06344 16.5709 4.97721 16.6169 4.90102C16.6621 4.82651 16.699 4.72688 16.7199 4.52009C16.7433 4.2974 16.7442 4.0094 16.7442 3.56149V2.98381C16.7442 2.41033 16.7425 2.04614 16.7048 1.78074C16.6697 1.53712 16.6153 1.4693 16.5751 1.43079C16.5282 1.38726 16.4394 1.32949 16.1598 1.29433C15.8668 1.25665 15.4691 1.25581 14.8605 1.25581H3.13953C2.53088 1.25581 2.13405 1.25665 1.84019 1.29433Z" fill="black" fill-opacity="0.5"/>
</svg>
