<svg width="14" height="14" viewBox="0 0 14 14" fill="none" xmlns="http://www.w3.org/2000/svg">
<path d="M14 0V4.24242L12.7273 2.9697L1.69697 14L0 12.303L11.0303 1.27273L9.75758 0H14ZM11.4545 13.5758C10.7794 13.5758 10.132 13.3076 9.65464 12.8302C9.17727 12.3528 8.90909 11.7054 8.90909 11.0303V9.33333C8.90909 8.65824 9.17727 8.01079 9.65464 7.53342C10.132 7.05606 10.7794 6.78788 11.4545 6.78788C12.1296 6.78788 12.7771 7.05606 13.2545 7.53342C13.7318 8.01079 14 8.65824 14 9.33333V11.0303C14 11.7054 13.7318 12.3528 13.2545 12.8302C12.7771 13.3076 12.1296 13.5758 11.4545 13.5758ZM11.4545 8.48485C11.2295 8.48485 11.0137 8.57424 10.8546 8.73336C10.6955 8.89249 10.6061 9.1083 10.6061 9.33333V11.0303C10.6061 11.2553 10.6955 11.4712 10.8546 11.6303C11.0137 11.7894 11.2295 11.8788 11.4545 11.8788C11.6796 11.8788 11.8954 11.7894 12.0545 11.6303C12.2136 11.4712 12.303 11.2553 12.303 11.0303V9.33333C12.303 9.1083 12.2136 8.89249 12.0545 8.73336C11.8954 8.57424 11.6796 8.48485 11.4545 8.48485ZM2.9697 6.78788C2.2946 6.78788 1.64715 6.5197 1.16979 6.04233C0.692424 5.56497 0.424242 4.91752 0.424242 4.24242V2.54545C0.424242 1.87036 0.692424 1.22291 1.16979 0.745546C1.64715 0.268181 2.2946 0 2.9697 0C3.64479 0 4.29224 0.268181 4.76961 0.745546C5.24697 1.22291 5.51515 1.87036 5.51515 2.54545V4.24242C5.51515 4.91752 5.24697 5.56497 4.76961 6.04233C4.29224 6.5197 3.64479 6.78788 2.9697 6.78788ZM2.9697 1.69697C2.74466 1.69697 2.52885 1.78636 2.36973 1.94549C2.21061 2.10461 2.12121 2.32042 2.12121 2.54545V4.24242C2.12121 4.46746 2.21061 4.68327 2.36973 4.84239C2.52885 5.00152 2.74466 5.09091 2.9697 5.09091C3.19473 5.09091 3.41054 5.00152 3.56967 4.84239C3.72879 4.68327 3.81818 4.46746 3.81818 4.24242V2.54545C3.81818 2.32042 3.72879 2.10461 3.56967 1.94549C3.41054 1.78636 3.19473 1.69697 2.9697 1.69697Z" fill="#2ADCA6"/>
</svg>
