<svg width="18" height="24" viewBox="0 0 18 24" fill="none" xmlns="http://www.w3.org/2000/svg">
<path d="M4.50028 14.1429C4.32978 14.1429 4.16627 14.0752 4.04571 13.9546C3.92515 13.834 3.85742 13.6705 3.85742 13.5C3.85742 13.3295 3.92515 13.166 4.04571 13.0455C4.16627 12.9249 4.32978 12.8572 4.50028 12.8572H13.5003C13.6708 12.8572 13.8343 12.9249 13.9548 13.0455C14.0754 13.166 14.1431 13.3295 14.1431 13.5C14.1431 13.6705 14.0754 13.834 13.9548 13.9546C13.8343 14.0752 13.6708 14.1429 13.5003 14.1429H4.50028ZM4.50028 18C4.32978 18 4.16627 17.9323 4.04571 17.8117C3.92515 17.6912 3.85742 17.5277 3.85742 17.3572C3.85742 17.1867 3.92515 17.0232 4.04571 16.9026C4.16627 16.782 4.32978 16.7143 4.50028 16.7143H13.5003C13.6708 16.7143 13.8343 16.782 13.9548 16.9026C14.0754 17.0232 14.1431 17.1867 14.1431 17.3572C14.1431 17.5277 14.0754 17.6912 13.9548 17.8117C13.8343 17.9323 13.6708 18 13.5003 18H4.50028Z" fill="#EC1A25"/>
<path fill-rule="evenodd" clip-rule="evenodd" d="M10.5236 1.79668e-07H1.92857C1.41708 1.79668e-07 0.926543 0.203188 0.564866 0.564866C0.203188 0.926543 0 1.41708 0 1.92857V21.2143C0 21.7258 0.203188 22.2163 0.564866 22.578C0.926543 22.9397 1.41708 23.1429 1.92857 23.1429H16.0714C16.5829 23.1429 17.0735 22.9397 17.4351 22.578C17.7968 22.2163 18 21.7258 18 21.2143V7.974C17.9999 7.49118 17.8187 7.02596 17.4921 6.67029L11.9456 0.624857C11.7648 0.427816 11.5451 0.270515 11.3003 0.162945C11.0555 0.0553741 10.791 -0.000115234 10.5236 1.79668e-07ZM1.28571 1.92857C1.28571 1.75808 1.35344 1.59456 1.474 1.474C1.59456 1.35344 1.75808 1.28571 1.92857 1.28571H10.5236C10.6128 1.28562 10.701 1.30408 10.7827 1.33994C10.8644 1.3758 10.9377 1.42827 10.998 1.494L16.5446 7.53943C16.6536 7.65792 16.7141 7.813 16.7143 7.974V21.2143C16.7143 21.3848 16.6466 21.5483 16.526 21.6689C16.4054 21.7894 16.2419 21.8571 16.0714 21.8571H1.92857C1.75808 21.8571 1.59456 21.7894 1.474 21.6689C1.35344 21.5483 1.28571 21.3848 1.28571 21.2143V1.92857Z" fill="#EC1A25"/>
<path d="M10.2857 7.71429H17.3571C17.5276 7.71429 17.6912 7.78202 17.8117 7.90257C17.9323 8.02313 18 8.18665 18 8.35714C18 8.52764 17.9323 8.69115 17.8117 8.81171C17.6912 8.93227 17.5276 9 17.3571 9H9.64286C9.47236 9 9.30885 8.93227 9.18829 8.81171C9.06773 8.69115 9 8.52764 9 8.35714V0.642857C9 0.472361 9.06773 0.308848 9.18829 0.188288C9.30885 0.0677294 9.47236 0 9.64286 0C9.81335 0 9.97687 0.0677294 10.0974 0.188288C10.218 0.308848 10.2857 0.472361 10.2857 0.642857V7.71429Z" fill="#EC1A25"/>
</svg>
