<svg width="23" height="24" viewBox="0 0 23 24" fill="none" xmlns="http://www.w3.org/2000/svg">
<path d="M8.75465 18.7638C8.75465 18.6158 8.63468 18.4958 8.4866 18.4958H6.3422C6.307 18.4958 6.27214 18.5027 6.23962 18.5162C6.20709 18.5296 6.17754 18.5494 6.15265 18.5743C6.12775 18.5992 6.10801 18.6287 6.09454 18.6612C6.08107 18.6938 6.07415 18.7286 6.07415 18.7638V21.8912H8.75465V18.7638ZM5.00195 22.9634V18.7638C5.00195 18.0236 5.60198 17.4236 6.3422 17.4236H8.4866C9.22682 17.4236 9.82685 18.0236 9.82685 18.7638V22.9634H5.00195Z" fill="#EC1A25"/>
<path d="M12.5086 16.6195C12.5086 16.4715 12.3886 16.3515 12.2405 16.3515H10.0961C10.0609 16.3515 10.026 16.3584 9.99352 16.3719C9.961 16.3854 9.93144 16.4051 9.90655 16.43C9.88166 16.4549 9.86192 16.4844 9.84845 16.517C9.83498 16.5495 9.82805 16.5843 9.82806 16.6195V21.8913H12.5086V16.6195ZM8.75586 22.9635V16.6195C8.75586 15.8793 9.35588 15.2793 10.0961 15.2793H12.2405C12.9807 15.2793 13.5808 15.8793 13.5808 16.6195V22.9635H8.75586Z" fill="#EC1A25"/>
<path d="M16.2597 14.4751C16.2597 14.327 16.1397 14.207 15.9916 14.207H13.8472C13.812 14.207 13.7772 14.214 13.7446 14.2274C13.7121 14.2409 13.6826 14.2606 13.6577 14.2855C13.6328 14.3104 13.613 14.34 13.5996 14.3725C13.5861 14.405 13.5792 14.4399 13.5792 14.4751V21.8912H16.2597V14.4751ZM12.507 22.9634V14.4751C12.507 13.7349 13.107 13.1348 13.8472 13.1348H15.9916C16.7319 13.1348 17.3319 13.7349 17.3319 14.4751V22.9634H12.507ZM10.0729 5.60329L7.96823 1.46166C7.87763 1.28334 8.0072 1.0722 8.20733 1.0722H14.7941C14.9942 1.0722 15.1237 1.28321 15.033 1.46153L12.9285 5.60331C12.7944 5.86728 12.8996 6.18999 13.1636 6.32412C13.4276 6.45825 13.7503 6.35299 13.8844 6.08902L15.9889 1.94739C16.4422 1.05586 15.7944 0 14.7942 0H8.20735C7.20719 0 6.55937 1.05566 7.01236 1.94734L9.11712 6.08905C9.25125 6.35299 9.57399 6.45825 9.83793 6.32409C10.1019 6.18993 10.2071 5.86723 10.073 5.60329H10.0729Z" fill="#EC1A25"/>
<path d="M17.1029 21.9404C19.7677 21.9404 21.9278 19.7803 21.9278 17.1155V15.9859C21.9278 10.8272 17.7048 6.60418 12.5461 6.60418H10.4539C5.29521 6.60418 1.0722 10.8272 1.0722 15.9859V17.1155C1.0722 19.7802 3.23246 21.9404 5.89709 21.9404H17.1029ZM17.1029 23.0126H5.89709C2.64032 23.0126 0 20.3723 0 17.1155V15.9859C0 10.235 4.70304 5.53198 10.4539 5.53198H12.5461C18.297 5.53198 23 10.235 23 15.9859V17.1155C23 20.3724 20.3599 23.0126 17.1029 23.0126Z" fill="#EC1A25"/>
</svg>
