<svg width="14" height="11" viewBox="0 0 14 11" fill="none" xmlns="http://www.w3.org/2000/svg">
<path fill-rule="evenodd" clip-rule="evenodd" d="M1.75 0C1.28587 0 0.840752 0.184374 0.512563 0.512563C0.184374 0.840752 0 1.28587 0 1.75V4.375C0 4.83913 0.184374 5.28425 0.512563 5.61244C0.840752 5.94063 1.28587 6.125 1.75 6.125H4.375C4.375 6.82119 4.09844 7.48887 3.60616 7.98116C3.11387 8.47344 2.44619 8.75 1.75 8.75H0.875C0.642936 8.75 0.420376 8.84219 0.256282 9.00628C0.0921874 9.17037 0 9.39294 0 9.625C0 9.85706 0.0921874 10.0796 0.256282 10.2437C0.420376 10.4078 0.642936 10.5 0.875 10.5H1.75C2.91032 10.5 4.02312 10.0391 4.84359 9.21859C5.66406 8.39812 6.125 7.28532 6.125 6.125V1.75C6.125 1.28587 5.94063 0.840752 5.61244 0.512563C5.28425 0.184374 4.83913 0 4.375 0H1.75ZM9.625 0C9.16087 0 8.71575 0.184374 8.38756 0.512563C8.05937 0.840752 7.875 1.28587 7.875 1.75V4.375C7.875 4.83913 8.05937 5.28425 8.38756 5.61244C8.71575 5.94063 9.16087 6.125 9.625 6.125H12.25C12.25 6.82119 11.9734 7.48887 11.4812 7.98116C10.9889 8.47344 10.3212 8.75 9.625 8.75H8.75C8.51794 8.75 8.29538 8.84219 8.13128 9.00628C7.96719 9.17037 7.875 9.39294 7.875 9.625C7.875 9.85706 7.96719 10.0796 8.13128 10.2437C8.29538 10.4078 8.51794 10.5 8.75 10.5H9.625C10.7853 10.5 11.8981 10.0391 12.7186 9.21859C13.5391 8.39812 14 7.28532 14 6.125V1.75C14 1.28587 13.8156 0.840752 13.4874 0.512563C13.1592 0.184374 12.7141 0 12.25 0H9.625Z" fill="#EC1A25"/>
</svg>
