<svg width="14" height="11" viewBox="0 0 14 11" fill="none" xmlns="http://www.w3.org/2000/svg">
<path fill-rule="evenodd" clip-rule="evenodd" d="M12.25 11C12.7141 11 13.1592 10.8156 13.4874 10.4874C13.8156 10.1592 14 9.71413 14 9.25V6.625C14 6.16087 13.8156 5.71575 13.4874 5.38756C13.1592 5.05937 12.7141 4.875 12.25 4.875L9.625 4.875C9.625 4.17881 9.90156 3.51113 10.3938 3.01884C10.8861 2.52656 11.5538 2.25 12.25 2.25H13.125C13.3571 2.25 13.5796 2.15781 13.7437 1.99372C13.9078 1.82963 14 1.60706 14 1.375C14 1.14294 13.9078 0.920375 13.7437 0.756281C13.5796 0.592187 13.3571 0.5 13.125 0.5H12.25C11.0897 0.5 9.97688 0.960937 9.15641 1.78141C8.33594 2.60188 7.875 3.71468 7.875 4.875L7.875 9.25C7.875 9.71413 8.05937 10.1592 8.38756 10.4874C8.71575 10.8156 9.16087 11 9.625 11H12.25ZM4.375 11C4.83913 11 5.28425 10.8156 5.61244 10.4874C5.94063 10.1592 6.125 9.71413 6.125 9.25L6.125 6.625C6.125 6.16087 5.94063 5.71575 5.61244 5.38756C5.28425 5.05937 4.83913 4.875 4.375 4.875L1.75 4.875C1.75 4.17881 2.02656 3.51113 2.51884 3.01884C3.01113 2.52656 3.67881 2.25 4.375 2.25H5.25C5.48206 2.25 5.70462 2.15781 5.86872 1.99372C6.03281 1.82963 6.125 1.60706 6.125 1.375C6.125 1.14294 6.03281 0.920375 5.86872 0.756281C5.70462 0.592187 5.48206 0.5 5.25 0.5H4.375C3.21468 0.5 2.10188 0.960937 1.28141 1.78141C0.460937 2.60188 0 3.71468 0 4.875V9.25C0 9.71413 0.184375 10.1592 0.512564 10.4874C0.840752 10.8156 1.28587 11 1.75 11H4.375Z" fill="#EC1A25"/>
</svg>
