<svg width="120" height="97" viewBox="0 0 120 97" fill="none" xmlns="http://www.w3.org/2000/svg">
<path d="M76.3913 90.3821H43.8582L41.4194 75.9678H78.9049L76.3913 90.3821Z" fill="#2C3E50"/>
<path d="M77.0406 62.6375C76.0177 61.9904 73.507 60.72 65.4914 57.967H60.1246H54.758C46.7423 60.72 44.2698 61.9904 43.2468 62.6375C41.5857 63.6884 41.4194 65.1354 41.4194 70.9798V75.9677H78.9038V70.9798L78.9049 70.9558C78.9049 65.1114 78.7019 63.6886 77.0406 62.6375Z" fill="#2C3E50"/>
<path fill-rule="evenodd" clip-rule="evenodd" d="M55.6084 49.708V56.4137V59.744C58.1497 62.6144 62.1734 62.7175 64.5028 59.744V56.4137V49.708C64.5028 44.2018 55.6084 44.2018 55.6084 49.708Z" fill="#EAB998"/>
<g opacity="0.2">
<mask id="mask0_766_5683" style="mask-type:luminance" maskUnits="userSpaceOnUse" x="55" y="55" width="10" height="4">
<path d="M64.5028 55.6377H55.6084V58.6024H64.5028V55.6377Z" fill="white"/>
</mask>
<g mask="url(#mask0_766_5683)">
<path d="M55.6084 55.6377V55.8888C55.6084 55.8888 57.897 58.5652 60.0478 58.6618C62.1987 58.7585 64.503 56.0704 64.503 56.0704V55.6377" fill="#999999"/>
</g>
</g>
<path fill-rule="evenodd" clip-rule="evenodd" d="M60.1245 33.9836C47.2949 33.9836 52.2124 51.557 53.0504 52.9035C53.974 54.3883 58.0519 57.6607 60.1245 57.6607C62.1974 57.6607 66.2745 54.3881 67.1989 52.9035C68.0371 51.557 72.954 33.9836 60.1245 33.9836Z" fill="#EAB998"/>
<mask id="mask1_766_5683" style="mask-type:luminance" maskUnits="userSpaceOnUse" x="49" y="55" width="12" height="25">
<path d="M60.0557 55.214H49.0435V79.7797H60.0557V55.214Z" fill="white"/>
</mask>
<g mask="url(#mask1_766_5683)">
<path fill-rule="evenodd" clip-rule="evenodd" d="M60.1015 61.6886C60.1015 61.6886 53.9414 63.1276 53.9414 63.5005C53.9414 63.8735 56.2852 75.9679 56.2852 75.9679H64.6484L65.6067 63.5539L60.1015 61.6886Z" fill="white"/>
<path fill-rule="evenodd" clip-rule="evenodd" d="M58.1802 63.7279L59.249 65.3793H60.9072L61.9764 63.7279L60.1014 61.6837L58.1802 63.7279Z" fill="#E74C3C"/>
<path fill-rule="evenodd" clip-rule="evenodd" d="M59.2489 65.3793L57.7271 75.9678H62.4293L60.9071 65.3793H59.2489Z" fill="#28A8E3"/>
<path fill-rule="evenodd" clip-rule="evenodd" d="M55.6643 56.1664L55.2783 57.6678L56.3584 65.4844L60.1016 61.6886L55.6643 56.1664Z" fill="white"/>
<g opacity="0.05">
<mask id="mask2_766_5683" style="mask-type:luminance" maskUnits="userSpaceOnUse" x="55" y="56" width="10" height="6">
<path d="M64.5028 56.0614H55.6084V61.7792H64.5028V56.0614Z" fill="white"/>
</mask>
<g mask="url(#mask2_766_5683)">
<path d="M55.6084 56.1665L60.0788 61.6887L64.5028 56.1665V56.035L60.0788 61.5326L55.6084 56.035V56.1665Z" fill="black"/>
</g>
</g>
<path fill-rule="evenodd" clip-rule="evenodd" d="M56.5214 66.7021L60.0782 61.6943L56.4019 65.6706L56.5214 66.7021Z" fill="#E6E6E6"/>
</g>
<mask id="mask3_766_5683" style="mask-type:luminance" maskUnits="userSpaceOnUse" x="49" y="55" width="12" height="25">
<path d="M60.0557 55.214H49.0435V79.7797H60.0557V55.214Z" fill="white"/>
</mask>
<g mask="url(#mask3_766_5683)">
<path fill-rule="evenodd" clip-rule="evenodd" d="M55.2784 57.668L55.6737 59.4143L57.5913 75.968H54.2939L50.6669 68.584L54.1293 66.2653L49.8979 64.2818L53.5531 58.4569L55.2784 57.668Z" fill="#1C2A35"/>
</g>
<mask id="mask4_766_5683" style="mask-type:luminance" maskUnits="userSpaceOnUse" x="60" y="55" width="12" height="25">
<path d="M71.2797 55.2141H60.0557V79.7798H71.2797V55.2141Z" fill="white"/>
</mask>
<g mask="url(#mask4_766_5683)">
<path fill-rule="evenodd" clip-rule="evenodd" d="M60.1475 61.6887C60.1475 61.6887 66.3076 63.1277 66.3076 63.5006C66.3076 63.8736 63.9638 75.968 63.9638 75.968H55.6006L54.6421 63.554L60.1475 61.6887Z" fill="white"/>
<path fill-rule="evenodd" clip-rule="evenodd" d="M62.0687 63.7281L61 65.3794H59.3417L58.2725 63.7281L60.1477 61.6838L62.0687 63.7281Z" fill="#E74C3C"/>
<path fill-rule="evenodd" clip-rule="evenodd" d="M61.0005 65.3794L62.5225 75.968H57.8203L59.3423 65.3794H61.0005Z" fill="#28A8E3"/>
<path fill-rule="evenodd" clip-rule="evenodd" d="M64.5847 56.1665L64.9707 57.6679L63.8904 65.4845L60.1475 61.6887L64.5847 56.1665Z" fill="white"/>
<path fill-rule="evenodd" clip-rule="evenodd" d="M55.7574 56.1665L55.4526 57.6431L56.4674 65.5626L60.148 61.6887L55.7574 56.1665Z" fill="white"/>
<g opacity="0.05">
<mask id="mask5_766_5683" style="mask-type:luminance" maskUnits="userSpaceOnUse" x="55" y="56" width="10" height="6">
<path d="M64.5027 56.0615H55.8198V61.7793H64.5027V56.0615Z" fill="white"/>
</mask>
<g mask="url(#mask5_766_5683)">
<path d="M64.5025 56.1667L60.138 61.6889L55.8198 56.1667V56.0352L60.138 61.5327L64.5025 56.0352V56.1667Z" fill="black"/>
</g>
</g>
<path fill-rule="evenodd" clip-rule="evenodd" d="M63.7278 66.7023L60.1709 61.6945L63.8535 65.6193L63.7278 66.7023Z" fill="#E6E6E6"/>
<path fill-rule="evenodd" clip-rule="evenodd" d="M56.4541 65.8545L60.1479 61.6887L56.3008 64.8236L56.4541 65.8545Z" fill="#E6E6E6"/>
<path fill-rule="evenodd" clip-rule="evenodd" d="M56.5255 66.5192L60.1247 61.6945L56.2729 64.8236L56.5255 66.5192Z" fill="#E6E6E6"/>
</g>
<mask id="mask6_766_5683" style="mask-type:luminance" maskUnits="userSpaceOnUse" x="60" y="55" width="12" height="25">
<path d="M71.2797 55.2141H60.0557V79.7798H71.2797V55.2141Z" fill="white"/>
</mask>
<g mask="url(#mask6_766_5683)">
<path fill-rule="evenodd" clip-rule="evenodd" d="M64.9711 57.6681L64.5757 59.4144L62.6582 75.9681H65.9556L69.5825 68.5841L66.1202 66.2654L70.3514 64.2819L66.5734 58.4169L64.9711 57.6681Z" fill="#1C2A35"/>
</g>
<path d="M61.0081 65.379L62.5223 75.9676H57.7271L59.2411 65.379" fill="#E74C3C"/>
<path fill-rule="evenodd" clip-rule="evenodd" d="M56.4645 66.2105L60.1247 61.6884L56.4048 65.6949L56.4645 66.2105Z" fill="#E6E6E6"/>
<path fill-rule="evenodd" clip-rule="evenodd" d="M63.7855 66.2105L60.125 61.6884L63.8542 65.6189L63.7855 66.2105Z" fill="#E6E6E6"/>
<path d="M61.063 65.8027H59.1865L59.2412 65.379H61.0082L61.063 65.8027Z" fill="#E6E6E6"/>
<path d="M60.2673 61.8915L60.172 61.6884L60.0557 61.9354V65.3791H60.2673V61.8915Z" fill="#E74C3C"/>
<path d="M75.3034 68.344H70.4326V69.8263H75.3034V68.344Z" fill="#1C2A35"/>
<path fill-rule="evenodd" clip-rule="evenodd" d="M70.75 68.344L72.5852 65.3889L75.0563 68.344H70.75Z" fill="#F2F2F2"/>
<path fill-rule="evenodd" clip-rule="evenodd" d="M73.1052 66.011L73.4855 65.5909L75.0563 68.344C75.0563 68.344 72.9192 65.9016 73.1052 66.011Z" fill="#F2F2F2"/>
<path fill-rule="evenodd" clip-rule="evenodd" d="M73.105 66.0109L73.3477 65.7426L75.0561 68.3439L73.105 66.0109Z" fill="#E6E6E6"/>
<path d="M73.2378 65.8641L75.0561 68.344L73.105 66.011L73.2378 65.8641Z" fill="#E6E6E6"/>
<path d="M68.6858 38.6939C68.6861 38.6946 68.6866 38.6951 68.6866 38.6957C68.5542 37.8079 68.3669 37.0306 68.1161 36.4598C67.6604 35.4235 66.8878 34.6515 65.9555 34.0826L65.9565 34.0808C65.9397 34.071 65.9232 34.0628 65.9064 34.0532C65.6948 33.9266 65.4759 33.8101 65.2501 33.7036C61.6767 31.9315 58.1429 32.4549 56.2847 32.956C55.728 33.0764 55.2906 33.2292 54.9492 33.4001C54.947 33.4011 54.942 33.4013 54.942 33.4013H54.9423C53.6112 34.0367 53.7223 34.981 53.7223 34.981C52.0031 34.1692 51.255 36.4327 51.0093 37.9116C50.9689 38.1539 50.9419 38.3758 50.9266 38.5593C50.9191 38.6466 50.9134 38.7385 50.908 38.8321C50.9069 38.8494 50.9059 38.8669 50.9052 38.8845C50.7918 41.0434 51.192 44.7339 51.6162 47.012C51.6162 47.012 52.1287 41.7748 53.6205 40.2632C53.6198 40.2647 53.6189 40.2663 53.6184 40.2678C53.7347 40.1495 53.8567 40.0534 53.9846 39.9839C53.9889 39.9815 53.9934 39.9792 53.9977 39.9769C54.0207 39.9648 54.044 39.9542 54.0674 39.9438C54.0801 39.9382 54.0921 39.9327 54.1049 39.9278C54.1187 39.9223 54.1326 39.9179 54.1468 39.913C54.1679 39.9056 54.1887 39.8983 54.2101 39.8924C54.2116 39.8921 54.2132 39.8917 54.2145 39.8914C54.2763 39.8749 54.3395 39.8643 54.4036 39.8606C56.3111 41.5169 61.4024 42.2275 64.3032 42.2696C64.3021 42.2691 64.3011 42.2962 64.3003 42.2962C64.3012 42.2962 64.3024 42.2962 64.3032 42.2962C64.2737 42.2962 64.2467 42.2422 64.2177 42.2295C64.2151 42.2292 64.2125 42.2146 64.2099 42.2141C62.8554 41.6092 62.0798 41.0073 61.7013 40.5419C61.703 40.5429 61.7041 40.5406 61.7057 40.5414C61.5385 40.337 61.4468 40.1554 61.4173 40.0108C63.2545 41.3092 65.3253 41.8376 65.3253 41.8376C65.3251 41.8371 65.325 41.8727 65.3247 41.8727C65.325 41.8727 65.3258 41.8727 65.3258 41.8727C65.3253 41.8727 65.3237 41.834 65.3232 41.8334C64.7156 40.9499 64.26 39.4911 64.26 39.4911C68.4395 39.0936 68.6241 47.0209 68.6241 47.0209C68.9878 44.969 69.0813 41.3374 68.6858 38.6939Z" fill="#2D2D2D"/>
<path d="M76.3909 71.3088H43.8579V91.1234H76.3909V71.3088Z" fill="#ECF0F1"/>
<path d="M101.603 94.1941H18.7212V96.4179H101.603V94.1941Z" fill="#333333"/>
<path d="M76.3909 91.1233H43.8579V94.194H76.3909V91.1233Z" fill="#B3B3B3"/>
<path d="M43.8579 91.1233L43.1079 79.8834L42.647 72.975L41.7383 64.8831L39.0462 75.5548L39.0467 75.5555C38.9697 75.8438 38.9248 76.1451 38.9248 76.4577C38.9248 76.8856 39.0057 77.2938 39.1462 77.673L39.1433 77.6761L43.8579 91.1233Z" fill="#2C3E50"/>
<path d="M76.3911 91.1234L77.1411 79.8835L77.602 72.9751L78.5678 64.8784L81.2028 75.5551C81.2025 75.5552 81.2025 75.5557 81.2025 75.5557C81.2795 75.844 81.324 76.1454 81.324 76.4579C81.324 76.8859 81.2434 77.2941 81.1028 77.6732L81.1057 77.6763L76.3911 91.1234Z" fill="#2C3E50"/>
<path d="M61.9372 81.6914C62.202 80.5762 61.5126 79.4576 60.3974 79.1928C59.2822 78.9281 58.1636 79.6175 57.8988 80.7326C57.6341 81.8478 58.3235 82.9665 59.4386 83.2312C60.5538 83.496 61.6725 82.8066 61.9372 81.6914Z" fill="#E6E6E6"/>
<path d="M84.5683 85.7937V86.4778C82.6979 86.4778 82.4155 87.219 82.4155 89.7688C82.4155 92.0969 82.4155 93.0604 84.5683 93.0604V94.1941H90.9918V85.7937H84.5683ZM83.6186 91.7931C83.4742 91.5117 83.4742 90.7805 83.4742 89.7688C83.4742 87.5366 83.5564 87.5366 84.5681 87.5366V92.0015C83.7254 92.0016 83.6612 91.8763 83.6186 91.7931Z" fill="#E74C3C"/>
<path d="M73.7206 93.2729L73.3662 92.6588L73.7206 92.0447H74.4296L74.7841 92.6588L74.4296 93.2729H73.7206Z" fill="#3498DB"/>
<path d="M71.8399 93.2729L71.4854 92.6588L71.8399 92.0447H72.5489L72.9034 92.6588L72.5489 93.2729H71.8399Z" fill="#E74C3C"/>
<path d="M70.0782 93.2729L69.7236 92.6588L70.0782 92.0447H70.7872L71.1417 92.6588L70.7872 93.2729H70.0782Z" fill="#FFC55F"/>
<path d="M57.3113 50.9789C57.0034 50.9789 56.7396 51.1558 56.6076 51.4118C52.1113 50.603 51.7003 47.8085 51.7025 47.6969C51.5931 47.6969 51.4501 47.8317 51.4493 48.0118C51.4489 48.1013 51.4014 51.1703 56.5748 52.0686C56.6921 52.3609 56.977 52.5678 57.3113 52.5678C57.75 52.5678 58.1058 52.2122 58.1058 51.7733C58.1058 51.3346 57.7502 50.9789 57.3113 50.9789Z" fill="#2D2D2D"/>
<path d="M117.631 39.748C117.631 42.1133 115.713 44.0306 113.348 44.0306C110.983 44.0306 109.065 42.1133 109.065 39.748C109.065 37.3827 110.983 35.4656 113.348 35.4656C115.713 35.4656 117.631 37.3827 117.631 39.748Z" fill="#FFC55F"/>
<path d="M113.292 39.4734H110.422C110.424 39.4794 110.425 39.486 110.427 39.4925L110.956 41.6777C111.028 41.9106 111.301 42.101 111.563 42.101H113.292H115.022C115.284 42.101 115.557 41.9106 115.629 41.6777L116.158 39.4925C116.161 39.486 116.161 39.4794 116.163 39.4734H113.292Z" fill="#E74C3C"/>
<path d="M113.48 39.9123V41.5615C113.48 41.656 113.397 41.733 113.295 41.733C113.294 41.733 113.293 41.7328 113.292 41.7328C113.292 41.7328 113.291 41.733 113.29 41.733C113.188 41.733 113.105 41.656 113.105 41.5615V39.9123C113.105 39.8175 113.188 39.7405 113.29 39.7405C113.291 39.7405 113.292 39.7406 113.292 39.7406C113.293 39.7406 113.294 39.7405 113.295 39.7405C113.397 39.7405 113.48 39.8175 113.48 39.9123Z" fill="#FFC55F"/>
<path d="M112.637 39.9123V41.5615C112.637 41.656 112.555 41.733 112.453 41.733C112.452 41.733 112.451 41.7328 112.45 41.7328C112.45 41.7328 112.449 41.733 112.448 41.733C112.346 41.733 112.263 41.656 112.263 41.5615V39.9123C112.263 39.8175 112.346 39.7405 112.448 39.7405C112.449 39.7405 112.45 39.7406 112.45 39.7406C112.451 39.7406 112.452 39.7405 112.453 39.7405C112.555 39.7405 112.637 39.8175 112.637 39.9123Z" fill="#FFC55F"/>
<path d="M114.321 39.9123V41.5615C114.321 41.656 114.239 41.733 114.137 41.733C114.136 41.733 114.135 41.7328 114.135 41.7328C114.134 41.7328 114.133 41.733 114.132 41.733C114.03 41.733 113.947 41.656 113.947 41.5615V39.9123C113.947 39.8175 114.03 39.7405 114.132 39.7405C114.133 39.7405 114.134 39.7406 114.135 39.7406C114.135 39.7406 114.136 39.7405 114.137 39.7405C114.239 39.7405 114.321 39.8175 114.321 39.9123Z" fill="#FFC55F"/>
<path d="M115.163 39.9123V41.5615C115.163 41.656 115.081 41.733 114.978 41.733C114.978 41.733 114.977 41.7328 114.976 41.7328C114.975 41.7328 114.975 41.733 114.974 41.733C114.872 41.733 114.789 41.656 114.789 41.5615V39.9123C114.789 39.8175 114.872 39.7405 114.974 39.7405C114.975 39.7405 114.975 39.7406 114.976 39.7406C114.977 39.7406 114.978 39.7405 114.978 39.7405C115.081 39.7405 115.163 39.8175 115.163 39.9123Z" fill="#FFC55F"/>
<path d="M111.796 39.9122V41.5614C111.796 41.6559 111.712 41.7329 111.61 41.7329C111.61 41.7329 111.609 41.7327 111.608 41.7327C111.608 41.7327 111.607 41.7329 111.606 41.7329C111.504 41.7329 111.421 41.6559 111.421 41.5614V39.9122C111.421 39.8174 111.504 39.7404 111.606 39.7404C111.607 39.7404 111.608 39.7405 111.608 39.7405C111.609 39.7405 111.61 39.7404 111.61 39.7404C111.713 39.7404 111.796 39.8174 111.796 39.9122Z" fill="#FFC55F"/>
<path d="M113.365 36.9767L114.15 38.4432H114.72L113.601 36.3561C113.559 36.2771 113.478 36.2269 113.388 36.2239C113.298 36.2207 113.214 36.2663 113.167 36.3427L111.864 38.4432H112.455L113.365 36.9767Z" fill="#333333"/>
<path d="M116.364 38.4432H114.696H114.126H113.292H112.431H111.84H110.22C110.11 38.4432 110.021 38.5326 110.021 38.6436V39.2728C110.021 39.3835 110.11 39.4735 110.22 39.4735H110.422H113.292H116.163H116.364C116.475 39.4735 116.565 39.3835 116.565 39.2728V38.6436C116.565 38.5326 116.475 38.4432 116.364 38.4432Z" fill="#CE3F38"/>
<path d="M113.291 38.9393C113.291 38.9437 113.292 38.9483 113.292 38.9524C113.293 38.9483 113.293 38.9436 113.294 38.9393H113.291Z" fill="#515254"/>
<path d="M113.292 38.9524C113.293 38.9483 113.294 38.9437 113.294 38.9393H113.291C113.292 38.9436 113.292 38.9483 113.292 38.9524Z" fill="#515254"/>
<path d="M112.099 38.9659C112.099 38.9615 112.097 38.9571 112.097 38.9525C112.097 38.9484 112.097 38.9437 112.096 38.9394C112.083 38.8373 111.996 38.7577 111.891 38.7577C111.785 38.7577 111.698 38.8373 111.685 38.9394C111.685 38.9437 111.684 38.9484 111.684 38.9525C111.683 38.9571 111.683 38.9615 111.683 38.9659C111.683 39.0807 111.776 39.1739 111.891 39.1739C112.005 39.1739 112.099 39.0807 112.099 38.9659Z" fill="#333333"/>
<path d="M114.902 38.9845C114.902 38.8698 114.809 38.7766 114.694 38.7766C114.579 38.7766 114.486 38.8698 114.486 38.9845C114.486 39.0995 114.579 39.193 114.694 39.193C114.809 39.1931 114.902 39.0995 114.902 38.9845Z" fill="#333333"/>
<mask id="mask7_766_5683" style="mask-type:luminance" maskUnits="userSpaceOnUse" x="89" y="19" width="18" height="18">
<path d="M106.589 27.7752C106.589 32.5476 102.72 36.4163 97.9477 36.4163C93.1753 36.4163 89.3066 32.5476 89.3066 27.7752C89.3066 23.003 93.1753 19.1343 97.9477 19.1343C102.72 19.1343 106.589 23.003 106.589 27.7752Z" fill="white"/>
</mask>
<g mask="url(#mask7_766_5683)">
<path d="M106.589 27.7752C106.589 32.5476 102.72 36.4163 97.9477 36.4163C93.1753 36.4163 89.3066 32.5476 89.3066 27.7752C89.3066 23.003 93.1753 19.1343 97.9477 19.1343C102.72 19.1343 106.589 23.003 106.589 27.7752Z" fill="#2C3E50"/>
</g>
<mask id="mask8_766_5683" style="mask-type:luminance" maskUnits="userSpaceOnUse" x="89" y="19" width="18" height="18">
<path d="M106.589 27.7752C106.589 32.5476 102.72 36.4163 97.9477 36.4163C93.1753 36.4163 89.3066 32.5476 89.3066 27.7752C89.3066 23.003 93.1753 19.1343 97.9477 19.1343C102.72 19.1343 106.589 23.003 106.589 27.7752Z" fill="white"/>
</mask>
<g mask="url(#mask8_766_5683)">
<path d="M108.334 22.2433H92.8916V33.8251H108.334V22.2433Z" fill="#ECF0F1"/>
<path d="M107.819 21.7285H93.4063C93.122 21.7285 92.8916 21.9589 92.8916 22.2432H108.334C108.334 21.9589 108.104 21.7285 107.819 21.7285Z" fill="#4D4D4D"/>
<path d="M108.334 33.252H92.8916V33.8249H108.334V33.252Z" fill="#4D4D4D"/>
<path d="M108.334 22.2433H92.8916V22.8706H108.334V22.2433Z" fill="#666666"/>
<path d="M107.197 22.3799H105.266H101.808H100.235H99.8773H94.8465C94.7486 22.3799 94.6694 22.4592 94.6694 22.5569C94.6694 22.6548 94.7486 22.7339 94.8465 22.7339H99.8773H100.235H101.808H105.266H107.197C107.294 22.7339 107.373 22.6548 107.373 22.5569C107.373 22.4592 107.294 22.3799 107.197 22.3799Z" fill="#D8D8D8"/>
<path d="M94.3877 22.4963H94.0498V22.6172H94.3877V22.4963Z" fill="#999999"/>
<path d="M93.2421 22.4963H93.0732V22.6172H93.2421V22.4963Z" fill="#999999"/>
<path d="M93.9299 22.4963H93.3022V22.6172H93.9299V22.4963Z" fill="#999999"/>
<path d="M93.8571 21.9858C93.8571 22.0257 93.8248 22.0582 93.7847 22.0582C93.7449 22.0582 93.7124 22.0257 93.7124 21.9858C93.7124 21.9458 93.7449 21.9133 93.7847 21.9133C93.8248 21.9133 93.8571 21.946 93.8571 21.9858Z" fill="#D9E021"/>
<path d="M94.0741 21.9858C94.0741 22.0257 94.0418 22.0582 94.002 22.0582C93.9618 22.0582 93.9297 22.0257 93.9297 21.9858C93.9297 21.9458 93.9618 21.9133 94.002 21.9133C94.0418 21.9133 94.0741 21.946 94.0741 21.9858Z" fill="#29ABE2"/>
<path d="M94.2912 21.9858C94.2912 22.0257 94.2586 22.0582 94.2189 22.0582C94.1789 22.0582 94.1465 22.0257 94.1465 21.9858C94.1465 21.9458 94.1789 21.9133 94.2189 21.9133C94.2586 21.9133 94.2912 21.946 94.2912 21.9858Z" fill="#FF1D25"/>
<path d="M99.455 23.7632H93.7847V32.4255H99.455V23.7632Z" fill="#2C3E50"/>
<path d="M93.7847 32.4255L99.455 23.7632" stroke="#D8D8D8" stroke-width="2" stroke-miterlimit="10"/>
<path d="M99.4146 32.4255L93.7441 23.7632" stroke="#D8D8D8" stroke-width="2" stroke-miterlimit="10"/>
<path d="M104.691 31.6694H102.616V32.0636H104.691V31.6694Z" fill="#F15A24"/>
<path d="M103.139 23.7632H99.9541V24.1573H103.139V23.7632Z" fill="#B3B3B3"/>
<path d="M103.565 24.3585H100.38V24.7527H103.565V24.3585Z" fill="#B3B3B3"/>
<path d="M104.828 23.7632H103.396V24.1573H104.828V23.7632Z" fill="#B3B3B3"/>
<path d="M104.538 24.3585H103.822V24.7527H104.538V24.3585Z" fill="#B3B3B3"/>
<path d="M106.935 23.7632H105.021V24.1573H106.935V23.7632Z" fill="#B3B3B3"/>
<path d="M104.828 24.9696H103.396V25.3638H104.828V24.9696Z" fill="#B3B3B3"/>
<path d="M103.235 24.9696H101.804V25.3638H103.235V24.9696Z" fill="#F15A24"/>
<path d="M106.935 24.9696H105.021V25.3638H106.935V24.9696Z" fill="#B3B3B3"/>
<path d="M106.638 24.3585H104.724V24.7527H106.638V24.3585Z" fill="#B3B3B3"/>
<path d="M103.879 30.0369H100.693V30.4309H103.879V30.0369Z" fill="#B3B3B3"/>
<path d="M104.852 30.0369H104.136V30.4309H104.852V30.0369Z" fill="#B3B3B3"/>
<path d="M106.951 30.0369H105.037V30.4309H106.951V30.0369Z" fill="#B3B3B3"/>
<path d="M103.131 26.4254H99.9541V29.6027H103.131V26.4254Z" fill="#E74C3C"/>
<path d="M106.943 26.4254H103.766V29.6027H106.943V26.4254Z" fill="#3498DB"/>
</g>
<path d="M68.8659 8.70047C68.8659 13.5053 64.9706 17.4008 60.1656 17.4008C55.3606 17.4008 51.4653 13.5055 51.4653 8.70047C51.4653 3.8953 55.3606 0 60.1656 0C64.9706 0.000163147 68.8659 3.89546 68.8659 8.70047Z" fill="#3498DB"/>
<path d="M52.4917 6.00403C52.5836 6.15004 52.4467 6.5274 52.4917 6.69381C52.5368 6.8599 52.6976 7.19027 52.8396 7.28669C52.8986 7.32715 53.0639 7.37185 53.1221 7.33058C53.1639 7.30039 53.1685 7.17771 53.1584 7.12697C53.1282 6.97671 52.8778 6.7563 52.8251 6.61257C52.7817 6.49412 52.6769 6.20715 52.76 6.11236C52.7924 6.07581 52.9184 6.08071 52.9557 6.11236C53.0548 6.19687 52.9903 6.50603 53.0384 6.62709C53.1176 6.82482 53.5101 7.11734 53.5207 7.33041C53.524 7.39502 53.3933 7.49274 53.3959 7.55751C53.4011 7.69717 53.5879 7.94515 53.7021 8.02624C53.862 8.13962 54.309 8.3354 54.4632 8.21467C54.4872 8.19574 54.44 8.11172 54.4632 8.09149C54.5211 8.04108 54.721 8.07371 54.7678 8.13489C54.8008 8.17878 54.7068 8.30799 54.7388 8.35237C54.775 8.40115 54.9186 8.38255 54.9776 8.39625C55.0713 8.41746 55.3476 8.4974 55.3476 8.4974C55.3476 8.4974 55.6924 9.00381 55.8695 9.09224C56.0188 9.1668 56.4156 9.02649 56.536 9.14216C56.6347 9.23711 56.6574 9.56129 56.6011 9.68609C56.544 9.81318 56.212 9.88317 56.1448 10.005C56.0864 10.1117 56.1392 10.37 56.1236 10.4909C56.1136 10.5663 56.0581 10.7881 56.0581 10.7881C56.0581 10.7881 56.6079 11.3738 56.7176 11.6143C56.7474 11.6797 56.72 11.8442 56.7683 11.8971C56.815 11.9481 57.0077 11.9622 57.0365 11.9622C57.0656 11.9622 57.573 12.3467 57.573 12.3467C57.573 12.3467 57.3475 13.5422 57.573 13.8398C57.6015 13.8772 57.7291 13.8507 57.7542 13.8907C57.8469 14.0389 57.5903 14.4089 57.6307 14.579C57.6602 14.7024 57.9351 14.9851 57.9351 14.9851C57.9351 14.9851 57.8415 15.5007 57.8789 15.668C57.9226 15.8666 58.1526 16.2175 58.2812 16.375C58.3898 16.5078 58.6381 16.7642 58.7979 16.8261C58.9188 16.8727 59.2116 16.912 59.3163 16.836C59.3519 16.8101 59.3801 16.7107 59.3676 16.6691C59.3322 16.5495 59.0307 16.464 58.9861 16.3475C58.9716 16.3102 58.9989 16.2275 59.0083 16.1883C59.0206 16.1379 59.0662 16.0434 59.077 15.9927C59.0871 15.9438 59.1248 15.8304 59.0914 15.7937C59.0481 15.7455 58.8551 15.7922 58.8339 15.7862C58.7832 15.7725 58.6998 15.6747 58.7036 15.6225C58.7081 15.5483 58.8824 15.4816 58.9179 15.4161L58.9468 15.2602L58.7075 15.1915C58.7215 15.0469 58.7215 15.0469 58.7215 15.0469C59.0625 14.9954 59.0625 14.9954 59.0625 14.9954C59.0625 14.9954 59.4767 14.845 59.581 14.7459C59.581 14.7459 59.7626 14.4152 59.755 14.4268L60.1755 13.8888C60.2991 13.7312 60.2991 13.7312 60.2991 13.7312L60.1755 13.189C60.1752 13.1882 60.1752 13.1867 60.1755 13.1861C60.1968 13.1057 60.3417 12.8973 60.3417 12.8973L60.8423 12.9123L61.179 12.6457C61.3058 12.4142 61.1885 11.8404 61.2875 11.5961C61.3444 11.4561 61.5968 11.2583 61.6609 11.1216C61.6941 11.051 61.7657 10.8844 61.7264 10.8167C61.6818 10.7394 61.4565 10.763 61.3862 10.7077C61.3862 10.7077 61.203 10.3785 61.161 10.3388C61.161 10.3388 60.5817 10.3671 60.393 10.3313C60.3355 10.3206 60.2296 10.2693 60.1755 10.2486C60.0776 10.2113 60.1755 10.2486 59.7836 10.0993C59.7836 10.0993 59.7862 9.76913 59.755 9.66472C59.7252 9.56683 59.5516 9.30939 59.5516 9.30939C59.001 9.30188 59.5516 9.30939 59.001 9.30188C58.8528 9.2996 58.7925 8.9007 58.682 8.802C58.6233 8.74963 58.468 8.6258 58.3995 8.66414C58.3662 8.68274 58.4123 8.78993 58.3849 8.81619C58.2921 8.90576 57.987 8.90201 57.8705 8.8467C57.7976 8.81211 57.7496 8.62857 57.6823 8.58452C57.5672 8.51029 57.2754 8.43133 57.1455 8.47554C56.986 8.52987 56.8625 8.92958 56.7035 8.98652C56.5376 9.04639 56.0076 8.8684 56.0076 8.8684C56.0076 8.8684 56.0885 8.23017 55.9568 8.08415C55.8705 7.98855 55.5056 8.11303 55.4488 7.99768C55.4008 7.89996 55.6398 7.72099 55.6526 7.61315C55.6589 7.55621 55.6475 7.41231 55.5941 7.39192C55.4067 7.32095 55.1222 7.79163 54.927 7.83796C54.8243 7.86244 54.5926 7.84922 54.5076 7.78674C54.435 7.73388 54.365 7.54854 54.3573 7.45914C54.3503 7.37169 54.4162 7.20202 54.4493 7.12077C54.4939 7.00804 54.6809 6.69414 54.6809 6.69414C54.6809 6.69414 55.0683 6.45904 55.2135 6.42446C55.4638 6.36458 56.0609 6.24124 56.2423 6.42413C56.2978 6.47976 56.2394 6.73786 56.2394 6.73786C56.2394 6.73786 56.5249 6.96725 56.6092 6.90998C56.7205 6.83477 56.5322 6.49918 56.5804 6.37388C56.6135 6.28546 56.7732 6.16538 56.8463 6.10551C56.9711 6.00387 57.3845 5.75246 57.3845 5.75246C57.3845 5.75246 57.3935 5.56027 57.4207 5.50382C57.5057 5.32991 57.8041 5.06365 57.9575 4.94569C58.0869 4.84617 58.5128 4.79234 58.5279 4.62984C58.5293 4.61369 58.4779 4.60455 58.4773 4.5884C58.4734 4.45576 58.7351 4.25754 58.8636 4.22491C58.8993 4.21594 58.9744 4.24237 59.0051 4.26243C59.0271 4.27646 59.0441 4.34287 59.07 4.34368C59.1245 4.34531 59.1723 4.213 59.2167 4.18102C59.2245 4.17531 59.2537 4.17482 59.2526 4.16536C59.247 4.12523 59.1312 4.15182 59.0917 4.14285C59.0499 4.13306 58.954 4.12327 58.929 4.08868C58.9059 4.05671 58.9119 3.96649 58.929 3.93092C58.9408 3.90563 58.9891 3.86958 59.0152 3.86028C59.06 3.84429 59.1594 3.85049 59.2057 3.86028C59.2292 3.86501 59.276 3.88198 59.2933 3.89829C59.3242 3.92749 59.3307 4.03109 59.3687 4.05067C59.3896 4.06144 59.4464 4.05442 59.4615 4.03648C59.4632 4.03403 59.4584 4.02506 59.4615 4.02326C59.4669 4.01918 59.4808 4.03142 59.4878 4.03207C59.555 4.03794 59.7043 4.0355 59.7552 3.99079C59.7803 3.96844 59.7629 3.87708 59.7926 3.86011C59.8267 3.84054 59.921 3.86746 59.9451 3.89813C59.9668 3.92602 59.9616 4.00858 59.9451 4.03974C59.925 4.07792 59.7906 4.09619 59.8033 4.1373C59.8033 4.13746 59.8042 4.13714 59.8045 4.1373C59.8338 4.16308 59.7994 4.2626 59.8247 4.29262C59.8838 4.36277 60.0877 4.3737 60.1756 4.40095C60.2089 4.41122 60.2861 4.41612 60.3094 4.4419C60.3102 4.4432 60.3071 4.44565 60.3097 4.44793C60.3316 4.46588 60.4024 4.4587 60.4217 4.43831C60.4579 4.40029 60.4569 4.27304 60.4287 4.22834C60.392 4.16928 60.2132 4.17156 60.1755 4.11299C60.1471 4.06845 60.1446 3.94397 60.1755 3.9009C60.2009 3.86501 60.3155 3.87937 60.3417 3.84429C60.3876 3.78295 60.392 3.60642 60.3562 3.5392C60.3311 3.49271 60.2203 3.45665 60.1756 3.42941C60.1378 3.40591 60.0461 3.37492 60.0233 3.33658C59.9578 3.22564 60.0011 2.82234 60.0011 2.82234C60.0011 2.82234 59.6687 3.01795 59.5448 3.04683C59.5045 3.05629 59.4056 3.07782 59.378 3.04683C59.3123 2.97341 59.4785 2.73571 59.4216 2.65511C59.3294 2.52459 58.9561 2.47549 58.8 2.50844C58.7209 2.52525 58.5784 2.63048 58.5424 2.70259C58.4765 2.83506 58.6305 3.17555 58.5424 3.29497C58.4712 3.39286 58.172 3.36219 58.0807 3.44164C57.9997 3.51163 57.981 3.76353 57.8953 3.82765C57.8545 3.85816 57.7337 3.89307 57.6948 3.86011C57.6005 3.77985 57.7761 3.45894 57.6948 3.36578C57.6227 3.28306 57.2599 3.30574 57.2599 3.30574L57.0427 3.16413C57.0427 3.16413 56.9241 2.92071 56.9551 2.84387C57.0403 2.63537 57.5263 2.47891 57.7325 2.38869C57.8237 2.34888 58.029 2.21983 58.1133 2.27302C58.168 2.30744 58.1016 2.48756 58.1513 2.52851C58.1926 2.56212 58.3246 2.55347 58.3637 2.51725C58.3877 2.49539 58.3574 2.41186 58.38 2.38869C58.4192 2.34888 58.5633 2.39783 58.6013 2.35704C58.6089 2.34888 58.6109 2.32164 58.605 2.31218C58.5918 2.29031 58.5259 2.29309 58.5101 2.27302C58.4889 2.24577 58.467 2.1642 58.4882 2.13712C58.5306 2.08312 58.6992 2.14332 58.7607 2.11411C58.8142 2.0885 58.8868 1.988 58.9256 1.94281C58.9281 1.93987 58.9308 1.93123 58.9347 1.93041C58.9351 1.93025 58.9359 1.93139 58.9367 1.93139C58.9543 1.92862 58.9703 1.88767 58.9866 1.87951C59.116 1.8149 59.4212 1.76596 59.5596 1.80707C59.6392 1.83089 59.8218 1.93987 59.813 2.02259C59.7927 2.20939 59.1246 2.18965 59.149 2.37597C59.177 2.59132 59.8024 2.67665 59.9942 2.57533C60.0608 2.54026 60.041 2.33599 60.1034 2.29292C60.1184 2.28265 60.158 2.29292 60.176 2.29292C60.2504 2.29292 60.4093 2.33126 60.4732 2.29292C60.5328 2.25719 60.6325 2.11004 60.6034 2.04625C60.5762 1.98507 60.3838 2.03434 60.3421 1.98148C60.2941 1.91997 60.3848 1.73512 60.3421 1.66954C60.3174 1.63169 60.2172 1.6144 60.1758 1.5958C60.013 1.52352 59.6997 1.33395 59.5235 1.30686C59.3829 1.28565 59.0938 1.33036 58.9576 1.37229C58.8719 1.39855 58.683 1.46071 58.6388 1.53902C58.5885 1.62728 58.7359 1.87657 58.661 1.94493C58.5982 2.00154 58.3892 1.95113 58.3273 1.89403C58.2851 1.85471 58.2583 1.72452 58.2756 1.66954C58.3078 1.56659 58.6319 1.4811 58.5959 1.37946C58.5468 1.24275 58.1598 1.33313 58.0157 1.35091C57.9722 1.35613 57.8808 1.37147 57.8488 1.40133C57.811 1.43689 57.7503 1.55191 57.7766 1.59694C57.8041 1.64474 57.9627 1.58829 57.9942 1.63365C58.0254 1.67933 57.9922 1.81458 57.9502 1.85063C57.8803 1.91132 57.6558 1.81866 57.5806 1.87249C57.549 1.89533 57.5545 1.99469 57.5224 2.01704C57.4121 2.09356 57.0848 2.12293 56.9869 2.03189C56.9311 1.98033 56.9711 1.73268 56.9506 1.72811C56.9489 1.72778 56.9488 1.72762 56.9502 1.72762L56.9506 1.72811C56.9731 1.7317 57.2798 1.75813 57.3703 1.72028C57.4734 1.67721 57.7072 1.51847 57.6896 1.40818C57.6819 1.36005 57.5635 1.31372 57.5154 1.32138C57.4356 1.33378 57.3594 1.51814 57.284 1.5462C57.1938 1.58013 56.9837 1.57067 56.8988 1.52467C56.8125 1.47735 56.7549 1.25009 56.6673 1.20539C56.5577 1.14926 56.2911 1.16639 56.1743 1.20539C56.0218 1.2558 55.609 1.43706 55.6599 1.58943C55.6968 1.70135 56.0363 1.51944 56.1314 1.58943C56.1608 1.61081 56.1834 1.69238 56.1745 1.72746C56.1637 1.76824 56.0363 1.80365 56.0514 1.84345C56.0979 1.96533 56.4655 1.78423 56.5732 1.85765C56.6154 1.88685 56.682 2.00415 56.6528 2.04592C56.5693 2.16714 56.1772 2.11966 56.0653 2.02422C56.0374 2.0004 56.0624 1.90561 56.0361 1.87918C55.9704 1.81197 55.7555 1.83285 55.6672 1.79957C55.6149 1.77999 55.5255 1.70494 55.4715 1.69107C55.3791 1.66742 55.1165 1.68749 55.0478 1.69303C53.772 2.61465 52.7557 3.87284 52.1299 5.3379V5.82946C52.1297 5.82946 52.4386 5.9187 52.4917 6.00403Z" fill="#2C3E50"/>
<path d="M65.4089 2.54597C65.3577 2.58137 65.2567 2.67012 65.2396 2.73C65.2244 2.78253 65.2783 2.94454 65.2783 2.94454C65.2783 2.94454 65.4447 2.94111 65.4855 2.97358C65.552 3.02546 65.5336 3.25321 65.6111 3.28633C65.7002 3.32418 65.8855 3.09382 65.969 3.14195C66.0602 3.19481 66.0973 3.48064 66.0279 3.56058C66.0103 3.58081 65.9472 3.56238 65.9202 3.56058C65.846 3.55487 65.7003 3.51637 65.6261 3.51686C65.5435 3.51767 65.3701 3.52746 65.2998 3.57167C65.1845 3.64427 65.1004 3.94528 64.9844 4.01707C64.8872 4.07759 64.6146 4.0076 64.5333 4.08803C64.4637 4.15672 64.4139 4.39263 64.4681 4.47437C64.4953 4.51483 64.6325 4.47779 64.6585 4.5194C64.6924 4.57307 64.6575 4.73263 64.6043 4.76738C64.5084 4.83003 64.2698 4.67667 64.1556 4.67748C64.0506 4.6783 63.7447 4.76738 63.7447 4.76738C63.7447 4.76738 63.6644 4.93526 63.6579 4.99627C63.645 5.11668 63.6566 5.37885 63.7293 5.47593C63.7688 5.52944 63.9055 5.57447 63.9708 5.5885C64.0692 5.61036 64.2738 5.59111 64.3748 5.58621C64.4431 5.58279 64.593 5.60269 64.6475 5.56125C64.6942 5.52634 64.7314 5.3441 64.7314 5.3441C64.7314 5.3441 64.9944 4.84993 65.1585 4.78908C65.2256 4.76395 65.3698 4.86543 65.4393 4.84667C65.5292 4.82236 65.6264 4.56997 65.7155 4.5964C65.7648 4.61092 65.7383 4.7509 65.7674 4.79234C65.8865 4.95957 66.4139 5.04897 66.4487 5.25176C66.4544 5.28602 66.3975 5.34867 66.3656 5.36352C66.296 5.39631 66.096 5.27966 66.0588 5.34704C66.0338 5.39174 66.1338 5.4862 66.1764 5.51459C66.2165 5.54135 66.3177 5.56027 66.3656 5.55571C66.4254 5.55048 66.5539 5.51378 66.5867 5.46369C66.6234 5.40789 66.5485 5.25405 66.5831 5.19727C66.5975 5.17378 66.6766 5.17508 66.6813 5.14784C66.6864 5.11961 66.625 5.08193 66.6025 5.06431C66.5001 4.98436 66.2322 4.90997 66.148 4.81094C66.0906 4.74274 65.9769 4.54729 66.0282 4.47453C66.0827 4.3972 66.319 4.43831 66.4063 4.47453C66.4451 4.49052 66.4958 4.56491 66.5267 4.59395C66.6051 4.66672 66.8053 4.77733 66.852 4.87408C66.8892 4.95043 66.8329 5.13479 66.8658 5.21326C66.9133 5.32665 67.2027 5.57186 67.2027 5.57186C67.2027 5.57186 67.2504 5.18047 67.3284 5.08013C67.369 5.0276 67.5029 4.92188 67.5617 4.95255C67.6516 4.9997 67.5636 5.26269 67.6056 5.35487C67.6401 5.4322 67.7561 5.57169 67.8338 5.60514C67.9235 5.6438 68.1952 5.61036 68.2687 5.60024C67.7597 4.29148 66.9419 3.13656 65.9064 2.22375C65.8876 2.26585 65.8424 2.36145 65.8114 2.38837C65.73 2.45918 65.498 2.48495 65.4089 2.54597Z" fill="#2C3E50"/>
<path d="M68.4744 6.3334C68.3124 6.39638 67.9443 6.38806 67.7789 6.3334C67.6533 6.29196 67.4818 6.05344 67.3544 6.01788C67.2465 5.98802 66.9839 5.97839 66.9088 6.06111C66.8632 6.11169 66.957 6.28527 66.9088 6.3334C66.884 6.35836 66.8013 6.34417 66.7677 6.3334C66.7232 6.31921 66.6579 6.24449 66.6153 6.22475C66.4347 6.14089 65.9654 6.18624 65.8432 6.02897C65.7662 5.93027 65.9352 5.6136 65.8432 5.5286C65.6627 5.36186 65.0995 5.53594 64.8643 5.60495C64.7816 5.6291 64.644 5.74689 64.5607 5.76794C64.4664 5.79175 64.2691 5.77267 64.172 5.76794C64.1241 5.76549 64.0281 5.73922 63.9813 5.74885C63.8493 5.77593 63.5782 5.8947 63.5097 6.01086C63.447 6.11707 63.5658 6.39409 63.5097 6.50389C63.3743 6.76851 62.6447 6.91926 62.545 7.19939C62.5194 7.27199 62.5639 7.44965 62.6251 7.49648C62.6637 7.52601 62.7894 7.45895 62.8205 7.49648C62.8667 7.55162 62.8158 7.72439 62.7693 7.77937C62.746 7.80743 62.6527 7.79993 62.6319 7.82995C62.5252 7.98102 62.6251 8.56949 62.6251 8.56949L63.4584 9.51885C63.4584 9.51885 63.7462 9.57008 63.8208 9.51885C63.8337 9.50987 63.8301 9.46974 63.843 9.46077C63.9769 9.36794 64.3435 9.52031 64.4954 9.46077C64.5548 9.4376 64.6238 9.31035 64.6832 9.28702C64.7695 9.25341 64.9679 9.25161 65.0532 9.28702C65.1198 9.31442 65.1914 9.45914 65.256 9.48997C65.3811 9.54952 65.7192 9.43988 65.8069 9.54756C65.9234 9.68999 65.7345 10.2799 65.7345 10.2799L66.3466 11.3603C66.3466 11.3603 66.0592 11.806 66.0241 11.9765C66.0094 12.0476 66.0154 12.2007 66.0458 12.2667C66.0836 12.348 66.2662 12.4367 66.3003 12.5196C66.3675 12.6806 66.3003 13.2171 66.3003 13.2171C66.3003 13.2171 66.5892 13.5332 66.6326 13.6656C66.6783 13.8031 66.6326 14.2455 66.6326 14.2455H66.9072C68.1269 12.7472 68.8586 10.8369 68.8586 8.75499C68.8586 7.90434 68.7359 7.08241 68.5083 6.30502C68.4972 6.31676 68.4837 6.33014 68.4744 6.3334Z" fill="#2C3E50"/>
<path d="M64.307 3.34686C64.3558 3.37868 64.4723 3.42126 64.5035 3.4702C64.5224 3.50038 64.542 3.58261 64.5211 3.61165C64.4901 3.65537 64.3462 3.61507 64.3105 3.65537C64.26 3.71149 64.231 3.90009 64.2817 3.95589C64.3245 4.00304 64.4721 3.95915 64.5356 3.95589C64.6199 3.95197 64.7975 3.96291 64.8727 3.92359C64.9324 3.89226 65.0629 3.78214 65.0462 3.71655C65.0342 3.66842 64.9019 3.67283 64.8611 3.64461C64.8296 3.62225 64.7831 3.55944 64.7603 3.52828C64.7172 3.47004 64.6345 3.34915 64.6075 3.28193C64.5749 3.19938 64.6095 2.98272 64.5354 2.93377C64.4743 2.89348 64.3093 2.95074 64.249 2.99169C64.2188 3.01241 64.1794 3.07946 64.1692 3.11454C64.1592 3.14766 64.1529 3.22222 64.1692 3.25256C64.1887 3.28976 64.2721 3.32402 64.307 3.34686Z" fill="#2C3E50"/>
<path d="M63.9006 3.83977C64.0053 3.80665 64.2047 3.68151 64.2589 3.58624C64.2822 3.54512 64.2987 3.43843 64.2742 3.3978C64.251 3.35865 64.1523 3.32928 64.1068 3.3252C64.0468 3.31982 63.921 3.34445 63.8722 3.37969C63.8052 3.42749 63.7202 3.57971 63.6978 3.65884C63.6853 3.7024 63.6654 3.80779 63.6978 3.83977C63.7335 3.87566 63.8526 3.8551 63.9006 3.83977Z" fill="#2C3E50"/>
<path d="M56.9503 1.72758L56.9501 1.72717C56.9488 1.72717 56.949 1.72731 56.9503 1.72758Z" fill="#2C3E50"/>
<path d="M85.4427 13.9041C85.4427 16.2692 83.5254 18.1867 81.16 18.1867C78.7947 18.1867 76.8774 16.2692 76.8774 13.9041C76.8774 11.5389 78.7947 9.62146 81.16 9.62146C83.5254 9.6213 85.4427 11.5388 85.4427 13.9041Z" fill="#E74C3C"/>
<path d="M79.9295 15.2072H78.119V14.7635L78.7282 14.1476C78.9021 13.9655 79.016 13.8414 79.0697 13.7748C79.1231 13.7081 79.1602 13.6512 79.1815 13.6033C79.2025 13.5555 79.2129 13.5055 79.2129 13.4533C79.2129 13.3883 79.1919 13.3371 79.1498 13.2996C79.1077 13.262 79.0485 13.2433 78.9723 13.2433C78.8937 13.2433 78.8144 13.2658 78.7343 13.3108C78.654 13.3557 78.5633 13.4219 78.4621 13.5097L78.0918 13.0762C78.2205 12.9612 78.3284 12.8791 78.416 12.8297C78.5036 12.7801 78.5989 12.7423 78.7018 12.7162C78.8049 12.6899 78.9206 12.677 79.0491 12.677C79.2107 12.677 79.3547 12.7054 79.4816 12.7623C79.6082 12.8191 79.707 12.9002 79.7768 13.0053C79.8469 13.1105 79.8817 13.2286 79.8817 13.3593C79.8817 13.4572 79.8696 13.5476 79.845 13.6306C79.8205 13.7136 79.7827 13.7954 79.7314 13.8755C79.6802 13.9557 79.6125 14.0403 79.5278 14.129C79.4428 14.2176 79.2624 14.3861 78.986 14.6341V14.6511H79.9293L79.9295 15.2072Z" fill="#F5F5F5"/>
<path d="M82.0572 14.7243H81.7826V15.2072H81.1169V14.7243H80.1221V14.2293L81.1595 12.7124H81.7824V14.2209H82.057V14.7243H82.0572ZM81.1169 14.2209V13.9309C81.1169 13.8763 81.1191 13.8026 81.1228 13.7099C81.1269 13.6171 81.13 13.5686 81.1324 13.5639H81.1137C81.0752 13.6516 81.0311 13.7334 80.982 13.8096L80.706 14.2209H81.1169Z" fill="#F5F5F5"/>
<path d="M83.5577 15.2072V14.1526C83.5577 13.8934 83.4809 13.7637 83.3272 13.7637C83.2181 13.7637 83.1376 13.8093 83.0859 13.9009C83.0342 13.9925 83.0083 14.1446 83.0083 14.3573V15.2072H82.3408V12.5521H83.0083V12.9293C83.0083 13.1 82.9988 13.2943 82.9807 13.5129H83.0114C83.0751 13.4129 83.1507 13.3422 83.2385 13.3011C83.3261 13.2602 83.4279 13.24 83.544 13.24C83.7599 13.24 83.9281 13.3021 84.0482 13.4268C84.1682 13.5514 84.2283 13.7256 84.2283 13.9498V15.2073L83.5577 15.2072Z" fill="#F5F5F5"/>
<path d="M30.0829 27.7753C30.0829 32.5248 26.2323 36.3753 21.4828 36.3753C16.7331 36.3753 12.8828 32.5248 12.8828 27.7753C12.8828 23.0256 16.7331 19.1752 21.4828 19.1752C26.2325 19.1752 30.0829 23.0256 30.0829 27.7753Z" fill="#3498DB"/>
<path d="M16.5762 26.1039L21.4833 22.2052L26.3904 26.1039L21.4833 30.2963L16.5762 26.1039Z" fill="#F7AC34"/>
<path d="M25.4055 23.158H17.5288V30.7807H25.4055V23.158Z" fill="#F2F2F2"/>
<path d="M24.7703 25.9451H18.0684V26.2627H24.7703V25.9451Z" fill="#CCCCCC"/>
<path d="M24.7703 26.8105H18.0684V27.1282H24.7703V26.8105Z" fill="#CCCCCC"/>
<path d="M24.7703 27.5707H18.0684V27.8883H24.7703V27.5707Z" fill="#CCCCCC"/>
<path d="M16.5762 26.1039V33.3453H26.3904V26.1039L21.4833 30.2963L16.5762 26.1039Z" fill="#FFC55F"/>
<path d="M16.5762 33.3454L21.4833 30.2964L26.3904 33.3454H16.5762Z" fill="#F7AC34"/>
<path d="M120 59.0333C120 63.0996 116.704 66.396 112.637 66.396C108.571 66.396 105.275 63.0996 105.275 59.0333C105.275 54.967 108.571 51.6707 112.637 51.6707C116.704 51.6707 120 54.9672 120 59.0333Z" fill="#E74C3C"/>
<path d="M114.925 60.6395C114.925 60.8412 114.772 61.0061 114.586 61.0061H107.359C107.172 61.0061 107.02 60.8412 107.02 60.6395V56.514C107.02 56.3126 107.172 56.1475 107.359 56.1475H114.586C114.772 56.1475 114.925 56.3126 114.925 56.514V60.6395Z" fill="#FFC55F"/>
<path d="M114.925 57.2932H107.02V58.3476H114.925V57.2932Z" fill="#333333"/>
<path d="M111.147 58.8062H107.683V59.2184H111.147V58.8062Z" fill="white"/>
<path d="M114.099 58.8062H111.759V59.2184H114.099V58.8062Z" fill="white"/>
<path d="M108.668 60.1353C108.668 60.4071 108.447 60.6275 108.175 60.6275C107.904 60.6275 107.683 60.4071 107.683 60.1353C107.683 59.8635 107.904 59.6431 108.175 59.6431C108.447 59.6432 108.668 59.8635 108.668 60.1353Z" fill="#ED1C24"/>
<path d="M108.848 60.6275C109.12 60.6275 109.34 60.4071 109.34 60.1353C109.34 59.8634 109.12 59.6431 108.848 59.6431C108.576 59.6431 108.355 59.8634 108.355 60.1353C108.355 60.4071 108.576 60.6275 108.848 60.6275Z" fill="#FF6110"/>
<path d="M117.763 62.1981C117.763 62.3998 117.61 62.5647 117.424 62.5647H110.197C110.01 62.5647 109.857 62.3998 109.857 62.1981V58.0726C109.857 57.871 110.01 57.7061 110.197 57.7061H117.424C117.61 57.7061 117.763 57.871 117.763 58.0726V62.1981Z" fill="#3498DB"/>
<path d="M117.763 58.8518H109.857V59.9062H117.763V58.8518Z" fill="#333333"/>
<path d="M113.984 60.3646H110.521V60.7769H113.984V60.3646Z" fill="white"/>
<path d="M116.937 60.3646H114.597V60.7769H116.937V60.3646Z" fill="white"/>
<path d="M111.733 61.6024H111.732C111.724 61.6024 111.716 61.6427 111.707 61.6605L111.677 61.7246H111.743L111.738 61.6605C111.736 61.6435 111.734 61.6024 111.733 61.6024Z" fill="#094056"/>
<path d="M111.935 61.1445H110.775C110.69 61.1445 110.622 61.2129 110.622 61.2971V62.0908C110.622 62.1751 110.691 62.2435 110.775 62.2435H111.935C112.019 62.2435 112.087 62.1751 112.087 62.0908V61.2971C112.087 61.2129 112.019 61.1445 111.935 61.1445ZM111.435 61.7152C111.402 61.6974 111.371 61.6736 111.371 61.6333C111.371 61.571 111.425 61.5331 111.492 61.5331C111.53 61.5331 111.552 61.5413 111.565 61.5486L111.545 61.6036C111.534 61.5981 111.513 61.5894 111.487 61.5899C111.456 61.5899 111.44 61.6054 111.44 61.6224C111.44 61.6402 111.459 61.6513 111.485 61.666C111.522 61.6857 111.546 61.7107 111.546 61.7474C111.546 61.8162 111.49 61.8514 111.421 61.8514C111.378 61.8514 111.347 61.8405 111.333 61.8294L111.355 61.7754C111.373 61.7864 111.399 61.795 111.427 61.795C111.453 61.795 111.476 61.7833 111.476 61.7588C111.476 61.7413 111.463 61.7299 111.435 61.7152ZM111.28 61.8467H111.214L111.273 61.5415H111.339L111.28 61.8467ZM111.079 61.8467H111.002L110.972 61.6025H110.922C110.905 61.6025 110.891 61.5888 110.891 61.5721C110.891 61.5553 110.905 61.5415 110.922 61.5415H111.002C111.003 61.5415 111.004 61.5415 111.005 61.5415H111.032L111.046 61.6896C111.049 61.7222 111.051 61.755 111.053 61.7857H111.054C111.066 61.755 111.08 61.7213 111.096 61.6891L111.165 61.5415H111.238L111.079 61.8467ZM111.753 61.8467L111.746 61.7552H111.657L111.621 61.8467H111.551L111.701 61.5415H111.785L111.822 61.8467H111.753Z" fill="#333333"/>
<path d="M41.3929 13.9041C41.3929 16.2692 39.4756 18.1867 37.1102 18.1867C34.7449 18.1867 32.8276 16.2692 32.8276 13.9041C32.8276 11.5389 34.7449 9.62146 37.1102 9.62146C39.4756 9.6213 41.3929 11.5388 41.3929 13.9041Z" fill="#E74C3C"/>
<path d="M39.2763 15.7101C40.274 14.5133 40.1126 12.7342 38.9157 11.7366C37.7189 10.7389 35.9399 10.9003 34.9422 12.0971C33.9445 13.2939 34.106 15.0729 35.3028 16.0706C36.4996 17.0683 38.2786 16.9069 39.2763 15.7101Z" stroke="#F5F5F5" stroke-width="6" stroke-miterlimit="10"/>
<path d="M38.1913 13.9039C38.1913 14.501 37.7073 14.9849 37.1103 14.9849C36.5132 14.9849 36.0293 14.5009 36.0293 13.9039C36.0293 13.3068 36.5134 12.8228 37.1103 12.8228C37.7074 12.8229 38.1913 13.307 38.1913 13.9039Z" stroke="#F5F5F5" stroke-width="6" stroke-miterlimit="10"/>
<path d="M11.0458 39.748C11.0458 42.1133 9.12822 44.0306 6.76291 44.0306C4.39761 44.0306 2.48047 42.1133 2.48047 39.748C2.48047 37.3827 4.39761 35.4656 6.76291 35.4656C9.12822 35.4656 11.0458 37.3827 11.0458 39.748Z" fill="#2C3E50"/>
<path d="M6.76288 43.1904C8.66415 43.1904 10.2054 41.6491 10.2054 39.7479C10.2054 37.8466 8.66415 36.3053 6.76288 36.3053C4.8616 36.3053 3.32031 37.8466 3.32031 39.7479C3.32031 41.6491 4.8616 43.1904 6.76288 43.1904Z" stroke="#ECF0F1" stroke-width="3" stroke-miterlimit="10"/>
<path d="M8.45348 41.4018L7.008 39.9683V37.3949C7.008 37.2596 6.89852 37.1501 6.76328 37.1501C6.62803 37.1501 6.51855 37.2596 6.51855 37.3949V40.0703L6.51872 40.071C6.51872 40.0715 6.51888 40.0718 6.51888 40.0724C6.51921 40.1038 6.52541 40.1336 6.5365 40.1612C6.53683 40.1622 6.53699 40.1631 6.53732 40.164C6.54988 40.1941 6.56815 40.2212 6.59099 40.2439V40.2441L8.10891 41.7493C8.15671 41.7966 8.21887 41.8202 8.28119 41.8202C8.34417 41.8202 8.40714 41.7961 8.45495 41.7478C8.55006 41.6519 8.54941 41.4969 8.45348 41.4018Z" fill="#ECF0F1"/>
<path d="M14.7252 59.0333C14.7252 63.0996 11.4288 66.396 7.3625 66.396C3.29622 66.396 0 63.0996 0 59.0333C0 54.967 3.29622 51.6707 7.3625 51.6707C11.4288 51.6707 14.7252 54.9672 14.7252 59.0333Z" fill="#2C3E50"/>
<path d="M10.4958 59.1045C9.64415 59.9563 8.26311 59.9563 7.41132 59.1045C6.55953 58.2527 6.55953 56.8717 7.41116 56.0201C8.26295 55.1683 9.64399 55.1683 10.4956 56.0201C11.3476 56.8717 11.3476 58.2527 10.4958 59.1045Z" stroke="#3498DB" stroke-width="6" stroke-miterlimit="10"/>
<path d="M3.78195 62.7341C3.52711 62.4795 3.52711 62.0661 3.78195 61.8114L6.9842 58.9743C7.23903 58.7193 7.46972 58.5367 7.72456 58.7915C7.97939 59.0465 7.77742 59.2576 7.52258 59.5126L4.70487 62.7341C4.45003 62.989 4.03678 62.989 3.78195 62.7341Z" fill="#3498DB"/>
</svg>
