<svg width="140" height="94" viewBox="0 0 140 94" fill="none" xmlns="http://www.w3.org/2000/svg">
<path d="M24.4597 12.648C24.5697 11.8496 23.4428 11.1927 22.5961 11.1244C22.1923 11.0919 21.7729 11.1535 21.3904 11.0203C20.5616 10.7313 20.2304 9.66058 19.4218 9.31954C18.8172 9.06455 18.1211 9.29154 17.535 9.58647C16.9488 9.8814 16.3696 10.2527 15.7148 10.2947C15.1453 10.3311 14.5266 10.12 14.0282 10.3981C13.657 10.6055 13.4623 11.0333 13.1201 11.2859C12.7852 11.5328 12.3484 11.5851 11.9329 11.6077C11.5174 11.6303 11.0873 11.6344 10.7089 11.8076C10.3306 11.9808 10.0177 12.3809 10.0961 12.7895L24.4597 12.648Z" fill="#EBEBEB"/>
<path d="M112.86 10.8577C112.97 10.0593 111.843 9.40246 110.997 9.33414C110.593 9.30166 110.173 9.36325 109.791 9.22997C108.962 8.94101 108.631 7.87029 107.822 7.52925C107.218 7.27427 106.521 7.50125 105.935 7.79619C105.349 8.09112 104.77 8.4624 104.115 8.5044C103.545 8.5408 102.927 8.32968 102.429 8.60781C102.057 8.8152 101.863 9.24304 101.521 9.4956C101.186 9.74256 100.749 9.79483 100.333 9.81741C99.9178 9.84 99.4877 9.84411 99.1093 10.0173C98.731 10.1906 98.4181 10.5906 98.4965 10.9992L112.86 10.8577Z" fill="#EBEBEB"/>
<path d="M55.6645 32.0528C55.739 31.5124 54.9761 31.0678 54.403 31.0217C54.1297 30.9996 53.8458 31.0415 53.5869 30.9511C53.026 30.7555 52.8018 30.0308 52.2545 29.7999C51.8453 29.6273 51.3741 29.7811 50.9773 29.9806C50.5806 30.1804 50.1884 30.4316 49.7453 30.46C49.3598 30.4846 48.9411 30.3416 48.6038 30.53C48.3524 30.6704 48.2208 30.9599 47.9891 31.1309C47.7625 31.2981 47.4668 31.3334 47.1855 31.3487C46.9042 31.364 46.6132 31.3668 46.3571 31.484C46.101 31.6013 45.8891 31.8721 45.9423 32.1486L55.6645 32.0528Z" fill="#F5F5F5"/>
<path d="M132.626 21.2939C132.7 20.7535 131.937 20.3089 131.364 20.2628C131.091 20.2407 130.807 20.2825 130.548 20.1922C129.987 19.9966 129.763 19.2719 129.216 19.041C128.807 18.8684 128.336 19.0222 127.939 19.2217C127.542 19.4215 127.15 19.6727 126.707 19.7011C126.321 19.7257 125.903 19.5827 125.565 19.7711C125.314 19.9115 125.182 20.2012 124.951 20.372C124.724 20.5392 124.428 20.5745 124.147 20.5898C123.866 20.6051 123.575 20.6079 123.319 20.7251C123.062 20.8424 122.851 21.1132 122.904 21.3897L132.626 21.2939Z" fill="#F5F5F5"/>
<path d="M136.297 62.1328H75.9199C69.3364 62.1328 63.9805 56.7768 63.9805 50.1932V25.9094C63.9805 24.442 62.7868 23.2483 61.3194 23.2483H39.9158C38.9599 23.2483 38.1822 24.0259 38.1822 24.9818V33.9618C38.1822 39.881 33.3666 44.6964 27.4478 44.6964H6.97998V35.6954H27.4478C28.4035 35.6954 29.1812 34.9177 29.1812 33.9618V24.9818C29.1812 19.0628 33.9966 14.2472 39.9158 14.2472H61.3194C67.7499 14.2472 72.9816 19.4787 72.9816 25.9094V50.1932C72.9816 51.8135 74.2998 53.1315 75.9199 53.1315H136.297V62.1328Z" fill="#EBEBEB"/>
<path d="M43.1228 24.9713C42.5245 24.9713 42.0396 24.4864 42.0396 23.8881V12.7663C42.0396 12.1681 42.5245 11.6831 43.1228 11.6831C43.721 11.6831 44.206 12.1681 44.206 12.7663V23.8881C44.206 24.4864 43.721 24.9713 43.1228 24.9713Z" fill="#E0E0E0"/>
<path d="M40.193 29.6837C40.193 30.282 39.7081 30.7669 39.1098 30.7669H27.988C27.3897 30.7669 26.9048 30.282 26.9048 29.6837C26.9048 29.0854 27.3897 28.6005 27.988 28.6005H39.1098C39.7081 28.6005 40.193 29.0854 40.193 29.6837Z" fill="#E0E0E0"/>
<path d="M20.6081 47.3441C20.0099 47.3441 19.5249 46.8592 19.5249 46.2609V35.1391C19.5249 34.5409 20.0099 34.0559 20.6081 34.0559C21.2064 34.0559 21.6914 34.5409 21.6914 35.1391V46.2609C21.6914 46.8592 21.2064 47.3441 20.6081 47.3441Z" fill="#E0E0E0"/>
<path d="M74.4982 30.5005C74.4982 31.0987 74.0132 31.5837 73.415 31.5837H62.2932C61.6949 31.5837 61.21 31.0987 61.21 30.5005C61.21 29.9022 61.6949 29.4172 62.2932 29.4172H73.415C74.0132 29.4172 74.4982 29.9022 74.4982 30.5005Z" fill="#E0E0E0"/>
<path d="M74.4982 48.7691C74.4982 49.3674 74.0132 49.8524 73.415 49.8524H62.2932C61.6949 49.8524 61.21 49.3674 61.21 48.7691C61.21 48.1709 61.6949 47.6859 62.2932 47.6859H73.415C74.0132 47.6857 74.4982 48.1709 74.4982 48.7691Z" fill="#E0E0E0"/>
<path d="M104.834 50.6963C105.432 50.6963 105.917 51.1813 105.917 51.7795V62.9013C105.917 63.4996 105.432 63.9845 104.834 63.9845C104.235 63.9845 103.75 63.4996 103.75 62.9013V51.7795C103.75 51.1813 104.235 50.6963 104.834 50.6963Z" fill="#E0E0E0"/>
<path d="M126.636 50.6963C127.234 50.6963 127.719 51.1813 127.719 51.7795V62.9013C127.719 63.4996 127.234 63.9845 126.636 63.9845C126.038 63.9845 125.553 63.4996 125.553 62.9013V51.7795C125.553 51.1813 126.038 50.6963 126.636 50.6963Z" fill="#E0E0E0"/>
<path d="M60.1272 25.3872C59.5289 25.3872 59.0439 24.9023 59.0439 24.304V13.1822C59.0439 12.584 59.5289 12.099 60.1272 12.099C60.7254 12.099 61.2104 12.584 61.2104 13.1822V24.304C61.2104 24.9021 60.7252 25.3872 60.1272 25.3872Z" fill="#E0E0E0"/>
<path d="M135.857 88.0996C135.857 88.1264 106.369 88.1481 70.0032 88.1481C33.6243 88.1481 4.14307 88.1263 4.14307 88.0996C4.14307 88.0729 33.6243 88.051 70.0032 88.051C106.369 88.051 135.857 88.0727 135.857 88.0996Z" fill="#263238"/>
<path d="M124.558 76.2138C125.105 76.4514 125.508 76.9577 125.71 77.5193C125.913 78.081 125.931 78.6946 125.863 79.2878C125.733 80.4355 125.081 81.5939 124.379 82.5108C123.413 81.6674 123.191 80.1961 123.125 79.4428C123.02 78.2516 123.555 76.0363 124.558 76.2138Z" fill="#FF725E"/>
<path d="M125.503 84.4047C125.348 83.756 125.618 83.0447 126.116 82.6009C126.613 82.1574 127.309 81.9696 127.974 82.0204C128.281 82.0439 128.614 82.1335 128.79 82.3867C128.954 82.6233 128.936 82.9536 128.802 83.2089C128.669 83.4643 128.438 83.6552 128.193 83.8085C127.356 84.3341 126.449 84.6888 125.503 84.4047Z" fill="#FF725E"/>
<path d="M124.264 87.9234C124.258 87.9221 124.271 87.8385 124.298 87.6878C124.329 87.5221 124.368 87.308 124.415 87.0506C124.522 86.518 124.659 85.7551 125.073 85.0146C125.481 84.2759 126.053 83.7318 126.534 83.4619C126.773 83.3236 126.982 83.2412 127.13 83.1983C127.203 83.1737 127.262 83.1643 127.301 83.1546C127.341 83.1462 127.362 83.1432 127.362 83.146C127.369 83.1647 127.028 83.2263 126.564 83.5125C126.1 83.7904 125.547 84.329 125.146 85.0551C124.74 85.7803 124.594 86.5325 124.473 87.0623C124.414 87.3292 124.367 87.5458 124.33 87.6944C124.293 87.8433 124.269 87.9247 124.264 87.9234Z" fill="#263238"/>
<path d="M124.3 77.9368C124.302 77.9368 124.307 77.972 124.311 78.0396C124.316 78.116 124.322 78.2142 124.329 78.3355C124.343 78.5923 124.358 78.9644 124.373 79.4241C124.402 80.3436 124.426 81.6147 124.42 83.0186C124.414 84.4229 124.379 85.6937 124.341 86.613C124.323 87.0726 124.304 87.4444 124.288 87.7013C124.28 87.8226 124.274 87.9204 124.268 87.9968C124.263 88.0644 124.258 88.0996 124.256 88.0996C124.253 88.0996 124.251 88.0638 124.251 87.9962C124.253 87.9197 124.254 87.8215 124.256 87.7C124.262 87.4325 124.271 87.0631 124.282 86.6112C124.305 85.6918 124.33 84.4218 124.336 83.0182C124.342 81.6154 124.328 80.3451 124.314 79.4256C124.307 78.9737 124.301 78.6043 124.297 78.3366C124.296 78.2151 124.295 78.1169 124.295 78.0404C124.295 77.9726 124.297 77.937 124.3 77.9368Z" fill="#263238"/>
<path d="M123.831 85.1032C123.611 83.7146 122.675 82.4593 121.407 81.852C121.084 81.6975 120.663 81.5963 120.397 81.8365C120.131 82.0772 120.191 82.5089 120.321 82.843C120.862 84.2335 122.316 85.215 123.808 85.1975" fill="#FF725E"/>
<path d="M121.564 82.9405C121.566 82.9353 121.639 82.9674 121.769 83.0299C121.834 83.0607 121.914 83.099 122 83.1535C122.087 83.2076 122.192 83.2606 122.295 83.3385C122.401 83.4129 122.518 83.4921 122.633 83.5925C122.753 83.686 122.87 83.7992 122.992 83.9188C123.23 84.1641 123.47 84.4572 123.674 84.7958C123.876 85.1363 124.022 85.4859 124.124 85.8124C124.17 85.9774 124.214 86.1338 124.238 86.2844C124.27 86.4332 124.282 86.5745 124.296 86.7029C124.313 86.8312 124.307 86.9486 124.312 87.0509C124.316 87.1534 124.31 87.2415 124.304 87.3133C124.293 87.4573 124.285 87.5362 124.279 87.5357C124.26 87.5349 124.293 87.2165 124.237 86.7089C124.22 86.5824 124.205 86.4437 124.17 86.2977C124.144 86.1498 124.097 85.9966 124.05 85.8349C123.946 85.5152 123.801 85.1732 123.603 84.8385C123.402 84.5059 123.168 84.2169 122.937 83.9724C122.818 83.8531 122.705 83.7398 122.588 83.6453C122.477 83.544 122.363 83.4633 122.261 83.3866C121.846 83.0893 121.555 82.9567 121.564 82.9405Z" fill="#263238"/>
<path d="M60.6279 73.0981L63.3833 76.0202V88.0996H66.3353V76.0202L69.2092 73.226L60.6279 73.0981Z" fill="#E0E0E0"/>
<path d="M60.6279 73.0981C60.9391 73.1013 64.0131 73.1332 69.2097 73.1874L69.3029 73.1883L69.2361 73.2535C68.3666 74.1011 67.3972 75.0462 66.3659 76.0518L66.3791 76.0202C66.3804 78.8087 66.3821 81.9611 66.3838 85.2871C66.3836 86.2406 66.3836 87.1797 66.3834 88.0994V88.1478H66.3353C65.326 88.1472 64.3402 88.1468 63.3833 88.1465H63.3363V88.0996C63.3441 83.1369 63.3507 78.8893 63.3551 76.0202L63.3628 76.0395C61.6608 74.209 60.7674 73.2482 60.6279 73.0981C60.7692 73.246 61.6761 74.1943 63.4037 76.001L63.4113 76.009V76.0202C63.4158 78.8891 63.4225 83.1369 63.4302 88.0996L63.3833 88.0528C64.3402 88.0524 65.326 88.0518 66.3353 88.0515L66.2871 88.0996C66.2869 87.1799 66.2869 86.2408 66.2867 85.2873C66.2884 81.9613 66.2899 78.8087 66.2914 76.0204V76.0017L66.3047 75.9889C67.3388 74.9863 68.3108 74.0436 69.1825 73.1984L69.2088 73.2645C64.0128 73.1639 60.9387 73.1043 60.6279 73.0981Z" fill="#263238"/>
<path d="M66.3353 76.06C66.3353 76.0869 65.671 76.1085 64.8515 76.1085C64.0318 76.1085 63.3677 76.0867 63.3677 76.06C63.3677 76.0331 64.0318 76.0115 64.8515 76.0115C65.6708 76.0113 66.3353 76.0331 66.3353 76.06Z" fill="#263238"/>
<path d="M88.2052 73.7922C88.166 73.7922 88.1271 73.792 88.0879 73.7918L3.00732 72.9607L3.1406 57.9595L83.4455 58.7481C84.8562 58.7606 86.0064 57.6205 86.0064 56.2098V44.7627C86.0064 37.6897 91.7401 31.9561 98.8131 31.9561H136.993V46.9579H103.547C102.145 46.9579 101.008 48.0943 101.008 49.4962V60.9855C101.008 64.4278 99.662 67.6581 97.2171 70.0814C94.8001 72.4771 91.6034 73.7922 88.2052 73.7922Z" fill="#455A64"/>
<path d="M23.2889 74.768C22.7317 74.768 22.2798 74.3163 22.2798 73.7589V58.3492C22.2798 57.792 22.7315 57.3401 23.2889 57.3401C23.8463 57.3401 24.298 57.7918 24.298 58.3492V73.7589C24.298 74.3163 23.8463 74.768 23.2889 74.768Z" fill="#455A64"/>
<path d="M23.289 74.768C23.2871 74.758 23.4241 74.7792 23.6541 74.6885C23.7666 74.642 23.902 74.5649 24.0209 74.4309C24.1405 74.3003 24.2445 74.111 24.271 73.8808C24.2817 72.946 24.2645 71.5816 24.2639 69.9018C24.2609 68.2196 24.2574 66.2183 24.2535 63.9966C24.2525 62.8852 24.2516 61.7187 24.2507 60.5095C24.2505 59.9049 24.2501 59.2895 24.2499 58.6651C24.2467 58.5101 24.2581 58.3481 24.2374 58.2031C24.2148 58.0554 24.1585 57.9117 24.069 57.7902C23.8949 57.5426 23.5962 57.389 23.2901 57.389C22.9838 57.3883 22.6849 57.5417 22.5104 57.789C22.4206 57.9104 22.3638 58.0541 22.3413 58.2018C22.3203 58.3468 22.3317 58.5088 22.3286 58.6637C22.3284 59.2883 22.328 59.904 22.3278 60.5088C22.3269 61.7182 22.3259 62.885 22.325 63.9966C22.3211 66.2187 22.3175 68.2201 22.3146 69.9024C22.3138 71.5822 22.2966 72.9464 22.3075 73.8812C22.334 74.1112 22.4379 74.3004 22.5576 74.4311C22.6765 74.5651 22.8118 74.6422 22.9244 74.6887C23.1538 74.7792 23.291 74.7581 23.289 74.768C23.289 74.768 23.2565 74.7697 23.1926 74.7682C23.1297 74.7617 23.0336 74.7525 22.9167 74.7068C22.8008 74.6624 22.6605 74.5864 22.5359 74.4507C22.4107 74.3184 22.3 74.1244 22.2696 73.8859C22.2466 72.9419 22.2537 71.5844 22.2455 69.9024C22.2425 68.2201 22.239 66.2187 22.235 63.9966C22.2341 62.885 22.2332 61.7184 22.2322 60.5088C22.2321 59.904 22.2317 59.2885 22.2315 58.6637C22.235 58.5069 22.222 58.3537 22.2451 58.1868C22.2699 58.024 22.3327 57.8657 22.4312 57.7321C22.6231 57.4599 22.9528 57.2906 23.2899 57.2918C23.6268 57.2914 23.9561 57.4611 24.1476 57.7334C24.246 57.8672 24.3083 58.0257 24.333 58.1883C24.3558 58.355 24.3429 58.5083 24.3464 58.6651C24.3462 59.2895 24.3459 59.9049 24.3457 60.5095C24.3447 61.7187 24.3438 62.8852 24.3429 63.9966C24.339 66.2183 24.3354 68.2196 24.3324 69.9018C24.3242 71.5837 24.3313 72.9413 24.3084 73.8855C24.2779 74.124 24.1674 74.3182 24.042 74.4505C23.9173 74.5862 23.7769 74.6624 23.661 74.7068C23.5441 74.7525 23.448 74.7617 23.3851 74.7682C23.3214 74.7697 23.289 74.768 23.289 74.768Z" fill="#263238"/>
<path d="M103.097 51.3324C102.818 51.8151 102.201 51.9803 101.718 51.7018L85.3099 42.2285C84.8272 41.9498 84.662 41.3327 84.9405 40.8501C85.2192 40.3676 85.8363 40.2022 86.3188 40.4807L102.727 49.954C103.21 50.2326 103.375 50.8497 103.097 51.3324Z" fill="#455A64"/>
<path d="M103.096 51.3324C103.085 51.3294 103.192 51.1993 103.218 50.9059C103.229 50.761 103.208 50.5757 103.113 50.3845C103.065 50.2895 102.997 50.1958 102.908 50.112C102.821 50.0263 102.707 49.9625 102.585 49.8936C101.61 49.3354 100.206 48.5307 98.4722 47.5371C96.7367 46.5386 94.6718 45.3505 92.3792 44.0313C91.233 43.3707 90.03 42.677 88.7829 41.9582C88.1594 41.5985 87.5249 41.2324 86.8809 40.861C86.72 40.768 86.5583 40.6749 86.3963 40.5813C86.2354 40.4831 86.0756 40.4083 85.8925 40.398C85.5337 40.3648 85.163 40.555 84.9827 40.8733C84.7966 41.1884 84.8162 41.6046 85.0239 41.8992C85.1244 42.0526 85.2689 42.1544 85.4342 42.2444C85.5965 42.3381 85.7579 42.4314 85.9188 42.5244C86.5626 42.8964 87.1971 43.263 87.8204 43.6231C89.0668 44.3438 90.2691 45.0391 91.4147 45.7014C93.7038 47.0275 95.7653 48.2218 97.4978 49.2255C99.2254 50.2303 100.624 51.0442 101.595 51.6087C101.715 51.6804 101.827 51.7466 101.945 51.7798C102.062 51.8146 102.177 51.8267 102.284 51.8204C102.497 51.8073 102.668 51.7328 102.788 51.6507C103.029 51.4817 103.088 51.3242 103.096 51.3324C103.096 51.3324 103.079 51.3671 103.038 51.4306C102.993 51.4914 102.921 51.581 102.799 51.6669C102.679 51.7531 102.505 51.8327 102.286 51.8493C102.177 51.8573 102.058 51.8465 101.937 51.8121C101.814 51.7795 101.696 51.7112 101.576 51.6417C100.602 51.0836 99.1979 50.279 97.4638 49.2854C95.7283 48.2869 93.6633 47.0986 91.3702 45.7794C90.2239 45.1186 89.0207 44.425 87.7732 43.706C87.1495 43.3462 86.5149 42.98 85.8709 42.6085C85.7098 42.5156 85.5483 42.4224 85.3861 42.3287C85.2242 42.2416 85.0506 42.121 84.9442 41.9546C84.7154 41.6306 84.6937 41.172 84.8987 40.8249C85.0971 40.4744 85.5055 40.2648 85.9003 40.3015C86.0975 40.3107 86.2884 40.4012 86.4449 40.4977C86.6069 40.5912 86.7685 40.6846 86.9294 40.7775C87.5731 41.1494 88.2074 41.5158 88.8306 41.8761C90.0768 42.5966 91.2788 43.2917 92.4242 43.954C94.7129 45.2799 96.7742 46.4742 98.5067 47.4777C100.234 48.4827 101.633 49.2964 102.604 49.8609C102.724 49.93 102.842 49.9983 102.932 50.0879C103.022 50.1756 103.091 50.2733 103.139 50.3716C103.234 50.5695 103.252 50.7599 103.237 50.9074C103.224 51.0559 103.183 51.1633 103.152 51.2324C103.118 51.3001 103.096 51.3324 103.096 51.3324Z" fill="#263238"/>
<path d="M123.326 48.1477C122.769 48.1477 122.317 47.696 122.317 47.1386V31.7291C122.317 31.1719 122.769 30.72 123.326 30.72C123.883 30.72 124.335 31.1717 124.335 31.7291V47.1386C124.335 47.696 123.883 48.1477 123.326 48.1477Z" fill="#455A64"/>
<path d="M123.326 48.1479C123.324 48.1378 123.461 48.1591 123.691 48.0683C123.804 48.0219 123.939 47.9448 124.058 47.8107C124.178 47.6801 124.282 47.4908 124.308 47.2606C124.319 46.3258 124.302 44.9615 124.301 43.2817C124.298 41.5994 124.294 39.5982 124.291 37.3765C124.29 36.265 124.289 35.0986 124.288 33.8893C124.288 33.2847 124.287 32.6693 124.287 32.0449C124.284 31.8899 124.295 31.7279 124.275 31.5829C124.252 31.4352 124.196 31.2915 124.106 31.17C123.932 30.9225 123.633 30.7688 123.327 30.7688C123.021 30.7683 122.722 30.9215 122.547 31.1689C122.458 31.2902 122.401 31.4339 122.378 31.5818C122.357 31.7268 122.369 31.8888 122.366 32.0438C122.365 32.6683 122.365 33.284 122.365 33.8888C122.364 35.0984 122.363 36.265 122.362 37.3766C122.358 39.5987 122.355 41.6002 122.352 43.2824C122.351 44.9622 122.334 46.3264 122.345 47.2612C122.371 47.4912 122.475 47.6805 122.595 47.8111C122.714 47.9451 122.849 48.0222 122.962 48.0687C123.191 48.1589 123.328 48.1378 123.326 48.1479C123.326 48.1479 123.294 48.1495 123.23 48.1481C123.167 48.1415 123.071 48.1324 122.954 48.0866C122.838 48.0424 122.698 47.9662 122.573 47.8305C122.448 47.6982 122.337 47.5042 122.307 47.2657C122.284 46.3217 122.291 44.9643 122.283 43.2824C122.28 41.6002 122.276 39.5987 122.272 37.3766C122.271 36.265 122.27 35.0984 122.269 33.8888C122.269 33.284 122.269 32.6685 122.269 32.0438C122.272 31.887 122.259 31.7337 122.282 31.5668C122.307 31.4041 122.37 31.2458 122.468 31.1121C122.66 30.8399 122.99 30.6706 123.327 30.6718C123.664 30.6714 123.993 30.8411 124.185 31.1134C124.283 31.2473 124.345 31.4055 124.37 31.5683C124.393 31.735 124.38 31.8883 124.384 32.0451C124.383 32.6695 124.383 33.2849 124.383 33.8895C124.382 35.0987 124.381 36.2652 124.38 37.3766C124.376 39.5983 124.373 41.5996 124.37 43.2818C124.361 44.9637 124.368 46.3213 124.345 47.2655C124.315 47.504 124.205 47.6982 124.079 47.8305C123.954 47.9662 123.814 48.0424 123.698 48.0868C123.581 48.1326 123.485 48.1417 123.422 48.1482C123.359 48.1495 123.326 48.1479 123.326 48.1479Z" fill="#263238"/>
<path d="M76.2323 74.768C75.6751 74.768 75.2231 74.3163 75.2231 73.7589V58.3492C75.2231 57.792 75.6749 57.3401 76.2323 57.3401C76.7897 57.3401 77.2414 57.7918 77.2414 58.3492V73.7589C77.2414 74.3163 76.7897 74.768 76.2323 74.768Z" fill="#455A64"/>
<path d="M76.2323 74.768C76.2305 74.758 76.3675 74.7792 76.5974 74.6885C76.71 74.642 76.8453 74.5649 76.9642 74.4309C77.0839 74.3003 77.1879 74.111 77.2144 73.8808C77.225 72.946 77.2078 71.5816 77.2071 69.9018C77.2041 68.2196 77.2006 66.2183 77.1966 63.9966C77.1957 62.8852 77.1948 61.7187 77.1938 60.5095C77.1937 59.9049 77.1933 59.2895 77.1931 58.6651C77.1899 58.5101 77.2013 58.3481 77.1806 58.2031C77.158 58.0554 77.1016 57.9117 77.0122 57.7902C76.8381 57.5426 76.5394 57.389 76.2333 57.389C75.9269 57.3883 75.6281 57.5417 75.4536 57.789C75.3638 57.9104 75.307 58.0541 75.2844 58.2018C75.2635 58.3468 75.2749 58.5088 75.2717 58.6637C75.2716 59.2883 75.2712 59.904 75.271 60.5088C75.2701 61.7182 75.2691 62.885 75.2682 63.9966C75.2643 66.2187 75.2607 68.2201 75.2577 69.9024C75.257 71.5822 75.2398 72.9464 75.2506 73.8812C75.2771 74.1112 75.3811 74.3004 75.5008 74.4311C75.6197 74.5651 75.755 74.6422 75.8676 74.6887C76.0972 74.7792 76.2344 74.7581 76.2323 74.768C76.2323 74.768 76.1998 74.7697 76.136 74.7682C76.0731 74.7617 75.977 74.7525 75.8601 74.7068C75.7442 74.6624 75.6038 74.5864 75.4793 74.4507C75.3541 74.3184 75.2434 74.1244 75.2129 73.8859C75.19 72.9419 75.1971 71.5844 75.1889 69.9024C75.1859 68.2201 75.1823 66.2187 75.1784 63.9966C75.1775 62.885 75.1765 61.7184 75.1756 60.5088C75.1754 59.904 75.175 59.2885 75.1749 58.6637C75.1784 58.5069 75.1653 58.3537 75.1885 58.1868C75.2133 58.024 75.276 57.8657 75.3746 57.7321C75.5665 57.4599 75.8961 57.2906 76.2333 57.2918C76.5702 57.2914 76.8995 57.4611 77.091 57.7334C77.1894 57.8672 77.2517 58.0257 77.2763 58.1883C77.2991 58.355 77.2862 58.5083 77.2898 58.6651C77.2896 59.2895 77.2892 59.9049 77.289 60.5095C77.2881 61.7187 77.2872 62.8852 77.2862 63.9966C77.2823 66.2183 77.2788 68.2196 77.2758 69.9018C77.2676 71.5837 77.2747 72.9413 77.2517 73.8855C77.2213 74.124 77.1108 74.3182 76.9853 74.4505C76.8606 74.5862 76.7203 74.6624 76.6044 74.7068C76.4875 74.7525 76.3914 74.7617 76.3285 74.7682C76.2648 74.7697 76.2323 74.768 76.2323 74.768Z" fill="#263238"/>
<path d="M54.6605 74.768C54.1031 74.768 53.6514 74.3163 53.6514 73.7589V58.3492C53.6514 57.792 54.1031 57.3401 54.6605 57.3401C55.2177 57.3401 55.6696 57.7918 55.6696 58.3492V73.7589C55.6696 74.3163 55.2179 74.768 54.6605 74.768Z" fill="#455A64"/>
<path d="M54.6606 74.768C54.6588 74.758 54.7958 74.7792 55.0255 74.6885C55.1381 74.642 55.2734 74.5649 55.3923 74.4309C55.512 74.3003 55.616 74.111 55.6425 73.8808C55.6531 72.946 55.6359 71.5816 55.6354 69.9018C55.6324 68.2196 55.6289 66.2183 55.6249 63.9966C55.624 62.8852 55.6231 61.7187 55.6221 60.5095C55.622 59.9049 55.6216 59.2895 55.6214 58.6651C55.6182 58.5101 55.6296 58.3481 55.6089 58.2031C55.5863 58.0554 55.5299 57.9117 55.4405 57.7902C55.2663 57.5426 54.9677 57.389 54.6615 57.389C54.3552 57.3883 54.0564 57.5417 53.8818 57.789C53.7921 57.9104 53.7353 58.0541 53.7127 58.2018C53.6918 58.3468 53.7032 58.5088 53.7 58.6637C53.6998 59.2883 53.6995 59.904 53.6993 60.5088C53.6983 61.7182 53.6974 62.885 53.6965 63.9966C53.6926 66.2187 53.689 68.2201 53.686 69.9024C53.6853 71.5822 53.6681 72.9464 53.6789 73.8812C53.7054 74.1112 53.8094 74.3004 53.9291 74.4311C54.048 74.5651 54.1833 74.6422 54.2959 74.6887C54.5255 74.7792 54.6627 74.7581 54.6606 74.768C54.6606 74.768 54.6281 74.7697 54.5643 74.7682C54.5014 74.7617 54.4053 74.7525 54.2884 74.7068C54.1725 74.6624 54.0321 74.5864 53.9076 74.4507C53.7823 74.3184 53.6717 74.1244 53.6412 73.8859C53.6183 72.9419 53.6254 71.5844 53.6171 69.9024C53.6142 68.2201 53.6106 66.2187 53.6067 63.9966C53.6058 62.885 53.6048 61.7184 53.6039 60.5088C53.6037 59.904 53.6033 59.2885 53.6031 58.6637C53.6065 58.5069 53.5936 58.3537 53.6168 58.1868C53.6416 58.024 53.7043 57.8657 53.8029 57.7321C53.9948 57.4599 54.3244 57.2906 54.6615 57.2918C54.9985 57.2914 55.3278 57.4611 55.5193 57.7334C55.6177 57.8672 55.68 58.0257 55.7046 58.1883C55.7274 58.355 55.7145 58.5083 55.7181 58.6651C55.7179 59.2895 55.7175 59.9049 55.7173 60.5095C55.7164 61.7187 55.7155 62.8852 55.7145 63.9966C55.7106 66.2183 55.7071 68.2196 55.7041 69.9018C55.6959 71.5837 55.703 72.9413 55.68 73.8855C55.6496 74.124 55.5391 74.3182 55.4136 74.4505C55.2889 74.5862 55.1486 74.6624 55.0328 74.7068C54.916 74.7525 54.8198 74.7617 54.7569 74.7682C54.6931 74.7697 54.6606 74.768 54.6606 74.768Z" fill="#263238"/>
<g opacity="0.3">
<path d="M89.042 42.2238C89.042 42.2238 96.0922 43.3691 102.215 49.6367L89.042 42.2238Z" fill="black"/>
</g>
<g opacity="0.3">
<path d="M77.2417 58.8616C77.2417 58.8616 79.7012 65.5674 77.2417 73.9769V58.8616Z" fill="black"/>
</g>
<g opacity="0.3">
<path d="M55.7009 58.8616C55.7009 58.8616 58.1293 65.0658 55.6699 73.4751L55.7009 58.8616Z" fill="black"/>
</g>
<g opacity="0.3">
<path d="M24.2053 58.8616C24.2053 58.8616 26.6338 65.0658 24.1743 73.4751L24.2053 58.8616Z" fill="black"/>
</g>
<g opacity="0.3">
<path d="M124.335 31.729C124.335 31.729 126.794 38.4348 124.335 46.8443V31.729Z" fill="black"/>
</g>
<path d="M7.771 72.9501L10.5534 75.9009V88.0996H13.5345V75.9009L16.437 73.0791L7.771 72.9501Z" fill="#E0E0E0"/>
<path d="M7.771 72.9501C8.08217 72.9532 11.1889 72.9857 16.4376 73.0404L16.5307 73.0414L16.4639 73.1065C15.5858 73.9626 14.6067 74.917 13.5653 75.9325L13.5786 75.9009C13.5799 78.7168 13.5816 81.9004 13.5832 85.2594C13.583 86.2223 13.583 87.1709 13.5829 88.0996V88.1479H13.5347C12.5155 88.1474 11.52 88.147 10.5536 88.1466H10.5066V88.0998C10.5144 83.0879 10.521 78.7983 10.5254 75.9011L10.5331 75.9203C8.81353 74.0712 7.91044 73.1 7.771 72.9501C7.91249 73.0981 8.82884 74.0566 10.5738 75.8819L10.5814 75.8899V75.9011C10.5859 78.7983 10.5926 83.0879 10.6003 88.0998L10.5534 88.0529C11.5198 88.0525 12.5153 88.052 13.5345 88.0516L13.4864 88.0998C13.4862 87.1711 13.4862 86.2224 13.486 85.2596C13.4877 81.9007 13.4892 78.7171 13.4907 75.9011V75.8824L13.5039 75.8695C14.5481 74.8569 15.5298 73.9051 16.4101 73.0514L16.4364 73.1175C11.1883 73.0162 8.08198 72.956 7.771 72.9501Z" fill="#263238"/>
<path d="M13.5345 75.941C13.5345 75.9679 12.8637 75.9895 12.0362 75.9895C11.2085 75.9895 10.5376 75.9677 10.5376 75.941C10.5376 75.9141 11.2085 75.8925 12.0362 75.8925C12.8637 75.8923 13.5345 75.9141 13.5345 75.941Z" fill="#263238"/>
<path d="M107.421 46.8444L110.339 49.9389V88.0996H113.465V49.9389L116.648 46.8444H107.421Z" fill="#E0E0E0"/>
<path d="M107.421 46.8444C107.633 46.8436 110.835 46.8339 116.648 46.816L116.718 46.8158L116.668 46.8647C115.721 47.7878 114.648 48.8335 113.489 49.963L113.499 49.9389C113.503 58.7373 113.508 71.1777 113.514 84.954C113.514 86.0115 113.514 87.0613 113.514 88.0996V88.1481H113.465C112.411 88.1479 111.368 88.1479 110.339 88.1477H110.291V88.0996C110.304 70.9688 110.315 56.6503 110.319 49.9389L110.325 49.9524C108.456 47.9518 107.517 46.9463 107.421 46.8444C107.518 46.9453 108.466 47.9423 110.354 49.9253L110.359 49.9309V49.9387C110.364 56.6503 110.375 70.9686 110.388 88.0994L110.34 88.0512C111.368 88.051 112.411 88.051 113.466 88.0508L113.417 88.0994C113.417 87.0609 113.417 86.0113 113.417 84.9538C113.423 71.1775 113.428 58.7371 113.432 49.9387V49.9244L113.442 49.9145C114.604 48.7877 115.679 47.7445 116.629 46.8238L116.648 46.8725C110.835 46.8548 107.632 46.8449 107.421 46.8444Z" fill="#263238"/>
<path d="M113.466 49.9808C113.466 50.0077 112.762 50.0293 111.894 50.0293C111.026 50.0293 110.323 50.0075 110.323 49.9808C110.323 49.9539 111.026 49.9323 111.894 49.9323C112.762 49.9323 113.466 49.9541 113.466 49.9808Z" fill="#263238"/>
<path d="M75.2231 73.6003C75.2229 73.6272 70.8452 73.6208 65.4465 73.5863C60.0458 73.5517 55.6692 73.5019 55.6694 73.4752C55.6696 73.4483 60.0464 73.4545 65.447 73.4892C70.8458 73.5237 75.2233 73.5734 75.2231 73.6003Z" fill="#263238"/>
<path d="M101.397 19.5003C100.304 22.0128 100.083 24.852 100.786 27.5034C100.986 28.254 101.264 28.9822 101.604 29.6803C101.714 29.9069 102.036 29.968 102.242 29.8477C102.473 29.7124 102.52 29.4367 102.41 29.2092C101.022 26.3571 100.936 22.883 102.202 19.9712C102.303 19.7403 102.27 19.4706 102.035 19.3328C101.838 19.2175 101.497 19.268 101.397 19.5003Z" fill="#E0E0E0"/>
<path d="M101.875 27.5452C102.527 26.5936 103.178 25.6417 103.83 24.6901C103.968 24.4881 103.875 24.1637 103.663 24.0515C103.426 23.9263 103.172 24.0034 103.024 24.219C102.373 25.1706 101.721 26.1224 101.07 27.074C100.931 27.276 101.025 27.6004 101.237 27.7126C101.474 27.8379 101.728 27.7608 101.875 27.5452Z" fill="#E0E0E0"/>
<path d="M100.945 24.6844C101.815 24.7407 102.687 24.7303 103.556 24.6532C103.798 24.6317 104.034 24.454 104.022 24.1865C104.012 23.9521 103.816 23.6967 103.556 23.7198C102.687 23.7969 101.815 23.8072 100.945 23.751C100.701 23.7352 100.468 23.9769 100.478 24.2177C100.49 24.4841 100.684 24.6674 100.945 24.6844Z" fill="#E0E0E0"/>
<path d="M101.14 21.0481C101.803 21.9993 102.409 22.9892 102.954 24.0131C103.069 24.2289 103.387 24.3133 103.593 24.1805C103.812 24.039 103.883 23.7728 103.76 23.5419C103.215 22.5181 102.609 21.5282 101.945 20.5769C101.806 20.3772 101.53 20.2654 101.307 20.4095C101.109 20.5375 100.99 20.834 101.14 21.0481Z" fill="#E0E0E0"/>
<path d="M83.8588 79.4248L83.3542 85.1674C83.3542 85.1674 89.0216 87.6088 89.0319 88.6792L77.8623 88.1009L78.2812 79.1211L83.8588 79.4248Z" fill="#455A64"/>
<path d="M79.9258 84.5045C79.7064 84.5525 79.5446 84.7877 79.5834 85.0087C79.6222 85.2297 79.8602 85.3966 80.0801 85.3524C80.3 85.3085 80.5033 85.0319 80.4398 84.8166C80.3764 84.6014 80.0865 84.4209 79.8834 84.5165" fill="#E0E0E0"/>
<path d="M77.8423 88.3354L77.8819 87.4653L88.6202 88.0897C88.6202 88.0897 89.1063 88.3318 89.032 88.6792L77.8423 88.3354Z" fill="#E0E0E0"/>
<path d="M83.5382 85.12C83.5336 85.1745 83.2595 85.185 82.9822 85.3466C82.7005 85.5008 82.5498 85.73 82.5009 85.7058C82.4511 85.6925 82.5495 85.3707 82.8888 85.181C83.2263 84.9884 83.5526 85.0705 83.5382 85.12Z" fill="#263238"/>
<path d="M84.6849 85.665C84.6946 85.7184 84.4537 85.7991 84.2565 86.0201C84.0529 86.2353 83.9932 86.4825 83.939 86.4772C83.8873 86.483 83.866 86.1618 84.1165 85.8915C84.3644 85.6193 84.6864 85.613 84.6849 85.665Z" fill="#263238"/>
<path d="M85.2777 87.1017C85.2275 87.1106 85.1657 86.8344 85.3212 86.543C85.4746 86.2503 85.738 86.1458 85.7588 86.1924C85.7871 86.2389 85.6133 86.3905 85.4892 86.6318C85.3597 86.87 85.3322 87.0993 85.2777 87.1017Z" fill="#263238"/>
<path d="M83.508 83.7983C83.4826 83.8469 83.2362 83.7586 82.9269 83.7636C82.6174 83.7623 82.3721 83.8534 82.3462 83.8051C82.3167 83.764 82.5614 83.5742 82.9258 83.5734C83.2901 83.57 83.5371 83.7569 83.508 83.7983Z" fill="#263238"/>
<path d="M82.1258 21.6994C82.0933 22.3754 82.0356 23.1133 81.5721 23.6062C81.1762 24.0274 80.5716 24.1702 79.9991 24.2499C79.6771 24.2947 79.3493 24.3258 79.0275 24.2799C78.7057 24.234 78.3868 24.1046 78.1634 23.8683C77.9399 23.6322 77.8272 23.2796 77.925 22.9695C77.5657 23.0412 77.1795 22.8743 76.9549 22.5848C76.7303 22.2953 76.6616 21.901 76.7367 21.5425C76.8117 21.1839 77.021 20.8615 77.2915 20.6144C76.9387 20.3241 76.8668 19.9069 77.0143 19.4744C77.2528 18.7749 77.7548 18.6598 78.1744 18.7832C77.763 18.1414 78.401 17.6805 78.6067 17.6805L79.3263 17.5413L82.1258 21.6994Z" fill="#263238"/>
<path d="M88.0295 16.7914C88.199 16.4694 88.185 16.0583 87.994 15.7485C87.8032 15.4386 87.4424 15.2413 87.0784 15.2478L85.438 15.6234C85.6737 16.5454 85.9093 17.4673 86.1451 18.3893C86.2127 18.6539 86.2898 18.9345 86.4923 19.118C86.684 19.2916 86.9601 19.3463 87.2179 19.3239C87.7799 19.275 88.2936 18.8647 88.4657 18.3277C88.6378 17.7906 88.4583 17.158 88.0295 16.7914Z" fill="#263238"/>
<path d="M83.5387 28.3955C82.1519 28.5032 80.9334 27.4829 80.7956 26.0988L79.9668 17.7694C79.6728 15.5387 80.726 13.5083 82.9639 13.2763L83.172 13.267C85.2659 13.1727 87.0818 14.7015 87.344 16.781C87.588 18.7158 87.8329 20.8566 87.8669 21.899C87.9373 24.0568 85.7955 24.4893 85.7955 24.4893C85.7906 24.4899 86.0445 25.9114 86.1003 26.5425C86.2252 27.96 84.9577 28.2852 83.5387 28.3955Z" fill="#B56760"/>
<path d="M85.7497 24.449C85.7497 24.449 84.3939 24.5899 82.9043 23.7452C82.9043 23.7452 83.6963 25.2858 85.8396 24.9948L85.7497 24.449Z" fill="#8A4A43"/>
<path d="M86.8849 18.6295C86.898 18.7919 86.7713 18.937 86.602 18.9538C86.433 18.9704 86.285 18.8528 86.2719 18.6904C86.2589 18.528 86.3854 18.3829 86.5545 18.3661C86.724 18.3491 86.8719 18.4671 86.8849 18.6295Z" fill="#263238"/>
<path d="M86.8779 17.6566C86.8415 17.6985 86.6005 17.5362 86.269 17.5521C85.9378 17.5631 85.7022 17.7446 85.6643 17.7055C85.6459 17.6884 85.6815 17.6141 85.784 17.5323C85.8848 17.4509 86.0591 17.3681 86.2658 17.3597C86.4722 17.3516 86.6494 17.4198 86.7526 17.4929C86.8581 17.5667 86.8958 17.6376 86.8779 17.6566Z" fill="#263238"/>
<path d="M83.7614 18.8366C83.7745 18.999 83.6477 19.1438 83.4784 19.1606C83.3095 19.1774 83.1615 19.0596 83.1484 18.8972C83.1353 18.7348 83.2621 18.5898 83.4312 18.573C83.6005 18.5562 83.7483 18.6742 83.7614 18.8366Z" fill="#263238"/>
<path d="M83.6376 17.9368C83.6012 17.9786 83.3598 17.8166 83.0287 17.8323C82.6975 17.8433 82.462 18.0247 82.4241 17.9857C82.4058 17.9685 82.4409 17.8944 82.5437 17.8125C82.6445 17.7309 82.8189 17.6482 83.0253 17.6398C83.2318 17.6318 83.4089 17.6999 83.5123 17.7731C83.6174 17.8468 83.6555 17.9179 83.6376 17.9368Z" fill="#263238"/>
<path d="M84.9411 20.4299C84.9387 20.4111 85.1431 20.3663 85.475 20.3086C85.5592 20.2961 85.6385 20.2757 85.6503 20.2171C85.6675 20.1552 85.6279 20.0654 85.5825 19.9689C85.4937 19.7676 85.4009 19.5567 85.3033 19.3357C84.9144 18.4337 84.6288 17.6908 84.6652 17.6753C84.7018 17.66 85.0466 18.3785 85.4354 19.2804C85.5293 19.5029 85.6191 19.715 85.7044 19.9179C85.7408 20.0125 85.8007 20.1193 85.7632 20.2481C85.7432 20.3123 85.6833 20.361 85.6296 20.378C85.576 20.3971 85.5284 20.4001 85.4868 20.4045C85.1515 20.4378 84.9434 20.4488 84.9411 20.4299Z" fill="#263238"/>
<path d="M84.7598 21.3184C84.7251 21.1684 84.6058 21.0201 84.4481 20.9914C84.3516 20.9739 84.2614 20.9843 84.1729 21.0269C84.0882 21.0676 84.0264 21.1475 83.9993 21.2361C83.9949 21.2505 83.9935 21.2654 83.9934 21.2805C83.981 21.3046 83.9721 21.3309 83.97 21.3608C83.959 21.5253 83.9978 21.7134 84.1337 21.8209C84.2116 21.8825 84.3066 21.9266 84.4085 21.916C84.5031 21.9061 84.5927 21.8661 84.6542 21.7911C84.7632 21.6582 84.7983 21.4851 84.7598 21.3184Z" fill="#8A4A43"/>
<path d="M83.9761 20.7029C84.0298 20.6973 84.0468 21.0571 84.3662 21.2986C84.685 21.5409 85.0668 21.4832 85.0718 21.5334C85.0778 21.5558 84.9895 21.6072 84.8278 21.6189C84.6693 21.6314 84.4351 21.5909 84.2396 21.4433C84.0448 21.2951 83.9546 21.0899 83.9358 20.9428C83.9152 20.7929 83.9514 20.702 83.9761 20.7029Z" fill="#263238"/>
<path d="M83.6315 16.7885C83.6027 16.8802 83.2701 16.8522 82.8833 16.9166C82.4952 16.9732 82.1869 17.1012 82.1316 17.0226C82.1068 16.9849 82.1577 16.8977 82.2806 16.8048C82.4023 16.712 82.599 16.6202 82.8314 16.5838C83.0636 16.5477 83.279 16.5752 83.4233 16.6265C83.5686 16.6775 83.6436 16.7451 83.6315 16.7885Z" fill="#263238"/>
<path d="M86.6928 16.4425C86.6379 16.5203 86.4061 16.4526 86.1313 16.4611C85.8563 16.4602 85.6265 16.5345 85.5696 16.4582C85.5444 16.421 85.5776 16.3439 85.676 16.2681C85.7729 16.1927 85.9377 16.127 86.1266 16.1242C86.3155 16.1218 86.482 16.1826 86.5812 16.2554C86.6814 16.3284 86.7169 16.4046 86.6928 16.4425Z" fill="#263238"/>
<path d="M80.1692 19.3181C80.1317 19.304 78.6677 18.9465 78.7812 20.4189C78.8947 21.8913 80.3494 21.4736 80.3488 21.4312C80.3479 21.3887 80.1692 19.3181 80.1692 19.3181Z" fill="#B56760"/>
<path d="M79.8558 20.9079C79.8491 20.9037 79.8315 20.9279 79.7897 20.9511C79.749 20.9737 79.6773 20.9927 79.5984 20.9697C79.4384 20.9247 79.2885 20.6879 79.2607 20.423C79.2467 20.2893 79.265 20.1596 79.3042 20.0502C79.341 19.9391 79.4048 19.8583 79.4819 19.8383C79.5584 19.8145 79.6174 19.857 79.6387 19.897C79.6616 19.9365 79.6546 19.9668 79.6626 19.9686C79.6669 19.972 79.6923 19.9416 79.6756 19.8817C79.6672 19.8529 79.6475 19.8195 79.6105 19.7939C79.573 19.7678 79.52 19.7571 79.4658 19.7674C79.3529 19.784 79.2586 19.8964 79.2155 20.0164C79.1661 20.1374 79.1423 20.2835 79.1582 20.4336C79.1905 20.7295 79.3637 20.9955 79.5814 21.0407C79.687 21.0597 79.771 21.0218 79.813 20.9837C79.856 20.9436 79.8612 20.9102 79.8558 20.9079Z" fill="#8A4A43"/>
<path d="M82.1285 15.8653C81.9409 15.7065 81.682 15.6635 81.4364 15.6535C80.7963 15.6271 80.1497 15.7852 79.5941 16.1043C79.3024 16.2717 79.0259 16.4944 78.8857 16.8003C78.7456 17.1061 78.7752 17.5078 79.0254 17.7327C78.6235 18.0241 78.4861 18.6258 78.7218 19.0627C78.9576 19.4995 79.5361 19.715 80.0001 19.5387C80.0909 20.0224 80.6606 20.261 81.0537 19.9647C81.1498 19.8923 81.234 19.8042 81.2995 19.7049C81.5526 19.3211 81.5263 18.6336 81.4123 18.1882C81.7074 18.1677 81.9719 17.9754 82.1347 17.7284C82.2974 17.4815 82.3697 17.1852 82.4035 16.8914C82.4457 16.5246 82.4104 16.1039 82.1285 15.8653Z" fill="#263238"/>
<path d="M81.1856 11.788C81.0868 11.8169 78.7298 12.7263 78.3873 14.632C78.0447 16.5379 78.3055 17.0691 78.3055 17.0691C78.3055 17.0691 78.1767 17.1759 78.0832 17.3254C77.9994 17.4595 78.2318 18.0099 78.5403 17.8987C80.7667 16.4942 83.5697 15.9734 86.7244 15.6086L89.1245 15.2249C89.8092 15.204 90.0194 14.9906 89.7105 14.8633C89.4738 14.7659 87.4501 14.28 87.4501 14.28L87.0344 14.0614L85.8388 12.8307C85.8388 12.8307 85.9333 12.621 85.6671 12.4973C85.4009 12.3737 83.1336 11.2184 81.1856 11.788Z" fill="#FF725E"/>
<g opacity="0.3">
<path d="M79.1162 13.1862C79.1162 13.1862 81.6814 12.375 82.941 12.7676C82.8921 12.7513 82.8432 12.7351 82.7943 12.7188C83.1889 12.8273 83.5833 12.9357 83.9779 13.0442C84.1779 13.0991 84.4101 13.1489 84.5775 13.0268C84.5775 13.0268 83.9053 12.5807 82.7515 12.3707C81.5976 12.1607 79.8285 12.2574 79.1162 13.1862Z" fill="black"/>
</g>
<path d="M79.0801 13.2057C79.0801 13.2057 79.1486 13.1303 79.2929 13.0168C79.4366 12.9037 79.6558 12.7497 79.9541 12.6117C80.2507 12.4715 80.6262 12.3479 81.0563 12.2849C81.484 12.2216 81.974 12.2106 82.4589 12.3511C82.7012 12.4179 82.928 12.5107 83.1457 12.6005C83.3618 12.6942 83.5741 12.7734 83.7697 12.8695C83.964 12.9654 84.144 13.0649 84.3271 13.1178C84.5093 13.179 84.6883 13.1661 84.8499 13.1454C85.4969 13.0593 85.8738 12.8674 85.8387 12.8309C85.8385 12.8294 85.8352 12.8598 85.7947 12.8895C85.7551 12.9177 85.6922 12.9531 85.6061 12.9854C85.435 13.0513 85.179 13.1269 84.8537 13.1741C84.6933 13.1969 84.5042 13.2117 84.3176 13.1502C84.1296 13.0974 83.9465 12.9975 83.7531 12.9033C83.5601 12.8096 83.346 12.7304 83.1302 12.6375C82.9127 12.5482 82.6872 12.4564 82.4479 12.3903C81.9695 12.2516 81.4866 12.2613 81.0615 12.322C80.635 12.3825 80.2619 12.5019 79.966 12.6378C79.6685 12.7713 79.4484 12.9206 79.3024 13.0293C79.2292 13.084 79.1742 13.1286 79.1379 13.1601C79.101 13.1909 79.0801 13.2057 79.0801 13.2057Z" fill="#263238"/>
<g opacity="0.3">
<path d="M78.2699 15.4241C78.7405 15.3516 79.0799 15.1769 79.5326 15.0059C80.0149 14.8238 80.4958 14.6651 80.969 14.4599C81.3279 14.3044 81.7569 14.1493 81.9609 13.8434C82.0249 14.0334 81.9925 14.2191 81.8694 14.3774C81.7464 14.5359 81.3063 14.7676 81.1224 14.8478C80.0746 15.3055 79.3479 15.6162 78.2268 15.8612C78.2194 15.7433 78.2699 15.4241 78.2699 15.4241Z" fill="black"/>
</g>
<path d="M78.4338 14.4223C78.1544 14.5956 77.9842 14.7098 78.0129 14.9652C78.0368 15.1778 78.1176 15.4303 78.3316 15.4367C78.3967 15.4385 78.46 15.4163 78.5214 15.3943C79.5733 15.0167 80.6251 14.6392 81.6768 14.2616C81.7836 14.2233 81.8989 14.178 81.9553 14.0796C82.0419 13.9282 81.9338 13.7249 81.777 13.649C81.6201 13.573 81.436 13.5894 81.263 13.6114C80.28 13.7376 79.3483 14.0402 78.4338 14.4223Z" fill="#FF725E"/>
<path d="M81.9126 14.1348C81.907 14.132 81.9641 14.0905 81.9793 13.9802C81.994 13.8764 81.9535 13.694 81.7855 13.5895C81.6147 13.4936 81.3651 13.4896 81.1103 13.541C80.8514 13.5923 80.5671 13.6526 80.2715 13.726C79.6792 13.8706 79.1569 14.0528 78.7936 14.2182C78.6109 14.2987 78.4677 14.3733 78.3686 14.4252C78.3281 14.4471 78.2907 14.467 78.2553 14.4863C78.2291 14.4999 78.2149 14.5064 78.2144 14.5051C78.2136 14.504 78.2263 14.495 78.2512 14.4792C78.2855 14.4579 78.3217 14.4355 78.3609 14.4114C78.4578 14.3552 78.5997 14.2763 78.7817 14.1919C79.1436 14.019 79.6676 13.8314 80.2617 13.6864C80.5585 13.6127 80.8434 13.5535 81.1036 13.504C81.3633 13.4546 81.6197 13.4592 81.801 13.5651C81.9796 13.6815 82.0155 13.8746 81.9953 13.9828C81.9856 14.0396 81.963 14.0793 81.9453 14.1032C81.9253 14.1256 81.9132 14.1355 81.9126 14.1348Z" fill="#263238"/>
<path d="M86.214 13.2173L84.1621 13.4747L84.4195 14.0259L86.6369 13.6526L86.214 13.2173Z" fill="white"/>
<path d="M83.3862 15.4866C83.3831 15.4757 84.2761 15.2116 85.3806 14.8969C86.4853 14.582 87.3831 14.3356 87.3861 14.3464C87.3893 14.3572 86.4965 14.6212 85.3918 14.9361C84.2873 15.251 83.3892 15.4974 83.3862 15.4866Z" fill="#263238"/>
<path d="M97.6804 20.4031L92.604 25.9086L86.5205 27.0844L88.294 32.3669L93.8406 30.47C94.3962 30.3177 95.6011 29.7071 96.3655 28.5772C97.6804 26.6334 99.9213 22.5927 99.9213 22.5927L97.6804 20.4031Z" fill="#FF725E"/>
<path d="M94.3027 24.0663L97.2244 27.2344L98.0766 25.8159L95.3809 22.897L94.3027 24.0663Z" fill="white"/>
<path d="M98.862 19.077C98.862 19.077 101.262 17.1327 101.755 17.0808C102.248 17.0289 102.585 16.8991 102.922 17.1845C103.259 17.47 103.927 18.304 104.004 18.5633C104.082 18.8225 103.91 19.3964 103.91 19.3964C103.91 19.3964 103.688 18.9741 103.323 18.6964C103.139 18.5558 102.425 18.3514 102.324 19.0256C102.222 19.6999 102.324 20.1406 102.324 20.1406L102.721 20.0852L102.983 20.9104L100.355 21.0222L99.6613 22.3332L97.6802 20.4031L98.862 19.077Z" fill="#B56760"/>
<g opacity="0.3">
<path d="M86.5928 27.0846C86.5928 27.0846 87.9915 27.7198 88.5946 29.1486C89.1977 30.5773 88.8317 32.1834 88.8317 32.1834L86.5928 27.0846Z" fill="black"/>
</g>
<path d="M79.5773 67.5658C78.7009 71.6553 77.7344 84.2863 77.7344 84.2863L83.9059 84.4902L86.1306 71.7451C86.1306 71.7451 87.1336 67.2743 87.7474 64.8065C88.2941 62.6085 90.1341 45.6482 90.1341 45.6482L79.4444 45.897C79.4444 45.897 79.0366 46.8686 78.7603 49.4758C78.5359 51.593 78.5481 52.7753 78.714 53.8227C78.8116 54.4393 79.0384 55.0274 79.3798 55.5501L80.1737 57.2617L79.5773 67.5658Z" fill="#FF725E"/>
<path d="M110.954 27.9645H109.044V31.1552H110.954V27.9645Z" fill="#E0E0E0"/>
<path d="M113.106 31.0592H107.159V31.9294H113.106V31.0592Z" fill="#E0E0E0"/>
<path d="M106.921 22.936H104.431V24.2657H106.921V22.936Z" fill="#E0E0E0"/>
<path d="M113.105 20.2053H106.728V28.0853H113.105V20.2053Z" fill="#E0E0E0"/>
<path d="M111.215 25.2828C111.933 24.5654 111.933 23.4021 111.215 22.6847C110.498 21.9672 109.334 21.9672 108.617 22.6847C107.899 23.4022 107.899 24.5654 108.617 25.2828C109.334 26.0003 110.498 26.0003 111.215 25.2828Z" fill="white"/>
<path d="M111.754 23.9833C111.74 23.9842 111.749 23.8196 111.675 23.5401C111.601 23.2661 111.416 22.8648 111.003 22.5556C110.799 22.4046 110.542 22.2768 110.247 22.226C109.954 22.1773 109.623 22.1875 109.309 22.3081C109.151 22.3636 108.999 22.447 108.859 22.5521C108.718 22.6551 108.589 22.783 108.483 22.931C108.265 23.2226 108.142 23.597 108.138 23.9829C108.142 24.3689 108.265 24.7434 108.483 25.0351C108.589 25.1832 108.718 25.311 108.859 25.4142C108.999 25.5193 109.152 25.6028 109.309 25.6582C109.623 25.7788 109.954 25.7891 110.247 25.7404C110.543 25.6896 110.799 25.5617 111.004 25.4107C111.416 25.1016 111.602 24.7001 111.675 24.4262C111.749 24.147 111.74 23.9823 111.754 23.9833C111.758 23.9833 111.76 24.0236 111.76 24.1011C111.761 24.1399 111.759 24.1879 111.751 24.244C111.744 24.3004 111.738 24.3659 111.719 24.4374C111.657 24.7213 111.478 25.1443 111.054 25.4764C110.843 25.6386 110.575 25.7777 110.265 25.8356C109.956 25.8914 109.607 25.8841 109.273 25.7594C109.105 25.7019 108.942 25.6147 108.793 25.5039C108.642 25.3952 108.505 25.2599 108.391 25.1029C108.157 24.7934 108.025 24.3939 108.021 23.9829C108.025 23.572 108.158 23.1726 108.391 22.8633C108.505 22.7063 108.642 22.5711 108.793 22.4625C108.942 22.3518 109.105 22.2644 109.273 22.2071C109.607 22.0824 109.957 22.0752 110.265 22.131C110.576 22.1888 110.843 22.3277 111.054 22.4901C111.479 22.8224 111.658 23.2452 111.719 23.5291C111.738 23.6006 111.745 23.6661 111.751 23.7225C111.76 23.7787 111.761 23.8267 111.76 23.8655C111.76 23.9428 111.758 23.9833 111.754 23.9833Z" fill="#263238"/>
<path d="M106.728 20.2053C106.726 20.2034 106.764 20.2017 106.839 20.1999C106.919 20.1986 107.031 20.1967 107.174 20.1943C107.475 20.1913 107.909 20.1872 108.459 20.1818C109.582 20.1756 111.18 20.167 113.105 20.1566L113.154 20.1564V20.2053C113.157 22.46 113.16 25.1702 113.164 28.0845C113.177 28.0725 113.053 28.1957 113.104 28.1435H113.103H113.099H113.093H113.079H113.052H112.998H112.89H112.675C112.532 28.1435 112.39 28.1435 112.248 28.1435C111.964 28.1433 111.682 28.1433 111.403 28.1431C110.845 28.1427 110.298 28.1423 109.763 28.1418C108.694 28.1401 107.676 28.1386 106.728 28.1371H106.675L106.675 28.085C106.686 25.7381 106.695 23.7639 106.702 22.3706C106.708 21.6852 106.712 21.1431 106.715 20.7664C106.718 20.5865 106.72 20.4463 106.722 20.3458C106.724 20.2512 106.726 20.2034 106.728 20.2053C106.729 20.2062 106.73 20.2198 106.731 20.2452C106.731 20.2745 106.732 20.3111 106.734 20.3574C106.735 20.4603 106.737 20.604 106.74 20.7882C106.743 21.1677 106.748 21.7139 106.754 22.4042C106.76 23.7893 106.769 25.7519 106.78 28.085L106.728 28.033C107.676 28.0315 108.694 28.03 109.763 28.0283C110.298 28.0279 110.845 28.0275 111.403 28.027C111.682 28.0268 111.964 28.0268 112.248 28.0266C112.39 28.0266 112.532 28.0266 112.675 28.0266H112.89H112.998H113.052H113.079H113.093H113.099H113.103H113.104C113.157 27.9745 113.034 28.0977 113.047 28.0843C113.051 25.1701 113.054 22.4598 113.057 20.2051L113.105 20.2536C111.192 20.2432 109.604 20.2346 108.489 20.2284C107.934 20.223 107.497 20.2189 107.193 20.2159C107.046 20.2135 106.932 20.2116 106.849 20.2103C106.771 20.2088 106.73 20.2071 106.728 20.2053Z" fill="#263238"/>
<path d="M113.01 31.0592C113.01 31.0915 111.695 31.1176 110.072 31.1176C108.449 31.1176 107.134 31.0915 107.134 31.0592C107.134 31.0269 108.449 31.001 110.072 31.001C111.695 31.001 113.01 31.0269 113.01 31.0592Z" fill="#263238"/>
<path d="M109.727 23.9175L110.238 24.0763L110.43 22.715L109.727 23.9175Z" fill="#FF725E"/>
<path d="M103.163 29.0546C103.716 28.5772 103.905 28.188 104.143 27.3099C104.349 26.5516 104.588 25.329 104.643 24.1074C104.744 21.8857 104.315 20.4015 104.08 19.7678C103.972 19.4781 103.815 19.2085 103.602 18.9845C103.352 18.7217 102.987 18.4654 102.599 18.625C101.893 18.9151 102.421 19.7361 102.599 19.9849C102.705 20.1333 103.141 21.1637 103.217 22.1064C103.357 23.8623 103.031 26.7445 102.761 27.6528C102.492 28.5611 102.492 28.7969 102.492 28.7969C102.492 28.7969 102.981 29.1379 103.036 29.1487C103.047 29.1506 103.095 29.114 103.163 29.0546Z" fill="#E0E0E0"/>
<path d="M103.163 29.0546C103.164 29.0558 103.152 29.0685 103.127 29.0916C103.114 29.1032 103.098 29.1174 103.078 29.1332C103.067 29.1409 103.058 29.15 103.039 29.1562C103.017 29.1532 103.007 29.1444 102.99 29.137C102.871 29.0707 102.702 28.9598 102.481 28.8108L102.473 28.8052L102.474 28.7963C102.49 28.5844 102.549 28.3461 102.618 28.0709C102.688 27.7956 102.788 27.4941 102.848 27.149C102.977 26.4602 103.075 25.6321 103.144 24.7014C103.177 24.2358 103.202 23.744 103.206 23.2303C103.205 22.718 103.207 22.1778 103.106 21.638C103.055 21.3675 102.983 21.0961 102.895 20.8256C102.806 20.5578 102.706 20.2791 102.572 20.0314C102.408 19.792 102.239 19.5234 102.199 19.2061C102.18 19.0499 102.216 18.8701 102.333 18.7467C102.39 18.6857 102.459 18.6375 102.532 18.6039C102.603 18.5638 102.684 18.5425 102.766 18.5321C102.983 18.5059 103.191 18.592 103.357 18.7071C103.525 18.8242 103.665 18.9692 103.787 19.127C104.033 19.4437 104.159 19.8223 104.268 20.1816C104.483 20.9085 104.598 21.633 104.656 22.3247C104.771 23.7109 104.65 24.9668 104.464 25.9978C104.372 26.5141 104.266 26.977 104.152 27.3782C104.04 27.779 103.919 28.1213 103.768 28.3759C103.618 28.6317 103.455 28.7965 103.343 28.9021C103.287 28.955 103.242 28.9934 103.211 29.018C103.181 29.0436 103.165 29.0558 103.163 29.0546C103.16 29.0509 103.222 28.9983 103.33 28.8887C103.437 28.7791 103.593 28.6121 103.735 28.3578C103.878 28.1047 103.993 27.765 104.1 27.3644C104.208 26.9638 104.309 26.5016 104.397 25.9866C104.574 24.9582 104.686 23.7094 104.567 22.333C104.507 21.6464 104.391 20.9279 104.177 20.2096C104.068 19.8516 103.946 19.4878 103.71 19.1859C103.594 19.0357 103.458 18.8962 103.302 18.7876C103.147 18.6799 102.962 18.6065 102.777 18.6291C102.707 18.6385 102.637 18.6558 102.575 18.6917C102.51 18.7213 102.451 18.7628 102.405 18.8128C102.311 18.9132 102.28 19.056 102.295 19.1962C102.331 19.4822 102.488 19.7396 102.653 19.9806C102.799 20.2501 102.894 20.5221 102.985 20.7967C103.073 21.0707 103.146 21.3459 103.197 21.6212C103.298 22.1749 103.294 22.7158 103.293 23.2312C103.287 23.7473 103.26 24.2405 103.223 24.7074C103.149 25.6407 103.045 26.4693 102.907 27.1607C102.843 27.5085 102.738 27.8126 102.665 28.0834C102.592 28.3546 102.529 28.5962 102.509 28.7963L102.502 28.7819C102.718 28.9348 102.885 29.0507 102.999 29.1209C103.013 29.1289 103.03 29.1375 103.037 29.1401C103.047 29.1375 103.06 29.1284 103.07 29.1218C103.09 29.1076 103.107 29.0951 103.121 29.0841C103.149 29.0638 103.163 29.0533 103.163 29.0546Z" fill="#263238"/>
<path d="M80.5158 25.2113L80.3394 26.2673C79.7049 27.4192 78.2047 29.6777 78.4115 33.1387C78.6682 37.4326 79.063 45.5128 79.063 45.5128L79.0445 45.6246C78.9437 46.2376 79.1591 46.86 79.6172 47.2796L79.625 47.2867L89.3849 47.4969C90.5874 47.2958 91.4134 46.177 91.2514 44.9687L89.7134 33.5064L86.7475 26.7397L86.4693 26.1596L86.1358 25.9582L80.5158 25.2113Z" fill="#FF725E"/>
<path d="M78.48 34.3171L78.7142 38.6351L90.1849 38.5545L89.937 34.3782L78.48 34.3171Z" fill="white"/>
<path d="M85.7221 25.9085C85.7295 25.9098 85.7176 26.0126 85.7019 26.1983C85.6868 26.3841 85.6692 26.6533 85.6778 26.985L85.6789 27.0294L85.6345 27.0204C85.0613 26.906 84.2838 26.7697 83.4244 26.6559C82.5153 26.5343 81.6886 26.4477 81.091 26.3764C80.7922 26.3411 80.5505 26.3109 80.3838 26.2874C80.2171 26.2639 80.1252 26.2478 80.126 26.2411C80.1267 26.2344 80.2199 26.2379 80.3879 26.2499C80.5742 26.2652 80.8125 26.2848 81.0981 26.3081C81.6973 26.3619 82.526 26.4377 83.4374 26.5595C84.2991 26.6736 85.0781 26.8201 85.6494 26.9504L85.6061 26.9859C85.6065 26.6501 85.6351 26.3792 85.6623 26.1937C85.6903 26.0083 85.7155 25.9075 85.7221 25.9085Z" fill="#263238"/>
<path d="M89.5563 33.3608C89.5501 33.3633 89.5063 33.2699 89.4323 33.0991C89.3525 32.9119 89.2485 32.6681 89.1232 32.3747C88.8634 31.7624 88.5005 30.9187 88.0891 29.9913C87.6758 29.0737 87.3021 28.2436 87.0219 27.6216C86.8913 27.3304 86.7828 27.0885 86.6995 26.9027C86.6249 26.7323 86.5864 26.6367 86.5924 26.6337C86.5984 26.6308 86.6484 26.7209 86.7337 26.8865C86.819 27.0519 86.9389 27.293 87.0843 27.5925C87.3749 28.1911 87.7658 29.0234 88.1779 29.9519C88.5897 30.8802 88.9431 31.7294 89.1867 32.3487C89.3088 32.6584 89.4045 32.91 89.4674 33.0853C89.5307 33.2604 89.5626 33.3584 89.5563 33.3608Z" fill="#263238"/>
<path d="M89.9732 47.1211C89.9736 47.1245 89.9363 47.131 89.8649 47.1401C89.783 47.1495 89.6798 47.1614 89.5528 47.176C89.2816 47.2057 88.8885 47.2413 88.402 47.279C87.4295 47.355 86.0829 47.4293 84.5942 47.453C83.105 47.4756 81.7567 47.4431 80.7823 47.3974C80.2949 47.3748 79.9011 47.3513 79.6289 47.3302C79.5016 47.3195 79.398 47.3109 79.3159 47.304C79.2444 47.2969 79.2068 47.2917 79.207 47.2884C79.2072 47.285 79.2451 47.2839 79.317 47.2844C79.3993 47.2865 79.5033 47.2891 79.631 47.2923C79.9166 47.3012 80.3074 47.3136 80.7847 47.3287C81.759 47.3569 83.1054 47.3785 84.5927 47.3559C86.0793 47.3324 87.4245 47.2689 88.3974 47.2105C88.8739 47.1806 89.2644 47.1562 89.5497 47.1383C89.6772 47.1312 89.7809 47.1252 89.8633 47.1207C89.9349 47.1177 89.9728 47.1177 89.9732 47.1211Z" fill="#263238"/>
<path d="M100.324 29.3639L101.755 27.8131C101.882 27.6765 102.059 27.5986 102.245 27.5986H102.743C102.743 27.5986 102.587 28.4134 103.176 28.4812C103.764 28.5491 103.97 28.016 103.97 28.016C103.97 28.016 104.85 28.4132 104.76 29.0018C104.669 29.5902 104.398 29.8166 104.398 29.8166C104.398 29.8166 104.624 30.3144 104.443 30.6766C104.262 31.0387 103.9 31.2198 103.9 31.2198C103.9 31.2198 103.538 31.6724 103.266 31.8082C102.994 31.9439 100.986 32.0443 100.986 32.0443L99.2356 33.8413L97.9473 31.0143L100.324 29.3639Z" fill="#B56760"/>
<g opacity="0.3">
<path d="M80.4426 31.9319C80.4426 31.9319 80.3329 32.8255 81.5184 34.6038C82.7039 36.382 84.6184 39.4874 87.2433 40.1671C89.8684 40.8467 90.3669 40.6307 90.3669 40.6307L89.9335 37.4001L80.4426 31.9319Z" fill="black"/>
</g>
<path d="M79.985 29.9239C80.0677 31.5457 80.8166 33.0603 82.0008 34.1713C83.8298 35.887 87.385 39.6317 89.6851 39.6817C92.9647 39.753 99.7468 33.9413 99.7468 33.9413L98.3441 30.2691L89.9332 34.3009L85.6138 28.6697C84.894 27.7313 83.8122 27.1174 82.6318 27.0464C81.9362 27.0046 81.2043 27.1383 80.643 27.6731C80.0815 28.2077 79.9411 29.0634 79.985 29.9239Z" fill="#FF725E"/>
<path d="M94.0547 32.3251L95.7642 36.9618L97.1946 35.9491L95.666 31.5697L94.0547 32.3251Z" fill="white"/>
<path d="M79.985 29.9239C79.985 29.9239 79.9732 29.8279 79.971 29.6416C79.9693 29.4557 79.9723 29.1774 80.0393 28.8225C80.1095 28.4742 80.2525 28.0253 80.6337 27.6545C80.8235 27.4742 81.061 27.3139 81.3402 27.2026C81.6193 27.0912 81.9362 27.0292 82.2715 27.0163C82.9405 26.9915 83.6959 27.1472 84.3948 27.5549C84.7448 27.7553 85.0769 28.0189 85.3745 28.3357C85.524 28.4938 85.6578 28.6711 85.7937 28.8472C85.9298 29.0239 86.0681 29.2037 86.2087 29.3864C87.3328 30.848 88.5961 32.4911 89.9678 34.2747L89.9144 34.262C92.4833 33.0289 95.3227 31.666 98.323 30.2259L98.3704 30.2031L98.389 30.2522C98.708 31.0872 99.0465 31.9729 99.389 32.8695C99.5271 33.2308 99.6643 33.5905 99.792 33.9245L99.8043 33.9568L99.7782 33.9786C98.381 35.1505 96.9603 36.219 95.5362 37.1721C94.8217 37.6446 94.1077 38.0907 93.3828 38.4821C92.6587 38.8738 91.9278 39.2223 91.1764 39.4633C90.8003 39.5797 90.4208 39.6779 90.0351 39.7112C89.8423 39.7237 89.6499 39.7295 89.4587 39.7087C89.2696 39.6815 89.0831 39.6445 88.9047 39.5874C88.1875 39.3628 87.5613 38.9845 86.9835 38.5971C85.8333 37.8059 84.8705 36.9324 84.0056 36.1301C83.5742 35.7271 83.1703 35.3366 82.7886 34.9672C82.5976 34.783 82.4119 34.604 82.2321 34.4304C82.0518 34.2581 81.8741 34.0925 81.7126 33.9215C81.0664 33.237 80.6621 32.5209 80.4147 31.9117C80.167 31.2992 80.0726 30.7919 80.0266 30.4499C80.0037 30.2781 79.9932 30.1467 79.9899 30.0582C79.9852 29.969 79.985 29.9239 79.985 29.9239C79.985 29.9239 79.9917 29.9688 80.0001 30.0569C80.0067 30.1452 80.0203 30.2761 80.0462 30.4467C80.0979 30.7868 80.198 31.2906 80.4494 31.8973C80.7005 32.5008 81.1069 33.2092 81.7516 33.8845C81.9122 34.0529 82.0899 34.2166 82.2719 34.3889C82.4527 34.5618 82.639 34.7399 82.8311 34.9233C83.2143 35.2909 83.6196 35.6795 84.0521 36.0805C84.9186 36.8787 85.8827 37.7474 87.0285 38.5312C87.6033 38.9148 88.2265 39.2882 88.9293 39.5066C89.1044 39.5622 89.2857 39.5977 89.469 39.6238C89.6529 39.6432 89.8399 39.6372 90.0279 39.6249C90.4042 39.5917 90.7785 39.4944 91.1499 39.3789C91.8925 39.1394 92.619 38.792 93.3393 38.4011C94.0604 38.0104 94.772 37.5651 95.4843 37.0932C96.9035 36.1415 98.3228 35.0731 99.7155 33.9045L99.7017 33.9587C99.574 33.6247 99.4366 33.2652 99.2987 32.9038C98.9563 32.0072 98.6181 31.1215 98.2991 30.2865L98.3651 30.3129C95.3632 31.75 92.5225 33.1099 89.9523 34.3404L89.9203 34.3557L89.8989 34.3277C88.5317 32.5409 87.2721 30.8947 86.1517 29.4305C86.0117 29.2474 85.874 29.0672 85.7385 28.8899C85.6024 28.7122 85.4719 28.538 85.3252 28.382C85.0334 28.0689 84.7073 27.8082 84.3635 27.6094C83.6769 27.2049 82.9334 27.0479 82.2735 27.0686C81.9431 27.0794 81.6316 27.1386 81.3574 27.2459C81.083 27.3533 80.8493 27.5086 80.6613 27.6842C80.2861 28.043 80.1399 28.4837 80.0662 28.8287C79.9955 29.1798 79.988 29.4568 79.985 29.6424C79.9839 29.7353 79.9846 29.8059 79.9859 29.8531C79.9865 29.8996 79.985 29.9239 79.985 29.9239Z" fill="#263238"/>
<path d="M89.8047 36.0818C89.7774 36.0779 89.8123 35.6936 89.8474 35.2202C89.8834 34.7466 89.906 34.3617 89.9337 34.3617C89.9598 34.3617 89.9805 34.75 89.9443 35.2275C89.909 35.7049 89.8304 36.0857 89.8047 36.0818Z" fill="#263238"/>
<g opacity="0.3">
<path d="M80.3957 26.27C80.3626 26.2801 86.0024 27.4111 86.0024 27.4111L85.722 26.0675L85.6419 26.9857C85.6419 26.9857 80.83 26.1373 80.3957 26.27Z" fill="black"/>
</g>
<path d="M78.9963 44.1657C78.9929 44.1657 78.9892 44.1274 78.9853 44.0544C78.9821 43.971 78.978 43.8653 78.973 43.7354C78.9657 43.4584 78.9491 43.0578 78.9239 42.5631C78.8757 41.5736 78.7708 40.2089 78.6469 38.7014C78.5231 37.1935 78.4286 35.826 78.398 34.8342C78.3816 34.3384 78.3754 33.9371 78.3797 33.6595C78.3822 33.5294 78.384 33.4238 78.3855 33.3401C78.388 33.2672 78.3908 33.2289 78.3941 33.2289C78.3975 33.2289 78.4012 33.2672 78.4051 33.3401C78.4083 33.4236 78.4124 33.5292 78.4174 33.6591C78.4247 33.9362 78.4413 34.3367 78.4665 34.8314C78.5147 35.8209 78.6196 37.1858 78.7436 38.6937C78.8673 40.2011 78.9618 41.5686 78.9922 42.5603C79.0086 43.0561 79.0148 43.4577 79.0105 43.735C79.0081 43.8651 79.0062 43.9708 79.0047 44.0544C79.0025 44.1272 78.9997 44.1657 78.9963 44.1657Z" fill="#263238"/>
<path d="M43.4202 86.0569L48.685 84.2561C48.685 84.2561 52.2835 89.0027 53.2889 88.7647L50.1641 78.431L41.8457 80.9003L43.4202 86.0569Z" fill="#455A64"/>
<path d="M47.2713 81.1961C47.2655 80.9796 47.4486 80.7733 47.6646 80.7588C47.8808 80.744 48.0921 80.9284 48.1016 81.1448C48.1113 81.3611 47.899 81.6154 47.6827 81.6059C47.4664 81.5961 47.23 81.3662 47.2726 81.1539" fill="#E0E0E0"/>
<path d="M50.3795 78.358L49.5732 78.5964L52.6415 88.5153C52.6415 88.5153 52.9808 88.9148 53.289 88.7649L50.3795 78.358Z" fill="#E0E0E0"/>
<path d="M48.6829 84.4395C48.7329 84.4225 48.6794 84.1634 48.7667 83.866C48.8461 83.5664 49.026 83.3723 48.992 83.332C48.9681 83.2885 48.6893 83.4548 48.5899 83.8167C48.4875 84.1776 48.64 84.4645 48.6829 84.4395Z" fill="#263238"/>
<path d="M49.4592 85.3877C49.5115 85.3845 49.5313 85.14 49.693 84.904C49.8475 84.6634 50.0654 84.5503 50.048 84.5008C50.0417 84.451 49.7355 84.5055 49.5403 84.8027C49.3422 85.098 49.4107 85.4011 49.4592 85.3877Z" fill="#263238"/>
<path d="M50.9425 85.6112C50.9394 85.5621 50.6661 85.5681 50.429 85.7812C50.1903 85.9927 50.1531 86.2636 50.2016 86.2724C50.2517 86.2882 50.3538 86.0902 50.5511 85.9183C50.7443 85.7415 50.9528 85.6627 50.9425 85.6112Z" fill="#263238"/>
<path d="M47.438 84.7167C47.4776 84.6816 47.3379 84.4712 47.2711 84.1802C47.1983 83.8905 47.2269 83.6396 47.1757 83.6263C47.1304 83.6082 47.009 83.8813 47.0927 84.2231C47.1737 84.5653 47.4059 84.7536 47.438 84.7167Z" fill="#263238"/>
<path d="M42.7801 72.0185C42.5773 71.9625 33.6612 81.5273 33.4585 83.1078C33.2558 84.6885 33.58 86.0665 34.6337 86.958C35.6875 87.8495 47.684 84.9316 47.684 84.9316L46.5492 79.9059L50.8857 78.447L47.0101 71.3544L42.7801 72.0185Z" fill="#FF725E"/>
<g opacity="0.3">
<path d="M40.6709 74.1383L40.3853 74.4451C40.3853 74.4451 45.496 79.8064 47.0638 79.733L49.5732 78.883L41.0836 73.6731L40.6709 74.1383Z" fill="black"/>
</g>
<path d="M46.5787 80.0369C46.5863 80.0627 44.7247 80.6324 42.4214 81.3092C40.1174 81.9863 38.244 82.5142 38.2364 82.4884C38.2289 82.4627 40.0899 81.8931 42.394 81.2161C44.6974 80.5392 46.5712 80.0112 46.5787 80.0369Z" fill="#263238"/>
<path d="M35.4434 80.5897L37.1764 86.0876C37.1764 86.0876 32.1702 89.6956 32.3914 90.7428L43.1723 87.7653L40.8235 79.0881L35.4434 80.5897Z" fill="#455A64"/>
<path d="M40.3812 84.6999C40.6056 84.6994 40.8146 84.8941 40.8243 85.1183C40.8342 85.3424 40.6379 85.5567 40.4135 85.561C40.1891 85.5657 39.9311 85.3395 39.9465 85.1156C39.9618 84.8918 40.2061 84.6529 40.4249 84.7024" fill="#E0E0E0"/>
<path d="M43.2428 87.9901L43.0162 87.1492L32.6663 90.0783C32.6663 90.0783 32.244 90.4198 32.3917 90.7429L43.2428 87.9901Z" fill="#E0E0E0"/>
<path d="M36.9868 86.081C37.003 86.1333 37.2729 86.0844 37.5785 86.1822C37.8869 86.272 38.0835 86.4631 38.126 86.4289C38.1717 86.4052 38.0064 86.1122 37.634 86.0004C37.2629 85.8852 36.962 86.0358 36.9868 86.081Z" fill="#263238"/>
<path d="M35.9852 86.861C35.9873 86.9153 36.24 86.9418 36.4803 87.1152C36.7256 87.2813 36.8372 87.5096 36.8891 87.493C36.9408 87.4876 36.8921 87.1691 36.5893 86.9595C36.2884 86.7469 35.9725 86.8106 35.9852 86.861Z" fill="#263238"/>
<path d="M35.7164 88.3916C35.7674 88.3895 35.768 88.1064 35.5533 87.8555C35.3403 87.6029 35.0605 87.5577 35.0504 87.6078C35.0327 87.6593 35.2352 87.7698 35.4084 87.9785C35.5863 88.1831 35.6627 88.4009 35.7164 88.3916Z" fill="#263238"/>
<path d="M36.7305 84.7842C36.7658 84.8262 36.9874 84.6868 37.2903 84.6248C37.5922 84.5567 37.8513 84.5927 37.8664 84.5399C37.8863 84.4934 37.6063 84.3609 37.2504 84.4389C36.8938 84.5141 36.6932 84.7499 36.7305 84.7842Z" fill="#263238"/>
<g opacity="0.3">
<path d="M43.2497 85.9322L42.5862 83.3251L43.0805 83.0949L40.0649 74.8855L39.4893 75.3861L41.8594 82.9066L42.707 86.0457L43.2497 85.9322Z" fill="black"/>
</g>
<path d="M36.1321 65.6086C34.9495 65.3651 33.7041 65.611 32.7387 66.336C31.9291 66.9438 31.2535 67.9178 31.4723 69.4498C31.9586 72.8542 36.3094 84.4751 36.3094 84.4751L42.329 82.6654C42.3634 82.6551 42.3974 82.5558 42.3783 82.5863C42.329 82.6654 39.3239 72.9845 39.3999 73.0984C39.4809 73.2199 45.4751 78.0561 47.9664 78.9463C50.5258 79.8607 53.0579 78.7671 54.2763 77.0624C54.8598 76.2459 54.901 72.6623 54.2763 70.7682C54.2763 70.7682 36.9032 65.843 36.579 65.7215C36.4901 65.6877 36.3249 65.6483 36.1321 65.6086Z" fill="#FF725E"/>
<path d="M35.8862 69.1514C37.8138 70.4347 39.1382 72.5866 39.4154 74.8854L35.8862 69.1514Z" fill="#FF725E"/>
<path d="M54.3622 76.9133C54.3622 76.9133 54.3389 76.9525 54.2898 77.0273C54.2439 77.1046 54.1601 77.2084 54.0511 77.3464C53.8233 77.6122 53.4552 77.9879 52.8911 78.3583C52.6128 78.5489 52.2789 78.7236 51.9014 78.8892C51.5178 79.0381 51.0889 79.1824 50.608 79.2494C50.129 79.3123 49.6047 79.3375 49.0572 79.252C48.5115 79.1705 47.9428 78.9998 47.3919 78.7225C47.1138 78.5905 46.8371 78.438 46.5534 78.2838C46.2764 78.118 45.9854 77.9605 45.7022 77.7764C45.4159 77.5974 45.1234 77.4145 44.8318 77.2172C44.5369 77.0247 44.2408 76.8214 43.9405 76.6122C42.7379 75.7769 41.4776 74.8331 40.1715 73.7924C40.0093 73.661 39.8457 73.5286 39.6813 73.3952C39.5995 73.3256 39.5196 73.2612 39.4356 73.1867L39.372 73.1268C39.4002 73.1247 39.2977 73.1206 39.4334 73.1202C39.4463 73.0717 39.4369 73.1072 39.4405 73.0993L39.4448 73.1169L39.455 73.1548L39.4998 73.3082C39.6266 73.7177 39.7552 74.1329 39.8853 74.5533C40.1507 75.3927 40.4227 76.2534 40.701 77.1334C41.2618 78.892 41.847 80.728 42.4527 82.6275L42.4673 82.6729L42.4215 82.6867C40.4636 83.2758 38.4203 83.8907 36.3241 84.5215L36.2806 84.5345L36.2647 84.492C35.8699 83.4317 35.4585 82.3022 35.049 81.1575C34.178 78.7154 33.3482 76.323 32.6189 73.9884C32.2533 72.8217 31.9113 71.6693 31.6414 70.5222C31.5671 70.2372 31.517 69.9476 31.4648 69.6602C31.4034 69.3751 31.3838 69.0795 31.389 68.7894C31.3989 68.2073 31.5701 67.6307 31.8894 67.1573C32.5366 66.21 33.603 65.6513 34.6629 65.5147C35.1957 65.4434 35.7325 65.4712 36.2399 65.5929C36.3665 65.6254 36.4926 65.6577 36.6183 65.6898C36.7409 65.7264 36.863 65.7628 36.9847 65.799C37.2279 65.8714 37.4693 65.9434 37.7086 66.0148C39.6223 66.5856 41.4048 67.1174 43.0323 67.6029C46.2852 68.5764 48.9177 69.3641 50.7396 69.9094C51.6476 70.1832 52.353 70.3962 52.8338 70.5412C53.0714 70.614 53.2531 70.6697 53.3778 70.7079C53.5002 70.746 53.5622 70.7679 53.5622 70.7679C53.5622 70.7679 53.4983 70.7524 53.375 70.7174C53.2497 70.6814 53.0671 70.6288 52.8282 70.5601C52.3461 70.419 51.6388 70.212 50.7286 69.9456C48.9041 69.4072 46.2676 68.6292 43.0099 67.6679C41.3805 67.1855 39.596 66.6573 37.6804 66.0902C37.4409 66.0192 37.1994 65.9477 36.9559 65.8755C36.8342 65.8395 36.712 65.8033 36.5892 65.7669C36.4667 65.7359 36.3437 65.7047 36.2203 65.6735C35.7241 65.5552 35.1959 65.5285 34.6741 65.5992C34.1528 65.6696 33.634 65.8352 33.1659 66.1079C32.6998 66.3802 32.271 66.745 31.9639 67.2068C31.6546 67.6668 31.4894 68.2243 31.4801 68.7918C31.4756 69.0755 31.4943 69.3615 31.5555 69.6454C31.6076 69.9303 31.6572 70.217 31.7315 70.5015C32.0011 71.6435 32.3436 72.7949 32.7095 73.9602C33.4393 76.2922 34.2694 78.6836 35.1401 81.1249C35.5494 82.2691 35.9606 83.3986 36.3549 84.4582L36.2957 84.4289C38.3922 83.799 40.436 83.1851 42.3941 82.5969L42.3629 82.6561C41.7591 80.756 41.1754 78.9194 40.6165 77.1601C40.3395 76.2797 40.0684 75.4186 39.8041 74.5786C39.6746 74.1577 39.5465 73.742 39.4203 73.3319L39.3753 73.177L39.3647 73.1374L39.3597 73.1159C39.3619 73.1016 39.3507 73.1305 39.3643 73.0752C39.4629 73.1016 39.4313 73.0622 39.4395 73.0799L39.4935 73.1284L39.7332 73.3323C39.8973 73.4656 40.06 73.5981 40.2219 73.7295C41.5244 74.7711 42.782 75.7169 43.981 76.554C44.2806 76.7636 44.5755 76.9674 44.8695 77.1602C45.1601 77.3579 45.4517 77.5414 45.7369 77.7208C46.0192 77.9054 46.3087 78.0632 46.5844 78.2295C46.8665 78.3838 47.1418 78.5367 47.4177 78.6689C47.9654 78.9467 48.5235 79.116 49.065 79.1994C49.6069 79.2864 50.1262 79.2634 50.6013 79.2035C51.0784 79.1395 51.5046 78.9985 51.8865 78.8528C52.2622 78.6904 52.5954 78.519 52.8736 78.3316C53.4375 77.9674 53.8077 77.5971 54.0386 77.3357C54.1491 77.2002 54.2347 77.0983 54.2829 77.0229C54.3342 76.9495 54.3622 76.9133 54.3622 76.9133Z" fill="#263238"/>
<path d="M36.6496 70.433C36.6554 70.4229 36.8507 70.5192 37.146 70.7104C37.4411 70.9009 37.8326 71.1923 38.2221 71.5629C38.6111 71.9341 38.9193 72.3138 39.1164 72.6052C39.2156 72.7506 39.2902 72.872 39.3362 72.9589C39.383 73.0456 39.406 73.0948 39.4002 73.0982C39.3867 73.1062 39.2708 72.9231 39.0606 72.6455C38.8512 72.3674 38.5393 72.0002 38.1549 71.6332C37.77 71.2672 37.39 70.9708 37.107 70.7671C36.8242 70.5631 36.642 70.446 36.6496 70.433Z" fill="#263238"/>
<path d="M38.7044 69.7623C38.7156 69.7575 38.8033 69.9284 38.9163 70.2174C39.0294 70.5062 39.1627 70.9148 39.2659 71.3773C39.3684 71.8401 39.4208 72.267 39.4408 72.5763C39.461 72.8858 39.4539 73.0779 39.4417 73.0783C39.4272 73.0788 39.4098 72.8884 39.3723 72.5828C39.335 72.2773 39.2724 71.8565 39.1709 71.3984C39.0688 70.9406 38.9472 70.5331 38.8515 70.2405C38.7559 69.9477 38.691 69.7679 38.7044 69.7623Z" fill="#263238"/>
<path d="M43.7185 44.806L45.5148 53.0916C45.8202 54.5006 45.9811 56.6329 43.7314 57.0142C41.7546 57.1979 40.8683 55.4716 40.5846 54.1566C40.45 53.5327 40.3365 53.0127 40.3184 52.9496C40.3184 52.9496 38.1661 53.2085 37.5612 51.1538C37.2688 50.161 36.8333 48.0669 36.4611 46.1678C36.0615 44.1283 37.2978 42.1242 39.2985 41.562L39.4974 41.5062C41.6779 41.0285 43.3015 42.6135 43.7185 44.806Z" fill="#FFBE9D"/>
<path d="M40.3184 52.9494C40.3184 52.9494 41.6394 52.6604 42.7797 51.4014C42.7797 51.4014 42.5593 53.1426 40.4498 53.5352L40.3184 52.9494Z" fill="#EB996E"/>
<path d="M37.0582 47.1081C37.1055 47.1409 37.3778 46.9935 37.7745 46.9888C38.1704 46.98 38.468 47.1178 38.5094 47.0834C38.5297 47.0681 38.4805 47.0086 38.3507 46.9462C38.223 46.8841 38.0073 46.8249 37.7603 46.8292C37.5133 46.8335 37.3086 46.8996 37.1923 46.9658C37.0734 47.0325 37.0349 47.0935 37.0582 47.1081Z" fill="#263238"/>
<path d="M40.332 46.5574C40.3884 46.5652 40.5672 46.3155 40.9191 46.1361C41.2685 45.9535 41.5941 45.9429 41.6161 45.8945C41.6277 45.8721 41.5577 45.8417 41.4149 45.8441C41.2738 45.8462 41.0557 45.8895 40.8372 46.0022C40.6188 46.1152 40.4647 46.2636 40.3899 46.3733C40.3128 46.4844 40.305 46.5548 40.332 46.5574Z" fill="#263238"/>
<path d="M40.4344 47.1644C40.4639 47.2857 40.5908 47.3606 40.7181 47.3322C40.845 47.3038 40.9244 47.1827 40.8949 47.0613C40.8654 46.94 40.7383 46.865 40.6113 46.8933C40.4842 46.9217 40.4049 47.043 40.4344 47.1644Z" fill="#263238"/>
<path d="M37.4212 47.8627C37.4507 47.9841 37.5778 48.0591 37.7049 48.0305C37.8319 48.0022 37.9112 47.881 37.8817 47.7597C37.8522 47.6385 37.7251 47.5633 37.5982 47.5917C37.4709 47.6202 37.3917 47.7416 37.4212 47.8627Z" fill="#263238"/>
<path d="M39.8302 48.9118C39.8266 48.8933 39.6202 48.9146 39.2896 48.9635C39.2063 48.9779 39.1253 48.9833 39.096 48.932C39.0605 48.879 39.0699 48.7821 39.0826 48.677C39.1036 48.4599 39.1255 48.2322 39.1486 47.9936C39.2345 47.0231 39.2722 46.2343 39.2332 46.2311C39.194 46.2281 39.0928 47.0121 39.007 47.9826C38.9877 48.2213 38.9692 48.4491 38.9519 48.6667C38.9472 48.7673 38.9239 48.8864 38.9993 48.9962C39.0379 49.0505 39.1098 49.0776 39.1654 49.077C39.2218 49.0783 39.2675 49.0664 39.3082 49.0574C39.6343 48.9846 39.8341 48.9301 39.8302 48.9118Z" fill="#263238"/>
<path d="M40.0917 44.9484C40.1413 45.0191 40.4099 44.9036 40.7493 44.8523C41.0875 44.7938 41.3799 44.8189 41.4036 44.7362C41.4135 44.697 41.3466 44.6359 41.2184 44.59C41.0911 44.5439 40.9016 44.5193 40.6985 44.5519C40.4954 44.585 40.3243 44.668 40.219 44.7517C40.1126 44.8358 40.0693 44.9144 40.0917 44.9484Z" fill="#263238"/>
<path d="M36.8966 46.2757C36.9463 46.3316 37.2054 46.2056 37.5345 46.1279C37.8624 46.0441 38.1473 46.0364 38.1688 45.9631C38.1777 45.9284 38.1114 45.8828 37.9858 45.8559C37.8611 45.8289 37.6763 45.8266 37.4792 45.8748C37.2823 45.9235 37.1174 46.0116 37.0165 46.0941C36.9147 46.1768 36.8742 46.2489 36.8966 46.2757Z" fill="#263238"/>
<path d="M43.979 46.3801C44.01 46.355 45.278 45.5628 45.6289 46.9852C45.9801 48.4074 44.4798 48.4666 44.4673 48.4263C44.4548 48.3862 43.979 46.3801 43.979 46.3801Z" fill="#FFBE9D"/>
<path d="M44.7689 47.7803C44.7742 47.7741 44.7981 47.7915 44.8447 47.8005C44.8901 47.809 44.9636 47.8046 45.0308 47.7586C45.1675 47.6664 45.235 47.3967 45.1787 47.1385C45.1503 47.0082 45.0928 46.8918 45.0217 46.8008C44.9526 46.7075 44.8673 46.6515 44.7884 46.6567C44.7088 46.6579 44.6665 46.7165 44.6588 46.7607C44.6495 46.8051 44.6655 46.8313 44.6586 46.8358C44.6555 46.8402 44.6222 46.8195 44.6192 46.7579C44.6181 46.7282 44.6265 46.6905 44.6532 46.6551C44.6805 46.6188 44.7271 46.5923 44.7813 46.5851C44.8929 46.5656 45.0165 46.642 45.0945 46.7417C45.1787 46.8402 45.2464 46.9705 45.2784 47.1169C45.34 47.4058 45.2595 47.7101 45.0685 47.8202C44.9748 47.871 44.8841 47.8615 44.8326 47.8385C44.78 47.8141 44.7646 47.784 44.7689 47.7803Z" fill="#EB996E"/>
<path d="M40.371 49.8359C40.3481 49.8028 40.6118 49.6613 40.7556 49.3576C40.8278 49.2077 40.856 49.0547 40.8776 48.9427C40.8982 48.8301 40.9167 48.7582 40.9331 48.7599C40.9486 48.7616 40.9594 48.8327 40.9594 48.9507C40.9583 49.0675 40.942 49.2376 40.8603 49.4078C40.7804 49.5792 40.6508 49.6981 40.5512 49.7629C40.4509 49.8295 40.3774 49.8474 40.371 49.8359Z" fill="#263238"/>
<path d="M34.4062 45.2273C34.2943 45.306 34.2217 45.4475 34.2382 45.586C34.2622 45.7888 34.4498 45.9519 34.6531 45.9717C34.8564 45.9915 35.0604 45.8815 35.1782 45.715C35.1202 45.7791 35.0729 45.8519 35.0367 45.9301C34.8551 46.3245 35.4128 46.659 35.6746 46.3124C35.676 46.3103 35.6775 46.3083 35.6792 46.3062C35.767 46.4036 35.8388 46.5059 35.9131 46.6075L35.9137 46.6101L35.9292 46.629C35.9758 46.692 36.0234 46.755 36.0781 46.8156L36.0776 46.811L36.7651 47.6532C36.676 47.0581 36.4569 46.236 36.3678 45.6409C37.2683 45.4166 38.0157 44.8823 38.4874 44.0832C38.7364 43.6615 38.8983 43.1637 39.2851 42.8631C39.7836 42.4758 40.4853 42.5408 41.1112 42.6246L41.0819 42.6074C41.4147 42.686 41.7321 42.8294 42.0111 43.027C42.1159 44.2129 42.4787 45.3755 43.0686 46.4094C43.1575 46.5653 43.3772 46.8787 43.5539 46.9086C43.9015 46.9674 43.9213 46.6219 44.0796 46.4081C44.1961 46.2508 44.4044 46.191 44.6359 46.1446C44.699 45.7591 44.7161 45.1278 44.7262 44.576L44.8225 44.0274L44.6396 43.4706C44.2375 43.0255 44.8184 42.6356 44.5399 42.1045C44.2616 41.5735 43.828 41.0528 43.2344 40.9683L43.223 40.9763C42.6854 40.8778 42.0722 40.9996 41.7345 41.4279C41.4814 40.703 40.7076 40.2461 39.9412 40.2033C39.1747 40.1608 38.031 40.5124 37.3904 40.9356C36.8952 41.2627 36.4643 41.8139 35.9637 42.5966C35.7528 42.9264 35.6667 43.9124 35.5123 44.2721L34.4062 45.2273Z" fill="#263238"/>
<path d="M40.6311 39.2291C40.7376 39.2257 43.3556 39.3651 44.3065 41.1353C45.2574 42.9055 45.1708 43.5136 45.1708 43.5136C45.1708 43.5136 45.3323 43.5775 45.4726 43.6951C45.5984 43.8003 45.5462 44.4182 45.2059 44.4076C42.5578 43.738 39.6247 44.1253 36.3952 44.78L33.904 45.1733C33.2217 45.373 32.9458 45.2298 33.2096 45.0051C33.4119 44.8328 35.2519 43.7027 35.2519 43.7027L35.5918 43.3535L36.3756 41.7548C36.3756 41.7548 36.2151 41.5784 36.438 41.3707C36.6607 41.1626 38.526 39.2938 40.6311 39.2291Z" fill="#FF725E"/>
<path d="M35.5918 43.353C35.5918 43.353 35.6256 43.3489 35.6889 43.3372C35.7643 43.3226 35.8554 43.3049 35.9653 43.2838C36.2042 43.2325 36.5537 43.1759 36.9856 43.1119C37.8506 42.9941 39.0584 42.8966 40.391 42.9547C41.7242 43.0038 42.9231 43.1667 43.7868 43.2976C44.2192 43.3622 44.568 43.4215 44.8092 43.4609C44.9197 43.4789 45.0114 43.4938 45.0872 43.5061C45.1508 43.516 45.1846 43.519 45.1846 43.519C45.1846 43.519 45.1519 43.5102 45.0886 43.4977C45.0132 43.4833 44.9221 43.4658 44.812 43.4447C44.5716 43.4003 44.2234 43.3362 43.7913 43.2679C42.9282 43.1294 41.7281 42.9616 40.3923 42.9123C39.0571 42.8543 37.8465 42.9566 36.9812 43.0822C36.1158 43.2134 35.5918 43.353 35.5918 43.353Z" fill="#263238"/>
<g opacity="0.3">
<path d="M43.1219 39.9432C43.1219 39.9432 40.3303 39.9676 39.2138 40.76C39.2568 40.7283 39.2999 40.6966 39.3428 40.6648C38.9885 40.8987 38.6341 41.1326 38.2798 41.3665C38.1002 41.485 37.8872 41.6088 37.6826 41.5422C37.6826 41.5422 38.2023 40.8859 39.2732 40.3076C40.3439 39.7293 42.1204 39.2559 43.1219 39.9432Z" fill="black"/>
</g>
<path d="M43.1639 39.9507C43.1639 39.9507 43.072 39.8983 42.8932 39.8327C42.7149 39.7674 42.4493 39.6858 42.1105 39.6457C41.7728 39.6028 41.3625 39.6017 40.9181 39.6778C40.4759 39.7529 39.9889 39.8996 39.5556 40.1941C39.3381 40.3381 39.1442 40.5025 38.9583 40.661C38.7752 40.823 38.5913 40.9694 38.4291 41.1271C38.2684 41.2843 38.1228 41.4401 37.9589 41.5512C37.7987 41.6703 37.618 41.7149 37.4521 41.7466C36.786 41.8698 36.3526 41.8017 36.3754 41.7543C36.375 41.7528 36.3882 41.7815 36.4377 41.798C36.4857 41.8131 36.5594 41.8278 36.6544 41.8319C36.8446 41.8418 37.1213 41.8342 37.4575 41.7761C37.623 41.747 37.8144 41.7009 37.9786 41.5803C38.1472 41.4678 38.2956 41.3104 38.4561 41.1551C38.6165 41.0007 38.8022 40.8536 38.9853 40.6925C39.1711 40.5346 39.3643 40.3715 39.5791 40.2294C40.0064 39.9388 40.4861 39.793 40.9248 39.7163C41.3652 39.6388 41.7717 39.6367 42.1072 39.6756C42.4437 39.7116 42.7088 39.7881 42.8878 39.8484C42.9774 39.8789 43.0461 39.9052 43.0922 39.9248C43.1387 39.9431 43.1639 39.9507 43.1639 39.9507Z" fill="#263238"/>
<g opacity="0.3">
<path d="M44.677 41.8789C44.1894 41.9588 43.7985 41.8955 43.297 41.8724C42.7625 41.8478 42.2371 41.8459 41.7043 41.7957C41.3002 41.7576 40.8272 41.7427 40.5274 41.5063C40.5253 41.7145 40.617 41.8871 40.7895 42.0038C40.9618 42.1205 41.4706 42.2077 41.6778 42.2278C42.8587 42.3424 43.6755 42.4152 44.8603 42.2965C44.8295 42.1776 44.677 41.8789 44.677 41.8789Z" fill="black"/>
</g>
<path d="M44.1929 40.9434C44.5242 41.0244 44.729 41.0824 44.7828 41.3436C44.8276 41.561 44.8289 41.8362 44.62 41.9112C44.5564 41.9342 44.4867 41.9323 44.4192 41.9305C43.26 41.8961 42.1009 41.862 40.9417 41.8276C40.8241 41.8241 40.6957 41.8166 40.6085 41.7376C40.4743 41.6163 40.5156 41.3809 40.6461 41.2555C40.7765 41.13 40.9634 41.0869 41.1411 41.0533C42.1513 40.8614 43.1679 40.8605 44.1929 40.9434Z" fill="#FF725E"/>
<path d="M40.6684 41.7781C40.6729 41.7735 40.6035 41.7511 40.5531 41.6471C40.5051 41.5495 40.4864 41.3565 40.6186 41.1993C40.7563 41.0496 41.0012 40.9656 41.2691 40.9342C41.5411 40.9016 41.8411 40.8696 42.1563 40.847C42.7873 40.7993 43.3611 40.811 43.7727 40.8573C43.9788 40.878 44.1442 40.9057 44.2586 40.9249C44.3054 40.9335 44.3487 40.9413 44.39 40.9488C44.42 40.9538 44.4361 40.9557 44.4365 40.9542C44.4368 40.9527 44.4214 40.948 44.3919 40.9404C44.3512 40.9305 44.3082 40.92 44.2618 40.9086C44.1481 40.8844 43.9827 40.8521 43.776 40.8274C43.3635 40.7733 42.7862 40.7567 42.1532 40.8047C41.8368 40.8274 41.5366 40.8605 41.2641 40.8954C40.9919 40.9301 40.7405 41.0171 40.5958 41.1799C40.4571 41.3522 40.4838 41.5541 40.5383 41.6544C40.5661 41.7072 40.6012 41.7391 40.6264 41.757C40.6529 41.7731 40.668 41.7791 40.6684 41.7781Z" fill="#263238"/>
<path d="M36.1297 42.2563L38.237 41.8505L38.1603 42.4769L35.8525 42.8217L36.1297 42.2563Z" fill="white"/>
<path d="M39.6492 43.5859C39.6488 43.5741 38.6828 43.6008 37.4921 43.6455C36.3009 43.6901 35.3359 43.7356 35.3364 43.7474C35.3368 43.7591 36.3026 43.7324 37.4937 43.6878C38.6845 43.6432 39.6497 43.5975 39.6492 43.5859Z" fill="#263238"/>
<path d="M14.1968 58.0361H12.5625V54.4745C12.5625 53.4061 13.4197 52.5367 14.4734 52.5367H16.1818V54.1942H14.4734C14.3209 54.1942 14.1968 54.32 14.1968 54.4747V58.0361Z" fill="#E0E0E0"/>
<path d="M15.0452 54.6742C14.9367 54.2514 15.1816 53.8191 15.6003 53.6959C16.4457 53.4473 17.7537 53.1355 18.1103 53.4611C18.6493 53.9533 19.9385 55.1487 19.9385 55.1487L22.6808 55.805L22.8449 58.2662L18.0164 56.8832C18.0164 56.8832 16.7037 56.9536 16.8209 56.2504C16.8209 56.2504 16.1646 55.9926 16.2583 55.5941C16.352 55.1956 16.8911 55.1019 16.8911 55.1019L16.7739 54.3987L15.0515 54.7002L15.0452 54.6742Z" fill="#FFBE9D"/>
<path d="M15.8479 55.1962C16.7606 55.1962 17.5004 54.4564 17.5004 53.5437C17.5004 52.631 16.7606 51.8911 15.8479 51.8911C14.9352 51.8911 14.1953 52.631 14.1953 53.5437C14.1953 54.4564 14.9352 55.1962 15.8479 55.1962Z" fill="white"/>
<path d="M15.8479 55.2895C14.8853 55.2895 14.1021 54.5064 14.1021 53.5436C14.1021 52.581 14.8853 51.7977 15.8479 51.7977C16.8106 51.7977 17.5938 52.5808 17.5938 53.5436C17.5938 54.5063 16.8106 55.2895 15.8479 55.2895ZM15.8479 51.9846C14.9882 51.9846 14.2887 52.684 14.2887 53.5438C14.2887 54.4034 14.9882 55.103 15.8479 55.103C16.7075 55.103 17.4072 54.4036 17.4072 53.5438C17.4072 52.684 16.7077 51.9846 15.8479 51.9846Z" fill="#E0E0E0"/>
<path d="M17.9933 54.5157L15.8134 53.9531C15.8134 53.9531 15.2275 53.789 15.5321 54.4218C15.8368 55.0546 16.7511 54.9141 17.1026 55.2891C17.4541 55.6641 17.6534 56.2971 19.1066 56.5313" fill="#FFBE9D"/>
<path d="M19.1065 56.5316C19.1056 56.5375 19.0033 56.5269 18.8196 56.4955C18.6376 56.4586 18.3714 56.3983 18.0674 56.2525C17.9175 56.1767 17.7588 56.078 17.611 55.9443C17.4611 55.8127 17.3298 55.6434 17.1971 55.4713C17.129 55.3864 17.0603 55.2999 16.9726 55.2423C16.8837 55.182 16.7767 55.1407 16.6649 55.1062C16.4415 55.0352 16.1947 54.9886 15.9565 54.879C15.8384 54.823 15.7273 54.7498 15.6356 54.6561C15.5468 54.5594 15.4848 54.4431 15.4406 54.3289C15.4206 54.2692 15.4031 54.2085 15.3982 54.1424C15.3956 54.0773 15.4124 53.997 15.4721 53.9475C15.5306 53.8994 15.6004 53.8897 15.6608 53.8886C15.7224 53.8884 15.7814 53.8971 15.8376 53.9128C16.2569 54.025 16.6369 54.1267 16.9628 54.2139C17.2694 54.2994 17.5238 54.3705 17.7194 54.425C17.8975 54.4769 17.9951 54.5088 17.9934 54.5154C17.9918 54.5219 17.891 54.5025 17.7099 54.4618C17.5124 54.415 17.2552 54.3539 16.9453 54.2806C16.6177 54.1992 16.2356 54.1042 15.8143 53.9994C15.7189 53.975 15.5966 53.9656 15.5324 54.0185C15.4699 54.07 15.4902 54.1926 15.53 54.296C15.5729 54.4038 15.6274 54.504 15.706 54.5899C15.7876 54.6724 15.8876 54.7388 15.998 54.7911C16.221 54.8939 16.4637 54.9414 16.6942 55.0155C16.8094 55.0519 16.924 55.0961 17.025 55.1655C17.1288 55.2359 17.2003 55.3304 17.268 55.4162C17.4008 55.5923 17.5242 55.756 17.6658 55.8848C17.8053 56.0154 17.9555 56.1136 18.0991 56.1911C18.3905 56.3404 18.6505 56.4106 18.8282 56.4584C19.0076 56.5011 19.1078 56.5243 19.1065 56.5316Z" fill="#EB996E"/>
<path d="M15.836 53.5436L16.0813 53.4015L15.3667 52.4366L15.836 53.5436Z" fill="#FF725E"/>
<path d="M14.5434 52.3891C14.5546 52.4012 14.4633 52.4871 14.3683 52.6596C14.2724 52.83 14.1787 53.0915 14.1557 53.3906C14.1275 53.69 14.1815 53.9616 14.2425 54.1481C14.3063 54.3347 14.3711 54.4419 14.3567 54.451C14.3491 54.4568 14.2621 54.3614 14.1783 54.1725C14.0976 53.9843 14.0291 53.6978 14.0588 53.3825C14.0829 53.0674 14.193 52.7938 14.3095 52.6237C14.4258 52.4511 14.5378 52.3807 14.5434 52.3891Z" fill="#263238"/>
<path d="M22.6678 55.5044L31.9139 56.5316L39.7901 54.7001L39.8624 61.2194C39.8624 61.2194 31.26 60.9148 30.6976 60.8677C30.135 60.8209 22.4736 59.814 22.4736 59.814L22.6678 55.5044Z" fill="#FF725E"/>
<path d="M24.456 55.703L24.4058 60.0673L26.0533 60.2817L26.0891 55.8846L24.456 55.703Z" fill="white"/>
<path d="M45.0701 50.7285L45.7611 51.309L50.3839 52.8621L53.0499 56.8015C53.0499 56.8015 54.2923 68.5244 54.224 69.5503C54.1557 70.5762 54.2765 70.7681 54.2765 70.7681L40.2124 66.7701L39.4585 60.3738L39.79 54.7002L40.4717 53.636L41.2456 54.9013L42.6104 52.9943L45.0701 50.7285Z" fill="#FF725E"/>
<path d="M53.4769 60.9333L39.3979 60.3973L39.6578 62.69L53.7382 63.5619L53.4769 60.9333Z" fill="white"/>
<path d="M38.9449 57.5952C38.9482 57.5947 38.9568 57.626 38.9703 57.6863C38.985 57.7578 39.0029 57.8452 39.0246 57.9508C39.0707 58.1808 39.1289 58.5153 39.1954 58.9293C39.329 59.7574 39.4788 60.9065 39.627 62.1766C39.7752 63.4472 39.9139 64.5962 40.03 65.4257C40.0875 65.8293 40.1349 66.1614 40.17 66.4079C40.1845 66.5149 40.1965 66.6032 40.2064 66.6754C40.2137 66.7369 40.2159 66.7693 40.2125 66.7699C40.2092 66.7705 40.2006 66.7391 40.1872 66.6788C40.1724 66.6073 40.1545 66.5199 40.1328 66.4143C40.0867 66.1843 40.0285 65.85 39.962 65.436C39.8284 64.6079 39.6787 63.4586 39.5305 62.188C39.3822 60.9177 39.2436 59.769 39.1274 58.9394C39.07 58.5358 39.0225 58.2038 38.9874 57.9572C38.9729 57.8502 38.9609 57.7619 38.951 57.6897C38.9438 57.6283 38.9415 57.5958 38.9449 57.5952Z" fill="#263238"/>
<path d="M41.2459 54.9012C41.2421 54.8978 41.2776 54.8514 41.3467 54.7685C41.4275 54.6744 41.5283 54.5574 41.6496 54.4162C41.9266 54.1049 42.2966 53.689 42.7265 53.2061L42.7564 53.1725L42.7904 53.2029C43.0886 53.4712 43.4142 53.764 43.755 54.0705C43.7825 54.0954 43.8099 54.1202 43.8351 54.143L43.764 54.1495C44.3438 53.39 44.8698 52.7096 45.2534 52.2209C45.4384 51.9886 45.592 51.7954 45.7111 51.6461C45.8207 51.5119 45.8836 51.4397 45.8888 51.4438C45.8941 51.4479 45.841 51.5276 45.7406 51.6687C45.6279 51.8231 45.4825 52.0222 45.3074 52.2621C44.9376 52.7613 44.4205 53.4484 43.8413 54.2085L43.8092 54.2505L43.77 54.215C43.7446 54.1921 43.7173 54.1674 43.6897 54.1426C43.3505 53.8344 43.0265 53.5398 42.7297 53.2699L42.7935 53.2668C42.3534 53.7403 41.9744 54.148 41.6907 54.4534C41.5617 54.5876 41.4546 54.6989 41.3687 54.7883C41.2924 54.865 41.2496 54.9048 41.2459 54.9012Z" fill="#263238"/>
<path d="M41.0763 54.9976C41.0619 55.0127 40.7752 54.7575 40.4726 54.3388L40.5488 54.3401C40.4969 54.4101 40.4437 54.4861 40.3914 54.566C40.245 54.7891 40.1319 55.0078 40.0509 55.1828L40.0227 55.2438L39.985 55.191C39.8232 54.9645 39.7269 54.8154 39.7394 54.8059C39.7517 54.7964 39.8702 54.9287 40.0461 55.1443L39.9802 55.1527C40.0507 54.9694 40.1599 54.7413 40.31 54.5126C40.3634 54.4309 40.4188 54.3536 40.4735 54.283L40.5133 54.2317L40.5497 54.2843C40.8385 54.7019 41.0942 54.9806 41.0763 54.9976Z" fill="#263238"/>
<path d="M30.6001 59.6115L35.8053 63.8327L37.0612 62.3248L31.9783 58.0336L30.6001 59.6115Z" fill="#263238"/>
<path d="M31.2624 58.8271C31.2575 58.8207 30.7552 58.1954 29.5979 57.6811C28.4508 57.1712 27.4199 57.5723 27.4096 57.576L27.3403 57.4028C27.3853 57.3849 28.4555 56.9688 29.6737 57.5103C30.8773 58.0451 31.388 58.6845 31.4091 58.7115L31.2624 58.8271Z" fill="#263238"/>
<path d="M34.688 60.3212C34.688 60.3212 35.6949 60.4485 36.0419 60.6277C36.3891 60.8069 37.3945 61.4765 37.3945 61.4765L39.4277 61.8606L38.9418 65.2172L37.5817 64.5428L34.5846 64.8406C34.5846 64.8406 33.9324 64.6914 33.932 64.2247C33.932 64.2247 33.4052 63.9259 33.3511 63.3457C33.3511 63.3457 32.5488 62.2933 32.4768 62.0898C32.4049 61.8864 32.8122 61.4057 32.8122 61.4057C32.8122 61.4057 33.6673 62.1309 34.1879 62.2442C34.7085 62.3575 35.178 62.1527 35.2226 61.8188C35.3137 61.1412 34.688 60.3212 34.688 60.3212Z" fill="#E0E0E0"/>
<g opacity="0.3">
<path d="M40.1009 66.1125C40.1009 66.1125 46.9233 68.5592 49.2126 68.4137C51.1517 68.2905 52.1059 67.3818 52.2598 66.1125C52.4136 64.8432 52.6269 59.4506 52.6269 59.4506L48.9662 65.7974L40.0645 65.5178L40.1009 66.1125Z" fill="black"/>
</g>
<path d="M51.1766 65.7705C51.6666 64.368 52.2066 61.6711 52.2066 61.6711L53.0572 57.1791C53.0766 56.0091 52.7011 54.8564 51.951 53.9582C51.3925 53.2892 50.61 52.717 49.5694 52.7217C47.3611 52.7314 47.4395 56.8013 47.4395 56.8013L46.8382 62.6277L38.1989 61.2195L37.6509 65.3734L47.8111 67.5653C48.6722 67.7685 49.5921 67.6117 50.3031 67.0852C50.709 66.7848 50.9781 66.3387 51.1766 65.7705Z" fill="#FF725E"/>
<path d="M49.8131 53.0816C49.814 53.098 49.637 53.1032 49.3658 53.1749C49.0963 53.2447 48.7315 53.3969 48.4093 53.6752C48.0871 53.9537 47.8837 54.2925 47.7754 54.549C47.6653 54.8067 47.6345 54.9811 47.6182 54.9779C47.6082 54.977 47.6145 54.7965 47.7114 54.5238C47.806 54.2531 48.0086 53.8928 48.3457 53.6016C48.6826 53.3104 49.0684 53.1624 49.3499 53.1079C49.634 53.0517 49.8136 53.0715 49.8131 53.0816Z" fill="#263238"/>
<path d="M40.408 61.5796L40.1011 65.9019L41.8716 66.2838L42.1436 61.8624L40.408 61.5796Z" fill="white"/>
<path d="M53.0573 57.1792C53.0573 57.1792 53.0537 57.2162 53.0418 57.2873C53.0289 57.3619 53.0106 57.4665 52.9871 57.6026C52.9361 57.8829 52.8622 58.2902 52.7672 58.8129C52.6698 59.3393 52.551 59.9816 52.4133 60.7268C52.3423 61.0996 52.2736 61.499 52.187 61.9211C52.1 62.3426 52.0043 62.7874 51.8973 63.253C51.7902 63.7185 51.6728 64.2053 51.5369 64.7093C51.4699 64.9615 51.3952 65.2172 51.3149 65.4767C51.2319 65.7349 51.1464 66.0005 51.0185 66.2549C50.8931 66.5092 50.731 66.7558 50.5156 66.9602C50.2998 67.1651 50.0404 67.32 49.7639 67.4447C49.2069 67.687 48.559 67.7576 47.9307 67.6361C45.4612 67.1048 42.7469 66.5209 39.8978 65.9079C39.1347 65.7433 38.3815 65.5807 37.6408 65.4207L37.5972 65.4114L37.603 65.3671C37.7928 63.933 37.9768 62.5436 38.1531 61.2136L38.1594 61.1662L38.2064 61.174C41.5394 61.7223 44.4988 62.2091 46.8435 62.595L46.8047 62.6246C46.9977 60.8168 47.153 59.3617 47.2605 58.3546C47.3158 57.8561 47.3589 57.4685 47.3884 57.2018C47.4037 57.073 47.4155 56.9739 47.4239 56.9031C47.4324 56.8359 47.4392 56.8018 47.4392 56.8018C47.4392 56.8018 47.4388 56.8365 47.4334 56.904C47.4272 56.9752 47.4184 57.0745 47.4071 57.2036C47.3815 57.4708 47.3445 57.859 47.2967 58.3584C47.1963 59.3662 47.0513 60.8224 46.871 62.6315L46.8674 62.6668L46.8321 62.6612C44.4863 62.2823 41.5256 61.804 38.191 61.2655L38.2443 61.2259C38.0694 62.5561 37.8869 63.9457 37.6983 65.38L37.6606 65.3265C38.4013 65.4861 39.1547 65.6486 39.918 65.8131C42.7658 66.4285 45.4788 67.0148 47.9469 67.5483C48.5582 67.6676 49.188 67.6004 49.7294 67.3665C49.9972 67.2467 50.2519 67.0951 50.4578 66.9002C50.6648 66.705 50.8225 66.4674 50.9457 66.2195C51.0711 65.9718 51.1563 65.7104 51.2401 65.4536C51.3207 65.1958 51.3959 64.9412 51.4639 64.6899C51.6013 64.1878 51.7206 63.7023 51.8298 63.2378C51.9388 62.7732 52.0368 62.3293 52.126 61.9088C52.2147 61.4886 52.286 61.0887 52.3595 60.7167C52.5036 59.9728 52.6279 59.3317 52.7297 58.806C52.8323 58.2848 52.9124 57.8788 52.9675 57.5992C52.9953 57.464 53.0166 57.3601 53.0317 57.2858C53.0472 57.2148 53.0573 57.1792 53.0573 57.1792Z" fill="#263238"/>
<path d="M47.843 64.1042C47.8206 64.1189 47.5663 63.7749 47.2751 63.3355C47.1478 63.1376 47.031 62.9562 46.9119 62.771C46.8161 62.6297 46.7041 62.6284 46.7041 62.6162C46.7034 62.611 46.7314 62.5983 46.7838 62.6084C46.8361 62.6181 46.9048 62.6594 46.9647 62.7271C47.0806 62.8658 47.2076 63.062 47.3561 63.2817C47.6473 63.7211 47.8654 64.0894 47.843 64.1042Z" fill="#263238"/>
<g opacity="0.3">
<path d="M41.5488 54.5677L42.7196 53.8466L44.011 55.2145L45.6895 51.7048L43.8023 54.1789L42.7597 53.2364L41.5488 54.5677Z" fill="black"/>
</g>
<path d="M11.8321 52.5657H9.70508V58.007H11.8321V52.5657Z" fill="#E0E0E0"/>
<path d="M10.8155 52.8821C12.3271 52.8821 13.5524 51.6428 13.5524 50.114C13.5524 48.5853 12.3271 47.3459 10.8155 47.3459C9.30397 47.3459 8.07861 48.5853 8.07861 50.114C8.07861 51.6428 9.30397 52.8821 10.8155 52.8821Z" fill="white"/>
<path d="M10.8158 52.9754C9.25506 52.9754 7.98535 51.6917 7.98535 50.114C7.98535 48.5363 9.25506 47.2526 10.8158 47.2526C12.3765 47.2526 13.6462 48.5363 13.6462 50.114C13.646 51.6917 12.3763 52.9754 10.8158 52.9754ZM10.8158 47.4392C9.3581 47.4392 8.17202 48.6391 8.17202 50.114C8.17202 51.5888 9.3581 52.7887 10.8158 52.7887C12.2735 52.7887 13.4595 51.5888 13.4595 50.114C13.4595 48.6391 12.2735 47.4392 10.8158 47.4392Z" fill="#E0E0E0"/>
<path d="M10.4756 50.1139L10.999 50.2659L11.4233 48.3204L10.4756 50.1139Z" fill="#FF725E"/>
<path d="M12.148 52.6778C12.1539 52.6853 12.0264 52.7905 11.7795 52.8809C11.5344 52.974 11.1717 53.0345 10.7734 53.0166C10.3746 52.9974 10.0211 52.9081 9.77991 52.8094C9.53724 52.7125 9.40602 52.6154 9.4118 52.6065C9.41983 52.5923 9.56076 52.6666 9.80306 52.7446C10.0444 52.8245 10.3901 52.9007 10.7776 52.9193C11.165 52.9365 11.5157 52.8889 11.758 52.8154C12.0016 52.745 12.1392 52.6629 12.148 52.6778Z" fill="#263238"/>
<path d="M16.805 58.0475C16.8048 58.0744 14.3723 58.0764 11.3726 58.0522C8.37176 58.0279 5.94024 57.9865 5.94043 57.9596C5.94062 57.9327 8.37251 57.9307 11.3734 57.9549C14.3731 57.9792 16.8052 58.0206 16.805 58.0475Z" fill="#263238"/>
</svg>
