<svg width="130" height="100" viewBox="0 0 130 100" fill="none" xmlns="http://www.w3.org/2000/svg">
<path d="M108.092 8.99673C113.612 8.85116 127.984 14.9551 127.984 14.9551L128.543 13.5477C121.491 8.10488 107.202 6.74766 107.202 6.74766C113.135 3.85588 124.409 4.7029 124.409 4.7029L124.457 3.52303C119.821 1.80572 101.53 4.92678 100.772 6.24484C100.77 6.24683 100.77 6.24853 100.769 6.25052C99.8896 6.1861 96.8948 6.05614 93.6574 6.92615C88.5291 8.3038 85.309 11.5276 84.3456 16.249C84.1266 17.3222 83.9194 18.5971 83.6791 20.0732C82.1732 29.3275 79.65 44.819 68.2012 43.4848C63.1514 42.8977 59.6422 40.8892 57.7713 37.5153C55.5004 33.4201 56.1576 28.0542 57.8162 24.5527C58.1805 23.7834 58.5435 23.0357 58.8962 22.3084C61.4174 17.1122 63.4264 12.9694 62.148 9.1843C63.2238 7.01809 63.5595 4.95544 63.6505 3.59482C63.6508 3.58971 63.6514 3.58461 63.6517 3.5795C63.7169 2.58776 63.6528 1.97229 63.6528 1.97229C58.5454 1.97229 55.0433 4.45319 55.0433 4.45319C55.2754 4.81527 55.5211 5.1606 55.7757 5.48948L55.776 5.48976C55.8724 5.61433 55.9706 5.73606 56.0694 5.85609C56.0759 5.86404 56.0824 5.87142 56.0889 5.87936C56.1843 5.99457 56.2805 6.10722 56.3775 6.21789L56.3781 6.21845C57.8622 7.91164 59.5133 9.083 60.5386 9.7206C61.593 12.8632 59.7205 16.7235 57.3698 21.5684C57.0146 22.3002 56.6497 23.0527 56.2828 23.8268C54.4386 27.72 53.725 33.7169 56.2876 38.3382C58.4087 42.163 62.4605 44.5256 68.0051 45.1703C68.5479 45.2333 69.0783 45.2648 69.5973 45.2648C74.544 45.2645 78.4068 42.3997 81.0929 36.7285C83.5222 31.5998 84.5803 25.0952 85.3533 20.3459C85.5905 18.888 85.7953 17.6287 86.0076 16.5887C86.843 12.4952 89.55 9.79949 94.0536 8.57649C96.9559 7.7882 99.7248 7.88412 100.579 7.93917C100.719 8.36736 100.951 8.63239 100.951 8.63239C101.043 8.74419 101.169 8.8313 101.36 8.89827L101.234 10.159L100.208 10.0566L99.7461 14.6801C93.8745 15.6046 89.1477 20.4072 88.5708 26.5966V26.5971H88.5702L87.4508 38.6092L87.4244 38.8924L83.1848 84.3826L82.9532 86.868L82.2452 94.4637C82.0926 96.101 83.2983 97.5544 84.9384 97.7073L96.9647 98.8282L101.166 99.2198L103.11 99.4011L105.511 99.625C107.151 99.7779 108.605 98.5722 108.758 96.9349L109.466 89.3393L109.697 86.8538L113.429 46.8101L113.963 41.0805L115.083 29.0684H115.082V29.0678C115.618 23.322 112.417 18.0909 107.476 15.7754L107.97 10.8321L106.944 10.7296L107.114 9.02312C107.424 9.01433 107.75 9.00553 108.092 8.99673Z" fill="white"/>
<path d="M71.0544 43.9921C70.5354 43.9921 70.0048 43.9606 69.462 43.8976C63.9176 43.2529 59.8656 40.8903 57.7447 37.0655C55.1818 32.4443 55.8958 26.4473 57.7396 22.5541C58.1065 21.7798 58.4715 21.0275 58.8267 20.2957C61.2565 15.2874 63.1759 11.3315 61.8791 8.13238C61.7032 7.69823 61.9126 7.20364 62.3465 7.02771C62.7809 6.85206 63.2752 7.06091 63.4511 7.49506C65.0317 11.3931 62.9668 15.6486 60.3528 21.036C59.9998 21.763 59.6371 22.5107 59.2728 23.2803C57.6142 26.7818 56.957 32.1477 59.228 36.2429C61.0991 39.6171 64.6083 41.6253 69.6578 42.2124C81.1066 43.5466 83.6298 28.0551 85.1357 18.8009C85.376 17.3247 85.5832 16.0501 85.8022 14.9766C86.7659 10.2552 89.9857 7.0314 95.114 5.65375C98.8892 4.63931 102.337 4.98465 102.482 4.99997C102.947 5.04878 103.285 5.46618 103.237 5.93212C103.188 6.39805 102.768 6.73742 102.305 6.6872C102.273 6.68379 98.9862 6.35974 95.5102 7.30381C91.0066 8.52681 88.2996 11.2225 87.4642 15.316C87.252 16.356 87.0471 17.6153 86.8099 19.0733C86.0369 23.8225 84.9788 30.3271 82.5495 35.4558C79.8637 41.127 76.0009 43.9918 71.0544 43.9921Z" fill="#3D0B34"/>
<path d="M62.9938 9.01768C62.9938 9.01768 58.9809 7.04755 56.5 3.18049C56.5 3.18049 60.0021 0.699585 65.1095 0.699585C65.1095 0.699585 65.5476 4.85892 62.9938 9.01768Z" fill="#3D0B34"/>
<path d="M57.8351 4.94585C60.2068 3.62978 63.3968 3.01998 65.0701 2.77481C65.1019 2.45161 65.1201 2.15906 65.1291 1.90112C61.226 2.25866 58.5516 3.47059 57.2324 4.21659C57.4288 4.47027 57.6305 4.7126 57.8351 4.94585Z" fill="#DB2852"/>
<path d="M108.68 6.71976L102.97 6.14941L102.422 11.6347L108.132 12.205L108.68 6.71976Z" fill="#C4C4C4"/>
<path d="M102.746 8.34946C103.799 8.52766 105.595 8.60824 108.528 8.19055L108.675 6.71387L102.966 6.1438L102.746 8.34946Z" fill="#9C9C9C"/>
<path d="M109.432 9.56504L101.669 8.78967L101.122 14.275L108.884 15.0503L109.432 9.56504Z" fill="#DB2852"/>
<path d="M109.427 9.55909L105.233 9.14026C105.169 9.75857 105.015 10.6172 104.642 11.3039C104.152 12.2046 102.239 12.5561 101.277 12.6779L101.118 14.2689L108.88 15.0441L109.427 9.55909Z" fill="#9E1C3B"/>
<path d="M90.028 25.3248V25.3242C90.7102 18.0032 97.1981 12.6218 104.519 13.3039C111.84 13.9861 117.221 20.4739 116.539 27.7949V27.7955H116.54L110.215 95.662C110.062 97.2993 108.609 98.505 106.969 98.352L86.3956 96.4347C84.7558 96.2817 83.5498 94.8283 83.7025 93.191L90.0275 25.3242L90.028 25.3248Z" fill="#DB2852"/>
<path d="M104.568 98.1284L101.277 97.8217C98.7259 96.7283 95.1094 94.4495 94.3634 90.1443C93.1861 83.3491 99.3292 26.3996 100.698 20.6776C101.685 16.5515 105.01 14.5269 106.789 13.7179C107.384 13.8796 107.961 14.0794 108.518 14.3169C106.851 15.1041 103.303 17.4314 102.123 23.3172C100.561 31.1106 96.3616 83.6451 96.5631 88.9562C96.7254 93.2299 101.301 96.5607 104.568 98.1284Z" fill="#9E1C3B"/>
<path d="M90.0285 25.324C90.7107 18.003 97.1985 12.6215 104.52 13.3037C104.59 13.3102 104.659 13.321 104.729 13.3286C99.0569 15.223 97.8066 21.8156 97.5379 24.7008C97.2292 28.0149 91.1982 85.2532 92.0514 91.0433C92.5222 94.2387 95.6833 96.3255 98.4224 97.5559L86.3961 96.435C84.7563 96.2821 83.5503 94.8287 83.703 93.1914L90.028 25.3245H90.0285V25.324Z" fill="#9E1C3B"/>
<path d="M88.9101 37.3353L87.5781 51.627L114.091 54.0979L115.423 39.8063L88.9101 37.3353Z" fill="#3D0B34"/>
<path d="M84.6447 83.1092L84.4131 85.5947L110.926 88.0657L111.157 85.5802L84.6447 83.1092Z" fill="#3D0B34"/>
<path d="M102.408 7.36003C102.408 7.36003 101.47 6.29083 102.229 4.97277C102.988 3.65471 121.278 0.533649 125.914 2.25096L125.866 3.43083C125.866 3.43083 114.592 2.58381 108.659 5.47559C108.659 5.47559 122.948 6.83281 130 12.2756L129.441 13.683C129.441 13.683 115.069 7.57909 109.549 7.72466C104.03 7.87051 102.843 7.89123 102.408 7.36003Z" fill="#3D0B34"/>
<path d="M104.764 6.09734C104.717 6.57377 104.292 6.92109 103.816 6.8737C103.339 6.82603 102.992 6.40153 103.04 5.9251C103.087 5.44895 103.512 5.10134 103.988 5.14873C104.465 5.19612 104.812 5.62091 104.764 6.09734Z" fill="#FEFEFE"/>
<path d="M110.821 23.4645C110.821 24.2502 110.184 24.8873 109.398 24.8873C108.613 24.8873 107.976 24.2502 107.976 23.4645C107.976 22.6788 108.613 22.0417 109.398 22.0417C110.184 22.0417 110.821 22.6788 110.821 23.4645Z" fill="white"/>
<path d="M109.727 28.5536C109.727 28.8255 109.506 29.046 109.234 29.046C108.962 29.046 108.742 28.8255 108.742 28.5536C108.742 28.2815 108.962 28.061 109.234 28.061C109.506 28.061 109.727 28.2815 109.727 28.5536Z" fill="white"/>
<path d="M50.3183 85.1285L44.7986 10.8749C44.7243 9.87521 43.8537 9.12495 42.854 9.19929L1.68068 12.2599C0.680994 12.3343 -0.0692637 13.2048 0.00508107 14.2045L5.52475 88.4582C5.5991 89.4579 6.46967 90.2081 7.46935 90.1338L48.6427 87.0731C49.6424 86.9988 50.3927 86.1282 50.3183 85.1285Z" fill="white"/>
<path d="M50.0563 85.8013L8.88293 88.862C7.88324 88.9363 7.01267 88.1861 6.93833 87.1864L1.41866 12.9324C1.34431 11.9327 2.09457 11.0622 3.09425 10.9878L44.2676 7.9272C45.2673 7.85286 46.1379 8.60311 46.2122 9.60279L51.7319 83.8567C51.806 84.8564 51.0557 85.727 50.0563 85.8013Z" fill="#171D5A"/>
<path d="M42.3374 10.11L26.5457 11.2839C26.1067 11.3165 25.7194 11.6042 25.5897 12.0228C25.3732 12.7223 24.7447 13.2529 23.9672 13.3108C23.1897 13.3687 22.4896 12.9365 22.1721 12.277C21.982 11.882 21.5563 11.6548 21.1174 11.6874L5.32563 12.8613C4.27629 12.9393 3.48858 13.8491 3.56633 14.8933L8.74265 84.5311C8.8204 85.5753 9.73382 86.3585 10.7832 86.2804L47.7952 83.5291C48.8446 83.4511 49.6323 82.5413 49.5545 81.4971L44.3779 11.8593C44.3002 10.8151 43.3867 10.0319 42.3374 10.11Z" fill="white"/>
<path d="M45.7037 29.6986C38.9499 32.6832 29.9883 35.8213 22.564 35.5832C17.2935 35.4141 11.1206 37.7256 5.48145 40.6647L6.11877 49.2385C12.7573 45.9049 20.8041 42.8897 28.6421 42.5455C35.6617 42.237 41.6839 41.0197 46.4423 39.6367L45.7037 29.6986Z" fill="#E8F6F9"/>
<path d="M10.7829 86.2803L47.7949 83.529C48.8443 83.451 49.632 82.5412 49.5543 81.497L47.4859 53.6716C41.0756 55.7618 32.1408 54.8506 15.9272 58.504C12.4693 59.2832 9.52784 60.3249 7.03076 61.5028L8.74268 84.5309C8.82014 85.5752 9.73384 86.3583 10.7829 86.2803Z" fill="#E8F6F9"/>
<path d="M25.8148 32.5612C20.3414 39.3697 10.9277 39.9528 10.9277 39.9528C13.2704 63.639 28.3704 66.9394 28.3704 66.9394C28.3704 66.9394 42.8162 61.4427 41.6313 37.6702C41.6313 37.6702 32.2349 38.4855 25.8148 32.5612Z" fill="#73C7EB"/>
<path d="M41.6314 37.6705C41.6314 37.6705 32.235 38.4855 25.8149 32.5612L28.3705 66.9396C28.3705 66.9396 42.8163 61.4427 41.6314 37.6705Z" fill="#019EDF"/>
<path d="M28.2375 65.15C26.8851 64.6199 24.3983 63.402 21.8155 60.9075C17.2671 56.5146 14.2193 49.9059 12.9146 41.6675C16.3721 40.9127 21.6535 39.1693 26.0106 35.1938C30.9077 38.4815 36.3885 39.425 39.9199 39.6602C39.8475 48.0007 37.8104 54.9874 33.9615 60.0048C31.7763 62.8538 29.4968 64.4255 28.2375 65.15Z" fill="#B6EEF9"/>
<path opacity="0.6" d="M16.1392 52.7069C17.6343 55.9477 19.5366 58.7061 21.8158 60.9075C24.3985 63.4021 26.8854 64.62 28.2378 65.15C29.4968 64.4256 31.7762 62.8536 33.9618 60.0046C36.8799 56.2003 38.7542 51.2617 39.5226 45.4614C31.9973 45.5102 22.4099 49.579 16.1392 52.7069Z" fill="#B6EEF9"/>
<path d="M27.8102 58.7793C27.8102 58.7793 24.3064 59.6422 22.5698 56.852C20.8332 54.0618 22.6282 52.0284 22.3476 49.5007C22.0669 46.9729 21.1243 45.5138 20.0522 44.8056C20.0522 44.8056 22.1549 44.4177 23.0019 45.8373C23.8489 47.2573 22.9602 49.6403 24.0544 50.0222C25.1486 50.4041 26.2081 49.0744 25.2859 46.6406C24.3637 44.2069 23.0022 40.2303 26.7583 37.7732C26.7583 37.7732 25.5225 44.2134 27.3556 43.9381C29.1887 43.6629 28.0855 41.289 28.0855 41.289C28.0855 41.289 30.3218 42.6981 29.8666 44.6782C29.4115 46.6582 28.4836 49.1369 29.8184 49.64C31.1532 50.1431 31.8881 46.9375 31.1163 45.2803C31.1163 45.2803 33.6619 47.7323 33.8231 51.1496C33.9845 54.5669 33.4425 58.4995 27.8102 58.7793Z" fill="#E79C25"/>
<path d="M27.8432 58.3906C27.8432 58.3906 25.3115 58.8259 23.8774 56.9863C22.4432 55.1467 23.8172 52.8511 23.5448 51.2652C23.5448 51.2652 24.1722 52.6397 25.2383 52.4368C26.3043 52.2339 27.7441 49.1614 26.5909 46.5287C26.5909 46.5287 28.012 46.1141 28.4498 44.9385C28.4498 44.9385 27.7291 51.4485 29.7886 51.728C31.8481 52.0075 32.2153 49.8793 32.2153 49.8793C32.2153 49.8793 35.0753 57.606 27.8432 58.3906Z" fill="#FFD83B"/>
<path d="M28.4549 57.4803C28.4549 57.4803 27.0384 58.3733 25.5787 56.8137C24.1191 55.2542 25.18 53.3218 25.18 53.3218C25.18 53.3218 25.6037 55.2828 26.5304 54.658C27.4572 54.0332 27.6521 49.8018 27.6521 49.8018C27.6521 49.8018 28.1192 54.2156 29.2713 54.1299C30.4233 54.0442 31.2868 53.1924 31.2868 53.1924C31.2868 53.1924 31.9369 56.9434 28.4549 57.4803Z" fill="#FFECA1"/>
<path d="M96.2942 57.6113L79.1901 31.3444L47.7576 32.22L25.7021 56.079L26.8275 57.6113L30.553 57.7004L33.1446 90.8826L57.5325 92.0863L79.3033 91.3159L80.6747 91.2671L89.4812 90.9555L92.9725 58.9975H95.1691L96.2942 57.6113Z" fill="white"/>
<path d="M55.9778 92.0862L31.5896 90.8825L28.8354 55.6139H55.9778V92.0862Z" fill="#F4D7A7"/>
<path d="M28.8354 55.6139L31.194 85.8143L55.9778 65.71V55.6139H28.8354Z" fill="#F4D7A7"/>
<path d="M55.978 92.0862V55.6139L76.052 33.2778L91.6022 57.3102L87.9267 90.9555L55.978 92.0862Z" fill="#F4D7A7"/>
<path d="M73.5719 36.0374L55.978 55.6139V65.71L75.939 35.2732L73.5719 36.0374Z" fill="#F4D7A7"/>
<path d="M65.6943 91.7423L78.1536 91.3013L79.6728 65.2725L66.3935 64.9805L65.6943 91.7423Z" fill="#572A14"/>
<path d="M76.4779 78.4327C76.4779 78.706 76.2566 78.9273 75.9834 78.9273C75.7101 78.9273 75.4888 78.706 75.4888 78.4327C75.4888 78.1594 75.7101 77.9381 75.9834 77.9381C76.2566 77.9381 76.4779 78.1594 76.4779 78.4327Z" fill="#C27B57"/>
<path d="M54.8301 56.6627L77.6355 31.3444L94.7396 57.6113L93.6142 58.9975L77.3353 33.6794L55.7302 58.3409L54.8301 56.6627Z" fill="#964922"/>
<path d="M77.6354 31.3444L46.2029 32.22L24.1475 56.079L54.83 56.6627L77.6354 31.3444Z" fill="#C27B57"/>
<path d="M55.7301 58.3408L25.2728 57.6113L24.1475 56.079L54.83 56.6627L55.7301 58.3408Z" fill="#572A14"/>
<path d="M93.6143 58.9974H91.418L75.939 35.2732L77.3353 33.6793L93.6143 58.9974Z" fill="#572A14"/>
<path d="M64.4116 91.7878L66.4291 91.7165L67.1961 65.6371L78.7973 65.9291L77.3556 91.3298L79.1202 91.2671L80.913 63.959H65.4451L64.4116 91.7878Z" fill="#964922"/>
<path opacity="0.5" d="M51.4799 48.3448L49.7578 49.9591H56.1058L57.6866 48.3448H51.4799Z" fill="#C27B57"/>
<path opacity="0.5" d="M50.0024 45.5311L48.2803 47.1454H54.6282L56.2093 45.5311H50.0024Z" fill="#C27B57"/>
<path opacity="0.5" d="M46.1169 37.3776L44.395 38.9919H50.7427L52.3238 37.3776H46.1169Z" fill="#C27B57"/>
<path opacity="0.5" d="M43.7456 40.1865L42.0234 41.8008H48.3714L49.9525 40.1865H43.7456Z" fill="#C27B57"/>
<path opacity="0.5" d="M62.862 35.0244L61.1401 36.6387H67.4878L69.0689 35.0244H62.862Z" fill="#C27B57"/>
<path opacity="0.5" d="M34.4609 51.7147L32.7388 53.329H39.0867L40.6676 51.7147H34.4609Z" fill="#C27B57"/>
<path d="M55.9781 90.0068L55.8989 60.1648L56.2516 68.2638L55.9781 90.0068Z" fill="white"/>
<path d="M56.6196 54.6758L77.1589 31.8733L73.7899 35.0244L56.6196 54.6758Z" fill="white"/>
<path d="M31.6707 92.2257C27.6706 87.4146 31.3529 86.0784 31.7769 79.1893C32.2008 72.3002 28.4912 67.5308 28.4912 67.5308C28.4912 67.5308 31.8827 67.6369 33.4726 69.6505C35.0625 71.6643 34.1085 77.4935 36.4401 76.9635C38.7718 76.4337 38.5598 71.5582 36.9699 67.4247C35.38 63.2911 32.9425 55.5542 40.6795 48.4531C40.6795 48.4531 37.076 55.1302 39.7258 58.734C42.3755 62.3374 43.4354 64.7752 43.5412 68.3787C43.647 71.9821 44.813 76.6457 46.5087 73.1481C48.2045 69.6505 46.8266 62.8675 46.8266 62.8675C46.8266 62.8675 50.3242 65.4111 51.4898 68.4848C52.6558 71.5584 48.8401 78.1297 52.0199 78.9776C55.1994 79.8255 55.9414 72.6183 55.9414 72.6183C55.9414 72.6183 57.6372 79.8255 56.0476 83.1111C54.4577 86.3968 54.0215 89.261 54.1399 91.8021C54.3518 96.3592 39.5138 101.659 31.6707 92.2257Z" fill="#E1771C"/>
<path d="M34.462 78.6946C34.462 78.6946 33.1902 83.1462 33.1196 86.3257C33.0489 89.5053 34.0381 94.5928 41.4572 95.2287C48.8764 95.8646 50.8548 93.0383 51.1374 90.1415C51.42 87.2446 54.4582 81.4505 54.4582 81.4505C54.4582 81.4505 52.5505 84.2061 50.6428 82.7223C48.7351 81.2385 49.159 74.2433 49.159 74.2433C49.159 74.2433 48.0285 78.9775 45.4143 78.2C42.8 77.4228 42.3054 75.5151 42.3761 72.9006C42.4467 70.2863 42.1641 65.8347 40.3977 63.715C38.6313 61.5953 37.7128 60.4648 37.7128 60.4648C37.7128 60.4648 39.5498 65.411 39.9738 69.2265C40.3977 73.0419 40.8216 81.0263 38.278 81.2382C35.7338 81.4505 34.462 78.6946 34.462 78.6946Z" fill="#FFD83B"/>
<path d="M44.2128 93.2503C44.2128 93.2503 40.892 94.6634 38.2774 92.0491C35.6631 89.4349 37.1469 83.7115 37.1469 83.7115C37.1469 83.7115 37.7122 88.1628 40.1145 85.9018C42.5168 83.6408 42.2341 77.988 42.2341 77.988C42.2341 77.988 42.6581 83.8528 44.4951 83.8528C46.3322 83.8528 47.604 82.0864 47.604 82.0864C47.604 82.0864 45.8376 84.2767 47.4627 85.4779C49.0878 86.679 50.1476 86.0431 50.1476 86.0431C50.1476 86.0431 50.2895 91.9782 44.2128 93.2503Z" fill="#FFECA1"/>
<path d="M94.6792 95.5363C94.6792 95.5363 89.5265 96.2587 85.8149 92.3622C82.1033 88.4656 83.7602 86.5068 84.7014 81.5569C85.6427 76.607 85.8033 74.7359 83.609 70.8555C81.4147 66.9751 82.8493 60.1947 82.8493 60.1947C82.8493 60.1947 83.1757 64.9953 85.6361 67.5236C88.0966 70.0519 87.7008 76.6215 89.4501 77.7804C91.1995 78.939 93.7003 74.213 91.8371 69.8329C89.974 65.4528 86.9863 67.2492 87.5297 61.4069C88.0731 55.5643 91.1728 49.5271 91.1728 49.5271C91.1728 49.5271 90.2481 59.8812 92.4568 61.7037C94.6656 63.5263 96.4964 64.0195 97.5449 67.0512C98.5934 70.0829 93.8158 77.975 96.2955 80.0669C98.7753 82.1588 102.693 71.6293 100.286 66.1698C100.286 66.1698 103.013 67.3463 103.589 72.3123C104.165 77.2784 102.078 81.3796 102.855 84.1417C103.632 86.9038 101.117 93.6876 94.6792 95.5363Z" fill="#E1771C"/>
<path d="M93.0639 93.4805C93.0639 93.4805 89.0913 94.599 87.0962 91.0989C85.1011 87.5987 85.9342 86.3326 86.5156 84.3372C87.5425 80.8118 87.3694 77.6036 87.3694 77.6036C87.3694 77.6036 89.1685 80.4244 89.2547 82.0121C89.3413 83.5994 93.8008 77.7841 93.882 73.4278C93.9631 69.0715 91.7092 65.6914 91.7092 65.6914C91.7092 65.6914 94.2395 66.3497 94.96 68.8579C95.6804 71.366 92.8925 80.5933 94.3136 82.3202C95.7343 84.0472 98.5101 83.3653 99.7033 80.9122C100.896 78.4588 101.875 75.9643 101.875 75.9643C101.875 75.9643 100.464 81.2422 100.732 84.1996C100.999 87.1572 99.0932 93.0988 93.0639 93.4805Z" fill="#FFD83B"/>
<path d="M93.3625 92.1374C92.4099 92.5636 91.3092 93.4169 89.3688 90.9221C87.4285 88.4273 88.6736 84.0075 88.6736 84.0075C88.6736 84.0075 88.9438 87.0178 90.2264 86.2049C91.5089 85.3919 92.7703 82.245 92.6233 82.4655C92.476 82.6857 91.833 87.4443 94.6289 87.1328C97.4247 86.8212 98.4551 85.279 98.4551 85.279C98.4551 85.279 98.032 90.0475 93.3625 92.1374Z" fill="#FFECA1"/>
<path d="M71.5037 52C71.5037 52 67.2255 52.3615 64.5993 47.2258C63.4331 44.9455 63.9072 41.4224 64.9676 36.811C66.028 32.1999 65.0638 29.698 65.0638 29.698C65.0638 29.698 67.6097 29.6867 68.2808 32.7325C68.9519 35.7784 68.2416 38.782 70.4828 36.7687C72.7242 34.7554 71.2109 31.8546 70.1329 24.5835C69.0549 17.3125 70.8139 14.0482 75.7689 11.061C75.7689 11.061 72.9526 16.7081 74.4086 20.6728C75.8648 24.6375 77.4544 26.0659 77.5781 28.0148C77.7019 29.9636 77.0064 33.2847 77.0064 33.2847C77.0064 33.2847 80.8357 31.1982 80.5542 27.3916C80.2724 23.585 78.5282 20.2704 78.5282 20.2704C78.5282 20.2704 81.7434 20.971 83.1035 25.1522C84.4636 29.3334 81.9304 34.2248 81.2349 37.5459C80.5395 40.867 80.6141 44.7894 82.6194 42.2566C84.6244 39.7238 84.434 35.5948 84.434 35.5948C84.434 35.5948 86.6264 39.4193 85.6962 44.555C84.7658 49.6905 80.8743 52.7347 71.5037 52Z" fill="#E1771C"/>
<path d="M67.9183 49.301C63.9006 47.0423 65.2686 44.6905 65.7456 41.8288C66.2226 38.9671 66.8585 35.2047 66.8585 35.2047C66.8585 35.2047 67.0705 40.0272 68.7662 40.7162C70.462 41.4051 72.7408 39.0735 73.2175 35.0458C73.6945 31.0184 73.3764 29.4816 72.8467 27.0438C72.3166 24.6061 72.8467 22.2744 72.8467 22.2744C72.8467 22.2744 73.8007 24.765 75.0194 27.2558C76.2381 29.7466 76.5032 30.2233 76.3443 32.9261C76.1854 35.6289 75.0194 38.5965 76.7682 38.4376C78.517 38.2787 80.9017 32.3433 80.9017 32.3433C80.9017 32.3433 78.8348 40.5573 79.4179 42.942C80.0008 45.3267 81.9616 45.4856 82.8094 44.3199C82.8094 44.3199 78.5701 55.2894 67.9183 49.301Z" fill="#FFD83B"/>
<path d="M74.1713 49.566C74.1713 49.566 71.1507 49.8838 69.455 47.8703C67.3515 45.3726 68.0243 42.4119 68.0243 42.4119C68.0243 42.4119 69.508 44.5846 71.0979 43.3128C72.6878 42.041 74.4894 37.3774 74.4894 37.3774C74.4894 37.3774 74.0124 43.0478 75.2315 42.8358C76.4502 42.6239 77.3511 41.1931 77.3511 41.1931C77.3511 41.1931 77.2453 46.8635 79.153 46.7046C79.153 46.7046 77.457 49.4071 74.1713 49.566Z" fill="#FFECA1"/>
</svg>
