<svg width="120" height="120" viewBox="0 0 120 120" fill="none" xmlns="http://www.w3.org/2000/svg">
<path d="M25.9895 57.2376C22.4432 62.0057 15.7033 62.9962 10.9352 59.4499C6.16714 55.9037 5.17666 49.1638 8.7229 44.3957C12.2691 39.6276 19.0091 38.6374 23.7771 42.1834C23.7841 42.1886 23.7913 42.1939 23.7983 42.199C28.5555 45.7471 29.5364 52.4796 25.9895 57.2376Z" fill="#EBEBEB"/>
<path d="M23.94 55.704C21.2402 59.3391 16.1049 60.0972 12.4699 57.3975C8.83484 54.6977 8.07668 49.5624 10.7764 45.9274C13.4762 42.2924 18.6115 41.5342 22.2465 44.234C22.2511 44.2373 22.2554 44.2407 22.26 44.244C25.8883 46.9438 26.6412 52.0736 23.9414 55.7021C23.9409 55.7026 23.9404 55.7033 23.94 55.704Z" fill="#F5F5F5"/>
<path d="M24.0912 55.4977C24.0504 55.4689 24.2376 55.1617 24.5088 54.5785C24.8899 53.7632 25.1419 52.8937 25.2552 52.0009C25.4229 50.6845 25.2655 49.3472 24.7968 48.1057C24.6621 47.7497 24.5018 47.4039 24.3168 47.0713C24.1286 46.7249 23.9145 46.3937 23.676 46.0801C23.4281 45.7539 23.1552 45.4474 22.86 45.1633C22.2516 44.5772 21.5541 44.0909 20.7936 43.7233C20.0676 43.3695 19.2924 43.1269 18.4944 43.0033C18.1188 42.9449 17.7393 42.9145 17.3592 42.9121C16.6543 42.9029 15.9509 42.9836 15.2664 43.1521C14.67 43.3064 14.0921 43.5253 13.5432 43.8049C12.7454 44.2186 12.0168 44.7538 11.3832 45.3913C10.9296 45.8449 10.704 46.1281 10.6632 46.1113C10.6224 46.0945 10.7904 45.7585 11.2008 45.2401C11.7931 44.5085 12.5167 43.8939 13.3344 43.4281C14.5605 42.7237 15.9475 42.3476 17.3616 42.3361C18.1985 42.3269 19.0317 42.4443 19.8336 42.6841C20.2574 42.812 20.6707 42.9723 21.0696 43.1641C21.479 43.364 21.8729 43.5941 22.248 43.8529C22.6197 44.1164 22.9713 44.4075 23.2992 44.7241C23.6165 45.0332 23.9085 45.367 24.1728 45.7225C24.672 46.3928 25.0668 47.1349 25.344 47.9233C25.8194 49.255 25.9418 50.6871 25.6992 52.0801C25.5449 53.0079 25.2192 53.899 24.7392 54.7081C24.3792 55.2577 24.1224 55.5193 24.0912 55.4977Z" fill="#E0E0E0"/>
<path d="M15.1871 55.2696L14.3495 56.424L13.3175 55.68L14.1335 54.5568C13.1567 53.7528 12.4079 52.7232 12.1631 51.8664L13.6439 51.0192C13.9357 51.8628 14.4428 52.6157 15.1151 53.2032L16.3655 51.48C15.4199 50.3712 14.4167 49.0608 15.4871 47.5848C16.2815 46.4904 17.7575 46.128 19.5239 47.124L20.3543 45.9792L21.3863 46.728L20.5703 47.8512C21.28 48.4313 21.8418 49.1717 22.2095 50.0112L20.7695 50.9064C20.4858 50.2719 20.0778 49.7007 19.5695 49.2264L18.2975 50.9808C19.2575 52.08 20.2319 53.3808 19.1759 54.8208C18.4103 55.8888 16.9511 56.2488 15.1871 55.2696ZM17.4647 49.9584L18.5279 48.492C17.8919 48.2184 17.4575 48.3624 17.2103 48.7032C16.9631 49.044 17.1143 49.4832 17.4647 49.9584ZM17.4359 53.7336C17.6975 53.3712 17.5415 52.9584 17.2103 52.4808L16.1759 53.9064C16.7759 54.168 17.1959 54.0624 17.4359 53.7336Z" fill="#E0E0E0"/>
<path d="M90.5948 87.7968C87.5178 91.9341 81.6692 92.7936 77.5321 89.7163C73.3948 86.6392 72.5353 80.7907 75.6126 76.6536C78.6896 72.5162 84.5382 71.6568 88.6753 74.734C88.6816 74.7388 88.6878 74.7434 88.694 74.748C92.8211 77.8272 93.6721 83.6683 90.5948 87.7968Z" fill="#EBEBEB"/>
<path d="M88.8165 86.4672C86.4686 89.6172 82.0118 90.2673 78.8618 87.9194C75.7118 85.5715 75.0616 81.1147 77.4096 77.9647C79.7575 74.8147 84.2143 74.1646 87.3643 76.5125C87.3684 76.5156 87.3724 76.5185 87.3765 76.5216C90.5203 78.8705 91.1649 83.3232 88.8165 86.4672Z" fill="#F5F5F5"/>
<path d="M88.9487 86.2872C88.9127 86.2608 89.0759 85.9944 89.3087 85.488C89.6396 84.7807 89.8583 84.0259 89.9567 83.2512C90.0224 82.7208 90.0289 82.1846 89.9759 81.6528C89.9144 81.0437 89.774 80.4451 89.5583 79.872C89.4435 79.5629 89.3055 79.2626 89.1455 78.9744C88.9818 78.6722 88.7948 78.3835 88.5862 78.1104C88.3705 77.8274 88.1339 77.561 87.8783 77.3136C87.6128 77.0611 87.3296 76.8276 87.0311 76.6152C86.7299 76.4069 86.4138 76.2209 86.0855 76.0584C85.4557 75.7524 84.7832 75.5429 84.0911 75.4368C83.7647 75.3859 83.4349 75.3593 83.1046 75.3576C82.4931 75.3521 81.8833 75.4245 81.2902 75.5736C80.7726 75.708 80.2712 75.8988 79.7951 76.1424C79.1012 76.5007 78.4674 76.9646 77.9159 77.5176C77.5223 77.9112 77.3254 78.156 77.2918 78.1296C77.2582 78.1032 77.4022 77.8248 77.7574 77.376C78.272 76.7414 78.9003 76.2081 79.6102 75.804C80.102 75.5215 80.6257 75.2983 81.1702 75.1392C81.7993 74.958 82.4499 74.8627 83.1046 74.856C83.4586 74.8512 83.8124 74.8737 84.1631 74.9232C84.5305 74.9743 84.8931 75.0547 85.2479 75.1632C85.6155 75.2736 85.9743 75.4125 86.3207 75.5784C87.0337 75.9235 87.6867 76.3805 88.2551 76.932C88.5296 77.201 88.7831 77.4907 89.0135 77.7984C89.235 78.095 89.4323 78.4087 89.6039 78.7368C89.7704 79.0454 89.9132 79.3663 90.0311 79.6968C90.2487 80.3162 90.3819 80.9618 90.4271 81.6168C90.465 82.1832 90.4352 82.752 90.3383 83.3112C90.2015 84.1169 89.9159 84.8901 89.4959 85.5912C89.1959 86.0784 88.9727 86.304 88.9487 86.2872Z" fill="#E0E0E0"/>
<path d="M81.2229 86.088L80.5029 87.0912L79.6053 86.4408L80.3133 85.464C79.4661 84.768 78.8181 83.8728 78.6045 83.1312L79.8885 82.3968C80.1431 83.1286 80.5831 83.7816 81.1653 84.2928L82.2501 82.7952C81.4317 81.8352 80.5701 80.6976 81.4893 79.416C82.1781 78.456 83.4597 78.1512 84.9909 79.0176L85.7109 78.0216L86.6061 78.672L85.8981 79.6488C86.5137 80.1487 87.0016 80.7879 87.3213 81.5136L86.0733 82.2888C85.8307 81.738 85.4798 81.2419 85.0413 80.8296L83.9373 82.3536C84.7629 83.3136 85.6173 84.4296 84.7005 85.692C84.0165 86.6256 82.7517 86.9376 81.2229 86.088ZM83.1981 81.48L84.1197 80.208C83.5677 79.968 83.1909 80.0952 82.9749 80.3904C82.7589 80.6856 82.8933 81.0696 83.1981 81.48ZM83.1717 84.756C83.3997 84.4416 83.2629 84.084 82.9749 83.6688L82.0797 84.9048C82.5981 85.1328 82.9653 85.0416 83.1717 84.756Z" fill="#E0E0E0"/>
<path d="M34.1519 23.6496C33.5423 26.9808 30.3476 29.1874 27.0162 28.5778C23.6848 27.9682 21.4784 24.7735 22.088 21.4421C22.6976 18.1109 25.8923 15.9043 29.2237 16.5139C29.2288 16.5149 29.2338 16.5159 29.2391 16.5168C32.5652 17.1303 34.7646 20.3235 34.1519 23.6496Z" fill="#EBEBEB"/>
<path d="M32.7168 23.3832C32.2516 25.9217 29.8168 27.6027 27.2784 27.1375C24.7399 26.6724 23.0592 24.2376 23.524 21.6991C23.9892 19.1607 26.424 17.4799 28.9624 17.9448C28.9668 17.9455 28.9708 17.9465 28.9752 17.9472C31.5091 18.4147 33.1845 20.8479 32.717 23.3818C32.717 23.3823 32.7168 23.3827 32.7168 23.3832Z" fill="#F5F5F5"/>
<path d="M32.7433 23.2392C32.7152 23.0486 32.709 22.8554 32.7241 22.6632C32.7128 22.1508 32.6221 21.6432 32.4553 21.1584C32.3403 20.8227 32.1882 20.5006 32.0017 20.1984C31.789 19.8576 31.5322 19.5461 31.2385 19.272C31.0806 19.1232 30.9121 18.9862 30.7345 18.8616C30.5499 18.732 30.3558 18.6163 30.1537 18.516C29.9446 18.4121 29.7279 18.3238 29.5057 18.252C29.2762 18.1805 29.042 18.125 28.8049 18.0864C28.5663 18.0523 28.3258 18.0346 28.0849 18.0336C27.8509 18.0358 27.6176 18.055 27.3865 18.0912C27.1635 18.1265 26.9439 18.1786 26.7289 18.2472C26.5222 18.312 26.3209 18.3922 26.1265 18.4872C25.443 18.816 24.8514 19.308 24.4033 19.92C24.0944 20.3318 23.8515 20.7895 23.6833 21.276C23.6396 21.463 23.576 21.6449 23.4937 21.8184C23.4694 21.6231 23.4882 21.4248 23.5489 21.2376C23.6682 20.7144 23.8837 20.2178 24.1849 19.7736C24.6322 19.104 25.2459 18.5623 25.9657 18.2016C26.1738 18.0955 26.3895 18.0058 26.6113 17.9328C26.8417 17.8555 27.0774 17.7963 27.3169 17.7552C27.566 17.7144 27.818 17.6921 28.0705 17.688C28.3299 17.6873 28.5889 17.7058 28.8457 17.7432C29.1018 17.7842 29.3545 17.8445 29.6017 17.9232C29.8414 18.0024 30.075 18.0994 30.3001 18.2136C30.5175 18.3233 30.7256 18.4507 30.9217 18.5952C31.1113 18.7301 31.2896 18.8801 31.4545 19.044C31.7614 19.344 32.0271 19.6838 32.2441 20.0544C32.4301 20.3779 32.5782 20.7218 32.6857 21.0792C32.8381 21.5933 32.8942 22.1311 32.8513 22.6656C32.8549 22.8622 32.8182 23.0573 32.7433 23.2392Z" fill="#E0E0E0"/>
<path d="M28.1328 25.3656L27.996 26.1696L27.276 26.0472L27.408 25.2648C26.7771 25.1357 26.1951 24.8323 25.728 24.3888L26.2704 23.5824C26.6328 23.9393 27.0821 24.1956 27.5736 24.3264L27.7776 23.1264C27.0168 22.7976 26.1744 22.38 26.3496 21.3552C26.4792 20.5968 27.1416 20.04 28.296 20.1048L28.4304 19.308L29.1504 19.4304L29.016 20.2128C29.5234 20.3289 29.9964 20.5632 30.396 20.8968L29.8872 21.7176C29.5836 21.4641 29.233 21.2733 28.8552 21.156L28.6464 22.3752C29.4096 22.6968 30.2376 23.112 30.0648 24.12C29.9352 24.8712 29.28 25.4232 28.1328 25.3656ZM27.9576 22.08L28.1328 21.0624C27.7368 21.084 27.552 21.2664 27.5112 21.504C27.4704 21.7416 27.66 21.924 27.9576 22.08ZM28.896 24.0168C28.9392 23.7768 28.7544 23.5944 28.464 23.436L28.296 24.4224C28.668 24.4032 28.8576 24.24 28.896 24.0144V24.0168Z" fill="#E0E0E0"/>
<path d="M113.429 106.291C113.429 106.327 91.231 106.356 63.8566 106.356C36.4822 106.356 14.2822 106.32 14.2822 106.291C14.2822 106.262 36.4726 106.229 63.8566 106.229C91.2406 106.229 113.429 106.258 113.429 106.291Z" fill="#263238"/>
<path d="M43.5864 30.7344C43.5864 30.7344 43.7952 19.98 34.8984 14.5176H63.096C63.096 14.5176 71.1576 21.0504 71.2248 30.7344H43.5864Z" fill="#EBEBEB"/>
<path d="M60.9459 18.4392C60.9459 18.4752 57.7251 18.504 53.7459 18.504C49.7667 18.504 46.5459 18.4752 46.5459 18.4392C46.5459 18.4032 49.7667 18.3768 53.7459 18.3768C57.7251 18.3768 60.9459 18.4056 60.9459 18.4392Z" fill="#455A64"/>
<path d="M64.0227 20.3856C64.0227 20.4192 59.7555 20.448 54.4923 20.448C49.2291 20.448 44.9619 20.4192 44.9619 20.3856C44.9619 20.352 49.2291 20.3208 54.4923 20.3208C59.7555 20.3208 64.0227 20.3496 64.0227 20.3856Z" fill="#263238"/>
<path d="M65.6257 25.3056C65.6257 25.3392 61.3585 25.368 56.0953 25.368C50.8321 25.368 46.5625 25.3392 46.5625 25.3056C46.5625 25.272 50.8297 25.2432 56.0953 25.2432C61.3609 25.2432 65.6257 25.272 65.6257 25.3056Z" fill="#263238"/>
<path d="M55.666 22.6248C55.5373 22.6447 55.4073 22.6536 55.2772 22.6512L54.2116 22.6704C53.3116 22.6824 52.0708 22.6896 50.698 22.6896C49.3252 22.6896 48.0844 22.6896 47.1844 22.6704L46.1188 22.6512C45.9887 22.6536 45.8586 22.6447 45.73 22.6248C45.8589 22.6068 45.9887 22.5986 46.1188 22.6008L47.1844 22.5816C48.0844 22.5816 49.3252 22.5624 50.698 22.5624C52.0708 22.5624 53.3116 22.5624 54.2116 22.5816L55.2772 22.6008C55.4073 22.5986 55.5371 22.6068 55.666 22.6248Z" fill="#263238"/>
<path d="M64.0228 22.6248C63.9282 22.6447 63.8315 22.6536 63.7348 22.6512L62.9476 22.6704C62.2852 22.6824 61.366 22.6896 60.3532 22.6896C59.3404 22.6896 58.4212 22.6896 57.7588 22.6704L56.9716 22.6512C56.8749 22.6533 56.7784 22.6445 56.6836 22.6248C56.7786 22.607 56.8751 22.5989 56.9716 22.6008L57.7588 22.5816C58.4212 22.5816 59.3404 22.5624 60.3532 22.5624C61.366 22.5624 62.2732 22.5624 62.9476 22.5816L63.7348 22.6008C63.8313 22.5986 63.928 22.6068 64.0228 22.6248Z" fill="#263238"/>
<path d="M57.4345 27.9431C57.3051 27.9631 57.1741 27.9717 57.0433 27.9695L55.9801 27.9887C55.0801 27.9887 53.8369 28.0079 52.4665 28.0079C51.0961 28.0079 49.8505 28.0079 48.9505 27.9887L47.8873 27.9695C47.7565 27.9717 47.6255 27.9631 47.4961 27.9431C47.6257 27.9251 47.7565 27.9172 47.8873 27.9191L48.9505 27.8999C49.8505 27.8999 51.0937 27.8807 52.4665 27.8807C53.8393 27.8807 55.0801 27.8807 55.9801 27.8999L57.0433 27.9191C57.1741 27.9172 57.3049 27.9251 57.4345 27.9431Z" fill="#263238"/>
<path d="M65.7913 27.9431C65.6965 27.9628 65.6 27.9717 65.5033 27.9695L64.7161 27.9887C64.0513 27.9887 63.1345 28.0079 62.1217 28.0079C61.1089 28.0079 60.2017 28.0079 59.5249 27.9887L58.7377 27.9695C58.641 27.9717 58.5445 27.9628 58.4497 27.9431C58.5447 27.9254 58.6412 27.9172 58.7377 27.9191L59.5249 27.8999C60.1897 27.8999 61.1065 27.8807 62.1217 27.8807C63.1369 27.8807 64.0417 27.8807 64.7161 27.8999L65.5033 27.9191C65.5998 27.9172 65.6963 27.9254 65.7913 27.9431Z" fill="#263238"/>
<path d="M37.8215 30.4296H79.4231L81.6887 102.502C81.7523 104.535 80.1554 106.235 78.1216 106.299C78.081 106.3 78.0405 106.301 77.9999 106.301H34.7471C33.4778 106.301 32.4314 105.306 32.3687 104.038L30.3695 63.341C30.3695 63.341 18.0311 58.8602 18.2399 45.197C18.2399 45.197 18.8015 30.4296 37.8215 30.4296Z" fill="#263238"/>
<path d="M40.08 106.19L38.2656 30.4296H80.9328L81.7032 103.003C81.7589 104.763 80.3777 106.234 78.6185 106.289C78.582 106.291 78.5453 106.291 78.5088 106.291L40.08 106.19Z" fill="#455A64"/>
<path d="M41.7915 34.8192L42.6555 70.0944H77.4051L76.9371 34.8192H41.7915Z" fill="#263238"/>
<path d="M45.636 39.384C47.3328 39.8424 49.476 39.648 51.2184 39.564C51.4836 39.564 51.6984 39.3492 51.6984 39.084C51.6984 38.8188 51.4836 38.604 51.2184 38.604C49.476 38.5176 47.3304 38.3232 45.636 38.784C45.4671 38.8342 45.3708 39.0118 45.421 39.181C45.4517 39.2844 45.5326 39.3653 45.636 39.396V39.384Z" fill="#E0E0E0"/>
<path d="M54.185 39.3144C55.8506 39.7392 58.0034 39.6624 59.705 39.4992C59.9702 39.4992 60.185 39.2844 60.185 39.0192C60.185 38.754 59.9702 38.5392 59.705 38.5392C58.0034 38.3736 55.8506 38.2992 54.185 38.724C54.0213 38.7734 53.9287 38.9462 53.9781 39.1099C54.0081 39.2093 54.0859 39.287 54.185 39.3168V39.3144Z" fill="#E0E0E0"/>
<path d="M62.6185 39.1632C63.4561 39.4176 64.3609 39.3744 65.2297 39.3888C66.1167 39.4416 67.0066 39.4248 67.8913 39.3384C68.3257 39.276 68.3257 38.52 67.8913 38.46C67.0069 38.3717 66.1169 38.3539 65.2297 38.4072C64.3609 38.4216 63.4561 38.3784 62.6185 38.6328C62.4721 38.675 62.3876 38.8279 62.4298 38.9746C62.456 39.0658 62.5273 39.137 62.6185 39.1632Z" fill="#E0E0E0"/>
<path d="M70.4328 39.2112C71.0647 39.3034 71.7022 39.3521 72.3408 39.3576C72.9744 39.372 73.6584 39.4752 74.2728 39.3C74.4948 39.2328 74.6203 38.9983 74.5531 38.7763C74.5126 38.6419 74.4072 38.5366 74.2728 38.496C73.6584 38.3208 72.9744 38.424 72.3408 38.4384C71.7022 38.4434 71.0645 38.4931 70.4328 38.5872C70.2605 38.6402 70.1638 38.8229 70.2166 38.9952C70.2485 39.0984 70.3294 39.1795 70.4328 39.2112Z" fill="#E0E0E0"/>
<path d="M52.7379 74.2896H42.6675V81.4871H52.7379V74.2896Z" fill="#FF725E"/>
<path d="M44.4891 74.2896H42.6675V81.4871H44.4891V74.2896Z" fill="#263238"/>
<path d="M65.0689 74.2896H54.9985V81.4871H65.0689V74.2896Z" fill="#FF725E"/>
<path d="M56.7171 74.2896H54.8955V81.4871H56.7171V74.2896Z" fill="#263238"/>
<path d="M77.4024 74.2896H67.332V81.4871H77.4024V74.2896Z" fill="#FF725E"/>
<path d="M68.8655 74.2896H67.0439V81.4871H68.8655V74.2896Z" fill="#263238"/>
<path d="M77.4024 83.8656H67.332V91.0632H77.4024V83.8656Z" fill="#FF725E"/>
<path d="M69.2088 83.8656H67.332V91.0632H69.2088V83.8656Z" fill="#263238"/>
<path d="M52.7379 83.8656H42.6675V91.0632H52.7379V83.8656Z" fill="#FF725E"/>
<path d="M44.4891 83.8512H42.6675V91.0488H44.4891V83.8512Z" fill="#263238"/>
<path d="M52.7379 93.3456H42.6675V100.543H52.7379V93.3456Z" fill="#FF725E"/>
<path opacity="0.3" d="M52.7379 93.3456H42.6675V100.543H52.7379V93.3456Z" fill="black"/>
<path d="M44.4891 93.3456H42.6675V100.543H44.4891V93.3456Z" fill="#263238"/>
<path d="M65.0138 83.8656H54.9434V91.0632H65.0138V83.8656Z" fill="#FF725E"/>
<path d="M56.765 83.8512H54.9434V91.0488H56.765V83.8512Z" fill="#263238"/>
<path d="M65.0689 93.3456H54.9985V100.543H65.0689V93.3456Z" fill="#FF725E"/>
<path opacity="0.3" d="M65.0689 93.3456H54.9985V100.543H65.0689V93.3456Z" fill="black"/>
<path d="M56.8201 93.3456H54.9985V100.543H56.8201V93.3456Z" fill="#263238"/>
<path d="M77.4024 93.3456H67.332V100.543H77.4024V93.3456Z" fill="#E0E0E0"/>
<path d="M69.1536 93.3456H67.332V100.543H69.1536V93.3456Z" fill="#263238"/>
<path d="M36.756 106.301C36.5832 106.301 35.952 89.3231 35.3448 68.3807C34.7376 47.4383 34.3848 30.4391 34.5576 30.4343C34.7304 30.4295 35.3616 47.4071 35.9688 68.3543C36.576 89.3015 36.9288 106.296 36.756 106.301Z" fill="#455A64"/>
<path d="M77.3521 66.0768V67.3704L81.3361 68.3616L81.3145 66.3672L77.3521 66.0768Z" fill="#455A64"/>
<path d="M28.9898 63.4824C28.7719 63.3952 28.5376 63.3568 28.3034 63.3696C28.0677 63.3919 27.8363 63.4485 27.617 63.5376L24.8906 64.4496L19.5626 66.24L9.48257 69.6C9.08489 69.7137 8.74313 69.97 8.52257 70.32C8.30489 70.6627 8.22353 71.0745 8.29457 71.4744C8.33897 71.6724 8.39657 71.8672 8.46737 72.0576L8.66177 72.6384C8.79137 73.0248 8.91857 73.4064 9.04817 73.788C9.55385 75.3064 10.0466 76.7808 10.5266 78.2112C11.4866 81.0672 12.3698 83.7312 13.1834 86.1528C14.801 91.008 16.1138 94.9392 17.0234 97.656C17.4746 99.0144 17.8226 100.068 18.0626 100.776C18.1778 101.134 18.269 101.405 18.329 101.59C18.389 101.774 18.4154 101.868 18.4154 101.868C18.4154 101.868 18.4442 101.964 18.5378 102.132C18.6763 102.382 18.8762 102.593 19.1186 102.744C19.5158 102.99 19.9975 103.06 20.4482 102.936C20.9714 102.768 21.5714 102.557 22.2506 102.331L32.273 98.952L21.5834 65.568L26.9306 63.7752L36.5858 93.36L36.1634 83.0688C34.2194 77.2776 32.1194 71.016 29.9234 64.4808C29.7727 64.0276 29.4316 63.6631 28.9898 63.4824ZM16.6682 78.6912L14.2826 71.1408L15.0914 70.884L17.477 78.4344L16.6682 78.6912ZM18.3242 74.532L16.9322 70.1304L17.741 69.876L19.133 74.2752L18.3242 74.532ZM20.1914 80.1144L18.8018 75.7128L19.6106 75.4584L21.0002 79.8576L20.1914 80.1144ZM20.6714 81.2952L21.4802 81.0384L25.3322 93.2256L24.5234 93.48L20.6714 81.2952ZM25.7114 97.2408L24.8882 94.6368L25.697 94.38L26.5202 96.9864L25.7114 97.2408ZM29.0402 95.8584L28.2314 96.1128L23.1506 80.0328L23.9594 79.7784L29.0402 95.8584ZM23.5442 78.24L22.7354 78.4944L19.7882 69.1752L20.597 68.9184L23.5442 78.24Z" fill="#FF725E"/>
<path opacity="0.3" d="M28.9898 63.4824C28.7719 63.3952 28.5376 63.3568 28.3034 63.3696C28.0677 63.3919 27.8363 63.4485 27.617 63.5376L24.8906 64.4496L19.5626 66.24L9.48257 69.6C9.08489 69.7137 8.74313 69.97 8.52257 70.32C8.30489 70.6627 8.22353 71.0745 8.29457 71.4744C8.33897 71.6724 8.39657 71.8672 8.46737 72.0576L8.66177 72.6384C8.79137 73.0248 8.91857 73.4064 9.04817 73.788C9.55385 75.3064 10.0466 76.7808 10.5266 78.2112C11.4866 81.0672 12.3698 83.7312 13.1834 86.1528C14.801 91.008 16.1138 94.9392 17.0234 97.656C17.4746 99.0144 17.8226 100.068 18.0626 100.776C18.1778 101.134 18.269 101.405 18.329 101.59C18.389 101.774 18.4154 101.868 18.4154 101.868C18.4154 101.868 18.4442 101.964 18.5378 102.132C18.6763 102.382 18.8762 102.593 19.1186 102.744C19.5158 102.99 19.9975 103.06 20.4482 102.936C20.9714 102.768 21.5714 102.557 22.2506 102.331L32.273 98.952L21.5834 65.568L26.9306 63.7752L36.5858 93.36L36.1634 83.0688C34.2194 77.2776 32.1194 71.016 29.9234 64.4808C29.7727 64.0276 29.4316 63.6631 28.9898 63.4824ZM16.6682 78.6912L14.2826 71.1408L15.0914 70.884L17.477 78.4344L16.6682 78.6912ZM18.3242 74.532L16.9322 70.1304L17.741 69.876L19.133 74.2752L18.3242 74.532ZM20.1914 80.1144L18.8018 75.7128L19.6106 75.4584L21.0002 79.8576L20.1914 80.1144ZM20.6714 81.2952L21.4802 81.0384L25.3322 93.2256L24.5234 93.48L20.6714 81.2952ZM25.7114 97.2408L24.8882 94.6368L25.697 94.38L26.5202 96.9864L25.7114 97.2408ZM29.0402 95.8584L28.2314 96.1128L23.1506 80.0328L23.9594 79.7784L29.0402 95.8584ZM23.5442 78.24L22.7354 78.4944L19.7882 69.1752L20.597 68.9184L23.5442 78.24Z" fill="black"/>
<path d="M32.2802 98.9976L32.2682 98.9592L22.2458 102.338C21.5666 102.564 20.9666 102.775 20.4434 102.943C19.9927 103.067 19.511 102.997 19.1138 102.751C18.8714 102.6 18.6715 102.389 18.533 102.139C18.4394 101.971 18.4178 101.873 18.4106 101.875L18.4346 101.945C18.4596 102.013 18.4894 102.08 18.5234 102.144C18.6583 102.4 18.8578 102.616 19.1018 102.77C19.5019 103.027 19.992 103.102 20.4506 102.977C20.9786 102.811 21.5786 102.605 22.2602 102.379L33.7634 98.5392L36.4922 97.6272L36.7562 97.4928L32.2802 98.9976Z" fill="#263238"/>
<path d="M18.3242 101.594C18.2642 101.41 18.173 101.138 18.0578 100.781C17.8178 100.061 17.4698 99.0096 17.0186 97.6608C16.1138 94.944 14.801 91.0128 13.1786 86.1576C12.365 83.7312 11.477 81.072 10.5218 78.216C10.0418 76.7887 9.54903 75.3144 9.04335 73.7928C8.91375 73.4112 8.78655 73.0296 8.65695 72.6432L8.46255 72.0624C8.39175 71.872 8.33415 71.6772 8.28975 71.4792C8.21871 71.0793 8.30007 70.6675 8.51775 70.3248C8.73807 69.9748 9.08007 69.7185 9.47775 69.6048L19.5578 66.2448L24.8858 64.4592L27.6122 63.5472C27.8315 63.4581 28.0629 63.4015 28.2986 63.3792C28.5328 63.3662 28.767 63.4048 28.985 63.492C29.4278 63.6705 29.7705 64.0334 29.9234 64.4856C32.1146 71.0208 34.2146 77.2824 36.1634 83.0736L36.1466 82.6848C34.241 76.992 32.1818 70.8528 30.0386 64.4448C29.8742 63.9602 29.5072 63.5712 29.033 63.3792C28.7992 63.2858 28.5477 63.2448 28.2962 63.2592C28.049 63.2815 27.8066 63.3398 27.5762 63.432L24.8522 64.3464L19.5242 66.132L9.44415 69.5112C9.02247 69.6273 8.65863 69.8947 8.42175 70.2624C8.19063 70.6284 8.10495 71.0676 8.18175 71.4936C8.22759 71.6966 8.28687 71.896 8.35935 72.0912C8.42415 72.2856 8.49135 72.4776 8.55615 72.672C8.68335 73.056 8.81295 73.44 8.94015 73.8192C9.45207 75.3376 9.94743 76.812 10.4258 78.2424L13.1042 86.1744L16.9754 97.6656C17.4362 99.0192 17.7914 100.066 18.0338 100.786C18.1562 101.141 18.2498 101.412 18.3122 101.597L18.4106 101.873C18.4106 101.873 18.3842 101.779 18.3242 101.594Z" fill="#263238"/>
<path d="M23.9538 79.7796L23.146 80.0349L28.2283 96.1132L29.0361 95.8579L23.9538 79.7796Z" fill="#FAFAFA"/>
<path d="M20.5978 68.9177L19.79 69.1731L22.7377 78.4983L23.5455 78.243L20.5978 68.9177Z" fill="#FAFAFA"/>
<path d="M17.7429 69.874L16.9351 70.1294L18.3261 74.53L19.1339 74.2746L17.7429 69.874Z" fill="#FAFAFA"/>
<path d="M14.9358 70.6613L14.1309 70.9154L16.5066 78.4395L17.3115 78.1854L14.9358 70.6613Z" fill="#FAFAFA"/>
<path d="M25.7106 94.3766L24.9028 94.632L25.726 97.2362L26.5338 96.9808L25.7106 94.3766Z" fill="#FAFAFA"/>
<path d="M19.6115 75.4562L18.8037 75.7115L20.1947 80.1121L21.0025 79.8568L19.6115 75.4562Z" fill="#FAFAFA"/>
<path d="M21.4743 81.042L20.6665 81.2974L24.5184 93.4831L25.3262 93.2277L21.4743 81.042Z" fill="#FAFAFA"/>
<path d="M21.5835 65.5679L32.2683 98.9591L32.2803 98.9975L36.7563 97.4975L36.5859 93.3551L26.9307 63.7751L21.5835 65.5679Z" fill="#FAFAFA"/>
<path d="M32.2202 100.992L36.5594 99.4656L36.4658 97.5624L32.2802 98.9976L32.2202 100.992Z" fill="#263238"/>
<path d="M86.9306 45.7465C86.9306 45.7801 86.7962 45.8017 86.6282 45.7945C86.4602 45.7873 86.3306 45.7537 86.333 45.7177C86.3354 45.6817 86.4698 45.6625 86.6354 45.6697C86.801 45.6769 86.933 45.7105 86.9306 45.7465Z" fill="#263238"/>
<path d="M89.28 45.6457C89.0957 45.7234 88.8967 45.7601 88.6968 45.7537C88.5002 45.7897 88.2982 45.7839 88.104 45.7369C88.4851 45.6236 88.8859 45.5926 89.28 45.6457Z" fill="#263238"/>
<path d="M91.608 45.2305C91.435 45.331 91.243 45.3939 91.044 45.4153C90.8535 45.476 90.6526 45.4971 90.4536 45.4777C90.8172 45.3171 91.2106 45.2353 91.608 45.2377V45.2305Z" fill="#263238"/>
<path d="M93.852 44.5128C93.694 44.6343 93.5126 44.7219 93.3192 44.7696C93.1392 44.8563 92.9428 44.9035 92.7432 44.9088C92.9006 44.7864 93.082 44.6988 93.276 44.652C93.4569 44.5678 93.6525 44.5205 93.852 44.5128Z" fill="#263238"/>
<path d="M95.981 43.4977C95.8406 43.6395 95.6721 43.7506 95.4866 43.8241C95.3195 43.934 95.1316 44.0084 94.9346 44.0425C95.0755 43.9006 95.2437 43.7886 95.429 43.7137C95.596 43.6042 95.7839 43.5306 95.981 43.4977Z" fill="#263238"/>
<path d="M97.9418 42.1897C97.9634 42.2161 97.7666 42.3937 97.5002 42.5857C97.3517 42.7191 97.1767 42.8197 96.9866 42.8809C96.9674 42.8521 97.1643 42.6745 97.4283 42.4825C97.6923 42.2905 97.9202 42.1609 97.9418 42.1897Z" fill="#263238"/>
<path d="M99.6746 40.5913C99.701 40.6153 99.533 40.8313 99.3026 41.0521C99.0722 41.2729 98.8634 41.4505 98.8418 41.4241C98.8202 41.3977 98.9834 41.1841 99.2138 40.9633C99.4442 40.7425 99.6482 40.5601 99.6746 40.5913Z" fill="#263238"/>
<path d="M101.108 38.7216C101.139 38.7384 101.009 38.9616 100.822 39.24C100.635 39.5184 100.46 39.72 100.433 39.6888C100.492 39.4978 100.589 39.3206 100.719 39.168C100.906 38.904 101.079 38.7024 101.108 38.7216Z" fill="#263238"/>
<path d="M102.164 36.6145C102.082 37.0043 101.918 37.3724 101.684 37.6945C101.703 37.4963 101.764 37.3043 101.861 37.1305C101.925 36.9392 102.028 36.7635 102.164 36.6145Z" fill="#263238"/>
<path d="M102.787 34.3441C102.805 34.5428 102.781 34.743 102.718 34.9321C102.694 35.1308 102.629 35.3221 102.526 35.4937C102.531 35.0963 102.62 34.7044 102.787 34.3441Z" fill="#263238"/>
<path d="M103.027 31.9993C103.088 32.3921 103.062 32.7932 102.953 33.1753C102.904 32.9823 102.896 32.7812 102.929 32.5849C102.922 32.3849 102.955 32.1857 103.027 31.9993Z" fill="#263238"/>
<path d="M102.91 29.6472C103.029 30.0264 103.064 30.4267 103.013 30.8208C102.937 30.6367 102.898 30.4392 102.9 30.24C102.863 30.0439 102.866 29.8421 102.91 29.6472Z" fill="#263238"/>
<path d="M102.432 27.3385C102.539 27.5077 102.608 27.6975 102.636 27.8953C102.704 28.0835 102.732 28.2839 102.718 28.4833C102.613 28.3136 102.543 28.124 102.514 27.9265C102.447 27.7381 102.419 27.5379 102.432 27.3385Z" fill="#263238"/>
<path d="M101.578 25.1425C101.711 25.291 101.811 25.466 101.873 25.6561C101.972 25.8298 102.034 26.023 102.053 26.2225C101.921 26.0717 101.821 25.8963 101.758 25.7065C101.659 25.5329 101.598 25.3409 101.578 25.1425Z" fill="#263238"/>
<path d="M100.32 23.1481C100.347 23.1265 100.52 23.3257 100.709 23.5945C100.839 23.7459 100.936 23.9223 100.995 24.1129C100.966 24.1321 100.791 23.9305 100.606 23.6665C100.476 23.515 100.379 23.3386 100.32 23.1481Z" fill="#263238"/>
<path d="M98.6858 21.4584C98.7074 21.432 98.9258 21.576 99.1658 21.7992C99.4058 22.0224 99.569 22.2336 99.545 22.2576C99.521 22.2816 99.3194 22.1112 99.0818 21.8904C98.8442 21.6696 98.6642 21.4848 98.6858 21.4584Z" fill="#263238"/>
<path d="M97.2196 20.4456C97.2364 20.4168 97.366 20.4624 97.5076 20.5488C97.6492 20.6352 97.7476 20.7288 97.7308 20.7576C97.714 20.7864 97.582 20.7408 97.4428 20.6568C97.3036 20.5728 97.2004 20.4768 97.2196 20.4456Z" fill="#263238"/>
<path d="M90.7106 26.3737C95.302 26.3737 99.0242 22.6515 99.0242 18.0601C99.0242 13.4686 95.302 9.74646 90.7106 9.74646C86.1191 9.74646 82.397 13.4686 82.397 18.0601C82.397 22.6515 86.1191 26.3737 90.7106 26.3737Z" fill="#FF725E"/>
<path d="M85.793 18.6673L87.0794 17.3809L89.561 19.5865L94.433 14.8993L95.6282 16.1857L89.3786 22.0681L85.793 18.6673Z" fill="#FAFAFA"/>
<path d="M95.5606 54.3072L94.3366 49.8216C94.3366 49.8216 88.5766 51.3216 88.2094 50.856C86.119 48.2712 85.063 44.7192 84.7342 43.4448C84.7798 43.2624 84.8422 43.0488 84.9262 42.7992C84.9992 42.5856 85.1079 42.3859 85.2478 42.2088C85.4127 41.983 85.6083 41.7809 85.8286 41.6088C85.9534 41.5385 85.9973 41.3803 85.927 41.2558C85.8898 41.19 85.826 41.1437 85.7518 41.1288C85.5118 41.112 84.907 41.4768 84.4534 42.1704C83.9998 42.864 83.863 41.568 83.8054 41.0976C83.7478 40.6272 83.4958 39.1776 83.3374 39.0744C83.0974 38.9328 82.9078 39.156 82.9774 39.6264C83.047 40.0968 83.155 41.5224 82.9054 41.5464C82.6558 41.5704 82.3918 39.1464 82.3918 39.1464C82.3918 39.1464 82.4182 38.6232 82.1278 38.6352C81.6022 38.6568 82.075 41.196 82.1278 41.4384C82.1638 41.604 81.8878 41.6352 81.8638 41.4528C81.8398 41.2704 81.6526 39.0528 81.1198 39.0528C80.7094 39.0672 81.487 41.1456 81.2686 41.628C81.0502 42.1104 80.839 39.9912 80.4478 40.02C80.3038 40.02 80.1958 40.0584 80.4934 41.2584C80.7442 42.1138 81.0406 42.955 81.3814 43.7784H81.3598C81.3598 43.7784 83.4958 56.3112 89.0398 55.6104C94.9414 54.8808 95.5606 54.3072 95.5606 54.3072Z" fill="#FFBE9D"/>
<path d="M87.1966 66.7416L52.0198 64.1808C51.0229 64.1119 50.2705 63.2477 50.3393 62.2507C50.3396 62.2486 50.3396 62.2462 50.3398 62.244L51.9142 40.632C51.9831 39.635 52.8473 38.8826 53.8443 38.9515C53.8465 38.9518 53.8489 38.9518 53.851 38.952L89.0398 41.52C90.038 41.5903 90.7904 42.4567 90.7198 43.4549C90.7198 43.4556 90.7198 43.4561 90.7198 43.4568L89.1454 65.0688C89.0744 66.0643 88.2099 66.8138 87.2144 66.743C87.2084 66.7426 87.2026 66.7421 87.1966 66.7416Z" fill="#FF725E"/>
<path d="M87.1966 66.7416C87.3036 66.7476 87.4111 66.7476 87.5182 66.7416C87.833 66.7075 88.1328 66.5899 88.387 66.4008C88.8019 66.0934 89.0643 65.6217 89.107 65.1072C89.1502 64.4976 89.2006 63.7944 89.2558 63.0048L90.2158 49.62C90.3166 48.2071 90.4229 46.728 90.535 45.1824C90.5638 44.7984 90.5902 44.4072 90.619 44.016C90.6478 43.6248 90.715 43.2216 90.5902 42.8472C90.4819 42.4646 90.2443 42.1313 89.9182 41.904C89.7547 41.7883 89.5731 41.7007 89.3806 41.6448C89.1821 41.5987 88.9795 41.5721 88.7758 41.5656L78.1654 40.8L53.8558 39.0216C53.329 38.9837 52.813 39.1858 52.4518 39.5712C52.2737 39.7608 52.1407 39.9878 52.063 40.236C51.9955 40.4899 51.9603 40.751 51.9574 41.0136C51.8775 42.0792 51.7973 43.1369 51.7174 44.1864C51.5573 46.2871 51.407 48.3545 51.2662 50.388C50.9686 54.4536 50.6806 58.3776 50.407 62.112C50.3438 62.5656 50.4574 63.0259 50.7238 63.3984C50.9861 63.7651 51.3799 64.0161 51.823 64.0992C52.7182 64.188 53.6254 64.236 54.5086 64.308L59.6566 64.6848L68.9014 65.3664L82.2838 66.36L85.9198 66.6384L86.8798 66.72L87.2014 66.7488C87.2014 66.7488 87.0934 66.7488 86.8798 66.732L85.9198 66.6696L82.2814 66.4176L68.8942 65.4576L59.6566 64.8L54.5062 64.428C53.6206 64.3584 52.7302 64.3128 51.8086 64.2216C51.3367 64.1342 50.917 63.8676 50.6374 63.4776C50.3571 63.0828 50.2361 62.5968 50.299 62.1168C50.5702 58.38 50.8558 54.4584 51.151 50.3904C51.2981 48.3569 51.4478 46.2895 51.5998 44.1888C51.6766 43.1376 51.7565 42.0799 51.8398 41.016C51.8438 40.7438 51.8808 40.4729 51.9502 40.2096C52.2123 39.384 53.0064 38.8459 53.8702 38.9088L78.1798 40.6848L88.7878 41.4624C88.998 41.4703 89.207 41.4984 89.4118 41.5464C89.6153 41.605 89.8078 41.6976 89.9806 41.82C90.3274 42.061 90.5813 42.4133 90.7006 42.8184C90.7582 43.0162 90.7817 43.2223 90.7702 43.428C90.7702 43.6296 90.7438 43.824 90.7294 44.0232C90.7006 44.4144 90.6718 44.8056 90.643 45.1896C90.5309 46.7321 90.4222 48.2105 90.3166 49.6248C89.8966 55.2744 89.5558 59.8464 89.3206 63.0096C89.2613 63.7985 89.2085 64.4983 89.1622 65.1096C89.1147 65.6345 88.8415 66.1125 88.4134 66.42C88.1556 66.6091 87.8511 66.7243 87.5326 66.7536C87.4526 66.7601 87.3725 66.7601 87.2926 66.7536L87.1966 66.7416Z" fill="#263238"/>
<path d="M54.3187 55.2L54.1627 57.36L53.9419 57.3432L54.0835 55.3872L53.5771 55.3512L53.5915 55.1544L54.3187 55.2Z" fill="#FAFAFA"/>
<path d="M56.3999 57.324L56.3831 57.5208L54.8735 57.4104V57.2544L55.8335 56.4432C56.0927 56.22 56.1503 56.0808 56.1599 55.932C56.1791 55.692 56.0135 55.5168 55.6799 55.4928C55.4587 55.4609 55.2352 55.5336 55.0751 55.6896L54.9287 55.5432C55.1392 55.3455 55.4275 55.2528 55.7135 55.2912C56.1503 55.3224 56.4119 55.5648 56.3855 55.9248C56.3543 56.19 56.2065 56.4276 55.9823 56.5728L55.1999 57.2376L56.3999 57.324Z" fill="#FAFAFA"/>
<path d="M58.6846 57.12L58.255 57.0888L58.2118 57.6552L57.991 57.6384L58.0318 57.072L56.8174 56.9856V56.8248L58.063 55.4808L58.303 55.4976L57.103 56.808L58.039 56.8776L58.075 56.3784L58.291 56.3928L58.255 56.892L58.6846 56.9232V57.12Z" fill="#FAFAFA"/>
<path d="M61.9844 57.36L61.5548 57.3288L61.5116 57.8952L61.2908 57.8784L61.3316 57.3144L60.1172 57.2256V57.0648L61.3628 55.7208L61.6028 55.74L60.4028 57.048L61.3388 57.1176L61.3748 56.6184L61.5908 56.6352L61.5524 57.132L61.9844 57.1632V57.36Z" fill="#FAFAFA"/>
<path d="M63.8712 57.4296C63.8448 57.7968 63.5688 58.0632 63.0432 58.0248C62.759 58.0147 62.49 57.8952 62.292 57.6912L62.412 57.5256C62.5795 57.7049 62.8102 57.8116 63.0552 57.8232C63.42 57.8496 63.6264 57.684 63.6456 57.4224C63.6648 57.1608 63.5064 56.9616 62.9592 56.9208L62.5008 56.8872L62.6904 55.8168L63.8688 55.9032L63.8544 56.1L62.8704 56.028L62.7456 56.7072L63.024 56.7288C63.672 56.7744 63.9 57.048 63.8712 57.4296Z" fill="#FAFAFA"/>
<path d="M65.9999 57.576C65.9694 57.9458 65.6447 58.2209 65.2748 58.1904C65.2556 58.1887 65.2364 58.1863 65.2175 58.1832C64.6439 58.1424 64.3631 57.7224 64.4135 57.0432C64.4663 56.3112 64.8935 55.9584 65.4791 56.0016C65.6572 56.0069 65.8302 56.0599 65.9807 56.1552L65.8775 56.328C65.7563 56.2452 65.6137 56.1993 65.4671 56.196C65.0015 56.1624 64.6823 56.436 64.6391 57.0216C64.6391 57.072 64.6391 57.1344 64.6391 57.1992C64.7821 56.9647 65.0512 56.8382 65.3231 56.8776C65.6833 56.8634 65.9869 57.144 66.0011 57.5042C66.002 57.5282 66.0016 57.5522 65.9999 57.576ZM65.7815 57.576C65.8031 57.2928 65.6063 57.096 65.2751 57.072C65.0041 57.0209 64.743 57.1992 64.6919 57.4699C64.69 57.4805 64.6883 57.491 64.6868 57.5016C64.6676 57.7416 64.85 57.9816 65.222 58.0056C65.4834 58.05 65.7313 57.8741 65.7757 57.6127C65.7784 57.5973 65.7803 57.582 65.7812 57.5664V57.576H65.7815Z" fill="#FAFAFA"/>
<path d="M68.9444 57.816C68.918 58.176 68.6372 58.4328 68.1164 58.3944C67.8318 58.3838 67.562 58.2646 67.3628 58.0608L67.4828 57.8952C67.6525 58.074 67.8846 58.1806 68.1308 58.1928C68.4884 58.2168 68.6972 58.0656 68.7164 57.7992C68.7356 57.5328 68.5652 57.3576 68.1668 57.3192L68.0132 57.3072L68.0252 57.144L68.6756 56.4408L67.574 56.3616L67.5884 56.1648L68.9732 56.2656L68.9612 56.4216L68.2964 57.1416C68.7572 57.2112 68.9684 57.4704 68.9444 57.816Z" fill="#FAFAFA"/>
<path d="M71.1048 57.948C71.0772 58.3181 70.7546 58.5958 70.3845 58.568C70.3629 58.5663 70.3413 58.5636 70.32 58.56C69.7488 58.5192 69.4656 58.0992 69.516 57.42C69.5688 56.7 69.996 56.3352 70.5816 56.3784C70.7594 56.3837 70.9327 56.4368 71.0832 56.532L70.98 56.7048C70.8593 56.6211 70.7165 56.575 70.5696 56.5728C70.104 56.5392 69.7848 56.8128 69.7416 57.3984C69.7416 57.4488 69.7416 57.5088 69.7416 57.576C69.8846 57.3416 70.1537 57.2151 70.4256 57.2544C70.7858 57.2391 71.0901 57.5187 71.1055 57.8789C71.1065 57.902 71.1062 57.925 71.1048 57.948ZM70.8864 57.948C70.908 57.6648 70.7112 57.468 70.38 57.444C70.109 57.3929 69.8479 57.571 69.7968 57.842C69.7949 57.8525 69.7932 57.8628 69.7917 57.8736C69.7725 58.1136 69.9549 58.3536 70.3269 58.3776C70.5883 58.422 70.8362 58.2461 70.8806 57.9848C70.8833 57.9694 70.8852 57.954 70.8861 57.9384L70.8864 57.948Z" fill="#FAFAFA"/>
<path d="M73.2 56.5824L73.188 56.7384L72.1416 58.6584L71.9016 58.6416L72.9312 56.7504L71.8248 56.6688L71.7936 57.072L71.5752 57.0576L71.6208 56.4576L73.2 56.5824Z" fill="#FAFAFA"/>
<path d="M76.2742 56.8056L76.2622 56.964L75.2158 58.884L74.9758 58.8672L76.003 56.976L74.8966 56.8944L74.8678 57.2976L74.6494 57.2808L74.6926 56.6808L76.2742 56.8056Z" fill="#FAFAFA"/>
<path d="M78.2783 58.5143C78.2519 58.8959 77.9111 59.1071 77.3975 59.0711C76.8839 59.0351 76.5839 58.7735 76.6127 58.3919C76.6286 58.1399 76.817 57.9326 77.0663 57.8927C76.8643 57.8147 76.7395 57.6112 76.7615 57.3959C76.7879 57.0455 77.1023 56.8487 77.5583 56.8799C78.0143 56.9111 78.3023 57.1559 78.2783 57.5063C78.2678 57.724 78.1123 57.9071 77.8991 57.9527C78.1408 58.0291 78.2978 58.2619 78.2783 58.5143ZM78.0527 58.4951C78.0719 58.2287 77.8559 58.0463 77.4743 58.0151C77.0927 57.9839 76.8575 58.1351 76.8383 58.4015C76.8191 58.6679 77.0303 58.8503 77.4119 58.8815C77.7935 58.9127 78.0335 58.7615 78.0527 58.4951ZM77.4863 57.8399C77.8223 57.8639 78.0335 57.7271 78.0503 57.4943C78.0671 57.2615 77.8655 57.0863 77.5439 57.0647C77.2223 57.0431 77.0015 57.1727 76.9847 57.4127C76.9679 57.6527 77.1527 57.8183 77.4863 57.8399Z" fill="#FAFAFA"/>
<path d="M80.3998 58.1712C80.347 58.9032 79.9198 59.256 79.3342 59.2128C79.1564 59.2068 78.9833 59.1538 78.8326 59.0592L78.9334 58.8864C79.0556 58.9692 79.1988 59.015 79.3462 59.0184C79.8094 59.052 80.1286 58.7784 80.1718 58.1904C80.1718 58.1424 80.1718 58.08 80.1718 58.0152C80.0273 58.2494 79.7578 58.3759 79.4854 58.3368C79.1252 58.3522 78.8206 58.0728 78.8052 57.7126C78.8043 57.6878 78.8045 57.6631 78.8062 57.6384C78.8381 57.2674 79.1648 56.9923 79.5358 57.0242C79.5543 57.0259 79.5728 57.0281 79.591 57.0312C80.1742 57.072 80.455 57.492 80.3998 58.1712ZM80.1262 57.72C80.143 57.48 79.963 57.24 79.591 57.2184C79.3297 57.1735 79.0815 57.349 79.0369 57.6103C79.0347 57.6228 79.033 57.6353 79.0318 57.648C79.0102 57.9312 79.207 58.128 79.5382 58.152C79.8085 58.207 80.072 58.0322 80.1267 57.762C80.1296 57.7481 80.1317 57.7339 80.1334 57.72H80.1262Z" fill="#FAFAFA"/>
<path d="M69.9919 60.1154L69.9238 61.0514L87.1709 62.3051L87.2389 61.3691L69.9919 60.1154Z" fill="#FAFAFA"/>
<path d="M78.2659 62.5994L78.1978 63.5354L87.0427 64.1792L87.1108 63.2433L78.2659 62.5994Z" fill="#FAFAFA"/>
<path d="M54.713 47.9462L59.5744 48.3007C60.2301 48.3484 60.7228 48.9187 60.6751 49.5744L60.454 52.6046C60.4063 53.2603 59.836 53.753 59.1801 53.7052L54.3187 53.3508C53.663 53.303 53.1703 52.7328 53.218 52.0771L53.4391 49.0468C53.4871 48.3912 54.0573 47.8984 54.713 47.9462Z" fill="#455A64"/>
<path d="M53.2437 51.7656L53.2701 51.42L56.9948 51.6912C57.4247 51.7356 57.8089 51.4228 57.8533 50.993C57.8975 50.5632 57.585 50.1789 57.1552 50.1345C57.1393 50.1328 57.1235 50.1319 57.1077 50.1312L53.3828 49.86L53.4069 49.512L57.1341 49.7832C57.7549 49.8494 58.2045 50.4062 58.1382 51.0271C58.0751 51.6182 57.5649 52.0596 56.9709 52.0368L53.2437 51.7656Z" fill="#FF725E"/>
<path d="M58.0183 50.8052L57.9927 51.1522L60.549 51.3409L60.5746 50.9938L58.0183 50.8052Z" fill="#FF725E"/>
<path d="M54.7062 43.4659L54.5898 45.0625L73.2013 46.4191L73.3177 44.8224L54.7062 43.4659Z" fill="#FAFAFA"/>
<path d="M97.7949 39.264C97.2981 40.092 97.3485 41.1312 97.4877 42.0888C97.6269 43.0464 97.8429 44.0232 97.6293 44.9688C97.4877 45.5904 97.1493 46.212 97.3125 46.8288C97.4205 47.268 97.7493 47.6136 97.9125 48.0288C98.1525 48.6288 98.0157 49.296 97.9365 49.9344C97.8573 50.5728 97.8621 51.2856 98.2845 51.768C98.8101 52.368 99.7773 52.3416 100.497 52.008C101.217 51.6744 101.789 51.0816 102.456 50.6472C103.123 50.2128 103.992 49.9272 104.709 50.2728C105.041 50.4312 105.326 50.7144 105.691 50.7528C106.202 50.7912 106.605 50.3232 107.1 50.1864C107.525 50.0712 107.978 50.2128 108.415 50.1624C109.305 50.064 109.963 49.104 109.838 48.2184C109.667 47.3124 108.944 46.6121 108.033 46.4688C107.657 46.4064 107.203 46.3968 106.997 46.0752C106.689 45.5952 107.237 44.9928 107.133 44.4384C107.066 44.04 106.687 43.7736 106.315 43.6104C105.943 43.4472 105.533 43.3392 105.245 43.056C104.729 42.552 104.786 41.7264 104.628 41.0208C104.366 39.8592 103.279 37.4808 100.913 37.248" fill="#263238"/>
<path d="M96.6983 105.36L96.7439 103.666L99.9191 103.73L99.8783 106.21H99.6815C98.8055 106.241 95.2199 106.306 94.6415 106.116C93.9887 105.912 96.6983 105.36 96.6983 105.36Z" fill="#FF725E"/>
<path d="M98.7285 106.159C98.7801 105.893 98.9289 105.655 99.1461 105.492C99.3588 105.328 99.6254 105.251 99.8925 105.276L99.8757 106.162L98.7285 106.159Z" fill="#FF725E"/>
<path d="M95.3733 105.674C95.3733 105.674 94.4132 105.929 94.538 106.087C94.6628 106.246 98.2772 106.327 99.878 106.207V106.138L95.6516 106.09C95.6516 106.09 95.5581 105.686 95.3733 105.674Z" fill="#FF725E"/>
<path d="M99.9237 106.135H99.8685H99.7125L99.1365 106.15C98.6565 106.15 97.9749 106.15 97.2309 106.15C96.4869 106.15 95.8125 106.109 95.3253 106.082L94.7493 106.046L94.5933 106.034H94.7493L95.3277 106.056C95.8077 106.075 96.4869 106.099 97.2309 106.114C97.9749 106.128 98.6469 106.13 99.1341 106.128H99.9237V106.135Z" fill="#263238"/>
<path d="M95.6473 106.14C95.6233 106.044 95.5885 105.95 95.5441 105.862C95.4884 105.78 95.4241 105.704 95.3521 105.636C95.4502 105.675 95.5304 105.748 95.5777 105.842C95.636 105.93 95.6607 106.036 95.6473 106.14Z" fill="#263238"/>
<path d="M96.5928 105.682C96.5928 105.682 96.54 105.631 96.4944 105.559C96.4488 105.487 96.42 105.42 96.4296 105.415C96.4392 105.41 96.4824 105.466 96.528 105.538C96.5736 105.61 96.6024 105.677 96.5928 105.682Z" fill="#263238"/>
<path d="M96.8521 105.552C96.8521 105.552 96.7969 105.526 96.7417 105.475C96.6865 105.425 96.6505 105.377 96.6577 105.37C96.6649 105.362 96.7153 105.396 96.7681 105.446C96.8209 105.497 96.8593 105.545 96.8521 105.552Z" fill="#263238"/>
<path d="M97.0197 105.254C97.0197 105.266 96.9453 105.274 96.8541 105.274C96.7629 105.274 96.6885 105.274 96.6885 105.252C96.7418 105.234 96.7984 105.228 96.8541 105.235C96.91 105.23 96.9664 105.236 97.0197 105.254Z" fill="#263238"/>
<path d="M97.08 105.046C97.025 105.081 96.9604 105.098 96.8952 105.096C96.8301 105.106 96.7636 105.095 96.7056 105.065C96.768 105.06 96.8304 105.06 96.8928 105.065C96.9542 105.051 97.0171 105.044 97.08 105.046Z" fill="#263238"/>
<path d="M96.4799 105.403C96.4124 105.415 96.3433 105.415 96.2759 105.403C96.2024 105.392 96.1302 105.374 96.0599 105.35C96.0174 105.337 95.9764 105.319 95.9375 105.298C95.9135 105.283 95.8955 105.26 95.8871 105.233C95.8813 105.201 95.8945 105.169 95.9207 105.151C96.0834 105.077 96.2759 105.127 96.3815 105.271C96.4124 105.312 96.4336 105.358 96.4439 105.408C96.4439 105.442 96.4439 105.463 96.4439 105.463C96.4249 105.4 96.3949 105.341 96.3551 105.288C96.3104 105.233 96.2502 105.192 96.1823 105.17C96.1038 105.143 96.0176 105.147 95.9423 105.182C95.9087 105.206 95.9207 105.245 95.9567 105.266C95.9927 105.287 96.0304 105.304 96.0695 105.317C96.1374 105.342 96.2072 105.362 96.2783 105.377C96.4127 105.396 96.4799 105.396 96.4799 105.403Z" fill="#263238"/>
<path d="M96.4368 105.413C96.4135 105.369 96.4068 105.319 96.4176 105.271C96.4248 105.216 96.4462 105.164 96.48 105.12C96.5158 105.058 96.5815 105.02 96.6528 105.019C96.6946 105.031 96.7207 105.073 96.7128 105.115C96.7068 105.147 96.6946 105.177 96.6768 105.204C96.6487 105.248 96.6159 105.29 96.5784 105.326C96.5455 105.363 96.5043 105.391 96.4584 105.408C96.4584 105.408 96.5016 105.372 96.5592 105.307C96.5926 105.271 96.6216 105.23 96.6456 105.187C96.6744 105.144 96.696 105.067 96.6456 105.058C96.5952 105.048 96.54 105.101 96.5088 105.142C96.4786 105.18 96.4579 105.225 96.4488 105.274C96.4414 105.32 96.4373 105.366 96.4368 105.413Z" fill="#263238"/>
<path d="M99.8759 105.266C99.8759 105.266 99.7871 105.254 99.6359 105.266C99.2528 105.301 98.924 105.553 98.7911 105.914C98.7407 106.049 98.7335 106.14 98.7263 106.14C98.7234 106.118 98.7234 106.097 98.7263 106.075C98.7863 105.614 99.1686 105.262 99.6335 105.24C99.6911 105.236 99.7487 105.236 99.8063 105.24C99.8543 105.257 99.8783 105.264 99.8759 105.266Z" fill="#263238"/>
<path d="M99.5736 103.939C99.5919 104.156 99.5967 104.374 99.588 104.592C99.5938 104.809 99.5859 105.026 99.564 105.242C99.5472 105.026 99.5424 104.809 99.5496 104.592C99.5453 104.374 99.5532 104.156 99.5736 103.939Z" fill="#263238"/>
<path d="M98.3351 105.84C98.1822 105.873 98.0255 105.885 97.8695 105.876C97.7137 105.88 97.5582 105.865 97.4062 105.83C97.4062 105.818 97.6151 105.83 97.8719 105.83C98.1287 105.83 98.3327 105.84 98.3351 105.84Z" fill="#263238"/>
<path d="M98.9568 105.854C98.9568 105.854 98.94 105.898 98.916 105.943C98.892 105.989 98.8824 106.034 98.8704 106.032C98.8584 106.03 98.856 105.982 98.8824 105.929C98.9088 105.876 98.9496 105.84 98.9568 105.854Z" fill="#263238"/>
<path d="M99.1967 105.566C99.1967 105.566 99.1823 105.607 99.1487 105.638C99.1151 105.67 99.0839 105.691 99.0767 105.684C99.0695 105.677 99.0887 105.643 99.1223 105.612C99.1559 105.581 99.1895 105.559 99.1967 105.566Z" fill="#263238"/>
<path d="M99.5352 105.439C99.5352 105.451 99.4896 105.439 99.444 105.466C99.3984 105.492 99.3624 105.504 99.3552 105.497C99.348 105.49 99.3744 105.446 99.432 105.427C99.4896 105.408 99.5376 105.43 99.5352 105.439Z" fill="#263238"/>
<path d="M99.7749 105.382C99.7749 105.382 99.7605 105.408 99.7341 105.418C99.7077 105.427 99.6813 105.418 99.6789 105.418C99.6765 105.418 99.6933 105.391 99.7197 105.382C99.7461 105.372 99.7701 105.372 99.7749 105.382Z" fill="#263238"/>
<path d="M105.705 105.36L105.751 103.666L108.924 103.73L108.883 106.21H108.686C107.81 106.241 104.227 106.306 103.646 106.116C102.996 105.912 105.705 105.36 105.705 105.36Z" fill="#FF725E"/>
<path d="M107.733 106.159C107.786 105.893 107.936 105.655 108.153 105.492C108.366 105.328 108.633 105.251 108.9 105.276L108.881 106.162L107.733 106.159Z" fill="#FF725E"/>
<path d="M104.381 105.674C104.381 105.674 103.421 105.929 103.543 106.087C103.665 106.246 107.282 106.327 108.883 106.207V106.138L104.654 106.09C104.654 106.09 104.565 105.686 104.381 105.674Z" fill="#FF725E"/>
<path d="M108.931 106.135H108.876H108.72L108.141 106.15C107.661 106.15 106.98 106.15 106.236 106.15C105.492 106.15 104.817 106.109 104.333 106.082L103.754 106.046L103.598 106.034H103.757L104.333 106.056C104.813 106.075 105.492 106.099 106.236 106.114C106.98 106.128 107.654 106.13 108.141 106.128H108.931V106.135Z" fill="#263238"/>
<path d="M104.652 106.14C104.629 106.044 104.595 105.95 104.551 105.862C104.495 105.78 104.431 105.704 104.359 105.636C104.552 105.726 104.669 105.927 104.652 106.14Z" fill="#263238"/>
<path d="M105.6 105.682C105.6 105.682 105.547 105.631 105.504 105.559C105.461 105.487 105.43 105.42 105.439 105.415C105.449 105.41 105.492 105.466 105.535 105.538C105.578 105.61 105.6 105.677 105.6 105.682Z" fill="#263238"/>
<path d="M105.859 105.552C105.859 105.552 105.801 105.526 105.748 105.475C105.696 105.425 105.657 105.377 105.664 105.37C105.672 105.362 105.72 105.396 105.775 105.446C105.83 105.497 105.866 105.545 105.859 105.552Z" fill="#263238"/>
<path d="M106.027 105.254C106.027 105.266 105.953 105.274 105.861 105.274C105.77 105.274 105.696 105.274 105.696 105.252C105.749 105.234 105.806 105.228 105.861 105.235C105.917 105.23 105.974 105.236 106.027 105.254Z" fill="#263238"/>
<path d="M106.08 105.046C106.024 105.08 105.959 105.098 105.893 105.096C105.828 105.106 105.761 105.095 105.703 105.065C105.766 105.06 105.828 105.06 105.89 105.065C105.952 105.051 106.016 105.044 106.08 105.046Z" fill="#263238"/>
<path d="M105.497 105.403C105.429 105.415 105.36 105.415 105.293 105.403C105.219 105.392 105.147 105.374 105.077 105.35C105.033 105.337 104.992 105.32 104.952 105.298C104.928 105.283 104.911 105.26 104.904 105.233C104.899 105.202 104.911 105.171 104.935 105.151C105.098 105.076 105.291 105.126 105.396 105.271C105.427 105.312 105.45 105.358 105.461 105.408C105.465 105.426 105.465 105.445 105.461 105.463C105.441 105.4 105.411 105.34 105.37 105.288C105.325 105.233 105.266 105.192 105.199 105.17C105.121 105.143 105.035 105.148 104.959 105.182C104.928 105.206 104.94 105.245 104.974 105.266C105.01 105.287 105.049 105.304 105.089 105.317C105.157 105.343 105.226 105.363 105.298 105.377C105.418 105.396 105.497 105.396 105.497 105.403Z" fill="#263238"/>
<path d="M105.444 105.413C105.419 105.37 105.411 105.319 105.422 105.271C105.431 105.218 105.451 105.167 105.482 105.122C105.518 105.061 105.582 105.023 105.653 105.022C105.696 105.032 105.723 105.074 105.715 105.118C105.71 105.15 105.697 105.18 105.677 105.206C105.65 105.251 105.617 105.293 105.578 105.329C105.546 105.365 105.506 105.393 105.461 105.41C105.461 105.41 105.502 105.374 105.559 105.31C105.593 105.273 105.623 105.233 105.648 105.19C105.677 105.146 105.696 105.07 105.648 105.06C105.6 105.05 105.545 105.103 105.511 105.144C105.483 105.184 105.462 105.228 105.451 105.276C105.444 105.321 105.442 105.367 105.444 105.413Z" fill="#263238"/>
<path d="M108.883 105.266C108.883 105.266 108.792 105.254 108.643 105.266C108.456 105.286 108.278 105.355 108.127 105.468C107.98 105.585 107.866 105.739 107.798 105.914C107.748 106.049 107.741 106.14 107.734 106.14C107.73 106.119 107.73 106.097 107.734 106.075C107.74 106.017 107.753 105.96 107.772 105.905C107.894 105.524 108.24 105.26 108.638 105.24C108.697 105.236 108.755 105.236 108.814 105.24C108.838 105.244 108.862 105.253 108.883 105.266Z" fill="#263238"/>
<path d="M108.58 103.939C108.597 104.156 108.602 104.374 108.595 104.592C108.599 104.809 108.591 105.026 108.571 105.242C108.553 105.026 108.548 104.809 108.556 104.592C108.551 104.374 108.559 104.156 108.58 103.939Z" fill="#263238"/>
<path d="M107.34 105.84C107.188 105.873 107.032 105.885 106.877 105.876C106.721 105.881 106.565 105.865 106.414 105.83C106.414 105.818 106.622 105.83 106.877 105.83C107.131 105.83 107.34 105.84 107.34 105.84Z" fill="#263238"/>
<path d="M107.961 105.854C107.961 105.854 107.944 105.898 107.923 105.943C107.901 105.989 107.887 106.034 107.877 106.032C107.868 106.03 107.863 105.982 107.877 105.929C107.892 105.876 107.956 105.84 107.961 105.854Z" fill="#263238"/>
<path d="M108.204 105.566C108.204 105.566 108.189 105.607 108.156 105.638C108.122 105.67 108.089 105.691 108.081 105.684C108.074 105.677 108.096 105.643 108.129 105.612C108.163 105.581 108.194 105.559 108.204 105.566Z" fill="#263238"/>
<path d="M108.54 105.439C108.54 105.451 108.497 105.439 108.449 105.466C108.401 105.492 108.369 105.504 108.36 105.497C108.35 105.49 108.379 105.446 108.437 105.427C108.494 105.408 108.545 105.43 108.54 105.439Z" fill="#263238"/>
<path d="M108.78 105.382C108.78 105.382 108.765 105.408 108.739 105.418C108.713 105.427 108.689 105.418 108.684 105.418C108.679 105.418 108.701 105.391 108.727 105.382C108.753 105.372 108.777 105.372 108.78 105.382Z" fill="#263238"/>
<path d="M96.0572 61.812L94.5356 84.4944V104.95H100.617C100.617 104.95 100.874 87.3096 100.713 86.1552C100.713 86.1552 101.707 68.4864 101.82 68.7384C102.06 69.2544 102.045 84.2736 102.386 86.1336C102.727 87.9936 104.306 104.95 104.306 104.95H110.16L108.192 85.5096C108.151 83.1672 107.548 62.5968 107.548 62.5968L96.0572 61.812Z" fill="#263238"/>
<path d="M110.028 103.788C109.962 103.835 109.883 103.863 109.802 103.867C109.582 103.886 109.361 103.85 109.159 103.762C108.878 103.623 108.583 103.517 108.278 103.445C107.935 103.394 107.578 103.574 107.237 103.802C106.923 104.05 106.556 104.219 106.164 104.297C105.839 104.328 105.512 104.288 105.204 104.179C104.999 104.112 104.799 104.032 104.604 103.939C104.53 103.911 104.461 103.871 104.4 103.822C104.4 103.8 104.714 103.946 105.228 104.1C105.526 104.191 105.84 104.221 106.15 104.186C106.522 104.107 106.871 103.943 107.17 103.706C107.34 103.591 107.522 103.493 107.712 103.414C107.896 103.34 108.096 103.316 108.293 103.342C108.608 103.415 108.913 103.529 109.2 103.68C109.389 103.77 109.595 103.817 109.805 103.817C109.946 103.812 110.023 103.776 110.028 103.788Z" fill="#455A64"/>
<path d="M100.668 103.646C100.608 103.59 100.544 103.538 100.476 103.49C100.281 103.382 100.053 103.348 99.835 103.394C99.5115 103.486 99.2086 103.638 98.9422 103.843C98.7714 103.958 98.5897 104.056 98.3998 104.136C98.1879 104.223 97.9566 104.25 97.7302 104.215C97.2694 104.136 96.9046 103.896 96.5302 103.814C96.2041 103.744 95.865 103.759 95.5462 103.858C94.9942 104.023 94.6702 104.194 94.6606 104.17C94.7283 104.117 94.8025 104.073 94.8814 104.04C95.0876 103.933 95.3019 103.844 95.5222 103.771C95.8549 103.657 96.2118 103.633 96.5566 103.702C96.9478 103.786 97.3174 104.023 97.7398 104.093C98.1622 104.162 98.5486 103.944 98.8678 103.745C99.1477 103.537 99.4671 103.388 99.8062 103.308C100.045 103.265 100.291 103.315 100.493 103.45C100.571 103.494 100.633 103.563 100.668 103.646Z" fill="#455A64"/>
<path d="M107.138 66.516C107.032 66.5849 106.91 66.6262 106.783 66.636C106.172 66.7274 105.551 66.5527 105.077 66.156C104.899 66.0048 104.82 65.8824 104.837 65.8728C105.467 66.4272 106.317 66.6617 107.143 66.5088L107.138 66.516Z" fill="#455A64"/>
<path d="M97.0416 65.6305C97.056 65.6305 97.056 65.7529 96.9936 65.9305C96.9089 66.1631 96.768 66.3707 96.5832 66.5353C96.3979 66.6997 96.1757 66.8166 95.9352 66.8761C95.7504 66.9169 95.6328 66.9025 95.6328 66.8881C96.2878 66.7395 96.8201 66.2643 97.0416 65.6305Z" fill="#455A64"/>
<path d="M82.6678 57.2712L82.5094 59.4312L82.2886 59.4168L82.4302 57.4608L81.9238 57.4224L81.9382 57.2256L82.6678 57.2712Z" fill="#FAFAFA"/>
<path d="M84.7388 59.388L84.7244 59.5848L83.2148 59.4768V59.3184L84.1748 58.5072C84.434 58.2864 84.4916 58.1448 84.5036 57.996C84.5204 57.756 84.3572 57.5808 84.0236 57.5568C83.8026 57.528 83.5804 57.6002 83.4188 57.7536L83.2796 57.6C83.4901 57.4022 83.7781 57.3096 84.0644 57.348C84.5012 57.3792 84.7628 57.6216 84.7364 57.9816C84.722 58.188 84.6428 58.368 84.3332 58.6296L83.5508 59.2968L84.7388 59.388Z" fill="#FAFAFA"/>
<path d="M86.6998 59.1097C86.6734 59.4673 86.3926 59.7265 85.8742 59.6881C85.5888 59.678 85.3181 59.5585 85.1182 59.3545L85.2382 59.1865C85.4069 59.3681 85.6409 59.4752 85.8886 59.4841C86.2438 59.5105 86.4526 59.3593 86.4742 59.0929C86.4958 58.8265 86.323 58.6513 85.9222 58.6129H85.7686L85.7806 58.4497L86.4334 57.7465L85.3318 57.6673L85.3462 57.4705L86.7286 57.5713V57.7273L86.0638 58.4473C86.5126 58.5049 86.7262 58.7641 86.6998 59.1097Z" fill="#FAFAFA"/>
<path d="M98.0399 37.9968C97.6062 38.4382 97.3849 39.0456 97.4327 39.6624C97.4852 40.2725 97.6837 40.861 98.0111 41.3784" fill="#263238"/>
<path d="M103.279 47.3785L103.605 39.8593L100.588 37.5745L97.8477 38.9137C97.8477 38.9137 97.7565 42.3553 97.8477 43.8481C97.9389 45.3409 99.4437 45.4993 99.4437 45.4993C99.4437 45.4993 99.4005 46.3225 99.3525 47.1793C99.2961 48.2509 100.108 49.1701 101.179 49.2457C102.262 49.321 103.201 48.5043 103.276 47.4214C103.277 47.4073 103.278 47.3929 103.279 47.3785Z" fill="#FFBE9D"/>
<path d="M98.3374 41.4241C98.3374 41.5301 98.4233 41.6161 98.5294 41.6161C98.6355 41.6161 98.7214 41.5301 98.7214 41.4241C98.7214 41.318 98.6355 41.2321 98.5294 41.2321C98.4233 41.2321 98.3374 41.318 98.3374 41.4241Z" fill="#263238"/>
<path d="M97.9629 41.2152C97.9869 41.2392 98.1285 41.1192 98.3325 41.1072C98.5365 41.0952 98.6925 41.196 98.7141 41.1696C98.7357 41.1432 98.6997 41.112 98.6325 41.064C98.5415 41.0045 98.4335 40.9766 98.3253 40.9848C98.2173 40.9898 98.1141 41.0313 98.0325 41.1024C97.9701 41.1552 97.9509 41.2032 97.9629 41.2152Z" fill="#263238"/>
<path d="M100.56 41.424C100.56 41.5287 100.645 41.6136 100.75 41.6136C100.856 41.6151 100.943 41.5301 100.944 41.424C100.945 41.318 100.861 41.2311 100.754 41.2296C100.648 41.2282 100.561 41.3132 100.56 41.4192C100.56 41.4209 100.56 41.4224 100.56 41.424Z" fill="#263238"/>
<path d="M100.243 41.2152C100.267 41.2392 100.409 41.1192 100.613 41.1072C100.817 41.0952 100.973 41.196 100.994 41.1696C101.016 41.1432 100.98 41.112 100.913 41.064C100.822 41.0048 100.714 40.9769 100.606 40.9848C100.497 40.9904 100.393 41.0316 100.31 41.1024C100.25 41.1552 100.231 41.2032 100.243 41.2152Z" fill="#263238"/>
<path d="M100.178 43.1472C99.8643 43.3059 99.5297 43.4206 99.1846 43.488C99.3413 43.6999 99.6211 43.7799 99.8662 43.6824C100.094 43.6315 100.237 43.4057 100.186 43.1782C100.184 43.1676 100.181 43.1573 100.178 43.1472Z" fill="#FAFAFA"/>
<path d="M99.4438 45.4992C100.153 45.4702 100.839 45.2386 101.421 44.832C101.421 44.832 100.973 45.9288 99.4774 45.8664L99.4438 45.4992Z" fill="#EB996E"/>
<path d="M99.4989 42.96C99.389 42.9334 99.2762 42.9195 99.1629 42.9192C99.1101 42.9192 99.0597 42.9192 99.0477 42.8712C99.0412 42.8134 99.052 42.7548 99.0789 42.7032C99.1221 42.5688 99.1701 42.4272 99.2181 42.2784C99.3165 41.9736 99.4005 41.7 99.4581 41.4984C99.4979 41.3921 99.5231 41.2805 99.5325 41.1672C99.4773 41.2659 99.4336 41.3705 99.4029 41.4792C99.3309 41.676 99.2373 41.9592 99.1389 42.252C99.0933 42.4032 99.0477 42.5448 99.0045 42.6816C98.975 42.7488 98.9682 42.824 98.9853 42.8952C98.9997 42.9329 99.0321 42.961 99.0717 42.9696C99.1012 42.974 99.131 42.974 99.1605 42.9696C99.2733 42.9821 99.387 42.9788 99.4989 42.96Z" fill="#263238"/>
<path d="M103.385 42.5329C103.361 42.2842 103.389 42.0334 103.466 41.7961C103.545 41.5544 103.751 41.3763 104.002 41.3329C104.296 41.3182 104.555 41.5234 104.609 41.8129C104.645 42.1059 104.498 42.3913 104.239 42.5329C103.98 42.6656 103.675 42.6735 103.409 42.5545" fill="#FFBE9D"/>
<path d="M103.821 42.3145C103.821 42.2977 103.901 42.3361 104.006 42.3025C104.141 42.2559 104.231 42.1282 104.229 41.9857C104.243 41.9146 104.223 41.8417 104.177 41.7865C104.13 41.7512 104.072 41.7339 104.013 41.7385C103.903 41.7385 103.824 41.7769 103.817 41.7601C103.809 41.7433 103.867 41.6905 104.001 41.6521C104.084 41.6324 104.172 41.6499 104.241 41.7001C104.321 41.7759 104.36 41.8861 104.345 41.9953C104.338 42.0975 104.3 42.1949 104.234 42.2737C104.177 42.3375 104.098 42.3783 104.013 42.3889C103.877 42.4033 103.807 42.3241 103.821 42.3145Z" fill="#EB996E"/>
<path d="M97.8696 38.1432C97.2072 38.9664 98.0904 39.4848 98.5296 39.8232C98.868 40.0872 99.8664 40.7832 100.742 40.4544C100.433 40.0392 100.08 39.8568 99.9432 39.4608C100.301 39.9648 100.678 40.3464 101.292 40.4088C101.17 40.0512 100.997 39.324 101.129 39.2952C101.292 40.716 102.624 41.9112 103.541 41.4552C103.889 40.5488 103.784 39.5304 103.258 38.7144C102.72 37.9097 101.869 37.3673 100.913 37.2192C99.8129 37.052 98.6961 37.3868 97.8696 38.1312" fill="#263238"/>
<path d="M104.16 42.6696C104.16 42.6552 104.273 42.7632 104.227 42.9672C104.199 43.0867 104.117 43.1866 104.006 43.2384C103.868 43.3018 103.707 43.2955 103.574 43.2216C103.444 43.1434 103.355 43.0102 103.334 42.8592C103.319 42.7397 103.35 42.6187 103.421 42.5208C103.541 42.3576 103.675 42.3408 103.675 42.3528C103.675 42.3648 103.577 42.42 103.495 42.5688C103.448 42.6518 103.432 42.7488 103.449 42.8424C103.467 42.9545 103.533 43.0534 103.629 43.1136C103.728 43.1678 103.846 43.1758 103.951 43.1352C104.037 43.0994 104.104 43.0289 104.136 42.9408C104.161 42.8527 104.169 42.7608 104.16 42.6696Z" fill="#FF725E"/>
<path d="M93.7847 55.0344L96.0359 54.5664L96.7199 58.3536C96.1413 60.2945 95.6606 62.2635 95.2799 64.2528L100.56 67.548L101.374 66.0024L102.677 67.2408L108.295 64.2528C107.602 60.6528 105.85 59.712 105.85 59.1264C105.85 57.4464 105.61 59.0784 107.018 53.5128C108.427 47.9472 103.286 47.3784 103.286 47.3784C103.286 47.3784 103.402 48.156 99.3119 47.4144C97.8143 47.1432 91.8359 50.2824 91.8359 50.2824L93.7847 55.0344Z" fill="#FF725E"/>
<path d="M99.3046 47.4145C99.3046 47.4145 99.2566 51.5329 100.238 51.2545C101.22 50.9761 103.197 49.2169 103.279 47.3689L99.3046 47.4145Z" fill="#FFBE9D"/>
<path d="M99.5541 54.6313C99.5418 54.1433 99.5699 53.6554 99.6381 53.1721C99.6664 52.6868 99.7372 52.2051 99.8493 51.7321C99.8613 52.2207 99.8325 52.7098 99.7629 53.1937C99.7348 53.678 99.6649 54.1589 99.5541 54.6313Z" fill="#263238"/>
<path d="M100.181 54.2976C100.108 53.9124 100.077 53.5207 100.087 53.1288C100.057 52.7376 100.067 52.3442 100.118 51.9552C100.19 52.3414 100.222 52.7338 100.212 53.1264C100.245 53.5169 100.235 53.9095 100.181 54.2976Z" fill="#263238"/>
<path d="M99.2999 55.0344C99.2663 55.0344 99.2423 54.9288 99.2999 54.8112C99.3575 54.6936 99.4511 54.6408 99.4727 54.6672C99.4943 54.6936 99.4559 54.7704 99.4151 54.8616C99.3743 54.9528 99.3359 55.0368 99.2999 55.0344Z" fill="#263238"/>
<path d="M99.4343 55.0344C99.4007 55.0344 99.3887 54.948 99.4055 54.8544C99.4223 54.7608 99.4679 54.6936 99.5015 54.7008C99.5351 54.708 99.5471 54.7872 99.5303 54.8808C99.5135 54.9744 99.4679 55.0416 99.4343 55.0344Z" fill="#263238"/>
<path d="M99.5615 55.0369C99.5279 55.0369 99.4919 54.9673 99.4823 54.8737C99.4727 54.7801 99.4943 54.7033 99.5303 54.7009C99.5663 54.6985 99.5999 54.7705 99.6071 54.8617C99.6143 54.9529 99.5999 55.0321 99.5615 55.0369Z" fill="#263238"/>
<path d="M99.7702 55.1017C99.7342 55.1017 99.7078 54.9817 99.6454 54.8617C99.583 54.7417 99.511 54.6361 99.535 54.6073C99.559 54.5785 99.6862 54.6505 99.7606 54.8089C99.835 54.9673 99.8038 55.1041 99.7702 55.1017Z" fill="#263238"/>
<path d="M100.204 54.6673C100.173 54.6793 100.108 54.5761 100.108 54.4273C100.108 54.2785 100.173 54.1873 100.204 54.1873C100.236 54.1873 100.233 54.3001 100.233 54.4273C100.233 54.5545 100.238 54.6553 100.204 54.6673Z" fill="#263238"/>
<path d="M100.334 54.6C100.3 54.6 100.264 54.5232 100.255 54.4224C100.245 54.3216 100.255 54.2352 100.3 54.2328C100.346 54.2304 100.37 54.3096 100.38 54.4104C100.389 54.5112 100.368 54.5976 100.334 54.6Z" fill="#263238"/>
<path d="M100.538 54.5664C100.512 54.588 100.437 54.5376 100.372 54.4536C100.308 54.3696 100.276 54.2856 100.305 54.2664C100.334 54.2472 100.406 54.2952 100.471 54.3768C100.536 54.4584 100.56 54.5448 100.538 54.5664Z" fill="#263238"/>
<path d="M100.606 54.4992C100.574 54.5136 100.514 54.4512 100.438 54.384C100.361 54.3168 100.294 54.2664 100.306 54.2328C100.318 54.1992 100.426 54.204 100.522 54.2904C100.618 54.3768 100.637 54.48 100.606 54.4992Z" fill="#263238"/>
<path d="M99.0046 47.868C99.0046 47.8536 99.0766 47.8176 99.1606 47.8944C99.2331 47.9789 99.2235 48.1061 99.139 48.1788C99.0545 48.2513 98.9273 48.2417 98.8549 48.1572C98.8438 48.1445 98.8345 48.1303 98.827 48.1152C98.8042 48.0507 98.8141 47.9791 98.8534 47.9232C98.923 47.832 99.007 47.8536 99.0022 47.868C98.9974 47.8824 98.9542 47.904 98.9302 47.9688C98.9062 48.0336 98.9302 48.12 99.0286 48.108C99.127 48.096 99.1342 48.012 99.0958 47.952C99.0574 47.892 99.007 47.8872 99.0046 47.868Z" fill="#263238"/>
<path d="M99.1007 48.6432C99.0791 48.6696 99.0119 48.6432 98.9471 48.6096C98.8823 48.576 98.8463 48.504 98.8655 48.4752C98.8847 48.4464 98.9543 48.4608 99.0191 48.5088C99.0839 48.5568 99.1199 48.6144 99.1007 48.6432Z" fill="#263238"/>
<path d="M99.1629 48.8064C99.1917 48.828 99.1629 48.912 99.0669 48.948C98.9709 48.984 98.8917 48.948 98.8989 48.912C98.9061 48.876 98.9613 48.8568 99.0213 48.8328C99.0813 48.8088 99.1365 48.7848 99.1629 48.8064Z" fill="#263238"/>
<path d="M99.1679 49.212C99.1943 49.2336 99.1679 49.296 99.1319 49.3512C99.0959 49.4064 99.0263 49.4352 98.9999 49.4112C98.9735 49.3872 98.9879 49.3272 99.0359 49.272C99.0839 49.2168 99.1391 49.2 99.1679 49.212Z" fill="#263238"/>
<path d="M99.0646 49.6513C99.0646 49.6369 99.1606 49.6033 99.2734 49.7065C99.338 49.7682 99.363 49.8606 99.3382 49.9465C99.3051 50.0602 99.2024 50.1397 99.0838 50.1433C98.9672 50.1346 98.8698 50.0509 98.8438 49.9369C98.8222 49.8418 98.8661 49.7437 98.9518 49.6969C99.091 49.6201 99.1918 49.6969 99.1678 49.7089C99.1438 49.7209 99.0814 49.7089 99.0022 49.7689C98.959 49.801 98.9408 49.8567 98.9566 49.9081C98.9768 49.969 99.0317 50.0115 99.0958 50.0161C99.187 50.0101 99.2561 49.9311 99.2499 49.8397C99.2477 49.807 99.2357 49.7756 99.2158 49.7497C99.1438 49.6801 99.0622 49.6801 99.0646 49.6513Z" fill="#263238"/>
<path d="M99.3333 50.3496C99.3501 50.3808 99.2973 50.4384 99.2397 50.5032C99.1821 50.568 99.1341 50.628 99.1005 50.616C99.0669 50.604 99.0717 50.508 99.1461 50.4216C99.2205 50.3352 99.3189 50.3184 99.3333 50.3496Z" fill="#263238"/>
<path d="M99.4679 50.784C99.4991 50.796 99.4943 50.892 99.4199 50.9784C99.3455 51.0648 99.2495 51.0816 99.2327 51.0528C99.2159 51.024 99.2687 50.9616 99.3263 50.8968C99.3839 50.832 99.4343 50.772 99.4679 50.784Z" fill="#263238"/>
<path d="M99.5397 51.4872C99.5061 51.4872 99.4701 51.4104 99.4629 51.3072C99.4557 51.204 99.4629 51.1224 99.5085 51.1176C99.5541 51.1128 99.5781 51.1944 99.5853 51.2976C99.5925 51.4008 99.5757 51.4848 99.5397 51.4872Z" fill="#263238"/>
<path d="M100.706 51.6C100.69 51.6288 100.622 51.624 100.558 51.6C100.493 51.576 100.454 51.5088 100.471 51.4776C100.488 51.4464 100.555 51.4536 100.62 51.4896C100.685 51.5256 100.723 51.5568 100.706 51.6Z" fill="#263238"/>
<path d="M101.112 51.12C101.136 51.144 101.095 51.2232 101.023 51.2976C100.951 51.372 100.87 51.4128 100.846 51.3888C100.822 51.3648 100.86 51.2856 100.934 51.2112C101.009 51.1368 101.085 51.0984 101.112 51.12Z" fill="#263238"/>
<path d="M101.443 50.8512C101.443 50.832 101.505 50.8224 101.597 50.8248H101.609L101.625 50.8392C101.669 50.8822 101.688 50.9446 101.676 51.0048C101.662 51.0826 101.598 51.1414 101.52 51.1488C101.436 51.157 101.357 51.1092 101.325 51.0312C101.3 50.9698 101.315 50.899 101.364 50.8536C101.443 50.7816 101.517 50.8176 101.508 50.832C101.498 50.8464 101.46 50.856 101.433 50.9088C101.42 50.9328 101.42 50.9618 101.433 50.9856C101.451 51.0115 101.481 51.0262 101.513 51.024C101.563 51.024 101.587 50.9352 101.561 50.904L101.589 50.9184C101.496 50.8944 101.441 50.88 101.443 50.8512Z" fill="#263238"/>
<path d="M101.786 50.7864C101.753 50.7864 101.738 50.6976 101.758 50.6064C101.777 50.5152 101.82 50.4456 101.854 50.4504C101.887 50.4552 101.899 50.5392 101.88 50.6304C101.861 50.7216 101.82 50.7936 101.786 50.7864Z" fill="#263238"/>
<path d="M102.312 50.4168C102.3 50.448 102.221 50.4432 102.137 50.4168C102.053 50.3904 101.998 50.3232 102.012 50.292C102.026 50.2608 102.106 50.2656 102.187 50.292C102.269 50.3184 102.326 50.3856 102.312 50.4168Z" fill="#263238"/>
<path d="M102.372 49.9608C102.386 49.9608 102.384 50.004 102.413 50.0352C102.442 50.0664 102.478 50.0736 102.504 50.0352C102.53 49.9968 102.504 49.968 102.466 49.9536C102.427 49.9392 102.394 49.9536 102.379 49.9536C102.365 49.9536 102.379 49.8864 102.461 49.8696C102.512 49.86 102.565 49.8782 102.6 49.9176C102.645 49.9704 102.65 50.0467 102.612 50.1048C102.578 50.1657 102.507 50.1969 102.439 50.1816C102.389 50.1689 102.349 50.1305 102.334 50.0808C102.31 49.9896 102.36 49.9488 102.372 49.9608Z" fill="#263238"/>
<path d="M102.739 49.5816C102.706 49.5816 102.665 49.5576 102.646 49.5024C102.626 49.4472 102.646 49.3944 102.67 49.3824C102.694 49.3704 102.744 49.4064 102.763 49.4616C102.782 49.5168 102.77 49.572 102.739 49.5816Z" fill="#263238"/>
<path d="M103.082 49.2456C103.065 49.2744 102.998 49.2696 102.933 49.2312C102.868 49.1928 102.83 49.14 102.849 49.1112C102.868 49.0824 102.931 49.0872 102.996 49.1232C103.06 49.1592 103.099 49.2144 103.082 49.2456Z" fill="#263238"/>
<path d="M103.317 48.7416C103.332 48.7752 103.274 48.8304 103.193 48.8664C103.111 48.9024 103.029 48.9072 103.015 48.8664C103.001 48.8256 103.058 48.78 103.14 48.744C103.221 48.708 103.303 48.72 103.317 48.7416Z" fill="#263238"/>
<path d="M103.426 48.1392C103.426 48.1272 103.471 48.0816 103.553 48.1248C103.601 48.1521 103.631 48.2018 103.634 48.2568C103.636 48.33 103.591 48.396 103.522 48.42C103.455 48.4488 103.377 48.4303 103.33 48.3744C103.295 48.3314 103.284 48.2731 103.303 48.2208C103.334 48.1368 103.402 48.132 103.404 48.1488C103.406 48.1656 103.385 48.192 103.39 48.2376C103.394 48.2832 103.423 48.324 103.476 48.3048C103.529 48.2856 103.529 48.2376 103.498 48.1968C103.466 48.156 103.44 48.156 103.426 48.1392Z" fill="#263238"/>
<path d="M103.754 47.6137C103.754 47.6473 103.701 47.6905 103.617 47.7097C103.533 47.7289 103.461 47.7097 103.454 47.6833C103.447 47.6569 103.507 47.6065 103.591 47.5873C103.675 47.5681 103.747 47.5801 103.754 47.6137Z" fill="#263238"/>
<path d="M103.418 47.4384L103.55 47.3376L103.418 47.4384Z" fill="#263238"/>
<path d="M92.5174 50.8608C92.4862 50.8608 92.4742 50.7912 92.4958 50.7288C92.5174 50.6664 92.5582 50.6256 92.5894 50.6352C92.6206 50.6448 92.6326 50.7048 92.6134 50.7672C92.5942 50.8296 92.551 50.88 92.5174 50.8608Z" fill="#263238"/>
<path d="M92.8055 51.2089C92.8055 51.1945 92.8487 51.1489 92.9351 51.1873C93.0198 51.225 93.0582 51.3241 93.0205 51.409C93.0037 51.4472 92.9732 51.4777 92.9351 51.4945C92.8698 51.531 92.7884 51.5214 92.7335 51.4705C92.6932 51.4314 92.6752 51.3745 92.6855 51.3193C92.7023 51.2257 92.7719 51.2113 92.7767 51.2257C92.7815 51.2401 92.7623 51.2737 92.7767 51.3217C92.7911 51.3697 92.8247 51.4129 92.8847 51.3841C92.9447 51.3553 92.9327 51.3025 92.8847 51.2617C92.8367 51.2209 92.8127 51.2257 92.8055 51.2089Z" fill="#263238"/>
<path d="M93.1629 51.9936C93.1485 52.0248 93.0741 52.0248 92.9949 51.9936C92.9157 51.9624 92.8653 51.9096 92.8773 51.8784C92.8893 51.8472 92.9661 51.8472 93.0453 51.8784C93.1245 51.9096 93.1749 51.9624 93.1629 51.9936Z" fill="#263238"/>
<path d="M93.2519 52.4737C93.2399 52.5073 93.1823 52.5169 93.1199 52.4977C93.0575 52.4785 93.0167 52.4353 93.0263 52.4017C93.0359 52.3681 93.0959 52.3585 93.1583 52.3801C93.2207 52.4017 93.2615 52.4425 93.2519 52.4737Z" fill="#263238"/>
<path d="M93.3984 52.8C93.4272 52.8168 93.42 52.8864 93.3792 52.9536C93.3384 53.0208 93.2832 53.064 93.2544 53.0448C93.2256 53.0256 93.2328 52.9584 93.2712 52.8912C93.3096 52.824 93.36 52.8 93.3984 52.8Z" fill="#263238"/>
<path d="M93.4848 53.1336C93.468 53.1336 93.5256 53.0448 93.648 53.0784C93.719 53.0983 93.7756 53.1523 93.7992 53.2224C93.828 53.323 93.773 53.4283 93.6744 53.4624C93.5863 53.4979 93.4857 53.478 93.4176 53.412C93.3621 53.3479 93.3621 53.2529 93.4176 53.1888C93.4584 53.147 93.5251 53.1463 93.5668 53.1869C93.5676 53.1876 93.568 53.1881 93.5688 53.1888C93.5952 53.22 93.5832 53.244 93.5688 53.244C93.5544 53.244 93.5496 53.244 93.5328 53.2296C93.516 53.2152 93.4824 53.2296 93.48 53.2488C93.4687 53.2793 93.4773 53.3136 93.5016 53.3352C93.5385 53.3616 93.5868 53.3671 93.6288 53.3496C93.7272 53.3136 93.6864 53.2032 93.6144 53.1672C93.5424 53.1312 93.4968 53.148 93.4848 53.1336Z" fill="#263238"/>
<path d="M93.8401 53.76C93.8641 53.784 93.8401 53.8392 93.7969 53.8824C93.7537 53.9256 93.6937 53.9352 93.6697 53.9112C93.6457 53.8872 93.6697 53.8296 93.7129 53.7888C93.7561 53.748 93.8089 53.7288 93.8401 53.76Z" fill="#263238"/>
<path d="M93.9694 54.1728C93.9958 54.1968 93.9694 54.2568 93.9286 54.3072C93.8878 54.3576 93.8206 54.3816 93.7942 54.3576C93.7678 54.3336 93.7942 54.2736 93.8374 54.2232C93.8806 54.1728 93.9454 54.1488 93.9694 54.1728Z" fill="#263238"/>
<path d="M96.4199 64.8601C96.3911 64.8769 96.3263 64.8217 96.2807 64.7353C96.2351 64.6489 96.2183 64.5673 96.2471 64.5505C96.2759 64.5337 96.3407 64.5889 96.3887 64.6753C96.4367 64.7617 96.4511 64.8433 96.4199 64.8601Z" fill="#263238"/>
<path d="M96.6285 64.86C96.5973 64.8744 96.5397 64.8168 96.5013 64.7304C96.4629 64.644 96.4581 64.5648 96.5013 64.5504C96.5445 64.536 96.5901 64.5936 96.6285 64.68C96.6669 64.7664 96.6597 64.8456 96.6285 64.86Z" fill="#263238"/>
<path d="M96.9241 65.016C96.9241 65.0304 96.9241 65.0568 96.9241 65.0928C96.9241 65.1288 96.9601 65.1432 96.9937 65.124C97.0273 65.1048 97.0249 65.0784 96.9937 65.0472C96.9625 65.016 96.9385 65.0208 96.9289 65.004C96.9193 64.9872 96.9577 64.944 97.0345 64.968C97.1091 64.9913 97.1509 65.0708 97.1273 65.1454C97.1161 65.1819 97.0901 65.2124 97.0561 65.2296C97.003 65.268 96.9315 65.268 96.8785 65.2296C96.8422 65.197 96.8252 65.1483 96.8329 65.1C96.8593 65.0112 96.9193 64.9992 96.9241 65.016Z" fill="#263238"/>
<path d="M97.6632 65.172C97.6848 65.1984 97.6392 65.268 97.5624 65.3256C97.4856 65.3832 97.4088 65.4072 97.3872 65.3784C97.3656 65.3496 97.4112 65.2824 97.488 65.2248C97.5648 65.1672 97.644 65.1432 97.6632 65.172Z" fill="#263238"/>
<path d="M97.9052 65.412C97.9196 65.4432 97.886 65.4912 97.8308 65.52C97.7756 65.5488 97.7132 65.5464 97.6988 65.52C97.6844 65.4936 97.7156 65.4408 97.7732 65.412C97.8308 65.3832 97.8908 65.3832 97.9052 65.412Z" fill="#263238"/>
<path d="M98.2464 65.7936C98.2104 65.7936 98.1768 65.748 98.1648 65.6808C98.1528 65.6136 98.1768 65.556 98.2104 65.5512C98.244 65.5464 98.28 65.5968 98.2896 65.664C98.2992 65.7312 98.28 65.7888 98.2464 65.7936Z" fill="#263238"/>
<path d="M98.7959 65.7865C98.7959 65.8009 98.7815 65.8321 98.7959 65.8801C98.8103 65.9281 98.8415 65.9617 98.8943 65.9305C98.9471 65.8993 98.9327 65.8537 98.8943 65.8201C98.8559 65.7865 98.8175 65.7961 98.8079 65.7817C98.7983 65.7673 98.8367 65.7145 98.9279 65.7385C98.9821 65.7531 99.0251 65.7949 99.0407 65.8489C99.0621 65.9432 99.003 66.037 98.9087 66.0586C98.8564 66.0704 98.8017 66.0579 98.7599 66.0243C98.7179 65.9871 98.6987 65.9305 98.7095 65.8755C98.7215 65.7817 98.7911 65.7601 98.7959 65.7865Z" fill="#263238"/>
<path d="M99.4487 66.0385C99.4727 66.0649 99.4367 66.1321 99.3695 66.1897C99.3023 66.2473 99.2303 66.2737 99.2087 66.2473C99.1871 66.2209 99.2207 66.1537 99.2879 66.0961C99.3551 66.0385 99.4271 66.0121 99.4487 66.0385Z" fill="#263238"/>
<path d="M99.8805 66.2953C99.9045 66.3193 99.8661 66.3937 99.7773 66.4345C99.6885 66.4753 99.6045 66.4537 99.6021 66.4177C99.5997 66.3817 99.6573 66.3505 99.7245 66.3193C99.7917 66.2881 99.8541 66.2689 99.8805 66.2953Z" fill="#263238"/>
<path d="M100.207 66.7632C100.173 66.7752 100.13 66.7368 100.111 66.6792C100.092 66.6216 100.111 66.5664 100.135 66.5568C100.159 66.5472 100.212 66.5832 100.231 66.6408C100.25 66.6984 100.238 66.7536 100.207 66.7632Z" fill="#263238"/>
<path d="M100.577 66.5424C100.562 66.5424 100.591 66.4704 100.682 66.4752C100.738 66.4795 100.787 66.5148 100.809 66.5664C100.837 66.6374 100.809 66.7183 100.742 66.756C100.678 66.7982 100.592 66.787 100.541 66.7296C100.506 66.6835 100.502 66.6218 100.529 66.5712C100.574 66.4896 100.651 66.5064 100.644 66.5232C100.637 66.54 100.615 66.5592 100.613 66.6024C100.61 66.6456 100.632 66.6744 100.677 66.648C100.723 66.6216 100.706 66.588 100.663 66.5616C100.62 66.5352 100.591 66.5544 100.577 66.5424Z" fill="#263238"/>
<path d="M100.922 66.2065C100.893 66.2257 100.843 66.2065 100.809 66.1561C100.776 66.1057 100.773 66.0529 100.809 66.0337C100.845 66.0145 100.889 66.0337 100.922 66.0841C100.956 66.1345 100.951 66.1873 100.922 66.2065Z" fill="#263238"/>
<path d="M101.092 65.9304C101.068 65.9544 101.018 65.9448 100.98 65.9064C100.941 65.868 100.929 65.8176 100.953 65.7936C100.977 65.7696 101.03 65.7792 101.068 65.8176C101.107 65.856 101.116 65.9064 101.092 65.9304Z" fill="#263238"/>
<path d="M101.28 65.4025C101.263 65.4025 101.299 65.3377 101.374 65.3641C101.419 65.3797 101.45 65.4217 101.453 65.4697C101.447 65.5477 101.379 65.606 101.301 65.5998C101.257 65.5964 101.218 65.5731 101.194 65.5369C101.173 65.4987 101.173 65.4526 101.194 65.4145C101.222 65.3521 101.275 65.3497 101.28 65.3641C101.285 65.3785 101.28 65.4049 101.28 65.4361C101.281 65.4498 101.287 65.4625 101.297 65.4721C101.297 65.4721 101.309 65.4721 101.323 65.4721C101.33 65.4728 101.338 65.4728 101.345 65.4721C101.345 65.4721 101.345 65.4553 101.345 65.4457C101.345 65.4361 101.299 65.4145 101.28 65.4025Z" fill="#263238"/>
<path d="M101.664 65.7936C101.628 65.7783 101.609 65.7377 101.621 65.7C101.624 65.6619 101.658 65.6335 101.697 65.6371C101.698 65.6371 101.699 65.6374 101.7 65.6376C101.737 65.6511 101.756 65.6916 101.743 65.7288C101.738 65.7679 101.703 65.7965 101.664 65.7936Z" fill="#263238"/>
<path d="M101.839 66C101.812 65.9731 101.801 65.934 101.81 65.8968C101.81 65.8584 101.839 65.8176 101.873 65.8104C101.906 65.8032 101.947 65.8512 101.935 65.9184C101.923 65.9856 101.866 66.0216 101.839 66Z" fill="#263238"/>
<path d="M102.081 66.2784C102.054 66.3075 102.013 66.3187 101.976 66.3072C101.935 66.3072 101.897 66.276 101.889 66.2424C101.882 66.2088 101.933 66.1704 102 66.1824C102.067 66.1944 102.098 66.24 102.081 66.2784Z" fill="#263238"/>
<path d="M102.278 66.5137C102.266 66.5017 102.297 66.4537 102.372 66.4657C102.418 66.4753 102.457 66.5077 102.475 66.5521C102.497 66.6286 102.452 66.7083 102.376 66.7301C102.326 66.7445 102.272 66.7304 102.235 66.6939C102.206 66.6529 102.206 66.5981 102.235 66.5571C102.273 66.4851 102.34 66.5043 102.333 66.5211C102.326 66.5379 102.314 66.5547 102.316 66.5859C102.319 66.6171 102.316 66.6171 102.331 66.6171C102.345 66.6171 102.331 66.6171 102.355 66.6171C102.379 66.6171 102.372 66.6027 102.374 66.5955C102.372 66.5811 102.364 66.5684 102.352 66.5595C102.316 66.5281 102.288 66.5281 102.278 66.5137Z" fill="#263238"/>
<path d="M102.586 66.9889C102.548 66.9783 102.525 66.9406 102.533 66.9025C102.533 66.8593 102.569 66.8281 102.602 66.8329C102.64 66.8398 102.665 66.8761 102.658 66.914C102.658 66.915 102.658 66.9159 102.658 66.9169C102.656 66.9562 102.625 66.9877 102.586 66.9889Z" fill="#263238"/>
<path d="M103.051 66.7417C103.051 66.7753 102.984 66.7921 102.917 66.7753C102.85 66.7585 102.802 66.7201 102.809 66.6865C102.816 66.6529 102.878 66.6385 102.946 66.6529C103.013 66.6673 103.058 66.7201 103.051 66.7417Z" fill="#263238"/>
<path d="M103.226 66.6577C103.193 66.6577 103.162 66.6265 103.157 66.5785C103.152 66.5305 103.176 66.4873 103.212 66.4849C103.248 66.4825 103.277 66.5185 103.282 66.5665C103.286 66.6145 103.262 66.6553 103.226 66.6577Z" fill="#263238"/>
<path d="M103.553 66.3984C103.519 66.3984 103.49 66.36 103.49 66.312C103.49 66.264 103.519 66.2256 103.553 66.2256C103.586 66.2256 103.615 66.264 103.615 66.312C103.615 66.36 103.589 66.3984 103.553 66.3984Z" fill="#263238"/>
<path d="M103.805 66.0456C103.805 66.0336 103.848 65.9856 103.927 66.0336C103.975 66.0629 104 66.1176 103.992 66.1728C103.979 66.2479 103.91 66.3002 103.834 66.2928C103.757 66.2993 103.69 66.2424 103.683 66.1658C103.678 66.1063 103.712 66.0502 103.766 66.0264C103.848 65.9856 103.898 66.0408 103.884 66.0528C103.87 66.0648 103.841 66.0528 103.817 66.0984C103.804 66.1116 103.797 66.1303 103.8 66.1488C103.8 66.1488 103.814 66.1656 103.838 66.168C103.862 66.1704 103.874 66.168 103.879 66.1512C103.884 66.1344 103.879 66.1176 103.879 66.1008C103.879 66.084 103.812 66.06 103.805 66.0456Z" fill="#263238"/>
<path d="M104.455 65.844C104.429 65.8704 104.383 65.8632 104.337 65.8584C104.292 65.8536 104.244 65.8392 104.229 65.808C104.215 65.7768 104.268 65.7192 104.357 65.7336C104.445 65.748 104.479 65.8224 104.455 65.844Z" fill="#263238"/>
<path d="M104.784 65.6712C104.767 65.7024 104.7 65.7 104.628 65.688C104.556 65.676 104.493 65.6544 104.489 65.6184C104.484 65.5824 104.558 65.5464 104.649 65.5632C104.741 65.58 104.801 65.6424 104.784 65.6712Z" fill="#263238"/>
<path d="M104.971 65.52C104.937 65.52 104.913 65.4744 104.916 65.4264C104.918 65.3784 104.952 65.3424 104.988 65.3472C105.024 65.352 105.045 65.3904 105.04 65.4384C105.036 65.4864 105.004 65.52 104.971 65.52Z" fill="#263238"/>
<path d="M105.254 65.076C105.242 65.076 105.278 65.0112 105.365 65.028C105.42 65.0415 105.461 65.0871 105.468 65.1432C105.478 65.2152 105.437 65.2851 105.369 65.3112C105.298 65.3333 105.221 65.3009 105.187 65.2344C105.159 65.1812 105.173 65.1156 105.221 65.0784C105.297 65.0232 105.353 65.0784 105.341 65.0784C105.329 65.0784 105.3 65.1001 105.283 65.1337C105.266 65.1673 105.283 65.1624 105.283 65.1696C105.293 65.1807 105.307 65.1867 105.321 65.1864C105.336 65.178 105.346 65.1627 105.348 65.1456C105.349 65.1296 105.342 65.1142 105.329 65.1048C105.302 65.0856 105.264 65.0904 105.254 65.076Z" fill="#263238"/>
<path d="M105.664 65.064C105.626 65.0484 105.606 65.0052 105.619 64.9656C105.619 64.9176 105.664 64.884 105.698 64.8912C105.732 64.8984 105.751 64.9416 105.741 64.9896C105.732 65.0376 105.698 65.0712 105.664 65.064Z" fill="#263238"/>
<path d="M106.013 64.7713C105.975 64.7607 105.952 64.723 105.96 64.6849C105.955 64.6494 105.98 64.6167 106.016 64.6122C106.051 64.6074 106.084 64.6323 106.088 64.6678C106.09 64.6784 106.089 64.6894 106.085 64.6995C106.084 64.7384 106.052 64.7701 106.013 64.7713Z" fill="#263238"/>
<path d="M106.502 64.4881C106.483 64.5169 106.423 64.5121 106.36 64.4881C106.298 64.4641 106.243 64.4521 106.238 64.4161C106.233 64.3801 106.303 64.3465 106.389 64.3657C106.476 64.3849 106.521 64.4593 106.502 64.4881Z" fill="#263238"/>
<path d="M106.737 64.3201C106.706 64.3345 106.658 64.2889 106.677 64.2265C106.696 64.1641 106.759 64.1521 106.778 64.1809C106.794 64.2049 106.8 64.2341 106.795 64.2625C106.784 64.2889 106.763 64.3095 106.737 64.3201Z" fill="#263238"/>
<path d="M107.021 64.0441C106.983 64.0335 106.96 63.9958 106.968 63.9577C106.968 63.9145 107.006 63.8833 107.04 63.8881C107.073 63.8929 107.097 63.9289 107.093 63.9721C107.091 64.0114 107.06 64.0429 107.021 64.0441Z" fill="#263238"/>
<path d="M103.56 51.2953L101.969 52.8961L105.823 56.6857C105.823 56.6857 106.608 54.4009 107.155 52.3897C107.542 50.9689 103.56 51.2953 103.56 51.2953Z" fill="#FF725E"/>
<path d="M102.938 53.0401C102.905 53.0401 102.869 52.9705 102.859 52.8793C102.85 52.7881 102.871 52.7089 102.905 52.7065C102.938 52.7041 102.974 52.7737 102.984 52.8673C102.994 52.9609 102.972 53.0401 102.938 53.0401Z" fill="#263238"/>
<path d="M103.305 53.1144C103.305 53.148 103.245 53.1768 103.171 53.1768C103.097 53.1768 103.039 53.148 103.039 53.1144C103.039 53.0808 103.099 53.052 103.171 53.052C103.243 53.052 103.305 53.0784 103.305 53.1144Z" fill="#263238"/>
<path d="M103.406 53.6473C103.375 53.6281 103.377 53.5729 103.377 53.5129C103.377 53.4529 103.377 53.4001 103.406 53.3809C103.435 53.3617 103.502 53.4145 103.502 53.5129C103.502 53.6113 103.44 53.6689 103.406 53.6473Z" fill="#263238"/>
<path d="M103.723 53.7C103.709 53.7 103.764 53.6232 103.867 53.6568C103.931 53.6772 103.979 53.7305 103.992 53.796C104.003 53.8987 103.929 53.9914 103.826 54.0027C103.749 54.0113 103.675 53.971 103.639 53.9016C103.617 53.8361 103.636 53.7631 103.687 53.7168C103.718 53.6868 103.76 53.6727 103.802 53.6784C103.834 53.6784 103.843 53.7024 103.838 53.7072C103.834 53.712 103.786 53.7216 103.754 53.7744C103.723 53.8272 103.74 53.8968 103.824 53.8752C103.908 53.8536 103.886 53.7768 103.824 53.7384C103.762 53.7 103.733 53.7144 103.723 53.7Z" fill="#263238"/>
<path d="M104.138 54.348C104.107 54.348 104.095 54.2832 104.112 54.228C104.128 54.1728 104.172 54.1368 104.205 54.1464C104.239 54.156 104.251 54.2112 104.232 54.2664C104.212 54.3216 104.172 54.3576 104.138 54.348Z" fill="#263238"/>
<path d="M104.498 54.2784C104.532 54.2784 104.544 54.3792 104.525 54.4896C104.505 54.6 104.462 54.6864 104.429 54.6792C104.395 54.672 104.383 54.5784 104.402 54.468C104.421 54.3576 104.465 54.2736 104.498 54.2784Z" fill="#263238"/>
<path d="M104.88 54.7201C104.88 54.7537 104.82 54.7897 104.736 54.7993C104.652 54.8089 104.585 54.7873 104.58 54.7537C104.575 54.7201 104.64 54.6841 104.724 54.6745C104.808 54.6649 104.88 54.6793 104.88 54.7201Z" fill="#263238"/>
<path d="M105.036 54.9024C105.036 54.888 105.086 54.8496 105.178 54.888C105.234 54.9125 105.275 54.961 105.29 55.02C105.307 55.1024 105.267 55.1859 105.192 55.224C105.115 55.2701 105.015 55.248 104.964 55.1736C104.932 55.1115 104.946 55.0356 104.998 54.9888C105.029 54.956 105.077 54.9447 105.12 54.96C105.149 54.972 105.154 54.9888 105.149 54.9936C105.144 54.9984 105.098 54.9936 105.072 55.0512C105.046 55.1088 105.072 55.1472 105.142 55.1184C105.211 55.0896 105.187 55.0128 105.142 54.9696C105.096 54.9264 105.038 54.9216 105.036 54.9024Z" fill="#263238"/>
<path d="M105.439 55.7497C105.405 55.7497 105.376 55.6585 105.376 55.5481C105.376 55.4377 105.405 55.3489 105.439 55.3489C105.472 55.3489 105.501 55.4377 105.501 55.5481C105.501 55.6585 105.475 55.7497 105.439 55.7497Z" fill="#263238"/>
<path d="M104.858 49.6537C104.767 49.8406 104.651 50.0142 104.513 50.1697C104.273 50.4721 103.941 50.8897 103.553 51.3145C103.164 51.7393 102.809 52.1401 102.547 52.4185C102.413 52.5762 102.264 52.7209 102.103 52.8505C102.212 52.6741 102.338 52.5094 102.48 52.3585C102.72 52.0681 103.075 51.6697 103.459 51.2329L104.443 50.1121C104.57 49.9498 104.709 49.7965 104.858 49.6537Z" fill="#263238"/>
<path d="M107.553 64.0152C107.553 64.0488 107.481 64.0608 107.409 64.044C107.337 64.0272 107.287 63.984 107.294 63.9504C107.301 63.9168 107.369 63.9048 107.438 63.9216C107.508 63.9384 107.561 63.9816 107.553 64.0152Z" fill="#263238"/>
<path d="M107.736 63.7224C107.736 63.7104 107.75 63.672 107.82 63.6672C107.866 63.6677 107.908 63.696 107.925 63.7392C107.954 63.7947 107.931 63.8626 107.876 63.8909C107.868 63.895 107.86 63.8979 107.851 63.9C107.731 63.9312 107.628 63.8136 107.681 63.7224C107.696 63.6944 107.728 63.679 107.76 63.684C107.781 63.684 107.786 63.7056 107.781 63.7128C107.766 63.7239 107.758 63.7421 107.76 63.7608C107.76 63.7608 107.796 63.7872 107.817 63.78C107.819 63.7697 107.813 63.7594 107.803 63.756C107.777 63.7392 107.743 63.7392 107.736 63.7224Z" fill="#263238"/>
<path d="M87.3095 55.2144C87.1727 54.7608 85.4519 53.8296 85.7111 53.5776C86.0471 53.2464 87.4631 54.6288 87.5903 54.7368C87.7175 54.8448 87.8735 54.66 87.7535 54.5688C87.5807 54.4368 85.7903 53.016 86.1191 52.6896C86.3015 52.5072 86.5991 52.8744 86.5991 52.8744C86.5991 52.8744 88.1783 54.3312 88.3295 54.1704C88.4807 54.0096 87.5807 53.1216 87.2567 52.8456C86.9327 52.5696 86.9351 52.3032 87.1703 52.26C87.3287 52.2288 88.3415 53.0544 88.6535 53.3376C88.9655 53.6208 89.8175 54.408 89.7047 53.6712C89.7035 53.66 89.7035 53.6489 89.7047 53.6376C89.5751 52.9176 89.7047 52.3152 89.8727 52.1712C89.9663 52.0774 90.1182 52.0774 90.2121 52.171C90.2644 52.2233 90.2898 52.297 90.2807 52.3704C90.2889 52.406 90.2889 52.4429 90.2807 52.4784C90.2807 52.4928 90.2807 52.5144 90.2807 52.5312C90.2733 52.7828 90.2901 53.0343 90.3311 53.2824C90.3642 53.5054 90.4348 53.7214 90.5399 53.9208C90.6623 54.1608 90.7799 54.3432 90.8759 54.504C92.0255 55.1376 95.3351 56.8104 98.6495 57.0648C99.2495 57.1104 102.286 53.184 102.286 53.184L105.264 56.1096C104.861 56.7984 104.719 56.9568 102.696 59.724C99.3959 64.2384 89.0159 56.7624 89.0159 56.7624L88.9199 56.7144C88.1315 56.3292 87.3654 55.8996 86.6255 55.428C85.7327 54.8016 85.7855 54.72 85.8743 54.624C86.0759 54.372 87.4487 55.68 87.3095 55.2144Z" fill="#FFBE9D"/>
</svg>
