<svg width="150" height="97" viewBox="0 0 150 97" fill="none" xmlns="http://www.w3.org/2000/svg">
<path d="M50.7779 16.3064C51.413 16.0329 52.0918 16.6138 52.4392 17.212C52.7865 17.8099 53.0644 18.5324 53.6979 18.81C54.1901 19.0257 54.7559 18.9028 55.2929 18.9236C56.945 18.9878 58.2259 20.4136 58.9668 21.8917C59.4271 22.81 59.7648 23.8754 59.4576 24.8556C59.1869 25.7194 58.4615 26.3622 57.7025 26.8557C56.1793 27.8463 54.3603 28.4226 52.5461 28.3207C50.7319 28.2189 48.9369 27.4038 47.7871 25.9968C46.8979 24.9085 46.4252 23.5283 46.2196 22.1381C46.0141 20.748 46.0596 19.3343 46.1055 17.9298" fill="#263238"/>
<path d="M57.9249 23.5833C57.9133 23.5828 57.9244 23.435 57.8981 23.1722C57.8704 22.911 57.7976 22.5299 57.5909 22.1063C57.3874 21.6843 57.0472 21.2217 56.5483 20.8508C56.0538 20.4771 55.4122 20.1956 54.7057 20.0713C54.0004 19.945 53.2976 20.0085 52.6689 19.8745C52.0347 19.7507 51.536 19.4186 51.179 19.1038C50.8193 18.7839 50.5817 18.4747 50.4258 18.2585C50.3486 18.1495 50.2914 18.0631 50.2551 18.0028C50.2186 17.9428 50.2011 17.9102 50.2045 17.9079C50.2126 17.9026 50.2983 18.0224 50.4632 18.2303C50.6295 18.4361 50.875 18.734 51.2346 19.0394C51.5924 19.3403 52.079 19.6528 52.6906 19.766C53.2994 19.8909 53.999 19.8242 54.7267 19.9528C55.451 20.0801 56.1097 20.3725 56.6153 20.7626C57.1255 21.1496 57.4694 21.6331 57.6678 22.0703C57.8699 22.5095 57.9311 22.9022 57.9447 23.1687C57.9514 23.3027 57.9484 23.4071 57.9408 23.477C57.9343 23.547 57.9288 23.5835 57.9249 23.5833Z" fill="#455A64"/>
<path d="M64.3514 20.5685L61.9192 29.673L56.9826 24.3597C54.7097 22.876 52.0257 22.1489 49.3145 22.2827L41.632 21.9258L37.3932 23.452C36.3715 23.8225 35.3913 24.299 34.469 24.8736L26.2039 30.576C24.4553 31.8387 23.0201 32.8029 22.6826 34.7333C22.2376 37.2792 23.5261 40.1216 26.2016 40.5909L37.8909 40.7334L38.2505 48.1346L56.6263 46.4114L56.1345 35.2594C59.8853 38.1478 61.6469 39.2738 64.4695 38.7241C65.4106 38.5407 66.7543 37.5531 67.1913 36.089C68.7494 30.8679 69.0155 22.658 69.0155 22.658L64.3514 20.5685ZM35.5372 33.6335L36.605 33.3314L36.6719 33.7164L35.5372 33.6335Z" fill="#E8505B"/>
<path d="M26.0298 40.5951C26.0298 40.5931 26.0633 40.5912 26.1284 40.5894C26.1991 40.588 26.2952 40.5864 26.4183 40.5841C26.679 40.582 27.0536 40.579 27.5331 40.575C28.5078 40.5725 29.9085 40.5688 31.6394 40.5644C35.1149 40.5667 39.914 40.57 45.2365 40.5737L45.1764 40.6309C45.1824 40.4984 45.1891 40.3552 45.1958 40.2115C45.2815 38.3756 45.3644 36.5988 45.4416 34.9486L45.494 35.0089C41.3587 34.6236 37.8141 34.0275 35.2835 33.7072C34.0183 33.5416 33.0078 33.4296 32.3147 33.3497C31.9726 33.3116 31.7066 33.282 31.5197 33.2612C31.4336 33.2506 31.3659 33.242 31.3146 33.2358C31.2687 33.2296 31.2453 33.2254 31.2453 33.2238C31.2456 33.222 31.2691 33.2226 31.3156 33.2256C31.3668 33.2296 31.435 33.2347 31.5216 33.2411C31.7089 33.2575 31.9756 33.2806 32.3186 33.3106C33.0131 33.3783 34.0254 33.479 35.2925 33.6347C37.8282 33.9352 41.373 34.516 45.5049 34.8936L45.5598 34.8987L45.5573 34.9542C45.4815 36.6044 45.4002 38.3814 45.3159 40.2173C45.3092 40.3609 45.3025 40.5044 45.2965 40.6367L45.2938 40.6942L45.2363 40.694C39.9138 40.6762 35.1146 40.6603 31.6394 40.6487C29.9085 40.6372 28.5078 40.6279 27.5333 40.6215C27.0539 40.6157 26.6792 40.6113 26.4185 40.6081C26.2954 40.6053 26.1995 40.6032 26.1286 40.6016C26.063 40.5993 26.0298 40.5972 26.0298 40.5951Z" fill="#263238"/>
<path d="M26.2638 32.6983C26.2608 32.6906 26.3273 32.6581 26.4511 32.6059C26.574 32.5514 26.7589 32.4893 26.9915 32.4278C27.456 32.3033 28.1265 32.2156 28.8612 32.2879C29.5961 32.3629 30.2358 32.5823 30.6661 32.7964C30.8818 32.9029 31.0507 33.0006 31.1604 33.0784C31.2715 33.1542 31.3301 33.1992 31.3257 33.2062C31.314 33.2246 31.0648 33.0641 30.6305 32.8736C30.1975 32.6823 29.5684 32.4812 28.8491 32.4075C28.1297 32.3368 27.4733 32.4091 27.0109 32.5105C26.5479 32.6107 26.2716 32.7188 26.2638 32.6983Z" fill="#263238"/>
<path d="M28.8075 30.5762C28.8153 30.5628 29.0116 30.6573 29.3103 30.843C29.6089 31.028 30.0084 31.307 30.417 31.6559C30.8203 32.004 31.1887 32.3435 31.3402 32.68C31.4168 32.8447 31.4395 32.9946 31.4328 33.0955C31.4277 33.1969 31.4039 33.2489 31.3984 33.2475C31.3753 33.248 31.4323 33.0198 31.2642 32.7184C31.106 32.4153 30.7413 32.0943 30.339 31.7474C29.9348 31.4021 29.5477 31.1155 29.2631 30.9136C28.9788 30.7113 28.7984 30.5914 28.8075 30.5762Z" fill="#263238"/>
<path d="M36.7631 33.7598C36.7467 33.7635 36.6693 33.4873 36.5553 33.0383C36.4407 32.5896 36.2892 31.9685 36.1023 31.2886C35.915 30.6084 35.7194 30.001 35.5617 29.567C35.4051 29.1325 35.2949 28.8681 35.3118 28.8602C35.3194 28.8568 35.3554 28.9189 35.4143 29.0349C35.4741 29.1503 35.552 29.3217 35.6409 29.5363C35.8199 29.9652 36.03 30.5733 36.2181 31.2565C36.4058 31.9396 36.5444 32.5653 36.6379 33.0192C36.731 33.4735 36.7791 33.7564 36.7631 33.7598Z" fill="#263238"/>
<path d="M56.3713 40.4334C56.338 40.4346 56.2054 37.6591 56.0749 34.2351C55.9444 30.8097 55.8655 28.0329 55.8987 28.0317C55.932 28.0306 56.0645 30.8053 56.195 34.2307C56.3255 37.6547 56.4043 40.4323 56.3713 40.4334Z" fill="#263238"/>
<g opacity="0.3">
<path d="M55.9995 29.3041C56.1894 30.4972 56.7016 31.6105 57.1049 32.7493C57.5081 33.8882 57.8075 35.1176 57.552 36.2985C57.0917 35.9278 56.6314 35.5571 56.1711 35.1866" fill="black"/>
</g>
<path d="M63.1254 34.5636C63.1178 34.5673 63.0808 34.5052 63.0198 34.3897C62.9582 34.2744 62.8776 34.1038 62.7852 33.8894C62.6002 33.461 62.381 32.8515 62.2133 32.1579C62.0468 31.4639 61.9646 30.8213 61.9343 30.3557C61.9188 30.1229 61.9131 29.934 61.9156 29.8035C61.9172 29.673 61.9221 29.6009 61.9304 29.6007C61.9491 29.6 61.9671 29.8873 62.0193 30.3481C62.0708 30.8089 62.1657 31.4426 62.3307 32.13C62.4967 32.8168 62.7009 33.4243 62.8644 33.8578C63.0277 34.2918 63.1425 34.5557 63.1254 34.5636Z" fill="#263238"/>
<path opacity="0.3" d="M35.6255 29.614L35.9243 33.5237L36.6048 33.3313L35.6255 29.614Z" fill="black"/>
<path d="M55.5778 29.5915C55.5769 29.5933 55.5564 29.5848 55.5173 29.5663C55.4725 29.5444 55.4162 29.5164 55.3459 29.482C55.1935 29.4125 54.9683 29.3085 54.6644 29.2148C54.0648 29.0252 53.1266 28.8478 52.0109 29.0804C51.4554 29.1931 50.8762 29.433 50.3018 29.7732C49.7253 30.1111 49.1502 30.54 48.5187 30.9576C47.8901 31.3733 47.1803 31.7747 46.3697 31.9694C45.5659 32.1775 44.6908 32.2126 43.8226 32.0736C43.3884 32.0013 42.9692 31.8814 42.5671 31.7334C42.1696 31.5733 41.7906 31.3844 41.4423 31.1578C41.0987 30.9262 40.7762 30.6726 40.4961 30.3885C40.2143 30.1063 39.9653 29.8058 39.7351 29.5049C39.2759 28.9014 38.8881 28.2969 38.4902 27.7583C38.0964 27.2167 37.6913 26.7414 37.2559 26.3772C36.8197 26.0164 36.3778 25.7441 35.9591 25.5792C35.542 25.4102 35.1558 25.3388 34.8399 25.3289C34.201 25.3065 33.8731 25.4947 33.8687 25.4674C33.868 25.4656 33.8883 25.4568 33.9287 25.4418C33.9761 25.4249 34.0357 25.4039 34.1098 25.3776C34.1906 25.3538 34.2939 25.3344 34.4149 25.3088C34.538 25.2977 34.68 25.2748 34.8412 25.2822C35.1627 25.285 35.5577 25.3508 35.9843 25.5169C36.4125 25.6788 36.8642 25.9499 37.3107 26.3121C37.7564 26.6779 38.1717 27.1581 38.5706 27.6992C38.9741 28.2383 39.3653 28.8411 39.8231 29.4377C40.0526 29.7351 40.2995 30.031 40.5774 30.3075C40.8536 30.586 41.1691 30.8327 41.5065 31.0592C41.8481 31.2805 42.2202 31.465 42.6101 31.6218C43.0046 31.7664 43.4159 31.8842 43.842 31.9551C44.694 32.0914 45.5525 32.0579 46.3406 31.8554C47.1348 31.6664 47.8303 31.2763 48.4578 30.865C49.0869 30.4525 49.6664 30.025 50.2514 29.6871C50.8337 29.3467 51.4272 29.1062 51.9933 28.997C53.1303 28.7713 54.0782 28.9653 54.6787 29.1702C54.9833 29.2716 55.2069 29.3834 55.3566 29.4601C55.4247 29.4991 55.4794 29.5305 55.5229 29.5554C55.5603 29.5776 55.579 29.5896 55.5778 29.5915Z" fill="#FAFAFA"/>
<path d="M60.0898 27.704C60.097 27.7038 60.1094 27.8049 60.114 27.9892C60.1182 28.1735 60.108 28.4419 60.0505 28.7685C59.993 29.0944 59.8764 29.4768 59.6826 29.8702C59.4911 30.2653 59.2269 30.6681 58.9195 31.0682C58.2938 31.8696 57.5111 32.3906 56.9155 32.6689C56.6166 32.8101 56.3637 32.8981 56.1868 32.9493C56.0094 32.9995 55.9092 33.0184 55.9073 33.0112C55.9002 32.9893 56.2972 32.8895 56.8781 32.5927C57.4555 32.2987 58.213 31.7777 58.825 30.9938C59.1271 30.6009 59.3914 30.2039 59.5833 29.8207C59.7785 29.4385 59.8999 29.0692 59.9672 28.7519C60.0976 28.1144 60.0637 27.7031 60.0898 27.704Z" fill="#FAFAFA"/>
<path d="M62.8841 38.729C62.8818 38.7324 62.8515 38.7156 62.7956 38.6802C62.7416 38.6426 62.6543 38.5962 62.558 38.5151C62.3561 38.365 62.0873 38.1128 61.8161 37.7513C61.2671 37.036 60.7927 35.8198 60.7828 34.4368C60.7766 33.055 61.1207 31.8426 61.3794 30.9899C61.5119 30.562 61.6295 30.2195 61.7133 29.9836C61.7972 29.7478 61.848 29.619 61.8558 29.6215C61.8639 29.624 61.8281 29.758 61.7579 29.998C61.6822 30.2576 61.5819 30.5998 61.4609 31.014C61.2237 31.8706 60.8967 33.076 60.9031 34.4354C60.9131 35.7935 61.3644 36.9871 61.8849 37.7012C62.4016 38.429 62.9065 38.7047 62.8841 38.729Z" fill="#FAFAFA"/>
<path d="M68.3287 28.3828C68.3319 28.39 68.2538 28.4346 68.1074 28.5052C67.961 28.5759 67.7455 28.6704 67.4721 28.7708C66.9288 28.9692 66.1339 29.1923 65.2345 29.1512C64.3338 29.1087 63.5596 28.7588 63.106 28.3891C62.8764 28.2057 62.7159 28.0285 62.6196 27.8964C62.5226 27.7648 62.4803 27.6846 62.4858 27.6812C62.5059 27.6645 62.6949 27.9807 63.1572 28.3214C63.6118 28.6641 64.3654 28.9896 65.24 29.0311C66.1154 29.0716 66.8986 28.8667 67.4439 28.6905C67.9924 28.5108 68.3206 28.3644 68.3287 28.3828Z" fill="#FAFAFA"/>
<path d="M33.9651 33.4822C33.9443 33.4875 33.8505 33.1217 33.6357 32.5538C33.4221 31.9861 33.0678 31.222 32.5555 30.4511C32.0407 29.6813 31.4718 29.0602 31.03 28.6447C30.5884 28.2279 30.2868 28.0006 30.2997 27.9837C30.3046 27.977 30.3838 28.0285 30.5231 28.1279C30.6635 28.2255 30.8575 28.3801 31.0873 28.5822C31.5476 28.9852 32.1345 29.6053 32.6555 30.3846C33.1743 31.165 33.5207 31.9452 33.7156 32.5251C33.8138 32.815 33.8819 33.0536 33.9179 33.2208C33.9561 33.3875 33.9731 33.4804 33.9651 33.4822Z" fill="#FAFAFA"/>
<path d="M36.6635 33.8801C36.6672 33.8822 36.6459 33.9242 36.6018 34.003C36.5609 34.0838 36.4852 34.1935 36.3824 34.3312C36.1699 34.5989 35.8048 34.9543 35.2611 35.2458C34.7211 35.5412 34.0187 35.7768 33.2196 35.9126C32.4212 36.0502 31.5338 36.1036 30.6201 36.2516C30.1642 36.329 29.7226 36.4274 29.3136 36.574C28.9048 36.7195 28.5286 36.9078 28.1939 37.1249C27.5202 37.5565 27.0227 38.0945 26.6698 38.5836C26.3204 39.0786 26.116 39.529 25.9942 39.8449C25.8709 40.1613 25.8293 40.3461 25.8159 40.3424C25.8118 40.3415 25.8208 40.2951 25.8416 40.2075C25.861 40.1195 25.8935 39.9906 25.9504 39.829C26.0596 39.5054 26.2545 39.0437 26.6003 38.5347C26.9497 38.0319 27.4495 37.4776 28.1336 37.0318C28.4734 36.8078 28.8575 36.6126 29.2746 36.4627C29.6915 36.3114 30.14 36.211 30.6007 36.1327C31.5239 35.9835 32.4099 35.9336 33.2018 35.8031C33.9924 35.6747 34.6862 35.4511 35.2214 35.1705C35.7604 34.8938 36.1263 34.5559 36.3466 34.3012C36.5637 34.0416 36.6515 33.8727 36.6635 33.8801Z" fill="#FAFAFA"/>
<path d="M41.5932 34.5153C41.6013 34.513 41.6293 34.5938 41.6736 34.7423C41.7205 34.8902 41.7685 35.11 41.8096 35.3846C41.8528 35.6593 41.8741 35.9905 41.869 36.3581C41.8574 36.7256 41.8156 37.1293 41.7267 37.5448C41.6332 37.9596 41.5018 38.3437 41.3579 38.6821C41.2082 39.0181 41.0498 39.3101 40.8955 39.541C40.7431 39.7729 40.6073 39.9524 40.5026 40.0669C40.4001 40.1833 40.3407 40.2448 40.3345 40.2392C40.3167 40.2247 40.5405 39.9653 40.8234 39.4957C40.9664 39.2622 41.1144 38.971 41.256 38.6384C41.3916 38.3035 41.5175 37.9257 41.6094 37.5187C41.6967 37.1108 41.741 36.7152 41.7584 36.3542C41.7694 35.993 41.7572 35.6666 41.7253 35.3946C41.6653 34.8507 41.5713 34.5213 41.5932 34.5153Z" fill="#FAFAFA"/>
<path d="M55.9878 38.0164C55.9719 38.0526 55.3277 37.6734 54.4351 37.5727C53.5433 37.4604 52.8283 37.6773 52.8214 37.6383C52.8172 37.6251 52.9886 37.5531 53.2824 37.4937C53.5752 37.4341 53.9933 37.3992 54.4494 37.453C54.9051 37.5082 55.303 37.6404 55.5737 37.7672C55.8453 37.894 55.995 38.0044 55.9878 38.0164Z" fill="#FAFAFA"/>
<path d="M66.7579 14.8381L64.4355 20.6061L68.8086 22.5654L69.929 17.6602L66.7579 14.8381Z" fill="#FFBE9D"/>
<path d="M71.7751 20.5336L67.8416 15.6608C67.0508 14.5649 65.7879 12.8024 65.7318 12.6516C65.6498 12.431 65.6204 10.8439 65.6565 10.4454C65.6925 10.047 65.5572 8.91025 65.5572 8.91025L62.3207 10.1373L61.6405 7.65405L61.1985 7.79332C61.1985 7.79332 60.0268 9.81862 60.3887 10.9725C60.7506 12.1266 62.2821 12.6451 62.6623 12.8802C63.0425 13.1154 64.4783 13.7316 66.1025 16.1827L66.3644 16.5615L66.3662 16.5641L67.0238 17.5147L67.0254 17.5135L70.0235 21.8334C70.3711 22.3134 71.0381 22.4279 71.5259 22.0919C72.0382 21.7387 72.1518 21.029 71.7751 20.5336Z" fill="#455A64"/>
<path d="M64.0628 9.4768L63.2173 7.09444L63.5238 6.99536C63.5238 6.99536 65.0144 7.90719 65.3363 8.9941L64.0628 9.4768Z" fill="#455A64"/>
<path d="M63.1613 12.6243C63.1625 12.6243 63.175 12.619 63.1981 12.6088C63.2244 12.5971 63.2576 12.5821 63.2992 12.5636C63.3909 12.522 63.5186 12.4645 63.6805 12.3913C64.0106 12.2409 64.4797 12.0273 65.0561 11.7644L65.0229 11.7416C65.015 11.8778 65.0148 12.019 65.025 12.1661C65.0391 12.3118 65.0508 12.4677 65.1261 12.6153C65.2862 12.8885 65.4793 13.1558 65.6774 13.4415C66.077 14.0094 66.5214 14.6221 66.9895 15.261C67.0567 15.3473 67.1103 15.4279 67.1237 15.5289C67.1385 15.6261 67.1219 15.728 67.0743 15.813C66.983 15.9873 66.7724 16.08 66.5874 16.037C66.4948 16.0183 66.411 15.9682 66.3481 15.9003C66.2895 15.8284 66.2313 15.7441 66.1738 15.6679C66.0587 15.512 65.946 15.3594 65.8359 15.2106C65.3957 14.6166 64.9991 14.0812 64.6649 13.6301C64.5834 13.5135 64.475 13.4255 64.3755 13.3491C64.2743 13.2724 64.175 13.2063 64.0815 13.1454C63.8942 13.0246 63.7281 12.9283 63.5918 12.8511C63.4553 12.774 63.3482 12.7167 63.275 12.6788C63.2408 12.6617 63.2133 12.6479 63.1911 12.6368C63.172 12.6269 63.1632 12.625 63.1613 12.6243C63.1595 12.6234 63.1701 12.6317 63.1879 12.6423C63.2091 12.6548 63.2359 12.6705 63.2687 12.6899C63.344 12.734 63.4477 12.795 63.5794 12.8724C63.7136 12.9527 63.8773 13.0518 64.0621 13.1749C64.154 13.2368 64.2519 13.3038 64.3508 13.3809C64.4494 13.459 64.5503 13.5422 64.6289 13.6567C64.9601 14.1101 65.3529 14.648 65.789 15.245C65.8985 15.3942 66.0105 15.5474 66.125 15.7035C66.1839 15.782 66.2363 15.8596 66.3026 15.9411C66.3735 16.0187 66.4689 16.076 66.5742 16.0975C66.7844 16.1467 67.0244 16.0418 67.1288 15.8432C67.1831 15.7464 67.2022 15.6303 67.1854 15.5194C67.1724 15.4072 67.1034 15.3046 67.0399 15.224C66.5719 14.5856 66.1264 13.9738 65.725 13.408C65.5268 13.1246 65.3303 12.8546 65.1732 12.5906C65.1042 12.4594 65.0894 12.3044 65.0751 12.1626C65.064 12.0187 65.0631 11.8783 65.0695 11.745L65.0714 11.7053L65.0361 11.7222C64.4573 11.9996 63.9863 12.225 63.6551 12.3839C63.4981 12.4599 63.3743 12.5197 63.2854 12.5626C63.2466 12.5816 63.2156 12.5968 63.1909 12.6088C63.1703 12.6188 63.1602 12.6241 63.1613 12.6243Z" fill="#263238"/>
<g opacity="0.3">
<path d="M62.8601 11.4626L64.3124 10.9251L64.3034 10.1112L62.8384 10.6717L62.8601 11.4626Z" fill="black"/>
</g>
<path d="M63.9937 10.0641C63.9588 10.0645 63.9337 10.3332 63.9374 10.6639C63.9411 10.9949 63.9722 11.2628 64.0069 11.2623C64.0418 11.2618 64.0669 10.9935 64.0632 10.6623C64.0596 10.3318 64.0284 10.0636 63.9937 10.0641Z" fill="#263238"/>
<path d="M63.5533 10.2262C63.5184 10.2267 63.4932 10.4953 63.4969 10.826C63.5006 11.157 63.5318 11.4249 63.5665 11.4244C63.6013 11.424 63.6265 11.1556 63.6228 10.8246C63.6191 10.4937 63.5882 10.2257 63.5533 10.2262Z" fill="#263238"/>
<path d="M63.1319 10.329C63.097 10.3294 63.0719 10.598 63.0756 10.9288C63.0793 11.2598 63.1104 11.5277 63.1451 11.5272C63.1799 11.5267 63.2051 11.2584 63.2014 10.9272C63.1977 10.5967 63.1666 10.3287 63.1319 10.329Z" fill="#263238"/>
<path d="M64.5845 20.2361L64.7418 19.106L64.8498 16.1109L64.7337 14.0107C64.7337 14.0107 65.4365 14.0646 65.8109 14.969C66.1901 15.8857 66.2049 17.2587 66.2049 17.2587C66.2049 17.2587 69.1369 18.4135 68.1032 21.1777" fill="#FFBE9D"/>
<path d="M68.5563 15.6557C68.5695 15.422 68.5464 15.1762 68.4223 14.9778C68.2821 14.7538 68.0278 14.6194 67.768 14.5718C67.5082 14.5242 67.3137 14.5198 67.0527 14.5623L67.6043 15.3307C67.4793 15.8532 67.4253 16.2045 67.3599 16.7377C67.3299 16.9821 67.332 17.2823 67.5431 17.4091C67.7149 17.5124 67.9493 17.4334 68.0837 17.2849C68.2184 17.1364 68.2771 16.9361 68.332 16.7433C68.4334 16.3865 68.5355 16.0262 68.5563 15.6557Z" fill="#FFBE9D"/>
<path d="M69.3839 16.5449C69.3971 16.3111 69.374 16.0654 69.25 15.867C69.1098 15.643 68.8555 15.5085 68.5957 15.461C68.3358 15.4134 68.1414 15.409 67.8804 15.4515L68.4319 16.2199C68.307 16.7426 68.2529 17.0936 68.1876 17.6269C68.1575 17.8713 68.1596 18.1715 68.3707 18.2983C68.5425 18.4015 68.7767 18.3226 68.9114 18.1741C69.046 18.0255 69.1049 17.8253 69.1597 17.6324C69.2608 17.2756 69.3631 16.9153 69.3839 16.5449Z" fill="#FFBE9D"/>
<path d="M70.2531 17.421C70.2662 17.1872 70.2431 16.9415 70.1191 16.7431C69.9789 16.5191 69.7246 16.3846 69.4648 16.3371C69.2047 16.2895 69.0105 16.2851 68.7495 16.3276L69.301 17.096C69.1761 17.6187 69.1221 17.9697 69.0567 18.503C69.0267 18.7474 69.0287 19.0476 69.2398 19.1744C69.4117 19.2776 69.6459 19.1987 69.7805 19.0501C69.9152 18.9016 69.9738 18.7014 70.0288 18.5085C70.1302 18.1517 70.2323 17.7914 70.2531 17.421Z" fill="#FFBE9D"/>
<path d="M68.4963 15.1127C68.5259 15.106 68.6231 15.5682 68.5404 16.1375C68.4614 16.7075 68.2395 17.1242 68.2129 17.1096C68.1794 17.0958 68.3455 16.6713 68.4212 16.1207C68.5016 15.5707 68.4603 15.1164 68.4963 15.1127Z" fill="#EB996E"/>
<path d="M69.3823 16.317C69.4121 16.3105 69.4936 16.7232 69.386 17.2219C69.2823 17.7214 69.0403 18.0656 69.0158 18.0476C68.9841 18.0302 69.1698 17.6741 69.2685 17.1969C69.3717 16.7209 69.3463 16.32 69.3823 16.317Z" fill="#EB996E"/>
<path d="M65.8657 15.1127C65.8782 15.1108 65.9237 15.3339 65.9916 15.7169C66.0595 16.0998 66.1493 16.6428 66.2505 17.2805L66.2135 17.2361C66.6059 17.3678 67.0087 17.6006 67.3554 17.9286C67.7178 18.2676 67.9718 18.6813 68.1266 19.0785C68.2864 19.476 68.3508 19.8629 68.3585 20.185C68.3686 20.5084 68.325 20.7673 68.2889 20.9424C68.2518 21.1179 68.2164 21.211 68.2102 21.2094C68.1834 21.2057 68.3051 20.8195 68.2735 20.1887C68.2554 19.8751 68.1845 19.5035 68.024 19.1201C67.8674 18.7358 67.6222 18.3434 67.2727 18.0159C66.9392 17.7001 66.5533 17.4736 66.1773 17.3415L66.1452 17.3301L66.1403 17.2971C66.0479 16.658 65.9731 16.1127 65.9244 15.727C65.8756 15.3411 65.8532 15.1145 65.8657 15.1127Z" fill="#EB996E"/>
<path d="M65.5572 8.91023C65.5577 8.91185 65.5404 8.91947 65.5067 8.93263C65.4605 8.94995 65.4117 8.9682 65.3586 8.98806C65.2039 9.04557 65.0228 9.11278 64.8138 9.19038C64.3237 9.377 63.7054 9.61212 63.0215 9.87218C62.3383 10.1346 61.7205 10.3715 61.2309 10.5595C61.0221 10.638 60.8415 10.7059 60.6867 10.7642C60.6332 10.7833 60.5842 10.8009 60.538 10.8175C60.5038 10.8293 60.4856 10.8346 60.4849 10.833C60.4842 10.8314 60.5013 10.823 60.5345 10.8085C60.5798 10.7893 60.6278 10.7688 60.68 10.7466C60.8329 10.6845 61.0119 10.6117 61.2186 10.5276C61.6743 10.3447 62.3051 10.096 63.0044 9.82691C63.7038 9.55854 64.3392 9.32157 64.8022 9.15805C65.0337 9.07606 65.2219 9.01231 65.3526 8.97005C65.4069 8.95319 65.4565 8.93771 65.5037 8.92316C65.5381 8.91323 65.5566 8.90861 65.5572 8.91023Z" fill="#263238"/>
<path d="M45.4988 35.7869C45.4988 35.7869 48.3759 34.997 48.8681 34.9802C49.245 34.9673 51.4283 35.337 52.432 35.5114C52.8177 35.5784 53.1115 35.9343 53.048 36.3207C53.0439 36.3456 53.0381 36.3692 53.0305 36.3909C52.8891 36.7872 52.4762 36.8154 52.4762 36.8154C52.4762 36.8154 52.975 37.0445 52.897 37.6141C52.8187 38.1838 52.1124 38.1986 52.1124 38.1986C52.1124 38.1986 52.1489 38.2351 52.1974 38.3009C52.5161 38.7335 52.2272 39.3493 51.6911 39.3883L51.3701 39.4116C51.3701 39.4116 51.7632 39.6502 51.6978 40.0394C51.5726 40.7859 49.8684 40.6729 49.8684 40.6729L45.29 40.5854L45.4988 35.7869Z" fill="#FFBE9D"/>
<path d="M52.1804 34.5677C52.1245 34.8116 51.9866 35.3274 51.5309 35.5015L49.2275 35.0578C49.2275 35.0578 51.0438 34.725 51.3339 34.4682C51.4355 34.3781 51.5736 34.2684 51.7141 34.1952C51.9584 34.0677 52.2418 34.2993 52.1804 34.5677Z" fill="#FFBE9D"/>
<path d="M50.3209 35.201C50.3137 35.2412 50.7807 35.3588 51.3676 35.4371C51.9517 35.5151 52.4275 35.5652 52.4349 35.523C52.442 35.483 51.975 35.3655 51.3882 35.2869C50.8043 35.2091 50.3283 35.1588 50.3209 35.201Z" fill="#EB996E"/>
<path d="M50.6447 36.574C50.6346 36.6133 51.0323 36.7477 51.5439 36.8064C52.0557 36.8667 52.4735 36.8269 52.4725 36.7863C52.4723 36.7431 52.0621 36.7149 51.5614 36.6558C51.0607 36.5985 50.6551 36.532 50.6447 36.574Z" fill="#EB996E"/>
<path d="M49.4908 36.2293C49.4531 36.2454 49.4783 36.3782 49.5966 36.4826C49.7144 36.5875 49.8492 36.5967 49.8608 36.5575C49.8744 36.517 49.7887 36.4521 49.6973 36.3695C49.604 36.2882 49.5294 36.211 49.4908 36.2293Z" fill="#EB996E"/>
<path d="M50.166 38.0032C50.1628 38.045 50.6072 38.1319 51.158 38.1973C51.7093 38.2628 52.1613 38.2822 52.168 38.2409C52.1747 38.1996 51.7306 38.1127 51.1758 38.0467C50.6213 37.9808 50.1693 37.9614 50.166 38.0032Z" fill="#EB996E"/>
<path d="M48.9362 37.1821C48.9184 37.1741 48.8755 37.2152 48.8503 37.3046C48.8251 37.3919 48.8263 37.5302 48.8988 37.6584C48.9716 37.7863 49.0896 37.8586 49.1773 37.882C49.267 37.9064 49.3242 37.8907 49.3265 37.8713C49.3339 37.8307 49.1372 37.7743 49.0307 37.5838C48.9219 37.3946 48.9748 37.1967 48.9362 37.1821Z" fill="#EB996E"/>
<path d="M49.5972 39.3874C49.596 39.4292 50.0018 39.4747 50.5035 39.4888C51.0053 39.5029 51.413 39.4805 51.4141 39.4387C51.4153 39.3969 51.0095 39.3516 50.5078 39.3375C50.0062 39.323 49.5983 39.3456 49.5972 39.3874Z" fill="#EB996E"/>
<path d="M48.4154 38.4597C48.3964 38.4541 48.3604 38.5006 48.3493 38.5909C48.3373 38.68 48.3595 38.8073 48.4255 38.9244C48.5639 39.1556 48.7429 39.2588 48.7683 39.2343C48.8034 39.2031 48.6715 39.044 48.5579 38.8507C48.4415 38.656 48.4528 38.4724 48.4154 38.4597Z" fill="#EB996E"/>
<path d="M36.5004 13.0283C36.4089 12.2888 35.5945 11.7684 34.8578 11.8781C34.1208 11.9881 33.5277 12.6174 33.3244 13.3343C33.1214 14.0512 33.2611 14.8312 33.5662 15.5109C33.8064 16.0461 34.2044 16.5752 34.779 16.693C35.3061 16.8011 35.8523 16.5235 36.2101 16.1218C36.5678 15.7199 36.7736 15.2091 36.9725 14.7093L36.5004 13.0283Z" fill="#263238"/>
<path d="M37.4381 12.8669C37.2076 12.7145 36.875 12.8173 36.6992 13.0304C36.5232 13.2436 36.4731 13.5337 36.4655 13.8099C36.453 14.2688 36.542 14.7303 36.7237 15.1518C36.7785 15.2788 36.8554 15.4144 36.9877 15.4548C37.1143 15.4934 37.2549 15.4273 37.3395 15.3253C37.424 15.2234 37.4633 15.092 37.4944 14.9631C37.6794 14.1961 37.6393 13.3764 37.3803 12.6311" fill="#E8505B"/>
<path d="M50.5237 9.30194C51.8236 8.66541 52.5679 8.00763 52.4599 7.46949C52.3518 6.93089 49.7384 6.09851 49.1273 5.87148C47.6843 5.33565 46.3188 6.61101 44.039 7.06878C39.6115 7.95798 36.203 9.57886 36.4259 10.6895C36.5333 11.2247 37.465 11.5436 38.8974 11.6309" fill="#E8505B"/>
<g opacity="0.4">
<path d="M49.7507 9.41658C50.9028 8.85258 51.5933 8.26224 51.467 7.79247C51.1153 6.48523 47.9278 6.64921 44.0035 7.43748C40.0793 8.22552 37.0581 9.66232 37.2558 10.6467C37.3509 11.1211 38.1768 11.4038 39.4462 11.4811" fill="black"/>
</g>
<path d="M39.4526 11.0723C38.9027 8.0162 40.9778 5.08531 44.0861 4.62062C47.0156 4.18249 49.75 6.23503 50.3477 9.13636C50.8717 11.6797 51.3427 14.2501 51.381 15.1908C51.4965 18.0274 49.8971 19.2197 49.2423 19.5869C49.0929 19.6707 48.6744 19.779 48.5062 19.8123C48.4956 19.8144 48.4892 19.8248 48.4917 19.8352L49.2952 23.0554C49.6945 25.1722 48.6063 27.1372 46.4943 27.5615C44.3753 27.9869 42.6184 26.4388 42.1782 24.3227L39.4526 11.0723Z" fill="#FFBE9D"/>
<path d="M49.4811 10.903C49.5363 11.1349 49.3853 11.373 49.1441 11.4351C48.9035 11.497 48.6633 11.3598 48.6081 11.1277C48.5529 10.8958 48.7037 10.6575 48.9446 10.5954C49.1855 10.5332 49.4259 10.6709 49.4811 10.903Z" fill="#263238"/>
<path d="M49.7347 9.94033C49.6913 10.0092 49.3065 9.82831 48.8305 9.92509C48.3538 10.0149 48.0536 10.3302 47.9903 10.2822C47.9598 10.2614 47.9947 10.1461 48.1247 10.0048C48.2522 9.86434 48.4862 9.7059 48.783 9.64747C49.0797 9.5895 49.3513 9.64863 49.5172 9.73154C49.686 9.81469 49.7567 9.90915 49.7347 9.94033Z" fill="#263238"/>
<path d="M44.8012 11.8427C44.8564 12.0746 44.7053 12.3127 44.4642 12.3749C44.2235 12.4368 43.9833 12.2996 43.9279 12.0674C43.8727 11.8356 44.0235 11.5972 44.2644 11.5353C44.5058 11.4732 44.746 11.6106 44.8012 11.8427Z" fill="#263238"/>
<path d="M45.0727 10.969C45.0293 11.0379 44.644 10.8572 44.1685 10.954C43.6918 11.0439 43.3915 11.3591 43.3282 11.3111C43.2978 11.2903 43.3322 11.1753 43.4627 11.0337C43.5901 10.8933 43.8241 10.7348 44.1209 10.6764C44.4179 10.6184 44.6891 10.6776 44.8549 10.7605C45.0235 10.8434 45.0944 10.9376 45.0727 10.969Z" fill="#263238"/>
<path d="M47.5095 14.1526C47.5019 14.126 47.7876 14.0154 48.2548 13.8579C48.3738 13.8209 48.4839 13.7736 48.4879 13.6865C48.4989 13.593 48.4216 13.4722 48.3343 13.3424C48.161 13.0712 47.9793 12.7869 47.7887 12.489C47.0247 11.2711 46.4457 10.26 46.4951 10.2297C46.5443 10.1994 47.2037 11.1619 47.9677 12.3797C48.1532 12.6807 48.3303 12.9673 48.4992 13.2419C48.5729 13.3708 48.6835 13.5117 48.6581 13.7064C48.6435 13.8038 48.5675 13.8877 48.4939 13.9241C48.4206 13.9636 48.3525 13.9787 48.2932 13.9944C47.8158 14.117 47.5169 14.1794 47.5095 14.1526Z" fill="#263238"/>
<path d="M48.4868 19.8163C48.4868 19.8163 46.6789 20.3364 44.1021 19.416C44.1021 19.416 45.3155 21.7002 48.7033 20.684L48.4868 19.8163Z" fill="#EB996E"/>
<path d="M47.5386 15.3404C47.322 15.1485 46.997 15.0843 46.7056 15.1762C46.5035 15.24 46.3146 15.3816 46.2229 15.5749C46.1312 15.7684 46.1529 16.0125 46.2991 16.15C46.4638 16.3047 46.7407 16.2927 46.955 16.1823C47.1693 16.0721 47.3347 15.8832 47.4906 15.6968C47.5336 15.6453 47.5777 15.5917 47.5985 15.5287C47.619 15.4656 47.6112 15.3906 47.562 15.3515" fill="#EB996E"/>
<path d="M46.1746 14.7635C46.251 14.7434 46.3559 15.2601 46.8718 15.5382C47.3871 15.8174 47.9264 15.6488 47.9449 15.7201C47.9587 15.7511 47.8423 15.8451 47.6111 15.8982C47.3846 15.9518 47.0367 15.9456 46.721 15.7756C46.406 15.6049 46.2298 15.328 46.1695 15.1194C46.1067 14.9072 46.1388 14.7674 46.1746 14.7635Z" fill="#263238"/>
<path d="M44.9494 9.43332C44.9287 9.57213 44.4409 9.60631 43.8958 9.78577C43.347 9.95437 42.9295 10.2082 42.8322 10.107C42.7881 10.0581 42.8419 9.92065 42.999 9.75852C43.1542 9.59731 43.4184 9.42039 43.7464 9.31576C44.0743 9.21183 44.3921 9.20329 44.612 9.24532C44.8337 9.28689 44.9575 9.36773 44.9494 9.43332Z" fill="#263238"/>
<path d="M49.3133 8.74903C49.2511 8.87398 48.9008 8.82756 48.5051 8.90146C48.1072 8.96151 47.7915 9.12041 47.6917 9.02272C47.6471 8.97445 47.6778 8.85573 47.8032 8.72409C47.9266 8.59313 48.1504 8.46148 48.4229 8.41529C48.6957 8.36956 48.9502 8.42037 49.1095 8.50352C49.2715 8.58666 49.3396 8.68875 49.3133 8.74903Z" fill="#263238"/>
<path d="M46.1457 6.51933C45.7921 7.35772 45.044 8.01942 44.1687 8.26771C43.5938 8.43076 42.9095 8.46125 42.5457 8.93518C42.2803 9.28116 42.2806 9.75278 42.2184 10.1844C42.124 10.8408 42.2919 11.5984 41.7898 12.0314C41.3964 12.3705 41.0283 12.3615 40.7874 12.8213C40.5336 13.3057 40.5945 13.9309 40.6934 14.4685C40.7922 15.0062 40.9167 15.8654 40.4816 16.1964C40.0721 14.2461 39.0178 12.161 38.6085 10.2108C38.5475 9.92046 38.4863 9.6216 38.5367 9.3292C38.6505 8.66865 39.2831 8.23837 39.883 7.93859C41.581 7.08934 43.4497 6.6526 45.2988 6.22278" fill="#263238"/>
<path d="M51.2529 7.16879C51.2529 7.16879 49.1599 2.68607 49.0156 2.47659C48.8712 2.26711 47.1136 0.473002 43.785 0.52797L41.1318 1.0608C41.1318 1.0608 37.608 3.02928 37.1043 4.08477C36.6005 5.14003 37.2003 9.65439 37.2003 9.65439L44.3165 6.54242L49.6249 6.76045L51.2529 7.16879Z" fill="#E8505B"/>
<path d="M42.8079 0.162398L43.5408 0.0152762C43.8401 -0.0447737 44.1496 0.0748634 44.3212 0.327535C44.4376 0.498677 44.557 0.732178 44.6399 1.04028C44.8589 1.85442 46.1816 7.47624 46.1816 7.47624L42.8253 7.99289L41.5279 0.981616L40.4489 1.45947L40.426 1.24976C40.4122 1.12389 40.4378 0.99686 40.499 0.885999C40.5845 0.731486 40.7321 0.621317 40.9044 0.583209L42.8079 0.162398Z" fill="#E8505B"/>
<path d="M50.413 7.82727L49.7338 6.25882L44.2073 5.68604L38.3257 8.78345L38.6957 10.6254C38.6957 10.6254 43.5345 7.46466 50.413 7.82727Z" fill="#455A64"/>
<path d="M49.1272 5.87153L49.3901 6.04082L51.4084 6.99931C51.4084 6.99931 47.7629 6.53208 44.1884 7.29009C40.6138 8.04787 36.7593 10.0796 36.7593 10.0796L38.8453 8.17582C39.4373 7.21803 40.3916 6.54062 41.4907 6.29742L45.9695 5.3066C47.0555 5.06617 48.1923 5.26965 49.1272 5.87153Z" fill="#E8505B"/>
<path d="M50.9103 7.16693C50.9133 7.16069 50.8685 7.13506 50.7789 7.09141C50.6909 7.0429 50.5541 6.98978 50.3724 6.93689C50.0098 6.82996 49.4665 6.74058 48.7928 6.72002C47.4491 6.68029 45.5753 6.85837 43.6071 7.44454C42.6246 7.71592 41.6778 7.95751 40.8376 8.25452C39.9981 8.56239 39.274 8.88805 38.6687 9.18691C38.3682 9.33888 38.103 9.48993 37.8769 9.63336C37.6504 9.7724 37.4563 9.92345 37.3561 10.0957C37.254 10.2671 37.2476 10.4304 37.2683 10.53C37.2907 10.6313 37.3293 10.6727 37.3335 10.6699C37.3533 10.675 37.2178 10.4493 37.4224 10.1382C37.5224 9.9895 37.7053 9.85878 37.9356 9.7299C38.1642 9.59756 38.4305 9.45714 38.7315 9.3151C39.3336 9.03748 40.0724 8.72199 40.8984 8.43028C41.7314 8.14643 42.6744 7.91155 43.6611 7.63901C45.6123 7.05769 47.4613 6.85998 48.7898 6.86252C49.4552 6.86483 49.9908 6.93112 50.3523 7.01265C50.7163 7.08979 50.9001 7.18979 50.9103 7.16693Z" fill="#263238"/>
<path d="M50.3904 7.77649C51.0308 9.20637 53.2608 11.2404 51.1235 13.2156C51.1235 13.2156 50.4481 9.97685 49.9315 8.7754C49.7793 8.4211 49.6037 8.05457 49.3125 7.8019" fill="#263238"/>
<path d="M39.4212 10.4517C37.9539 10.6734 36.8365 12.2421 37.1063 13.701C37.1767 14.0821 37.3275 14.4579 37.2892 14.8434C37.2518 15.2194 37.0388 15.554 36.9446 15.9199C36.7575 16.646 36.7231 17.841 36.9693 18.5491C37.5552 20.2345 39.6946 22.3145 41.6322 21.9253" fill="#263238"/>
<path d="M40.8554 20.5394C41.2527 20.6378 41.6834 20.4787 41.983 20.1999C42.2823 19.9211 42.4652 19.5375 42.5816 19.1451C42.9553 17.8843 42.6645 16.4463 41.8303 15.4296C42.8075 13.7023 42.8364 11.4753 41.9042 9.72327L39.186 10.527L40.8554 20.5394Z" fill="#263238"/>
<path d="M36.5292 14.6887C36.5389 14.6959 36.4054 14.8818 36.098 15.0763C35.7964 15.2684 35.2938 15.4474 34.7358 15.3744C34.1789 15.3072 33.7274 15.0254 33.4856 14.7555C33.2366 14.4808 33.2089 14.2376 33.2218 14.2395C33.241 14.2312 33.2969 14.4536 33.5468 14.6966C33.7909 14.9372 34.2247 15.1917 34.7506 15.255C35.2769 15.3236 35.7534 15.1691 36.0555 15.0026C36.3613 14.8349 36.5149 14.6735 36.5292 14.6887Z" fill="#455A64"/>
<path d="M36.3234 14.3242C36.3289 14.3362 36.1555 14.4326 35.8444 14.4961C35.5363 14.5605 35.0827 14.5746 34.6173 14.4242C34.1517 14.2741 33.7918 13.9974 33.5796 13.7651C33.3643 13.5316 33.28 13.3521 33.2916 13.3457C33.308 13.3343 33.4165 13.4949 33.6399 13.705C33.8606 13.9152 34.2112 14.167 34.6542 14.3099C35.097 14.4529 35.5284 14.4536 35.8305 14.4122C36.1347 14.3723 36.3167 14.3055 36.3234 14.3242Z" fill="#455A64"/>
<path d="M42.2188 10.4724C42.2258 10.4731 42.2255 10.5706 42.2041 10.7457C42.183 10.9205 42.1325 11.1723 42.0304 11.4718C41.8324 12.067 41.3749 12.8617 40.5889 13.4426C39.8018 14.0225 38.9075 14.2256 38.2805 14.2392C37.9643 14.2484 37.7089 14.2228 37.5354 14.1911C37.362 14.1602 37.2686 14.1316 37.27 14.1249C37.2733 14.1001 37.6555 14.1939 38.2761 14.1544C38.8902 14.1193 39.7545 13.908 40.5173 13.3458C41.2791 12.7825 41.7357 12.019 41.9502 11.4425C42.1713 10.8614 42.1944 10.4683 42.2188 10.4724Z" fill="#455A64"/>
<path d="M42.299 14.5439C42.3041 14.5488 42.2597 14.6091 42.1644 14.7047C42.0694 14.8008 41.917 14.9262 41.7087 15.0509C41.295 15.3042 40.6333 15.5117 39.8919 15.5098C39.151 15.5075 38.4983 15.347 38.0373 15.223C37.8061 15.1594 37.6209 15.1024 37.4939 15.0604C37.3666 15.0183 37.2976 14.9911 37.2999 14.983C37.3045 14.9659 37.5929 15.0338 38.0579 15.1403C38.5223 15.2428 39.1693 15.3874 39.8917 15.3895C40.6132 15.3909 41.2548 15.2035 41.6669 14.9767C42.0838 14.7534 42.2828 14.5264 42.299 14.5439Z" fill="#455A64"/>
<path d="M51.3688 6.70392C51.3675 6.70784 51.3125 6.69168 51.209 6.6575C51.0947 6.61823 50.9453 6.56673 50.7591 6.50252C50.3572 6.3584 49.7978 6.15746 49.1121 5.91149L49.1047 5.90872L49.0983 5.90295C48.9627 5.78146 48.8209 5.65443 48.6733 5.52232C48.5234 5.38998 48.3804 5.2454 48.1977 5.14794C48.0171 5.04747 47.8093 4.98141 47.5903 4.96247C47.3718 4.93776 47.1464 4.9888 46.9081 5.02506C45.9641 5.1835 44.9338 5.40361 43.8573 5.65258C42.8554 5.88516 41.9006 6.1219 41.0271 6.34639C40.8049 6.39951 40.6031 6.4561 40.425 6.56834C40.2474 6.67574 40.0975 6.81709 39.9822 6.97576C39.7688 7.30927 39.5792 7.64785 39.3981 7.94602L39.3931 7.95411L39.3864 7.95919C38.72 8.45206 38.1761 8.85463 37.7865 9.14263C37.6036 9.27451 37.4571 9.38006 37.3465 9.45997C37.2451 9.53134 37.1904 9.56737 37.1876 9.56368C37.1848 9.55998 37.2343 9.51725 37.3308 9.43919C37.438 9.35443 37.5793 9.24264 37.7562 9.10268C38.1399 8.80682 38.6757 8.3934 39.3321 7.88736L39.3203 7.90053C39.4995 7.59635 39.6778 7.26723 39.8986 6.91594C40.0201 6.74549 40.179 6.59283 40.3684 6.47642C40.555 6.3554 40.7832 6.29027 40.9985 6.23784C41.8715 6.00803 42.8265 5.7683 43.8298 5.53549C44.9079 5.28628 45.9408 5.06895 46.89 4.91559C47.1245 4.88164 47.3626 4.82921 47.5998 4.85692C47.8337 4.8791 48.0552 4.95162 48.2465 5.06063C48.4416 5.1678 48.5908 5.32231 48.7357 5.45326C48.8814 5.58722 49.0213 5.7161 49.1555 5.83943L49.1417 5.83112C49.8219 6.0921 50.3766 6.30505 50.7753 6.45817C50.9582 6.53116 51.1051 6.58959 51.2173 6.6344C51.3183 6.67643 51.3705 6.69999 51.3688 6.70392Z" fill="#263238"/>
<path d="M42.4392 5.92607C42.4312 5.92769 42.4081 5.84616 42.3734 5.69765C42.3388 5.54914 42.2924 5.33366 42.2376 5.06667C42.1281 4.53292 41.9852 3.79407 41.8344 2.9767C41.7609 2.56929 41.6912 2.18127 41.6265 1.82351C41.596 1.64775 41.5669 1.47938 41.5392 1.31956C41.5228 1.18237 41.3768 1.10754 41.2683 1.14426C41.0373 1.2378 40.8394 1.31794 40.6742 1.38492C40.532 1.44012 40.4518 1.46691 40.4484 1.45929C40.4449 1.45167 40.5188 1.41033 40.6551 1.34219C40.7936 1.27383 40.9856 1.1789 41.2419 1.06342C41.3911 1.00337 41.6078 1.10661 41.6371 1.30177C41.6683 1.46091 41.7011 1.62858 41.7353 1.80365C41.8027 2.16095 41.8757 2.5485 41.9524 2.95522C42.103 3.77259 42.2328 4.51375 42.321 5.05142C42.3651 5.32026 42.3986 5.53829 42.4191 5.68934C42.4399 5.84039 42.4476 5.92469 42.4392 5.92607Z" fill="#263238"/>
<path d="M45.6458 5.21466C45.6308 5.21951 45.5312 4.96684 45.4054 4.54649C45.2781 4.12683 45.131 3.53927 44.9781 2.89004C44.8243 2.24034 44.6915 1.6507 44.6014 1.2225C44.5111 0.794297 44.4635 0.527538 44.4797 0.523843C44.4958 0.520147 44.5728 0.779747 44.6841 1.20287C44.7954 1.62599 44.9414 2.21263 45.0952 2.86232C45.2439 3.49261 45.3786 4.06262 45.4876 4.52408C45.5918 4.94813 45.6624 5.20935 45.6458 5.21466Z" fill="#263238"/>
<path d="M51.316 14.4966C51.3095 14.467 51.8833 14.534 52.6872 14.1674C53.0806 13.9875 53.5388 13.7018 53.8723 13.2364C54.2063 12.777 54.3095 12.101 54.1614 11.4629C54.0143 10.818 53.6106 10.2797 53.1191 9.99004C52.6246 9.69765 52.1064 9.56554 51.7047 9.37176C51.2985 9.18607 51.0061 8.95603 50.8483 8.76087C50.7675 8.66456 50.7199 8.57911 50.6885 8.52183C50.6608 8.46201 50.6483 8.43014 50.652 8.42829C50.6622 8.42251 50.7181 8.55024 50.8834 8.72992C51.0476 8.91007 51.3373 9.12163 51.7396 9.29416C52.1375 9.475 52.6572 9.59649 53.1759 9.89489C53.6958 10.1938 54.1252 10.7608 54.2783 11.4354C54.4328 12.1047 54.3234 12.8119 53.9624 13.3004C53.6051 13.7868 53.1281 14.0702 52.7212 14.245C52.3096 14.4217 51.9491 14.4855 51.7015 14.5046C51.577 14.5125 51.4805 14.5146 51.4151 14.5081C51.3497 14.5046 51.3158 14.5007 51.316 14.4966Z" fill="#263238"/>
<path d="M34.0242 13.5764C34.0212 13.5794 34.0034 13.566 33.9717 13.5372C33.9385 13.5099 33.8964 13.463 33.8456 13.3988C33.7461 13.2702 33.6315 13.0547 33.5828 12.763C33.5387 12.475 33.5646 12.1027 33.7667 11.7597C33.9634 11.4135 34.3607 11.153 34.8094 11.0848C35.2582 11.0172 35.715 11.1483 36.0054 11.4209C36.3001 11.6888 36.4347 12.0368 36.4777 12.3251C36.5172 12.6179 36.4714 12.8579 36.4146 13.0101C36.3853 13.0863 36.359 13.1436 36.3352 13.1796C36.3135 13.2164 36.3003 13.2346 36.2966 13.2325C36.2857 13.227 36.3289 13.1485 36.37 12.9963C36.4116 12.845 36.4416 12.6145 36.3938 12.3389C36.3428 12.0676 36.2065 11.7454 35.9317 11.5038C35.6624 11.2587 35.2441 11.1416 34.8272 11.2038C34.411 11.2677 34.0461 11.5036 33.8613 11.817C33.6703 12.129 33.6355 12.4768 33.6669 12.7512C33.7027 13.0286 33.7994 13.2399 33.884 13.372C33.9685 13.5058 34.0329 13.5679 34.0242 13.5764Z" fill="#263238"/>
<path d="M41.2123 21.5542C41.2133 21.5581 41.18 21.5701 41.1156 21.5891C41.0511 21.6085 40.9553 21.633 40.8312 21.6627C40.5827 21.7186 40.2192 21.7955 39.7607 21.8221C39.306 21.8471 38.7404 21.8198 38.1729 21.5761C37.6038 21.338 37.0869 20.8505 36.7462 20.2329C36.4033 19.6137 36.2642 18.9342 36.2638 18.327C36.2601 17.7168 36.3744 17.1759 36.501 16.7373C36.6298 16.2978 36.7742 15.9562 36.8802 15.7243C36.9338 15.6083 36.9774 15.5197 37.0095 15.4605C37.0409 15.4012 37.0594 15.3709 37.0631 15.3728C37.0719 15.3769 37.016 15.5063 36.9234 15.7428C36.831 15.979 36.6998 16.3229 36.5829 16.7601C36.4682 17.1967 36.3647 17.7299 36.3746 18.3258C36.3811 18.9189 36.5197 19.5749 36.8516 20.1747C37.1814 20.7722 37.6747 21.2412 38.2175 21.4747C38.7598 21.7143 39.309 21.7512 39.757 21.7371C40.2086 21.7216 40.5719 21.6586 40.822 21.6168C41.0719 21.5722 41.2102 21.5452 41.2123 21.5542Z" fill="#263238"/>
<path d="M36.2848 15.8511C36.2887 15.8525 36.2788 15.8899 36.2562 15.9611C36.2319 16.0315 36.1862 16.1327 36.109 16.2525C35.9534 16.4856 35.6402 16.7981 35.1415 16.941C34.8965 17.0145 34.6059 17.0385 34.3082 16.9787C34.0105 16.9209 33.7089 16.7819 33.441 16.5729C33.1747 16.362 32.9405 16.0816 32.78 15.7472C32.6199 15.413 32.5372 15.0303 32.5347 14.6397C32.5321 13.8561 32.822 13.1258 33.2553 12.6077C33.6846 12.0835 34.2946 11.7964 34.8127 11.8183C35.3309 11.8287 35.7176 12.0509 35.915 12.2525C36.1192 12.4553 36.1617 12.6144 36.1617 12.6144C36.1488 12.623 36.0899 12.4715 35.8832 12.2867C35.6831 12.1024 35.3062 11.9024 34.8122 11.9033C34.3209 11.8936 33.7493 12.1717 33.3405 12.6784C32.9289 13.1791 32.652 13.8868 32.6548 14.6388C32.6571 15.0134 32.7359 15.3788 32.8862 15.6966C33.037 16.0144 33.2581 16.2832 33.5096 16.486C33.7627 16.6874 34.0472 16.8223 34.3281 16.8812C34.6089 16.9417 34.8824 16.9244 35.1184 16.8593C35.5975 16.7334 35.9079 16.4435 36.0705 16.2257C36.2331 16.0008 36.2719 15.8458 36.2848 15.8511Z" fill="#263238"/>
<path d="M102.3 94.9722H27.1325C25.2744 94.9722 23.7681 93.4659 23.7681 91.6078V44.1791C23.7681 42.321 25.2744 40.8147 27.1325 40.8147H102.3C104.158 40.8147 105.665 42.321 105.665 44.1791V91.6078C105.665 93.4659 104.159 94.9722 102.3 94.9722Z" fill="#455A64"/>
<path d="M105.185 96.2135H24.6775C22.4074 96.2135 20.5669 94.3732 20.5669 92.1028V91.4746H109.296V92.1028C109.296 94.3732 107.456 96.2135 105.185 96.2135Z" fill="#455A64"/>
<path d="M103.237 42.9663H25.9663V88.7016H103.237V42.9663Z" fill="#263238"/>
<path d="M56.6431 90.9667L57.7443 92.718H73.2374L74.2598 90.9667H56.6431Z" fill="#263238"/>
<path d="M101.049 88.5554H28.314C27.8965 88.5554 27.5581 88.2168 27.5581 87.7995V45.2706C27.5581 44.853 27.8965 44.5146 28.314 44.5146H101.049C101.467 44.5146 101.805 44.853 101.805 45.2704V87.7992C101.805 88.2168 101.466 88.5554 101.049 88.5554Z" fill="#EBEBEB"/>
<path d="M101.725 88.6198H27.478L27.5575 47.806H101.725V88.6198Z" fill="#FAFAFA"/>
<path d="M33.6472 46.2154C33.6472 46.5429 33.3818 46.8085 33.0543 46.8085C32.7268 46.8085 32.4614 46.5429 32.4614 46.2154C32.4614 45.8879 32.7268 45.6226 33.0543 45.6226C33.3816 45.6226 33.6472 45.8879 33.6472 46.2154Z" fill="#263238"/>
<path d="M30.0532 46.2154C30.0532 46.5429 29.7878 46.8085 29.4601 46.8085C29.1328 46.8085 28.8672 46.5429 28.8672 46.2154C28.8672 45.8879 29.1328 45.6226 29.4601 45.6226C29.7878 45.6226 30.0532 45.8879 30.0532 46.2154Z" fill="#263238"/>
<path d="M31.778 46.2154C31.778 46.5429 31.5127 46.8085 31.1852 46.8085C30.8577 46.8085 30.5923 46.5429 30.5923 46.2154C30.5923 45.8879 30.8577 45.6226 31.1852 45.6226C31.5127 45.6226 31.778 45.8879 31.778 46.2154Z" fill="#263238"/>
<path d="M104.961 90.9667C104.961 90.996 86.7841 91.0198 64.3666 91.0198C41.9414 91.0198 23.7681 90.996 23.7681 90.9667C23.7681 90.9374 41.9412 90.9138 64.3666 90.9138C86.7839 90.9138 104.961 90.9376 104.961 90.9667Z" fill="#263238"/>
<path d="M74.1594 80.6543C74.1594 80.6875 69.7064 80.7143 64.2144 80.7143C58.7208 80.7143 54.2686 80.6873 54.2686 80.6543C54.2686 80.6213 58.7206 80.5942 64.2144 80.5942C69.7064 80.5942 74.1594 80.621 74.1594 80.6543Z" fill="#E0E0E0"/>
<path d="M51.4312 70.1949H29.2749V86.8479H51.4312V70.1949Z" fill="#F5F5F5"/>
<path d="M29.2822 86.8579L37.0116 76.4998L41.8109 82.9717L45.0592 79.5066L51.4383 86.8383L29.2822 86.8579Z" fill="#E0E0E0"/>
<path d="M43.8392 75.2255C43.8402 76.1891 43.0597 76.9706 42.0962 76.9716C41.1326 76.9725 40.3508 76.1921 40.3501 75.2285C40.3492 74.2649 41.1296 73.4833 42.0932 73.4824C43.0565 73.4817 43.8383 74.2619 43.8392 75.2255Z" fill="#E0E0E0"/>
<path d="M99.2369 70.2197H77.0806V86.8727H99.2369V70.2197Z" fill="#F5F5F5"/>
<path d="M77.0879 86.8827L84.8172 76.5245L89.6168 82.9965L92.8651 79.5314L99.2442 86.863L77.0879 86.8827Z" fill="#E0E0E0"/>
<path d="M91.6449 75.2503C91.6458 76.2138 90.8654 76.9956 89.9018 76.9963C88.9383 76.9973 88.1567 76.2168 88.1558 75.2533C88.1548 74.2897 88.9353 73.5081 89.8988 73.5072C90.8624 73.5065 91.644 74.2867 91.6449 75.2503Z" fill="#E0E0E0"/>
<path d="M95.731 66.9101C95.731 66.8935 95.9684 66.8784 96.352 66.8676C96.7356 66.8567 97.2657 66.85 97.8512 66.85C98.0789 66.851 98.2979 66.8521 98.5027 66.853L98.4454 66.9103C98.4494 66.4833 98.457 66.116 98.4669 65.8555C98.4769 65.5952 98.4893 65.4414 98.5027 65.4414C98.5161 65.4414 98.5284 65.595 98.5383 65.8555C98.5482 66.1158 98.5558 66.483 98.5598 66.9103L98.5602 66.9674L98.5025 66.9676C98.2976 66.9685 98.0787 66.9694 97.851 66.9706C97.2655 66.9706 96.7356 66.9639 96.3518 66.953C95.9684 66.9417 95.731 66.9267 95.731 66.9101Z" fill="#E0E0E0"/>
<path d="M90.188 66.91C90.188 66.8768 90.8083 66.85 91.5738 66.85C92.3392 66.85 92.9595 66.8768 92.9595 66.91C92.9595 66.9433 92.3392 66.9701 91.5738 66.9701C90.8083 66.9703 90.188 66.9433 90.188 66.91Z" fill="#E0E0E0"/>
<path d="M84.645 66.91C84.645 66.8768 85.2654 66.85 86.0308 66.85C86.7962 66.85 87.4165 66.8768 87.4165 66.91C87.4165 66.9433 86.7962 66.9701 86.0308 66.9701C85.2654 66.9703 84.645 66.9433 84.645 66.91Z" fill="#E0E0E0"/>
<path d="M79.1021 66.91C79.1021 66.8768 79.7224 66.85 80.4878 66.85C81.2532 66.85 81.8736 66.8768 81.8736 66.91C81.8736 66.9433 81.2532 66.9701 80.4878 66.9701C79.7224 66.9703 79.1021 66.9433 79.1021 66.91Z" fill="#E0E0E0"/>
<path d="M73.5591 66.91C73.5591 66.8768 74.1794 66.85 74.9448 66.85C75.7103 66.85 76.3306 66.8768 76.3306 66.91C76.3306 66.9433 75.7103 66.9701 74.9448 66.9701C74.1794 66.9703 73.5591 66.9433 73.5591 66.91Z" fill="#E0E0E0"/>
<path d="M68.0156 66.91C68.0156 66.8768 68.636 66.85 69.4014 66.85C70.1668 66.85 70.7872 66.8768 70.7872 66.91C70.7872 66.9433 70.1668 66.9701 69.4014 66.9701C68.636 66.9703 68.0156 66.9433 68.0156 66.91Z" fill="#E0E0E0"/>
<path d="M62.4727 66.91C62.4727 66.8768 63.093 66.85 63.8584 66.85C64.6238 66.85 65.2442 66.8768 65.2442 66.91C65.2442 66.9433 64.6238 66.9701 63.8584 66.9701C63.093 66.9703 62.4727 66.9433 62.4727 66.91Z" fill="#E0E0E0"/>
<path d="M56.9297 66.91C56.9297 66.8768 57.55 66.85 58.3155 66.85C59.0809 66.85 59.7012 66.8768 59.7012 66.91C59.7012 66.9433 59.0809 66.9701 58.3155 66.9701C57.55 66.9703 56.9297 66.9433 56.9297 66.91Z" fill="#E0E0E0"/>
<path d="M51.3867 66.91C51.3867 66.8768 52.0071 66.85 52.7725 66.85C53.5379 66.85 54.1582 66.8768 54.1582 66.91C54.1582 66.9433 53.5379 66.9701 52.7725 66.9701C52.0071 66.9703 51.3867 66.9433 51.3867 66.91Z" fill="#E0E0E0"/>
<path d="M45.8438 66.91C45.8438 66.8768 46.4641 66.85 47.2295 66.85C47.9949 66.85 48.6153 66.8768 48.6153 66.91C48.6153 66.9433 47.9949 66.9701 47.2295 66.9701C46.4641 66.9703 45.8438 66.9433 45.8438 66.91Z" fill="#E0E0E0"/>
<path d="M40.3003 66.91C40.3003 66.8768 40.9207 66.85 41.6861 66.85C42.4515 66.85 43.0718 66.8768 43.0718 66.91C43.0718 66.9433 42.4515 66.9701 41.6861 66.9701C40.9207 66.9703 40.3003 66.9433 40.3003 66.91Z" fill="#E0E0E0"/>
<path d="M34.7573 66.91C34.7573 66.8768 35.3777 66.85 36.1431 66.85C36.9085 66.85 37.5289 66.8768 37.5289 66.91C37.5289 66.9433 36.9085 66.9701 36.1431 66.9701C35.3777 66.9703 34.7573 66.9433 34.7573 66.91Z" fill="#E0E0E0"/>
<path d="M29.2179 66.9068C29.2179 66.9068 29.2188 66.907 29.2193 66.91L29.2179 66.9086C29.2332 66.8761 29.8466 66.85 30.6002 66.85C31.3656 66.85 31.986 66.8768 31.986 66.91C31.986 66.9433 31.3656 66.9701 30.6002 66.9701C29.8464 66.9701 29.2332 66.944 29.2179 66.9114L29.2163 66.9098C29.2168 66.9068 29.2179 66.9068 29.2179 66.9068Z" fill="#E0E0E0"/>
<path d="M29.2178 61.3638C29.251 61.3638 29.2778 61.9841 29.2778 62.7495C29.2778 63.5149 29.2508 64.1353 29.2178 64.1353C29.1845 64.1353 29.1577 63.5149 29.1577 62.7495C29.1575 61.9841 29.1845 61.3638 29.2178 61.3638Z" fill="#E0E0E0"/>
<path d="M29.2178 55.8207C29.251 55.8207 29.2778 56.441 29.2778 57.2064C29.2778 57.9718 29.2508 58.5922 29.2178 58.5922C29.1845 58.5922 29.1577 57.9718 29.1577 57.2064C29.1575 56.441 29.1845 55.8207 29.2178 55.8207Z" fill="#E0E0E0"/>
<path d="M29.2178 50.2777C29.251 50.2777 29.2778 50.8981 29.2778 51.6635C29.2778 52.4289 29.2508 53.0492 29.2178 53.0492C29.1845 53.0492 29.1577 52.4289 29.1577 51.6635C29.1575 50.8981 29.1845 50.2777 29.2178 50.2777Z" fill="#E0E0E0"/>
<path d="M34.0264 49.5432C34.0264 49.5765 33.4061 49.6033 32.6406 49.6033C31.8752 49.6033 31.2549 49.5762 31.2549 49.5432C31.2549 49.5102 31.8752 49.4832 32.6406 49.4832C33.4058 49.4832 34.0264 49.5099 34.0264 49.5432Z" fill="#E0E0E0"/>
<path d="M39.5694 49.5432C39.5694 49.5765 38.949 49.6033 38.1836 49.6033C37.4182 49.6033 36.7979 49.5762 36.7979 49.5432C36.7979 49.5102 37.4182 49.4832 38.1836 49.4832C38.9488 49.4832 39.5694 49.5099 39.5694 49.5432Z" fill="#E0E0E0"/>
<path d="M45.1124 49.5432C45.1124 49.5765 44.492 49.6033 43.7266 49.6033C42.9612 49.6033 42.3408 49.5762 42.3408 49.5432C42.3408 49.5102 42.9612 49.4832 43.7266 49.4832C44.4918 49.4832 45.1124 49.5099 45.1124 49.5432Z" fill="#E0E0E0"/>
<path d="M50.6558 49.5432C50.6558 49.5765 50.0354 49.6033 49.27 49.6033C48.5046 49.6033 47.8843 49.5762 47.8843 49.5432C47.8843 49.5102 48.5046 49.4832 49.27 49.4832C50.0352 49.4832 50.6558 49.5099 50.6558 49.5432Z" fill="#E0E0E0"/>
<path d="M56.1988 49.5432C56.1988 49.5765 55.5784 49.6033 54.813 49.6033C54.0476 49.6033 53.4272 49.5762 53.4272 49.5432C53.4272 49.5102 54.0476 49.4832 54.813 49.4832C55.5782 49.4832 56.1988 49.5099 56.1988 49.5432Z" fill="#E0E0E0"/>
<path d="M61.7417 49.5432C61.7417 49.5765 61.1214 49.6033 60.356 49.6033C59.5906 49.6033 58.9702 49.5762 58.9702 49.5432C58.9702 49.5102 59.5906 49.4832 60.356 49.4832C61.1212 49.4832 61.7417 49.5099 61.7417 49.5432Z" fill="#E0E0E0"/>
<path d="M67.2847 49.5432C67.2847 49.5765 66.6644 49.6033 65.8989 49.6033C65.1335 49.6033 64.5132 49.5762 64.5132 49.5432C64.5132 49.5102 65.1335 49.4832 65.8989 49.4832C66.6641 49.4832 67.2847 49.5099 67.2847 49.5432Z" fill="#E0E0E0"/>
<path d="M72.8277 49.5432C72.8277 49.5765 72.2073 49.6033 71.4419 49.6033C70.6765 49.6033 70.0562 49.5762 70.0562 49.5432C70.0562 49.5102 70.6765 49.4832 71.4419 49.4832C72.2071 49.4832 72.8277 49.5099 72.8277 49.5432Z" fill="#E0E0E0"/>
<path d="M78.3711 49.5432C78.3711 49.5765 77.7508 49.6033 76.9854 49.6033C76.22 49.6033 75.5996 49.5762 75.5996 49.5432C75.5996 49.5102 76.22 49.4832 76.9854 49.4832C77.7505 49.4832 78.3711 49.5099 78.3711 49.5432Z" fill="#E0E0E0"/>
<path d="M83.9141 49.5432C83.9141 49.5765 83.2937 49.6033 82.5283 49.6033C81.7629 49.6033 81.1426 49.5762 81.1426 49.5432C81.1426 49.5102 81.7629 49.4832 82.5283 49.4832C83.2935 49.4832 83.9141 49.5099 83.9141 49.5432Z" fill="#E0E0E0"/>
<path d="M89.4571 49.5432C89.4571 49.5765 88.8367 49.6033 88.0713 49.6033C87.3059 49.6033 86.6855 49.5762 86.6855 49.5432C86.6855 49.5102 87.3059 49.4832 88.0713 49.4832C88.8365 49.4832 89.4571 49.5099 89.4571 49.5432Z" fill="#E0E0E0"/>
<path d="M95 49.5432C95 49.5765 94.3797 49.6033 93.6143 49.6033C92.8489 49.6033 92.2285 49.5762 92.2285 49.5432C92.2285 49.5102 92.8489 49.4832 93.6143 49.4832C94.3795 49.4832 95 49.5099 95 49.5432Z" fill="#E0E0E0"/>
<path d="M98.5025 51.5837C98.4692 51.5837 98.4424 50.9634 98.4424 50.198C98.445 49.9672 98.4473 49.7497 98.4496 49.5432L98.5025 49.5961C98.0657 49.5859 97.7715 49.566 97.7715 49.5432C97.7715 49.5203 98.0657 49.5005 98.5025 49.4903L98.5549 49.4891L98.5556 49.5434C98.5579 49.7499 98.5602 49.9675 98.5628 50.1982C98.5625 50.9634 98.5357 51.5837 98.5025 51.5837Z" fill="#E0E0E0"/>
<path d="M98.5024 57.1268C98.4692 57.1268 98.4424 56.5064 98.4424 55.741C98.4424 54.9756 98.4694 54.3552 98.5024 54.3552C98.5357 54.3552 98.5625 54.9756 98.5625 55.741C98.5625 56.5064 98.5357 57.1268 98.5024 57.1268Z" fill="#E0E0E0"/>
<path d="M98.5024 62.6698C98.4692 62.6698 98.4424 62.0495 98.4424 61.2841C98.4424 60.5187 98.4694 59.8983 98.5024 59.8983C98.5357 59.8983 98.5625 60.5187 98.5625 61.2841C98.5625 62.0495 98.5357 62.6698 98.5024 62.6698Z" fill="#E0E0E0"/>
<path d="M74.1594 86.2701C74.1594 86.3034 69.7064 86.3302 64.2144 86.3302C58.7208 86.3302 54.2686 86.3032 54.2686 86.2701C54.2686 86.2369 58.7206 86.2101 64.2144 86.2101C69.7064 86.2099 74.1594 86.2369 74.1594 86.2701Z" fill="#E0E0E0"/>
<path d="M74.1594 83.7007C74.1594 83.7339 69.7064 83.7607 64.2144 83.7607C58.7208 83.7607 54.2686 83.7337 54.2686 83.7007C54.2686 83.6674 58.7206 83.6406 64.2144 83.6406C69.7064 83.6406 74.1594 83.6674 74.1594 83.7007Z" fill="#E0E0E0"/>
<path d="M13.242 63.8951H12.0454V96.1671H13.242V63.8951Z" fill="#263238"/>
<path d="M12.6435 65.0476C16.486 65.0476 19.601 61.9327 19.601 58.0902C19.601 54.2477 16.486 51.1327 12.6435 51.1327C8.801 51.1327 5.68604 54.2477 5.68604 58.0902C5.68604 61.9327 8.801 65.0476 12.6435 65.0476Z" fill="#E8505B"/>
<path d="M18.9059 58.0049C18.9038 58.0049 18.9001 57.9705 18.8946 57.9036C18.8895 57.8313 18.8826 57.7326 18.8736 57.6065C18.8694 57.5407 18.8648 57.468 18.8597 57.3878C18.8509 57.3077 18.8336 57.2211 18.819 57.1266C18.7888 56.9379 18.7599 56.7192 18.6872 56.4815C18.5761 55.9988 18.3488 55.4283 17.9917 54.8241C17.6317 54.2225 17.1127 53.5941 16.4067 53.061C15.7029 52.533 14.8149 52.0838 13.7901 51.9025C12.7723 51.7277 11.6235 51.7595 10.5292 52.1753C10.2509 52.2644 9.98895 52.4023 9.71988 52.5314C9.58892 52.6025 9.46328 52.6855 9.33348 52.7624C9.20137 52.836 9.08035 52.9277 8.95909 53.0206C8.70688 53.1938 8.48632 53.4104 8.25536 53.619C8.0468 53.85 7.82739 54.0761 7.6477 54.3382C7.27839 54.8509 6.9562 55.4207 6.76104 56.0471C6.55895 56.6698 6.44994 57.331 6.44093 58.004C6.4497 58.6773 6.55849 59.3387 6.76058 59.9616C6.95551 60.5885 7.27793 61.1582 7.64724 61.6712C7.82715 61.9334 8.04634 62.1597 8.25512 62.3907C8.48609 62.5992 8.70665 62.8161 8.95886 62.9893C9.08012 63.0819 9.20114 63.1738 9.33325 63.2475C9.46305 63.3244 9.58869 63.4073 9.71965 63.4785C9.98872 63.6076 10.2506 63.7455 10.5289 63.8346C11.6232 64.2504 12.7723 64.2822 13.7901 64.1074C14.8149 63.9261 15.7029 63.4769 16.4067 62.9489C17.1127 62.4158 17.6314 61.7874 17.9915 61.1855C18.3486 60.5813 18.5756 60.0111 18.6869 59.5281C18.7595 59.2905 18.7883 59.0718 18.8188 58.8831C18.8331 58.7886 18.8507 58.702 18.8592 58.6218C18.8643 58.5419 18.8689 58.4689 18.8731 58.4031C18.8821 58.277 18.889 58.1784 18.8941 58.1061C18.9001 58.0394 18.9038 58.0049 18.9059 58.0049C18.908 58.0049 18.9082 58.0394 18.9068 58.1066C18.9045 58.1791 18.9015 58.2782 18.8978 58.405C18.8953 58.4713 18.8925 58.5445 18.8895 58.6251C18.8826 58.7057 18.8671 58.7932 18.8544 58.8884C18.8276 59.0787 18.8022 59.2995 18.7327 59.5399C18.6276 60.0279 18.4052 60.606 18.0497 61.2201C17.6913 61.8315 17.1709 62.4717 16.4586 63.0166C15.7486 63.5563 14.8493 64.0171 13.8088 64.2055C12.7755 64.3878 11.6068 64.3591 10.4915 63.939C10.2079 63.8487 9.94091 63.7094 9.66676 63.5783C9.53326 63.5062 9.40508 63.4221 9.27274 63.3438C9.13809 63.269 9.01452 63.1757 8.89096 63.0817C8.6339 62.9055 8.40871 62.6856 8.17313 62.4731C7.95996 62.2382 7.73662 62.008 7.55277 61.7412C7.17584 61.219 6.84696 60.6384 6.64764 59.9997C6.44116 59.3648 6.3303 58.6904 6.32129 58.0045C6.3303 57.3188 6.44139 56.6444 6.6481 56.0099C6.84765 55.3715 7.17631 54.7909 7.55323 54.2689C7.73685 54.0022 7.96042 53.7719 8.1736 53.537C8.40895 53.3248 8.63413 53.1046 8.89119 52.9287C9.01499 52.8344 9.13832 52.7413 9.27297 52.6665C9.40531 52.5882 9.53326 52.5044 9.66699 52.4323C9.94114 52.3011 10.2081 52.1619 10.4918 52.0718C11.6068 51.6517 12.7753 51.623 13.8088 51.8053C14.8493 51.9937 15.7486 52.4543 16.4586 52.994C17.1709 53.5388 17.6915 54.1788 18.0499 54.7904C18.4056 55.4046 18.628 55.9826 18.7331 56.4709C18.8026 56.7113 18.8283 56.9321 18.8551 57.1224C18.8675 57.2176 18.8832 57.3051 18.8902 57.3857C18.8932 57.4663 18.896 57.5396 18.8985 57.6058C18.9024 57.7326 18.9054 57.8315 18.9075 57.9042C18.9084 57.9705 18.908 58.0049 18.9059 58.0049Z" fill="white"/>
<path d="M16.2658 57.2203H9.021V58.7317H16.2658V57.2203Z" fill="#FAFAFA"/>
<path d="M105.918 49.1614L38.1543 54.6067L39.7351 74.2789L107.498 68.8336L105.918 49.1614Z" fill="white"/>
<path d="M107.496 68.8336C107.473 68.549 106.898 61.5618 105.878 49.1647L105.919 49.1994C90.1909 50.4683 65.6577 52.4476 38.1623 54.666L38.1582 54.6662L38.2134 54.6015C38.7584 61.3923 39.2889 68.0019 39.7924 74.2736L39.7294 74.2201C59.1497 72.6703 76.0833 71.3192 88.1635 70.3552C100.243 69.4045 107.212 68.856 107.496 68.8336C107.496 68.8336 107.386 68.8449 107.166 68.8638C106.945 68.8825 106.617 68.91 106.186 68.9463C105.32 69.0177 104.042 69.123 102.387 69.2592C99.0708 69.5297 94.2465 69.923 88.2092 70.4152C76.1198 71.3933 59.1737 72.7643 39.7389 74.3367L39.6804 74.3413L39.6758 74.2829C39.1714 68.0111 38.6397 61.4017 38.0937 54.611L38.0889 54.551L38.1489 54.5461L38.1531 54.5459C65.6499 52.3455 90.1844 50.3824 105.913 49.1239L105.95 49.1208L105.953 49.1585C106.926 61.5597 107.474 68.549 107.496 68.8336Z" fill="#263238"/>
<path d="M61.2838 54.8748L39.939 56.394L41.0809 72.4373L62.4257 70.918L61.2838 54.8748Z" fill="#E8505B"/>
<path d="M87.9936 68.8269C87.9963 68.8599 87.3804 68.9392 86.6177 69.0034C86.4877 68.8937 86.5817 68.9727 86.5526 68.9479V68.9475V68.9463L86.5524 68.944L86.5519 68.9396L86.5512 68.9306L86.5498 68.9128L86.5468 68.8775L86.5411 68.8073C86.5376 68.7611 86.5339 68.7154 86.5304 68.6701C86.5242 68.5819 86.5182 68.4957 86.512 68.4105C86.5036 68.259 86.4956 68.1128 86.4877 67.9705C86.4775 67.7197 86.4794 67.564 86.496 67.5626C86.5126 67.5612 86.5406 67.7146 86.5725 67.9636C86.5886 68.1052 86.6053 68.2507 86.6223 68.4015C86.6307 68.4862 86.639 68.5724 86.6478 68.6604C86.6519 68.7057 86.6561 68.7514 86.6602 68.7973L86.6665 68.8676L86.6695 68.9029L86.6711 68.9207L86.6718 68.9297L86.6722 68.9341L86.6725 68.9364V68.9375V68.938C86.6436 68.9137 86.7374 68.9932 86.6076 68.8837C87.3702 68.8193 87.9908 68.7939 87.9936 68.8269Z" fill="#E0E0E0"/>
<path d="M94.2621 68.2977C94.2648 68.3307 93.5655 68.4169 92.7001 68.4899C91.8344 68.5629 91.1307 68.5954 91.1279 68.5622C91.1252 68.5291 91.8243 68.443 92.6899 68.37C93.5553 68.297 94.2591 68.2645 94.2621 68.2977Z" fill="#E0E0E0"/>
<path d="M100.53 67.7683C100.533 67.8013 99.8336 67.8875 98.9682 67.9605C98.1025 68.0335 97.3988 68.066 97.396 68.0328C97.3932 67.9997 98.0924 67.9136 98.958 67.8406C99.8234 67.7676 100.527 67.7353 100.53 67.7683Z" fill="#E0E0E0"/>
<path d="M104.928 66.0064C104.961 66.0036 105.04 66.6196 105.105 67.3822C104.995 67.5122 105.074 67.4182 105.049 67.4473H105.049H105.047L105.045 67.4476L105.041 67.448L105.032 67.4487L105.014 67.4501L104.979 67.4531L104.908 67.4589C104.862 67.4626 104.817 67.466 104.771 67.4695C104.683 67.4757 104.597 67.482 104.512 67.488C104.36 67.4963 104.214 67.5044 104.072 67.5122C103.821 67.5224 103.665 67.5205 103.664 67.5039C103.662 67.4873 103.816 67.4593 104.065 67.4275C104.206 67.4113 104.352 67.3947 104.502 67.3776C104.587 67.3693 104.673 67.3607 104.761 67.3522C104.807 67.348 104.852 67.3439 104.898 67.3397L104.969 67.3335L105.004 67.3305L105.022 67.3288L105.031 67.3282L105.035 67.3277L105.037 67.3275L105.038 67.3272H105.039C105.015 67.3561 105.094 67.2623 104.985 67.3921C104.92 66.6297 104.895 66.0091 104.928 66.0064Z" fill="#E0E0E0"/>
<path d="M104.492 60.8363C104.525 60.8335 104.601 61.41 104.661 62.1237C104.721 62.8376 104.743 63.4185 104.71 63.4212C104.677 63.424 104.601 62.8477 104.541 62.1336C104.481 61.4199 104.459 60.8391 104.492 60.8363Z" fill="#E0E0E0"/>
<path d="M104.055 55.6663C104.088 55.6635 104.164 56.24 104.224 56.9536C104.285 57.6675 104.307 58.2484 104.274 58.2512C104.241 58.254 104.165 57.6777 104.105 56.9636C104.044 56.2499 104.022 55.669 104.055 55.6663Z" fill="#E0E0E0"/>
<path d="M102.34 51.8168C102.337 51.7838 102.953 51.7046 103.715 51.6404C103.845 51.7501 103.751 51.6711 103.781 51.6958V51.6963V51.6974L103.781 51.6997L103.781 51.7041L103.782 51.7131L103.783 51.7309L103.786 51.7665L103.792 51.8367C103.796 51.8829 103.799 51.9286 103.803 51.9739C103.809 52.0621 103.815 52.1483 103.821 52.2335C103.83 52.385 103.838 52.5312 103.845 52.6735C103.856 52.9243 103.854 53.08 103.837 53.0816C103.821 53.083 103.793 52.9296 103.761 52.6806C103.745 52.539 103.728 52.3935 103.711 52.2427C103.703 52.158 103.694 52.0718 103.685 51.9838C103.681 51.9386 103.677 51.893 103.673 51.8469L103.667 51.7766L103.664 51.7413L103.662 51.7235L103.661 51.7145L103.661 51.7101L103.661 51.7078L103.66 51.7067V51.706C103.689 51.7302 103.596 51.6508 103.725 51.7605C102.963 51.8247 102.343 51.8501 102.34 51.8168Z" fill="#E0E0E0"/>
<path d="M96.0713 52.3462C96.0685 52.3132 96.7679 52.227 97.6333 52.1538C98.4989 52.0808 99.2027 52.0483 99.2054 52.0815C99.2082 52.1146 98.5091 52.2007 97.6434 52.2737C96.778 52.3469 96.0741 52.3792 96.0713 52.3462Z" fill="#E0E0E0"/>
<path d="M89.8032 52.8756C89.8005 52.8426 90.4998 52.7564 91.3652 52.6834C92.2309 52.6105 92.9346 52.5779 92.9374 52.6109C92.9401 52.644 92.241 52.7301 91.3754 52.8031C90.5097 52.8763 89.806 52.9086 89.8032 52.8756Z" fill="#E0E0E0"/>
<path d="M85.405 54.6378C85.3719 54.6406 85.2927 54.0246 85.2285 53.262C85.3382 53.132 85.2592 53.226 85.284 53.1969H85.2844H85.2856L85.2879 53.1967L85.2923 53.1962L85.3013 53.1955L85.3191 53.1941L85.3544 53.1911L85.4246 53.1853C85.4708 53.1816 85.5165 53.1782 85.5618 53.1747C85.65 53.1685 85.7362 53.1625 85.8214 53.1562C85.9729 53.1479 86.1191 53.1398 86.2614 53.132C86.5122 53.1218 86.6679 53.1237 86.6695 53.1403C86.6709 53.1569 86.5175 53.1849 86.2685 53.2167C86.127 53.2329 85.9814 53.2495 85.8306 53.2666C85.7459 53.2749 85.6597 53.2835 85.5717 53.292C85.5265 53.2962 85.481 53.3004 85.4348 53.3045L85.3646 53.3107L85.3292 53.3138L85.3114 53.3154L85.3024 53.3161L85.298 53.3165L85.2957 53.3168H85.2946H85.2941C85.3184 53.2879 85.2389 53.3817 85.3484 53.2519C85.4126 54.0145 85.438 54.6348 85.405 54.6378Z" fill="#E0E0E0"/>
<path d="M85.8415 59.8076C85.8085 59.8104 85.7328 59.2339 85.6725 58.5202C85.6122 57.8063 85.5903 57.2254 85.6233 57.2227C85.6563 57.2199 85.7321 57.7961 85.7923 58.5103C85.8526 59.2239 85.8748 59.8048 85.8415 59.8076Z" fill="#E0E0E0"/>
<path d="M86.2781 64.9776C86.245 64.9804 86.1693 64.4039 86.109 63.6903C86.0487 62.9764 86.0268 62.3955 86.0598 62.3927C86.0928 62.3899 86.1686 62.9662 86.2289 63.6803C86.2889 64.394 86.3111 64.9749 86.2781 64.9776Z" fill="#E0E0E0"/>
<path d="M41.0767 72.4371L47.8221 61.9348L52.8841 67.8451L55.7789 64.2869L62.4211 70.9185L41.0767 72.4371Z" fill="#E8505B"/>
<path d="M54.3137 60.2451C54.3798 61.1733 53.6809 61.9791 52.7527 62.0452C51.8244 62.1112 51.0184 61.4123 50.9526 60.4841C50.8865 59.5559 51.5854 58.7498 52.5136 58.684C53.4416 58.618 54.2477 59.3168 54.3137 60.2451Z" fill="#E8505B"/>
<g opacity="0.2">
<path d="M41.0767 72.4371L47.8221 61.9348L52.8841 67.8451L55.7789 64.2869L62.4211 70.9185L41.0767 72.4371Z" fill="black"/>
</g>
<g opacity="0.2">
<path d="M54.3137 60.2451C54.3798 61.1733 53.6809 61.9791 52.7527 62.0452C51.8244 62.1112 51.0184 61.4123 50.9526 60.4841C50.8865 59.5559 51.5854 58.7498 52.5136 58.684C53.4416 58.618 54.2477 59.3168 54.3137 60.2451Z" fill="black"/>
</g>
<path d="M83.534 57.6398C83.537 57.6728 79.3875 58.083 74.2671 58.5556C69.1449 59.0284 64.9913 59.3847 64.9883 59.3517C64.9853 59.3187 69.1338 58.9087 74.2561 58.4359C79.3765 57.9632 83.531 57.6068 83.534 57.6398Z" fill="#263238"/>
<path d="M84.071 60.726C84.074 60.759 79.8784 61.1733 74.7009 61.6512C69.5216 62.1293 65.3219 62.4898 65.3188 62.4568C65.3158 62.4238 69.5106 62.0094 74.6899 61.5313C79.8673 61.0537 84.068 60.6929 84.071 60.726Z" fill="#263238"/>
<path d="M84.6074 63.812C84.6104 63.845 80.37 64.2635 75.1371 64.7465C69.9024 65.2297 65.6578 65.5943 65.6548 65.5613C65.6518 65.5283 69.8913 65.1098 75.126 64.6266C80.3589 64.1439 84.6044 63.779 84.6074 63.812Z" fill="#263238"/>
<path d="M84.7185 66.8718C84.7215 66.9049 80.4759 67.3238 75.2368 67.8074C69.9959 68.2911 65.7462 68.6565 65.7432 68.6234C65.7402 68.5904 69.9848 68.1714 75.2257 67.6878C80.4648 67.2042 84.7154 66.8388 84.7185 66.8718Z" fill="#263238"/>
<path d="M74.338 55.5979L64.5752 56.3824L64.6374 57.1569L74.4002 56.3724L74.338 55.5979Z" fill="#E8505B"/>
<path d="M95.384 62.7365C95.3509 62.7392 95.2253 61.5999 95.1033 60.192C94.9814 58.7836 94.9096 57.6398 94.9426 57.6368C94.9756 57.6341 95.1013 58.7732 95.2232 60.1816C95.3452 61.5897 95.4172 62.7337 95.384 62.7365Z" fill="#E0E0E0"/>
<path d="M97.5189 60.0648C97.521 60.098 96.4247 60.1943 95.0705 60.28C93.7157 60.3657 92.6163 60.4084 92.6143 60.3754C92.6122 60.3424 93.7083 60.2458 95.0629 60.1601C96.417 60.0742 97.5166 60.0315 97.5189 60.0648Z" fill="#E0E0E0"/>
<path d="M105.916 49.1615C105.916 49.1615 105.86 49.1437 105.753 49.1035C105.644 49.0617 105.486 49.0014 105.28 48.9227C104.862 48.7601 104.25 48.5222 103.461 48.2154C101.878 47.5946 99.5868 46.6962 96.7421 45.5809C91.0501 43.3373 83.1438 40.221 74.2747 36.7251L74.3234 36.7231C73.4183 37.1723 72.454 37.6508 71.48 38.1342C62.2813 42.6916 53.9547 46.8167 47.9246 49.8045C44.9101 51.2914 42.4702 52.4952 40.7803 53.3287C39.9377 53.7414 39.283 54.062 38.8351 54.2814C38.6143 54.3881 38.4453 54.4696 38.3279 54.5265C38.2134 54.581 38.1533 54.6061 38.1533 54.6061C38.1533 54.6061 38.2097 54.5736 38.3224 54.5154C38.4386 54.4562 38.6058 54.371 38.8243 54.2597C39.2698 54.0357 39.9211 53.7082 40.7593 53.2869C42.445 52.4453 44.8791 51.2299 47.8865 49.7285C53.9127 46.7329 62.2338 42.5964 71.4262 38.0268C72.4002 37.5437 73.3645 37.0651 74.2696 36.6159L74.2936 36.6041L74.3183 36.6138C83.1819 40.1237 91.0828 43.2526 96.7716 45.5051C99.6106 46.6352 101.897 47.5452 103.477 48.1741C104.263 48.4894 104.872 48.734 105.288 48.9012C105.492 48.9843 105.649 49.0481 105.757 49.0924C105.863 49.1365 105.916 49.1615 105.916 49.1615Z" fill="#263238"/>
<path d="M92.1184 16.8921C91.7643 16.1146 90.8471 15.7717 90.0697 16.1257C89.7226 16.2839 89.463 16.5546 89.3124 16.8747L86.8979 17.0738L89.3385 21.8841L90.867 19.0707C91.0305 19.0541 91.1943 19.0123 91.3523 18.9405C92.1294 18.5866 92.4727 17.6695 92.1184 16.8921Z" fill="#263238"/>
<path d="M78.1872 9.9226L79.7623 9.25097L75.9623 8.29364C75.7261 7.9248 75.3362 7.6578 74.8683 7.59429C74.022 7.4795 73.2428 8.07261 73.128 8.91908C73.0132 9.76555 73.6063 10.5446 74.4528 10.6594C74.8791 10.7171 75.2882 10.5952 75.6041 10.3517L79.2131 12.5593L78.1872 9.9226Z" fill="#263238"/>
<path d="M108.597 57.1445L108.587 57.1127L82.5177 8.5102L82.3705 8.23535L78.2622 10.1071L97.926 61.9333L97.9375 61.9645L109.645 80.5792L109.882 80.5443L110.152 80.5046L110.365 80.4732L107.943 76.6222L109.357 72.9753L113.106 74.3634L114.757 79.8258L114.954 79.7967L115.203 79.76L115.422 79.7277L108.597 57.1445ZM110.281 65.0194L105.602 63.817L108.316 58.5174L110.281 65.0194ZM105.189 63.711L99.4325 62.2321L107.928 58.3617L105.189 63.711ZM107.362 56.2366L101.382 54.5843L103.835 49.6621L107.362 56.2366ZM100.974 54.4716L95.7101 53.017L103.458 49.4873L100.974 54.4716ZM103.101 48.2925L97.5913 46.3716L99.5556 41.6826L103.101 48.2925ZM97.1973 46.2344L92.3575 44.5472L99.2127 41.4242L97.1973 46.2344ZM98.7757 40.229L93.7599 38.0626L95.245 33.6466L98.7757 40.229ZM93.377 37.8972L89.0823 36.0423L94.8907 33.3962L93.377 37.8972ZM94.5258 32.3056L94.4971 32.3188L89.9858 29.8801L90.9888 25.7115L94.5258 32.3056ZM90.0846 24.0255L86.1495 21.3826L86.6708 17.6609L90.0846 24.0255ZM85.7657 21.1248L82.6022 19.0002L86.2992 17.316L85.7657 21.1248ZM82.414 9.72436L85.7546 15.9524L82.3188 13.0583L82.414 9.72436ZM81.7756 17.4904L79.3523 11.1034L81.8971 13.247L81.7756 17.4904ZM81.9121 12.7158L79.1842 10.4179L82.0146 9.12848L81.9121 12.7158ZM82.3036 13.5895L85.6088 16.3737L82.1793 17.9362L82.3036 13.5895ZM82.5165 19.4437L85.7015 21.5826L85.0615 26.1512L82.5165 19.4437ZM86.0853 21.8406L89.9119 24.4105L85.44 26.4475L86.0853 21.8406ZM90.6533 25.3295L89.6075 29.6752L85.7229 27.5753L90.6533 25.3295ZM85.7961 28.0876L89.5068 30.0935L88.3621 34.8506L85.7961 28.0876ZM89.8853 30.2981L94.0227 32.5347L88.7714 34.927L89.8853 30.2981ZM88.9675 36.4458L93.2439 38.2928L91.5637 43.2885L88.9675 36.4458ZM93.6269 38.4584L98.42 40.5288L91.9374 43.4821L93.6269 38.4584ZM92.1854 44.9276L97.0363 46.6187L94.8274 51.8909L92.1854 44.9276ZM97.4301 46.7562L102.678 48.5858L95.2448 51.9724L97.4301 46.7562ZM95.3843 53.3586L100.785 54.8509L98.0403 60.3586L95.3843 53.3586ZM101.193 54.9638L107.063 56.5856L98.4242 60.521L101.193 54.9638ZM99.1106 62.5791L104.994 64.0905L102.78 68.4133L99.1106 62.5791ZM105.407 64.1967L110.215 65.4319L103.118 68.6651L105.407 64.1967ZM107.667 76.1833L104.524 71.186L108.967 72.8309L107.667 76.1833ZM109.117 72.4432L104.16 70.6082L104.04 70.4165L110.96 67.2639L111.032 67.5038L109.117 72.4432ZM109.507 72.5875L111.228 68.1498L112.955 73.8638L109.507 72.5875Z" fill="#263238"/>
<path d="M74.258 31.5063C74.258 31.5063 74.2532 31.367 74.2509 31.0959C74.2492 30.8224 74.2469 30.4201 74.2439 29.8944C74.2409 28.8375 74.2365 27.2864 74.231 25.2988C74.2262 21.3184 74.219 15.5924 74.2104 8.59891V8.55618L74.2532 8.55179C76.5314 8.31228 78.99 8.05407 81.5702 7.78292L81.597 7.78015L81.6151 7.80024C87.1803 14.0207 93.7077 21.3165 100.657 29.0837C111.482 41.1995 121.28 52.166 128.374 60.1059C131.915 64.078 134.78 67.2925 136.763 69.516C137.75 70.6276 138.517 71.4909 139.039 72.0785C139.297 72.3711 139.494 72.5947 139.628 72.7469C139.761 72.8979 139.826 72.9774 139.826 72.9774C139.826 72.9774 139.755 72.9035 139.619 72.7552C139.483 72.6049 139.283 72.3838 139.021 72.0947C138.495 71.5106 137.722 70.6523 136.728 69.5474C134.739 67.3299 131.863 64.1242 128.31 60.1628C121.21 52.229 111.403 41.2706 100.567 29.1641C93.6225 21.3932 87.099 14.0939 81.537 7.87046L81.5816 7.88778C79.0008 8.15546 76.542 8.41044 74.2636 8.64672L74.3061 8.5996C74.2975 15.5931 74.2904 21.3191 74.2855 25.2995C74.28 27.2871 74.2756 28.8382 74.2726 29.8951C74.2696 30.421 74.2673 30.8231 74.2657 31.0966C74.2626 31.367 74.258 31.5063 74.258 31.5063Z" fill="#263238"/>
<path d="M74.6781 27.4875H73.6873C73.6384 27.4875 73.5986 27.4478 73.5986 27.3988V25.071C73.5986 25.022 73.6384 24.9823 73.6873 24.9823H74.6781C74.7271 24.9823 74.7668 25.022 74.7668 25.071V27.3988C74.7668 27.4478 74.7271 27.4875 74.6781 27.4875Z" fill="#263238"/>
<path d="M76.1646 27.8758H72.3282C72.0921 27.8758 71.9009 27.6846 71.9009 27.4485C71.9009 27.2125 72.0921 27.0212 72.3282 27.0212H76.1646C76.4007 27.0212 76.5919 27.2125 76.5919 27.4485C76.5919 27.6843 76.4007 27.8758 76.1646 27.8758Z" fill="#263238"/>
<path d="M74.5268 34.7391L74.5125 34.1921L73.9492 34.4321C73.9273 34.6337 73.924 34.8372 73.9397 35.0393C73.9423 35.0721 73.9457 35.1058 73.9617 35.1345C73.9889 35.1839 74.0462 35.2067 74.0982 35.2289C74.3402 35.3317 74.5642 35.5005 74.6788 35.7373C74.7934 35.9738 74.8125 36.4874 74.2968 36.6699C73.8432 36.8304 73.4406 36.405 73.4351 36.208C73.4323 36.1147 73.4344 35.9805 73.3046 35.968C73.1166 35.9497 73.0364 36.2223 73.0418 36.3659C73.072 37.1958 73.8513 37.4588 74.1834 37.4704C74.4074 37.4782 74.6356 37.4422 74.8287 37.3311C75.141 37.1512 75.3733 36.8302 75.435 36.4752C75.622 35.3941 74.4677 34.8086 74.5268 34.7391Z" fill="#263238"/>
<path d="M75.0096 34.4674L77.4613 28.5659C77.683 28.0321 77.2908 27.4446 76.7127 27.4446H74.2611H71.8094C71.2313 27.4446 70.8392 28.0321 71.0609 28.5659L73.5125 34.4674C73.7895 35.1335 74.7329 35.1335 75.0096 34.4674Z" fill="#E0E0E0"/>
<path d="M72.0593 27.8633L71.4258 28.4968C71.432 28.5208 71.4269 28.5453 71.4369 28.5691L71.644 29.068L72.8485 27.8635L72.0593 27.8633Z" fill="#E8505B"/>
<path d="M74.4267 27.8633H73.6377L71.8755 29.625L72.1071 30.1828L74.4267 27.8633Z" fill="#E8505B"/>
<path d="M76.1117 30.9128L76.6727 29.5629L73.2651 32.9705L73.4968 33.528L76.1117 30.9128Z" fill="#E8505B"/>
<path d="M75.5508 32.2631L73.728 34.0856L73.7897 34.2341C73.8474 34.3736 73.9541 34.4704 74.0862 34.5165L74.9898 33.613L75.5508 32.2631Z" fill="#E8505B"/>
<path d="M76.0049 27.8633H75.2155L72.3384 30.7404L72.57 31.2979L76.0049 27.8633Z" fill="#E8505B"/>
<path d="M77.1233 28.3231C77.1154 28.2415 77.0872 28.1621 77.0392 28.09C76.9718 27.9889 76.8701 27.9318 76.7586 27.8986L72.8018 31.8554L73.0334 32.4129L77.1233 28.3231Z" fill="#E8505B"/>
<path d="M142.137 74.1936H136.799V72.3134C136.799 71.9769 137.072 71.7041 137.408 71.7041H141.528C141.864 71.7041 142.137 71.9769 142.137 72.3134V74.1936Z" fill="#263238"/>
<path d="M127.467 73.5752H126.592V68.3702C126.592 68.1393 126.628 67.9099 126.699 67.6901L127.138 66.3278C127.147 66.3015 127.183 66.2978 127.196 66.3218L127.713 67.2346L127.576 67.6573C127.504 67.8824 127.467 68.1176 127.467 68.3543V73.5752Z" fill="#263238"/>
<path d="M149.041 74.5235C148.791 73.923 148.252 73.4911 147.612 73.3766L125.715 73.3662V69.7198C125.715 69.2299 125.318 68.8329 124.829 68.8329H114.25C113.865 68.8329 113.524 69.0814 113.406 69.4479L113.09 70.4508H114.267C114.542 70.4508 114.799 70.5702 114.973 70.778C115.147 70.9861 115.215 71.2559 115.159 71.5187L114.026 76.8872C113.939 77.2983 113.564 77.5967 113.134 77.5967H110.885C110.858 77.9383 110.874 78.2829 110.947 78.6208L111.072 79.1571L105.278 80.2969C105.184 80.3153 105.11 80.3881 105.089 80.4821L104.544 81.9464C104.512 82.0034 104.486 82.0753 104.466 82.1568L104.463 82.1644H104.464C104.347 82.6487 104.433 83.4571 104.724 83.4571H110.931L110.659 83.762L110.309 84.8514H149.74C149.75 81.3189 149.657 76.0024 149.041 74.5235ZM121.717 71.1926L121.134 76.4652C121.127 76.5322 121.116 76.5987 121.103 76.6641C120.892 77.739 119.894 78.4794 118.798 78.478L116.198 78.4748C115.688 78.4741 115.308 78.0025 115.416 77.5038L116.64 71.1612C116.724 70.7492 117.09 70.4508 117.51 70.4508H121.053C121.243 70.4508 121.424 70.5321 121.551 70.6734C121.677 70.8148 121.738 71.0039 121.717 71.1926Z" fill="#E8505B"/>
<path d="M131.411 87.4797L114.633 87.7144C114.524 87.7144 114.331 87.3913 114.331 87.2823V85.4094C114.331 85.3004 114.42 85.2119 114.529 85.2119H131.411C131.52 85.2119 131.609 85.3004 131.609 85.4094V87.2823C131.609 87.3913 131.52 87.4797 131.411 87.4797Z" fill="#455A64"/>
<path d="M121.717 71.1914L121.134 76.464C121.127 76.5312 121.116 76.5975 121.104 76.6629C120.892 77.7378 119.894 78.4782 118.798 78.4769L116.198 78.4736C115.688 78.4729 115.308 78.0013 115.417 77.5027L116.64 71.16C116.724 70.748 117.091 70.4496 117.51 70.4496H121.053C121.243 70.4496 121.424 70.5309 121.551 70.6722C121.677 70.8133 121.738 71.0027 121.717 71.1914Z" fill="#E8505B"/>
<mask id="mask0_766_5895" style="mask-type:luminance" maskUnits="userSpaceOnUse" x="115" y="70" width="7" height="9">
<path d="M121.717 71.1914L121.134 76.464C121.127 76.5312 121.116 76.5975 121.104 76.6629C120.892 77.7378 119.894 78.4782 118.798 78.4769L116.198 78.4736C115.688 78.4729 115.308 78.0013 115.417 77.5027L116.64 71.16C116.724 70.748 117.091 70.4496 117.51 70.4496H121.053C121.243 70.4496 121.424 70.5309 121.551 70.6722C121.677 70.8133 121.738 71.0027 121.717 71.1914Z" fill="white"/>
</mask>
<g mask="url(#mask0_766_5895)">
<path d="M113.406 69.4467L111.038 76.8031C110.849 77.3902 110.818 78.0168 110.947 78.6196L111.96 83.3224H118.38H125.716V69.7186C125.716 69.2287 125.319 68.8319 124.829 68.8319H114.25C113.865 68.8317 113.524 69.0802 113.406 69.4467Z" fill="#E8505B"/>
</g>
<path d="M116.198 78.4747C115.688 78.474 115.308 78.0024 115.417 77.5038L116.64 71.1611C116.724 70.7491 117.091 70.4507 117.51 70.4507H121.053C121.243 70.4507 121.424 70.5317 121.551 70.6731C121.677 70.8144 121.738 71.0038 121.717 71.1925L121.134 76.4651C121.127 76.5321 121.116 76.5986 121.104 76.664C120.892 77.7389 119.894 78.4793 118.798 78.478L116.198 78.4747Z" fill="#455A64"/>
<path d="M110.887 77.6072C110.909 77.3486 110.961 77.0931 111.042 76.8467L113.098 70.4613H114.275C114.55 70.4613 114.807 70.5807 114.981 70.7886C115.155 70.9964 115.223 71.2664 115.167 71.5293L114.034 76.8977C113.947 77.3088 113.572 77.6072 113.141 77.6072H110.887Z" fill="#455A64"/>
<path d="M149.774 85.8935H110.362C110.061 85.8935 110.061 84.8018 110.362 84.8018H149.774C150.076 84.8018 150.076 85.8935 149.774 85.8935Z" fill="#263238"/>
<path d="M125.75 73.6459C125.752 73.6459 125.753 73.6657 125.754 73.7043C125.754 73.7498 125.753 73.8062 125.753 73.8752C125.75 74.035 125.745 74.2542 125.739 74.5318C125.721 75.112 125.696 75.9342 125.665 76.9458C125.629 77.9681 125.587 79.1804 125.54 80.5257C125.527 80.8627 125.514 81.208 125.502 81.5609C125.484 81.9117 125.457 82.2924 125.27 82.6328C125.087 82.9767 124.734 83.2081 124.363 83.3144C123.989 83.4257 123.596 83.4488 123.205 83.4509C120.097 83.3924 117.284 83.3395 115.236 83.301C114.224 83.2758 113.402 83.2555 112.822 83.2411C112.544 83.2317 112.325 83.2243 112.165 83.2187C112.096 83.215 112.04 83.2123 111.994 83.21C111.956 83.2072 111.937 83.2049 111.937 83.2028C111.937 83.2007 111.956 83.1991 111.995 83.1977C112.04 83.1968 112.096 83.1959 112.166 83.1947C112.325 83.1947 112.545 83.1945 112.822 83.1945C113.403 83.1998 114.225 83.2072 115.237 83.2162C117.285 83.2458 120.097 83.2862 123.205 83.3308C123.59 83.3289 123.973 83.3054 124.328 83.2C124.681 83.0984 125 82.8875 125.166 82.576C125.338 82.2672 125.369 81.9034 125.386 81.5558C125.401 81.2034 125.415 80.8586 125.429 80.5218C125.485 79.1769 125.536 77.9648 125.579 76.9431C125.626 75.9319 125.665 75.1104 125.692 74.5305C125.707 74.2533 125.719 74.0343 125.728 73.8748C125.733 73.8057 125.737 73.7498 125.741 73.7043C125.745 73.6655 125.748 73.6459 125.75 73.6459Z" fill="#263238"/>
<path d="M114.519 83.3773C114.486 83.3773 114.459 82.2218 114.459 80.7968C114.459 79.3713 114.486 78.2161 114.519 78.2161C114.552 78.2161 114.579 79.3713 114.579 80.7968C114.579 82.2218 114.552 83.3773 114.519 83.3773Z" fill="#263238"/>
<path d="M116.58 68.8746C116.589 68.876 116.573 69.0088 116.537 69.2476C116.502 69.4865 116.445 69.8311 116.37 70.2563C116.22 71.1062 115.991 72.2769 115.703 73.5622C115.415 74.848 115.123 76.0044 114.896 76.8375C114.783 77.2539 114.687 77.59 114.617 77.8209C114.547 78.0521 114.505 78.1787 114.497 78.1766C114.489 78.1745 114.516 78.0436 114.572 77.8089C114.634 77.5542 114.715 77.22 114.813 76.8162C115.019 75.9785 115.298 74.8203 115.586 73.5361C115.873 72.2522 116.115 71.0859 116.286 70.2405C116.37 69.8336 116.438 69.4966 116.491 69.2398C116.541 69.0033 116.572 68.8733 116.58 68.8746Z" fill="#263238"/>
<path d="M121.143 80.5735C121.141 80.5608 121.236 80.5705 121.359 80.485C121.417 80.4414 121.479 80.3707 121.506 80.2716C121.529 80.1753 121.529 80.0432 121.465 79.9379C121.401 79.8293 121.272 79.7494 121.122 79.7582C120.956 79.7601 120.781 79.7619 120.599 79.7637C120.227 79.7651 119.824 79.7667 119.4 79.7684C119.214 79.7647 119.055 79.9236 119.047 80.097C119.022 80.2811 119.129 80.4451 119.283 80.4977C119.321 80.5109 119.36 80.5181 119.399 80.519C119.444 80.5194 119.488 80.5199 119.531 80.5204C119.618 80.5213 119.703 80.5224 119.785 80.5234C119.946 80.5259 120.099 80.5285 120.241 80.5308C120.519 80.5363 120.745 80.5428 120.901 80.5499C121.057 80.5573 121.143 80.5652 121.143 80.5735C121.143 80.5818 121.057 80.5897 120.901 80.5968C120.746 80.604 120.52 80.6104 120.241 80.616C120.099 80.6183 119.947 80.6208 119.786 80.6234C119.703 80.6243 119.618 80.6255 119.532 80.6264C119.488 80.6268 119.444 80.6273 119.399 80.6275C119.348 80.6275 119.297 80.6192 119.247 80.6026C119.044 80.543 118.899 80.3088 118.93 80.0892C118.938 79.8573 119.151 79.6432 119.401 79.648C119.824 79.6496 120.227 79.6513 120.599 79.6527C120.782 79.6545 120.956 79.6563 121.122 79.6582C121.303 79.6517 121.469 79.7594 121.539 79.8954C121.577 79.9626 121.593 80.036 121.594 80.1042C121.596 80.1672 121.591 80.2347 121.571 80.291C121.532 80.4058 121.454 80.4811 121.385 80.5238C121.314 80.5659 121.25 80.5779 121.208 80.5802C121.165 80.5827 121.143 80.5767 121.143 80.5735Z" fill="#E8505B"/>
<path d="M147.181 74.9069C147.181 74.9401 145.57 74.9669 143.583 74.9669C141.596 74.9669 139.985 74.9399 139.985 74.9069C139.985 74.8738 141.596 74.8468 143.583 74.8468C145.57 74.8468 147.181 74.8736 147.181 74.9069Z" fill="#263238"/>
<path d="M147.181 75.623C147.181 75.6563 145.57 75.6831 143.583 75.6831C141.596 75.6831 139.985 75.6561 139.985 75.623C139.985 75.5898 141.596 75.563 143.583 75.563C145.57 75.5628 147.181 75.5898 147.181 75.623Z" fill="#263238"/>
<path d="M147.181 76.3392C147.181 76.3725 145.57 76.3993 143.583 76.3993C141.596 76.3993 139.985 76.3725 139.985 76.3392C139.985 76.306 141.596 76.2792 143.583 76.2792C145.57 76.2789 147.181 76.306 147.181 76.3392Z" fill="#263238"/>
<path d="M147.181 77.0553C147.181 77.0885 145.57 77.1153 143.583 77.1153C141.596 77.1153 139.985 77.0885 139.985 77.0553C139.985 77.022 141.596 76.9952 143.583 76.9952C145.57 76.9952 147.181 77.0223 147.181 77.0553Z" fill="#263238"/>
<path d="M147.181 77.7715C147.181 77.8047 145.57 77.8315 143.583 77.8315C141.596 77.8315 139.985 77.8045 139.985 77.7715C139.985 77.7385 141.596 77.7114 143.583 77.7114C145.57 77.7114 147.181 77.7382 147.181 77.7715Z" fill="#263238"/>
<path d="M147.181 78.4877C147.181 78.5209 145.57 78.5477 143.583 78.5477C141.596 78.5477 139.985 78.5207 139.985 78.4877C139.985 78.4546 141.596 78.4276 143.583 78.4276C145.57 78.4274 147.181 78.4544 147.181 78.4877Z" fill="#263238"/>
<path d="M147.181 79.2038C147.181 79.2371 145.57 79.2639 143.583 79.2639C141.596 79.2639 139.985 79.2369 139.985 79.2038C139.985 79.1706 141.596 79.1438 143.583 79.1438C145.57 79.1436 147.181 79.1706 147.181 79.2038Z" fill="#263238"/>
<path d="M106.327 96.2135C104.167 96.2135 102.35 94.1307 102.35 91.9706C102.35 89.8104 104.251 87.9883 106.411 87.9883L141.199 86.4155C142.997 86.3342 144.723 87.2562 145.562 88.8484C146.005 89.6877 146.236 90.7543 145.95 92.0724C145.04 96.2757 141.537 96.2237 140.178 96.1332C138.82 96.0422 106.327 96.2135 106.327 96.2135Z" fill="#263238"/>
<path d="M106.327 95.1934C108.122 95.1934 109.576 93.7387 109.576 91.9442C109.576 90.1498 108.122 88.6951 106.327 88.6951C104.533 88.6951 103.078 90.1498 103.078 91.9442C103.078 93.7387 104.533 95.1934 106.327 95.1934Z" fill="#455A64"/>
<path d="M140.98 95.4866C143.301 95.4866 145.183 93.6049 145.183 91.2836C145.183 88.9623 143.301 87.0806 140.98 87.0806C138.659 87.0806 136.777 88.9623 136.777 91.2836C136.777 93.6049 138.659 95.4866 140.98 95.4866Z" fill="#455A64"/>
<path d="M141.45 87.2132C141.45 87.2153 141.42 87.2201 141.36 87.2273C141.294 87.2347 141.206 87.2444 141.094 87.2571C140.854 87.2811 140.511 87.3158 140.072 87.3596C139.185 87.4474 137.899 87.5622 136.309 87.6922C133.13 87.9537 128.733 88.2558 123.87 88.4708C119.006 88.684 114.599 88.7694 111.409 88.7886C109.814 88.7985 108.523 88.7974 107.631 88.7879C107.19 88.7826 106.846 88.7784 106.604 88.7757C106.491 88.7731 106.403 88.7711 106.337 88.7694C106.277 88.7674 106.246 88.7653 106.246 88.7632C106.246 88.7611 106.277 88.759 106.337 88.7572C106.403 88.7558 106.492 88.754 106.604 88.7514C106.845 88.7491 107.19 88.7456 107.631 88.7413C108.529 88.7322 109.818 88.7195 111.408 88.7036C114.596 88.6627 119.002 88.5639 123.865 88.3507C128.726 88.1357 133.122 87.847 136.302 87.6075C137.887 87.4834 139.172 87.383 140.068 87.313C140.508 87.2786 140.851 87.2518 141.092 87.2328C141.205 87.2255 141.293 87.2195 141.359 87.2151C141.419 87.2118 141.45 87.2111 141.45 87.2132Z" fill="#455A64"/>
<path d="M140.112 95.089C140.112 95.1222 132.548 95.149 123.218 95.149C113.885 95.149 106.322 95.122 106.322 95.089C106.322 95.0557 113.885 95.0289 123.218 95.0289C132.548 95.0289 140.112 95.0557 140.112 95.089Z" fill="#455A64"/>
<path d="M112.122 83.2646C112.105 83.2683 112.025 82.9528 111.883 82.4468C111.742 81.9401 111.536 81.243 111.328 80.4663C111.118 79.69 110.96 78.9761 110.893 78.4507C110.862 78.1876 110.853 77.9726 110.857 77.8243C110.868 77.6756 110.878 77.5948 110.886 77.5955C110.906 77.5971 110.885 77.9216 110.978 78.4382C111.065 78.9549 111.235 79.6603 111.444 80.4351C111.652 81.21 111.845 81.9119 111.965 82.4253C112.025 82.6819 112.07 82.8907 112.095 83.0362C112.12 83.1817 112.131 83.2628 112.122 83.2646Z" fill="#E8505B"/>
<path d="M138.665 93.8789C138.662 93.8842 138.572 93.8339 138.425 93.7198C138.277 93.6064 138.081 93.4182 137.883 93.1486C137.685 92.88 137.496 92.5223 137.377 92.0943C137.257 91.6682 137.218 91.1691 137.313 90.6633C137.414 90.1586 137.638 89.7105 137.909 89.3602C138.18 89.0082 138.489 88.7472 138.774 88.5728C139.058 88.3973 139.311 88.2964 139.49 88.2467C139.669 88.1961 139.772 88.1832 139.773 88.1894C139.782 88.216 139.366 88.2818 138.82 88.6442C138.549 88.8232 138.254 89.083 137.998 89.4272C137.74 89.7697 137.529 90.2023 137.431 90.6864C137.34 91.1716 137.374 91.6518 137.484 92.0657C137.593 92.4809 137.768 92.8322 137.953 93.0999C138.323 93.6406 138.684 93.8579 138.665 93.8789Z" fill="#FAFAFA"/>
<path d="M120.406 74.129C120.426 74.156 119.618 74.7743 118.601 75.5099C117.585 76.2457 116.745 76.8203 116.725 76.7935C116.706 76.7668 117.514 76.1485 118.531 75.4124C119.547 74.6768 120.387 74.1022 120.406 74.129Z" fill="white"/>
<path d="M120.683 73.1481C120.702 73.1753 119.998 73.7008 119.111 74.3213C118.222 74.9422 117.488 75.4235 117.469 75.3962C117.45 75.369 118.154 74.8438 119.042 74.2227C119.929 73.6021 120.664 73.121 120.683 73.1481Z" fill="white"/>
<path d="M113.91 74.6631C113.929 74.6904 113.572 74.9724 113.112 75.2927C112.651 75.6133 112.263 75.851 112.244 75.8237C112.225 75.7965 112.583 75.5147 113.043 75.1941C113.503 74.8735 113.892 74.6359 113.91 74.6631Z" fill="white"/>
<path d="M114.377 73.7453C114.397 73.7717 113.989 74.1223 113.465 74.5283C112.941 74.9346 112.5 75.2424 112.48 75.2163C112.459 75.19 112.868 74.8396 113.391 74.4334C113.915 74.0271 114.356 73.719 114.377 73.7453Z" fill="white"/>
<path d="M121.628 79.3625C121.628 79.3958 121.05 79.4226 120.337 79.4226C119.624 79.4226 119.046 79.3956 119.046 79.3625C119.046 79.3295 119.624 79.3025 120.337 79.3025C121.049 79.3023 121.628 79.3293 121.628 79.3625Z" fill="#E8505B"/>
<path d="M105.681 94.7017C105.68 94.7077 105.577 94.6945 105.398 94.6409C105.219 94.5883 104.967 94.4804 104.688 94.2919C104.41 94.1046 104.113 93.8247 103.867 93.4515C103.622 93.0803 103.437 92.6087 103.397 92.0916C103.365 91.5738 103.481 91.0809 103.672 90.679C103.863 90.2751 104.118 89.9561 104.367 89.7316C104.616 89.506 104.851 89.3637 105.021 89.2865C105.191 89.2085 105.291 89.181 105.293 89.1868C105.308 89.2124 104.899 89.3357 104.426 89.7935C104.191 90.0194 103.951 90.3335 103.773 90.7254C103.594 91.1158 103.486 91.589 103.517 92.083C103.556 92.5766 103.728 93.03 103.96 93.3912C104.192 93.7543 104.473 94.0319 104.737 94.2224C105.27 94.6093 105.692 94.6742 105.681 94.7017Z" fill="#FAFAFA"/>
<path d="M110.61 81.881C110.61 81.9142 109.357 81.941 107.811 81.941C106.266 81.941 105.013 81.914 105.013 81.881C105.013 81.8479 106.266 81.8209 107.811 81.8209C109.357 81.8207 110.61 81.8477 110.61 81.881Z" fill="white"/>
<path d="M85.3833 13.4466L83.276 8.92275C82.6242 7.52382 80.962 6.91801 79.5633 7.56955C78.1644 8.22109 77.5585 9.88354 78.2103 11.2822L80.3176 15.8063C80.3571 15.8908 80.4576 15.9276 80.5421 15.8881L85.3017 13.6711C85.386 13.6316 85.4225 13.5311 85.3833 13.4466Z" fill="#E8505B"/>
<path d="M4.63587 74.3025H3.44873V96.1253H4.63587V74.3025Z" fill="#E0E0E0"/>
<path d="M5.24188 73.5558C5.24188 74.2165 4.70628 74.7521 4.0455 74.7521C3.38472 74.7521 2.84912 74.2165 2.84912 73.5558C2.84912 72.895 3.38472 72.3594 4.0455 72.3594C4.70628 72.3594 5.24188 72.895 5.24188 73.5558Z" fill="#E8505B"/>
<path d="M28.2262 74.3025H27.0391V96.1253H28.2262V74.3025Z" fill="#E0E0E0"/>
<path d="M28.8322 73.5558C28.8322 74.2165 28.2966 74.7521 27.6358 74.7521C26.9751 74.7521 26.4395 74.2165 26.4395 73.5558C26.4395 72.895 26.9751 72.3594 27.6358 72.3594C28.2964 72.3594 28.8322 72.895 28.8322 73.5558Z" fill="#E8505B"/>
<path d="M30.4736 76.4083H0.0595703V81.85H30.4736V76.4083Z" fill="#E8505B"/>
<path d="M3.50112 76.4083L3.44823 76.4984L0.323559 81.8502H0.0595703V76.4083H3.50112Z" fill="#F5F5F5"/>
<path d="M11.1885 76.4083L8.00796 81.8502H3.85205L5.11633 79.6884L7.03261 76.4083H11.1885Z" fill="#F5F5F5"/>
<path d="M18.8731 76.4083L15.6925 81.8502H11.5366L14.7172 76.4083H18.8731Z" fill="#F5F5F5"/>
<path d="M26.5567 76.4094L23.3754 81.8502H19.2202L22.4015 76.4094H26.5567Z" fill="#F5F5F5"/>
<path d="M30.4743 76.4094V81.8502H26.9048L30.0863 76.4094H30.4743Z" fill="#F5F5F5"/>
<path d="M30.4736 84.8151H0.0595703V90.2567H30.4736V84.8151Z" fill="#E8505B"/>
<path d="M3.50112 84.8151L3.44823 84.9054L0.323559 90.257H0.0595703V84.8151H3.50112Z" fill="#F5F5F5"/>
<path d="M11.1885 84.8151L8.00796 90.257H3.85205L5.11633 88.0952L7.03261 84.8151H11.1885Z" fill="#F5F5F5"/>
<path d="M18.8731 84.8151L15.6925 90.257H11.5366L14.7172 84.8151H18.8731Z" fill="#F5F5F5"/>
<path d="M26.5567 84.8164L23.3754 90.2569H19.2202L22.4015 84.8164H26.5567Z" fill="#F5F5F5"/>
<path d="M30.4743 84.8164V90.2569H26.9048L30.0863 84.8164H30.4743Z" fill="#F5F5F5"/>
<path d="M30.4741 81.8502C30.4741 81.8502 30.4721 81.8177 30.4711 81.7562C30.4704 81.692 30.4693 81.6019 30.4679 81.4842C30.466 81.2419 30.4635 80.888 30.4603 80.4266C30.4561 79.5002 30.4501 78.1442 30.4425 76.4086L30.4741 76.4402C24.2386 76.446 12.9435 76.4566 0.0616661 76.4688H0.0598186L0.119868 76.4088C0.119637 78.2729 0.119406 80.1037 0.119176 81.8505L0.0598186 81.7911C8.67119 81.8015 16.2661 81.8107 21.7119 81.8174C24.4368 81.8248 26.6231 81.8306 28.1324 81.8348C28.8849 81.8382 29.4678 81.841 29.8667 81.8428C30.0628 81.8444 30.2129 81.8458 30.318 81.8468C30.4201 81.8475 30.4741 81.8502 30.4741 81.8502C30.4741 81.8502 30.4254 81.853 30.3259 81.8542C30.2226 81.8551 30.075 81.8565 29.8822 81.8581C29.4863 81.8599 28.9078 81.8627 28.1611 81.8662C26.655 81.8703 24.4733 81.8761 21.7544 81.8835C16.298 81.8902 8.68828 81.8992 0.0600494 81.9098H0.000692502V81.8502C0.000461541 80.1035 0.000230961 78.2726 0 76.4086V76.3485H0.0600494H0.0616661C12.9437 76.3605 24.2386 76.3711 30.4741 76.3771H30.506L30.5058 76.4088C30.4981 78.1523 30.4921 79.5147 30.488 80.4455C30.4848 80.904 30.4822 81.2553 30.4804 81.4959C30.479 81.6114 30.4778 81.6996 30.4771 81.7627C30.4762 81.8216 30.4741 81.8502 30.4741 81.8502Z" fill="#263238"/>
<path d="M30.4741 90.257C30.4741 90.257 30.4721 90.2244 30.4711 90.163C30.4704 90.0987 30.4693 90.0087 30.4679 89.8909C30.466 89.6486 30.4635 89.2948 30.4603 88.8333C30.4561 87.9069 30.4501 86.551 30.4425 84.8153L30.4741 84.8469C24.2386 84.8527 12.9435 84.8633 0.0616661 84.8756H0.0598186L0.119868 84.8155C0.119637 86.6796 0.119406 88.5104 0.119176 90.2572L0.0598186 90.1978C8.67119 90.2082 16.2661 90.2175 21.7119 90.2242C24.4368 90.2315 26.6231 90.2373 28.1324 90.2415C28.8849 90.2449 29.4678 90.2477 29.8667 90.2496C30.0628 90.2512 30.2129 90.2526 30.318 90.2535C30.4201 90.2542 30.4741 90.257 30.4741 90.257C30.4741 90.257 30.4254 90.2597 30.3259 90.2609C30.2226 90.2618 30.075 90.2632 29.8822 90.2648C29.4863 90.2667 28.9078 90.2694 28.1611 90.2729C26.655 90.2768 24.4733 90.2828 21.7544 90.2902C16.298 90.2969 8.68828 90.3059 0.0600494 90.3165H0.000692502V90.257C0.000461541 88.5102 0.000230961 86.6794 0 84.8153V84.755H0.0600494H0.0616661C12.9437 84.767 24.2386 84.7776 30.4741 84.7836H30.506L30.5058 84.8153C30.4981 86.5588 30.4921 87.9212 30.488 88.8518C30.4848 89.3102 30.4822 89.6615 30.4804 89.9022C30.479 90.0177 30.4778 90.1059 30.4771 90.169C30.4762 90.2283 30.4741 90.257 30.4741 90.257Z" fill="#263238"/>
</svg>
