<svg width="150" height="85" viewBox="0 0 150 85" fill="none" xmlns="http://www.w3.org/2000/svg">
<path d="M33.5812 76.9477C33.3264 76.9477 33.0695 76.9425 32.8174 76.932L32.8276 76.6874C33.0817 76.6981 33.3325 76.7048 33.5979 76.7031C33.8342 76.7031 34.0695 76.6986 34.3036 76.6897L34.3126 76.9344C34.0702 76.9437 33.8294 76.9511 33.5812 76.9477ZM35.8032 76.818L35.7745 76.5753C36.2628 76.5175 36.753 76.4394 37.2314 76.3429L37.2796 76.5827C36.7948 76.6805 36.2981 76.7598 35.8032 76.818ZM31.3275 76.8104C30.8349 76.7502 30.3384 76.6692 29.852 76.5698L29.901 76.33C30.381 76.4284 30.871 76.5082 31.3571 76.5677L31.3275 76.8104ZM38.7324 76.2289L38.6648 75.9939C39.1362 75.8584 39.6074 75.7022 40.0653 75.5297L40.1516 75.7586C39.6876 75.9334 39.2101 76.0919 38.7324 76.2289ZM28.4005 76.2108C27.9225 76.0715 27.4456 75.9115 26.9829 75.7349L27.0701 75.5065C27.5266 75.6807 27.9973 75.8386 28.4689 75.9757L28.4005 76.2108ZM41.5292 75.174L41.4246 74.9528C41.8669 74.7438 42.3071 74.5133 42.7327 74.2682L42.8547 74.4803C42.4234 74.7285 41.9774 74.9622 41.5292 75.174ZM25.6095 75.1466C25.1614 74.9328 24.7166 74.6979 24.2877 74.449L24.4104 74.2374C24.8337 74.4832 25.2727 74.7147 25.7149 74.9258L25.6095 75.1466ZM44.1199 73.6819L43.9811 73.4803C44.3836 73.2032 44.781 72.9053 45.1621 72.5953L45.3165 72.7849C44.9302 73.0991 44.5277 73.4008 44.1199 73.6819ZM23.026 73.6473C22.6181 73.3642 22.2167 73.0611 21.8329 72.7465L21.988 72.5573C22.3668 72.8678 22.763 73.1669 23.1655 73.4462L23.026 73.6473ZM46.4375 71.7948L46.2683 71.618C46.6235 71.278 46.9681 70.9207 47.2926 70.5559L47.4754 70.7183C47.1465 71.0882 46.7973 71.4503 46.4375 71.7948ZM20.7153 71.753C20.3577 71.4085 20.0096 71.0451 19.6807 70.6732L19.8639 70.5112C20.1885 70.8784 20.532 71.2367 20.8849 71.5766L20.7153 71.753ZM48.4241 69.5629L48.2289 69.4152C48.525 69.0235 48.8081 68.6157 49.0704 68.2036L49.2768 68.335C49.011 68.7526 48.7241 69.1656 48.4241 69.5629ZM18.7355 69.5139C18.4367 69.1157 18.1511 68.7013 17.8864 68.2825L18.0933 68.1521C18.3543 68.5654 18.6362 68.9741 18.9311 69.3673L18.7355 69.5139ZM50.0279 67.0424L49.8117 66.9282C50.0404 66.4951 50.2545 66.0477 50.4476 65.5979L50.6724 65.6944C50.4767 66.1502 50.2598 66.6038 50.0279 67.0424ZM17.1392 66.9868C16.9088 66.5475 16.6933 66.0926 16.4986 65.6345L16.7236 65.5389C16.9158 65.9909 17.1286 66.4397 17.3558 66.8731L17.1392 66.9868ZM51.2056 64.2984L50.9737 64.2205C51.1298 63.7564 51.2688 63.2798 51.3868 62.8042L51.6243 62.8629C51.5046 63.345 51.3637 63.828 51.2056 64.2984ZM15.9695 64.2346C15.8133 63.7642 15.6741 63.2807 15.5561 62.7979L15.7938 62.7396C15.9102 63.2162 16.0474 63.6933 16.2017 64.1577L15.9695 64.2346ZM51.9251 61.3988L51.6836 61.3591C51.7627 60.8768 51.823 60.3842 51.863 59.8948L52.1069 59.9149C52.0663 60.4107 52.0052 60.91 51.9251 61.3988ZM15.2604 61.3324C15.182 60.8414 15.1227 60.3419 15.0839 59.8477L15.3278 59.8286C15.366 60.3164 15.4246 60.8095 15.5018 61.2937L15.2604 61.3324ZM52.1698 58.4206H51.9251V58.3762C51.9251 57.8843 51.9054 57.3884 51.8666 56.902L52.1105 56.8824C52.1498 57.3755 52.1698 57.8779 52.1698 58.3762V58.4206ZM15.271 58.3542L15.0264 58.3538C15.0271 57.8554 15.0476 57.3528 15.0874 56.86L15.3313 56.8796C15.292 57.3662 15.2717 57.8621 15.271 58.3542ZM51.6907 55.4374C51.6127 54.9537 51.5139 54.4671 51.3972 53.9915L51.6347 53.9332C51.753 54.4152 51.8531 54.9081 51.9322 55.3982L51.6907 55.4374ZM15.5092 55.415L15.2676 55.3758C15.3472 54.8858 15.4478 54.3928 15.5668 53.9107L15.8043 53.9695C15.6869 54.4451 15.5875 54.9315 15.5092 55.415ZM50.9876 52.5739C50.8325 52.1088 50.6563 51.6444 50.4639 51.1934L50.6889 51.0974C50.8838 51.5544 51.0624 52.0252 51.2196 52.4965L50.9876 52.5739ZM16.2157 52.5527L15.9837 52.4748C16.1413 52.0047 16.3201 51.535 16.5151 51.0787L16.7401 51.1748C16.5476 51.6251 16.3712 52.0887 16.2157 52.5527ZM49.8303 49.8597C49.6026 49.4266 49.3539 48.9969 49.0912 48.5819L49.2979 48.451C49.5641 48.8714 49.816 49.3071 50.0468 49.746L49.8303 49.8597ZM17.3742 49.8437L17.1578 49.7295C17.389 49.2907 17.6413 48.8557 17.9075 48.4364L18.1139 48.5674C17.8513 48.9811 17.6024 49.4106 17.3742 49.8437ZM48.2517 47.3674C47.9558 46.9745 47.6416 46.5901 47.3177 46.2249L47.5007 46.0624C47.829 46.4324 48.1475 46.822 48.4471 47.2202L48.2517 47.3674ZM18.9542 47.3546L18.7588 47.2074C19.0578 46.8109 19.3764 46.4215 19.7059 46.0505L19.8889 46.2129C19.5638 46.5791 19.2493 46.9633 18.9542 47.3546ZM46.2955 45.1602C45.941 44.8195 45.5695 44.4904 45.1915 44.1812L45.3463 43.992C45.7293 44.3049 46.1056 44.6387 46.4648 44.9838L46.2955 45.1602ZM20.912 45.1494L20.7426 44.9731C21.1004 44.6296 21.4772 44.2961 21.8624 43.9817L22.017 44.1714C21.6369 44.4815 21.2651 44.8106 20.912 45.1494ZM44.0127 43.2938C43.609 43.0145 43.1897 42.7489 42.7668 42.504L42.8894 42.2924C43.3181 42.5406 43.7428 42.8098 44.1517 43.0927L44.0127 43.2938ZM23.1973 43.2842L23.0583 43.083C23.468 42.8002 23.8932 42.5312 24.3223 42.2835L24.4446 42.4951C24.0212 42.7398 23.6015 43.0052 23.1973 43.2842ZM41.4615 41.817C41.0172 41.6058 40.5611 41.4111 40.1057 41.2384L40.1924 41.0095C40.654 41.1846 41.1164 41.3819 41.5667 41.5962L41.4615 41.817ZM25.7518 41.8089L25.6469 41.5876C26.0972 41.3743 26.5605 41.177 27.0238 41.0017L27.1103 41.2305C26.6532 41.4035 26.1961 41.5982 25.7518 41.8089ZM38.7061 40.7707C38.2343 40.6338 37.7522 40.5153 37.2735 40.4181L37.3223 40.1782C37.8074 40.2769 38.296 40.3971 38.7742 40.5356L38.7061 40.7707ZM28.5103 40.7649L28.4425 40.5299C28.9181 40.3925 29.4066 40.2728 29.8948 40.1739L29.9433 40.4138C29.4617 40.5113 28.9796 40.6295 28.5103 40.7649ZM35.8173 40.182C35.3312 40.1235 34.8363 40.0838 34.3466 40.0643L34.3564 39.8197C34.8527 39.8397 35.354 39.8799 35.8464 39.9394L35.8173 40.182ZM31.4 40.1797L31.3708 39.937C31.8616 39.878 32.363 39.8383 32.8612 39.819L32.8708 40.0636C32.379 40.0825 31.8842 40.1216 31.4 40.1797Z" fill="#201600"/>
<path d="M105.641 71.457H105.595V71.2124H105.641C106.109 71.2124 106.584 71.2004 107.052 71.1773L107.065 71.4214C106.592 71.445 106.113 71.457 105.641 71.457ZM104.125 71.4169C103.637 71.3908 103.144 71.3516 102.66 71.3005L102.685 71.0573C103.165 71.108 103.654 71.1466 104.138 71.1727L104.125 71.4169ZM108.53 71.3101L108.506 71.0669C108.988 71.0175 109.474 70.9549 109.951 70.8808L109.989 71.1226C109.508 71.1973 109.017 71.2604 108.53 71.3101ZM101.202 71.1085C100.722 71.0323 100.236 70.9419 99.7566 70.8399L99.8075 70.6006C100.283 70.7018 100.765 70.7914 101.24 70.8667L101.202 71.1085ZM111.435 70.8586L111.385 70.6192C111.86 70.5194 112.337 70.4061 112.803 70.2824L112.866 70.5189C112.396 70.6436 111.915 70.758 111.435 70.8586ZM98.3271 70.4957C97.8549 70.3686 97.3807 70.2274 96.9178 70.0765L96.9937 69.8438C97.4527 69.9936 97.9226 70.1336 98.3906 70.2597L98.3271 70.4957ZM114.276 70.1044L114.201 69.8718C114.66 69.7234 115.124 69.5602 115.579 69.3866L115.666 69.6149C115.207 69.7903 114.74 69.9549 114.276 70.1044ZM95.5326 69.5834C95.0789 69.4086 94.6231 69.2189 94.1779 69.0194L94.2777 68.7963C94.7192 68.9939 95.1709 69.1818 95.6205 69.355L95.5326 69.5834ZM117.028 69.0531L116.929 68.8295C117.37 68.6339 117.813 68.4227 118.247 68.2024L118.358 68.4203C117.92 68.6427 117.473 68.8556 117.028 69.0531ZM92.8543 68.3849C92.422 68.1637 91.9884 67.927 91.5653 67.6817L91.6881 67.47C92.1074 67.7132 92.5373 67.9478 92.9659 68.1671L92.8543 68.3849ZM119.652 67.7187L119.53 67.5065C119.948 67.2653 120.367 67.0092 120.774 66.745L120.907 66.9504C120.496 67.2168 120.074 67.4752 119.652 67.7187ZM90.3147 66.9115C89.9078 66.6465 89.501 66.3659 89.1054 66.0773L89.2495 65.8795C89.6417 66.1657 90.045 66.4437 90.4482 66.7065L90.3147 66.9115ZM122.12 66.1175L121.977 65.9197C122.367 65.6366 122.757 65.338 123.134 65.0327L123.288 65.2228C122.907 65.531 122.514 65.832 122.12 66.1175ZM87.9412 65.1808C87.5633 64.8738 87.1877 64.5523 86.8246 64.2245L86.9885 64.043C87.3483 64.3679 87.7207 64.6865 88.0953 64.9906L87.9412 65.1808ZM124.408 64.2687L124.244 64.0867C124.604 63.763 124.961 63.4259 125.303 63.0846L125.476 63.258C125.13 63.602 124.771 63.9422 124.408 64.2687ZM85.7594 63.2112C85.4159 62.8675 85.0756 62.5084 84.7478 62.1438L84.9296 61.9804C85.2546 62.3416 85.5919 62.6976 85.9323 63.0382L85.7594 63.2112ZM126.489 62.1928L126.308 62.029C126.632 61.67 126.951 61.2978 127.256 60.9227L127.446 61.077C127.138 61.4554 126.817 61.8307 126.489 62.1928ZM83.793 61.0251C83.4854 60.6453 83.1842 60.2526 82.8975 59.8579L83.0956 59.7141C83.3796 60.1052 83.6782 60.4946 83.9832 60.8713L83.793 61.0251ZM128.343 59.9131L128.146 59.7689C128.43 59.3792 128.709 58.9762 128.973 58.5706L129.178 58.7044C128.911 59.1134 128.63 59.5202 128.343 59.9131ZM82.0642 58.6451C81.7983 58.2357 81.5395 57.8136 81.2951 57.3903L81.507 57.268C81.7492 57.6875 82.0057 58.1059 82.2694 58.5119L82.0642 58.6451ZM129.949 57.4538L129.737 57.3311C129.98 56.914 130.214 56.4842 130.435 56.0538L130.653 56.1656C130.43 56.5996 130.193 57.0331 129.949 57.4538ZM80.5927 56.0962C80.3707 55.6603 80.1577 55.2131 79.9593 54.7671L80.1829 54.6677C80.3794 55.1099 80.5908 55.5533 80.8107 55.9854L80.5927 56.0962ZM131.288 54.8421L131.065 54.7423C131.262 54.302 131.451 53.8503 131.625 53.3997L131.853 53.4881C131.677 53.9425 131.487 54.398 131.288 54.8421ZM79.3966 53.4055C79.2217 52.9492 79.0567 52.4817 78.9063 52.0156L79.1389 51.9406C79.2882 52.4021 79.4517 52.8656 79.6249 53.318L79.3966 53.4055ZM132.346 52.1028L132.114 52.0268C132.265 51.5658 132.405 51.0957 132.53 50.6299L132.766 50.6934C132.64 51.1635 132.498 51.6377 132.346 52.1028ZM78.4909 50.6058C78.3655 50.1337 78.251 49.6524 78.1506 49.1751L78.39 49.1249C78.4895 49.5979 78.603 50.0749 78.7274 50.5427L78.4909 50.6058ZM133.111 49.2644L132.872 49.2133C132.973 48.7408 133.063 48.2587 133.139 47.7805L133.381 47.8191C133.304 48.3015 133.213 48.7876 133.111 49.2644ZM77.8861 47.7288C77.8112 47.2484 77.7478 46.758 77.6976 46.2707L77.9411 46.2459C77.9906 46.7287 78.0536 47.215 78.1279 47.6911L77.8861 47.7288ZM133.574 46.3617L133.331 46.3359C133.382 45.8545 133.421 45.3658 133.446 44.8833L133.691 44.8961C133.665 45.383 133.625 45.8761 133.574 46.3617ZM77.5855 44.8049C77.5615 44.3298 77.5493 43.8458 77.5493 43.3659L77.5494 43.3353H77.794L77.7939 43.3673C77.7939 43.8415 77.806 44.3217 77.8299 44.7925L77.5855 44.8049ZM133.732 43.4261H133.487L133.487 43.3651C133.487 42.8816 133.474 42.3914 133.45 41.9086L133.694 41.8962C133.719 42.3831 133.732 42.8775 133.732 43.3658L133.732 43.4261ZM77.8331 41.8784L77.5887 41.8655C77.6145 41.377 77.6534 40.8839 77.7041 40.3999L77.9473 40.4252C77.8969 40.9051 77.8585 41.3939 77.8331 41.8784ZM133.337 40.4558C133.287 39.9744 133.223 39.488 133.148 39.0105L133.39 38.9728C133.466 39.4543 133.53 39.9448 133.58 40.4304L133.337 40.4558ZM78.137 38.9805L77.8955 38.9422C77.9717 38.4599 78.0619 37.9736 78.1632 37.4967L78.4025 37.5474C78.302 38.0204 78.2128 38.5025 78.137 38.9805ZM132.885 37.5775C132.785 37.1043 132.671 36.6274 132.546 36.1599L132.782 36.0969C132.908 36.5684 133.023 37.0495 133.124 37.5268L132.885 37.5775ZM78.7431 36.1308L78.5068 36.0672C78.6334 35.5954 78.7741 35.121 78.9251 34.6573L79.1578 34.7333C79.008 35.1927 78.8685 35.6628 78.7431 36.1308ZM132.133 34.7622C131.983 34.3007 131.819 33.8373 131.645 33.3853L131.873 33.2974C132.049 33.7537 132.214 34.2209 132.365 34.6867L132.133 34.7622ZM79.6458 33.36L79.4175 33.272C79.5922 32.8181 79.7818 32.3621 79.9806 31.9171L80.204 32.0169C80.0068 32.4582 79.819 32.9099 79.6458 33.36ZM131.086 32.0365C130.888 31.5939 130.677 31.1508 130.456 30.7196L130.674 30.6083C130.896 31.0433 131.11 31.4905 131.309 31.9367L131.086 32.0365ZM80.8321 30.7043L80.6143 30.593C80.837 30.158 81.0734 29.7242 81.317 29.3037L81.5286 29.4265C81.2872 29.8431 81.0528 30.2731 80.8321 30.7043ZM129.759 29.4375C129.517 29.019 129.26 28.6007 128.995 28.1943L129.2 28.061C129.467 28.4707 129.726 28.8926 129.971 29.3152L129.759 29.4375ZM82.2911 28.186L82.0861 28.0525C82.352 27.6444 82.6326 27.2376 82.92 26.843L83.1177 26.9868C82.8328 27.3781 82.5547 27.7815 82.2911 28.186ZM128.168 26.993C127.882 26.6005 127.583 26.2116 127.279 25.837L127.469 25.6827C127.775 26.0606 128.077 26.4531 128.365 26.8492L128.168 26.993ZM84.006 25.8323L83.8161 25.678C84.1231 25.2995 84.4446 24.9238 84.7716 24.5612L84.9532 24.7251C84.6292 25.0845 84.3104 25.457 84.006 25.8323ZM126.331 24.7289C126.007 24.3693 125.67 24.0139 125.327 23.6718L125.5 23.4989C125.846 23.8438 126.186 24.2026 126.513 24.565L126.331 24.7289ZM85.9572 23.6682L85.7842 23.4953C86.1299 23.1498 86.4888 22.8092 86.8511 22.4831L87.0147 22.6651C86.6556 22.9883 86.2999 23.3259 85.9572 23.6682ZM124.27 22.6685C123.912 22.3457 123.539 22.0273 123.163 21.722L123.317 21.5319C123.696 21.8398 124.072 22.1611 124.434 22.487L124.27 22.6685ZM88.1233 21.718L87.9692 21.5279C88.3487 21.2207 88.7412 20.9192 89.1361 20.6321L89.2799 20.8298C88.8885 21.1146 88.4993 21.4134 88.1233 21.718ZM122.007 20.8341C121.616 20.5491 121.212 20.2713 120.808 20.0083L120.941 19.8033C121.349 20.0684 121.756 20.3487 122.151 20.6363L122.007 20.8341ZM90.4818 20.0025L90.3485 19.7976C90.7598 19.5305 91.182 19.2716 91.603 19.0281L91.7256 19.2397C91.3079 19.4813 90.8895 19.7378 90.4818 20.0025ZM119.567 19.2462C119.148 19.0037 118.717 18.7697 118.289 18.5506L118.4 18.3328C118.833 18.5537 119.266 18.7897 119.69 19.0346L119.567 19.2462ZM93.0077 18.5429L92.8966 18.3251C93.3337 18.1024 93.7807 17.8889 94.2255 17.6908L94.3252 17.9144C93.8842 18.1108 93.4409 18.3222 93.0077 18.5429ZM116.976 17.9231C116.534 17.7257 116.082 17.5382 115.633 17.3655L115.72 17.1371C116.174 17.3115 116.63 17.5007 117.075 17.6995L116.976 17.9231ZM95.6741 17.3557L95.5867 17.1273C96.0457 16.9515 96.5131 16.7864 96.976 16.6364L97.0514 16.869C96.5925 17.0179 96.1292 17.1816 95.6741 17.3557ZM114.259 16.8784C113.798 16.7287 113.328 16.5891 112.861 16.4645L112.925 16.2279C113.395 16.3541 113.87 16.4946 114.334 16.6458L114.259 16.8784ZM98.4494 16.4566L98.3863 16.22C98.8554 16.0949 99.3366 15.9802 99.8165 15.8789L99.8669 16.1183C99.3911 16.2186 98.9142 16.3323 98.4494 16.4566ZM111.444 16.1247C110.973 16.0249 110.491 15.9358 110.011 15.8601L110.049 15.6183C110.534 15.6948 111.02 15.7848 111.495 15.8854L111.444 16.1247ZM101.301 15.8555L101.263 15.6138C101.742 15.5385 102.233 15.475 102.721 15.4245L102.746 15.6677C102.262 15.7179 101.776 15.781 101.301 15.8555ZM108.566 15.6711C108.085 15.6209 107.596 15.5827 107.113 15.5574L107.126 15.3133C107.613 15.3386 108.106 15.3773 108.591 15.4279L108.566 15.6711ZM104.199 15.5557L104.186 15.3116C104.669 15.287 105.158 15.2745 105.64 15.2745L105.656 15.5191H105.64C105.162 15.5191 104.677 15.5316 104.199 15.5557Z" fill="#201600"/>
<path d="M47.1398 41.8877C47.1398 41.8877 46.9913 37.3583 48.3078 35.3687C49.6242 33.3791 52.0453 33.723 51.7474 36.0558C51.4687 38.2382 48.328 39.5694 47.1398 41.8877Z" fill="#396C8A"/>
<path d="M44.0072 39.2762C44.0072 39.2762 40.5058 36.3991 38.126 36.2309C35.7462 36.0628 34.5439 38.1923 36.5754 39.3773C38.4759 40.4858 41.4449 38.8062 44.0072 39.2762Z" fill="#396C8A"/>
<path d="M47.4946 49.5759C47.4946 49.5759 46.4763 47.0651 45.3336 45.6795C43.8202 43.8444 41.3254 43.3853 40.6822 45.1289C40.1914 46.4595 41.7155 47.626 44.3375 48.0608C46.6766 48.4487 47.4946 49.5759 47.4946 49.5759Z" fill="#396C8A"/>
<path d="M42.168 33.4415C41.6253 31.9642 40.0163 27.7968 40.2128 25.7666C40.4093 23.7364 41.8463 23.4556 42.3208 23.4782C42.7954 23.5009 44.1823 24.0552 44.3628 26.1314C44.5501 28.2866 42.168 33.4415 42.168 33.4415Z" fill="#396C8A"/>
<path d="M37.8709 29.654C37.4511 28.5562 35.6725 24.3193 34.5981 22.8619C33.5236 21.4046 31.9811 20.8821 30.784 21.9238C29.7391 22.8331 29.7264 24.4223 31.1507 25.8185C32.495 27.1365 37.8709 29.654 37.8709 29.654Z" fill="#396C8A"/>
<path d="M50.3584 59.4241C50.3484 59.4272 50.3377 59.4287 50.3267 59.4283C50.2748 59.4264 50.2345 59.3828 50.2365 59.3311C50.299 57.6808 48.7025 48.5353 46.515 43.5717C44.0319 37.9376 40.651 31.7473 32.7923 24.6621C32.7537 24.6273 32.7507 24.5679 32.7853 24.5295C32.8198 24.4912 32.8794 24.4876 32.9179 24.5226C40.8029 31.6316 44.1954 37.8429 46.6868 43.496C48.9787 48.6964 50.4841 57.7497 50.424 59.3381C50.4224 59.3789 50.3951 59.4125 50.3584 59.4241Z" fill="#264E62"/>
<path d="M42.9102 36.43C42.8651 36.4442 42.8156 36.4224 42.7962 36.3781C41.6827 33.8378 41.6483 28.2708 42.0528 26.2217C42.0627 26.171 42.1121 26.1379 42.1631 26.1479C42.2139 26.1579 42.247 26.2072 42.2369 26.2583C41.8365 28.2868 41.8685 33.7943 42.9681 36.3027C42.9889 36.3502 42.9673 36.4056 42.9199 36.4264C42.9166 36.4278 42.9136 36.429 42.9102 36.43Z" fill="#264E62"/>
<path d="M45.3585 40.8748C45.3143 40.8887 45.2654 40.8679 45.2453 40.8249C43.935 38.0122 39.9651 38.2924 38.7797 38.4453C38.7281 38.4519 38.6811 38.4156 38.6746 38.3642C38.668 38.3128 38.7057 38.2666 38.7556 38.2591C39.9732 38.102 44.0515 37.8175 45.4156 40.7454C45.4374 40.7926 45.4171 40.8483 45.3702 40.8702C45.3663 40.8721 45.3625 40.8735 45.3585 40.8748Z" fill="#264E62"/>
<path d="M47.1414 44.8852C47.1386 44.886 47.1357 44.8868 47.1328 44.8875C47.0821 44.8984 47.0321 44.8662 47.0212 44.8156C46.3477 41.6976 48.1486 37.9899 49.7075 36.512C49.7449 36.477 49.8045 36.4778 49.8401 36.5155C49.8758 36.5531 49.8741 36.6125 49.8366 36.6482C48.3098 38.0957 46.5458 41.7253 47.2047 44.7758C47.215 44.8236 47.187 44.8707 47.1414 44.8852Z" fill="#264E62"/>
<path d="M49.4467 53.2555C49.443 53.2567 49.4395 53.2576 49.4357 53.2582C49.3847 53.2679 49.3357 53.2344 49.3261 53.1834C48.8612 50.7197 45.2618 46.6117 43.0122 45.9777C42.9624 45.9636 42.9334 45.9119 42.9474 45.8619C42.9614 45.8117 43.0134 45.7828 43.0632 45.7971C45.3608 46.4446 49.0364 50.6356 49.5105 53.1488C49.5194 53.1959 49.4913 53.2415 49.4467 53.2555Z" fill="#264E62"/>
<path d="M35.4901 51.2402C34.8681 50.8699 41.1369 49.3172 46.4106 51.13C49.9834 52.3581 51.9371 57.4747 51.9371 57.4747C51.9371 57.4747 49.2318 59.9442 44.0909 58.2518C38.95 56.5595 38.2244 52.8679 35.4901 51.2402Z" fill="#B75A5E"/>
<path d="M51.95 57.4497L51.9244 57.4995C51.8186 57.4451 41.2859 52.0411 35.4448 51.1814L35.4529 51.126C41.3033 51.987 51.8443 57.3952 51.95 57.4497Z" fill="white"/>
<path d="M41.7594 52.9592L41.7306 52.97C41.6262 53.0092 39.1591 53.926 37.9746 53.6614L37.9869 53.6067C39.0872 53.8525 41.3957 53.0324 41.6819 52.9283C41.5557 52.676 40.5896 50.787 39.7135 50.3194L39.7399 50.2699C40.6906 50.7774 41.7033 52.8438 41.746 52.9315L41.7594 52.9592Z" fill="white"/>
<path d="M45.7347 54.5546L45.7201 54.5667C45.6932 54.589 43.0064 56.7993 40.8486 56.6154L40.8534 56.5596C42.9064 56.7346 45.4531 54.7112 45.6696 54.5355C45.5825 54.2672 44.5573 51.143 43.9322 50.5386L43.9711 50.4984C44.6311 51.1365 45.6843 54.398 45.7289 54.5366L45.7347 54.5546Z" fill="white"/>
<path d="M49.6793 56.3589L49.6658 56.3695C49.6368 56.392 46.746 58.6173 44.5889 58.4334L44.5936 58.3776C46.6534 58.5531 49.3994 56.5018 49.6177 56.3357C49.5644 56.0692 48.8902 52.7912 47.9041 51.9461L47.9406 51.9036C48.9783 52.7928 49.648 56.1975 49.6761 56.342L49.6793 56.3589Z" fill="white"/>
<path d="M92.4225 84.6631H54.1836C51.3329 84.6631 49.022 82.3521 49.022 79.5014V5.16164C49.022 2.31094 51.3329 0 54.1836 0H92.4225C95.2732 0 97.5841 2.31094 97.5841 5.16164V79.5014C97.5841 82.3521 95.2732 84.6631 92.4225 84.6631Z" fill="#234759"/>
<path d="M54.184 81.6381C53.0059 81.6381 52.0474 80.6796 52.0474 79.5015V5.16161C52.0474 3.98359 53.0059 3.02515 54.184 3.02515H92.4229C93.6011 3.02515 94.5594 3.98359 94.5594 5.16161V79.5014C94.5594 80.6796 93.6011 81.638 92.4229 81.638L54.184 81.6381Z" fill="white"/>
<path d="M91.7236 78.8023L91.7236 5.86072L54.883 5.86072L54.883 78.8023H91.7236Z" fill="#FFE3D7"/>
<path d="M61.045 9.73592H56.8312C56.6634 9.73592 56.5273 9.59987 56.5273 9.43205V9.38321C56.5273 9.2154 56.6634 9.07935 56.8312 9.07935H61.045C61.2128 9.07935 61.3489 9.2154 61.3489 9.38321V9.43205C61.3489 9.59987 61.2128 9.73592 61.045 9.73592Z" fill="#584D5D"/>
<path d="M61.045 11.0256H56.8312C56.6634 11.0256 56.5273 10.8895 56.5273 10.7217V10.6729C56.5273 10.5051 56.6634 10.369 56.8312 10.369H61.045C61.2128 10.369 61.3489 10.5051 61.3489 10.6729V10.7217C61.3489 10.8895 61.2128 11.0256 61.045 11.0256Z" fill="#584D5D"/>
<path d="M61.045 12.3153H56.8312C56.6634 12.3153 56.5273 12.1792 56.5273 12.0114V11.9626C56.5273 11.7947 56.6634 11.6587 56.8312 11.6587H61.045C61.2128 11.6587 61.3489 11.7947 61.3489 11.9626V12.0114C61.3489 12.1793 61.2128 12.3153 61.045 12.3153Z" fill="#584D5D"/>
<path d="M65.0474 17.1595H56.5273V20.9446H65.0474V17.1595Z" fill="#FF896A"/>
<path d="M65.0474 24.7545H56.5273V28.5395H65.0474V24.7545Z" fill="#FF896A"/>
<path d="M65.0474 32.0664H56.5273V35.8514H65.0474V32.0664Z" fill="#FF896A"/>
<path d="M90.0457 9.07935H62.6982V12.3152H90.0457V9.07935Z" fill="white"/>
<path d="M57.8395 18.5268L57.4384 18.8798L57.1982 18.6031L57.8508 18.0525H58.2462V20.0519H57.8395V18.5268Z" fill="white"/>
<path d="M59.6385 19.6507H58.7656V19.2949L59.582 18.0524H60.0451V19.2949H60.3021V19.6507H60.0451V20.0518H59.6384L59.6385 19.6507ZM59.6385 18.6059H59.6327L59.1894 19.2949H59.6385V18.6059Z" fill="white"/>
<path d="M60.5278 18.9052C60.5278 18.8695 60.5343 18.8357 60.5476 18.8036C60.5609 18.7716 60.5791 18.7437 60.6028 18.7203C60.6263 18.6966 60.6539 18.6783 60.6859 18.6651C60.718 18.652 60.7519 18.6453 60.7878 18.6453C60.8235 18.6453 60.8574 18.652 60.8894 18.6651C60.9214 18.6784 60.949 18.6966 60.9727 18.7203C60.9962 18.7437 61.0147 18.7716 61.0277 18.8036C61.041 18.8357 61.0475 18.8696 61.0475 18.9052C61.0475 18.9409 61.041 18.9748 61.0277 19.0068C61.0146 19.0389 60.9962 19.0667 60.9727 19.0902C60.949 19.1139 60.9214 19.1321 60.8894 19.1454C60.8573 19.1584 60.8234 19.1649 60.7878 19.1649C60.7518 19.1649 60.718 19.1584 60.6859 19.1454C60.6539 19.1321 60.6263 19.1139 60.6028 19.0902C60.5791 19.0667 60.5609 19.0389 60.5476 19.0068C60.5344 18.9747 60.5278 18.9409 60.5278 18.9052ZM60.5278 19.8091C60.5278 19.7731 60.5343 19.7393 60.5476 19.7072C60.5609 19.6752 60.5791 19.6476 60.6028 19.6239C60.6263 19.6004 60.6539 19.5822 60.6859 19.5689C60.718 19.5556 60.7519 19.5491 60.7878 19.5491C60.8235 19.5491 60.8574 19.5556 60.8894 19.5689C60.9214 19.5822 60.949 19.6004 60.9727 19.6239C60.9962 19.6476 61.0147 19.6752 61.0277 19.7072C61.041 19.7393 61.0475 19.7732 61.0475 19.8091C61.0475 19.8448 61.041 19.8786 61.0277 19.9107C61.0146 19.9427 60.9962 19.9703 60.9727 19.994C60.949 20.0175 60.9214 20.0359 60.8894 20.049C60.8573 20.0623 60.8234 20.0688 60.7878 20.0688C60.7518 20.0688 60.718 20.0623 60.6859 20.049C60.6539 20.0359 60.6263 20.0175 60.6028 19.994C60.5791 19.9703 60.5609 19.9427 60.5476 19.9107C60.5344 19.8786 60.5278 19.8448 60.5278 19.8091Z" fill="white"/>
<path d="M61.2993 19.0522C61.2993 18.9334 61.31 18.813 61.3316 18.6906C61.3535 18.5682 61.3921 18.4573 61.4475 18.3575C61.503 18.2574 61.5788 18.1762 61.675 18.1131C61.7708 18.0501 61.8933 18.0183 62.042 18.0183C62.1907 18.0183 62.3131 18.0501 62.4093 18.1131C62.5054 18.1762 62.5809 18.2574 62.6366 18.3575C62.6921 18.4573 62.7307 18.5682 62.7523 18.6906C62.7739 18.8131 62.7848 18.9334 62.7848 19.0522C62.7848 19.1707 62.7739 19.2913 62.7523 19.4137C62.7307 19.5361 62.6921 19.6471 62.6366 19.7469C62.5809 19.8466 62.5053 19.9282 62.4093 19.9912C62.3131 20.0543 62.1907 20.0858 62.042 20.0858C61.8933 20.0858 61.7708 20.0543 61.675 19.9912C61.5788 19.9282 61.503 19.8466 61.4475 19.7469C61.3921 19.6471 61.3535 19.5362 61.3316 19.4137C61.31 19.2913 61.2993 19.1707 61.2993 19.0522ZM61.7229 19.0522C61.7229 19.1048 61.7252 19.1678 61.7299 19.2413C61.7346 19.3147 61.7473 19.3853 61.7682 19.453C61.7887 19.521 61.8203 19.5783 61.8627 19.6255C61.9052 19.6726 61.9648 19.6961 62.0419 19.6961C62.1172 19.6961 62.1766 19.6726 62.2198 19.6255C62.2633 19.5783 62.2951 19.521 62.3159 19.453C62.3368 19.3853 62.3493 19.3147 62.354 19.2413C62.3586 19.1678 62.3612 19.1048 62.3612 19.0522C62.3612 18.9993 62.3586 18.9363 62.354 18.8628C62.3493 18.7893 62.3368 18.7188 62.3159 18.651C62.2951 18.5833 62.2633 18.526 62.2198 18.4789C62.1766 18.4317 62.1172 18.4083 62.0419 18.4083C61.9648 18.4083 61.9052 18.4317 61.8627 18.4789C61.8202 18.526 61.7887 18.5833 61.7682 18.651C61.7473 18.7188 61.7346 18.7893 61.7299 18.8628C61.7252 18.9362 61.7229 18.9993 61.7229 19.0522Z" fill="white"/>
<path d="M62.9707 19.0522C62.9707 18.9334 62.9814 18.813 63.003 18.6906C63.0249 18.5682 63.0635 18.4573 63.1189 18.3575C63.1744 18.2574 63.2502 18.1762 63.3463 18.1131C63.4422 18.0501 63.5646 18.0183 63.7133 18.0183C63.862 18.0183 63.9845 18.0501 64.0806 18.1131C64.1767 18.1762 64.2522 18.2574 64.308 18.3575C64.3634 18.4573 64.402 18.5682 64.4236 18.6906C64.4452 18.813 64.4562 18.9334 64.4562 19.0522C64.4562 19.1707 64.4452 19.2913 64.4236 19.4137C64.402 19.5361 64.3634 19.6471 64.308 19.7469C64.2522 19.8466 64.1767 19.9282 64.0806 19.9912C63.9845 20.0543 63.862 20.0858 63.7133 20.0858C63.5646 20.0858 63.4422 20.0543 63.3463 19.9912C63.2502 19.9282 63.1744 19.8466 63.1189 19.7469C63.0634 19.6471 63.0249 19.5362 63.003 19.4137C62.9814 19.2913 62.9707 19.1707 62.9707 19.0522ZM63.3943 19.0522C63.3943 19.1048 63.3966 19.1678 63.4013 19.2413C63.406 19.3147 63.4187 19.3853 63.4396 19.453C63.4601 19.521 63.4916 19.5783 63.5341 19.6255C63.5766 19.6726 63.6362 19.6961 63.7133 19.6961C63.7886 19.6961 63.848 19.6726 63.8912 19.6255C63.9347 19.5783 63.9665 19.521 63.9874 19.453C64.0082 19.3853 64.0207 19.3147 64.0254 19.2413C64.0301 19.1678 64.0327 19.1048 64.0327 19.0522C64.0327 18.9993 64.0301 18.9363 64.0254 18.8628C64.0207 18.7893 64.0082 18.7188 63.9874 18.651C63.9665 18.5833 63.9347 18.526 63.8912 18.4789C63.848 18.4317 63.7886 18.4083 63.7133 18.4083C63.6362 18.4083 63.5765 18.4317 63.5341 18.4789C63.4916 18.526 63.4601 18.5833 63.4396 18.651C63.4187 18.7188 63.406 18.7893 63.4013 18.8628C63.3966 18.9362 63.3943 18.9993 63.3943 19.0522Z" fill="white"/>
<path d="M57.8 26.1215L57.3988 26.4745L57.1587 26.1979L57.8112 25.6472H58.2066V27.6466H57.8V26.1215Z" fill="white"/>
<path d="M59.4691 26.3617C59.4918 26.356 59.5141 26.3513 59.5368 26.3474C59.5595 26.3438 59.5829 26.3419 59.6074 26.3419C59.7015 26.3419 59.7871 26.3588 59.8645 26.3927C59.9416 26.4266 60.0075 26.4727 60.0622 26.531C60.1166 26.5893 60.1591 26.6587 60.1893 26.7386C60.2193 26.8186 60.2344 26.9038 60.2344 26.9942C60.2344 27.0979 60.2151 27.1916 60.1766 27.2752C60.138 27.3591 60.0851 27.431 60.0185 27.4914C59.9515 27.5516 59.8723 27.5982 59.7812 27.631C59.6898 27.6641 59.5923 27.6806 59.4889 27.6806C59.3834 27.6806 59.2855 27.6641 59.1951 27.631C59.1047 27.5982 59.026 27.5516 58.9594 27.4914C58.8924 27.431 58.8398 27.3591 58.8012 27.2752C58.7625 27.1916 58.7432 27.0978 58.7432 26.9942C58.7432 26.9228 58.7499 26.8574 58.763 26.798C58.7763 26.7386 58.7937 26.6827 58.8153 26.63C58.8369 26.5771 58.8622 26.5269 58.8917 26.4789C58.9206 26.4308 58.9514 26.3815 58.9834 26.3305L59.421 25.6472H59.938L59.4691 26.3617ZM59.8109 26.9772C59.8109 26.8868 59.7812 26.8121 59.7218 26.7527C59.6627 26.6935 59.5848 26.6639 59.489 26.6639C59.3928 26.6639 59.3152 26.6936 59.2558 26.7527C59.1964 26.8121 59.167 26.8868 59.167 26.9772C59.167 27.0676 59.1965 27.1426 59.2558 27.2018C59.3152 27.2612 59.3929 27.2909 59.489 27.2909C59.5848 27.2909 59.6627 27.2612 59.7218 27.2018C59.7812 27.1426 59.8109 27.0676 59.8109 26.9772Z" fill="white"/>
<path d="M60.4883 26.5001C60.4883 26.4644 60.4948 26.4305 60.5081 26.3985C60.5214 26.3665 60.5396 26.3386 60.5633 26.3151C60.5867 26.2914 60.6143 26.2732 60.6464 26.2599C60.6785 26.2469 60.7123 26.2401 60.7482 26.2401C60.7839 26.2401 60.8178 26.2469 60.8498 26.2599C60.8819 26.2732 60.9095 26.2914 60.9332 26.3151C60.9566 26.3386 60.9751 26.3664 60.9881 26.3985C61.0014 26.4305 61.0079 26.4644 61.0079 26.5001C61.0079 26.5358 61.0014 26.5696 60.9881 26.6016C60.9751 26.6337 60.9566 26.6616 60.9332 26.685C60.9095 26.7087 60.8819 26.7269 60.8498 26.7402C60.8177 26.7532 60.7839 26.7598 60.7482 26.7598C60.7123 26.7598 60.6784 26.7532 60.6464 26.7402C60.6143 26.7269 60.5867 26.7087 60.5633 26.685C60.5396 26.6616 60.5214 26.6337 60.5081 26.6016C60.4948 26.5696 60.4883 26.5358 60.4883 26.5001ZM60.4883 27.4039C60.4883 27.368 60.4948 27.3341 60.5081 27.3021C60.5214 27.2701 60.5396 27.2424 60.5633 27.2187C60.5867 27.1953 60.6143 27.1771 60.6464 27.1638C60.6785 27.1505 60.7123 27.144 60.7482 27.144C60.7839 27.144 60.8178 27.1505 60.8498 27.1638C60.8819 27.1771 60.9095 27.1953 60.9332 27.2187C60.9566 27.2424 60.9751 27.27 60.9881 27.3021C61.0014 27.3341 61.0079 27.368 61.0079 27.4039C61.0079 27.4396 61.0014 27.4735 60.9881 27.5055C60.9751 27.5376 60.9566 27.5652 60.9332 27.5889C60.9095 27.6123 60.8819 27.6308 60.8498 27.6438C60.8177 27.6571 60.7839 27.6636 60.7482 27.6636C60.7123 27.6636 60.6784 27.6571 60.6464 27.6438C60.6143 27.6308 60.5867 27.6123 60.5633 27.5889C60.5396 27.5652 60.5214 27.5376 60.5081 27.5055C60.4948 27.4735 60.4883 27.4396 60.4883 27.4039Z" fill="white"/>
<path d="M61.2598 26.6468C61.2598 26.5281 61.2704 26.4077 61.2921 26.2853C61.314 26.1629 61.3525 26.0519 61.408 25.9521C61.4634 25.8521 61.5393 25.7708 61.6354 25.7078C61.7312 25.6448 61.8536 25.613 62.0024 25.613C62.1511 25.613 62.2736 25.6448 62.3697 25.7078C62.4658 25.7709 62.5413 25.8522 62.597 25.9521C62.6525 26.0519 62.6911 26.1629 62.7127 26.2853C62.7343 26.4077 62.7452 26.5281 62.7452 26.6468C62.7452 26.7654 62.7343 26.886 62.7127 27.0084C62.6911 27.1308 62.6525 27.2418 62.597 27.3415C62.5413 27.4413 62.4657 27.5228 62.3697 27.5859C62.2736 27.6489 62.1511 27.6804 62.0024 27.6804C61.8536 27.6804 61.7312 27.6489 61.6354 27.5859C61.5392 27.5228 61.4634 27.4413 61.408 27.3415C61.3525 27.2418 61.3139 27.1308 61.2921 27.0084C61.2705 26.886 61.2598 26.7654 61.2598 26.6468ZM61.6833 26.6468C61.6833 26.6995 61.6857 26.7625 61.6903 26.8359C61.695 26.9094 61.7078 26.98 61.7286 27.0477C61.7492 27.1157 61.7807 27.173 61.8232 27.2202C61.8657 27.2673 61.9253 27.2907 62.0024 27.2907C62.0776 27.2907 62.137 27.2673 62.1803 27.2202C62.2238 27.173 62.2556 27.1157 62.2764 27.0477C62.2973 26.98 62.3098 26.9094 62.3145 26.8359C62.3191 26.7625 62.3217 26.6995 62.3217 26.6468C62.3217 26.5939 62.3191 26.531 62.3145 26.4575C62.3098 26.384 62.2973 26.3134 62.2764 26.2457C62.2556 26.178 62.2238 26.1207 62.1803 26.0735C62.137 26.0264 62.0777 26.0029 62.0024 26.0029C61.9253 26.0029 61.8656 26.0264 61.8232 26.0735C61.7807 26.1207 61.7492 26.178 61.7286 26.2457C61.7078 26.3134 61.695 26.384 61.6903 26.4575C61.6857 26.5309 61.6833 26.5939 61.6833 26.6468Z" fill="white"/>
<path d="M62.9316 26.6468C62.9316 26.5281 62.9423 26.4077 62.964 26.2853C62.9859 26.1629 63.0244 26.0519 63.0799 25.9521C63.1354 25.8521 63.2111 25.7708 63.3072 25.7078C63.4031 25.6448 63.5255 25.613 63.6743 25.613C63.823 25.613 63.9454 25.6448 64.0415 25.7078C64.1377 25.7709 64.2132 25.8522 64.2689 25.9521C64.3244 26.0519 64.3629 26.1629 64.3845 26.2853C64.4061 26.4077 64.4171 26.5281 64.4171 26.6468C64.4171 26.7654 64.4062 26.886 64.3845 27.0084C64.3629 27.1308 64.3244 27.2418 64.2689 27.3415C64.2131 27.4413 64.1376 27.5228 64.0415 27.5859C63.9454 27.6489 63.823 27.6804 63.6743 27.6804C63.5255 27.6804 63.4031 27.6489 63.3072 27.5859C63.2111 27.5228 63.1353 27.4413 63.0799 27.3415C63.0244 27.2418 62.9858 27.1308 62.964 27.0084C62.9424 26.886 62.9316 26.7654 62.9316 26.6468ZM63.3552 26.6468C63.3552 26.6995 63.3576 26.7625 63.3622 26.8359C63.3669 26.9094 63.3797 26.98 63.4005 27.0477C63.4211 27.1157 63.4526 27.173 63.4951 27.2202C63.5375 27.2673 63.5971 27.2907 63.6743 27.2907C63.7495 27.2907 63.8089 27.2673 63.8522 27.2202C63.8957 27.173 63.9274 27.1157 63.9483 27.0477C63.9691 26.98 63.9817 26.9094 63.9863 26.8359C63.991 26.7625 63.9936 26.6995 63.9936 26.6468C63.9936 26.5939 63.991 26.531 63.9863 26.4575C63.9817 26.384 63.9691 26.3134 63.9483 26.2457C63.9275 26.178 63.8957 26.1207 63.8522 26.0735C63.8089 26.0264 63.7496 26.0029 63.6743 26.0029C63.5971 26.0029 63.5375 26.0264 63.4951 26.0735C63.4526 26.1207 63.4211 26.178 63.4005 26.2457C63.3797 26.3134 63.3669 26.384 63.3622 26.4575C63.3576 26.5309 63.3552 26.5939 63.3552 26.6468Z" fill="white"/>
<path d="M57.8 33.3953L57.3988 33.7483L57.1587 33.4717L57.8112 32.921H58.2066V34.9204H57.8V33.3953Z" fill="white"/>
<path d="M59.5197 34.2059C59.497 34.2116 59.4744 34.2163 59.452 34.2199C59.4293 34.2238 59.4058 34.2257 59.3814 34.2257C59.2871 34.2257 59.2014 34.2088 59.1243 34.1749C59.0472 34.1408 58.9813 34.0947 58.9266 34.0363C58.8719 33.978 58.8297 33.909 58.7994 33.8287C58.7692 33.7487 58.7544 33.6636 58.7544 33.5732C58.7544 33.4697 58.7737 33.376 58.8122 33.2921C58.8507 33.2085 58.9034 33.1364 58.9703 33.0762C59.0373 33.016 59.1157 32.9694 59.2061 32.9363C59.2965 32.9035 59.3944 32.8868 59.4999 32.8868C59.6036 32.8868 59.701 32.9035 59.7922 32.9363C59.8836 32.9694 59.9625 33.0161 60.0294 33.0762C60.0963 33.1363 60.149 33.2085 60.1875 33.2921C60.2261 33.376 60.2454 33.4698 60.2454 33.5732C60.2454 33.6448 60.2388 33.7102 60.2258 33.7696C60.2125 33.8287 60.1951 33.8849 60.1734 33.9376C60.1518 33.9902 60.1263 34.0407 60.0971 34.0887C60.0679 34.1366 60.0374 34.1861 60.0054 34.2369L59.5675 34.9204H59.0508L59.5197 34.2059ZM59.1779 33.5901C59.1779 33.6805 59.2076 33.7552 59.267 33.8147C59.3261 33.8741 59.4037 33.9037 59.4998 33.9037C59.5959 33.9037 59.6736 33.874 59.7329 33.8147C59.792 33.7552 59.8217 33.6805 59.8217 33.5901C59.8217 33.4997 59.792 33.425 59.7329 33.3655C59.6735 33.3064 59.5959 33.2767 59.4998 33.2767C59.4037 33.2767 59.3261 33.3064 59.267 33.3655C59.2076 33.425 59.1779 33.4997 59.1779 33.5901Z" fill="white"/>
<path d="M60.4883 33.7739C60.4883 33.7382 60.4948 33.7043 60.5081 33.6723C60.5214 33.6402 60.5396 33.6124 60.5633 33.5889C60.5867 33.5652 60.6143 33.547 60.6464 33.5337C60.6785 33.5207 60.7123 33.5139 60.7482 33.5139C60.7839 33.5139 60.8178 33.5207 60.8498 33.5337C60.8819 33.547 60.9095 33.5653 60.9332 33.5889C60.9566 33.6124 60.9751 33.6402 60.9881 33.6723C61.0014 33.7044 61.0079 33.7382 61.0079 33.7739C61.0079 33.8096 61.0014 33.8434 60.9881 33.8754C60.9751 33.9075 60.9566 33.9354 60.9332 33.9588C60.9095 33.9825 60.8819 34.0008 60.8498 34.014C60.8177 34.0271 60.7839 34.0336 60.7482 34.0336C60.7123 34.0336 60.6784 34.0271 60.6464 34.014C60.6143 34.0007 60.5867 33.9825 60.5633 33.9588C60.5396 33.9354 60.5213 33.9075 60.5081 33.8754C60.4948 33.8434 60.4883 33.8095 60.4883 33.7739ZM60.4883 34.6777C60.4883 34.6418 60.4948 34.6079 60.5081 34.5759C60.5214 34.5438 60.5396 34.5162 60.5633 34.4925C60.5867 34.4691 60.6143 34.4509 60.6464 34.4376C60.6785 34.4243 60.7123 34.4178 60.7482 34.4178C60.7839 34.4178 60.8178 34.4243 60.8498 34.4376C60.8819 34.4509 60.9095 34.4691 60.9332 34.4925C60.9566 34.5162 60.9751 34.5438 60.9881 34.5759C61.0014 34.608 61.0079 34.6418 61.0079 34.6777C61.0079 34.7134 61.0014 34.7473 60.9881 34.7793C60.9751 34.8114 60.9566 34.839 60.9332 34.8627C60.9095 34.8861 60.8819 34.9046 60.8498 34.9176C60.8177 34.9309 60.7839 34.9374 60.7482 34.9374C60.7123 34.9374 60.6784 34.9309 60.6464 34.9176C60.6143 34.9046 60.5867 34.8861 60.5633 34.8627C60.5396 34.839 60.5213 34.8114 60.5081 34.7793C60.4948 34.7472 60.4883 34.7134 60.4883 34.6777Z" fill="white"/>
<path d="M61.2598 33.9207C61.2598 33.8019 61.2704 33.6816 61.2921 33.5592C61.314 33.4368 61.3525 33.3258 61.408 33.226C61.4634 33.126 61.5393 33.0447 61.6354 32.9816C61.7312 32.9186 61.8536 32.8868 62.0024 32.8868C62.1511 32.8868 62.2736 32.9186 62.3696 32.9816C62.4658 33.0447 62.5413 33.126 62.597 33.226C62.6525 33.3258 62.6911 33.4367 62.7127 33.5592C62.7343 33.6816 62.7452 33.8019 62.7452 33.9207C62.7452 34.0392 62.7343 34.1598 62.7127 34.2822C62.691 34.4046 62.6525 34.5156 62.597 34.6154C62.5413 34.7152 62.4657 34.7967 62.3696 34.8597C62.2736 34.9228 62.1511 34.9543 62.0024 34.9543C61.8536 34.9543 61.7312 34.9228 61.6354 34.8597C61.5392 34.7967 61.4634 34.7152 61.408 34.6154C61.3525 34.5157 61.3139 34.4047 61.2921 34.2822C61.2704 34.1598 61.2598 34.0392 61.2598 33.9207ZM61.6833 33.9207C61.6833 33.9733 61.6857 34.0363 61.6903 34.1098C61.695 34.1833 61.7078 34.2539 61.7286 34.3216C61.7492 34.3896 61.7807 34.4469 61.8232 34.494C61.8657 34.5412 61.9253 34.5646 62.0024 34.5646C62.0776 34.5646 62.137 34.5412 62.1803 34.494C62.2238 34.4469 62.2556 34.3896 62.2764 34.3216C62.2973 34.2539 62.3098 34.1833 62.3145 34.1098C62.3191 34.0363 62.3217 33.9733 62.3217 33.9207C62.3217 33.8678 62.3191 33.8048 62.3145 33.7313C62.3098 33.6579 62.2973 33.5873 62.2764 33.5196C62.2556 33.4518 62.2238 33.3945 62.1803 33.3474C62.137 33.3002 62.0777 33.2768 62.0024 33.2768C61.9253 33.2768 61.8656 33.3002 61.8232 33.3474C61.7807 33.3945 61.7492 33.4518 61.7286 33.5196C61.7078 33.5873 61.695 33.6579 61.6903 33.7313C61.6857 33.8048 61.6833 33.8679 61.6833 33.9207Z" fill="white"/>
<path d="M62.9316 33.9207C62.9316 33.8019 62.9423 33.6816 62.964 33.5592C62.9859 33.4368 63.0244 33.3258 63.0799 33.226C63.1353 33.126 63.2111 33.0447 63.3072 32.9816C63.4031 32.9186 63.5255 32.8868 63.6742 32.8868C63.823 32.8868 63.9454 32.9186 64.0415 32.9816C64.1377 33.0447 64.2132 33.126 64.2689 33.226C64.3244 33.3258 64.3629 33.4367 64.3845 33.5592C64.4061 33.6816 64.4171 33.8019 64.4171 33.9207C64.4171 34.0392 64.4062 34.1598 64.3845 34.2822C64.3629 34.4046 64.3244 34.5156 64.2689 34.6154C64.2131 34.7152 64.1376 34.7967 64.0415 34.8597C63.9454 34.9228 63.823 34.9543 63.6742 34.9543C63.5255 34.9543 63.4031 34.9228 63.3072 34.8597C63.2111 34.7967 63.1353 34.7152 63.0799 34.6154C63.0244 34.5157 62.9858 34.4047 62.964 34.2822C62.9423 34.1598 62.9316 34.0392 62.9316 33.9207ZM63.3551 33.9207C63.3551 33.9733 63.3575 34.0363 63.3622 34.1098C63.3668 34.1833 63.3796 34.2539 63.4005 34.3216C63.421 34.3896 63.4525 34.4469 63.495 34.494C63.5375 34.5412 63.5971 34.5646 63.6742 34.5646C63.7495 34.5646 63.8089 34.5412 63.8521 34.494C63.8956 34.4469 63.9274 34.3896 63.9483 34.3216C63.9691 34.2539 63.9816 34.1833 63.9863 34.1098C63.9909 34.0363 63.9936 33.9733 63.9936 33.9207C63.9936 33.8678 63.9909 33.8048 63.9863 33.7313C63.9816 33.6579 63.9691 33.5873 63.9483 33.5196C63.9274 33.4518 63.8956 33.3945 63.8521 33.3474C63.8089 33.3002 63.7495 33.2768 63.6742 33.2768C63.5971 33.2768 63.5374 33.3002 63.495 33.3474C63.4525 33.3945 63.421 33.4518 63.4005 33.5196C63.3796 33.5873 63.3668 33.6579 63.3622 33.7313C63.3575 33.8048 63.3551 33.8679 63.3551 33.9207Z" fill="white"/>
<path d="M84.2704 18.1938H67.072C66.8661 18.1938 66.6992 18.0269 66.6992 17.8211V17.6737C66.6992 17.4678 66.8661 17.3009 67.072 17.3009H84.2704C84.4763 17.3009 84.6432 17.4678 84.6432 17.6737V17.8211C84.6432 18.0269 84.4763 18.1938 84.2704 18.1938Z" fill="#584D5D"/>
<path d="M89.7064 21.0862H67.072C66.8661 21.0862 66.6992 20.9193 66.6992 20.7134V20.566C66.6992 20.3601 66.8661 20.1932 67.072 20.1932H89.7064C89.9123 20.1932 90.0792 20.3601 90.0792 20.566V20.7134C90.0791 20.9193 89.9122 21.0862 89.7064 21.0862Z" fill="#584D5D"/>
<path d="M88.9191 25.7884H67.072C66.8661 25.7884 66.6992 25.6215 66.6992 25.4157V25.2683C66.6992 25.0624 66.8661 24.8955 67.072 24.8955H88.9191C89.125 24.8955 89.2919 25.0624 89.2919 25.2683V25.4157C89.2919 25.6215 89.125 25.7884 88.9191 25.7884Z" fill="#584D5D"/>
<path d="M80.8304 28.6808H67.072C66.8661 28.6808 66.6992 28.5139 66.6992 28.308V28.1606C66.6992 27.9547 66.8661 27.7878 67.072 27.7878H80.8304C81.0363 27.7878 81.2032 27.9547 81.2032 28.1606V28.308C81.2032 28.5139 81.0362 28.6808 80.8304 28.6808Z" fill="#584D5D"/>
<path d="M78.661 33.1004H67.072C66.8661 33.1004 66.6992 32.9336 66.6992 32.7277V32.5803C66.6992 32.3744 66.8661 32.2075 67.072 32.2075H78.661C78.8669 32.2075 79.0338 32.3744 79.0338 32.5803V32.7277C79.0338 32.9336 78.8668 33.1004 78.661 33.1004Z" fill="#584D5D"/>
<path d="M87.4315 35.9928H67.072C66.8661 35.9928 66.6992 35.8259 66.6992 35.62V35.4726C66.6992 35.2667 66.8661 35.0999 67.072 35.0999H87.4315C87.6374 35.0999 87.8043 35.2667 87.8043 35.4726V35.62C87.8043 35.8259 87.6374 35.9928 87.4315 35.9928Z" fill="#584D5D"/>
<path d="M86.5026 75.7187H60.1035C58.5909 75.7187 57.3647 74.4926 57.3647 72.98V43.7724C57.3647 42.2598 58.5909 41.0337 60.1035 41.0337H86.5026C88.0151 41.0337 89.2413 42.2598 89.2413 43.7724V72.98C89.2413 74.4926 88.0151 75.7187 86.5026 75.7187Z" fill="white"/>
<path d="M63.5012 43.3658H59.8027V47.0643H63.5012V43.3658Z" fill="#584D5D"/>
<path d="M63.8513 43.0153H60.1528V46.7137H63.8513V43.0153Z" fill="#D8988C"/>
<path d="M63.676 52.2568H59.9775V55.9553H63.676V52.2568Z" fill="#584D5D"/>
<path d="M64.0266 51.9062H60.3281V55.6047H64.0266V51.9062Z" fill="#D8988C"/>
<path d="M63.8513 61.1477H60.1528V64.8461H63.8513V61.1477Z" fill="#584D5D"/>
<path d="M64.2019 60.7972H60.5034V64.4957H64.2019V60.7972Z" fill="#D8988C"/>
<path d="M64.0266 70.0386H60.3281V73.737H64.0266V70.0386Z" fill="#584D5D"/>
<path d="M64.3771 69.6881H60.6787V73.3865H64.3771V69.6881Z" fill="#D8988C"/>
<path d="M85.507 44.2389H67.1358C66.8946 44.2389 66.6992 44.0435 66.6992 43.8024C66.6992 43.5613 66.8947 43.3658 67.1358 43.3658H85.507C85.7482 43.3658 85.9436 43.5613 85.9436 43.8024C85.9436 44.0435 85.7482 44.2389 85.507 44.2389Z" fill="#FF896A"/>
<path d="M82.4812 46.7138H67.1358C66.8946 46.7138 66.6992 46.5183 66.6992 46.2772C66.6992 46.0361 66.8947 45.8407 67.1358 45.8407H82.4812C82.7223 45.8407 82.9177 46.0362 82.9177 46.2772C82.9178 46.5183 82.7223 46.7138 82.4812 46.7138Z" fill="#FF896A"/>
<path d="M76.4911 52.9546H67.1358C66.8947 52.9546 66.6992 52.7592 66.6992 52.5181C66.6992 52.277 66.8947 52.0815 67.1358 52.0815H76.4911C76.7322 52.0815 76.9276 52.277 76.9276 52.5181C76.9277 52.7592 76.7322 52.9546 76.4911 52.9546Z" fill="#FF896A"/>
<path d="M85.0302 55.4295H67.1358C66.8946 55.4295 66.6992 55.234 66.6992 54.9929C66.6992 54.7518 66.8947 54.5564 67.1358 54.5564H85.0302C85.2713 54.5564 85.4667 54.7519 85.4667 54.9929C85.4667 55.234 85.2713 55.4295 85.0302 55.4295Z" fill="#FF896A"/>
<path d="M81.8864 61.6703H67.1358C66.8946 61.6703 66.6992 61.4748 66.6992 61.2338C66.6992 60.9926 66.8947 60.7972 67.1358 60.7972H81.8864C82.1276 60.7972 82.323 60.9927 82.323 61.2338C82.323 61.4748 82.1276 61.6703 81.8864 61.6703Z" fill="#FF896A"/>
<path d="M83.7778 64.145H67.1358C66.8946 64.145 66.6992 63.9496 66.6992 63.7085C66.6992 63.4674 66.8947 63.272 67.1358 63.272H83.7778C84.0189 63.272 84.2143 63.4674 84.2143 63.7085C84.2144 63.9496 84.0189 64.145 83.7778 64.145Z" fill="#FF896A"/>
<path d="M85.507 70.3859H67.1358C66.8946 70.3859 66.6992 70.1905 66.6992 69.9494C66.6992 69.7083 66.8947 69.5128 67.1358 69.5128H85.507C85.7482 69.5128 85.9436 69.7083 85.9436 69.9494C85.9436 70.1905 85.7482 70.3859 85.507 70.3859Z" fill="#FF896A"/>
<path d="M82.4812 72.8609H67.1358C66.8946 72.8609 66.6992 72.6654 66.6992 72.4243C66.6992 72.1833 66.8947 71.9878 67.1358 71.9878H82.4812C82.7223 71.9878 82.9177 72.1833 82.9177 72.4243C82.9178 72.6655 82.7223 72.8609 82.4812 72.8609Z" fill="#FF896A"/>
<path d="M119.276 61.3857C112.658 63.2068 97.1526 65.9067 102.195 83.2699C103.129 86.487 113.454 83.0809 116.727 74.65C118.726 69.4995 119.276 61.3857 119.276 61.3857Z" fill="#396C8A"/>
<path d="M102.914 84.1648C104.242 79.3299 113.224 66.2383 119.229 61.3275L119.325 61.4442C112.919 66.6825 104.26 79.8321 103.059 84.2047L102.914 84.1648Z" fill="white"/>
<path d="M111.81 69.5197L111.789 69.4522C111.739 69.2892 110.572 65.4388 111.686 63.5823L111.815 63.6598C110.815 65.328 111.761 68.8099 111.913 69.3399C112.51 69.1957 116.763 68.1474 118.534 67.1976L118.606 67.3307C116.692 68.3572 111.927 69.4921 111.879 69.5035L111.81 69.5197Z" fill="white"/>
<path d="M106.459 77.141C106.286 76.8497 103.369 71.8663 103.894 68.7631L104.043 68.7881C103.539 71.7633 106.278 76.5338 106.571 77.0338C107.243 76.9446 114.524 75.9518 116.687 74.5863L116.767 74.7139C114.482 76.1564 106.864 77.1484 106.541 77.1899L106.492 77.1962L106.467 77.1541C106.466 77.1528 106.464 77.1484 106.459 77.141Z" fill="white"/>
<path d="M121.515 19.9243C121.515 14.7171 117.293 10.4958 112.086 10.4958C106.879 10.4958 102.658 14.7171 102.658 19.9243C102.658 24.2673 105.594 27.9238 109.59 29.0181L112.086 34.0106L114.582 29.0181C118.578 27.9238 121.515 24.2673 121.515 19.9243Z" fill="white"/>
<path d="M115.793 18.1898C115.815 19.2954 114.845 21.539 114.192 22.6798C113.8 23.363 113.071 23.2212 112.188 23.2393C111.294 23.2575 110.57 23.5466 110.193 22.8459C109.605 21.7516 108.403 19.4358 108.381 18.3415C108.341 16.3985 109.968 14.7896 112.015 14.7477C114.061 14.7058 115.753 16.2469 115.793 18.1898Z" fill="#FF896A"/>
<path d="M113.855 25.6989C113.698 26.0478 113.202 26.3126 112.825 26.3201L111.677 26.3429C111.28 26.3516 110.739 26.0802 110.597 25.7078C110.58 25.6634 110.569 25.6186 110.565 25.571C110.563 25.5586 110.563 25.5469 110.562 25.5339L110.428 24.8521L110.4 24.7143L110.265 24.0319C110.263 23.9339 110.278 23.8385 110.309 23.7497C110.323 23.7056 110.342 23.6649 110.363 23.624C110.501 23.3672 110.769 23.1899 111.08 23.183L113.293 23.1372C113.628 23.1306 113.924 23.325 114.061 23.6096C114.08 23.6493 114.097 23.6908 114.108 23.7344C114.13 23.8039 114.141 23.8771 114.143 23.9527L114.027 24.6986L114.006 24.8358L113.908 25.4647C113.908 25.4966 113.905 25.5281 113.9 25.5591C113.891 25.6068 113.877 25.6538 113.855 25.6989Z" fill="#584D5D"/>
<path d="M111.84 23.162C111.925 21.6435 111.955 20.047 111.897 19.2129C111.529 19.2118 111.196 19.1915 111.007 19.1514C110.921 19.1332 110.66 19.078 110.676 18.9095C110.688 18.7922 110.758 18.6909 110.88 18.6164C111.163 18.4435 111.668 18.4448 111.835 18.5111C111.923 18.5476 111.975 18.7613 112.01 19.086C112.109 19.0849 112.209 19.0822 112.309 19.0782C112.325 18.8503 112.353 18.6705 112.395 18.5627C112.48 18.3475 113.019 18.3655 113.34 18.4827C113.628 18.5869 113.754 18.7615 113.687 18.9608C113.643 19.0924 113.059 19.1733 112.432 19.2016C112.365 20.4854 112.608 23.1145 112.611 23.1464L112.48 23.1587C112.468 23.0288 112.234 20.5042 112.301 19.2067C112.208 19.2098 112.114 19.2117 112.022 19.2125C112.116 20.313 112.015 22.3917 111.971 23.1693L111.84 23.162ZM111.784 18.6325C111.648 18.5788 111.19 18.5815 110.949 18.7289C110.862 18.7816 110.815 18.8466 110.808 18.9219C110.807 18.9316 110.824 18.9501 110.864 18.9697C111.039 19.0539 111.442 19.0864 111.887 19.0868C111.864 18.8283 111.83 18.6655 111.784 18.6325ZM113.341 18.6246C113.325 18.6179 113.309 18.6119 113.295 18.6067C112.959 18.4842 112.554 18.5211 112.518 18.6112C112.48 18.707 112.455 18.8675 112.44 19.0722C112.987 19.0441 113.479 18.9788 113.564 18.9108C113.606 18.7681 113.459 18.6751 113.341 18.6246Z" fill="white"/>
<path d="M114.108 23.7342C112.911 23.9621 111.633 23.967 110.309 23.7496C110.323 23.7055 110.342 23.6648 110.363 23.6239C111.651 23.8341 112.895 23.8278 114.061 23.6095C114.08 23.6491 114.096 23.6906 114.108 23.7342Z" fill="white"/>
<path d="M114.006 24.8356C112.873 25.0382 111.673 25.0441 110.428 24.852L110.4 24.7142C111.663 24.9154 112.883 24.9088 114.027 24.6984L114.006 24.8356Z" fill="white"/>
<path d="M113.855 25.6989C112.819 25.8665 111.726 25.8706 110.597 25.7078C110.58 25.6634 110.569 25.6185 110.565 25.5709C111.722 25.7402 112.843 25.7374 113.9 25.559C113.891 25.6068 113.877 25.6538 113.855 25.6989Z" fill="white"/>
<path d="M21.5179 51.8479C23.3084 50.0574 23.3084 47.1545 21.5179 45.364C19.7274 43.5735 16.8245 43.5735 15.034 45.364C13.2435 47.1545 13.2435 50.0574 15.034 51.8479C16.8245 53.6384 19.7274 53.6384 21.5179 51.8479Z" fill="#FF896A"/>
<path d="M20.9912 51.3215C22.491 49.8217 22.491 47.3902 20.9912 45.8905C19.4915 44.3907 17.06 44.3907 15.5602 45.8905C14.0605 47.3902 14.0605 49.8217 15.5602 51.3215C17.06 52.8212 19.4915 52.8212 20.9912 51.3215Z" fill="#E5F6FF"/>
<path d="M18.0304 51.5843V50.8518C17.6098 50.8444 17.1744 50.7138 16.9204 50.5325L17.0947 50.0463C17.3558 50.2206 17.7333 50.3582 18.1397 50.3582C18.6549 50.3582 19.0028 50.0608 19.0028 49.6473C19.0028 49.2482 18.7198 49.0016 18.1829 48.7839C17.4433 48.4938 16.986 48.1601 16.986 47.5289C16.986 46.9266 17.4137 46.4696 18.0812 46.3607V45.6282H18.5314V46.3317C18.9667 46.3462 19.2639 46.4623 19.4742 46.5857L19.2929 47.0646C19.1404 46.9774 18.8433 46.8179 18.379 46.8179C17.8202 46.8179 17.6099 47.1517 17.6099 47.4417C17.6099 47.8189 17.8781 48.0077 18.5096 48.2688C19.2569 48.5736 19.6337 48.9508 19.6337 49.5965C19.6337 50.1698 19.235 50.7065 18.4877 50.8299V51.5843H18.0304Z" fill="#FF896A"/>
<path d="M20.8168 19.5292H22.0829V18.2631C22.0829 18.0194 22.2805 17.8218 22.5243 17.8218H22.6869C22.9306 17.8218 23.1283 18.0194 23.1283 18.2631V19.5292H24.3943C24.638 19.5292 24.8357 19.7268 24.8357 19.9706V20.1332C24.8357 20.3769 24.638 20.5745 24.3943 20.5745H23.1283V21.8405C23.1283 22.0843 22.9306 22.2819 22.6869 22.2819H22.5243C22.2805 22.2819 22.0829 22.0843 22.0829 21.8405V20.5745H20.8168C20.5731 20.5745 20.3755 20.3769 20.3755 20.1332V19.9706C20.3755 19.7268 20.5731 19.5292 20.8168 19.5292Z" fill="#D8988C"/>
<path d="M105.641 52.1494H106.848V50.9421C106.848 50.7097 107.037 50.5212 107.269 50.5212H107.424C107.657 50.5212 107.845 50.7097 107.845 50.9421V52.1494H109.052C109.285 52.1494 109.473 52.3378 109.473 52.5703V52.7253C109.473 52.9578 109.285 53.1462 109.052 53.1462H107.845V54.3535C107.845 54.5859 107.657 54.7744 107.424 54.7744H107.269C107.037 54.7744 106.848 54.5859 106.848 54.3535V53.1462H105.641C105.409 53.1462 105.22 52.9578 105.22 52.7253V52.5703C105.22 52.3378 105.409 52.1494 105.641 52.1494Z" fill="#B75A5E"/>
<path d="M139.766 34.1607H141V32.927C141 32.6894 141.192 32.4968 141.43 32.4968H141.588C141.826 32.4968 142.019 32.6894 142.019 32.927V34.1607H143.252C143.49 34.1607 143.682 34.3533 143.682 34.5909V34.7493C143.682 34.9869 143.49 35.1795 143.252 35.1795H142.019V36.4132C142.019 36.6508 141.826 36.8434 141.588 36.8434H141.43C141.192 36.8434 141 36.6508 141 36.4132V35.1795H139.766C139.529 35.1795 139.336 34.9869 139.336 34.7493V34.5909C139.336 34.3533 139.528 34.1607 139.766 34.1607Z" fill="#396C8A"/>
<path d="M148.583 44.3999C148.583 45.265 148.545 46.117 148.469 46.9522C147.761 54.8976 143.79 61.3341 138.597 63.2547C137.827 63.5406 137.031 63.7261 136.214 63.8015C135.931 63.829 135.648 63.8422 135.361 63.8422C134.244 63.8422 133.16 63.6388 132.125 63.2547C126.933 61.3341 122.96 54.8976 122.252 46.9522C122.176 46.117 122.138 45.265 122.138 44.3999C122.138 43.5347 122.176 42.6827 122.252 41.8475H148.469C148.545 42.6827 148.583 43.5347 148.583 44.3999Z" fill="white"/>
<path d="M147.387 44.3999C147.387 45.222 147.35 46.044 147.278 46.8446C147.121 48.6 146.8 50.2704 146.341 51.8224C144.447 58.2422 140.185 62.6457 135.361 62.6457C130.953 62.6457 127.013 58.9685 124.922 53.4354L124.92 53.4343C124.17 51.4491 123.656 49.2247 123.444 46.8458C123.372 46.0453 123.335 45.222 123.335 44.3999C123.335 43.9464 123.346 43.4941 123.368 43.0442H147.353C147.376 43.4941 147.387 43.9465 147.387 44.3999Z" fill="#FFE3D7"/>
<path d="M150 41.8475H120.723V46.9522H150V41.8475Z" fill="#584D5D"/>
<path d="M150 41.8475V46.9522H120.723V45.6862C120.723 45.6862 144.026 45.6862 146.629 45.6862C149.232 45.6862 148.723 43.3828 148.723 41.8475H150Z" fill="#C3ABCF"/>
<path d="M148.583 82.1107C148.583 82.5427 148.573 82.9722 148.554 83.397C148.535 83.823 148.508 84.2454 148.469 84.663H122.252C122.181 83.8805 122.143 83.0847 122.139 82.2758C122.138 82.2208 122.138 82.1657 122.138 82.1107C122.138 81.2455 122.176 80.3936 122.252 79.5583C122.96 71.6129 126.933 65.1764 132.125 63.2547C133.16 62.8717 134.244 62.6683 135.361 62.6683H135.382C136.491 62.6707 137.568 62.8742 138.597 63.2547C143.79 65.1764 147.761 71.6129 148.469 79.5583C148.545 80.3936 148.583 81.2456 148.583 82.1107Z" fill="white"/>
<path d="M137.232 64.1723H133.743C134.786 63.5609 134.786 62.9495 133.743 62.3381H137.232C136.085 62.9495 136.085 63.5609 137.232 64.1723Z" fill="#FFE3D7"/>
<path d="M147.387 82.1107C147.387 82.5643 147.376 83.0165 147.353 83.4665H123.368C123.346 83.0165 123.335 82.5643 123.335 82.1107C123.335 81.2887 123.372 80.4654 123.444 79.6649C123.574 78.2026 123.818 76.799 124.162 75.4744C124.377 74.6428 124.631 73.841 124.92 73.0764L124.922 73.0752C127.013 67.5421 130.953 63.865 135.361 63.865C138.764 63.865 141.887 66.056 144.096 69.6003C145.02 71.0805 145.783 72.7976 146.341 74.6883C146.8 76.2402 147.121 77.9107 147.278 79.6662C147.35 80.4666 147.387 81.2887 147.387 82.1107Z" fill="#FFE3D7"/>
<path d="M147.387 82.1107C147.387 82.5642 147.376 83.0165 147.353 83.4664H123.368C123.346 83.0165 123.335 82.5642 123.335 82.1107C123.335 81.2886 123.372 80.4654 123.444 79.6648C123.574 78.2026 123.818 76.799 124.162 75.4744C128.381 71.443 131.52 71.5271 135.78 73.6657C141.205 76.3889 144.595 71.9814 144.096 69.6002C145.02 71.0804 145.783 72.7975 146.341 74.6882C146.8 76.2402 147.121 77.9106 147.278 79.6661C147.35 80.4666 147.387 81.2886 147.387 82.1107Z" fill="#FF896A"/>
<path d="M150 79.5583H120.723V84.663H150V79.5583Z" fill="#584D5D"/>
<path d="M150 83.397V84.663H120.723V79.5583H121.999C121.999 80.402 121.846 81.4777 122.139 82.2758C122.38 82.9292 122.921 83.397 124.093 83.397H148.554C149.467 83.397 150 83.397 150 83.397Z" fill="#C3ABCF"/>
<path d="M146.341 51.8224C144.447 58.2422 140.186 62.6457 135.361 62.6457C130.953 62.6457 127.014 58.9685 124.922 53.4354C126.84 55.5427 130.476 56.6041 134.604 53.4343C138.731 50.2633 143.876 49.8445 146.341 51.8224Z" fill="#FF896A"/>
<path d="M131.637 52.9166C133.195 52.4182 134.228 51.296 133.945 50.4101C133.661 49.5242 132.169 49.2101 130.611 49.7085C129.053 50.2068 128.02 51.329 128.304 52.2149C128.587 53.1008 130.08 53.4149 131.637 52.9166Z" fill="#FF896A"/>
<path d="M138.598 63.2547C143.79 65.1765 147.761 71.6129 148.47 79.5584H150V84.6631H140.658C140.658 84.2335 140.655 83.8123 140.646 83.3971C140.623 82.0401 140.564 80.761 140.475 79.5584C139.809 70.5767 137.487 65.7999 136.214 63.8016C135.777 63.1159 135.464 62.7581 135.382 62.6684C135.368 62.6528 135.361 62.6456 135.361 62.6456C138.739 60.2465 140.348 53.9488 140.617 46.9522C140.682 45.2758 140.67 43.5599 140.586 41.8475H150V46.9522H148.47C147.761 54.8976 143.79 61.3341 138.598 63.2547Z" fill="#F0E4DF"/>
<path d="M105.619 84.6308H84.5796C84.0239 84.6308 83.611 84.1162 83.7322 83.5732L86.6651 70.392C86.9924 69.0245 88.2157 68.0599 89.6222 68.0599H103.676C103.697 68.0599 103.718 68.0606 103.738 68.0613C103.739 68.0606 103.74 68.0606 103.742 68.0613C104.416 68.0936 104.968 68.617 105.03 69.2953L106.483 83.6749C106.534 84.1862 106.132 84.6308 105.619 84.6308Z" fill="#D8988C"/>
<path d="M105.619 84.6308H102.202C101.654 84.6308 101.222 84.1674 101.259 83.6211L102.214 69.5298C102.227 69.3331 102.276 69.1465 102.354 68.9767C102.579 68.4877 103.047 68.1368 103.598 68.0721C103.644 68.066 103.691 68.0626 103.738 68.0613C103.739 68.0606 103.741 68.0606 103.742 68.0613C104.416 68.0936 104.969 68.617 105.03 69.2953L106.483 83.6749C106.534 84.1863 106.133 84.6308 105.619 84.6308Z" fill="#C48A80"/>
<path d="M102.509 72.2163C102.507 72.2163 102.506 72.2163 102.504 72.2162C102.467 72.2137 102.439 72.1815 102.442 72.1444L102.617 69.5572C102.657 68.961 103.137 68.4919 103.733 68.466L103.736 68.4658L103.74 68.4661C104.204 68.4968 104.586 68.869 104.627 69.3318C104.631 69.3689 104.603 69.4016 104.566 69.405C104.53 69.4081 104.497 69.381 104.493 69.3439C104.457 68.9477 104.132 68.6289 103.735 68.6007C103.209 68.6254 102.787 69.0399 102.751 69.5662L102.576 72.1535C102.574 72.1891 102.544 72.2163 102.509 72.2163Z" fill="#584D5D"/>
<path d="M102.941 84.2266H102.202C102.05 84.2266 101.91 84.1657 101.807 84.055C101.703 83.9443 101.652 83.7998 101.662 83.6484L101.971 79.0811C101.974 79.044 102.005 79.0159 102.043 79.0185C102.08 79.021 102.108 79.0531 102.106 79.0902L101.796 83.6575C101.789 83.7714 101.827 83.8799 101.905 83.9632C101.983 84.0462 102.088 84.0919 102.202 84.0919H102.941C102.979 84.0919 103.009 84.1221 103.009 84.1593C103.009 84.1965 102.979 84.2266 102.941 84.2266Z" fill="#584D5D"/>
<path d="M105.619 84.2267C105.581 84.2267 105.551 84.1965 105.551 84.1593C105.551 84.1221 105.581 84.0919 105.619 84.0919C105.713 84.0919 105.799 84.0534 105.863 83.9834C105.926 83.9133 105.956 83.8229 105.947 83.7291L105.674 81.0332C105.67 80.9962 105.697 80.9631 105.735 80.9593C105.772 80.9556 105.805 80.9826 105.808 81.0196L106.081 83.7156C106.094 83.8478 106.052 83.9751 105.963 84.0738C105.874 84.1724 105.751 84.2267 105.619 84.2267Z" fill="#584D5D"/>
<path d="M92.1932 67.701H91.7891V66.2719C91.7891 65.5906 91.9999 65.2446 93.1522 65.2446V65.6488C92.1932 65.6488 92.1932 65.8441 92.1932 66.2719V67.701Z" fill="#584D5D"/>
<path d="M100.397 67.701H99.9932V66.2719C99.9932 65.8441 99.9932 65.6488 99.0342 65.6488V65.2446C100.186 65.2446 100.397 65.5906 100.397 66.2719V67.701Z" fill="#584D5D"/>
<path d="M93.2799 68.0608H90.7012V67.6025C90.7012 67.4582 90.8181 67.3412 90.9625 67.3412H93.0186C93.163 67.3412 93.2799 67.4582 93.2799 67.6025L93.2799 68.0608Z" fill="#FFE3D7"/>
<path d="M101.485 68.0608H98.9062V67.6025C98.9062 67.4582 99.0232 67.3412 99.1675 67.3412H101.224C101.368 67.3412 101.485 67.4582 101.485 67.6025V68.0608Z" fill="#FFE3D7"/>
<path d="M93.9529 78.1863H91.0516C90.7385 78.1863 90.5044 77.8986 90.5681 77.5921L90.7013 76.9514H94.6113L94.4363 77.7931C94.3887 78.0221 94.1868 78.1863 93.9529 78.1863Z" fill="#FFE3D7"/>
<path d="M92.692 65.994H99.4614C99.6227 65.994 99.7535 65.8632 99.7535 65.7019V65.1915C99.7535 65.0302 99.6227 64.8994 99.4614 64.8994H92.692C92.5307 64.8994 92.3999 65.0302 92.3999 65.1915V65.7019C92.3999 65.8632 92.5306 65.994 92.692 65.994Z" fill="#D8988C"/>
<path d="M103.598 68.0599C103.598 68.064 103.598 68.068 103.597 68.072C103.046 68.1367 102.579 68.4876 102.354 68.9767C102.05 69.4853 101.824 70.3206 101.618 71.7392C101.333 73.7075 101.201 74.6411 101.121 75.1989C101.086 75.4481 101.061 75.6232 101.038 75.7835C100.905 76.6963 100.4 77.0863 99.349 77.0863H86.8642C86.7901 77.0863 86.7295 77.0257 86.7295 76.9516C86.7295 76.8768 86.7901 76.8169 86.8642 76.8169H99.3489C100.26 76.8169 100.659 76.5158 100.772 75.7445C100.795 75.5849 100.819 75.4097 100.854 75.1611C100.934 74.6027 101.066 73.6691 101.352 71.7001C101.715 69.1909 102.182 68.394 103.006 68.0599H103.598Z" fill="#584D5D"/>
<path d="M102.201 83.811C102.172 83.811 102.143 83.7985 102.123 83.7742C102.087 83.7311 102.093 83.6675 102.136 83.632C102.275 83.5177 102.477 83.3766 102.733 83.1979C103.03 82.9905 103.399 82.7325 103.811 82.4173C104.035 82.2454 104.03 82.0656 104.022 81.7935C104.021 81.7489 104.02 81.703 104.019 81.6559C104.018 81.2234 103.619 69.9176 103.615 69.8034C103.613 69.7477 103.657 69.7009 103.713 69.6989C103.768 69.6979 103.815 69.7405 103.817 69.7963C103.834 70.2625 104.22 81.2193 104.222 81.655C104.222 81.7005 104.223 81.7447 104.224 81.7878C104.232 82.0732 104.24 82.3429 103.933 82.5777C103.519 82.8956 103.147 83.1551 102.849 83.3636C102.596 83.5397 102.397 83.6789 102.265 83.7879C102.246 83.8034 102.223 83.811 102.201 83.811Z" fill="#584D5D"/>
<path d="M98.7655 84.0468H84.5522C84.515 84.0468 84.4849 84.0167 84.4849 83.9795C84.4849 83.9423 84.515 83.9121 84.5522 83.9121H98.7655C98.8026 83.9121 98.8328 83.9423 98.8328 83.9795C98.8328 84.0167 98.8026 84.0468 98.7655 84.0468Z" fill="#584D5D"/>
<path d="M0.874561 84.5512H44.402C44.885 84.5512 45.2766 84.1597 45.2766 83.6766V78.0928C45.2766 77.6097 44.885 77.2181 44.402 77.2181H0.874561C0.391544 77.2181 5.04033e-09 77.6097 5.04033e-09 78.0928V83.6766C-5.12979e-05 84.1596 0.391544 84.5512 0.874561 84.5512Z" fill="#D1676B"/>
<path d="M-0.000240326 78.6085H45.2764V78.0927H-0.000240326V78.6085Z" fill="#B75A5E"/>
<path d="M-0.000240326 83.6766H45.2764V83.1608H-0.000240326V83.6766Z" fill="#B75A5E"/>
<path d="M1.81637 82.0957H4.23828V79.6738H1.81637L1.81637 82.0957Z" fill="#FFE3D7"/>
<path d="M35.3193 79.6738H35.853V81.6033H36.8415V82.0957H35.3193V79.6738Z" fill="#FFE3D7"/>
<path d="M37.9325 79.6738H38.3738L39.4273 82.0957H38.8253L38.6167 81.5827H37.6759L37.4741 82.0957H36.8857L37.9325 79.6738ZM38.1377 80.3784L37.8436 81.1312H38.4353L38.1377 80.3784Z" fill="#FFE3D7"/>
<path d="M39.3315 79.6738H39.9131L40.2996 81.2269H40.3065L40.8127 79.6738H41.3088L41.8116 81.2679H41.8186L42.2255 79.6738H42.766L42.0579 82.0957H41.5825L41.0488 80.4196H41.042L40.5083 82.0957H40.05L39.3315 79.6738Z" fill="#FFE3D7"/>
<path d="M41.9356 67.3136V77.2182H5.51515C4.28629 77.2182 3.29102 76.2684 3.29102 75.0958V69.436C3.29102 68.2634 4.28634 67.3136 5.51515 67.3136H41.9356Z" fill="#3F7899"/>
<path d="M43.199 68.0212V76.5108H43.9795V77.2183H29.507C28.2153 77.2183 27.1655 76.2686 27.1655 75.0959V69.4361C27.1655 68.2635 28.2153 67.3137 29.507 67.3137H43.9795V68.0212H43.199Z" fill="#396C8A"/>
<path d="M29.5073 76.5108C28.6466 76.5108 27.9463 75.876 27.9463 75.0958V69.4361C27.9463 68.6558 28.6466 68.0211 29.5073 68.0211H43.1992V76.5108H29.5073Z" fill="white"/>
<path d="M36.5892 68.6954H29.272V68.8723H36.5892V68.6954Z" fill="#FFE3D7"/>
<path d="M42.4423 68.6954H37.7837V68.8723H42.4423V68.6954Z" fill="#FFE3D7"/>
<path d="M37.1743 69.9335H33.0767V70.1104H37.1743V69.9335Z" fill="#FFE3D7"/>
<path d="M40.4184 69.9335H38.7842V70.1104H40.4184V69.9335Z" fill="#FFE3D7"/>
<path d="M34.1987 72.3876H29.5156V72.5644H34.1987V72.3876Z" fill="#FFE3D7"/>
<path d="M40.8091 72.3876H35.2236V72.5644H40.8091V72.3876Z" fill="#FFE3D7"/>
<path d="M41.7842 74.0898H38.7842V74.2667H41.7842V74.0898Z" fill="#FFE3D7"/>
<path d="M36.1745 74.0898H29.7109V74.2667H36.1745V74.0898Z" fill="#FFE3D7"/>
<path d="M34.6376 75.6597H30.979V75.8365H34.6376V75.6597Z" fill="#FFE3D7"/>
<path d="M38.1621 75.6597H36.6377V75.8365H38.1621V75.6597Z" fill="#FFE3D7"/>
<path d="M39.2527 61.3005V67.2709H9.07708C8.07113 67.2709 7.65137 66.699 7.65137 65.9921V62.5806C7.65137 61.8737 8.07108 61.3005 9.07708 61.3005H39.2527Z" fill="#D8988C"/>
<path d="M39.823 61.7275V66.845H40.6068V67.2715H26.0732C24.776 67.2715 24.1152 66.6989 24.1152 65.9921V62.5804C24.1152 61.8736 24.776 61.301 26.0732 61.301H40.6068V61.7275H39.823Z" fill="#CF8476"/>
<path d="M25.884 66.8449C25.0078 66.8449 24.6885 66.4623 24.6885 65.992V62.5803C24.6885 62.11 25.0078 61.7274 25.884 61.7274H39.8214V66.8449H25.884Z" fill="white"/>
<path d="M33.1851 62.1339H25.8369V62.2405H33.1851V62.1339Z" fill="#FFE3D7"/>
<path d="M39.0631 62.1339H34.3848V62.2405H39.0631V62.1339Z" fill="#FFE3D7"/>
<path d="M33.7727 62.8801H29.6577V62.9867H33.7727V62.8801Z" fill="#FFE3D7"/>
<path d="M37.0307 62.8801H35.3896V62.9867H37.0307V62.8801Z" fill="#FFE3D7"/>
<path d="M30.7843 64.3594H26.0815V64.466H30.7843V64.3594Z" fill="#FFE3D7"/>
<path d="M37.4216 64.3594H31.8125V64.466H37.4216V64.3594Z" fill="#FFE3D7"/>
<path d="M38.4024 65.3856H35.3896V65.4922H38.4024V65.3856Z" fill="#FFE3D7"/>
<path d="M32.7682 65.3856H26.2773V65.4922H32.7682V65.3856Z" fill="#FFE3D7"/>
<path d="M31.2253 66.3318H27.5513V66.4384H31.2253V66.3318Z" fill="#FFE3D7"/>
<path d="M34.7643 66.3318H33.2334V66.4384H34.7643V66.3318Z" fill="#FFE3D7"/>
<path d="M11.9637 67.2709H10.9079C10.8568 67.1095 10.8306 66.9246 10.8306 66.7135V61.8619C10.8306 61.6402 10.8673 61.454 10.9224 61.3005H11.9113C11.8641 61.3215 11.8195 61.3491 11.7815 61.3831C11.6713 61.4828 11.6175 61.6402 11.6175 61.8618V66.7134C11.6175 66.9732 11.6174 67.1791 11.9637 67.2709Z" fill="#584D5D"/>
<path d="M47.165 37.4549C47.165 37.4549 49.0891 38.489 50.5255 38.5467C51.9606 38.6043 53.6697 37.3841 53.6697 37.3841C53.6697 37.3841 52.0904 36.9529 51.903 36.4497C51.8768 36.3789 51.8584 36.2832 51.8479 36.1692C51.8021 35.7236 51.8571 35.0145 51.9016 34.5715C51.9252 34.329 51.9462 34.1665 51.9462 34.1665L49.0537 32.8336C49.1677 33.6934 49.3184 35.9359 49.0314 36.3304C48.7444 36.725 47.165 37.4549 47.165 37.4549Z" fill="#B98370"/>
<path d="M49.9556 34.5717C50.1207 35.1838 50.9542 36.1929 51.8481 36.1693C51.8022 35.7237 51.8573 35.0147 51.9018 34.5717H49.9556Z" fill="#D5A898"/>
<path d="M52.5231 30.4045C52.8034 31.0975 52.9457 32.3015 52.9644 32.9682C52.9832 33.6349 52.5982 35.1562 52.354 35.3253C52.1099 35.4943 51.4619 35.5506 51.1332 35.3816C50.8046 35.2126 49.3678 34.2829 49.1988 33.6725C49.0297 33.0621 47.7808 30.4515 49.8373 30.0101C51.8939 29.5688 52.3858 30.0652 52.5231 30.4045Z" fill="#B98370"/>
<path d="M49.1991 33.0966C49.4949 32.6677 49.664 32.0198 49.5935 31.5409C49.5231 31.0619 49.5513 30.7098 50.0866 30.7943C50.6218 30.8788 51.1853 30.5901 51.3965 30.2308C51.6078 29.8717 52.3378 30.9754 52.7159 30.9658C53.0939 30.9563 53.3605 30.0102 53.0218 29.4655C52.6831 28.9209 51.9694 28.1977 51.0773 28.4795C50.1852 28.7612 49.4759 28.5077 48.8257 28.8175C48.1756 29.1274 47.8093 30.0477 47.6778 30.4233C47.5463 30.799 48.1098 32.3672 48.3446 32.6489C48.5793 32.9306 49.1991 33.0966 49.1991 33.0966Z" fill="#352437"/>
<path d="M56.1051 38.0209C57.1886 38.6072 59.3964 45.7042 59.871 46.9383C60.3457 48.1723 60.3931 51.1942 59.0325 51.1942C57.6718 51.1942 55.4727 44.5334 55.4727 44.5334L56.1051 38.0209Z" fill="#584D5D"/>
<path d="M54.0653 80.5076C54.0079 81.1454 53.9636 81.8834 54.2818 82.2391C54.4135 82.3863 53.677 83.0707 53.0101 83.1419C52.4978 83.1965 52.0088 82.7358 52.0933 82.3267C52.2437 81.5976 52.0098 80.2394 52.0098 80.2394C52.0431 79.6873 54.1106 80.0036 54.0653 80.5076Z" fill="#B98370"/>
<path d="M57.5955 84.6699H51.7094C51.6786 84.6446 51.7932 82.281 52.0928 82.3265C52.2597 82.3524 52.3724 82.753 52.5318 82.94C52.6913 83.1271 53.4267 82.8627 53.4593 82.6404C53.4919 82.4181 54.2204 81.8495 54.3397 82.0848C54.6896 82.7753 57.0838 83.6643 57.3749 83.8238C57.7192 84.0125 57.6061 84.5905 57.5955 84.6699Z" fill="#584D5D"/>
<path d="M46.3167 79.7825C46.093 80.3826 45.8555 81.0827 46.0685 81.5098C46.1567 81.6865 45.2657 82.1523 44.6036 82.045C44.0951 81.9625 43.7451 81.389 43.9345 81.0167C44.272 80.3532 44.4048 78.9814 44.4048 78.9814C44.5827 78.4577 46.4934 79.3084 46.3167 79.7825Z" fill="#B98370"/>
<path d="M48.6242 84.7292L42.9468 83.1757C42.9237 83.1432 43.6581 80.8936 43.9351 81.0166C44.0892 81.0856 44.0922 81.5017 44.1967 81.7242C44.3011 81.9467 45.0802 81.8859 45.1703 81.68C45.2604 81.4741 46.1131 81.1181 46.1661 81.3764C46.3214 82.1349 48.3961 83.6242 48.6347 83.8548C48.9171 84.1277 48.6554 84.6554 48.6242 84.7292Z" fill="#584D5D"/>
<path d="M45.3397 37.9523C44.2561 38.5386 42.6883 44.2802 42.2856 48.4571C42.1588 49.7732 43.6041 52.1039 44.6818 51.2733C45.8315 50.3873 46.2323 45.9152 46.2323 45.9152L45.3397 37.9523Z" fill="#584D5D"/>
<path d="M55.8448 54.1845C55.7945 55.766 55.3457 64.9114 55.1875 66.4935C55.0292 68.0757 54.5194 80.948 54.3929 81.4068C54.3172 81.6813 51.8619 81.8495 51.7986 81.6596C51.7353 81.4697 50.3145 68.8667 50.6913 66.6201C50.9896 64.8413 50.3145 53.8048 50.3145 53.8048C50.3145 53.8048 55.876 53.2051 55.8448 54.1845Z" fill="#352437"/>
<path d="M52.1811 53.623C51.9701 55.4502 50.9876 66.0535 50.7194 67.3125C50.4513 68.5714 46.6469 80.6091 46.5415 80.9255C46.436 81.2419 43.8202 80.6091 43.8835 80.2926C43.9468 79.9762 44.9349 71.4615 45.8842 69.1199C46.8335 66.7783 47.0233 65.0697 46.8335 63.3609C46.6436 61.6522 46.2637 54.583 46.517 53.0261C46.7704 51.4693 52.1811 53.623 52.1811 53.623Z" fill="#352437"/>
<path d="M63.9316 40.7921C64.3792 40.5606 64.8975 40.2332 65.1529 40.0128C65.4083 39.7923 65.9782 39.2863 66.269 39.2405C66.4466 39.2125 66.5669 39.1599 66.6652 39.2046C66.8151 39.2725 66.6332 39.4773 66.6535 39.5967C66.6906 39.8149 66.4926 40.0073 66.3003 40.1788C66.0979 40.3595 65.5324 41.4031 64.4589 41.6859C63.3853 41.9688 63.0755 42.1518 63.0262 41.8646C62.977 41.5773 63.2145 41.0775 63.9316 40.7921Z" fill="#B98370"/>
<path d="M62.3345 42.4579C62.4614 41.9658 62.4682 41.5878 62.6822 41.2513C62.8961 40.9148 63.3187 40.4714 63.488 40.3964C63.6574 40.3214 64.6024 39.4734 64.717 39.4201C64.8316 39.3667 64.81 39.5176 64.7568 39.7398C64.7037 39.962 64.0415 40.7014 63.9654 40.955C63.8893 41.2086 63.4644 41.4599 63.5001 41.5512C63.5356 41.6425 62.3345 42.4579 62.3345 42.4579Z" fill="#B98370"/>
<path d="M63.5037 42.9623C63.7329 42.6559 63.5551 42.5261 64.2443 42.2198C64.9336 41.9135 65.1259 41.8356 65.4162 41.5705C65.7064 41.3053 66.3766 40.4135 66.496 40.183C66.6155 39.9526 66.2823 39.982 65.9331 40.4223C65.5839 40.8625 65.3061 41.1149 65.055 41.1192C64.8039 41.1236 63.879 41.6379 63.5 41.5512C63.1883 41.4798 62.3345 42.4579 62.3345 42.4579L63.5037 42.9623Z" fill="#B98370"/>
<path d="M49.199 32.7382C48.9877 32.1889 48.4806 32.0762 48.3256 32.3579C48.1707 32.6396 48.3396 33.1338 48.7623 33.6397C49.185 34.1457 49.3821 33.9919 49.3821 33.8228C49.3821 33.6538 49.199 32.7382 49.199 32.7382Z" fill="#B98370"/>
<path d="M56.1925 38.1255C56.1504 37.7871 52.4243 36.7181 52.2651 36.8129C51.5001 37.2684 48.6537 36.9142 48.5391 36.7233C48.5313 36.7128 48.5128 36.7062 48.4838 36.7049C48.0388 36.6931 45.1291 37.9017 45.1884 38.1098C45.2198 38.2198 48.1935 48.4483 50.9286 48.4673C53.6904 48.4864 56.2137 38.2949 56.1925 38.1255Z" fill="white"/>
<path d="M49.0776 36.1121L50.69 36.9898L51.848 36.2638L52.265 36.9073L51.6449 38.2186L50.69 37.3409L49.7022 38.2501L48.5391 36.8177L49.0776 36.1121Z" fill="#1D3B4A"/>
<path d="M51.0745 38.1556L51.9018 45.1283L51.2501 46.4957L50.0317 44.8726L50.4022 38.1556L50.6902 37.8059L51.0745 38.1556Z" fill="#396C8A"/>
<path d="M46.4958 49.639C46.4958 50.429 46.1903 54.0154 46.1903 54.2682C46.1903 54.4025 48.9196 54.413 51.4988 54.3643H51.5001C51.5001 54.3643 51.2004 45.6696 51.0723 45.3301C50.9667 45.0503 49.2975 38.4308 48.5391 36.7232L48.4838 36.7048C48.3798 36.7022 48.1402 36.7667 47.8361 36.868V36.8694C46.8394 37.2038 45.1436 37.9503 45.1884 38.1096C45.2516 38.3308 46.4958 48.8478 46.4958 49.639Z" fill="#584D5D"/>
<path d="M48.4417 39.0234L47.9519 40.735L51.0551 45.2765C50.743 43.3622 49.2974 38.4309 48.539 36.7233L48.4837 36.7049C48.3797 36.7023 48.1401 36.7668 47.836 36.8682V36.8695L47.6582 38.481L48.4417 39.0234Z" fill="#352437"/>
<path d="M51.5001 54.3645C53.8094 54.3223 55.9989 54.2328 55.9989 54.142C55.9989 53.9524 55.9146 51.3152 55.8514 50.1342C55.7882 48.9532 56.2346 38.4626 56.1924 38.1255C56.1608 37.8754 54.0872 37.2 52.9654 36.9235V36.9221C52.5731 36.826 52.2979 36.7786 52.265 36.8128L51.0908 45.4278L51.5001 54.3645Z" fill="#584D5D"/>
<path d="M53.6699 40.7139L52.8734 39.0023L53.4447 38.1558L52.9655 36.9235V36.9221C52.5731 36.826 52.298 36.7786 52.2651 36.8128L51.0723 45.3303L53.6699 40.7139Z" fill="#352437"/>
<path d="M59.0315 51.1942C60.974 51.479 63.683 43.4733 63.8412 43.062C63.9994 42.6506 62.354 41.5748 62.1325 41.8279C61.911 42.081 58.2721 46.8591 58.1772 47.3337C58.0823 47.8084 57.823 51.017 59.0315 51.1942Z" fill="#584D5D"/>
<path d="M47.1675 49.2341C48.0145 48.7002 48.4309 48.437 48.8023 48.3948C49.0806 48.3632 50.0707 48.0834 50.0588 48.2218C50.0469 48.3601 49.8918 48.4543 49.6227 48.5774C49.3983 48.6801 48.8135 48.7722 48.8631 49.0296C48.8767 49.1 49.1457 49.1763 49.0953 49.215C48.7901 49.4492 47.1675 49.2341 47.1675 49.2341Z" fill="#B98370"/>
<path d="M45.8721 49.3033C46.216 49.2405 46.6841 49.2224 47.3921 49.0943C48.1614 48.955 48.7015 49.1186 48.8965 49.142C49.1675 49.1745 50.0298 49.4177 50.0308 49.6135C50.0332 50.0931 49.281 51.4139 48.9368 51.4205C48.5926 51.4271 47.6735 51.1576 47.4151 50.8433C47.3601 50.7765 46.1779 50.7384 46.1319 50.6067C45.966 50.1308 45.8721 49.3033 45.8721 49.3033Z" fill="#B98370"/>
<path d="M49.3644 49.2459C49.6874 49.2934 50.2822 49.4363 50.5468 49.5692C51.1975 49.896 51.5857 50.1394 51.4836 50.2096C51.3015 50.3347 50.964 50.1811 50.5835 50.0688C50.381 50.009 49.9285 49.939 49.7276 49.9317C49.5529 49.9254 49.0921 49.2058 49.3644 49.2459Z" fill="#B98370"/>
<path d="M49.8216 49.915C49.9327 49.9645 50.4673 50.1437 50.7611 50.3539C51.1483 50.6308 51.6965 50.9658 51.4589 51.0477C51.3176 51.0964 51.1546 51.1374 50.5757 50.8012C50.3589 50.6753 49.8582 50.5931 49.6356 50.5053C49.413 50.4173 49.5628 49.7995 49.8216 49.915Z" fill="#B98370"/>
<path d="M49.4972 50.5252C49.9967 50.688 50.3498 50.7658 50.9386 51.309C51.1237 51.4798 51.0439 51.567 50.7451 51.5209C50.578 51.4951 50.2896 51.3612 50.0976 51.2173C49.9516 51.1078 49.4742 51.1231 49.2649 51.0687C49.0999 51.0259 49.2356 50.4399 49.4972 50.5252Z" fill="#B98370"/>
<path d="M48.9368 51.4205C49.1763 51.5366 49.6085 51.6677 49.8064 51.7552C50.045 51.8608 50.382 51.901 50.4198 51.7571C50.4523 51.6329 49.9736 51.4419 49.781 51.3655C49.587 51.2885 49.3436 51.0786 49.3401 51.0732C49.3366 51.0678 48.6949 51.3032 48.9368 51.4205Z" fill="#B98370"/>
<path d="M51.2494 37.378C51.1397 37.8388 51.0739 38.1555 51.0739 38.1555H50.4015C50.4015 38.1555 50.0645 37.4219 50.0645 37.378C50.0645 37.3341 50.6569 37.0865 50.6569 37.0865L51.2494 37.378Z" fill="#396C8A"/>
<path d="M42.338 47.9645C42.1852 48.8843 41.9404 50.9619 42.6754 51.5801C42.9786 51.8351 44.4459 51.9564 45.5851 51.6758C46.5607 51.4354 47.2989 51.1143 47.3622 50.9877C47.4255 50.8611 47.1654 49.0621 46.9393 49.0621C46.6772 49.0621 44.9995 48.8685 44.2554 48.6364C43.5114 48.4044 42.338 47.9645 42.338 47.9645Z" fill="#584D5D"/>
<path d="M49.0776 36.0176L50.69 36.8953L51.848 36.1693L52.265 36.8128L51.6449 38.1241L50.69 37.2464L49.7022 38.1556L48.5391 36.7233L49.0776 36.0176Z" fill="white"/>
<path d="M58.4242 46.9615C58.4107 46.9615 58.397 46.9583 58.3843 46.9514C58.3435 46.9293 58.3284 46.8784 58.3505 46.8376C58.6002 46.3765 61.3426 42.7096 62.0663 41.7764C62.0947 41.7399 62.1474 41.7333 62.1841 41.7616C62.2207 41.79 62.2274 41.8428 62.1989 41.8794C61.498 42.7832 58.7387 46.4731 58.4981 46.9176C58.4829 46.9456 58.4541 46.9615 58.4242 46.9615Z" fill="#352437"/>
<path d="M51.3771 54.4749C51.3321 54.4749 51.2948 54.4391 51.2933 54.3937L50.9883 45.333C50.9868 45.2867 51.023 45.248 51.0694 45.2464C51.1124 45.2434 51.1546 45.2811 51.156 45.3274L51.461 54.3881C51.4626 54.4344 51.4264 54.4732 51.38 54.4748C51.3791 54.4749 51.3781 54.4749 51.3771 54.4749Z" fill="#352437"/>
</svg>
