<svg width="27" height="17" viewBox="0 0 27 17" fill="none" xmlns="http://www.w3.org/2000/svg">
<path id="Vector" fill-rule="evenodd" clip-rule="evenodd" d="M18.8325 2.19157C18.7082 2.0757 18.6084 1.93598 18.5392 1.78073C18.4701 1.62548 18.4329 1.45789 18.4299 1.28795C18.4269 1.11802 18.4581 0.949217 18.5218 0.791625C18.5854 0.634032 18.6802 0.490875 18.8004 0.370693C18.9206 0.250511 19.0637 0.155767 19.2213 0.0921132C19.3789 0.028459 19.5477 -0.00280136 19.7176 0.000196967C19.8876 0.00319529 20.0552 0.0403912 20.2104 0.109565C20.3657 0.178739 20.5054 0.278474 20.6213 0.40282L26.1056 5.8872L27 6.78157L26.1056 7.67595L20.6213 13.1603C20.3813 13.3839 20.064 13.5056 19.7361 13.4998C19.4082 13.494 19.0954 13.3612 18.8635 13.1293C18.6316 12.8974 18.4988 12.5846 18.493 12.2567C18.4872 11.9288 18.6089 11.6115 18.8325 11.3716L22.1569 8.0472H5.48438C5.09657 8.0472 4.71255 8.12358 4.35426 8.27199C3.99597 8.4204 3.67042 8.63792 3.3962 8.91214C3.12198 9.18637 2.90445 9.51192 2.75604 9.87021C2.60763 10.2285 2.53125 10.6125 2.53125 11.0003C2.53125 11.3881 2.60763 11.7721 2.75604 12.1304C2.90445 12.4887 3.12198 12.8143 3.3962 13.0885C3.67042 13.3627 3.99597 13.5802 4.35426 13.7287C4.71255 13.8771 5.09657 13.9534 5.48438 13.9534H8.85938C9.19504 13.9534 9.51696 14.0868 9.75431 14.3241C9.99166 14.5615 10.125 14.8834 10.125 15.2191C10.125 15.5547 9.99166 15.8767 9.75431 16.114C9.51696 16.3514 9.19504 16.4847 8.85938 16.4847H5.48438C4.02983 16.4847 2.63486 15.9069 1.60634 14.8784C0.577816 13.8498 0 12.4549 0 11.0003C0 9.54577 0.577816 8.1508 1.60634 7.12228C2.63486 6.09376 4.02983 5.51595 5.48438 5.51595H22.1569L18.8325 2.19157Z" fill="#EC1A25"/>
</svg>
