<svg width="10" height="10" viewBox="0 0 10 10" fill="none" xmlns="http://www.w3.org/2000/svg">
<path d="M7.85714 5.57143V5C7.85714 4.84845 7.79694 4.7031 7.68978 4.59594C7.58261 4.48878 7.43727 4.42857 7.28571 4.42857H1.57143C1.41988 4.42857 1.27453 4.48878 1.16737 4.59594C1.0602 4.7031 1 4.84845 1 5V8.42857C1 8.58012 1.0602 8.72547 1.16737 8.83263C1.27453 8.9398 1.41988 9 1.57143 9H7.28571C7.43727 9 7.58261 8.9398 7.68978 8.83263C7.79694 8.72547 7.85714 8.58012 7.85714 8.42857V7.85714M7.85714 5.57143H5.57143C5.26832 5.57143 4.97763 5.69184 4.76331 5.90616C4.54898 6.12049 4.42857 6.41118 4.42857 6.71429C4.42857 7.01739 4.54898 7.30808 4.76331 7.52241C4.97763 7.73674 5.26832 7.85714 5.57143 7.85714H7.85714M7.85714 5.57143C8.16025 5.57143 8.45094 5.69184 8.66527 5.90616C8.87959 6.12049 9 6.41118 9 6.71429C9 7.01739 8.87959 7.30808 8.66527 7.52241C8.45094 7.73674 8.16025 7.85714 7.85714 7.85714M2.71429 4.42857V2.71429C2.71429 2.25963 2.8949 1.82359 3.21639 1.5021C3.53788 1.18061 3.97391 1 4.42857 1C4.88323 1 5.31926 1.18061 5.64075 1.5021C5.96225 1.82359 6.14286 2.25963 6.14286 2.71429V4.42857M7.57143 6.71429H8.14286M6.42857 6.71429H7M5.28571 6.71429H5.85714" stroke="#EC1A25" stroke-width="0.5"/>
</svg>
