<svg width="60" height="60" viewBox="0 0 60 60" fill="none" xmlns="http://www.w3.org/2000/svg">
<circle cx="30" cy="30" r="30" fill="#81C2FE" fill-opacity="0.15"/>
<path d="M17.9999 40.4294C17.9999 40.4294 17.8507 41.591 17.9999 42.1433C18.1038 42.5264 18.203 43.1718 18.5999 43.1718H20.8284C21.2253 43.1718 21.3245 42.5264 21.4284 42.1433C21.5776 41.5918 21.4284 40.4294 21.4284 40.4294" stroke="#81C2FE" stroke-width="1.5" stroke-linecap="round" stroke-linejoin="round"/>
<path d="M41.5715 29.2863H18.4285C16.535 29.2863 15 30.8212 15 32.7147V37.0009C15 38.8944 16.535 40.4293 18.4285 40.4293H41.5715C43.465 40.4293 45 38.8944 45 37.0009V32.7147C45 30.8212 43.465 29.2863 41.5715 29.2863Z" stroke="#81C2FE" stroke-width="1.5" stroke-linecap="round" stroke-linejoin="round"/>
<path d="M38.5741 40.4294C38.5741 40.4294 38.4249 41.591 38.5741 42.1433C38.678 42.5264 38.7772 43.1718 39.1741 43.1718H41.4026C41.7995 43.1718 41.8988 42.5264 42.0026 42.1433C42.1518 41.5918 42.0026 40.4294 42.0026 40.4294" stroke="#81C2FE" stroke-width="1.5" stroke-linecap="round" stroke-linejoin="round"/>
<path d="M19.7146 37.0008C20.6616 37.0008 21.4292 36.2331 21.4292 35.2861C21.4292 34.3392 20.6616 33.5715 19.7146 33.5715C18.7677 33.5715 18 34.3392 18 35.2861C18 36.2331 18.7677 37.0008 19.7146 37.0008Z" stroke="#81C2FE" stroke-width="1.5" stroke-linecap="round" stroke-linejoin="round"/>
<path d="M18.4297 29.2862L20.4012 21.5715C20.7381 20.2538 22.2112 19 23.5728 19H36.4297C37.7912 19 39.2643 20.2538 39.6012 21.5715L41.5728 29.2862" stroke="#81C2FE" stroke-width="1.5" stroke-linecap="round" stroke-linejoin="round"/>
<path d="M40.2849 37.0008C41.2319 37.0008 41.9995 36.2331 41.9995 35.2861C41.9995 34.3392 41.2319 33.5715 40.2849 33.5715C39.338 33.5715 38.5703 34.3392 38.5703 35.2861C38.5703 36.2331 39.338 37.0008 40.2849 37.0008Z" stroke="#81C2FE" stroke-width="1.5" stroke-linecap="round" stroke-linejoin="round"/>
</svg>
