<svg width="60" height="60" viewBox="0 0 60 60" fill="none" xmlns="http://www.w3.org/2000/svg">
<circle cx="30" cy="30" r="30" fill="#4ABF2D" fill-opacity="0.15"/>
<path d="M27.9 17.002C28.1575 17.0019 28.4068 17.0922 28.6046 17.257C28.8024 17.4218 28.9361 17.6508 28.9824 17.904L29 18.102V24.702C29.0003 25.9699 28.5624 27.199 27.7606 28.1812C26.3744 29.8793 24.6 31.6664 24.6 33.8585V46.702C24.6005 46.9769 24.4981 47.242 24.3129 47.4451C24.1277 47.6483 23.8732 47.7747 23.5994 47.7995C23.3256 47.8244 23.0525 47.7458 22.8338 47.5793C22.615 47.4129 22.4666 47.1705 22.4176 46.9L22.4 46.702V33.6698C22.4 31.5874 20.7328 29.8917 19.3615 28.3245C18.5692 27.419 18.0956 26.2786 18.0132 25.0782L18 24.702V18.102C17.9995 17.8271 18.1019 17.562 18.2871 17.3589C18.4723 17.1558 18.7269 17.0293 19.0006 17.0045C19.2744 16.9797 19.5475 17.0582 19.7662 17.2247C19.985 17.3912 20.1334 17.6335 20.1824 17.904L20.2 18.102V24.702C20.1996 25.3847 20.411 26.0508 20.8051 26.6083C21.3774 27.4181 22.4 26.7748 22.4 25.7831V18.102C22.3995 17.8271 22.5019 17.562 22.6871 17.3589C22.8723 17.1558 23.1269 17.0293 23.4006 17.0045C23.6744 16.9797 23.9475 17.0582 24.1662 17.2247C24.385 17.3912 24.5334 17.6335 24.5824 17.904L24.6 18.102V24.0791C24.6 25.9015 26.6054 26.8435 26.7846 25.0298L26.8 24.702V18.102C26.8 17.8103 26.9159 17.5305 27.1222 17.3242C27.3285 17.1179 27.6083 17.002 27.9 17.002ZM38.9 17.002C39.1575 17.0019 39.4068 17.0922 39.6046 17.257C39.8024 17.4218 39.9361 17.6508 39.9824 17.904L40 18.102V46.702C40.0005 46.9769 39.8981 47.242 39.7129 47.4451C39.5277 47.6483 39.2731 47.7747 38.9994 47.7995C38.7256 47.8244 38.4525 47.7458 38.2338 47.5793C38.015 47.4129 37.8666 47.1705 37.8176 46.9L37.8 46.702V37.902C37.8 36.0795 36.3225 34.602 34.5 34.602C34.2425 34.6021 33.9932 34.5119 33.7954 34.3471C33.5976 34.1822 33.4639 33.9533 33.4176 33.7L33.4 33.502V22.502C33.4 21.0433 33.9795 19.6444 35.0109 18.6129C36.0424 17.5815 37.4413 17.002 38.9 17.002ZM36.7 32.402C37.3075 32.402 37.8 31.9095 37.8 31.302V23.1248C37.8 21.3013 35.7944 20.3596 35.6154 22.1742L35.6 22.502V31.302C35.6 31.9095 36.0925 32.402 36.7 32.402Z" fill="#4ABF2D"/>
</svg>
