<svg width="60" height="60" viewBox="0 0 60 60" fill="none" xmlns="http://www.w3.org/2000/svg">
<circle cx="30" cy="30" r="30" fill="#FF92C6" fill-opacity="0.15"/>
<path d="M26.8439 41.628H33.1575C33.3668 41.628 33.5676 41.5449 33.7156 41.3968C33.8636 41.2488 33.9467 41.0481 33.9467 40.8388C33.9467 40.6295 33.8636 40.4287 33.7156 40.2807C33.5676 40.1327 33.3668 40.0496 33.1575 40.0496H26.8439C26.6346 40.0496 26.4338 40.1327 26.2858 40.2807C26.1378 40.4287 26.0547 40.6295 26.0547 40.8388C26.0547 41.0481 26.1378 41.2488 26.2858 41.3968C26.4338 41.5449 26.6346 41.628 26.8439 41.628Z" fill="#FF92C6"/>
<path d="M37.4611 46.3693H22.5389C21.5486 46.3103 20.6217 45.8625 19.9598 45.1235C19.298 44.3845 18.9548 43.4141 19.0048 42.4233V18.946C18.9548 17.9552 19.298 16.9848 19.9598 16.2458C20.6217 15.5068 21.5486 15.0591 22.5389 15H37.4611C38.4514 15.0591 39.3783 15.5068 40.0402 16.2458C40.702 16.9848 41.0452 17.9552 40.9952 18.946V42.4233C41.0452 43.4141 40.702 44.3845 40.0402 45.1235C39.3783 45.8625 38.4514 46.3103 37.4611 46.3693ZM22.5389 16.5784C21.9679 16.6387 21.4434 16.9204 21.0778 17.363C20.7121 17.8057 20.5346 18.374 20.5832 18.946V42.4233C20.5346 42.9953 20.7121 43.5637 21.0778 44.0063C21.4434 44.4489 21.9679 44.7306 22.5389 44.7909H37.4611C38.0321 44.7306 38.5566 44.4489 38.9222 44.0063C39.2879 43.5637 39.4654 42.9953 39.4168 42.4233V18.946C39.4654 18.374 39.2879 17.8057 38.9222 17.363C38.5566 16.9204 38.0321 16.6387 37.4611 16.5784H22.5389Z" fill="#FF92C6"/>
</svg>
