<svg width="60" height="60" viewBox="0 0 60 60" fill="none" xmlns="http://www.w3.org/2000/svg">
<circle cx="30" cy="30" r="30" fill="#F6D836" fill-opacity="0.15"/>
<path d="M19.1346 39.2078V29.3525C19.1346 27.9518 17.5228 27.1647 16.4181 28.0259C16.2097 28.1836 15.9942 28.2449 15.7717 28.2095C15.5503 28.173 15.3601 28.0506 15.2012 27.8422C15.0422 27.6338 14.9775 27.4189 15.0069 27.1975C15.0352 26.975 15.15 26.7848 15.3513 26.627L29.7425 15.5705C29.998 15.3797 30.2759 15.2373 30.5761 15.1431C30.8764 15.0477 31.1837 15 31.4981 15C31.8125 15 32.1145 15.0471 32.4041 15.1413C32.6926 15.2367 32.9646 15.3797 33.2201 15.5705L47.6554 26.627C47.8568 26.7848 47.9698 26.975 47.9946 27.1975C48.0205 27.4189 47.9539 27.6338 47.795 27.8422C47.636 28.0435 47.4459 28.1624 47.2245 28.1989C47.0019 28.2343 46.79 28.173 46.5886 28.0153C45.4759 27.1562 43.8616 27.9494 43.8616 29.3551V39.2078C43.8616 39.9967 43.5837 40.6696 43.028 41.2266C42.4722 41.7823 41.7993 42.0602 41.0092 42.0602H21.987C21.1981 42.0602 20.5252 41.7823 19.9682 41.2266C19.4124 40.6708 19.1346 39.9979 19.1346 39.2078ZM21.987 40.294H41.0092C41.3259 40.294 41.5861 40.1922 41.7898 39.9885C41.9935 39.7847 42.0954 39.5245 42.0954 39.2078V34.489C42.0954 28.2422 39.1766 22.3541 34.2049 18.5718L32.1427 17.0029C31.9626 16.8463 31.7477 16.768 31.4981 16.768C31.2485 16.768 31.0336 16.8469 30.8534 17.0047L28.793 18.5718C23.8203 22.354 20.9008 28.2428 20.9008 34.4904V39.2078C20.9008 39.5245 21.0026 39.7847 21.2063 39.9885C21.41 40.1922 21.6703 40.294 21.987 40.294ZM24.4332 32.8229C24.7982 32.8229 25.1161 32.6875 25.387 32.4167C25.6578 32.1459 25.7932 31.8279 25.7932 31.4629C25.7932 31.0979 25.6578 30.78 25.387 30.5092C25.1161 30.2383 24.7982 30.1029 24.4332 30.1029C24.0682 30.1029 23.7503 30.2383 23.4794 30.5092C23.2086 30.78 23.0732 31.0979 23.0732 31.4629C23.0732 31.8279 23.2086 32.1459 23.4794 32.4167C23.7503 32.6875 24.0682 32.8229 24.4332 32.8229ZM31.4981 32.8229C31.8631 32.8229 32.181 32.6875 32.4518 32.4167C32.7227 32.1459 32.8581 31.8279 32.8581 31.4629C32.8581 31.0979 32.7227 30.78 32.4518 30.5092C32.181 30.2383 31.8631 30.1029 31.4981 30.1029C31.1331 30.1029 30.8151 30.2383 30.5443 30.5092C30.2735 30.78 30.1381 31.0979 30.1381 31.4629C30.1381 31.8279 30.2735 32.1459 30.5443 32.4167C30.8151 32.6875 31.1331 32.8229 31.4981 32.8229ZM38.563 32.8229C38.928 32.8229 39.2459 32.6875 39.5167 32.4167C39.7875 32.1459 39.9229 31.8279 39.9229 31.4629C39.9229 31.0979 39.7875 30.78 39.5167 30.5092C39.2459 30.2383 38.928 30.1029 38.563 30.1029C38.1979 30.1029 37.88 30.2383 37.6092 30.5092C37.3384 30.78 37.203 31.0979 37.203 31.4629C37.203 31.8279 37.3384 32.1459 37.6092 32.4167C37.88 32.6875 38.1979 32.8229 38.563 32.8229ZM21.987 40.294H20.9008H42.0954H21.987Z" fill="#F7D836"/>
</svg>
