<svg width="23" height="28" viewBox="0 0 23 28" fill="none" xmlns="http://www.w3.org/2000/svg">
<path d="M0.984375 5.83669V22.9122C0.984375 23.9573 1.39953 24.9595 2.13852 25.6985C2.87751 26.4375 3.87979 26.8527 4.92487 26.8527H18.0599C19.1049 26.8527 20.1072 26.4375 20.8462 25.6985C21.5852 24.9595 22.0004 23.9573 22.0004 22.9122V9.77719C22.0004 8.7321 21.5852 7.72982 20.8462 6.99084C20.1072 6.25185 19.1049 5.83669 18.0599 5.83669H0.984375ZM0.984375 5.83669V4.52319" stroke="#EC1A25" stroke-width="1.5"/>
<path d="M11.4913 18.9717C13.6676 18.9717 15.4318 17.2075 15.4318 15.0312C15.4318 12.8549 13.6676 11.0907 11.4913 11.0907C9.315 11.0907 7.55078 12.8549 7.55078 15.0312C7.55078 17.2075 9.315 18.9717 11.4913 18.9717Z" stroke="#EC1A25" stroke-width="1.5"/>
<path d="M19.3741 5.83673V6.82186H20.3592V5.83673H19.3741ZM2.39057 6.82186H19.3741V4.85161H2.39188L2.39057 6.82186ZM20.3592 5.83673V3.61166H18.389V5.83673H20.3592ZM16.2362 0.036321L2.05431 2.06174L2.33277 4.01228L16.5146 1.98818L16.2362 0.036321ZM2.05431 2.06174C1.48392 2.14305 0.962045 2.42752 0.584627 2.86286C0.207209 3.29819 -0.000387526 3.85513 5.43091e-07 4.43129H1.97025C1.96992 4.32959 2.00647 4.23122 2.07313 4.15441C2.13979 4.07761 2.23204 4.02626 2.33277 4.01228L2.05431 2.06174ZM20.3592 3.61166C20.3592 3.09418 20.2479 2.58274 20.033 2.11199C19.8181 1.64124 19.5045 1.22217 19.1136 0.883141C18.7226 0.544113 18.2633 0.293049 17.7669 0.146948C17.2705 0.000847261 16.7484 -0.03688 16.2362 0.036321L16.5146 1.98818C16.7475 1.95487 16.9847 1.97067 17.2104 2.03704C17.4361 2.10342 17.6448 2.2175 17.8226 2.37157C18.0003 2.52563 18.1428 2.71609 18.2406 2.93004C18.3383 3.144 18.3889 3.37645 18.389 3.61166H20.3592ZM2.39188 4.85161C2.28006 4.85161 2.17281 4.80718 2.09374 4.72811C2.01467 4.64904 1.97025 4.54311 1.97025 4.43129H5.43091e-07C-0.000172117 4.74544 0.0615779 5.05524 0.18172 5.34551C0.301862 5.63579 0.47804 5.89953 0.700181 6.12167C0.922322 6.34382 1.18607 6.51999 1.47634 6.64014C1.76662 6.76028 2.07641 6.82203 2.39057 6.82186L2.39188 4.85161Z" fill="#EC1A25"/>
<path d="M8.86719 22.9121H14.1212" stroke="#EC1A25" stroke-width="1.5" stroke-linecap="round"/>
</svg>
