<svg width="60" height="60" viewBox="0 0 60 60" fill="none" xmlns="http://www.w3.org/2000/svg">
<circle cx="30" cy="30" r="30" fill="#54C3BC" fill-opacity="0.15"/>
<path d="M30 36.1379C31.1048 36.1379 32.1849 35.8103 33.1035 35.1965C34.0222 34.5827 34.7382 33.7102 35.161 32.6895C35.5838 31.6687 35.6944 30.5455 35.4789 29.4619C35.2633 28.3783 34.7313 27.3829 33.95 26.6017C33.1688 25.8204 32.1734 25.2884 31.0898 25.0729C30.0062 24.8573 28.883 24.9679 27.8623 25.3907C26.8415 25.8135 25.9691 26.5295 25.3552 27.4482C24.7414 28.3668 24.4138 29.4469 24.4138 30.5517C24.4138 32.0333 25.0023 33.4542 26.05 34.5018C27.0976 35.5494 28.5184 36.1379 30 36.1379ZM30 26.2069C30.8593 26.2069 31.6994 26.4617 32.4139 26.9391C33.1284 27.4165 33.6852 28.0951 34.0141 28.889C34.3429 29.6829 34.429 30.5565 34.2613 31.3994C34.0937 32.2422 33.6799 33.0163 33.0723 33.624C32.4646 34.2316 31.6904 34.6454 30.8476 34.8131C30.0048 34.9807 29.1312 34.8947 28.3373 34.5658C27.5434 34.237 26.8648 33.6801 26.3874 32.9656C25.91 32.2511 25.6552 31.4111 25.6552 30.5517C25.6552 29.3994 26.1129 28.2943 26.9277 27.4795C27.7426 26.6647 28.8477 26.2069 30 26.2069ZM47.3793 20H12.6207C12.4561 20 12.2982 20.0654 12.1818 20.1818C12.0654 20.2982 12 20.4561 12 20.6207V40.4828C12 40.6474 12.0654 40.8053 12.1818 40.9217C12.2982 41.0381 12.4561 41.1034 12.6207 41.1034H47.3793C47.5439 41.1034 47.7018 41.0381 47.8182 40.9217C47.9346 40.8053 48 40.6474 48 40.4828V20.6207C48 20.4561 47.9346 20.2982 47.8182 20.1818C47.7018 20.0654 47.5439 20 47.3793 20ZM13.2414 30.5517C13.2414 28.6661 14.621 27.1093 16.1509 26.0069C16.5061 25.751 16.8417 25.4659 17.1538 25.1538C19.0333 23.2743 21.2118 21.2414 23.8698 21.2414H36.1302C38.7882 21.2414 40.9667 23.2743 42.8462 25.1538C43.1583 25.4659 43.4939 25.751 43.8491 26.0069C45.379 27.1093 46.7586 28.6661 46.7586 30.5517C46.7586 32.4374 45.379 33.9942 43.8491 35.0965C43.4939 35.3525 43.1583 35.6376 42.8462 35.9497C40.9667 37.8291 38.7882 39.8621 36.1302 39.8621H23.8698C21.2118 39.8621 19.0333 37.8291 17.1538 35.9497C16.8417 35.6376 16.5061 35.3525 16.1509 35.0965C14.621 33.9942 13.2414 32.4374 13.2414 30.5517ZM46.7586 23.3148C46.7586 24.6888 45.4142 25.6687 44.3354 24.8178C44.122 24.6496 43.9181 24.4684 43.7248 24.2752C43.5316 24.0819 43.3504 23.878 43.1822 23.6646C42.3313 22.5858 43.3112 21.2414 44.6852 21.2414C45.8303 21.2414 46.7586 22.1697 46.7586 23.3148ZM15.3148 21.2414C16.6888 21.2414 17.6687 22.5858 16.8178 23.6646C16.6496 23.878 16.4684 24.0819 16.2752 24.2752C16.0819 24.4684 15.878 24.6496 15.6646 24.8178C14.5858 25.6687 13.2414 24.6888 13.2414 23.3148C13.2414 22.1697 14.1697 21.2414 15.3148 21.2414ZM13.2414 37.7886C13.2414 36.4147 14.5858 35.4348 15.6646 36.2856C15.878 36.4539 16.0819 36.635 16.2752 36.8283C16.4684 37.0216 16.6496 37.2255 16.8178 37.4388C17.6687 38.5176 16.6888 39.8621 15.3148 39.8621C14.1697 39.8621 13.2414 38.9338 13.2414 37.7886ZM44.6852 39.8621C43.3112 39.8621 42.3313 38.5176 43.1822 37.4388C43.3504 37.2255 43.5316 37.0216 43.7248 36.8283C43.9181 36.635 44.122 36.4539 44.3354 36.2856C45.4142 35.4348 46.7586 36.4147 46.7586 37.7886C46.7586 38.9338 45.8303 39.8621 44.6852 39.8621Z" fill="#54C3BC"/>
</svg>
