<svg width="24" height="24" viewBox="0 0 24 24" fill="none" xmlns="http://www.w3.org/2000/svg">
<path d="M1 8.52628L1 21.2631C1 21.9026 1.51841 22.421 2.15789 22.421H21.8421C22.4816 22.421 23 21.9026 23 21.2631V8.52628C23 7.8868 22.4816 7.36839 21.8421 7.36839L2.15789 7.36839C1.51841 7.36839 1 7.8868 1 8.52628Z" stroke="#EC1A25" stroke-width="1.5" stroke-linejoin="bevel"/>
<path d="M3.31641 7.36842L16.6322 1L19.5269 7.36842" stroke="#EC1A25" stroke-width="1.5" stroke-linecap="round" stroke-linejoin="round"/>
<path d="M5.63055 12.579C6.27004 12.579 6.78845 12.0606 6.78845 11.4211C6.78845 10.7816 6.27004 10.2632 5.63055 10.2632C4.99106 10.2632 4.47266 10.7816 4.47266 11.4211C4.47266 12.0606 4.99106 12.579 5.63055 12.579Z" fill="#EC1A25"/>
<path d="M5.63055 16.0526C6.27004 16.0526 6.78845 15.5342 6.78845 14.8947C6.78845 14.2552 6.27004 13.7368 5.63055 13.7368C4.99106 13.7368 4.47266 14.2552 4.47266 14.8947C4.47266 15.5342 4.99106 16.0526 5.63055 16.0526Z" fill="#EC1A25"/>
<path d="M5.63055 19.5262C6.27004 19.5262 6.78845 19.0078 6.78845 18.3683C6.78845 17.7289 6.27004 17.2104 5.63055 17.2104C4.99106 17.2104 4.47266 17.7289 4.47266 18.3683C4.47266 19.0078 4.99106 19.5262 5.63055 19.5262Z" fill="#EC1A25"/>
<path d="M10.2617 18.3684H12.5775L18.9459 11.421M11.9986 14.8947H15.4722" stroke="#EC1A25" stroke-width="1.5" stroke-linecap="round" stroke-linejoin="round"/>
</svg>
