<svg width="60" height="60" viewBox="0 0 60 60" fill="none" xmlns="http://www.w3.org/2000/svg">
<circle cx="30" cy="30" r="30" fill="#FE8181" fill-opacity="0.15"/>
<path d="M27.6044 44.2454V37.6658C27.6044 35.4147 27.9845 33.1797 28.7285 31.0551L29.907 27.6902C30.007 27.4047 30.1075 27.1004 30.3454 26.9137C30.4582 26.8272 30.6323 26.784 30.8676 26.784H43.7368C43.9385 26.784 44.1114 26.8272 44.2554 26.9137C44.3995 27.0001 44.4968 27.116 44.5472 27.2612L45.8764 31.0576C46.6201 33.1818 47 35.4162 47 37.6668V44.2454C47 44.4591 46.9274 44.638 46.7821 44.7821C46.6368 44.9274 46.4573 45 46.2436 45H45.9537C45.74 45 45.5611 44.928 45.417 44.7839C45.2717 44.6386 45.1991 44.4591 45.1991 44.2454C45.1991 42.9793 44.1727 41.9529 42.9066 41.9529H31.6978C30.4317 41.9529 29.4053 42.9793 29.4053 44.2454C29.4053 44.4591 29.3333 44.638 29.1892 44.7821C29.0439 44.9274 28.8644 45 28.6507 45H28.3608C28.1471 45 27.9676 44.928 27.8223 44.7839C27.6783 44.6386 27.6062 44.4591 27.6062 44.2454M30.8424 29.8673C30.3428 31.3071 31.4119 32.8098 32.9359 32.8098H41.6685C43.1925 32.8098 44.2616 31.3071 43.762 29.8673C43.4526 28.9756 42.6123 28.3778 41.6685 28.3778H32.9359C31.9921 28.3778 31.1518 28.9756 30.8424 29.8673ZM32.0382 38.8356C32.4896 38.8356 32.8678 38.6831 33.1728 38.3781C33.4789 38.0732 33.632 37.695 33.632 37.2436C33.632 36.7921 33.4789 36.414 33.1728 36.109C32.8678 35.8029 32.4896 35.6498 32.0382 35.6498C31.5868 35.6498 31.2086 35.8023 30.9037 36.1072C30.5975 36.4134 30.4444 36.7915 30.4444 37.2418C30.4444 37.692 30.5975 38.0708 30.9037 38.3781C31.2086 38.6831 31.5868 38.8356 32.0382 38.8356ZM42.5662 38.8356C43.0176 38.8356 43.3958 38.6831 43.7008 38.3781C44.0069 38.0732 44.16 37.695 44.16 37.2436C44.16 36.7921 44.0069 36.414 43.7008 36.109C43.3958 35.8029 43.0176 35.6498 42.5662 35.6498C42.1148 35.6498 41.7366 35.8023 41.4316 36.1072C41.1255 36.4134 40.9724 36.7915 40.9724 37.2418C40.9724 37.692 41.1255 38.0708 41.4316 38.3781C41.7366 38.6831 42.1148 38.8356 42.5662 38.8356ZM22.2027 30.5929C21.4378 30.5929 20.8169 29.9729 20.8169 29.208C20.8169 28.4432 21.4378 27.8231 22.2027 27.8231C22.9675 27.8231 23.5884 28.4432 23.5884 29.208C23.5884 29.9729 22.9675 30.5929 22.2027 30.5929ZM29.4062 21.5884C28.6414 21.5884 28.0204 20.9684 28.0204 20.2036C28.0204 19.4387 28.6414 18.8187 29.4062 18.8187C30.1711 18.8187 30.792 19.4387 30.792 20.2036C30.792 20.9684 30.1711 21.5884 29.4062 21.5884ZM22.2027 37.7964C21.4378 37.7964 20.8169 37.1764 20.8169 36.4116C20.8169 35.6467 21.4378 35.0267 22.2027 35.0267C22.9675 35.0267 23.5884 35.6467 23.5884 36.4116C23.5884 37.1764 22.9675 37.7964 22.2027 37.7964ZM22.2027 45C21.4378 45 20.8169 44.38 20.8169 43.6151C20.8169 42.8503 21.4378 42.2302 22.2027 42.2302C22.9675 42.2302 23.5884 42.8503 23.5884 43.6151C23.5884 44.38 22.9675 45 22.2027 45ZM15.8995 45.0009C15.4026 45.0004 15 44.5974 15 44.1005V25.6062C15 23.617 16.6126 22.0044 18.6018 22.0044C20.591 22.0044 22.2036 20.3919 22.2036 18.4027V17.5022C22.2036 15.0157 24.2193 13 26.7058 13H31.7267C34.424 13 36.6107 15.1866 36.6107 17.884V21.8676C36.6107 22.3649 36.2075 22.768 35.7102 22.768C35.2129 22.768 34.8098 22.3649 34.8098 21.8676V18.7845C34.8098 16.5844 33.0263 14.8009 30.8262 14.8009H28.5067C26.0202 14.8009 24.0044 16.8166 24.0044 19.3031V20.2036C24.0044 22.1928 22.3919 23.8053 20.4027 23.8053C18.4135 23.8053 16.8009 25.4179 16.8009 27.4071V44.1005C16.8009 44.5981 16.3972 45.0014 15.8995 45.0009ZM29.1982 37.3813C29.1982 39.0259 30.5314 40.3591 32.176 40.3591H42.4284C44.073 40.3591 45.4062 39.0259 45.4062 37.3813C45.4062 35.7368 44.073 34.4036 42.4284 34.4036H32.176C30.5314 34.4036 29.1982 35.7368 29.1982 37.3813Z" fill="#FE8181"/>
</svg>
