<svg width="26" height="20" viewBox="0 0 26 20" fill="none" xmlns="http://www.w3.org/2000/svg">
<path d="M23.5625 19.5H2.4375C1.08875 19.5 0 18.4112 0 17.0625V2.4375C0 1.08875 1.08875 0 2.4375 0H23.5625C24.9112 0 26 1.08875 26 2.4375V17.0625C26 18.4112 24.9112 19.5 23.5625 19.5ZM2.4375 1.625C1.9825 1.625 1.625 1.9825 1.625 2.4375V17.0625C1.625 17.5175 1.9825 17.875 2.4375 17.875H23.5625C24.0175 17.875 24.375 17.5175 24.375 17.0625V2.4375C24.375 1.9825 24.0175 1.625 23.5625 1.625H2.4375Z" fill="#EC1A25"/>
<path d="M21.4338 7.19882H20.215C19.8412 7.19882 19.565 7.31257 19.3862 7.68632L17.0462 13.0163H18.7038C18.7038 13.0163 18.9963 12.3013 19.045 12.1388H21.0763C21.1413 12.3338 21.2712 13.0001 21.2712 13.0001H22.75L21.4338 7.21507V7.19882ZM19.5 10.9363C19.6462 10.5951 20.1338 9.31132 20.1338 9.31132C20.1338 9.34382 20.28 8.97007 20.3288 8.77507L20.4425 9.29507L20.8162 10.9851H19.5V10.9526V10.9363ZM17.16 11.0988C17.16 12.3013 16.0712 13.0976 14.3975 13.0976C13.6825 13.0976 13 12.9513 12.6263 12.7888L12.8538 11.4726L13.0487 11.5538C13.5687 11.7813 13.91 11.8626 14.5275 11.8626C14.9825 11.8626 15.47 11.6838 15.47 11.2938C15.47 11.0338 15.275 10.8713 14.6413 10.5788C14.04 10.2863 13.2437 9.83132 13.2437 9.01882C13.2437 7.88132 14.3488 7.10132 15.925 7.10132C16.5262 7.10132 17.03 7.21507 17.355 7.36132L17.1275 8.61257L17.0138 8.49882C16.7213 8.38507 16.3637 8.27132 15.8112 8.27132C15.21 8.30382 14.9337 8.56382 14.9337 8.79132C14.9337 9.05132 15.275 9.24632 15.8112 9.50632C16.7212 9.92882 17.1438 10.4163 17.1438 11.0988H17.16ZM3.25 7.24757L3.2825 7.13382H5.73625C6.0775 7.13382 6.3375 7.24757 6.41875 7.62132L6.955 10.1888C6.41875 8.82382 5.15125 7.70257 3.25 7.24757Z" fill="#EC1A25"/>
<path d="M10.3992 7.19888L7.91297 12.9839H6.22297L4.79297 8.14138C5.81672 8.79138 6.67797 9.83138 6.98672 10.5301L7.16547 11.1314L8.70922 7.16638H10.3992V7.19888ZM11.0655 7.16638H12.6255L11.6342 12.9839H10.0742L11.0655 7.16638Z" fill="#EC1A25"/>
</svg>
