<svg width="22" height="17" viewBox="0 0 22 17" fill="none" xmlns="http://www.w3.org/2000/svg">
<path d="M21.9563 7.81755C21.0938 5.58643 19.5964 3.65696 17.6492 2.26759C15.702 0.878232 13.3904 0.0898894 11 0C8.60964 0.0898894 6.29802 0.878232 4.35083 2.26759C2.40363 3.65696 0.906232 5.58643 0.0436893 7.81755C-0.0145631 7.97868 -0.0145631 8.15511 0.0436893 8.31623C0.906232 10.5474 2.40363 12.4768 4.35083 13.8662C6.29802 15.2556 8.60964 16.0439 11 16.1338C13.3904 16.0439 15.702 15.2556 17.6492 13.8662C19.5964 12.4768 21.0938 10.5474 21.9563 8.31623C22.0146 8.15511 22.0146 7.97868 21.9563 7.81755ZM11 14.6671C7.11322 14.6671 3.00644 11.785 1.51773 8.06689C3.00644 4.34879 7.11322 1.46671 11 1.46671C14.8868 1.46671 18.9936 4.34879 20.4823 8.06689C18.9936 11.785 14.8868 14.6671 11 14.6671Z" fill="#EC1A25"/>
<path d="M10.9978 3.66675C10.1275 3.66675 9.2768 3.92481 8.5532 4.4083C7.82961 4.89179 7.26563 5.579 6.9326 6.38302C6.59956 7.18704 6.51243 8.07175 6.68221 8.92529C6.85199 9.77883 7.27106 10.5629 7.88642 11.1782C8.50179 11.7936 9.28582 12.2127 10.1394 12.3825C10.9929 12.5522 11.8776 12.4651 12.6816 12.1321C13.4857 11.799 14.1729 11.235 14.6564 10.5115C15.1398 9.78785 15.3979 8.93714 15.3979 8.06687C15.3979 6.89989 14.9343 5.7807 14.1091 4.95551C13.284 4.13033 12.1648 3.66675 10.9978 3.66675ZM10.9978 11.0003C10.4176 11.0003 9.85046 10.8282 9.36806 10.5059C8.88567 10.1836 8.50968 9.72545 8.28766 9.18944C8.06564 8.65343 8.00754 8.06362 8.12073 7.49459C8.23392 6.92556 8.5133 6.40288 8.92354 5.99263C9.33379 5.58239 9.85647 5.30301 10.4255 5.18982C10.9945 5.07663 11.5843 5.13473 12.1204 5.35675C12.6564 5.57877 13.1145 5.95476 13.4368 6.43715C13.7592 6.91955 13.9312 7.4867 13.9312 8.06687C13.9312 8.84486 13.6221 9.59099 13.072 10.1411C12.5219 10.6912 11.7758 11.0003 10.9978 11.0003Z" fill="#EC1A25"/>
</svg>
