<svg width="55" height="54" viewBox="0 0 55 54" fill="none" xmlns="http://www.w3.org/2000/svg">
<g id="Frame 2">
<rect id="Rectangle 4757" width="50" height="48.2759" rx="10" fill="#A24AD8"/>
<path id="Vector" d="M10.2759 36.1955V34.615H23.7098V17.1351C22.9638 17.0002 22.3053 16.662 21.7342 16.1205C21.1631 15.5789 20.7996 14.8951 20.6437 14.069H15.199L19.7586 25.4673C19.6975 26.5209 19.2081 27.4171 18.2904 28.1557C17.3727 28.8953 16.2816 29.2651 15.0173 29.2651C13.7529 29.2651 12.6618 28.8953 11.7441 28.1557C10.8264 27.4171 10.337 26.5209 10.2759 25.4673L14.8355 14.069H11.8563V12.4886H20.6437C20.8175 11.6067 21.2569 10.8596 21.9618 10.2475C22.6667 9.6353 23.5128 9.32869 24.5 9.32764C25.4873 9.32764 26.3334 9.63425 27.0382 10.2475C27.7431 10.8596 28.1825 11.6067 28.3563 12.4886H37.1437V14.069H34.1645L38.7242 25.4673C38.663 26.5209 38.1736 27.4171 37.2559 28.1557C36.3382 28.8953 35.2471 29.2651 33.9828 29.2651C32.7184 29.2651 31.6274 28.8953 30.7096 28.1557C29.7919 27.4171 29.3025 26.5209 29.2414 25.4673L33.801 14.069H28.3563C28.2004 14.8961 27.8369 15.5799 27.2658 16.1205C26.6947 16.661 26.0362 16.9992 25.2902 17.1351V34.615H38.7242V36.1955H10.2759ZM30.8061 25.314H37.1595L33.9828 17.3753L30.8061 25.314ZM11.8405 25.314H18.194L15.0173 17.3753L11.8405 25.314ZM24.5 15.6495C25.1501 15.6495 25.708 15.4171 26.1737 14.9525C26.6384 14.4868 26.8707 13.9289 26.8707 13.2788C26.8707 12.6287 26.6384 12.0708 26.1737 11.6051C25.708 11.1404 25.1501 10.9081 24.5 10.9081C23.8499 10.9081 23.292 11.1404 22.8263 11.6051C22.3617 12.0708 22.1293 12.6287 22.1293 13.2788C22.1293 13.9289 22.3617 14.4868 22.8263 14.9525C23.292 15.4171 23.8499 15.6495 24.5 15.6495Z" fill="white"/>
</g>
</svg>
