<svg width="50" height="50" viewBox="0 0 50 50" fill="none" xmlns="http://www.w3.org/2000/svg">
<g id="Group 28282">
<rect id="Rectangle 4757" width="50" height="49.4828" rx="10" fill="#433C95"/>
<g id="Group 28499">
<path id="Vector" d="M23.6071 28.6428L22.3482 29.9017L24.6518 32.2142H13.7857V16.1428H12V32.2142C12 33.1991 12.8009 34 13.7857 34H24.6518L22.3482 36.3125L23.6071 37.5714L28.0714 33.1071L23.6071 28.6428Z" fill="white"/>
<path id="Vector_2" d="M20.0359 24.1785C20.529 24.1785 20.9288 23.7788 20.9288 23.2857C20.9288 22.7926 20.529 22.3928 20.0359 22.3928C19.5428 22.3928 19.1431 22.7926 19.1431 23.2857C19.1431 23.7788 19.5428 24.1785 20.0359 24.1785Z" fill="white"/>
<path id="Vector_3" d="M31.6427 26.8572H17.357C16.3722 26.8572 15.5713 26.0563 15.5713 25.0715V21.5001C15.5713 20.5152 16.3722 19.7144 17.357 19.7144H31.6427C32.6275 19.7144 33.4284 20.5152 33.4284 21.5001V25.0715C33.4284 26.0563 32.6275 26.8572 31.6427 26.8572ZM17.357 21.5001V25.0715H31.6427V21.5001H17.357Z" fill="white"/>
<path id="Vector_4" d="M35.2144 12.5714H24.3484L26.6519 10.2589L25.393 9L20.9287 13.4643L25.393 17.9286L26.6519 16.6696L24.3484 14.3571H35.2144V30.4286H37.0001V14.3571C37.0001 13.3732 36.1992 12.5714 35.2144 12.5714Z" fill="white"/>
</g>
</g>
</svg>
