<svg width="58" height="56" viewBox="0 0 58 56" fill="none" xmlns="http://www.w3.org/2000/svg">
<g id="Frame 3">
<g id="Group 28285">
<rect id="Rectangle 4757" width="50" height="48.2759" rx="10" fill="#FF9518"/>
<path id="Vector" d="M31.7081 36.323C30.2334 36.323 28.9827 35.8097 27.9561 34.783C26.9295 33.7546 26.4162 32.504 26.4162 31.0311C26.4162 29.5581 26.9295 28.3075 27.9561 27.2791C28.9827 26.2525 30.2334 25.7391 31.7081 25.7391C33.181 25.7391 34.4312 26.2525 35.4587 27.2791C36.4862 28.3057 37 29.5564 37 31.0311C37 32.5049 36.4862 33.7555 35.4587 34.783C34.4312 35.8105 33.181 36.3239 31.7081 36.323ZM32.2161 30.8128V27.7236C32.2161 27.5878 32.1654 27.4687 32.064 27.3664C31.9617 27.265 31.8426 27.2143 31.7068 27.2143C31.5718 27.2143 31.4532 27.2654 31.3509 27.3677C31.2494 27.4692 31.1987 27.5878 31.1987 27.7236V30.8101C31.1987 30.9451 31.2234 31.0756 31.2728 31.2017C31.3222 31.3287 31.4042 31.45 31.5189 31.5655L33.5364 33.5831C33.6352 33.681 33.7516 33.7343 33.8857 33.7432C34.0198 33.752 34.1441 33.6986 34.2588 33.5831C34.3743 33.4684 34.4321 33.348 34.4321 33.2219C34.4321 33.0958 34.3748 32.9754 34.2601 32.8607L32.2161 30.8128ZM16.1366 35C15.5492 35 15.0465 34.7905 14.6284 34.3716C14.2095 33.9535 14 33.4508 14 32.8634V15.9689C14 15.3815 14.2095 14.8788 14.6284 14.4607C15.0465 14.0418 15.5492 13.8323 16.1366 13.8323H22.2713C22.3947 13.3146 22.6695 12.8798 23.0955 12.5279C23.5215 12.176 24.0176 12 24.5838 12C25.1607 12 25.6607 12.1764 26.0841 12.5292C26.5074 12.8802 26.7809 13.3146 26.9043 13.8323H33.0297C33.618 13.8323 34.1212 14.0418 34.5393 14.4607C34.9582 14.8788 35.1677 15.3815 35.1677 15.9689V22.3298C35.1677 22.5177 35.1042 22.6747 34.9772 22.8008C34.8502 22.9278 34.6927 22.9913 34.5049 22.9913C34.3179 22.9913 34.1609 22.9278 34.0339 22.8008C33.9078 22.6747 33.8447 22.5177 33.8447 22.3298V15.9689C33.8447 15.7661 33.76 15.5795 33.5907 15.4093C33.4205 15.24 33.2339 15.1553 33.0311 15.1553H29.8758V17.0379C29.8758 17.3404 29.7743 17.5944 29.5715 17.7999C29.3686 18.0046 29.1172 18.1069 28.8174 18.1069H20.3503C20.0504 18.1069 19.7991 18.0046 19.5962 17.7999C19.3933 17.5944 19.2919 17.3404 19.2919 17.0379V15.1553H16.1366C15.9338 15.1553 15.7472 15.24 15.577 15.4093C15.4077 15.5795 15.323 15.7661 15.323 15.9689V32.8634C15.323 33.1006 15.3993 33.2956 15.5519 33.4481C15.7044 33.6007 15.8994 33.677 16.1366 33.677H23.8456C24.0335 33.677 24.1909 33.7405 24.3179 33.8675C24.4449 33.9945 24.508 34.152 24.5071 34.3398C24.5071 34.5268 24.444 34.6838 24.3179 34.8108C24.1909 34.9369 24.0335 35 23.8456 35H16.1366ZM24.5878 15.4596C24.8921 15.4596 25.1457 15.3573 25.3485 15.1527C25.5514 14.9463 25.6528 14.6914 25.6528 14.388C25.6528 14.0837 25.5501 13.8301 25.3445 13.6273C25.1382 13.4244 24.8833 13.323 24.5799 13.323C24.2756 13.323 24.022 13.4262 23.8192 13.6326C23.6163 13.8381 23.5149 14.0925 23.5149 14.3959C23.5149 14.7002 23.6181 14.9538 23.8244 15.1566C24.0299 15.3595 24.2844 15.4596 24.5878 15.4596Z" fill="white"/>
</g>
</g>
</svg>
