<svg width="50" height="49" viewBox="0 0 50 49" fill="none" xmlns="http://www.w3.org/2000/svg">
<rect width="50" height="48.2759" rx="10" fill="#82CD59"/>
<path d="M32.5708 33.2597L31.6597 32.3486C31.5412 32.2282 31.3995 32.1681 31.2347 32.1681C31.0699 32.1681 30.9278 32.2282 30.8083 32.3486C30.6889 32.469 30.6292 32.6097 30.6292 32.7708C30.6292 32.9329 30.6889 33.0731 30.8083 33.1917L32.0028 34.3861C32.175 34.5593 32.369 34.6458 32.5847 34.6458C32.7995 34.6458 32.9935 34.5593 33.1667 34.3861L36.0806 31.5153C36.2 31.3949 36.2644 31.2574 36.2736 31.1028C36.2829 30.9463 36.2185 30.7995 36.0806 30.6625C35.9611 30.5431 35.8148 30.4833 35.6417 30.4833C35.4685 30.4833 35.3218 30.5435 35.2014 30.6639L32.5708 33.2597ZM18.5417 19.5694H31.6833C31.8806 19.5694 32.0454 19.5032 32.1778 19.3708C32.3102 19.2384 32.3769 19.0731 32.3778 18.875C32.3778 18.6769 32.1375 18.5116 31.6569 18.3792C31.1773 18.2468 30.8921 18.1806 30.8014 18.1806H18.5417C18.3444 18.1806 18.1796 18.2468 18.0472 18.3792C17.9139 18.5116 17.8472 18.6769 17.8472 18.875C17.8472 19.0722 17.9139 19.2375 18.0472 19.3708C18.1806 19.5042 18.3454 19.5704 18.5417 19.5694ZM33.4444 38.1597C31.8972 38.1597 30.5843 37.6208 29.5056 36.5431C28.4269 35.4653 27.888 34.1523 27.8889 32.6042C27.8889 31.0579 28.4278 29.7454 29.5056 28.6667C30.5833 27.588 31.8963 27.0486 33.4444 27.0486C34.9917 27.0486 36.3046 27.588 37.3833 28.6667C38.462 29.7454 39.0009 31.0579 39 32.6042C39 34.1523 38.4611 35.4653 37.3833 36.5431C36.3037 37.6208 34.9907 38.1597 33.4444 38.1597ZM14 36.2236V15.2431C14 14.6227 14.2185 14.0935 14.6556 13.6556C15.0926 13.2185 15.6218 13 16.2431 13H33.9792C34.5995 13 35.1287 13.2185 35.5667 13.6556C36.0037 14.0926 36.2222 14.6218 36.2222 15.2431V23.5C35.9963 23.4167 35.7718 23.3454 35.5486 23.2861C35.3264 23.2269 35.088 23.1806 34.8333 23.1472V15.2444C34.8333 15.0306 34.7444 14.8343 34.5667 14.6556C34.388 14.4778 34.1921 14.3889 33.9792 14.3889H16.2431C16.0301 14.3889 15.8343 14.4778 15.6556 14.6556C15.4778 14.8343 15.3889 15.0301 15.3889 15.2431V33.9028H24.2C24.263 34.2824 24.3444 34.6537 24.4444 35.0167C24.5454 35.3796 24.6856 35.7259 24.8653 36.0556C24.8384 36.0611 24.8106 36.0569 24.7819 36.0431C24.7523 36.0301 24.7269 36.013 24.7056 35.9917L23.5667 35.2C23.4639 35.1333 23.3556 35.1 23.2417 35.1C23.1278 35.1 23.019 35.1338 22.9153 35.2014L21.6972 36.0444C21.5944 36.112 21.4861 36.1458 21.3722 36.1458C21.2583 36.1458 21.1495 36.112 21.0458 36.0444L19.8278 35.2014C19.725 35.1338 19.6167 35.1 19.5028 35.1C19.388 35.1 19.2792 35.1338 19.1764 35.2014L17.9583 36.0444C17.8546 36.112 17.7458 36.1458 17.6319 36.1458C17.5181 36.1458 17.4097 36.112 17.3069 36.0444L16.0889 35.2014C15.9852 35.1338 15.8764 35.1 15.7625 35.1C15.6486 35.1 15.5403 35.1338 15.4375 35.2014L14.3528 36.0444C14.2991 36.0806 14.1815 36.1394 14 36.2236ZM18.5417 30.0403H24.3875C24.4394 29.7856 24.5032 29.5472 24.5792 29.325C24.656 29.1028 24.7454 28.8782 24.8472 28.6514H18.5417C18.3435 28.6514 18.1782 28.7181 18.0458 28.8514C17.9134 28.9847 17.8468 29.1495 17.8458 29.3458C17.8458 29.544 17.9125 29.7093 18.0458 29.8417C18.1782 29.9741 18.3444 30.0403 18.5417 30.0403ZM18.5403 24.8056H28.0014C28.4532 24.4472 28.9389 24.1486 29.4583 23.9097C29.9769 23.6699 30.531 23.5056 31.1208 23.4167H18.5403C18.3431 23.4167 18.1782 23.4829 18.0458 23.6153C17.9125 23.7486 17.8458 23.9139 17.8458 24.1111C17.8458 24.3083 17.9125 24.4736 18.0458 24.6069C18.1782 24.7394 18.3431 24.8056 18.5403 24.8056Z" fill="white"/>
</svg>
