<svg width="51" height="50" viewBox="0 0 51 50" fill="none" xmlns="http://www.w3.org/2000/svg">
<g id="Group 28475">
<g id="Group 28286">
<rect id="Rectangle 4757" x="0.28125" width="50.2513" height="49.4828" rx="10" fill="#43D1B7"/>
</g>
<g id="Group 28483">
<path id="Vector" d="M26 36C23.6266 36 21.3066 35.2962 19.3332 33.9776C17.3598 32.6591 15.8217 30.7849 14.9135 28.5922C14.0052 26.3995 13.7676 23.9867 14.2306 21.6589C14.6936 19.3311 15.8365 17.193 17.5147 15.5147C19.193 13.8365 21.3311 12.6936 23.6589 12.2306C25.9867 11.7676 28.3995 12.0052 30.5922 12.9135C32.7849 13.8217 34.6591 15.3598 35.9776 17.3332C37.2962 19.3066 38 21.6266 38 24C38 27.1826 36.7357 30.2348 34.4853 32.4853C32.2348 34.7357 29.1826 36 26 36ZM26 13.7143C23.9657 13.7143 21.977 14.3175 20.2856 15.4477C18.5941 16.578 17.2757 18.1844 16.4972 20.0638C15.7187 21.9433 15.5151 24.0114 15.9119 26.0066C16.3088 28.0019 17.2884 29.8346 18.7269 31.2731C20.1654 32.7116 21.9981 33.6912 23.9934 34.0881C25.9886 34.485 28.0567 34.2813 29.9362 33.5028C31.8156 32.7243 33.4221 31.4059 34.5523 29.7144C35.6825 28.023 36.2857 26.0343 36.2857 24C36.2857 21.2721 35.202 18.6559 33.2731 16.7269C31.3442 14.798 28.7279 13.7143 26 13.7143Z" fill="white"/>
<path id="Vector_2" d="M29.934 29.1428L25.1426 24.3514V16.2856H26.8569V23.6399L31.1426 27.9342L29.934 29.1428Z" fill="white"/>
</g>
</g>
</svg>
