<svg width="58" height="56" viewBox="0 0 58 56" fill="none" xmlns="http://www.w3.org/2000/svg">
<g id="Frame 3">
<rect id="Rectangle 4757" width="50" height="48.2759" rx="10" fill="#EC1A25"/>
<path id="Vector" d="M23.8403 25.3941L26.9285 22.3059L30.0168 25.3941L31.0285 24.3824L27.9403 21.2941L31.0285 18.2059L30.0168 17.1941L26.9285 20.2824L23.8403 17.1941L22.8285 18.2059L25.9168 21.2941L22.8285 24.3824L23.8403 25.3941ZM19.0094 31.5882C18.333 31.5882 17.7682 31.3618 17.3153 30.9088C16.8614 30.4549 16.6344 29.8897 16.6344 29.2132V13.375C16.6344 12.6985 16.8614 12.1338 17.3153 11.6809C17.7682 11.227 18.333 11 19.0094 11H34.8477C35.5241 11 36.0888 11.227 36.5418 11.6809C36.9957 12.1338 37.2227 12.6985 37.2227 13.375V29.2132C37.2227 29.8897 36.9962 30.4549 36.5432 30.9088C36.0893 31.3618 35.5241 31.5882 34.8477 31.5882H19.0094ZM19.0094 30.1176H34.8477C35.0731 30.1176 35.2805 30.0235 35.4697 29.8353C35.658 29.6461 35.7521 29.4387 35.7521 29.2132V13.375C35.7521 13.1495 35.658 12.9422 35.4697 12.7529C35.2805 12.5647 35.0731 12.4706 34.8477 12.4706H19.0094C18.7839 12.4706 18.5766 12.5647 18.3874 12.7529C18.1991 12.9422 18.105 13.1495 18.105 13.375V29.2132C18.105 29.4387 18.1991 29.6461 18.3874 29.8353C18.5766 30.0235 18.7839 30.1176 19.0094 30.1176ZM14.5977 36C13.9212 36 13.3565 35.7735 12.9035 35.3206C12.4496 34.8667 12.2227 34.3015 12.2227 33.625V16.3162H13.6932V33.625C13.6932 33.8505 13.7874 34.0578 13.9756 34.2471C14.1648 34.4353 14.3722 34.5294 14.5977 34.5294H31.9065V36H14.5977Z" fill="white"/>
</g>
</svg>
