<svg width="50" height="50" viewBox="0 0 50 50" fill="none" xmlns="http://www.w3.org/2000/svg">
<rect width="50" height="49.4828" rx="10" fill="#68D1F3"/>
<path d="M26.4762 18.1905H24.619V24.381L29.9181 27.5257L30.8095 26.0276L26.4762 23.4524V18.1905ZM25.8571 12C22.9019 12 20.0676 13.174 17.978 15.2637C15.8883 17.3534 14.7143 20.1876 14.7143 23.1429H11L15.9029 28.1324L20.9048 23.1429H17.1905C17.1905 20.8443 18.1036 18.6399 19.7289 17.0146C21.3542 15.3893 23.5586 14.4762 25.8571 14.4762C28.1557 14.4762 30.3601 15.3893 31.9854 17.0146C33.6107 18.6399 34.5238 20.8443 34.5238 23.1429C34.5238 25.4414 33.6107 27.6458 31.9854 29.2711C30.3601 30.8964 28.1557 31.8095 25.8571 31.8095C23.4676 31.8095 21.301 30.8314 19.741 29.259L17.9829 31.0171C19.0123 32.0579 20.2389 32.883 21.5909 33.4442C22.9429 34.0054 24.3933 34.2915 25.8571 34.2857C28.8124 34.2857 31.6466 33.1117 33.7363 31.022C35.826 28.9324 37 26.0981 37 23.1429C37 20.1876 35.826 17.3534 33.7363 15.2637C31.6466 13.174 28.8124 12 25.8571 12Z" fill="white"/>
</svg>
